<svg xmlns="http://www.w3.org/2000/svg" width="1080" height="1339.027" viewBox="0 0 1080 1339.027">
  <g id="Cancer_Classification_SystemCancer_Classification_System" data-name="Cancer Classification SystemCancer Classification System" transform="translate(0 0)">
    <g id="Group_13321" data-name="Group 13321" transform="translate(-42.317 -34.317)">
      <g id="Group_13176" data-name="Group 13176" transform="translate(42.318 34.318)">
        <g id="Group_13175" data-name="Group 13175" transform="translate(31.482 31.482)">
          <rect id="Rectangle_1489" data-name="Rectangle 1489" width="1017.85" height="1017.85" rx="3" transform="translate(0 0)" fill="#fff"/>
        </g>
        <g id="Group_13174" data-name="Group 13174" transform="translate(0 0)">
          <g id="Group_13171" data-name="Group 13171">
            <g id="barcode-scanner">
              <path id="Path_68576" data-name="Path 68576" d="M309.5,315A22.508,22.508,0,0,1,287,292.5v-180A67.582,67.582,0,0,0,219.5,45H39.5a22.5,22.5,0,1,1,0-45h180A112.628,112.628,0,0,1,332,112.5v180A22.508,22.508,0,0,1,309.5,315Z" transform="translate(748 0)" fill="#414042"/>
              <path id="Path_68577" data-name="Path 68577" d="M219.5,332H39.5a22.5,22.5,0,1,1,0-45h180A67.582,67.582,0,0,0,287,219.5V39.5a22.5,22.5,0,1,1,45,0v180A112.628,112.628,0,0,1,219.5,332Z" transform="translate(748 748)" fill="#414042"/>
              <path id="Path_68578" data-name="Path 68578" d="M292.5,332h-180A112.628,112.628,0,0,1,0,219.5V39.5a22.5,22.5,0,1,1,45,0v180A67.582,67.582,0,0,0,112.5,287h180a22.5,22.5,0,1,1,0,45Z" transform="translate(0 748)" fill="#414042"/>
              <path id="Path_68579" data-name="Path 68579" d="M22.5,315A22.508,22.508,0,0,1,0,292.5v-180A112.628,112.628,0,0,1,112.5,0h180a22.5,22.5,0,1,1,0,45h-180A67.582,67.582,0,0,0,45,112.5v180A22.508,22.508,0,0,1,22.5,315Z" transform="translate(0 0)" fill="#414042"/>
              <rect id="Rectangle_1490" data-name="Rectangle 1490" width="708.07" height="693.318" transform="translate(178.996 208.499)" fill="rgba(245,63,63,0.38)" opacity="0.38"/>
            </g>
            <g id="Group_13173" data-name="Group 13173" transform="translate(51.986 160.43)">
              <g id="cancer-cell" transform="translate(229.673 121.229)">
                <g id="Group_13167" data-name="Group 13167" transform="translate(0 0)">
                  <path id="Path_68566" data-name="Path 68566" d="M362.633,388.807,357.5,374.492a31.663,31.663,0,0,1-12.539,1.646l-.2,15.2C345.227,391.346,357.875,390.511,362.633,388.807Z" transform="translate(4.709 5.117)" fill="#f53f3f"/>
                  <path id="Path_68567" data-name="Path 68567" d="M382.511,131.989a43.666,43.666,0,0,0-31.677-12.883l-36.57.472c-16.435-15.244-31.635-40.46-57.015-39.469A43.65,43.65,0,0,0,225.738,93.4l-25.5,26.176c-22.393.841-51-6.226-68.244,12.41a43.651,43.651,0,0,0-12.884,31.677l.472,36.57c-15.243,16.435-40.46,31.635-39.469,57.014A43.652,43.652,0,0,0,93.4,288.762l26.176,25.5c.856,22.463-6.258,50.942,12.41,68.245a43.692,43.692,0,0,0,31.678,12.884l36.57-.471c16.435,15.243,31.635,40.46,57.015,39.469A43.65,43.65,0,0,0,288.76,421.1l25.5-26.175,18.912.244.2-15.2-25.441-.329L277.87,410.487a28.791,28.791,0,0,1-41.242,0l-30.06-30.853-43.1.556a28.79,28.79,0,0,1-29.159-29.16l.555-43.1-30.853-30.061a28.789,28.789,0,0,1,0-41.242l30.853-30.06-.555-43.1a28.79,28.79,0,0,1,29.16-29.159l43.1.555,30.061-30.852a28.789,28.789,0,0,1,41.242,0l30.06,30.852,43.1-.555a28.789,28.789,0,0,1,29.159,29.16l-.555,43.1,30.853,30.061a28.79,28.79,0,0,1,0,41.242l-30.853,30.06.555,43.1a28.53,28.53,0,0,1-8.679,20.976l10.621,10.88c19.138-17.327,11.937-46,12.79-68.621,15.243-16.436,40.46-31.635,39.469-57.014A43.652,43.652,0,0,0,421.1,225.739l-26.176-25.5.472-36.569A43.658,43.658,0,0,0,382.511,131.989Z" transform="translate(1.094 1.094)" fill="#f53f3f"/>
                  <path id="Path_68568" data-name="Path 68568" d="M248.387,195.375a38,38,0,0,0-5.246-19.278l-13.1,7.72c9.034,14.583-2.443,34.8-19.668,34.364a22.834,22.834,0,0,1-22.809-22.808c-.425-17.145,19.617-28.636,34.209-19.76l7.617-13.158c-24.33-14.81-57.737,4.33-57.03,32.92C173.677,245.5,247.078,245.49,248.387,195.375Z" transform="translate(2.355 2.149)" fill="#f53f3f"/>
                  <path id="Path_68569" data-name="Path 68569" d="M315.369,338.386c50.123-1.317,50.113-74.716,0-76.025C265.243,263.68,265.252,337.076,315.369,338.386Zm0-60.82c30.074.789,30.068,44.828,0,45.615C285.294,322.391,285.3,278.351,315.369,277.566Z" transform="translate(3.795 3.585)" fill="#f53f3f"/>
                  <path id="Path_68570" data-name="Path 68570" d="M217.771,330.306V315.1h15.206V299.9H217.771V284.692h-15.2V299.9H187.361v15.2h15.206v15.2Z" transform="translate(2.559 3.89)" fill="#f53f3f"/>
                  <path id="Path_68571" data-name="Path 68571" d="M309.944,224.47a22.733,22.733,0,0,0,16.128-6.671l21.5-21.5c20.7-21.814-10.431-52.965-32.254-32.254l-21.5,21.5C279.386,199.359,290.219,224.987,309.944,224.47ZM304.569,196.3l21.5-21.5c7.059-6.985,17.747,3.684,10.752,10.753l-21.5,21.5C308.265,214.034,297.572,203.368,304.569,196.3Z" transform="translate(3.924 2.148)" fill="#f53f3f"/>
                  <path id="Path_68572" data-name="Path 68572" d="M501.482,227.933V250.74h-30.8c-1.879-27.706-21.362-45.639-40.163-63.7.518-26.094,1.62-52.546-16.646-73.472l21.773-21.773,16.127,16.127,10.751-10.751L419.516,54.165,408.765,64.916l16.127,16.127-21.775,21.773c-20.926-18.27-47.4-17.164-73.471-16.646-18.077-18.817-36-38.282-63.7-40.163V15.2h22.807V0h-60.82V15.2h22.807v30.8c-27.706,1.878-45.639,21.362-63.7,40.163l-19.922-.011-.008,15.2,26.231.014c18.513-18.279,36.028-41.667,65-40.552,29.086-1.072,46.445,22.257,65,40.552,26.011.17,54.972-3.988,74.669,17.294,21.329,19.808,17.1,48.608,17.293,74.668,18.279,18.514,41.667,36.028,40.552,65,1.073,29.086-22.257,46.445-40.552,65-.172,26.03,3.992,54.961-17.294,74.669-19.814,21.332-48.6,17.1-74.668,17.293-18.514,18.279-36.028,41.667-65,40.551-29.086,1.072-46.445-22.257-65-40.551-26.011-.17-54.972,3.988-74.669-17.294-21.329-19.808-17.1-48.608-17.293-74.668-18.279-18.513-41.667-36.027-40.552-65-1.072-29.086,22.257-46.445,40.552-65l-.017-32.85a59.176,59.176,0,0,1,51.513-58.648l-1.93-15.082a73.758,73.758,0,0,0-37.352,16.08l-21.8-21.8,16.127-16.127L97.17,54.164,54.164,97.17,64.915,107.92,81.042,91.793l21.8,21.8c-18.17,20.971-17.235,46.966-16.677,73.441-18.817,18.077-38.281,36-40.163,63.7H15.2V227.932H0v60.82H15.2V265.944h30.8c1.878,27.707,21.362,45.639,40.163,63.7-.518,26.094-1.62,52.545,16.646,73.472L81.043,424.891,64.916,408.764,54.165,419.515l43.006,43.006,10.751-10.751L91.794,435.642l21.773-21.773c20.927,18.271,47.4,17.164,73.471,16.646,18.077,18.816,36,38.282,63.7,40.163v30.8H227.933v15.2h60.82v-15.2H265.945v-30.8c27.706-1.879,45.639-21.362,63.7-40.163,26.091.519,52.546,1.62,73.471-16.646l21.773,21.773L408.764,451.77l10.751,10.751,43.006-43.006L451.77,408.764l-16.127,16.127-21.773-21.773c18.269-20.925,17.164-47.4,16.646-73.471,18.817-18.078,38.282-36,40.163-63.7h30.8v22.807h15.2v-60.82h-15.2Z" transform="translate(0 0)" fill="#f53f3f"/>
                </g>
                <g id="Group_13168" data-name="Group 13168" transform="translate(250.74 258.343)">
                  <path id="Path_68573" data-name="Path 68573" d="M247.361,254.861h15.207v15.205H247.361Z" transform="translate(-247.361 -254.861)" fill="#f53f3f"/>
                </g>
                <g id="Group_13169" data-name="Group 13169" transform="translate(250.74 349.572)">
                  <path id="Path_68574" data-name="Path 68574" d="M247.361,344.861h15.207v15.2H247.361Z" transform="translate(-247.361 -344.861)" fill="#f53f3f"/>
                </g>
                <g id="Group_13170" data-name="Group 13170" transform="translate(159.511 258.343)">
                  <path id="Path_68575" data-name="Path 68575" d="M157.361,254.861h15.206v15.205H157.361Z" transform="translate(-157.361 -254.861)" fill="#f53f3f"/>
                </g>
              </g>
              <path id="Path_68580" data-name="Path 68580" d="M682.8,285.118H86.336A81.435,81.435,0,0,1,5,203.783V41.112a27.112,27.112,0,0,1,54.224,0V203.783a27.157,27.157,0,0,0,27.112,27.112H682.8a27.157,27.157,0,0,0,27.112-27.112V41.112a27.112,27.112,0,0,1,54.224,0V203.783A81.435,81.435,0,0,1,682.8,285.118Z" transform="translate(103.449 474.014)" fill="#f53f3f"/>
              <path id="Path_68581" data-name="Path 68581" d="M737.02,330.342a27.122,27.122,0,0,1-27.112-27.112V86.336A27.157,27.157,0,0,0,682.8,59.224H86.336A27.157,27.157,0,0,0,59.224,86.336V303.23A27.112,27.112,0,1,1,5,303.23V86.336A81.435,81.435,0,0,1,86.336,5H682.8a81.435,81.435,0,0,1,81.336,81.336V303.23A27.122,27.122,0,0,1,737.02,330.342Z" transform="translate(103.449 -5)" fill="#f53f3f"/>
              <path id="Path_68582" data-name="Path 68582" d="M951.915,68.224H30.112a27.112,27.112,0,0,1,0-54.224h921.8a27.112,27.112,0,1,1,0,54.224Z" transform="translate(-3 474.014)" fill="#f53f3f"/>
            </g>
          </g>
        </g>
      </g>
    </g>
    <text id="Cancer_Classification_System" data-name="Cancer Classification System" transform="translate(53.5 1115.027)" fill="#f53f3f" font-size="77" font-family="Poppins-Regular, Poppins"><tspan x="-465.041" y="81">CANCER CLASSIFICATION </tspan><tspan x="-141.41" y="197">SYSTEM</tspan></text>
  </g>
</svg>
