<svg id="Layer_1" data-name="Layer 1" xmlns="http://www.w3.org/2000/svg" viewBox="0 0 120 120"><defs><style>.cls-1{fill:#fff;}.cls-2{fill:#831b51;}.cls-3{fill:#831a51;}.cls-4{fill:#661141;}.cls-5{fill:#430d2e;}.cls-6{fill:#590936;}.cls-7{fill:#530f3d;}.cls-8{fill:#61154a;}.cls-9{fill:#641142;}.cls-10{fill:#621244;}.cls-11{fill:#671141;}.cls-12{fill:#611447;}.cls-13{fill:#582158;}.cls-14{fill:#5e184e;}.cls-15{fill:#5c1950;}.cls-16{fill:#5a1d54;}.cls-17{fill:#5c1b52;}.cls-18{fill:#9ca4a6;}.cls-19{fill:#430f35;}.cls-20{fill:#311324;}.cls-21{fill:#531031;}.cls-22{fill:#510d2f;}.cls-23{fill:#824860;}</style></defs><path class="cls-1" d="M120,42q0,31.86,0,63.73c0,.39-.06.52-.5.52q-59.5,0-119,0c-.4,0-.49-.07-.49-.48Q0,60.69,0,15.57c0-.44.12-.5.52-.5H59.61c0,.34-.33.37-.54.47-1.68.77-3.36,1.54-5,2.29-2.68,1.2-5.35,2.43-8,3.64-3,1.36-6,2.73-9,4.08l-7.87,3.58-9,4.07-7.88,3.58C9.67,38,7.07,39.13,4.48,40.32c-1.29.59-2.59,1.16-3.87,1.77.05.21.23.21.35.27,3.59,1.62,7.19,3.2,10.79,4.8,3.75,1.66,7.51,3.32,11.25,5l4.31,1.92c.57.25.6.24.76-.34a7.09,7.09,0,0,1,2.57-3.34A28.88,28.88,0,0,1,36,46.93a107.33,107.33,0,0,1,14.7-6.34c1.34-.48,2.68-1,4-1.42.27-.07.53-.19.81-.24a1.05,1.05,0,0,1,.62.21,6.62,6.62,0,0,0,1.59.64c.21,0,.46.07.46.38a13.3,13.3,0,0,1-2,.75,138.75,138.75,0,0,0-14.49,5.57,53.88,53.88,0,0,0-7.21,3.89,17.42,17.42,0,0,0-3.37,2.87,4.16,4.16,0,0,0-1,2.34,35.28,35.28,0,0,0-.41,3.69c0,.75-.15,1.49-.11,2.24s-.1,1.43-.1,2.15q0,6,0,11.94c0,.33,0,.67,0,1,0,.61-.1.69-.68.81-.38.08-.77.1-1.15.17s-.57-.13-.6-.5c-.06-1.53,0-3.07,0-4.6s0-3,0-4.49c0-2.2.09-4.39.13-6.59.19-.83.07-1.69.21-2.53a.51.51,0,0,0-.31-.59c-1.38-.63-2.76-1.25-4.16-1.85a.22.22,0,0,0-.25.06,1.48,1.48,0,0,0-.05.66c0,3.12,0,6.23,0,9.35a4.32,4.32,0,0,1,0,.88,1.58,1.58,0,0,1-.37.67,6.63,6.63,0,0,0-1.68,3.72,6.48,6.48,0,0,0,0,1.32c0,3.29.06,6.59,0,9.87A4.91,4.91,0,0,0,22,86.68c.25.26.56.5.57.91-.32,1.73-.68,3.44-.92,5.18-.34,2.51-.6,5-.73,7.55,0,.77-.08,1.54-.11,2.32a2.1,2.1,0,0,0,.85,1.77,6.19,6.19,0,0,0,2.61,1.15c.27.07.55.1.82.16a15.49,15.49,0,0,0,7.44-.4,4.46,4.46,0,0,0,1.5-.81c1.26-.91,1.32-2.21,1.21-3.59-.15-2-.22-4-.45-5.91a.44.44,0,0,1,0-.27c.28-.23.56-.08.84,0,1.46.47,2.91,1,4.39,1.38a75.11,75.11,0,0,0,12.55,2.2c1.48.15,3,.18,4.48.27s3.1.12,4.65.08a70.74,70.74,0,0,0,19.27-3,54.61,54.61,0,0,0,8-3.2,35.39,35.39,0,0,0,8-5.3,15,15,0,0,0,1.41-1.57,2.87,2.87,0,0,0,.68-2c0-3.47,0-7,0-10.42a6.66,6.66,0,0,0-1.8-5.2,1.11,1.11,0,0,1-.21-.32,2.34,2.34,0,0,1-.11-1c0-3.11,0-6.21,0-9.31,0-.15,0-.29,0-.44s-.13-.37-.39-.26-.48.19-.71.3-.76.28-1.11.47c-.19.1-.4.16-.59.24s-.68.27-1,.44-.53.24-.79.35c-.59.24-1.16.52-1.75.77-.34.14-.67.31-1,.44s-.84.33-1.23.56c-.54.19-1,.46-1.56.68-5.56,2.44-11.1,4.89-16.66,7.32C67,69.62,63.79,71,60.62,72.44a1.9,1.9,0,0,1-1.69,0c-4.58-2.07-9.19-4.09-13.78-6.13L31.26,60.12a.74.74,0,0,1-.36-.25.49.49,0,0,1-.06-.17c-.11-1.07.13-2.13.11-3.2a.63.63,0,0,1,.21-.49c.25-.16.47,0,.68.06q10,4.47,20.07,8.91l7.3,3.25a1.36,1.36,0,0,0,1.21,0L78.84,60.1l17.61-7.74c6.39-2.82,12.79-5.62,19.18-8.46,1.4-.62,2.82-1.2,4.2-1.88A.14.14,0,0,1,120,42Z"/><path class="cls-2" d="M119.85,42.05c0,.3-.26.26-.42.33L93.55,53.79,60.23,68.45a1,1,0,0,1-.93,0L31.53,56.1l-.25-.1a.3.3,0,0,1-.17-.18,2.12,2.12,0,0,1,.6-1.67,14.85,14.85,0,0,1,3-2.71,54.76,54.76,0,0,1,8.29-4.56c4.46-2.08,9.07-3.78,13.7-5.42a5,5,0,0,1,.69-.21,21.32,21.32,0,0,0,3.2.2,8.47,8.47,0,0,0,2.85-.62,3.29,3.29,0,0,0,.95-.57c.72-.64.81-1.08.4-2.06A2.33,2.33,0,0,0,63,36.09a8.63,8.63,0,0,0-6.13,0,2.16,2.16,0,0,0-1.7,2,10.9,10.9,0,0,0-.42,1.13c-2.32.84-4.65,1.64-7,2.52a85.08,85.08,0,0,0-14.24,6.67,20.06,20.06,0,0,0-4.09,3.2A4.65,4.65,0,0,0,28.16,54c-.09.46-.23.5-.64.31L15.1,48.8.66,42.38l-.44-.19a1.25,1.25,0,0,1,.61-.36L52.41,18.42l6.65-3c.19-.09.43-.1.55-.32h.33c1.59.52,3.06,1.3,4.58,2,3.16,1.4,6.3,2.83,9.45,4.24L82.26,25l9.56,4.3,9.55,4.3c3,1.38,6.1,2.74,9.15,4.11s6,2.69,9,4C119.62,41.82,119.78,41.88,119.85,42.05Z"/><path class="cls-1" d="M119.85,42.05c-2-.89-4-1.77-6-2.67l-53.44-24c-.16-.07-.36-.08-.46-.26h59.51c.43,0,.55,0,.55.52q0,13.23,0,26.45Z"/><path class="cls-3" d="M99.23,73.1q0,4,0,8c0,.85,0,1.71,0,2.55a2.91,2.91,0,0,1-.68,2,16.15,16.15,0,0,1-3.15,3,44.16,44.16,0,0,1-12.51,6.52,62.92,62.92,0,0,1-12.91,3,72.71,72.71,0,0,1-11.23.62,72.62,72.62,0,0,1-23.37-4,1,1,0,0,0-.54-.07,2.44,2.44,0,0,1-.25-1.27,45.47,45.47,0,0,0-1.92-9c-.07-.2-.18-.41-.05-.63a.76.76,0,0,1,.64.07,66.46,66.46,0,0,0,15.88,4c1.85.24,3.71.41,5.57.53,1.55.09,3.11,0,4.65.12a9,9,0,0,0,2.37,0c.94-.11,1.88-.1,2.82-.14a74.78,74.78,0,0,0,11.85-1.55A56.27,56.27,0,0,0,87,83.63a32.07,32.07,0,0,0,8-4.55,12.43,12.43,0,0,0,3.56-4.26,10,10,0,0,0,.46-1.3C99,73.36,99,73.13,99.23,73.1Z"/><path class="cls-3" d="M27.63,77.44c.45-.08.9-.18,1.35-.22.29,0,.37-.13.36-.41s0-.76,0-1.15c.2,0,.35.07.52.15.44.22.51.19.51-.3,0-1.92.11-3.83.14-5.75,0-2.49.11-5,.2-7.47a1.59,1.59,0,0,1,.06-.38c.21-.36.52-.22.79-.15a38.47,38.47,0,0,1,5.64,2,112.19,112.19,0,0,1,13.6,7.57c4,2.48,7.94,5,12.07,7.24A41.9,41.9,0,0,0,73.93,83a18.16,18.16,0,0,0,4.23.39,2.83,2.83,0,0,1,.77,0c.14,0,.32.08.17.29a9.8,9.8,0,0,1-2.18.6,75.74,75.74,0,0,1-8.61,1.28,81.27,81.27,0,0,1-11.57.28,63.56,63.56,0,0,1-22.36-4.56A37.39,37.39,0,0,1,28,77.89C27.82,77.78,27.62,77.69,27.63,77.44Z"/><path class="cls-4" d="M79.14,83.63c-.12-.13-.27-.1-.42-.09A25.08,25.08,0,0,1,67.47,81a76.19,76.19,0,0,1-8.88-4.72c-4.41-2.68-8.77-5.44-13.2-8.07a57.75,57.75,0,0,0-13-6,6.33,6.33,0,0,0-1.55-.35l-.08-.07A3.5,3.5,0,0,1,31,59.88c2.21,1,4.42,1.93,6.62,2.91q10.83,4.8,21.64,9.62a1.21,1.21,0,0,0,1.08,0L86.63,60.8a.47.47,0,0,1,.17,0c.27,0,.33.19.37.4a3,3,0,0,1,0,.6V80a3,3,0,0,1,0,.6.65.65,0,0,1-.45.51,36,36,0,0,1-6,2.21c-.36.09-.71.21-1.06.32C79.52,83.68,79.33,83.8,79.14,83.63Z"/><path class="cls-5" d="M79.14,83.63a46.2,46.2,0,0,0,7.76-2.76s.08-.07.12-.11a3.89,3.89,0,0,1,.89-.55,28.31,28.31,0,0,0,5.7-3.8,11.79,11.79,0,0,0,3.09-3.78A2.62,2.62,0,0,0,97,71.4c0-.94,0-1.88,0-2.82,0-.31-.16-.69.25-.91a6.79,6.79,0,0,1,2,5.43A9.68,9.68,0,0,1,96.41,78,24.17,24.17,0,0,1,90.71,82a53.39,53.39,0,0,1-14.1,5,73.9,73.9,0,0,1-7.84,1.24q-3.47.38-6.95.44a17.77,17.77,0,0,1-2.42,0c-.52,0-1,0-1.55,0a68.89,68.89,0,0,1-8-.55,74,74,0,0,1-10-1.89,56.23,56.23,0,0,1-6.62-2.16l-.58-.19c-.31-.15-.33-.47-.44-.73a8.6,8.6,0,0,0-1.82-2.82,3.52,3.52,0,0,0-2.48-1,2.68,2.68,0,0,0-1.36.56c-.26.14-.46.38-.79.36a6.59,6.59,0,0,1-1.52-1.09,14.89,14.89,0,0,1-2.93-3.3,6,6,0,0,1-.88-4.12,6.61,6.61,0,0,1,2-4.11c.33.09.24.38.24.59,0,1,0,2,0,3a3.45,3.45,0,0,0,.72,2.21,15.42,15.42,0,0,0,3.16,3.14c.24.18.51.32.62.62s.22.33.45.33a32.24,32.24,0,0,0,5.21,3A51.33,51.33,0,0,0,42.93,83.9c2.49.58,5,1,7.55,1.32a86.72,86.72,0,0,0,13.76.5,70.59,70.59,0,0,0,8.57-.82C74.94,84.58,77,84.14,79.14,83.63Z"/><path class="cls-3" d="M34.09,104.63a6.69,6.69,0,0,1-3.35,1.3,18.91,18.91,0,0,1-5.52,0,.5.5,0,0,1-.14-.08,8.11,8.11,0,0,0,.07-1.21c0-2.68.18-5.35.31-8q.15-3,.37-5.92c.24-3,.48-6,.93-8.92.13-.84.32-.94,1.11-.63a4.32,4.32,0,0,1,2.32,2,28.12,28.12,0,0,1,3,9,56.8,56.8,0,0,1,.92,9.48c0,.77.12,1.54.1,2.32A1.49,1.49,0,0,1,34.09,104.63Z"/><path class="cls-4" d="M34.09,104.63c0-1.57,0-3.14-.13-4.7a50.13,50.13,0,0,0-2.1-12.69,21.44,21.44,0,0,0-2.08-4.51,4.27,4.27,0,0,0-2.44-1.61c-.22-.08-.33,0-.36.27-.23,1.56-.43,3.12-.56,4.7-.16,1.92-.37,3.83-.54,5.75-.05.59-.08,1.18-.1,1.76-.05,1.72-.2,3.42-.26,5.13-.09,2.23-.22,4.46-.2,6.69,0,.19,0,.38-.24.42a5.8,5.8,0,0,1-4.17-2,1.21,1.21,0,0,1-.26-.76,76.94,76.94,0,0,1,.62-8.71,51.52,51.52,0,0,1,1.18-6.75,13,13,0,0,1,1.24-4.36,9.26,9.26,0,0,1,2.07-3.17,7.13,7.13,0,0,0,1.37-.78,2.26,2.26,0,0,1,2,0,5.15,5.15,0,0,1,2.71,2.7c.31.57.54,1.2.8,1.8a41.77,41.77,0,0,1,2.23,10.89,37.19,37.19,0,0,1,.4,4.22c.09,1.06.12,2.14.14,3.2A2.8,2.8,0,0,1,34.09,104.63Z"/><path class="cls-3" d="M27.18,77.11a15.08,15.08,0,0,1-4.1-4,3.13,3.13,0,0,1-.56-1.88c0-1,0-2.11,0-3.16,0-.18.06-.37-.09-.53,0-1.09,0-2.18,0-3.27,0-2.57,0-5.14,0-7.7,0-.15-.11-.34.09-.45a.71.71,0,0,1,.16.52c0,2,0,4,0,6a1.06,1.06,0,0,1-.16.6,3.79,3.79,0,0,1,3.16-2.07c.53-.08,1.08-.32,1.62,0-.05,2.52-.12,5.05-.14,7.58C27.16,71.57,27.18,74.34,27.18,77.11Z"/><path class="cls-2" d="M25.76,80.1a.68.68,0,0,1-.19.45,13.53,13.53,0,0,0-2.81,5.92c-.11.39-.21.78-.31,1.16,0-.21-.13-.33-.25-.46-.32-.36-.64-.72-.95-1.09a3.9,3.9,0,0,1-.91-2.64c0-3.63,0-7.27,0-10.9a1.84,1.84,0,0,1,.09-.87c-.2,3.26,1.71,5.39,3.95,7.34C24.81,79.39,25.29,79.73,25.76,80.1Z"/><path class="cls-6" d="M55.06,38.16c-.18-1.1.84-1.82,1.88-2.22a7.36,7.36,0,0,1,2.53-.51,6.93,6.93,0,0,1,4.88,1.31,1.5,1.5,0,0,1,.58,1.42,1.81,1.81,0,0,1-1,1.28,5.42,5.42,0,0,1-2.51.74,2.84,2.84,0,0,0-.65.1,7.83,7.83,0,0,1-2.6-.14.15.15,0,0,1,0-.06,20.45,20.45,0,0,1-2.62-1A2,2,0,0,1,55.06,38.16Z"/><path class="cls-7" d="M57.39,41.37c-3.17,1.14-6.35,2.27-9.47,3.55a76.17,76.17,0,0,0-12.18,6,16.09,16.09,0,0,0-3.88,3.25,2.66,2.66,0,0,0-.68,1.7A1.21,1.21,0,0,1,30,55.45a4.23,4.23,0,0,1,1.07-2.37A20.67,20.67,0,0,1,36.52,49a104.36,104.36,0,0,1,17.23-7.37c.8-.28,1.6-.54,2.41-.81a5.4,5.4,0,0,1,1.22.44A.1.1,0,0,1,57.39,41.37Z"/><path class="cls-8" d="M90.58,59.13a10.34,10.34,0,0,1,1.77-.78.86.86,0,0,1,.18.67c0,5.72,0,11.43,0,17.14A1.91,1.91,0,0,1,91,77.49c-.3-.15-.31-.44-.32-.72,0-.51,0-1,0-1.54v-13C90.62,61.19,90.65,60.16,90.58,59.13Z"/><path class="cls-9" d="M87.91,80.32a2.25,2.25,0,0,1-.89.44q0-9.62,0-19.23c0-.26.11-.57-.22-.74a7.37,7.37,0,0,1,1.55-.68c.27.29.18.66.18,1,0,5.75,0,11.51,0,17.26a2.32,2.32,0,0,0,.11,1,.38.38,0,0,1-.19.59A6.58,6.58,0,0,0,87.91,80.32Z"/><path class="cls-10" d="M88.69,79.54c-.18,0-.34,0-.33-.27v-.44q0-9.36,0-18.72a4.59,4.59,0,0,1,1.22-.54c.15,0,.2.09.23.19a1.46,1.46,0,0,1,.06.55q0,9,0,18A1.44,1.44,0,0,1,88.69,79.54Z"/><path class="cls-11" d="M27.32,61.23a6.38,6.38,0,0,0-3.73,1,3.67,3.67,0,0,0-1.05,1.36V56.14c1.62.62,3.16,1.39,4.75,2.07a.32.32,0,0,1,.24.37Z"/><path class="cls-12" d="M89.8,78.54c-.19-.18-.11-.42-.11-.63q0-8.85,0-17.71c0-.22.09-.45-.11-.63a3.37,3.37,0,0,1,1-.44c.31.15.21.44.21.68q0,8.46,0,16.93c0,.27-.13.63.33.69A1.75,1.75,0,0,1,89.8,78.54Z"/><path class="cls-13" d="M97.22,67.67c-.19.32,0,.67-.1,1-.1,1-.16,2-.28,3.06a4.68,4.68,0,0,1-.17,1c-.13.35-.3.68-.77.63-.35-.3-.28-.71-.28-1.09q0-7.12,0-14.27a2.92,2.92,0,0,1,0-1.1,9.41,9.41,0,0,1,1.5-.66v.71l0,10.1A1.26,1.26,0,0,0,97.22,67.67Z"/><path class="cls-7" d="M30.88,61.79c0,2.05-.1,4.09-.16,6.14,0,1.6,0,3.21-.1,4.8-.08,1-.07,2.1-.08,3.15,0,.44-.14.48-.47.26l-.74-.48c-.06-4.74-.15-9.47.1-14.21a1.49,1.49,0,0,1,1.43.33Z"/><path class="cls-14" d="M92.46,76.32c-.19-.18-.11-.42-.11-.63V58.35a2,2,0,0,1,.77-.34c.35.19.29.53.29.83,0,1.61,0,3.22,0,4.82V74.19a4.13,4.13,0,0,0,.07,1A1.14,1.14,0,0,1,92.46,76.32Z"/><path class="cls-15" d="M93.46,75.44c-.31-.16-.22-.44-.22-.69v-16a1.29,1.29,0,0,0-.12-.75,3.43,3.43,0,0,1,1-.44c.26.28.18.62.18,1,0,5,0,10,0,15a10.11,10.11,0,0,0,0,1.1A.83.83,0,0,1,93.46,75.44Z"/><path class="cls-16" d="M95.67,56.88a1.33,1.33,0,0,1,.12.76V72.5c0,.3,0,.6.22.83-.09.42-.45.56-.78.73s-.42,0-.47-.27a3.94,3.94,0,0,1,0-.77V59.16a12.46,12.46,0,0,0-.08-1.83A4.23,4.23,0,0,1,95.67,56.88Z"/><path class="cls-17" d="M94.65,57.33c.35.15.25.46.25.73V74l.45-.15c-.12.54-.59.69-1,.89-.37-.09-.22-.39-.22-.6,0-5.42,0-10.85,0-16.27,0-.11,0-.22,0-.33A1.07,1.07,0,0,1,94.65,57.33Z"/><path class="cls-18" d="M30,55.45l1.18.44.1.11a.94.94,0,0,0-.18.67c-.05,1-.09,2.09-.14,3.13a1.94,1.94,0,0,1-1.42-.56A22,22,0,0,1,30,55.45Z"/><path class="cls-19" d="M29.54,59.24,31,59.8a.11.11,0,0,1,0,.08,17.15,17.15,0,0,1-.12,1.9,11.41,11.41,0,0,0-1.43-.33A16.36,16.36,0,0,1,29.54,59.24Z"/><path class="cls-20" d="M57.39,41.27a2.19,2.19,0,0,1-1.23-.49l2-.64c.52-.23,1,.09,1.55,0a8.66,8.66,0,0,1,1.14,0c.11,0,.21-.09.21.09a.09.09,0,0,1-.06.08C59.79,40.66,58.7,41.39,57.39,41.27Z"/><path class="cls-21" d="M55.06,38.16c.14.3.52.47.45.87a2.63,2.63,0,0,1-.76.26A1.23,1.23,0,0,1,55.06,38.16Z"/><path class="cls-22" d="M57.39,41.27a7.32,7.32,0,0,0,2-.53l1.57-.48,0,0-.11-.08c.38-.23.82-.12,1.22-.2a3.85,3.85,0,0,0,2.88-1.79,1.59,1.59,0,0,1-.64,2.42,7.35,7.35,0,0,1-3.44,1,14.89,14.89,0,0,1-3.46-.22Z"/><path class="cls-23" d="M59.4,88.66h2.42A6.56,6.56,0,0,1,59.4,88.66Z"/><path class="cls-4" d="M94.35,74.77c.26-.37.76-.49,1-.89l.66-.55c.65-.35.61-1,.67-1.58a28.54,28.54,0,0,1,.44-3.08c0,.83,0,1.66,0,2.49a3.66,3.66,0,0,1-.69,2.22,18.24,18.24,0,0,1-5.71,5.35,16,16,0,0,1-2.83,1.59c.15-.37.61-.43.78-.78a4.4,4.4,0,0,0,1.11-1,5.24,5.24,0,0,0,1.33-1.11,5.91,5.91,0,0,0,1.33-1.11,3.84,3.84,0,0,0,1-.88C93.86,75.35,94,75,94.35,74.77Z"/></svg>