<svg xmlns="http://www.w3.org/2000/svg" width="1034" height="1321.028" viewBox="0 0 1034 1321.028">
  <g id="Group_13343" data-name="Group 13343" transform="translate(-23 -23)">
    <g id="Group_13331" data-name="Group 13331" transform="translate(-13.587 7.412)">
      <g id="Group_13200" data-name="Group 13200" transform="translate(36.207 15.207)">
        <g id="Rectangle_1494" data-name="Rectangle 1494" transform="translate(0.38 0.381)" fill="#44c7ec" stroke="#fff" stroke-width="1">
          <rect width="1034" height="1034" rx="70" stroke="none"/>
          <rect x="0.5" y="0.5" width="1033" height="1033" rx="69.5" fill="none"/>
        </g>
        <rect id="Rectangle_1495" data-name="Rectangle 1495" width="942" height="942" rx="70" transform="translate(46.38 46.381)" fill="#fff"/>
        <g id="facial-recognition_1_" data-name="facial-recognition (1)" transform="translate(82.946 82.94)">
          <path id="Path_68660" data-name="Path 68660" d="M725.7,506.782V492.51c0-1.452,0-2.99.106-4.494a45.1,45.1,0,0,0-4.793-25.773,72.813,72.813,0,0,0-33.993-25.184c-2.89-1.346-5.5-2.606-7.849-3.851-16.089-8.691-32.177-17.276-48.02-26.343a190.191,190.191,0,0,0-59.21-23.46,211.184,211.184,0,0,1-63.227-29.571V331.519c2.115-2.016,4.1-4.024,6.443-6.026a147.19,147.19,0,0,0,11.415-10.772,14.482,14.482,0,1,0-20.954-19.986,117.172,117.172,0,0,1-9.194,8.69,234.837,234.837,0,0,0-39.389,44.62c-14.935,20.689-21.856,29.088-41.577,29.088H370.27c-19.721,0-26.589-8.4-41.577-29.108a235.474,235.474,0,0,0-39.429-44.659,115.89,115.89,0,0,1-9.155-8.684,14.48,14.48,0,1,0-20.954,19.979,146.1,146.1,0,0,0,11.369,10.732c2.373,2.015,4.342,4.037,6.49,6.066v22.346a212.219,212.219,0,0,1-63.227,29.538,190.071,190.071,0,0,0-59.2,23.46c-15.856,9.068-31.945,17.712-48.034,26.343-2.346,1.246-5.025,2.506-7.849,3.851a72.776,72.776,0,0,0-33.973,25.17,45.045,45.045,0,0,0-4.813,25.793c0,1.446.119,3,.106,4.515v14.239a44.573,44.573,0,0,0,44.805,44.2H680.89a44.576,44.576,0,0,0,44.8-44.129Zm-636.7-.086V492.723c0-1.91,0-3.838-.132-5.794a22.177,22.177,0,0,1,.881-10.135,57.782,57.782,0,0,1,21.292-13.582c3.328-1.566,6.457-3.057,9.208-4.516,16.321-8.69,32.641-17.539,48.729-26.734A162.625,162.625,0,0,1,219.217,411.8c2.625-.49,5.3-1.16,7.981-1.9-1.836,31.09.968,78.314,27.908,112H104.834A15.578,15.578,0,0,1,88.991,506.7ZM480.677,521.95H299.329C251.541,496.1,253.742,428.2,257.335,398.293c7.113-3.434,13.815-7.054,19.721-10.467v18.269a14.481,14.481,0,1,0,28.962,0V366c14.975,20.769,29.532,40.1,64.254,40.1h45.183c34.755,0,49.233-19.33,64.294-40.1v40.1a14.481,14.481,0,1,0,28.962,0V387.825c5.913,3.414,12.615,7.033,19.728,10.467,3.546,29.9,5.787,97.8-42,123.657Zm216.191-34.988c-.073,1.923-.146,3.852-.133,5.794v14.014a15.583,15.583,0,0,1-15.843,15.181H530.62c26.94-33.689,29.744-80.907,27.908-112,2.678.743,5.356,1.452,7.981,1.9a162.737,162.737,0,0,1,50.261,20.158c16.076,9.195,32.4,17.971,48.716,26.728,2.751,1.452,5.88,2.9,9.207,4.521A57.706,57.706,0,0,1,696,476.852a22.33,22.33,0,0,1,.868,10.109Zm0,0" transform="translate(41.574 202.112)" fill="#46c5ec"/>
          <path id="Path_68661" data-name="Path 68661" d="M631.437,317.11c3.182-19.124,7.776-64.573-18.2-73.157a39.2,39.2,0,0,0-22.87-.464c0-8.412-.086-17.043-.4-25.952,0-3.633-.146-7.57-.318-11.786l-.418-7.922c-5.038-97.7-107.349-127.462-161.336-129.563H404.719C351.3,70.353,248.985,100.124,243.973,197.842l-.444,8.69c-.159,3.8-.292,7.458-.278,10.746-.305,9.122-.431,17.8-.431,26.211a38.631,38.631,0,0,0-22.651.417c-26.184,8.591-21.723,54.019-18.475,73.86a95.848,95.848,0,0,0,52.952,60.483c-.139,2.9-.272,5.794-.371,8.591H40.079a14.481,14.481,0,0,0,0,28.962H793.1a14.481,14.481,0,0,0,0-28.962H578.881c-.1-2.9-.232-5.708-.378-8.591a95.263,95.263,0,0,0,52.932-61.139Zm-28.432-5.562A63.2,63.2,0,0,1,578.9,344.09c.756-5.88,1.869-11.587,3.175-18.117a360.171,360.171,0,0,0,7.12-50.42,21.014,21.014,0,0,1,13.47-4.508A99.252,99.252,0,0,1,603.005,311.548Zm-372.826.815a98.653,98.653,0,0,1,.418-41.319,21.132,21.132,0,0,1,13.4,4.508,360.135,360.135,0,0,0,7.12,50.42c1.306,6.5,2.42,12.25,3.175,18.144A64.471,64.471,0,0,1,230.179,312.4Zm53.1,74.489c.119-2.565.219-5.124.351-7.7l.285-9.5a12.343,12.343,0,0,0,0-1.564l.278-9.473a178.787,178.787,0,0,0-4.72-38.3,328.316,328.316,0,0,1-7.027-52.959c-.822-15.406-.908-31.421-.272-49.783,0-3.175.126-6.477.259-10.222l.451-8.014c4.892-95.689,127.72-101.9,132.374-102.106h22.021c1.293,0,128.032,6.1,132.937,102.126l.438,7.789c.126,3.58.272,7.139.285,10.944.623,17.726.537,33.848-.285,49.24a328.638,328.638,0,0,1-7.027,52.985,178.366,178.366,0,0,0-4.72,38.3l.279,9.473a12.3,12.3,0,0,0,0,1.565l.285,9.5c.132,2.579.232,5.138.351,7.7Zm0,0" transform="translate(17.845 47.582)" fill="rgba(65,64,66,0.57)"/>
          <path id="Path_68662" data-name="Path 68662" d="M14.484,130.332a14.481,14.481,0,0,0,14.478-14.484V72.408A43.444,43.444,0,0,1,72.408,28.962h43.44a14.481,14.481,0,1,0,0-28.962H72.408A72.49,72.49,0,0,0,0,72.408v43.44a14.482,14.482,0,0,0,14.484,14.484Zm0,0" transform="translate(0 0)" fill="#46c5ec"/>
          <path id="Path_68663" data-name="Path 68663" d="M115.848,536.57H72.408a43.443,43.443,0,0,1-43.446-43.446v-43.44a14.481,14.481,0,1,0-28.962,0v43.44a72.49,72.49,0,0,0,72.408,72.408h43.44a14.481,14.481,0,1,0,0-28.962Zm0,0" transform="translate(0 303.341)" fill="#46c5ec"/>
          <path id="Path_68664" data-name="Path 68664" d="M551.047,435.2a14.48,14.48,0,0,0-14.478,14.484v43.44a43.443,43.443,0,0,1-43.446,43.446h-43.44a14.481,14.481,0,1,0,0,28.961h43.44a72.489,72.489,0,0,0,72.408-72.408v-43.44A14.482,14.482,0,0,0,551.047,435.2Zm0,0" transform="translate(303.34 303.34)" fill="#46c5ec"/>
          <path id="Path_68665" data-name="Path 68665" d="M493.122,0H449.684a14.481,14.481,0,1,0,0,28.962h43.438A43.444,43.444,0,0,1,536.57,72.408v43.44a14.481,14.481,0,1,0,28.961,0V72.408A72.489,72.489,0,0,0,493.122,0Zm0,0" transform="translate(303.34 0)" fill="#46c5ec"/>
          <path id="Path_68666" data-name="Path 68666" d="M63.095,92.057V63.095H92.057a14.481,14.481,0,1,0,0-28.962H63.095A28.961,28.961,0,0,0,34.133,63.095V92.057a14.481,14.481,0,1,0,28.962,0Zm0,0" transform="translate(23.791 23.791)" fill="#46c5ec"/>
          <path id="Path_68667" data-name="Path 68667" d="M92.057,478.647H63.095V449.685a14.481,14.481,0,1,0-28.962,0v28.962a28.961,28.961,0,0,0,28.962,28.961H92.057a14.481,14.481,0,1,0,0-28.961Zm0,0" transform="translate(23.791 303.341)" fill="#46c5ec"/>
          <path id="Path_68668" data-name="Path 68668" d="M478.647,449.683v28.962H449.685a14.481,14.481,0,1,0,0,28.963h28.962a28.961,28.961,0,0,0,28.961-28.963V449.683a14.481,14.481,0,1,0-28.961,0Zm0,0" transform="translate(303.341 303.34)" fill="#46c5ec"/>
          <path id="Path_68669" data-name="Path 68669" d="M493.122,106.541a14.483,14.483,0,0,0,14.486-14.484V63.095a28.962,28.962,0,0,0-28.963-28.962H449.683a14.481,14.481,0,1,0,0,28.962h28.962V92.057a14.48,14.48,0,0,0,14.477,14.484Zm0,0" transform="translate(303.34 23.791)" fill="#46c5ec"/>
        </g>
      </g>
    </g>
    <text id="Facial_Recognition_System" data-name="Facial Recognition System" transform="translate(53.5 1120.027)" fill="#0ec5ff" font-size="77" font-family="Poppins-Regular, Poppins"><tspan x="-394.663" y="81">FACIAL RECOGNITION </tspan><tspan x="-141.41" y="197">SYSTEM</tspan></text>
  </g>
</svg>
