<svg id="Layer_1" data-name="Layer 1" xmlns="http://www.w3.org/2000/svg" viewBox="0 0 120 120"><defs><style>.cls-1{fill:#54a4db;}.cls-2{fill:#32b674;}.cls-3{fill:#fefeff;}.cls-4{fill:#d4e3f4;}</style></defs><path class="cls-1" d="M86,57.87c0-3.78,0-7.56,0-11.35,0-.65.15-.89.84-.87,1.52.05,3,.05,4.57,0,.66,0,.88.19.87.86,0,2.68,0,5.37,0,8,0,.72.22.93.91.89a20.51,20.51,0,0,1,2.6,0c.66,0,.88-.15.87-.84,0-2.65,0-5.3,0-8,0-.79.22-1,1-1,1.67.06,3.34,0,5,0,.58,0,.77.2.77.78q0,11.31,0,22.62c0,.62-.23.74-.79.73-1.73,0-3.46,0-5.19,0-.62,0-.82-.16-.81-.8,0-2.26,0-4.53,0-6.79,0-.63-.11-.92-.82-.88a25.79,25.79,0,0,1-2.78,0c-.58,0-.78.16-.77.75,0,2.36,0,4.71,0,7.07,0,.75-.23,1-1,.95-1.46,0-2.93-.06-4.39,0-.78,0-.92-.26-.92-1C86,65.38,86,61.63,86,57.87Z"/><path class="cls-1" d="M1.89,57.88c0-3.78,0-7.57,0-11.35,0-.65.16-.9.85-.88q2.24.08,4.47,0c.67,0,.87.18.87.86,0,2.68,0,5.36,0,8,0,.69.17,1,.9.91a21.34,21.34,0,0,1,2.77,0c.65,0,.81-.2.8-.81,0-2.68,0-5.36,0-8,0-.75.22-1,1-.94,1.67.06,3.34,0,5,0,.53,0,.74.14.74.7q0,11.36,0,22.71c0,.53-.13.73-.7.72q-2.64,0-5.28,0c-.56,0-.72-.18-.71-.72,0-2.29,0-4.59,0-6.88,0-.65-.15-.91-.84-.87a27.47,27.47,0,0,1-2.87,0c-.6,0-.76.18-.76.76,0,2.39,0,4.77,0,7.15,0,.67-.17.88-.85.86-1.49,0-3,0-4.48,0-.68,0-.86-.21-.85-.87C1.91,65.45,1.89,61.67,1.89,57.88Z"/><path class="cls-1" d="M45.22,45.67c1.31,0,2.63,0,3.94,0,.55,0,.77.15.87.73,1.1,6.5,2.24,13,3.38,19.49.2,1.17.43,2.34.66,3.51.1.48,0,.71-.56.71-1.65,0-3.29,0-4.93,0-.48,0-.69-.15-.76-.64-.12-.89-.38-1.75-.48-2.63-.07-.57-.33-.67-.82-.65-1,0-2,0-3.05,0-.54,0-.74.22-.81.7-.12.82-.31,1.64-.36,2.47,0,.64-.35.78-.92.77-1.43,0-2.87,0-4.3,0-1.06,0-1.06,0-.87-1,.53-2.89,1.06-5.79,1.58-8.68.83-4.65,1.68-9.3,2.47-14,.11-.63.35-.78.93-.77C42.53,45.69,43.88,45.67,45.22,45.67Z"/><path class="cls-1" d="M22,57.88c0-3.79,0-7.57,0-11.36,0-.64.15-.87.84-.87,3.65,0,7.29,0,10.93,0,.6,0,.85.12.83.78q-.07,2.23,0,4.47c0,.65-.21.81-.82.79-1.43,0-2.87,0-4.3,0-.69,0-.89.21-.84.87a17.53,17.53,0,0,1,0,2.05c0,.54.13.74.7.72,1.22,0,2.45,0,3.67,0,.6,0,.86.12.83.78,0,1.22,0,2.44,0,3.66,0,.57-.15.8-.76.78-1.22,0-2.45,0-3.67,0-.56,0-.81.13-.78.74a23.35,23.35,0,0,1,0,2.51c0,.54.17.72.72.71,1.67,0,3.34,0,5,0,.65,0,1,0,.81.86-.26,1.34-.35,2.71-.49,4.07-.06.59-.33.76-.92.75q-5.47,0-10.93,0c-.7,0-.84-.23-.84-.87C22,65.44,22,61.66,22,57.88Z"/><path class="cls-2" d="M105.86,57.94c0-3.78,0-7.57,0-11.35,0-.48.1-.62.57-.61q5.57,0,11.11,0c.49,0,.61.16.6.62q0,2.19,0,4.38c0,.5-.12.64-.66.62-1.4-.05-2.81,0-4.21,0-.64,0-.94.15-.89.85a18.44,18.44,0,0,1,0,2.23c0,.61.23.79.78.78,1.23,0,2.45,0,3.68,0,.54,0,.74.19.73.73,0,1.19,0,2.39,0,3.58,0,.61-.24.76-.8.74-1.17,0-2.33,0-3.5,0-.73,0-.94.24-.89.93a21.53,21.53,0,0,1,0,2.41c0,.6.2.79.77.78,1.43,0,2.87,0,4.3,0,.47,0,.71,0,.69.58,0,1.43,0,2.86,0,4.29,0,.42-.11.57-.55.57H106.36c-.42,0-.53-.12-.52-.57,0-3.82,0-7.63,0-11.45Z"/><path class="cls-1" d="M72.61,60.83c0-2.83,0-5.66,0-8.49,0-.62-.16-.85-.8-.82-.89,0-1.79,0-2.69,0-.49,0-.68-.19-.67-.69,0-1.49,0-3,0-4.47,0-.51.19-.69.68-.69q6.9,0,13.8,0c.48,0,.62.19.62.64,0,1.55,0,3.1,0,4.65,0,.49-.21.6-.65.59-.9,0-1.8,0-2.69,0-.68,0-.85.19-.85.85,0,5.52,0,11,0,16.54,0,1.18,0,1.18-1.16,1.18-1.58,0-3.17,0-4.75,0-.66,0-.88-.2-.87-.87C72.63,66.43,72.61,63.63,72.61,60.83Z"/><path class="cls-1" d="M56.48,57.87c0-3.75,0-7.5,0-11.26,0-.74.21-1,1-1,1.46.06,2.93.06,4.39,0,.78,0,.92.25.92,1,0,5.6,0,11.2,0,16.8,0,.75.14,1,1,1,1.37-.07,2.74,0,4.12,0,.49,0,.68.14.67.66,0,1.46,0,2.92,0,4.37,0,.51-.16.68-.67.68-3.52,0-7,0-10.56,0-.7,0-.77-.32-.77-.88C56.49,65.44,56.48,61.66,56.48,57.87Z"/><path class="cls-3" d="M45.34,54.09c.37,2.22.72,4.45,1.12,6.67.09.49,0,.59-.5.61-2.3.11-2.28.12-1.9-2.08.34-1.9.64-3.81,1-5.72C45.47,53.53,45.13,54,45.34,54.09Z"/><path class="cls-4" d="M45.34,54.09,45,53.57c0-.13-.05-.28.08-.4A1,1,0,0,1,45.34,54.09Z"/></svg>