<svg id="Layer_1" data-name="Layer 1" xmlns="http://www.w3.org/2000/svg" viewBox="0 0 120 120"><defs><style>.cls-1{fill:#fff;}.cls-2{fill:#2ba8e0;}.cls-3{fill:#805ba6;}.cls-4{fill:#7b5da8;}.cls-5{fill:#7260aa;}.cls-6{fill:#606bb2;}.cls-7{fill:#6d63ac;}.cls-8{fill:#7d5da7;}.cls-9{fill:#6f62ab;}.cls-10{fill:#4e85c5;}.cls-11{fill:#4b8ac9;}.cls-12{fill:#498cca;}.cls-13{fill:#2ea6de;}.cls-14{fill:#5e6db3;}.cls-15{fill:#32a3dc;}.cls-16{fill:#35a0da;}.cls-17{fill:#4b8ac8;}.cls-18{fill:#537ebf;}.cls-19{fill:#4a8cca;}.cls-20{fill:#4d88c7;}.cls-21{fill:#399ed8;}.cls-22{fill:#3e99d4;}.cls-23{fill:#547bbe;}.cls-24{fill:#755fa9;}.cls-25{fill:#785ea8;}.cls-26{fill:#3c9bd5;}.cls-27{fill:#488ecc;}.cls-28{fill:#4e86c6;}.cls-29{fill:#4f85c5;}.cls-30{fill:#6568af;}.cls-31{fill:#4296d2;}.cls-32{fill:#5677ba;}.cls-33{fill:#6a65ad;}.cls-34{fill:#4692cf;}.cls-35{fill:#4890cd;}.cls-36{fill:#636ab1;}.cls-37{fill:#6966ae;}.cls-38{fill:#5082c3;}.cls-39{fill:#5775b9;}.cls-40{fill:#557abc;}.cls-41{fill:#5180c1;}.cls-42{fill:#6568b0;}.cls-43{fill:#6866ae;}.cls-44{fill:#7360aa;}.cls-45{fill:#557abd;}.cls-46{fill:#537dbf;}.cls-47{fill:#6767af;}.cls-48{fill:#5972b7;}.cls-49{fill:#4594d0;}.cls-50{fill:#6369b1;}.cls-51{fill:#6e62ab;}.cls-52{fill:#5874b8;}.cls-53{fill:#2da6de;}.cls-54{fill:#5c6fb5;}.cls-55{fill:#7e5ca7;}.cls-56{fill:#517fc1;}.cls-57{fill:#7560aa;}.cls-58{fill:#7560a9;}.cls-59{fill:#6c64ac;}.cls-60{fill:#5677bb;}.cls-61{fill:#7061ab;}.cls-62{fill:#4495d1;}.cls-63{fill:#5776ba;}.cls-64{fill:#399dd8;}.cls-65{fill:#5a70b6;}.cls-66{fill:#3c9bd6;}.cls-67{fill:#4197d3;}.cls-68{fill:#5973b8;}.cls-69{fill:#5a71b6;}.cls-70{fill:#5579bc;}.cls-71{fill:#fcfcfe;}.cls-72{fill:#57b;}</style></defs><path class="cls-1" d="M0,61.61q0-13.39,0-26.8c0-.37.06-.46.45-.46h119c.41,0,.48.09.48.49q0,25.15,0,50.32c0,.39-.07.49-.48.49q-59.47,0-119,0c-.38,0-.45-.08-.45-.46C0,79.59,0,74,0,68.4c.36-.27.78-.15,1.17-.17a11.22,11.22,0,0,1,1.16,0q1.11,0,2.22,0c.6,0,1.2,0,1.79,0s1.19,0,1.79,0,1.18,0,1.77,0,1.05,0,1.57,0,1.18,0,1.78,0,1,0,1.46,0,1.18,0,1.77,0,1.19,0,1.79,0,1.4,0,2.1,0c.87,0,1,.08,1,.94q0,7.62,0,15.22a1.45,1.45,0,0,0,.07.7,8.24,8.24,0,0,0,1.3-.88c.62-.5,1.3-.92,1.91-1.44s1.13-.74,1.61-1.21c.82-.55,1.59-1.17,2.36-1.78s1.58-1.3,2.39-1.92a17,17,0,0,0,1.59-1.2c.73-.58,1.54-1,2.23-1.67.43-.35.92-.63,1.35-1,.73-.56,1.5-1.08,2.23-1.66s1.58-1.14,2.33-1.78c.59-.46,1.24-.85,1.8-1.36a6.28,6.28,0,0,1,1.42-.92c.63-.08,1.25,0,1.87,0s1,0,1.45,0c.73,0,1.47,0,2.21,0s1.63,0,2.45,0,1.78,0,2.67,0,1.93,0,2.9,0,2.22,0,3.33,0c.93,0,1.86,0,2.79,0s2,0,3,0c.67,0,1.35,0,2,0s1.55,0,2.33,0,1.27,0,1.91,0c.89,0,1.78,0,2.67,0,1.26,0,2.51,0,3.77,0,.82,0,1.65,0,2.47,0,1.14,0,2.29,0,3.43,0,.7,0,1.41,0,2.11,0,6.52,0,13,0,19.55,0,1.24,0,1.14,0,1.14-1.16V54.34c0-.32-.13-.79.21-.91s.46.35.66.58a4.58,4.58,0,0,0,3.3,1.63,6,6,0,0,0,6.18-3.4,10.29,10.29,0,0,0,1.15-4.32,10.84,10.84,0,0,0-.81-5.1,6.07,6.07,0,0,0-4.37-3.92,5.85,5.85,0,0,0-4.66.71,4,4,0,0,0-1.06,1.12c-.1.14-.2.33-.38.29s-.2-.29-.21-.47c0-.39,0-.78,0-1.17s-.14-.51-.5-.51h-5.23c-.36,0-.51.16-.5.51V60.57c0,1.18,0,1.21-1.22,1.21-9,0-17.93,0-26.9,0H42.85a2.75,2.75,0,0,0-2,.63c-.88.57-1.69,1.25-2.54,1.86s-1.47,1.06-2.16,1.65a13.14,13.14,0,0,1-1.54,1.25c-.68.51-1.36,1-2,1.54s-1.2.89-1.79,1.34c-.78.62-1.58,1.18-2.35,1.81-.6.36-.73.3-.74-.45,0-2.88,0-5.76,0-8.65a3.35,3.35,0,0,0,0-.77c-.14-.34-.45-.16-.69-.2H11.47c-3.5,0-7,0-10.5,0A1.35,1.35,0,0,1,0,61.61Z"/><path class="cls-2" d="M0,61.61l10.75,0,.72,0v.1l-.09.06a5.72,5.72,0,0,1-1.49.07c-.58,0-1.16,0-1.75,0s-1.16,0-1.74,0H4.77c-.6,0-1.19,0-1.78,0s-.59.17-.58.61c0,1.78,0,3.56,0,5.33a1.12,1.12,0,0,1-.07.6H0Z"/><path class="cls-3" d="M73.65,61.65l.72,0H101c.49,0,.65-.1.65-.63,0-7.23,0-14.46,0-21.69,0-.47.1-.63.61-.62,1.83,0,3.67,0,5.51,0,.36,0,.49.09.47.46,0,.59,0,1.17,0,1.88a4.77,4.77,0,0,1,4-2.48,6,6,0,0,1,5.27,2,8.71,8.71,0,0,1,2.13,4.91,11.77,11.77,0,0,1-1,6.81,6.33,6.33,0,0,1-7.77,3.27,4.69,4.69,0,0,1-2.59-2.16v.76c0,4.57,0,9.15,0,13.73,0,.34,0,.58-.47.58q-10.08,0-20.16,0l-.22,0a1.19,1.19,0,0,1-.18-.84c0-1.64,0-3.28,0-4.92,0-.68,0-.72-.72-.73-.41,0-.82,0-1.22,0-1.15,0-2.29,0-3.44,0-.82,0-1.64,0-2.46,0-1.25,0-2.49,0-3.74,0a9.45,9.45,0,0,1-1.84-.08A.17.17,0,0,1,73.65,61.65Z"/><path class="cls-3" d="M87.23,48.5a2.88,2.88,0,0,0,3.32.85,2.59,2.59,0,0,0,1.67-2.63c.06-.9,0-1.81,0-2.72q0-4.53,0-9.06c0-.34.06-.48.45-.48q2.84,0,5.67,0c.33,0,.45.08.45.43,0,4,0,8,0,12a9,9,0,0,1-2.59,6.36,8.91,8.91,0,0,1-6.08,2.56,8.06,8.06,0,0,1-3-.2A.87.87,0,0,1,87,55c0-1.92,0-3.83,0-5.75C87,49,87,48.68,87.23,48.5Z"/><path class="cls-4" d="M81.78,34.49H84.9a.81.81,0,0,1,.17.62q0,9.55,0,19.11c0,.22.09.55-.29.62a6.87,6.87,0,0,1-3.19-3c0-5.44,0-10.88,0-16.32C81.6,35.16,81.52,34.79,81.78,34.49Z"/><path class="cls-5" d="M75,44.39c0,1.35,0,2.7,0,4.06a1.89,1.89,0,0,0,.32,1.26,1.15,1.15,0,0,1,.17.63c0,1.56,0,3.13,0,4.69a.78.78,0,0,1-.17.57,7,7,0,0,1-3-.43,1.46,1.46,0,0,1-.17-1q0-7.16,0-14.32c0-1.41-.16-2.81-.1-4.21a1.89,1.89,0,0,1,.1-.82c.4-.24.83-.06,1.24-.11.2,0,.4,0,.61,0,1-.08,1-.08,1,.95s0,2,0,3c.39.09.5.35.5.72v4.28C75.49,44,75.39,44.32,75,44.39Z"/><path class="cls-6" d="M65.15,48.27c-.16.19-.38.08-.57.08H55.4c-.8,0-.8,0-.62.76,0,.16.09.32.13.48a12.78,12.78,0,0,0,0,1.75c0,1.16,0,2.32,0,3.47a1,1,0,0,1-.17.79,6.78,6.78,0,0,1-2.9-1.15.68.68,0,0,1-.09-.42c.06-4.11,0-8.21,0-12.31a5.25,5.25,0,0,1,.06-1.81,7.31,7.31,0,0,1,3-1.2,1,1,0,0,1,.17.79v4.34a2.12,2.12,0,0,0,.07.71c.12.44-.26.83-.09,1.27s0,1.1,0,1.65.15.63.61.62c.68,0,1.36,0,2,0,.84,0,1.68,0,2.53,0,.67,0,1.34,0,2,0s1.57,0,2.36,0A.76.76,0,0,1,65.15,48.27Z"/><path class="cls-7" d="M74,34.74a10.49,10.49,0,0,1-1.77.07,1.58,1.58,0,0,1-1,.17c-.77,0-.81,0-.81.83V49.36c0,1.22,0,2.44,0,3.66,0,.29.06.61-.27.79a7,7,0,0,1-1.63-4.54c0-1.48,0-3,0-4.44,0-.38-.08-.54-.48-.51s-.78,0-1.17,0-.4-.08-.4-.38q0-2.45,0-4.89c0-.26.09-.36.36-.35s.81,0,1.22,0,.48-.09.47-.46c0-1,0-2.07,0-3.11,0-.27,0-.45.38-.45C70.52,34.73,72.24,34.73,74,34.74Z"/><path class="cls-8" d="M84.77,54.84c.21-.18.12-.42.12-.63q0-5.28,0-10.56V34.49c.48,0,1,0,1.44,0s.45.1.44.44c0,1,0,2.08,0,3.11,0,2.75,0,5.49,0,8.23a4.85,4.85,0,0,0,.46,2.26,3.15,3.15,0,0,0-.11.87c0,2.08,0,4.16,0,6.24A6.09,6.09,0,0,1,84.77,54.84Z"/><path class="cls-9" d="M70.09,53.81a1.32,1.32,0,0,0,.1-.76c0-5.86,0-11.72,0-17.59,0-.54.15-.72.68-.66s.89,0,1.34,0c0,3.12.15,6.25.12,9.37,0,3.66,0,7.33,0,11A4.33,4.33,0,0,1,70.09,53.81Z"/><path class="cls-10" d="M27.83,61.72l0,9.32v1l.66-.42a1.1,1.1,0,0,1,.18.84c0,1.87,0,3.73,0,5.6a7.16,7.16,0,0,1-.06,1.85,23.2,23.2,0,0,1-2.32,1.76c-.28,0-.32-.2-.38-.39a2.07,2.07,0,0,1-.05-.61v-18c0-.31,0-.64.22-.88a2.86,2.86,0,0,1,.92-.07A2.59,2.59,0,0,1,27.83,61.72Z"/><path class="cls-11" d="M24.71,82.85a10.64,10.64,0,0,1-1.78,1.34c-.16.12-.23,0-.29-.12a1.22,1.22,0,0,1-.09-.6c0-7.09,0-14.19,0-21.28,0-.18-.15-.48.22-.52H24.1c.16,0,.35-.06.48.1a1.93,1.93,0,0,1,.11,1q0,9.27,0,18.55C24.7,81.82,24.7,82.34,24.71,82.85Z"/><path class="cls-12" d="M22.62,61.73a1.31,1.31,0,0,1,.06.65q0,10.5,0,21c0,.27-.15.64.25.81a19.11,19.11,0,0,1-1.75,1.39V69.22c0-.78,0-.78-.78-.83a.66.66,0,0,1-.17-.46c-.07-1.94,0-3.88,0-5.82a.62.62,0,0,1,.11-.37,3.3,3.3,0,0,1,1-.07A5.06,5.06,0,0,1,22.62,61.73Z"/><path class="cls-13" d="M4.58,55.6c-.49,0-1,0-1.45,0s-.45-.11-.44-.45c0-1,0-2,0-3.06q0-8.52,0-17c0-.5.13-.66.61-.61a11.43,11.43,0,0,0,1.17,0c.27.13.17.39.17.59,0,5,0,9.92,0,14.87,0,1.67,0,3.33,0,5A1.31,1.31,0,0,1,4.58,55.6Z"/><path class="cls-14" d="M51.81,39.92a4.89,4.89,0,0,1,.1,1.57c0,4,0,8.07,0,12.1,0,.3-.1.58-.12.87A7,7,0,0,1,49,50.89a9.43,9.43,0,0,1,.85-9A5.53,5.53,0,0,1,51.81,39.92Z"/><path class="cls-15" d="M4.58,55.6a18.3,18.3,0,0,1,0-2.77c0-5.94,0-11.87,0-17.8a1,1,0,0,0,0-.54H6.25a1,1,0,0,1,.18.73c-.08,3.74.14,7.47.11,11.21,0,2.75,0,5.51,0,8.27a1.25,1.25,0,0,1-.18.9Z"/><path class="cls-16" d="M6.36,55.6c.08-7-.11-14.07-.11-21.11H8c.26.28.17.63.17.95q0,8.56,0,17.14c0,.9-.06,1.81,0,2.71a.35.35,0,0,1-.09.31Z"/><path class="cls-17" d="M22.74,34.49H24.3a.87.87,0,0,1,.17.68c-.07,2.74.13,5.47.12,8.21,0,2-.07,4,0,5.94.08,1.81.07,3.62.08,5.43a1.12,1.12,0,0,1-.17.85H22.85c-.29-.18-.18-.47-.18-.71q0-6.68,0-13.37c0-2.11,0-4.21,0-6.32A1.42,1.42,0,0,1,22.74,34.49Z"/><path class="cls-18" d="M34.65,55a5.28,5.28,0,0,1-2.57-2,1.17,1.17,0,0,1-.07-.49q0-5.38,0-10.77a1,1,0,0,1,.09-.54,5.09,5.09,0,0,1,2.32-1.83.78.78,0,0,1,.28.74c0,4.07,0,8.14,0,12.21A14.68,14.68,0,0,1,34.65,55Z"/><path class="cls-19" d="M22.74,34.49a19,19,0,0,1,.05,2.61c0,6,0,11.94,0,17.91a1.09,1.09,0,0,0,.06.59c-1.45.09-1.45.09-1.45-1.34v-9l-.23.44c-.35-.13-.27-.45-.28-.7,0-1.06,0-2.11,0-3.17,0-2.16,0-4.33,0-6.49a1.12,1.12,0,0,1,.18-.85Z"/><path class="cls-20" d="M24.71,82.85c-.28-.17-.19-.46-.19-.7V61.73a4.69,4.69,0,0,1,1.67,0,1.09,1.09,0,0,0-.11.64c0,5.19,0,10.38,0,15.56,0,1-.1,2,0,3,0,.26,0,.52.26.69A14.42,14.42,0,0,1,24.71,82.85Z"/><path class="cls-21" d="M8.14,55.6q0-3.29-.05-6.56c0-2.46,0-4.93,0-7.39q0-3.09,0-6.18c0-.33,0-.65-.05-1H9.82c.23.1.17.31.17.48,0,3.44,0,6.89,0,10.33,0,.29,0,.59-.42.55-.14-.12-.07-.36-.3-.5v9.53c0,.74,0,.75-.74.74Z"/><path class="cls-22" d="M13.38,55.6c-.86,0-.87,0-1.1-.74-.32-1.08-.62-2.17-.93-3.25.16-2,.05-4,.06-6,0-2.52,0-5,0-7.56a1.55,1.55,0,0,1,.05-.61c.06-.17.16-.33.34-.08.66,1.61,1.22,3.26,1.77,4.9a8.07,8.07,0,0,0,0,1.39c0,3.66,0,7.33,0,11A1.35,1.35,0,0,1,13.38,55.6Z"/><path class="cls-20" d="M24.52,55.6c0-1.35.05-2.71,0-4.05-.17-3.41,0-6.81-.12-10.21-.06-2.28-.09-4.57-.09-6.85h1.44a.92.92,0,0,1,.18.73q0,9.83,0,19.64a1,1,0,0,1-.18.74Z"/><path class="cls-23" d="M34.65,55a1.29,1.29,0,0,1-.1-.75c0-4.19,0-8.38,0-12.57a6.72,6.72,0,0,0-.1-2.28,5.07,5.07,0,0,1,1.68-.61.87.87,0,0,1,.29.8c0,3,0,6,0,8.94,0,1.94,0,3.88,0,5.82a2,2,0,0,1-.18,1.19A5.17,5.17,0,0,1,34.65,55Z"/><path class="cls-24" d="M75.54,61.73h3.79a1,1,0,0,1,.17.73c0,1.74,0,3.47,0,5.2a1,1,0,0,1-.17.73H75.54a1,1,0,0,1-.18-.73v-5.2A1,1,0,0,1,75.54,61.73Z"/><path class="cls-25" d="M81.78,34.49q0,8.31,0,16.63c0,.24.1.53-.19.7a8,8,0,0,1-1.24-3.51,11,11,0,0,1-.13-2c0-3.78,0-7.55,0-11.33,0-.41.08-.58.51-.53S81.43,34.48,81.78,34.49Z"/><path class="cls-26" d="M11.81,37.36c-.44,0-.26.3-.26.47,0,2.11,0,4.23,0,6.34s0,4.41,0,6.62a1.05,1.05,0,0,1-.18.82c-.65-1.9-1.25-3.82-1.78-5.76.15-.1.32-.13.32-.4,0-3.6,0-7.21,0-10.81a.47.47,0,0,0-.06-.15c.93-.05.94-.05,1.27.84C11.34,36,11.57,36.68,11.81,37.36Z"/><path class="cls-27" d="M21.07,34.49c0,1.83,0,3.66,0,5.5s0,3.42,0,5.13c0,.2-.07.41.1.58q-.8,2.56-1.57,5.11c-.27-.05-.25-.29-.3-.47a3.73,3.73,0,0,1-.08-1.05c0-4,0-8,0-12.06a1.41,1.41,0,0,0-.06-.54c.22-.66.46-1.32.67-2a.3.3,0,0,1,.36-.24Z"/><path class="cls-28" d="M25.74,55.6V34.49h1.12a1,1,0,0,1,.18.73V54.86a1,1,0,0,1-.18.74Z"/><path class="cls-29" d="M26.86,55.6V34.49c1.1-.06,1.1-.06,1.1,1q0,9.65,0,19.29c0,.92.17.81-.82.82Z"/><path class="cls-30" d="M60.17,48.26H57.6a5.54,5.54,0,0,1-.11-2.43c.1-.26.34-.27.56-.26.45,0,.47-.22.35-.57a1.69,1.69,0,0,0-.54-.75c-.16-.13-.33-.25-.35-.48.06-1.46,0-2.92,0-4.38a1.17,1.17,0,0,1,.17-.8,7.5,7.5,0,0,1,2.8.66c-.16,1.72,0,3.44,0,5.16,0,1.12-.18,2.22-.13,3.33A.71.71,0,0,1,60.17,48.26Z"/><path class="cls-4" d="M81.78,61.73h3.45a1,1,0,0,1,.18.73v5.2a1,1,0,0,1-.18.73H81.78a1,1,0,0,1-.18-.73v-5.2A1,1,0,0,1,81.78,61.73Z"/><path class="cls-30" d="M60.83,68.39H57.49a1,1,0,0,1-.17-.73q0-2.62,0-5.25a1,1,0,0,1,.14-.68,24,24,0,0,1,3.39,0,.72.72,0,0,1,.16.52c0,1.87,0,3.73,0,5.59A.74.74,0,0,1,60.83,68.39Z"/><path class="cls-31" d="M13.38,55.6V43.22a1.61,1.61,0,0,1,.2-1c.58,1.55,1.15,3.1,1.74,4.64,0,.06.11.08.17.12-.09,2.65,0,5.3,0,8a.87.87,0,0,1-.18.62Z"/><path class="cls-32" d="M38.23,64.19l2.33-1.77c.21.14.15.36.16.56.05,1.79,0,3.59,0,5.38,0,.76.09,1.52.08,2.27a25.57,25.57,0,0,1-2.36,1.78c-.34,0-.36-.27-.39-.5a8.35,8.35,0,0,1,0-1V65.09A1.36,1.36,0,0,1,38.23,64.19Z"/><path class="cls-33" d="M66.63,68.39h-3a1,1,0,0,1-.18-.73V62.41a1,1,0,0,1,.15-.68,18.39,18.39,0,0,1,3.06,0,.86.86,0,0,1,.15.58c0,1.82,0,3.65,0,5.48A.85.85,0,0,1,66.63,68.39Z"/><path class="cls-34" d="M18.39,54.72c-.14.9-.14.9-1,.9l-.55,0a.92.92,0,0,1-.17-.68c0-3.63,0-7.27,0-10.9a.8.8,0,0,1,.07-.43c.4-1.28.83-2.56,1.32-3.81.36.19.3.53.3.84q0,3.43,0,6.89c0,2.31,0,4.63,0,6.94A.5.5,0,0,0,18.39,54.72Z"/><path class="cls-35" d="M18.39,54.72c-.29-.14-.22-.4-.22-.64V40.48a1.22,1.22,0,0,0-.13-.7,28.44,28.44,0,0,1,1.11-3.09c.32.13.24.42.24.67,0,4.09,0,8.18,0,12.27a3.16,3.16,0,0,0,.21,1.18C19.19,52.11,18.79,53.42,18.39,54.72Z"/><path class="cls-36" d="M57.49,61.73v6.66H54.6a1,1,0,0,1-.18-.73c0-1.75,0-3.5,0-5.24a1,1,0,0,1,.14-.69A14.35,14.35,0,0,1,57.49,61.73Z"/><path class="cls-37" d="M65.15,48.27h-3a1,1,0,0,1-.17-.74c0-2.2,0-4.4,0-6.61,0-.24,0-.53.28-.65a7.53,7.53,0,0,1,2.38,3.12A8.12,8.12,0,0,1,65.15,48.27Z"/><path class="cls-38" d="M28.65,79.89c-.11-2,0-4-.07-5.94a18.45,18.45,0,0,0-.06-2.35,27.39,27.39,0,0,1,2.22-1.67c.37.2.3.57.3.89,0,2.38,0,4.76,0,7.14A20.27,20.27,0,0,1,28.65,79.89Z"/><path class="cls-39" d="M57.49,61.73H54.6a1,1,0,0,1-.74.17c-.64,0-1.28,0-1.93,0-.81,0-1.63,0-2.45,0s-1.48,0-2.22,0H43.8c-1.06,0-1.07,0-1.06,1.07,0,1.81-.07,3.62,0,5.43a1.63,1.63,0,0,1-.17.92,17.18,17.18,0,0,1-1.76,1.32,2.71,2.71,0,0,1-.18-1.38c0-2.21,0-4.41,0-6.61a.79.79,0,0,0,0-.22,2.67,2.67,0,0,1,2.08-.81c8.44,0,16.88,0,25.33,0l.66,0,0,.1-.08.06a3.32,3.32,0,0,1-1.9-.08h-3a.87.87,0,0,1-.68.16,5.19,5.19,0,0,1-2.11-.16Z"/><path class="cls-40" d="M36.21,55.58v-10c0-2,0-3.93,0-5.89a2.47,2.47,0,0,0-.12-.82,4.3,4.3,0,0,1,1.22-.22A3.49,3.49,0,0,0,37.16,40c0,1.35-.09,2.7.08,4,.08.23-.06.38-.18.55-.54.71-.54.71,0,1.26a8.73,8.73,0,0,1,0,2.34c-.1.22-.31.15-.48.16s-.28.08-.2.27c.13,1.33.58,1.81,1.8,1.92a.87.87,0,0,1,.17.68c0,1.31,0,2.63,0,3.94a.92.92,0,0,1-.18.68A6.51,6.51,0,0,1,36.21,55.58Z"/><path class="cls-41" d="M32.1,41.27a6.16,6.16,0,0,1,.1,1.6c0,3.09,0,6.18,0,9.27a2.91,2.91,0,0,1-.13.93,7.3,7.3,0,0,1-1.92-4.14,9.31,9.31,0,0,1,1.38-7A8.77,8.77,0,0,1,32.1,41.27Z"/><path class="cls-42" d="M60.5,55.05a7.21,7.21,0,0,1-3.12.76.77.77,0,0,1-.17-.62c0-1.43,0-2.85,0-4.27a1,1,0,0,1,.17-.63c.47-.83,1.23-.82,2-.8,1.71,0,3.41,0,5.11,0,.22,0,.57-.09.33.35A34.79,34.79,0,0,0,61,49.78c-.42,0-.48.25-.48.58,0,1.37,0,2.73,0,4.1A.86.86,0,0,1,60.5,55.05Z"/><path class="cls-43" d="M60.83,61.73h2.79v6.66H60.83Z"/><path class="cls-6" d="M51.92,61.73H54.6v6.66H51.92a1,1,0,0,1-.17-.73c0-1.73,0-3.46,0-5.2A1,1,0,0,1,51.92,61.73Z"/><path class="cls-44" d="M75.54,61.73v6.66H72.87a.73.73,0,0,1-.18-.56q0-2.79,0-5.58a1.11,1.11,0,0,1,.08-.44.26.26,0,0,1,.16-.13,1.75,1.75,0,0,1,.72,0Z"/><path class="cls-45" d="M38.23,64.19q0,3.82,0,7.65c0,.22,0,.45.23.57-.69.63-1.49,1.11-2.23,1.68a.92.92,0,0,1-.18-.73c0-2.29-.12-4.58-.07-6.87a1.1,1.1,0,0,1,.12-.69A21,21,0,0,1,38.23,64.19Z"/><path class="cls-46" d="M32.53,68.59a20.78,20.78,0,0,1,2-1.52c.32.28.28.66.29,1,0,2,0,3.92,0,5.87a6.9,6.9,0,0,0,.07,1.11c-.68.65-1.5,1.11-2.24,1.69a1.25,1.25,0,0,1-.29-1c0-2.18,0-4.37,0-6.56A1,1,0,0,1,32.53,68.59Z"/><path class="cls-47" d="M62.25,40.26c-.25.4-.07.82-.08,1.23v6.77h-2c0-2.22.18-4.44.11-6.66,0-.62,0-1.25,0-1.87,0-.19-.08-.43.23-.48A4.36,4.36,0,0,1,62.25,40.26Z"/><path class="cls-43" d="M60.5,55.05a49,49,0,0,1-.11-5.14c0-.24.13-.31.35-.31h3.77c.19,0,.32,0,.35.26a3.56,3.56,0,0,1-.43,1.3A7.65,7.65,0,0,1,60.5,55.05Z"/><path class="cls-48" d="M43.36,39.8a5.89,5.89,0,0,1,2.19,2.13c-.06,1.83,0,3.66,0,5.49a1.29,1.29,0,0,1-.15.86,10.5,10.5,0,0,1-2.17,0,1.16,1.16,0,0,1-.14-.75q0-3.47,0-6.93C43.06,40.31,42.93,39.94,43.36,39.8Z"/><path class="cls-25" d="M81.78,61.73v6.66H79.33V61.73Z"/><path class="cls-14" d="M51.92,61.73v6.66H49.47a1,1,0,0,1-.18-.73v-5.2a1.06,1.06,0,0,1,.18-.73Z"/><path class="cls-49" d="M16.72,43.59c.25,4,0,8,.11,12H15.27V47.72a.85.85,0,0,1,.22-.7A34.11,34.11,0,0,1,16.72,43.59Z"/><path class="cls-50" d="M57.71,38.59c0,1.5,0,3,0,4.5a2.55,2.55,0,0,1-.12.82c-.11.14-.27.09-.41.07a2.2,2.2,0,0,0-1.94.6.39.39,0,0,1-.25.12c-.24-.16-.18-.42-.18-.65V38.72A9.05,9.05,0,0,1,57.71,38.59Z"/><path class="cls-51" d="M71,68.39H68.63a1,1,0,0,1-.17-.73c0-1.73,0-3.46,0-5.2a1,1,0,0,1,.17-.73v0a12.41,12.41,0,0,1,2.36,0,1.1,1.1,0,0,1,.15.75V67.6A1.05,1.05,0,0,1,71,68.39Z"/><path class="cls-52" d="M43.36,39.8c-.21.18-.12.42-.12.63q0,3.91,0,7.83a4.68,4.68,0,0,1-1.71,0,1.21,1.21,0,0,1-.14-.75V39.78c0-.27,0-.56.19-.78A5.08,5.08,0,0,1,43.36,39.8Z"/><path class="cls-53" d="M2.35,68.39a20.61,20.61,0,0,1-.1-2.22c.07-1.34,0-2.69,0-4,0-.3.08-.43.4-.42.63,0,1.26,0,1.89,0a.79.79,0,0,1,.07.43c0,1.93,0,3.87,0,5.8a.79.79,0,0,1-.07.43Z"/><path class="cls-54" d="M49.47,61.73v6.66H47.24a1,1,0,0,1-.17-.73c0-1.73,0-3.46,0-5.2a1,1,0,0,1,.17-.73Z"/><path class="cls-50" d="M57.38,50.29v5.52a7.5,7.5,0,0,1-2.67-.2c0-1.82,0-3.64,0-5.45,0-.2-.13-.47.2-.56C55.42,50.5,56.2,50.71,57.38,50.29Z"/><path class="cls-55" d="M85.23,68.39V61.73c.52,0,1,0,1.56,0s.57.11.57.56c0,2,0,4.07,0,6.11Z"/><path class="cls-35" d="M20.4,61.73v6.66H18.28a.81.81,0,0,1-.17-.62c0-1.82,0-3.65,0-5.47a1,1,0,0,1,.11-.54c.18-.17.41-.06.62-.09A9.05,9.05,0,0,1,20.4,61.73Z"/><path class="cls-56" d="M32.53,68.59c0,2,0,4,0,5.92a10.72,10.72,0,0,0,.12,2.26A13.38,13.38,0,0,1,31.05,78c-.31-.11-.18-.37-.18-.57,0-2.24,0-4.47,0-6.71a1.29,1.29,0,0,0-.13-.75A16.68,16.68,0,0,1,32.53,68.59Z"/><path class="cls-57" d="M75,44.39a.63.63,0,0,0,.34-.67q0-2.19,0-4.38a.66.66,0,0,0-.33-.67,18,18,0,0,0,2.32,0c.33,0,.45.08.45.43,0,1.59,0,3.17,0,4.76,0,.35-.13.43-.46.44A13.84,13.84,0,0,0,75,44.39Z"/><path class="cls-58" d="M75.32,55.6V49.71a3.84,3.84,0,0,0,2,.21c.37,0,.46.12.46.48q0,2.39,0,4.77c0,.38-.12.48-.47.46C76.65,55.6,76,55.61,75.32,55.6Z"/><path class="cls-59" d="M68.63,61.73v6.66h-2V61.73Z"/><path class="cls-60" d="M38.22,55.81v-5.3a1.64,1.64,0,0,0,1.43-.8.41.41,0,0,1,.41-.21h6.42a.17.17,0,0,1,.18.1.77.77,0,0,1-.62.17c-.86,0-1.71,0-2.56,0-.53,0-1,0-1.58,0h-.22c-1.24,0-1.16-.13-1.17,1.22,0,1.54.05,3.09,0,4.63A6.11,6.11,0,0,1,38.22,55.81Z"/><path class="cls-61" d="M71,68.39V61.73a6,6,0,0,1,1.89,0q0,3.33,0,6.66Z"/><path class="cls-23" d="M34.9,75.08c-.37-.07-.24-.37-.24-.58q0-3.15,0-6.28a6.23,6.23,0,0,0-.12-1.15l1.55-1.27c0,.81,0,1.62,0,2.43,0,2,.07,3.91.11,5.86A11.65,11.65,0,0,1,34.9,75.08Z"/><path class="cls-15" d="M4.58,68.39a11.8,11.8,0,0,1,0-2.06c0-1.53-.08-3.07,0-4.6H6.36a1,1,0,0,1,.18.73v5.2a1,1,0,0,1-.18.73Z"/><path class="cls-48" d="M43.79,61.73h1.78a.75.75,0,0,1,.17.57c0,1.89,0,3.77.12,5.66a.7.7,0,0,1-.07.43l-2,0a.92.92,0,0,1-.18-.73V62.47A1,1,0,0,1,43.79,61.73Z"/><path class="cls-16" d="M6.36,68.39V61.73H8.14c.23.12.19.33.19.54,0,1.86,0,3.72,0,5.59,0,.2,0,.41-.19.53Z"/><path class="cls-62" d="M16.5,68.39H14.72a1,1,0,0,1-.18-.73c0-1.75,0-3.49,0-5.23a1.11,1.11,0,0,1,.14-.69,6,6,0,0,1,1.84,0,1.08,1.08,0,0,1,.15.74c0,1.72,0,3.43,0,5.14A1.1,1.1,0,0,1,16.5,68.39Z"/><path class="cls-34" d="M16.5,68.39V61.73a5.32,5.32,0,0,1,1.78,0v6.66Z"/><path class="cls-22" d="M13.27,68.39H11.48a1,1,0,0,1-.17-.73c0-1.73,0-3.47,0-5.2a1,1,0,0,1,.17-.73h0a7.23,7.23,0,0,1,1.8,0,.92.92,0,0,1,.15.58c0,1.83,0,3.65,0,5.48A.87.87,0,0,1,13.27,68.39Z"/><path class="cls-63" d="M41.57,39v9.26a4.56,4.56,0,0,1-1.33,0c-.24-.26-.16-.58-.17-.89a14.42,14.42,0,0,1,0-1.47,1.21,1.21,0,0,1,.05-.18.65.65,0,0,0,.08-.76,1,1,0,0,1-.08-.54c.07-1.64,0-3.27,0-4.91a1.1,1.1,0,0,1,.17-.84A4.43,4.43,0,0,1,41.57,39Z"/><path class="cls-64" d="M8.14,68.39c.15-.34,0-.68,0-1,0-1.79-.05-3.58.06-5.37a.85.85,0,0,0,0-.26H9.92a.7.7,0,0,1,.07.43V68a.7.7,0,0,1-.07.43Z"/><path class="cls-65" d="M45.79,68.39a1.08,1.08,0,0,1-.11-.47c-.11-2.07-.12-4.13-.11-6.19h1.67v6.66Z"/><path class="cls-60" d="M40.34,38.7v5.23a1.31,1.31,0,0,1-.13.7c-.21,0-.34-.14-.47-.27a2.53,2.53,0,0,0-1.15-.5c-.33-.08-.42-.34-.42-.64,0-1.38,0-2.77,0-4.15,0-.57.16-.62,1.06-.49A3,3,0,0,1,40.34,38.7Z"/><path class="cls-66" d="M9.92,68.39a10.9,10.9,0,0,1,0-2.06c0-1.53-.08-3.07,0-4.6h1.56v6.66Z"/><path class="cls-48" d="M43.46,49.61h3.2a6.48,6.48,0,0,1-1.89,3.6c-.38.38-.8.72-1.2,1.09-.26-.13-.28-.38-.28-.62,0-1.18,0-2.37,0-3.55A.68.68,0,0,1,43.46,49.61Z"/><path class="cls-67" d="M13.27,68.39V61.73a5.64,5.64,0,0,1,1.36,0l.09,0v6.66Z"/><path class="cls-68" d="M43.79,61.73v6.68l-1.22.9c-.06-1-.09-2.08-.07-3.1,0-1.37,0-2.74.06-4.1,0-.29.11-.4.4-.39S43.51,61.73,43.79,61.73Z"/><path class="cls-52" d="M43.46,49.61v4a1.21,1.21,0,0,0,.11.7,4.91,4.91,0,0,1-1.67.9.76.76,0,0,1-.27-.74c.1-1.33-.08-2.65,0-4a1.09,1.09,0,0,1,.28-.86Z"/><path class="cls-63" d="M41.9,49.61a14.55,14.55,0,0,0,0,3.73,4.25,4.25,0,0,1-.09.93,2.4,2.4,0,0,0,.11.92,3.72,3.72,0,0,1-1.43.43c-.19-.13-.13-.33-.13-.51,0-1.66,0-3.31,0-5,0-.46.15-.58.57-.55S41.57,49.6,41.9,49.61Z"/><path class="cls-69" d="M45.35,48.26V42.71a1,1,0,0,1,.2-.78,8.18,8.18,0,0,1,1.52,4.7,4.28,4.28,0,0,1-.17,1.63A4.25,4.25,0,0,1,45.35,48.26Z"/><path class="cls-70" d="M39.23,38.58c-1,0-.89-.16-.9.94s0,2.41,0,3.61c0,.37.09.58.46.66a4.23,4.23,0,0,1-1.57.36C37,44,37,43.83,37,43.63c0-1.5,0-3,0-4.48a.49.49,0,0,1,.33-.54A5.57,5.57,0,0,1,39.23,38.58Z"/><path class="cls-23" d="M45.35,48.26H46.9c-.17.2-.38.1-.57.1H37c-.2,0-.51-.17-.57.22,0-.32,0-.32.57-.33.39-.27.83-.14,1.24-.16a4.83,4.83,0,0,1,2,.16h5.12Z"/><path class="cls-68" d="M72.86,61.73H71l-2.33,0a.13.13,0,0,1,0-.06H73v.06Z"/><path class="cls-64" d="M18.28,61.73H14.71v-.07c1.38,0,2.75,0,4.13,0v.07Z"/><path class="cls-15" d="M14.71,61.65v.07H11.49s0,0,0-.07C12.56,61.61,13.64,61.61,14.71,61.65Z"/><path class="cls-62" d="M26.19,61.73H24.07v-.07h3v.07Z"/><path class="cls-67" d="M24.07,61.65v.07H21.4v-.07Z"/><path class="cls-66" d="M21.4,61.65v.07H18.84v-.07Z"/><path class="cls-34" d="M27.08,61.72v-.07c.25,0,.52-.13.75.07Z"/><path class="cls-30" d="M73,61.71s0,0,0-.06h.68v.07Z"/><path class="cls-1" d="M113,47.07c0,1.66-.71,2.66-1.89,2.87a2.4,2.4,0,0,1-2.93-2.33,4,4,0,0,1,.1-1.38,2.38,2.38,0,0,1,4.69.29C113,46.76,113,47,113,47.07Z"/><path class="cls-50" d="M57.6,45.69v2.57c-.75,0-1.51,0-2.27,0-.43,0-.54-.14-.52-.54,0-.68,0-1.37,0-2A5.21,5.21,0,0,1,57.6,45.69Z"/><path class="cls-71" d="M57.6,45.69H54.83c-.19-.37.1-.65.17-1a2.16,2.16,0,0,1,2.6-.79,1.73,1.73,0,0,1,1,1.28c.06.36,0,.52-.41.48A4.19,4.19,0,0,0,57.6,45.69Z"/><path class="cls-71" d="M37.21,44.15a2.78,2.78,0,0,1,1.57-.36,2,2,0,0,1,1.43.84l.14.41c0,.24.15.49-.14.66h0c-.39.31-.85.15-1.27.18a4.33,4.33,0,0,1-.72,0c-.41,0-.86.12-1.24-.18-.61-.06-.6-.07-.41-.65A3.33,3.33,0,0,1,37.21,44.15Z"/><path class="cls-70" d="M37,45.69h1.23a4,4,0,0,1,0,2.57H37Z"/><path class="cls-72" d="M38.22,48.26V45.69h2c0,.86,0,1.71,0,2.57Z"/><path class="cls-72" d="M40.21,45.7c.26-.18.12-.43.14-.66C40.44,45.29,40.64,45.56,40.21,45.7Z"/></svg>