<svg id="Layer_1" data-name="Layer 1" xmlns="http://www.w3.org/2000/svg" viewBox="0 0 120 120"><defs><style>.cls-1{fill:#faf9f9;}.cls-2{fill:#f3f2f2;}.cls-3{fill:#4d72b8;}.cls-4{fill:#e3e1e1;}.cls-5{fill:#e7e6e6;}.cls-6{fill:#e8e7e7;}.cls-7{fill:#dedddc;}.cls-8{fill:#dedddf;}.cls-9{fill:#e4e3e5;}.cls-10{fill:#e4e2e3;}.cls-11{fill:#edebeb;}.cls-12{fill:#e6e5e6;}.cls-13{fill:#eae9e9;}.cls-14{fill:#e9e8e8;}.cls-15{fill:#272727;}.cls-16{fill:#fff;}.cls-17{fill:#d4d3d3;}.cls-18{fill:#e1e0df;}.cls-19{fill:#d5d3d4;}.cls-20{fill:#d2d0d2;}.cls-21{fill:#e0dedf;}.cls-22{fill:#d5d3d5;}.cls-23{fill:#d0ced0;}.cls-24{fill:#d6d5d7;}.cls-25{fill:#e1e0e1;}.cls-26{fill:#e0dfe1;}.cls-27{fill:#c7c6cc;}.cls-28{fill:#c3c2c6;}</style></defs><path class="cls-1" d="M116.52,72.68a14.55,14.55,0,0,0-.34,1.62,19,19,0,0,1-4.13,8.07,17.71,17.71,0,0,1-4.84,3.95,1,1,0,0,0-.6,1.08,17,17,0,0,1-3.69,11.66,16.6,16.6,0,0,1-10.23,6.1,15.48,15.48,0,0,1-3.9.28.48.48,0,0,0-.53.32,16.2,16.2,0,0,1-3,4.36,17,17,0,0,1-3.74,3A16.28,16.28,0,0,1,75,115.35a17.06,17.06,0,0,1-8.75-1.27A16.22,16.22,0,0,1,61,110.57l-.9-.88s-.06,0-.14,0v2.83c0,.82,0,1.64,0,2.47a1.33,1.33,0,0,1-1.42,1.45c-.86,0-1.72,0-2.57,0a1,1,0,0,1-.63-.22c.06-.3.31-.23.49-.23.74,0,1.47,0,2.21,0,1.11,0,1.44-.32,1.47-1.44,0-1.36,0-2.73,0-4.1,0-.29,0-.59,0-.89s0-.48.25-.6.44.1.57.26a15.24,15.24,0,0,0,2.4,2.28,16.42,16.42,0,0,0,8.75,3.45,16.13,16.13,0,0,0,8.23-1.37,16.6,16.6,0,0,0,5.67-4.25,15.72,15.72,0,0,0,2.42-3.68,1,1,0,0,1,1.11-.6A16.58,16.58,0,0,0,97,103.23,16.36,16.36,0,0,0,106,91a16.53,16.53,0,0,0,.18-3.72,1.27,1.27,0,0,1,.74-1.31A18.25,18.25,0,0,0,116.09,72a17.91,17.91,0,0,0-1.9-10.22A18.15,18.15,0,0,0,109,55.6a1,1,0,0,1-.4-1.41,16.85,16.85,0,0,0,1-6.13,18.14,18.14,0,0,0-4-11.09,17.49,17.49,0,0,0-5.34-4.49,1.31,1.31,0,0,1-.7-1.39,14.83,14.83,0,0,0-13-15.77,1.76,1.76,0,0,1-1.58-1.2,14.15,14.15,0,0,0-3.74-5.19A14.67,14.67,0,0,0,67.72,5.59c-.33.08-.68.37-1,0-.11-.33.18-.27.33-.31a18.32,18.32,0,0,1,3.61-.55,14.82,14.82,0,0,1,5.54.72,15.23,15.23,0,0,1,6.92,4.8,13.39,13.39,0,0,1,2.4,4.09c.16.44.53.45.84.49a14.68,14.68,0,0,1,7.67,3,15,15,0,0,1,5.61,8.94c.22,1,.27,2.07.39,3.1a5.21,5.21,0,0,1-.09,1.3c-.07.45.18.67.52.86a16.72,16.72,0,0,1,2.29,1.46,19.62,19.62,0,0,1,4.8,5.54,18.55,18.55,0,0,1,2.26,6.48,17.53,17.53,0,0,1-.23,6.69,16.83,16.83,0,0,1-.61,2.1.61.61,0,0,0,.25.81,18.57,18.57,0,0,1,7,10.53c.16.6.17,1.23.38,1.82Z"/><path class="cls-2" d="M66.69,5.61a6,6,0,0,0,1.88-.34,14.88,14.88,0,0,1,8.4.85,15.4,15.4,0,0,1,5.23,3.6A13.25,13.25,0,0,1,85,14.08a1.49,1.49,0,0,0,1.39,1.1,14,14,0,0,1,7.7,3.24,14.76,14.76,0,0,1,5.29,9c.14.83.12,1.67.28,2.49a6,6,0,0,1-.11,1.4,1,1,0,0,0,.63,1,15.84,15.84,0,0,1,4.28,3.25,18,18,0,0,1,4.89,9.65,18.55,18.55,0,0,1,.3,3.32,18.05,18.05,0,0,1-1,5.64c-.27.73-.17.88.46,1.35a18.44,18.44,0,0,1,6.65,10,15.53,15.53,0,0,1,.52,3.39,18.11,18.11,0,0,1-4.26,12.85,17.67,17.67,0,0,1-5.17,4.29,1,1,0,0,0-.57,1.06,17,17,0,0,1-2.54,10.09,16.56,16.56,0,0,1-7,6.22,15.66,15.66,0,0,1-6,1.58c-.75,0-1.5.08-2.25.08-.35,0-.49.21-.61.47a16.5,16.5,0,0,1-3.63,5A16.48,16.48,0,0,1,66.79,114a16.64,16.64,0,0,1-5-3.15c-.54-.5-1-1-1.54-1.57-.1-.1-.19-.31-.36-.24s-.2.3-.2.49c0,1,0,2,0,3a13.15,13.15,0,0,1-.08,2.51,1.08,1.08,0,0,1-1.26,1H55.73c-.14,0-.29,0-.39.1h-7.1c-1.33,0-1.75-.41-2-1.72-.3-1.92-.66-3.83-1-5.75-.3-1.75-.61-3.49-.88-5.24a1.2,1.2,0,0,0-.84-1.08c-1.33-.47-2.65-1-4-1.5a1.37,1.37,0,0,0-1.41.19q-4.61,3.14-9.25,6.23c-1,.68-1.46.63-2.33-.24-1.88-1.91-3.79-3.79-5.62-5.75-1.11-1.19-2.31-2.28-3.4-3.5s-2.38-2.41-3.55-3.64a6.53,6.53,0,0,1-.68-.8,1.44,1.44,0,0,1,0-1.58c.74-1.32,1.51-2.64,2.26-3.95q1.46-2.52,2.92-5a1.66,1.66,0,0,0,.07-1.56c-.84-2-1.7-4.09-2.49-6.16-.3-.79-.93-.92-1.59-1.06l-8.87-2a6.26,6.26,0,0,1-1.41-.38,1.32,1.32,0,0,1-.83-1.28q0-10.22,0-20.44a1.18,1.18,0,0,1,1-1.29,30,30,0,0,1,3-.64l6.91-1.39a1.24,1.24,0,0,0,1-.9q1.06-3,2.23-5.93a1.68,1.68,0,0,0-.21-1.75c-1.88-2.73-3.74-5.47-5.61-8.21a1.51,1.51,0,0,1,.21-2.2c1.73-1.76,3.49-3.49,5.17-5.3,1.2-1.3,2.52-2.49,3.7-3.8s2.62-2.62,3.88-4a19.11,19.11,0,0,1,2.11-2.11,1.25,1.25,0,0,1,1.6,0c1.26.81,2.51,1.64,3.77,2.47l5.65,3.69a1.33,1.33,0,0,0,1.28.18c1.29-.48,2.6-.93,3.92-1.34a1.25,1.25,0,0,0,1-1c.33-1.58.69-3.16,1-4.74q.68-3,1.36-6A1.49,1.49,0,0,1,47.9,4.36q5.18,0,10.35,0c1,0,1.49.52,1.5,1.55,0,1.23,0,2.45,0,3.68,0,.14,0,.31.13.36s.21-.11.29-.19a15.62,15.62,0,0,1,6.39-4C66.62,5.69,66.65,5.64,66.69,5.61Z"/><path class="cls-3" d="M47,5.19c0-.3.2-.32.43-.32H58.7c.11,0,.25,0,.32.11a1.83,1.83,0,0,1,.16.92c0,1.95,0,3.89,0,5.88l.32-.4a14.55,14.55,0,0,1,22.66-1.15c.26.39.6.72.87,1.09a.94.94,0,0,1,.09.12,14.09,14.09,0,0,1,1.72,3.34c.14.41.34.67.8.61a14.72,14.72,0,0,1,9.77,4.74,4.38,4.38,0,0,0,.52.62.34.34,0,0,1,.09.12,6.84,6.84,0,0,0,.62.8,1.5,1.5,0,0,1,.25.4,15.17,15.17,0,0,1,2,4.73,14,14,0,0,1,.2,4.65c0,.39,0,.69.4.85a18,18,0,0,1,5.66,4.56,3.69,3.69,0,0,0,.29.4l.09.11a1.78,1.78,0,0,0,.24.32,1,1,0,0,1,.08.11,2.43,2.43,0,0,0,.24.32.5.5,0,0,1,.08.12,9.57,9.57,0,0,0,.71,1.08s.05.1.08.14a17.8,17.8,0,0,1,2,5.92,17.34,17.34,0,0,1-.51,7.71,11.25,11.25,0,0,1-.51,1.48.46.46,0,0,0,.19.67c.69.57,1.4,1.1,2,1.7a17.94,17.94,0,0,1,4.3,6.12,18.59,18.59,0,0,1,1.36,5.73,19.23,19.23,0,0,1-.72,6.13,18.33,18.33,0,0,1-3.81,6.82,18,18,0,0,1-5.24,4.05.52.52,0,0,0-.34.62,8.14,8.14,0,0,0,.08,1.1,15,15,0,0,1-.35,4.06,15.5,15.5,0,0,1-3.39,7,16,16,0,0,1-6.64,4.74,15.61,15.61,0,0,1-5.28,1,12.35,12.35,0,0,1-1.72,0,.62.62,0,0,0-.73.43,15.83,15.83,0,0,1-2.28,3.7,16.24,16.24,0,0,1-8,5.32,14.67,14.67,0,0,1-4.3.62,16,16,0,0,1-10.79-4,18.32,18.32,0,0,1-2.76-3.08c-.14-.21-.28-.43-.42-.67a4.06,4.06,0,0,0,0,.78c0,2.46,0,4.92,0,7.37,0,.41-.22.56-.59.58h-.42c-3.38,0-6.77,0-10.15,0-.31,0-.64.06-.9-.18-.3-1.08-.42-2.2-.61-3.3-.54-3.13-1.1-6.27-1.6-9.41a.76.76,0,0,0-.52-.66l-5.16-1.94a.87.87,0,0,0-.84.14Q35.49,102,32.62,104C31.07,105,29.51,106,28,107.1a.36.36,0,0,1-.23,0c-.38-.16-.53-.55-.8-.82-2.12-2-4.12-4.19-6.17-6.29-2.34-2.4-4.66-4.83-7-7.21a.55.55,0,0,1-.12-.37c.49-1.1,1.15-2.11,1.75-3.16C16.68,87,18,84.7,19.31,82.4a.83.83,0,0,0,.08-1c-1.05-2.47-2-5-3.07-7.42a.7.7,0,0,0-.61-.49L4.8,71.12a1.79,1.79,0,0,1-.59-.2c-.27-.23-.22-.54-.22-.83,0-1.38,0-2.76,0-4.15,0-5.1,0-10.2,0-15.31a2.76,2.76,0,0,1,.16-1.39h0a1,1,0,0,1,.47-.16c2-.42,4-.78,6-1.2,1.29-.28,2.58-.57,3.88-.8a1.43,1.43,0,0,0,1.24-1c.75-2.17,1.6-4.3,2.41-6.44a1.11,1.11,0,0,1,.09-.19A1.26,1.26,0,0,0,18,38q-3.14-4.5-6.18-9.05c-.2-.29,0-.5.16-.68.65-.62,1.21-1.33,1.84-1.95C16,24.2,18,22,20.06,19.93s4.34-4.47,6.52-6.7a4,4,0,0,1,.8-.68l.49.23c1.42.79,2.73,1.76,4.09,2.64,1.88,1.21,3.75,2.43,5.6,3.69a1.51,1.51,0,0,0,1.44.21c1.54-.56,3.1-1.05,4.64-1.62a1,1,0,0,0,.71-.81l2.34-10.5A5,5,0,0,1,47,5.19Z"/><path class="cls-4" d="M115.69,68.79a18.5,18.5,0,0,0-1.35-5.67,18.12,18.12,0,0,0-3.36-5.2,26.79,26.79,0,0,0-2.88-2.55.94.94,0,0,1-.11-.93c.13-.37.27-.74.37-1.13,0-.14.07-.32.29-.29a.45.45,0,0,1,0,.42c-.14.43-.29.85-.4,1.28a.59.59,0,0,0,.26.67,20.58,20.58,0,0,1,5,5.44,16.91,16.91,0,0,1,2.4,7,18.24,18.24,0,0,1-1.34,9.53,19.13,19.13,0,0,1-6.71,8c-.34.24-.72.4-1.08.61a1.2,1.2,0,0,0-.77,1.18,18.2,18.2,0,0,1-.49,5.6,15.83,15.83,0,0,1-3.25,6.24,18.08,18.08,0,0,1-3.2,3c-.13.09-.27.16-.41.24s-.36.35-.64.22c0-.26.17-.36.34-.47a16,16,0,0,0,6.59-8.56,17,17,0,0,0,.81-5.62.46.46,0,0,0-.09-.3,1.71,1.71,0,0,1,1.08-2,17.87,17.87,0,0,0,8.86-13.14A14.06,14.06,0,0,0,115.69,68.79Z"/><path class="cls-5" d="M27.38,12.55l-3.5,3.63L12.09,28.29c-.15.16-.37.3-.17.56a20.8,20.8,0,0,0,1.9,3Q16,35,18.1,38.12a1.65,1.65,0,0,1,.13,1.45c-.82,2.21-1.67,4.4-2.44,6.63a1.32,1.32,0,0,1-1.17.95c-3.2.62-6.4,1.28-9.59,1.92l-.47.06s0,0,0-.07,0,0,0,0c1.51-.4,3.06-.62,4.59-1l1.93-.42c.16-.12.37,0,.53-.1h0c.15-.13.37,0,.52-.11h0c.16-.12.37,0,.53-.1h0c.16-.13.37,0,.52-.11h0c.16-.12.37,0,.53-.11h0c.16-.12.37,0,.52-.1A1.4,1.4,0,0,0,15.46,46c.75-2.06,1.52-4.12,2.34-6.16a1.74,1.74,0,0,0-.24-1.8c-.95-1.36-1.88-2.73-2.82-4.1L12.06,30c-.67-1-.6-1.43.21-2.29C13.83,26,15.48,24.47,17,22.81c1.21-1.29,2.52-2.48,3.7-3.79s2.63-2.62,3.88-4c.61-.68,1.25-1.31,1.88-2A1.65,1.65,0,0,1,27.38,12.55Z"/><path class="cls-4" d="M98,102.32c.23,0,.38-.27.63-.21a15.39,15.39,0,0,1-3.27,1.7,15.66,15.66,0,0,1-6.56,1,1,1,0,0,0-1.07.64,17.65,17.65,0,0,1-2.88,4.19,18.48,18.48,0,0,1-5.22,3.76,15.82,15.82,0,0,1-8.15,1.38A13.72,13.72,0,0,1,65.35,113a1.7,1.7,0,0,0-.34-.12,14.1,14.1,0,0,1-2.89-2c-.12-.11-.35-.2-.24-.45a.37.37,0,0,1,.23,0c.8.51,1.49,1.16,2.3,1.66a16,16,0,0,0,7.4,2.4,15.58,15.58,0,0,0,12.6-4.82,14.1,14.1,0,0,0,2.88-4.09c.38-.82.74-1.11,1.91-1a13.91,13.91,0,0,0,3.8-.34,16.79,16.79,0,0,0,4.54-1.74C97.7,102.27,97.85,102.18,98,102.32Z"/><path class="cls-4" d="M27.72,107h.15a2.65,2.65,0,0,0,.79-.39c2.86-1.9,5.68-3.84,8.52-5.76,1.61-1.1,1.62-1.09,3.41-.4l3.29,1.24c.49.18,1,.38,1,1a.54.54,0,0,1-.07.39c-.06,0-.15,0-.16,0-.12-.69-.62-1-1.22-1.11a.54.54,0,0,1-.23-.11h0c-.26-.15-.58-.15-.84-.31h0c-.26-.16-.58-.15-.84-.32h0a7.63,7.63,0,0,1-.84-.31c-.33-.13-.65-.27-1-.38a1.85,1.85,0,0,0-1.76.24c-2,1.37-4,2.75-6,4.08-1.07.69-2.11,1.42-3.16,2.14a1.22,1.22,0,0,1-1.89-.17c-1-1-2-1.93-2.92-3-1.15-1.26-2.41-2.39-3.55-3.65S18.24,98,17.16,96.89c-.57-.6-1.11-1.21-1.66-1.82a.17.17,0,0,1,0-.21c.24-.08.36.11.48.23q3.19,3.22,6.32,6.52c.52.54,1.05,1.07,1.59,1.6,1.15,1.15,2.22,2.37,3.4,3.5A1.26,1.26,0,0,0,27.72,107Z"/><path class="cls-6" d="M59,5.93V5a1.16,1.16,0,0,1,.42,1v4c0,.24-.07.56.2.65s.41-.15.55-.33a13.94,13.94,0,0,1,4.34-3.4A13.19,13.19,0,0,1,69.29,5.4,14.36,14.36,0,0,1,81,8.87a15.88,15.88,0,0,1,1.73,1.75c.09.1.2.2.19.35l-.07,0c-.29-.15-.45-.44-.69-.65A16.38,16.38,0,0,0,77.73,7a14.43,14.43,0,0,0-17.81,4c-.09.13-.2.25-.3.37-.46.11-.54,0-.54-.43,0-1.49,0-3,0-4.47A1.08,1.08,0,0,0,59,5.93Z"/><path class="cls-7" d="M4.15,49.24c0,.33,0,.66,0,1q0,10,0,20c0,.25-.11.55.23.68a9.86,9.86,0,0,0,2.37.62c1.84.45,3.69.79,5.52,1.26.13.13.46,0,.39.36a.64.64,0,0,1-.45,0c-2.06-.51-4.13-.91-6.19-1.38l-1.28-.31a1.11,1.11,0,0,1-.89-1,11.8,11.8,0,0,1-.1-1.46V51.13A4.23,4.23,0,0,1,4,49.34Z"/><path class="cls-8" d="M47,5.19c-.15,1.2-.48,2.36-.74,3.53-.62,2.81-1.26,5.62-1.87,8.43a.63.63,0,0,1-.47.54q-2.68.9-5.36,1.83a.67.67,0,0,1-.64-.06l-10-6.6a.5.5,0,0,1-.07-.08,2,2,0,0,1,1,.5q4.23,2.76,8.44,5.56a2.16,2.16,0,0,0,2.12.26A29.52,29.52,0,0,1,42.61,18,2.3,2.3,0,0,0,44.42,16c.59-2.93,1.27-5.84,1.92-8.76q.16-.73.36-1.47C46.75,5.53,46.8,5.3,47,5.19Z"/><path class="cls-9" d="M4,49.34a14.07,14.07,0,0,0-.2,3.49q0,8.34,0,16.68A8,8,0,0,0,4,70.71a.84.84,0,0,0,.67.67c1.64.39,3.27.78,4.93,1.1.9.17,1.79.41,2.69.62a.58.58,0,0,0,.5,0,.61.61,0,0,1,.3,0,.88.88,0,0,1,.2.09.85.85,0,0,0,.47.07,1.35,1.35,0,0,1,.29,0l.2.09a1,1,0,0,0,.51.06c.3,0,.61,0,.83.3a.17.17,0,0,1,0,.15,13,13,0,0,1-2.25-.44q-4.07-.87-8.1-1.8c-1.5-.35-1.44-.68-1.51-2.14-.09-2,0-4,0-6,0-4,0-8.05,0-12.08,0-.53.12-1,.12-1.56C3.73,49.65,3.9,49.5,4,49.34Z"/><path class="cls-10" d="M15.5,73.94v-.11c.46-.1.79.09,1,.63.47,1.08.92,2.18,1.36,3.28s.9,2.18,1.33,3.28a1.69,1.69,0,0,1,.18,1.45l-3.33,5.86c-.79,1.38-1.59,2.75-2.38,4.12a1.53,1.53,0,0,0,.52,1c.29.32.61.62.91.93.14.16.33.28.39.5v.21c-.57-.55-1.16-1.07-1.68-1.65a1.22,1.22,0,0,1-.17-1.5l2.35-4c.57-1,1.11-2,1.67-2.93.39-.68.79-1.35,1.19-2A1.44,1.44,0,0,0,19,81.55c-.45-1.09-.89-2.19-1.33-3.29s-.95-2.28-1.39-3.43A1.53,1.53,0,0,0,15.5,73.94Z"/><path class="cls-11" d="M61.86,110.42a10.41,10.41,0,0,0,2.58,2c.2.13.44.21.57.43a2.05,2.05,0,0,1-1.11-.55,15.1,15.1,0,0,1-3.15-2.71,10.46,10.46,0,0,0-.74-.75c-.1-.09-.2-.23-.36-.16s-.1.24-.1.37c0,1.7,0,3.4,0,5.1,0,1.43-.41,1.85-1.82,1.85H48.16c-.83,0-1.24-.24-1.44-.84a.23.23,0,0,1,.18,0,1.78,1.78,0,0,0,1.38.51h9.61a3,3,0,0,0,.42,0c.63-.12.8-.28.84-.92.09-1.24,0-2.48,0-3.72,0-.7,0-1.4,0-2.1,0-.3,0-.66.31-.77s.56.19.75.45l.09.13a4.72,4.72,0,0,0,.61.73C61.23,109.75,61.66,110,61.86,110.42Z"/><path class="cls-12" d="M108.64,53.44V53c-.13-.16-.06-.34,0-.5a17.86,17.86,0,0,0-1.79-13,.57.57,0,0,0-.11-.11h0a6.71,6.71,0,0,0-.74-1.16h0a1.38,1.38,0,0,0-.32-.43h0a1.63,1.63,0,0,0-.31-.42h0A1.26,1.26,0,0,0,105,37a19.56,19.56,0,0,0-3.32-3.11c-.71-.52-1.48-.93-2.23-1.39,0-.08-.15-.13-.11-.25a.08.08,0,0,1,.12,0A16.85,16.85,0,0,1,103,34.49a18.4,18.4,0,0,1,4.77,6.22,16.88,16.88,0,0,1,1.54,5.34,17.5,17.5,0,0,1,.19,2.6,18.82,18.82,0,0,1-.68,4.47C108.76,53.23,108.76,53.37,108.64,53.44Z"/><path class="cls-12" d="M99.49,32.21h-.1c-.17,0-.19-.12-.23-.23,0-.27,0-.53,0-.8a16.22,16.22,0,0,0-.6-5.37A12.4,12.4,0,0,0,96.72,22l-.18-.3a3.16,3.16,0,0,0-.64-.86h0a2.41,2.41,0,0,0-.56-.63,14.88,14.88,0,0,0-6-3.95,18,18,0,0,0-3.77-.8c0-.06,0-.11,0-.14s.33-.06.49,0a12.3,12.3,0,0,1,4.19,1,14.22,14.22,0,0,1,4.83,3.26,15,15,0,0,1,3.92,7.15,19.28,19.28,0,0,1,.31,4.48A2.92,2.92,0,0,0,99.49,32.21Z"/><path class="cls-13" d="M46.83,115.15h-.11a31.32,31.32,0,0,1-.63-3.32c-.34-1.93-.66-3.87-1-5.8-.17-1-.32-2-.49-2.93a1.27,1.27,0,0,0-1-1c-.15,0-.31,0-.38-.23a1.68,1.68,0,0,1,1.58,1.27,7.78,7.78,0,0,1,.43,2.08c.54,3,1,6,1.56,9C46.87,114.53,47,114.84,46.83,115.15Z"/><path class="cls-6" d="M86.14,15.39h-.52a.45.45,0,0,1-.64-.27c-.39-1-.87-1.89-1.33-2.83,0,0,0-.07,0-.1l0-.06a7.56,7.56,0,0,1,1.2,2.19A1.56,1.56,0,0,0,86.14,15.39Z"/><path class="cls-6" d="M82.88,11a2.85,2.85,0,0,1,.84,1.16h0c-.44,0-.44-.55-.75-.73h0c0-.15-.24-.25-.09-.44Z"/><path class="cls-13" d="M40.73,101a1.36,1.36,0,0,1,.84.31C41.25,101.26,40.93,101.26,40.73,101Z"/><path class="cls-13" d="M42.41,101.59a1.36,1.36,0,0,1,.84.31C43,101.83,42.61,101.9,42.41,101.59Z"/><path class="cls-13" d="M41.57,101.27a1.37,1.37,0,0,1,.84.32C42.12,101.51,41.77,101.58,41.57,101.27Z"/><path class="cls-14" d="M4.56,49v.1a.68.68,0,0,1-.42.11A.37.37,0,0,1,4.56,49Z"/><path class="cls-14" d="M12.13,47.45c-.14.18-.35.08-.52.11C11.75,47.38,12,47.48,12.13,47.45Z"/><path class="cls-14" d="M12.66,47.35c-.15.17-.35.07-.53.1C12.28,47.28,12.48,47.37,12.66,47.35Z"/><path class="cls-14" d="M13.18,47.24c-.14.18-.35.08-.52.11C12.81,47.17,13,47.27,13.18,47.24Z"/><path class="cls-14" d="M11.61,47.56c-.15.17-.35.08-.53.1C11.23,47.49,11.43,47.58,11.61,47.56Z"/><path class="cls-14" d="M14.23,47c-.14.18-.34.08-.52.1C13.86,47,14.06,47.06,14.23,47Z"/><path class="cls-14" d="M13.71,47.13c-.15.18-.35.08-.53.11C13.33,47.06,13.53,47.16,13.71,47.13Z"/><path class="cls-15" d="M94.83,23c-2.06,0-4,0-5.91,0a7.12,7.12,0,0,0-4.29,1.25,7.26,7.26,0,0,0-3.21,6.2q0,7.2,0,14.4a.76.76,0,0,1-.42.79,3,3,0,0,0-1.37,3.48,3.11,3.11,0,0,0,6-.24,3,3,0,0,0-1.55-3.31.87.87,0,0,1-.55-.92q0-7.07,0-14.14a5.08,5.08,0,0,1,2.91-4.88,4.27,4.27,0,0,1,2-.49c2.35,0,4.69,0,7,0a.53.53,0,0,1,.59.43,12.05,12.05,0,0,1,.36,7.25c-.11.44,0,.62.41.79a15.57,15.57,0,0,1,8.84,8.67c.22.53.39,1.07.59,1.6-.16.16-.33.1-.47.1-2.21,0-4.42,0-6.62,0a.69.69,0,0,1-.69-.41,3.1,3.1,0,1,0-4.92,3.69,3.07,3.07,0,0,0,4.93-.66.79.79,0,0,1,.81-.47c2.26,0,4.52,0,6.78,0,.55,0,.68.19.71.67a15.66,15.66,0,0,1-1.76,8.5c-.24.45-.17.64.27.89a15.45,15.45,0,0,1,6.89,7.43,15.11,15.11,0,0,1,1.24,7.6,15.42,15.42,0,0,1-3.22,8.2,15.23,15.23,0,0,1-6.69,5c-.4.16-.45.34-.36.74a13.93,13.93,0,0,1-7,15.31,13.73,13.73,0,0,1-7.72,1.63,11.37,11.37,0,0,1-1.65-.28c-.34-.06-.53,0-.65.37A13.84,13.84,0,0,1,74.8,112c-.66.07-.66.08-.66-.57v-17a3.69,3.69,0,0,1,.06-.88,1.38,1.38,0,0,1,1.42-.94c4.64,0,9.28,0,13.92,0A7.33,7.33,0,0,0,97,85.14q0-10.24,0-20.5a.73.73,0,0,1,.42-.74A3.08,3.08,0,1,0,94,58.81a3,3,0,0,0,.36,5.06.94.94,0,0,1,.55,1c0,6.69,0,13.39,0,20.08a5.33,5.33,0,0,1-.75,3,4.9,4.9,0,0,1-4.24,2.46c-4.65,0-9.29,0-13.93,0a3.93,3.93,0,0,0-2.46.72A3.78,3.78,0,0,0,72,94.42V111.5c0,.68,0,.64-.67.56a13.48,13.48,0,0,1-4.1-1.16,13.84,13.84,0,0,1-7.85-9.69c-.29-1.2-.29-1.21.93-1.2a3,3,0,0,0,2.6-.83,2.11,2.11,0,0,0,.57-1.36c0-2.16,0-4.31,0-6.47,0-.45.16-.59.56-.67A19.12,19.12,0,0,0,74.2,85a17.26,17.26,0,0,0,4.61-9.38A16.91,16.91,0,0,0,77.22,65a11.6,11.6,0,0,0-1.87-2.61c.08-.19.22-.12.33-.12a19.78,19.78,0,0,1,3.92.18,5.14,5.14,0,0,1,3.81,4.31c.18,2,.06,4.1.08,6.14,0,1.77,0,3.54,0,5.31a.57.57,0,0,1-.36.61,3,3,0,0,0-1.68,3.29,3.11,3.11,0,0,0,6.09,0A3,3,0,0,0,86,78.92a.69.69,0,0,1-.41-.73c0-3.61,0-7.22,0-10.83a7.31,7.31,0,0,0-5.28-6.9,7.21,7.21,0,0,0-2-.29h-5.1a.94.94,0,0,1-.64-.16,36.13,36.13,0,0,0-8.23-4.38c-1.64-.68-3.31-1.29-5-1.94A1.07,1.07,0,0,1,59,52.48c.09-.13.22-.09.34-.09,2.89,0,5.78,0,8.67,0,.28,0,.35.15.44.34a3,3,0,0,0,4.65,1,3.08,3.08,0,0,0,1-3.2,3.12,3.12,0,0,0-2.48-2.26A3,3,0,0,0,68.49,50a.52.52,0,0,1-.55.34q-4.23,0-8.46,0c-.43,0-.47-.16-.47-.52q0-4.23,0-8.46c0-.65,0-.63.62-.57A18.54,18.54,0,0,1,68.36,44c.54.36,1.06.74,1.56,1.15a2.45,2.45,0,0,0,3.81-.65c1.21-2.12,2.39-4.26,3.56-6.41a2.27,2.27,0,0,0-.57-3,23,23,0,0,0-8.51-4.87,24.55,24.55,0,0,0-4.3-1.06c-.33,0-.47-.18-.46-.54,0-2-.05-4,0-6a2.48,2.48,0,0,0-2.71-2.72c-.43.05-.87,0-1.31,0s-.45-.08-.44-.43a11.94,11.94,0,0,1,1.65-5.77,12.27,12.27,0,0,1,8.51-6c.89-.18.89-.18.89.71,0,3.78,0,7.57,0,11.35a.81.81,0,0,1-.44.83A3,3,0,0,0,68.27,24a3,3,0,0,0,2.93,2.26,3,3,0,0,0,3-2.29,3,3,0,0,0-1.48-3.42.85.85,0,0,1-.51-.89c0-3.78,0-7.57,0-11.35,0-.71,0-.7.71-.63A11.24,11.24,0,0,1,78.62,10a12,12,0,0,1,4.57,7.06c.09.38.23.54.65.51A12.51,12.51,0,0,1,90.31,19,12.71,12.71,0,0,1,94.83,23Z"/><path class="cls-15" d="M56.89,13.47c0,2,0,3.92,0,5.88,0,.49-.14.61-.58.57s-.81,0-1.21,0a2.41,2.41,0,0,0-2.4,2.4c0,2.17,0,4.34,0,6.52,0,.36-.08.53-.47.62A20.4,20.4,0,0,0,44.47,33a17.56,17.56,0,0,0-6.25,8.22,1.76,1.76,0,0,1-.41.65,25.85,25.85,0,0,0-6.88,21.39,25.88,25.88,0,0,0,5.6,12.93,11.27,11.27,0,0,0,1.24,1.35c.38.34.34.6,0,.94s-.55.68-.81,1a2.45,2.45,0,0,0,.2,3.57,25.91,25.91,0,0,0,5.47,4.12,29,29,0,0,0,9.69,3.56c.35.06.36.25.35.52v6.25A2.46,2.46,0,0,0,55.15,100c.44,0,.88,0,1.31,0s.44.12.44.45q0,3.28,0,6.57c0,1.89,0,3.78,0,5.68,0,.37-.11.46-.47.46h-7c-.27,0-.41,0-.47-.37-.68-4-1.39-8.06-2.07-12.1a.52.52,0,0,0-.38-.47c-2.55-.94-5.09-1.88-7.63-2.85a.68.68,0,0,0-.7.15c-3.23,2.18-6.46,4.35-9.68,6.54-.29.19-.45.23-.72,0q-5.51-5.72-11-11.4a.67.67,0,0,1-.11-1c1.77-3,3.52-6.1,5.29-9.14a.78.78,0,0,0,.05-.78q-2-4.8-3.93-9.61a.72.72,0,0,0-.59-.5c-3.58-.78-7.16-1.59-10.74-2.38-.32-.07-.43-.18-.43-.51q0-8.64,0-17.29c0-.31.07-.45.42-.51l10-2a.71.71,0,0,0,.58-.5q1.8-4.81,3.64-9.62a.8.8,0,0,0-.13-.85c-2-2.9-3.95-5.8-5.94-8.69-.2-.3-.22-.46.05-.74q6.25-6.42,12.48-12.86a.57.57,0,0,1,.9-.1c3.09,2.06,6.2,4.09,9.3,6.15a.9.9,0,0,0,.91.11q3.6-1.24,7.22-2.44a.83.83,0,0,0,.65-.68c.8-3.69,1.63-7.37,2.42-11,.11-.52.28-.69.83-.68q3.39.06,6.78,0c.51,0,.6.16.59.62C56.88,9.54,56.89,11.5,56.89,13.47Z"/><path class="cls-16" d="M54.81,93.71c0-1.16,0-2.31,0-3.47,0-.89-.29-1.24-1.16-1.38a28,28,0,0,1-14.28-6.6c-1.08-1-1.08-1-.21-2.09l3.6-4.72c.43-.57.47-.57,1-.11a23.66,23.66,0,0,0,11.16,5.6,13.2,13.2,0,0,0,8.27-.75,7.72,7.72,0,0,0,4.12-3.79c1.53-3.48.66-6.55-2.5-8.84a31,31,0,0,0-6.74-3.38c-3-1.21-6-2.32-8.91-3.82A21,21,0,0,1,42.25,55a12.93,12.93,0,0,1-2.78-8.55c.06-5.69,3-9.71,7.64-12.65a19.64,19.64,0,0,1,6.58-2.51,1.18,1.18,0,0,0,1.12-1.38c0-2.4,0-4.8,0-7.2,0-.65,0-.68.69-.68,1.75,0,3.5,0,5.26,0,.46,0,.6.15.6.61,0,2.24,0,4.48,0,6.72,0,1.41.23,1.64,1.64,1.82a24.24,24.24,0,0,1,7.88,2.44,19.51,19.51,0,0,1,4.32,2.94.54.54,0,0,1,.13.8c-1.11,2-2.2,3.94-3.29,5.91-.29.51-.44.53-.89.18a21,21,0,0,0-10.25-4.63,12.94,12.94,0,0,0-9.31,1.82,6.8,6.8,0,0,0-2.77,8.13A7.77,7.77,0,0,0,51.44,52a23.79,23.79,0,0,0,6.13,3.27c2.6,1.11,5.31,2,7.89,3.16a30,30,0,0,1,7.15,4.32,12.24,12.24,0,0,1,4.27,8.76,15.1,15.1,0,0,1-2,9,16.87,16.87,0,0,1-10.55,8c-.61.16-1.22.28-1.84.42-.91.19-1.18.5-1.18,1.43v6.88c0,.74,0,.74-.72.74-1.72,0-3.44,0-5.15,0-.5,0-.69-.17-.67-.68C54.83,96.06,54.81,94.88,54.81,93.71Z"/><path class="cls-15" d="M37.38,45.74A16.72,16.72,0,0,0,38,51.3a14.33,14.33,0,0,0,3.43,6,26.14,26.14,0,0,0,8.78,5.94c2,.93,4.09,1.76,6.18,2.56a.66.66,0,0,1,.5.76c0,4,0,7.92,0,11.87,0,.7,0,.69-.69.6a20.22,20.22,0,0,1-9.05-3.68,26.22,26.22,0,0,1-2.41-1.94,2.45,2.45,0,0,0-3.44.49c-.53.69-1.07,1.38-1.58,2.09-.22.32-.35.26-.57,0a24.38,24.38,0,0,1-4.61-7.31A23.9,23.9,0,0,1,37.09,46.1C37.15,46,37.22,45.94,37.38,45.74Z"/><path class="cls-15" d="M59.05,66.84c1.94,1,4,1.73,5.56,3.34a4.85,4.85,0,0,1-1,7.35,10.43,10.43,0,0,1-4.12,1.55c-.3,0-.52,0-.51-.39,0-3.84,0-7.67,0-11.51A3.1,3.1,0,0,1,59.05,66.84Z"/><path class="cls-15" d="M56.89,52.59a13.08,13.08,0,0,1-5.63-3.74,4.49,4.49,0,0,1,.11-5.15A7.4,7.4,0,0,1,55.85,41c1-.24,1-.23,1,.81V52.59Z"/><path class="cls-17" d="M98,102.32a3.18,3.18,0,0,0-1.07.5,15.22,15.22,0,0,1-6.78,1.73,10.74,10.74,0,0,1-1.39,0,1.22,1.22,0,0,0-1.32.81,15.23,15.23,0,0,1-1.94,3.16,16.78,16.78,0,0,1-3.9,3.53,16.44,16.44,0,0,1-4.3,2,15.4,15.4,0,0,1-2.61.49,16.27,16.27,0,0,1-6.25-.54,15.31,15.31,0,0,1-5.12-2.56c-.43-.32-.85-.67-1.27-1s-.79-.78-1.25-1.11a1.28,1.28,0,0,1-.44-.56c-.17-.19-.31-.42-.5-.6s-.22-.25-.4-.2-.21.27-.24.44a2.44,2.44,0,0,0,0,.47c0,1.8,0,3.61,0,5.41,0,.2.11.46-.2.56v-7.57c.21-.33.42-.15.62,0a17.75,17.75,0,0,0,3.8,3.89,16,16,0,0,0,7.36,3,15.38,15.38,0,0,0,8.89-1.33,16,16,0,0,0,7.92-8.2.54.54,0,0,1,.64-.39,15.8,15.8,0,0,0,14.64-7,14.86,14.86,0,0,0,2.73-7.93c0-.6.06-1.19.07-1.78,0-.06,0-.1,0-.14.15.17.09.37.09.55a16.28,16.28,0,0,1-2.4,9,15.56,15.56,0,0,1-4.22,4.56A5,5,0,0,0,98,102.32Z"/><path class="cls-18" d="M59,114.83c.17-.15.1-.36.1-.54,0-1.89,0-3.77,0-5.66,0-.14,0-.28,0-.42a.54.54,0,0,1,.27-.48c.22-.11.36.09.46.23.21.3.53.51.63.88,0,0-.07,0-.1,0a.75.75,0,0,1-.33-.33c-.12-.2-.3-.41-.53-.34s-.2.34-.2.55v1.94c0,1.19,0,2.38,0,3.57s-.42,1.57-1.56,1.56c-3.12,0-6.23,0-9.35,0a1.65,1.65,0,0,1-1.59-.64c-.53-3-1.07-6-1.56-9a24,24,0,0,1-.44-3v-.42c.26.06.19.29.21.45.51,2.94,1,5.88,1.52,8.81a28.36,28.36,0,0,0,.57,3c0,.24.24.22.41.22,3.69,0,7.38,0,11.08,0C59,115.27,59,115.11,59,114.83Z"/><path class="cls-19" d="M47.13,115a3.2,3.2,0,0,1-.39-1.54c-.55-3-1.06-6.06-1.58-9.09a7.75,7.75,0,0,0-.33-1.66.87.87,0,0,0-.61-.73l-3.06-1.17a9.85,9.85,0,0,1-1.22-.45,1.8,1.8,0,0,0-2,.16c-2.38,1.65-4.78,3.26-7.17,4.88L28.47,107a.84.84,0,0,1-.6.09l4.8-3.29c1.88-1.28,3.78-2.54,5.65-3.82a.93.93,0,0,1,1-.12q2.57,1,5.16,1.93a.73.73,0,0,1,.55.65c.42,2.53.86,5.06,1.29,7.59.27,1.55.54,3.1.8,4.65C47.11,114.76,47.12,114.9,47.13,115Z"/><path class="cls-19" d="M15.5,94.86a1.06,1.06,0,0,1-.42-.42,14.38,14.38,0,0,0-1-1.06c-.17-.18-.39-.35-.25-.66l6.36,6.49q3.24,3.33,6.46,6.67c.37.38.72.77,1.07,1.16a.9.9,0,0,1-.67-.36c-.79-.79-1.55-1.61-2.33-2.42-2-2-4-4-5.94-6.08C17.71,97,16.63,95.93,15.5,94.86Z"/><path class="cls-20" d="M105.71,87.39l0,.14c-.17-.47,0-1-.17-1.45-.06-.23.19-.27.33-.34a17.11,17.11,0,0,0,4.59-3.28,17.7,17.7,0,0,0,5.11-10.32,28.78,28.78,0,0,0,.14-3.35,7.41,7.41,0,0,1,.07,2.44,17.06,17.06,0,0,1-.7,3.94A17.92,17.92,0,0,1,113,79.69a17.24,17.24,0,0,1-2.82,3.42,15.55,15.55,0,0,1-3.51,2.52A1.54,1.54,0,0,0,105.71,87.39Z"/><path class="cls-21" d="M106.72,39.37c.17,0,.22.16.28.28a18.06,18.06,0,0,1,2.08,6.15,17.76,17.76,0,0,1-.44,7.22,4.59,4.59,0,0,0-.54,2.35c-.41-.16-.5-.37-.33-.83A17.21,17.21,0,0,0,107,40C106.9,39.78,106.82,39.58,106.72,39.37Z"/><path class="cls-22" d="M18.23,39.57c.22-1.19-.65-1.94-1.2-2.79-.93-1.44-1.93-2.83-2.89-4.24-.64-.94-1.28-1.87-1.91-2.81a1.35,1.35,0,0,1-.31-.88l4.1,6c.71,1,1.38,2.11,2.14,3.11A1.24,1.24,0,0,1,18.23,39.57Z"/><path class="cls-23" d="M12.24,72.89,6.92,71.7,5.1,71.31c-.29-.06-.59-.1-.75-.41l6,1.29c1.82.4,3.64.83,5.46,1.2.41.09.63.25.67.65-1.17-.59-2.5-.6-3.71-1C12.57,72.94,12.39,73,12.24,72.89Z"/><path class="cls-24" d="M12.24,72.89a19.55,19.55,0,0,1,3.7.81,2.39,2.39,0,0,1,.51.34q1.36,3.27,2.71,6.53c.13.31.23.63.38.92a.72.72,0,0,1-.15,1,6.7,6.7,0,0,0-.81-2.73c-.54-1.43-1.15-2.83-1.73-4.24-.15-.35-.26-.72-.44-1.06a1,1,0,0,0-.91-.61,1.63,1.63,0,0,0-.84-.2.31.31,0,0,0-.11-.09,1.37,1.37,0,0,1-.53-.12h-.31a.31.31,0,0,0-.11-.09,1.36,1.36,0,0,1-.52-.12h-.32s-.1,0-.1-.1S12.33,73.06,12.24,72.89Z"/><path class="cls-25" d="M99.28,32a.24.24,0,0,0,.11.21l.09.24a.73.73,0,0,1-.61-.93A13.89,13.89,0,0,0,97,22.57l-.3-.55A5.65,5.65,0,0,1,98,24.08a15.36,15.36,0,0,1,1.29,7.08A1.42,1.42,0,0,0,99.28,32Z"/><path class="cls-26" d="M83,11.4c.38.11.42.58.75.73.17.73.7,1.3.92,2a8.24,8.24,0,0,0,.35.81.64.64,0,0,0,.63.45v.1a.65.65,0,0,1-.87-.54A15,15,0,0,0,83,11.4Z"/><path class="cls-27" d="M59,5.93c.17.15.1.36.1.54,0,1.47,0,2.93,0,4.4,0,.37.1.57.5.52l-.6.89Z"/><path class="cls-4" d="M13.83,92.72c0,.34.23.52.42.75s.7.52.83,1c-.54-.51-1.2-.92-1.43-1.69,0-.11-.06-.21,0-.3Z"/><path class="cls-28" d="M59.64,107.26c-.2,0-.41-.17-.62,0v-.85l.09,0Z"/><path class="cls-26" d="M82.88,11l.09.44c-.28-.35-.57-.7-.85-1.06C82.45,10.46,82.58,10.82,82.88,11Z"/><path class="cls-21" d="M106,38.21a2.12,2.12,0,0,1,.74,1.16A4.4,4.4,0,0,1,106,38.21Z"/><path class="cls-25" d="M95.9,20.86a1.1,1.1,0,0,1,.64.86A3,3,0,0,1,95.9,20.86Z"/><path class="cls-25" d="M95.35,20.24a.8.8,0,0,1,.56.63A2.4,2.4,0,0,1,95.35,20.24Z"/><path class="cls-21" d="M105,37a.41.41,0,0,1,.34.42A.94.94,0,0,1,105,37Z"/><path class="cls-21" d="M105.68,37.79a.42.42,0,0,1,.32.43A.76.76,0,0,1,105.68,37.79Z"/><path class="cls-21" d="M105.37,37.37c.19.08.33.19.31.42A.73.73,0,0,1,105.37,37.37Z"/><path class="cls-18" d="M60.91,109.26a7.49,7.49,0,0,1,1.16,1.16h-.21a4.75,4.75,0,0,1-1-1A.15.15,0,0,1,60.91,109.26Z"/><path class="cls-10" d="M12.66,73.1l.1.1c-.17,0-.37.08-.52-.1Z"/><path class="cls-7" d="M14,73.42c.21,0,.45-.09.63.1a.59.59,0,0,1-.52,0Z"/><path class="cls-7" d="M13.08,73.21c.21,0,.44-.09.63.1a.62.62,0,0,1-.53,0Z"/><path class="cls-10" d="M14.13,73.52h.52a.41.41,0,0,1,0,.11C14.48,73.6,14.28,73.7,14.13,73.52Z"/><path class="cls-10" d="M13.18,73.31h.53v.11C13.53,73.39,13.33,73.49,13.18,73.31Z"/><path class="cls-4" d="M60.91,109.26v.21c-.22-.17-.47-.31-.52-.63h.1A1.06,1.06,0,0,0,60.91,109.26Z"/><path class="cls-12" d="M99.28,32a.79.79,0,0,1,0-.84Z"/></svg>