<svg id="Layer_1" data-name="Layer 1" xmlns="http://www.w3.org/2000/svg" viewBox="0 0 120 120"><defs><style>.cls-1{fill:#efeeed;}.cls-2{fill:#e8e7e6;}.cls-3{fill:#e3e2e1;}.cls-4{fill:#efeeee;}.cls-5{fill:#89ca88;}.cls-6{fill:#5d97d0;}.cls-7{fill:#80caa3;}.cls-8{fill:#7ecaa8;}.cls-9{fill:#81caa1;}.cls-10{fill:#7ecaa5;}.cls-11{fill:#7dcaaa;}.cls-12{fill:#7ccaad;}.cls-13{fill:#79cab2;}.cls-14{fill:#7bcaae;}.cls-15{fill:#7acab1;}.cls-16{fill:#82ca9d;}.cls-17{fill:#82ca9c;}.cls-18{fill:#87ca90;}.cls-19{fill:#77c9b6;}.cls-20{fill:#88ca8c;}.cls-21{fill:#70cacc;}.cls-22{fill:#6dcad0;}.cls-23{fill:#71cac6;}.cls-24{fill:#6dcad2;}.cls-25{fill:#6fcacd;}.cls-26{fill:#85ca96;}.cls-27{fill:#87ca91;}.cls-28{fill:#77cabb;}.cls-29{fill:#83ca9a;}.cls-30{fill:#74cac0;}.cls-31{fill:#76cabc;}.cls-32{fill:#85ca98;}.cls-33{fill:#73cac1;}.cls-34{fill:#5bba50;}.cls-35{fill:#77cab7;}.cls-36{fill:#72cac5;}.cls-37{fill:#6ecacf;}.cls-38{fill:#6ccad4;}.cls-39{fill:#70caca;}.cls-40{fill:#4a83c3;}.cls-41{fill:#70cac8;}.cls-42{fill:#6bc6d8;}.cls-43{fill:#85ca94;}.cls-44{fill:#f1f0f0;}.cls-45{fill:#6bc7d8;}.cls-46{fill:#6dc8d5;}.cls-47{fill:#4b83c4;}.cls-48{fill:#4b83c3;}.cls-49{fill:#ecebeb;}.cls-50{fill:#d3d1d0;}.cls-51{fill:#eeecec;}.cls-52{fill:#4c83c4;}.cls-53{fill:#f2f1f1;}.cls-54{fill:#d7d5d5;}.cls-55{fill:#4a82c3;}.cls-56{fill:#edecec;}.cls-57{fill:#63be72;}.cls-58{fill:#4f85c5;}.cls-59{fill:#f4f4f3;}.cls-60{fill:#d2d0d0;}.cls-61{fill:#64bf72;}.cls-62{fill:#eeedec;}.cls-63{fill:#d1cfcf;}.cls-64{fill:#ecebea;}.cls-65{fill:#d5d3d3;}.cls-66{fill:#e2e0e0;}.cls-67{fill:#f4f4f4;}.cls-68{fill:#65bf73;}.cls-69{fill:#dcdada;}.cls-70{fill:#d8d6d6;}.cls-71{fill:#d9d7d7;}.cls-72{fill:#e6e4e4;}.cls-73{fill:#cecccc;}.cls-74{fill:#f4f3f3;}.cls-75{fill:#dedddc;}.cls-76{fill:#5185c5;}.cls-77{fill:#4f84c4;}.cls-78{fill:#4e84c4;}.cls-79{fill:#e6e5e4;}.cls-80{fill:#f3f3f2;}.cls-81{fill:#c8c6c6;}.cls-82{fill:#dbd9d8;}.cls-83{fill:#b4dcb5;}.cls-84{fill:#cccaca;}.cls-85{fill:#c9c7c7;}.cls-86{fill:#cae8e2;}.cls-87{fill:#e7e6e6;}.cls-88{fill:#d9d8d7;}.cls-89{fill:#eeeded;}.cls-90{fill:#dad8d8;}.cls-91{fill:#fefefe;}.cls-92{fill:#fff;}.cls-93{fill:#6dc06f;}.cls-94{fill:#fefeff;}.cls-95{fill:#fafafc;}.cls-96{fill:#fafbfc;}.cls-97{fill:#fdfdfe;}.cls-98{fill:#fdfefe;}.cls-99{fill:#fcfcfd;}.cls-100{fill:#fdfefc;}</style></defs><path class="cls-1" d="M14.58,81.56a5.25,5.25,0,0,1-.92-1.45,52.4,52.4,0,0,1-4.15-9.5,54.29,54.29,0,0,1-1.9-7.74,18.26,18.26,0,0,1-.33-2.45.68.68,0,0,0-.09-.22V58.7c.23,0,.17.23.18.34a50.8,50.8,0,0,0,1,6.61,51.85,51.85,0,0,0,1.64,5.76c.12.36.24.72.39,1.06.42,1.13.87,2.26,1.38,3.35.07.15.14.3.22.45a2,2,0,0,0,.31.71c.61,1.31,1.3,2.57,2,3.82C14.52,81,14.77,81.25,14.58,81.56Z"/><path class="cls-2" d="M8.38,41.24c0-.14,0-.3.1-.4.17-.56.3-1.12.46-1.68,0-.08,0-.17.15-.09s0,.11,0,.17c-.37,1.55-.77,3.11-1,4.68-.22,1.33-.43,2.67-.56,4a25.66,25.66,0,0,0-.2,3.16.68.68,0,0,1-.09.22v-2.9c.09-.91.2-1.82.34-2.72,0-.33.12-.65.16-1h0c.13-.18,0-.42.1-.6h0c.15-.66.24-1.34.39-2h0C8.28,41.84,8.3,41.53,8.38,41.24Z"/><path class="cls-3" d="M8.38,65.69a14.74,14.74,0,0,1-.59-2.79,33.88,33.88,0,0,1-.51-4,1,1,0,0,0-.09-.17V56.21c.16.15.09.34.09.52A40.53,40.53,0,0,0,8,62.63c.16.92.35,1.84.53,2.77C8.39,65.47,8.48,65.62,8.38,65.69Z"/><path class="cls-4" d="M7.69,44.73c-.12.93-.21,1.86-.37,2.78-.05.31.09.64-.13.91v-1a14.52,14.52,0,0,0,.29-1.85A2.42,2.42,0,0,1,7.69,44.73Z"/><path class="cls-5" d="M31,34.55A5.84,5.84,0,0,0,29.72,33a7.39,7.39,0,0,1-1.86-5.51,1.81,1.81,0,0,1,.29-.89,18.86,18.86,0,0,1,5.41-5.45,3.82,3.82,0,0,1,2.82-.24,7.31,7.31,0,0,1,4,2.09,2.93,2.93,0,0,0,2,.88,12.82,12.82,0,0,0,5.45-1.21,14.31,14.31,0,0,0,4.27-2.53,3.5,3.5,0,0,0,1.38-2.79A6.81,6.81,0,0,1,55,13a2.92,2.92,0,0,1,1.72-1.17,19.54,19.54,0,0,1,8.06,0,3.81,3.81,0,0,1,2.56,2.32,6.17,6.17,0,0,1,.79,3.25,3.1,3.1,0,0,0,1.15,2.6,16,16,0,0,0,9.78,4,2.87,2.87,0,0,0,2.3-1,7.47,7.47,0,0,1,5.19-2.34,4,4,0,0,1,2.93,1,32.43,32.43,0,0,1,3.62,3.7A4.33,4.33,0,0,1,94,28.91a7.27,7.27,0,0,1-2.19,4.27A2.93,2.93,0,0,0,91,34.55c-.13.25-.38.25-.61.25H83.08a.93.93,0,0,1-.56-.15,33.7,33.7,0,0,0-5.18-4.59,28.7,28.7,0,0,0-32.14-.28,28.63,28.63,0,0,0-5.49,4.76.65.65,0,0,1-.34.07q-4,0-8.07,0A.57.57,0,0,1,31,34.55Z"/><path class="cls-6" d="M61.09,81c-3.39,0-6.79,0-10.18,0-.48,0-.68-.1-.84-.6a31.49,31.49,0,0,0-3.54-7.23,61,61,0,0,0-3.94-5.26A22,22,0,0,1,38,57.1a23,23,0,0,1,5.3-18.52A22.09,22.09,0,0,1,57,30.76a22.83,22.83,0,0,1,18.1,4.33,22.33,22.33,0,0,1,8.73,13.52,22.55,22.55,0,0,1-4.5,19.59,51.41,51.41,0,0,0-5.77,8.64A18.21,18.21,0,0,0,72,80.72c-.09.34-.31.24-.5.24H61.09Z"/><path class="cls-6" d="M61.09,82c3,0,5.92,0,8.88,0a1.69,1.69,0,0,1,1,.24,1.55,1.55,0,0,1,.66,1.6A1.57,1.57,0,0,1,70.27,85h-18A1.61,1.61,0,0,1,50.63,84,1.5,1.5,0,0,1,52.05,82h9Z"/><path class="cls-7" d="M89.62,51.82c-.15-1-.18-2-.38-3,0-.25-.07-.52-.1-.78a.86.86,0,0,1,.66-.16h11.57a2.3,2.3,0,0,1,.78.15,1.85,1.85,0,0,1,.74,1.35,9.28,9.28,0,0,1,.32,2.46.91.91,0,0,1-.66.16H90.29A1,1,0,0,1,89.62,51.82Z"/><path class="cls-6" d="M61.09,86H68a1.5,1.5,0,0,1,1.49,1.1,1.44,1.44,0,0,1-.6,1.61,1.71,1.71,0,0,1-1,.28H54.25a1.5,1.5,0,1,1,0-3Z"/><path class="cls-8" d="M89.62,51.82h13.59a12.83,12.83,0,0,1,0,3.39.87.87,0,0,1-.66.16H90.29a.91.91,0,0,1-.66-.16Z"/><path class="cls-9" d="M19.16,50.31a2.86,2.86,0,0,1,1.06-2.14A6.21,6.21,0,0,1,22.16,47a5.67,5.67,0,0,0,1.09,0h9.1c.27,0,.57-.06.8.16l-.53,3.28a.91.91,0,0,1-.49.07c-4.07,0-8.14,0-12.21,0C19.65,50.57,19.3,50.71,19.16,50.31Z"/><path class="cls-10" d="M19.16,50.31c.15.18.37.11.56.11H32a1.05,1.05,0,0,1,.63.09l-.18,2.7a1,1,0,0,1-.66.17H19.53a.87.87,0,0,1-.66-.16A9.77,9.77,0,0,1,19.16,50.31Z"/><path class="cls-6" d="M61.08,90h4.84a1.53,1.53,0,0,1,1.65,1.49,1.51,1.51,0,0,1-1.64,1.5c-3.23,0-6.45,0-9.68,0a1.52,1.52,0,0,1-1.65-1.49A1.54,1.54,0,0,1,56.29,90Z"/><path class="cls-11" d="M18.87,53.21H32.44l.1,2.7a.92.92,0,0,1-.66.16H19.62a.91.91,0,0,1-.66-.16A12.82,12.82,0,0,1,18.87,53.21Z"/><path class="cls-12" d="M89.63,55.21H103.2a8.89,8.89,0,0,1-.5,2.7,1.15,1.15,0,0,1-.72.16H90.06a.94.94,0,0,1-.71-.16Z"/><path class="cls-13" d="M32.86,58.5l.68,3c0,.38-.34.35-.59.36-.66,0-1.33,0-2,0H27.49A1.63,1.63,0,0,1,27,61.8a4,4,0,0,0-2.48-.71A6.66,6.66,0,0,1,19.78,59a.75.75,0,0,1-.24-.37c.17-.32.47-.27.75-.27H32A1.25,1.25,0,0,1,32.86,58.5Z"/><path class="cls-14" d="M32.86,58.5H20.21a1.29,1.29,0,0,0-.67.12A6.83,6.83,0,0,1,19,55.91H32.54C32.64,56.77,32.75,57.64,32.86,58.5Z"/><path class="cls-15" d="M89.35,57.91H102.7a3.34,3.34,0,0,1-1.59,1.64,7,7,0,0,1-4,1.14l-.8,0a5.69,5.69,0,0,1-1.09,0c-1.9,0-3.79,0-5.69,0-.26,0-.54.05-.76-.16Z"/><path class="cls-16" d="M102.15,48h-13l-.59-2.39a1,1,0,0,1,.78-.25c1.88,0,3.77,0,5.65,0,.18,0,.36.08.54.08a5.42,5.42,0,0,0,2.65.65A6.43,6.43,0,0,1,102.15,48Z"/><path class="cls-17" d="M33.15,47.23H22.79c-.22,0-.48.09-.63-.18A3.57,3.57,0,0,1,24,46.55a4.41,4.41,0,0,0,4.24-2.22,3.59,3.59,0,0,1,1-.06h3.82a1,1,0,0,1,.87.25Z"/><path class="cls-18" d="M90.94,36.22a22.42,22.42,0,0,0,.9,3.61c0,.28-.28.25-.46.26-1.57,0-3.13,0-4.69,0a.79.79,0,0,1-.47-.14c-.64-1.09-1.31-2.15-2-3.19.14-.24.37-.17.58-.17,1.7,0,3.41,0,5.12,0A1.23,1.23,0,0,0,90.94,36.22Z"/><path class="cls-19" d="M88.81,60.6h6.06a5.26,5.26,0,0,1,1.48.11,6.43,6.43,0,0,0-2.86,2.67l-.28.42a1,1,0,0,1-.61.15h-4a.79.79,0,0,1-.72-.25Z"/><path class="cls-20" d="M31,34.55a2.27,2.27,0,0,1,.73-.11q3.64,0,7.28,0a2.29,2.29,0,0,1,.74.11l-1.87,2.3a1.29,1.29,0,0,1-.88.26h-5.1a1,1,0,0,1-.71-.16v-.2a5.06,5.06,0,0,0,0-1.29Z"/><path class="cls-21" d="M30.24,74.57a3.72,3.72,0,0,0,1.19-2.71.34.34,0,0,1,.13.21c0,.4.3.46.63.46H36c1.05,0,2.09,0,3.13,0a2.36,2.36,0,0,1,.54,0c.71.65.71.65,0,1.33l-.92.89a1.63,1.63,0,0,1-.72.15c-2.33,0-4.65,0-7,0C30.75,74.93,30.36,75,30.24,74.57Z"/><path class="cls-22" d="M85.25,77.27a23.47,23.47,0,0,1-2-2c.22-.3.56-.25.86-.25h8.31a.46.46,0,0,0,.2,0,4.61,4.61,0,0,1,1,2c.1.23-.07.29-.23.33a1.67,1.67,0,0,1-.5,0c-2.42,0-4.84,0-7.27,0A.64.64,0,0,1,85.25,77.27Z"/><path class="cls-23" d="M83.05,71.88l2.09-2.81c1.76.13,3.52,0,5.29.06a1.28,1.28,0,0,1,.58.06A11.91,11.91,0,0,0,90.73,72a.87.87,0,0,1-.66.16c-2.12,0-4.24,0-6.35,0C83.47,72.14,83.17,72.22,83.05,71.88Z"/><path class="cls-24" d="M37.26,76.28l-2,2a2.32,2.32,0,0,1-1.63.46c-1.4,0-2.8,0-4.19,0a2,2,0,0,1-.69-.07c-.19-.07-.41-.12-.31-.41a4.84,4.84,0,0,1,.69-2.08A1,1,0,0,1,29.8,76h6.65C36.74,76,37.05,76,37.26,76.28Z"/><path class="cls-25" d="M92.63,75c-.08.3-.33.18-.5.18q-4,0-8.09,0a2.88,2.88,0,0,0-.78.1L81.7,73.76c-.27-.25,0-.36.13-.49a3.31,3.31,0,0,1,.89,0h7.83a1.67,1.67,0,0,1,.59.06A14.26,14.26,0,0,1,92.63,75Z"/><path class="cls-26" d="M86.22,40l5.06,0c.19,0,.4.08.56-.1.39.85.74,1.72,1.18,2.55a6.05,6.05,0,0,0,.32.55c-.13.26-.37.25-.6.26-1.53,0-3,0-4.58,0a.69.69,0,0,1-.51-.16Z"/><path class="cls-27" d="M31.15,36.94H37a3.26,3.26,0,0,0,.88-.1c-.58.9-1.17,1.79-1.76,2.69a.67.67,0,0,0-.16.3.57.57,0,0,1-.34.07c-1.46,0-2.92,0-4.38,0-.24,0-.54.09-.66-.26Z"/><path class="cls-28" d="M34.35,63.89l1.3,2.9A.83.83,0,0,1,35,67H30.88a1,1,0,0,1-.66-.15c-.46-1-1-2-1.5-2.9a.73.73,0,0,1,.6-.16h4.37A1.27,1.27,0,0,1,34.35,63.89Z"/><path class="cls-20" d="M90.94,36.22c0,.53-.35.52-.7.52H86.57l-2.36,0-1.69-2.1h7.87a1.07,1.07,0,0,0,.63-.1A8.46,8.46,0,0,0,90.94,36.22Z"/><path class="cls-29" d="M87.65,43h5.06a1.14,1.14,0,0,0,.63-.1A24,24,0,0,0,95,45a3.78,3.78,0,0,0,.54.43c-.16.14-.35.07-.53.08H90.37a8.52,8.52,0,0,0-1.82.1Z"/><path class="cls-30" d="M91,69.19a.72.72,0,0,1-.43.1h-5c-.17,0-.39,0-.42-.22l1.48-2.61c1.52-.06,3,0,4.55,0a.86.86,0,0,1,.64.24A24.23,24.23,0,0,0,91,69.19Z"/><path class="cls-31" d="M91.81,66.69c-1.55-.2-3.09,0-4.64-.1-.19,0-.4.07-.55-.13.41-.92.81-1.84,1.21-2.76a2.9,2.9,0,0,0,.83.1h4.55A24,24,0,0,0,91.81,66.69Z"/><path class="cls-32" d="M33.92,44.53a47.07,47.07,0,0,0-4.75-.1c-.31,0-.63.1-.92-.1a25.61,25.61,0,0,0,1.48-2.6,1,1,0,0,1,.67-.15h3.81c.27,0,.58,0,.75.26-.31.78-.6,1.56-.92,2.32A3.16,3.16,0,0,0,33.92,44.53Z"/><path class="cls-33" d="M30.22,66.8h5.43c.47.79.93,1.59,1.4,2.39-.13.26-.37.26-.6.26q-2.45,0-4.89,0a.72.72,0,0,1-.51-.15Z"/><path class="cls-34" d="M61.12,95.15c.37-.07.51.1.45.44s.09.48.4.53a2,2,0,0,1,.47.17c.55.28.6.64.16,1.08-.15.16-.26.06-.38,0A1.81,1.81,0,0,0,61,97a.72.72,0,0,0-.68.49.6.6,0,0,0,.41.71c.45.22.92.4,1.37.6a1.46,1.46,0,0,1,1,1.51,1.62,1.62,0,0,1-1.14,1.49c-.29.1-.4.24-.36.53s-.11.49-.48.49-.46-.19-.41-.5-.09-.43-.38-.5a2.92,2.92,0,0,1-.73-.31c-.57-.34-.57-.44-.15-1,.16-.2.27-.23.48-.06a1.84,1.84,0,0,0,1.39.44.67.67,0,0,0,.67-.55c.07-.33-.14-.53-.42-.66s-.88-.38-1.31-.59a1.56,1.56,0,0,1,.13-3c.34-.11.34-.31.31-.56S60.76,95.07,61.12,95.15Z"/><path class="cls-35" d="M34.35,63.89H28.72A14.16,14.16,0,0,0,27,61.8a1.12,1.12,0,0,1,.63-.1H33c.21,0,.45,0,.56-.21Z"/><path class="cls-36" d="M31.05,69.29h5.37a1.13,1.13,0,0,0,.63-.11L38.33,71c0,.36-.31.34-.54.35-.67,0-1.33,0-2,0H32c-.27,0-.58,0-.67-.35Z"/><path class="cls-37" d="M37.26,76.28a2.91,2.91,0,0,0-.88-.11c-2.42,0-4.83,0-7.25,0a4.44,4.44,0,0,1,1.11-1.6c.19.25.47.21.73.21h7.78C38.25,75.28,37.75,75.78,37.26,76.28Z"/><path class="cls-38" d="M85.25,77.27a2.61,2.61,0,0,1,.78-.1q3.54,0,7.08,0c.19,0,.46.12.52-.21a2.51,2.51,0,0,1,.3,1.2c.08.55,0,.66-.48.66-2.1,0-4.19,0-6.29,0a.93.93,0,0,1-.51-.16A12.34,12.34,0,0,1,85.25,77.27Z"/><path class="cls-39" d="M91.14,73.28a1.05,1.05,0,0,1-.58.1H82.4a1,1,0,0,1-.57-.11l1.22-1.39c.16.17.37.1.56.1h7.12A6.55,6.55,0,0,0,91.14,73.28Z"/><path class="cls-40" d="M54.5,114c0-.91,0-1.83,0-2.74,0-.32.1-.39.4-.39,2,0,2.42.37,2.63,2.38a7.58,7.58,0,0,1-.13,2.38,1.59,1.59,0,0,1-1.76,1.47c-1.13,0-1.13,0-1.13-1.1Z"/><path class="cls-41" d="M31.36,71a.55.55,0,0,0,.52.2h5.94c.2,0,.41,0,.51-.2l1.31,1.59a1.11,1.11,0,0,1-.62.11H32.26c-.8,0-.8,0-.83-.82A2.55,2.55,0,0,1,31.36,71Z"/><path class="cls-40" d="M48.25,115.44c.18-.07.24-.22.32-.34s.17-.32.41-.15.34.3.13.51a.91.91,0,0,0,0,1.38c.16.19.1.31-.15.29s-.58.12-.77-.2-.25-.05-.38,0a1.44,1.44,0,0,1-1.94-.18,1.51,1.51,0,0,1,.05-2,1.1,1.1,0,0,0,.18-1.41,1.29,1.29,0,0,1,1.17-2,1.12,1.12,0,0,1,1.08,1.41,2.3,2.3,0,0,1-.66,1.16.38.38,0,0,0,0,.56C47.85,114.77,48.05,115.11,48.25,115.44Z"/><path class="cls-42" d="M93.94,80a9.36,9.36,0,0,1-1.81,2.83c-.63.76-.65.75-1.36,0-.94-1-1.88-1.92-2.83-2.87a.83.83,0,0,1,.66-.16q2.34,0,4.68,0A.83.83,0,0,1,93.94,80Z"/><path class="cls-43" d="M35,41.84a1.24,1.24,0,0,0-.63-.11h-4.6l.81-2.1c.14.17.34.1.51.11h4.14a2.27,2.27,0,0,1,.73.11A18.36,18.36,0,0,1,35,41.84Z"/><path class="cls-44" d="M90.23,8.09a16,16,0,0,1,2.4,1.58,53.86,53.86,0,0,1,7.55,6.52,61,61,0,0,1,4.41,5.23,45.36,45.36,0,0,1,3.54,5.38A44.47,44.47,0,0,1,110.3,31c.54,1.27,1.12,2.54,1.6,3.83a48.59,48.59,0,0,1,2.39,8.38c.26,1.39.49,2.79.68,4.2a10.26,10.26,0,0,1,0,1.24c-.23,0-.15-.19-.16-.29-.12-1.46-.38-2.9-.59-4.34-.26-1.05-.38-2.13-.7-3.16a7.23,7.23,0,0,0-.45-1.59c-.43-1.3-.83-2.61-1.29-3.9q-.8-2.25-1.81-4.42a53.8,53.8,0,0,0-4.48-7.84A54.52,54.52,0,0,0,101,17.41c-1.06-1.15-2.15-2.28-3.29-3.34a49,49,0,0,0-5.18-4.23c-.8-.55-1.56-1.17-2.42-1.65C90.11,8.1,90.13,8.05,90.23,8.09Z"/><path class="cls-40" d="M78.46,116.72c0,.52-.29.4-.54.42s-.28-.21-.28-.41c0-1.88,0-3.75,0-5.63,0-.31.1-.39.4-.4s.43.1.42.43c0,.66,0,1.32,0,2.08.32-.41.66-.62,1.11-.44a1.22,1.22,0,0,1,.69,1.07,8.34,8.34,0,0,1,0,2.34,1.39,1.39,0,0,1-.34.81C79.5,117.39,79,117.32,78.46,116.72Z"/><path class="cls-45" d="M33.56,80l-3.08,3.11c-.12.12-.23.26-.4.06a8.86,8.86,0,0,1-1.6-2.2,2.18,2.18,0,0,1-.13-1,.82.82,0,0,1,.61-.16c1.33,0,2.67,0,4,0A.73.73,0,0,1,33.56,80Z"/><path class="cls-46" d="M93.94,80h-6a11.31,11.31,0,0,1-1.29-1.3c2.25,0,4.5,0,6.75,0,.4,0,.6-.09.53-.52A3.58,3.58,0,0,1,93.94,80Z"/><path class="cls-46" d="M33.56,80H28.35a5.23,5.23,0,0,1,.09-1.72c.08.33.37.31.6.31,1.76,0,3.52,0,5.28,0,.36,0,.6-.3.94-.3C34.69,78.84,34.13,79.41,33.56,80Z"/><path class="cls-40" d="M27.22,116.71c-.29.42-.62.64-1.06.48a1.16,1.16,0,0,1-.7-1,6.8,6.8,0,0,1,.07-2.62,1,1,0,0,1,.7-.83.87.87,0,0,1,1,.46c0-.5.36-.38.63-.38s.21.29.21.45c0,1.15,0,2.29,0,3.44,0,.18.1.44-.23.43S27.22,117.25,27.22,116.71Z"/><path class="cls-47" d="M98.7,114.94v-1.7c0-.14-.07-.35.1-.4a.7.7,0,0,1,.66,0c.1.09.08.18.26.07.83-.53,1.54-.17,1.56.81s0,2,0,3c0,.32-.11.4-.41.39s-.45,0-.45-.4c0-.88,0-1.76,0-2.64,0-.34,0-.74-.45-.73s-.49.35-.49.71c0,.88,0,1.77,0,2.65,0,.34-.11.41-.43.42s-.39-.13-.38-.42C98.71,116.14,98.7,115.54,98.7,114.94Z"/><path class="cls-48" d="M96.51,115a3.77,3.77,0,0,1-.16,1.35,1.22,1.22,0,0,1-1.18.9,1.16,1.16,0,0,1-1.21-.86,4.74,4.74,0,0,1,0-2.84,1.2,1.2,0,0,1,1.18-.83,1.22,1.22,0,0,1,1.18.83c0,.13.07.26.1.39A3.84,3.84,0,0,1,96.51,115Z"/><path class="cls-48" d="M33.34,115.09a3.59,3.59,0,0,1,.31-1.73,1.11,1.11,0,0,1,1.14-.64,1.15,1.15,0,0,1,1,.8A6.92,6.92,0,0,1,36,114.8c0,.26-.09.35-.35.34s-.73,0-1.09,0-.39.11-.35.38,0,.43.07.64a.42.42,0,0,0,.48.34.38.38,0,0,0,.37-.4c0-.23,0-.39.36-.41s.48.15.4.5c-.16.66-.5,1-1.09,1a1.13,1.13,0,0,1-1.29-.86A3.18,3.18,0,0,1,33.34,115.09Z"/><path class="cls-40" d="M82.45,114.6c0-.5,0-1,0-1.5s.24-.28.44-.29.38,0,.37.3c0,.86,0,1.73,0,2.59a1.09,1.09,0,0,0,.07.54.46.46,0,0,0,.45.26.38.38,0,0,0,.39-.32,3.19,3.19,0,0,0,.06-.54c0-.81,0-1.63,0-2.44,0-.3.09-.4.39-.4s.44.09.43.42c0,.91,0,1.83,0,2.74a1.14,1.14,0,0,1-1.3,1.28c-.88,0-1.27-.4-1.28-1.3C82.44,115.5,82.45,115.05,82.45,114.6Z"/><path class="cls-48" d="M21,116.25l.32.14a.82.82,0,0,0,1.05-.15.86.86,0,0,0,.07-1.11,15.47,15.47,0,0,0-1-1.29,2.29,2.29,0,0,1-.57-1.75A1.49,1.49,0,0,1,23,111c.31.19.11.48.14.75l-.45-.11a.77.77,0,0,0-.89.29.75.75,0,0,0,0,.93,12.82,12.82,0,0,0,.83,1.11,2.63,2.63,0,0,1,.76,1.94,1.44,1.44,0,0,1-1.62,1.37C21.07,117.16,20.92,117,21,116.25Z"/><path class="cls-49" d="M89.34,100l-1.7,1c-.22.16-.49.23-.7.4l-.4.2c-.28.2-.62.29-.9.5l-.6.3c-.38.14-.72.35-1.09.5l-.4.2c-.16.08-.35.11-.5.2l-.4.2c-.16.08-.34.11-.5.2h0c-.24.09-.47.19-.7.3s-.34.11-.5.2-.34.1-.5.19l-.3.11c-.16.08-.34.1-.5.19l-1.49.5a7.31,7.31,0,0,1-.9.3,10,10,0,0,1-1.7.5c-.23.08-.47.11-.7.2a27.82,27.82,0,0,1-4.34,1c-1.45.28-2.93.42-4.4.61-.54.06-1.09.07-1.63.11-1.49.1-3,.13-4.48.09-1.93,0-3.85-.19-5.77-.4a1.89,1.89,0,0,1-.34-.09c-.15-.1-.32,0-.48-.06s-.19-.07-.08-.19a3.17,3.17,0,0,1,1.47.07,56.93,56.93,0,0,0,7.61.33A52.06,52.06,0,0,0,73,106.36a48.62,48.62,0,0,0,9.53-3.15l.59-.25a33.35,33.35,0,0,0,3.35-1.62c.84-.44,1.67-.89,2.47-1.39.15-.1.3-.22.5-.15S89.41,100,89.34,100Z"/><path class="cls-50" d="M30.05,97.73c1.27.85,2.55,1.68,3.86,2.45a53.91,53.91,0,0,0,6.59,3.28,52.31,52.31,0,0,0,8.28,2.69,53.15,53.15,0,0,0,5.45,1,29.52,29.52,0,0,0,4.09.31.3.3,0,0,1,.28.09c-.13.14-.32.09-.48.15-1.11,0-2.22-.18-3.33-.28-1.35-.13-2.68-.3-4-.53-.38-.07-.75-.16-1.12-.21l-.16,0c-.88-.25-1.78-.45-2.67-.67l-.15,0c-.42-.15-.85-.26-1.29-.38l-.13,0a3.56,3.56,0,0,0-.89-.24,12.67,12.67,0,0,1-1.77-.59.73.73,0,0,0-.49-.21.63.63,0,0,1-.32-.1.94.94,0,0,0-.39-.22l-.12-.05a2,2,0,0,0-.4-.16l-.12,0a1.23,1.23,0,0,0-.47-.14.41.41,0,0,1-.23-.11,1.62,1.62,0,0,0-.57-.29l-.13,0a1.74,1.74,0,0,0-.67-.24,1,1,0,0,1-.44-.21,3.18,3.18,0,0,0-1.25-.58,30.67,30.67,0,0,1-3.57-1.92,8.08,8.08,0,0,0-.9-.52c-.77-.51-1.56-1-2.3-1.55-.13-.09-.28-.17-.34-.34S29.89,97.7,30.05,97.73Z"/><path class="cls-51" d="M108.2,80.06V80a3.6,3.6,0,0,0,.61-1.1.22.22,0,0,0,.09-.2,13.27,13.27,0,0,0,.8-1.6l.19-.2c.29-.73.6-1.46.91-2.2h0c.09-.18.16-.37.26-.54a.55.55,0,0,1,.15-.36.63.63,0,0,0,.2-.5c.11-.38.26-.74.4-1.1a.19.19,0,0,0,.09-.19c.24-.85.57-1.66.8-2.51h0c.22-.7.41-1.4.61-2.1h.09c.1-.87.38-1.7.54-2.56a49.62,49.62,0,0,0,.87-5.68c0-.16-.06-.38.19-.45a22.13,22.13,0,0,1-.52,4.67,52.89,52.89,0,0,1-2,7.74,51.74,51.74,0,0,1-3.25,7.63,55.78,55.78,0,0,1-3,5.06c-.12.18-.18.45-.47.46-.16-.21,0-.35.12-.48C106.72,82.56,107.5,81.33,108.2,80.06Z"/><path class="cls-52" d="M87.47,115.3c0-.43,0-.86,0-1.3,0-.26.1-.57-.37-.59-.17,0-.18-.55,0-.56.58,0,.37-.46.36-.73,0-.44.15-.54.55-.52s.35.11.33.36,0,.4,0,.6,0,.27.22.25.29.09.28.3,0,.34-.25.33-.25.2-.25.38c0,1,0,1.93,0,2.89,0,.32-.08.44-.41.44s-.48-.1-.46-.45S87.47,115.77,87.47,115.3Z"/><path class="cls-53" d="M15.77,24.06a15,15,0,0,1,1.49-2.21,50.09,50.09,0,0,1,6.48-7.39,51,51,0,0,1,6.14-5,44.18,44.18,0,0,1,4.85-3,2,2,0,0,0,.21-.2,1.26,1.26,0,0,1,.59-.26c.08,0,.13.06.1.16a50.8,50.8,0,0,0-8,5.28,55,55,0,0,0-6,5.52,45.13,45.13,0,0,0-3.85,4.66c-.61.83-1.17,1.69-1.79,2.51C15.9,24.07,15.84,24.12,15.77,24.06Z"/><path class="cls-54" d="M30.05,97.73a.21.21,0,0,0-.1.21c-.48,0-.75-.45-1.13-.66a55.18,55.18,0,0,1-6.22-5.41,56,56,0,0,1-4-4.48A56.85,56.85,0,0,1,15,82.1a.88.88,0,0,0-.19-.24l-.09-.2c.07-.09,0-.31.19-.29a55.56,55.56,0,0,0,4.84,6.8,54.28,54.28,0,0,0,4.73,5,45.92,45.92,0,0,0,5.19,4.24C29.78,97.49,30,97.56,30.05,97.73Z"/><path class="cls-47" d="M63.77,117.23c-.6,0-.81-.2-.76-.64,0-.21.1-.26.28-.19a2.16,2.16,0,0,0,.44.1.45.45,0,0,0,.47-.21.44.44,0,0,0-.06-.55c-.24-.27-.52-.51-.77-.77a1.37,1.37,0,0,1-.38-1.55,1.21,1.21,0,0,1,1.68-.57c.28.15.21.41.16.62s-.23.06-.35,0c-.29-.07-.59-.1-.75.2s0,.53.23.74.59.54.84.85a1.16,1.16,0,0,1,.1,1.36A1.12,1.12,0,0,1,63.77,117.23Z"/><path class="cls-48" d="M40.23,113.6l-.22,0c-.33-.11-.68-.21-.88.16s.1.61.35.84a4.62,4.62,0,0,1,.75.78,1.27,1.27,0,0,1-.08,1.53,1.39,1.39,0,0,1-1.53.26c-.36-.18-.13-.49-.19-.77l.66.15a.45.45,0,0,0,.48-.18.51.51,0,0,0,0-.57,3.23,3.23,0,0,0-.67-.66,1.48,1.48,0,0,1-.57-1.21,1.18,1.18,0,0,1,1.7-1.06C40.4,113,40.16,113.3,40.23,113.6Z"/><path class="cls-47" d="M31.13,114c0,.93,0,1.86,0,2.79,0,.31-.11.4-.4.39s-.42,0-.42-.38q0-2.83,0-5.67c0-.31.11-.39.4-.38s.43,0,.42.37C31.12,112,31.13,113,31.13,114Z"/><path class="cls-55" d="M67.36,115.29v-1.35c0-.24.06-.51-.34-.51-.2,0-.16-.18-.16-.31s0-.29.11-.29c.56,0,.35-.38.39-.65s-.09-.41.08-.52a.74.74,0,0,1,.62,0c.19,0,.08.25.12.39.08.3-.27.81.42.82.12,0,.06.23.07.36s0,.24-.18.23c-.34,0-.32.19-.32.42,0,1,0,1.92,0,2.89,0,.3-.09.4-.39.4s-.46-.08-.44-.42S67.36,115.77,67.36,115.29Z"/><path class="cls-4" d="M32.54,99.73a20.71,20.71,0,0,1,2.15,1.21A21.44,21.44,0,0,0,37,102.13c.44.18.86.43,1.3.61a.55.55,0,0,0,.4.19l.7.3h0l.69.3a.21.21,0,0,0,.2.1c.16.09.34.11.5.2h0c.16.09.34.11.5.2h0c.16.09.35.11.5.2s.19.1.3.1.34.11.5.2a8.19,8.19,0,0,0,1.79.6,8.81,8.81,0,0,0,.91.3h0c.46.16.93.27,1.39.4h0c.93.25,1.86.51,2.8.7h0c1.19.27,2.4.46,3.6.65.09,0,.21,0,.19.15.15.21.45,0,.6.2a21.44,21.44,0,0,1-3-.45,44.48,44.48,0,0,1-6.24-1.56,50.57,50.57,0,0,1-5.07-1.89,53.08,53.08,0,0,1-6.49-3.35c-.16-.1-.32-.22-.48-.34S32.48,99.84,32.54,99.73Z"/><path class="cls-56" d="M14.77,81.86c.31.09.4.39.54.62a48.65,48.65,0,0,0,4.27,5.9,46.36,46.36,0,0,0,4.16,4.48A57.41,57.41,0,0,0,28.66,97a1.06,1.06,0,0,1,.19.23.13.13,0,0,1-.2,0,39.55,39.55,0,0,1-3.43-2.77c-.82-.75-1.67-1.46-2.44-2.26a57.62,57.62,0,0,1-6.22-7.46A21.41,21.41,0,0,1,14.77,81.86Z"/><path class="cls-57" d="M23.66,106.09c0-.33,0-.66,0-1,0-.1,0-.32.13-.25.42.25.91-.26,1.29.14.15.16.22,0,.32,0,.51-.27.9-.05.92.52s0,1.1,0,1.65c0,.17,0,.32-.25.32s-.26-.13-.26-.31q0-.67,0-1.35c0-.23,0-.52-.3-.51s-.28.27-.28.49c0,.4,0,.8,0,1.2,0,.17.15.47-.23.48s-.23-.32-.25-.51c0-.41,0-.83,0-1.24,0-.21-.06-.43-.31-.43s-.29.23-.28.45c0,.48,0,1,0,1.44,0,.21-.05.3-.28.3s-.23-.13-.22-.3Z"/><path class="cls-4" d="M15.77,24.06c.07,0,.13-.11.2,0-1,1.59-2,3.21-2.83,4.9-.66,1.31-1.29,2.64-1.86,4-.86,2-1.49,4.16-2.2,6.26v-.05S9,39.1,9,39.17c-.11.39-.2.78-.31,1.18a.92.92,0,0,1-.2.49,14.83,14.83,0,0,1,.68-2.64,50.75,50.75,0,0,1,3.66-9.13A48.35,48.35,0,0,1,15.77,24.06Z"/><path class="cls-47" d="M71.45,113.28a6.49,6.49,0,0,1,.49-.43c.13-.1.31-.2.46-.11s0,.31.07.47-.13.23-.28.27c-.65.18-.73.29-.73,1s0,1.53,0,2.29c0,.31-.11.4-.4.39s-.42,0-.41-.38c0-1.16,0-2.32,0-3.48,0-.22-.09-.49.31-.48S71.55,112.77,71.45,113.28Z"/><path class="cls-58" d="M59.72,115c0-.6,0-1.2,0-1.79,0-.35.17-.37.43-.37s.44,0,.43.37q0,1.81,0,3.63c0,.36-.21.33-.46.34s-.41,0-.4-.34C59.73,116.18,59.72,115.57,59.72,115Z"/><path class="cls-59" d="M35.63,6.1l-.1-.1c0-.29.37-.23.5-.4h0a12.19,12.19,0,0,1,1.4-.7l.2-.1c.38-.14.72-.35,1.1-.5a8.49,8.49,0,0,0,1.75-.69A53.34,53.34,0,0,1,47,1.4C48.78.9,50.58.56,52.38.24,53.56,0,54.76-.09,56-.21c.81-.08,1.62-.06,2.43-.08-.08.11-.2.1-.32.1a37.08,37.08,0,0,0-4.92.48,51.59,51.59,0,0,0-10,2.47A55.4,55.4,0,0,0,36,5.86C35.88,5.93,35.76,6,35.63,6.1Z"/><path class="cls-47" d="M90.82,114.92c0-.6,0-1.2,0-1.79,0-.34.18-.32.41-.32s.41,0,.41.32c0,1.23,0,2.45,0,3.68,0,.33-.18.33-.41.33s-.42,0-.41-.33C90.83,116.18,90.82,115.55,90.82,114.92Z"/><path class="cls-55" d="M74.56,114.94c0-.6,0-1.2,0-1.79,0-.32.14-.35.39-.34s.43,0,.42.35q0,1.82,0,3.63c0,.36-.2.34-.44.35s-.38-.08-.37-.36C74.58,116.16,74.56,115.55,74.56,114.94Z"/><path class="cls-60" d="M89.44,99.83c-.86.47-1.7,1-2.56,1.4-1.14.6-2.29,1.17-3.44,1.75a1.47,1.47,0,0,1-.29,0c-.1-.12.11-.12.09-.21.64-.41,1.37-.66,2.05-1a53.68,53.68,0,0,0,9.27-5.94,1.59,1.59,0,0,1,.26-.14l0,.07c0,.17-.16.28-.24.43A21.32,21.32,0,0,1,92.34,98c-.78.57-1.6,1.11-2.42,1.63A1,1,0,0,1,89.44,99.83Z"/><path class="cls-61" d="M29.37,106.14c0,.33,0,.66,0,1,0,.1,0,.32-.12.26-.38-.21-.77.17-1.11-.06s-.34-.62-.37-1a3.25,3.25,0,0,1,.1-1.08.53.53,0,0,1,.76-.41s.09.08.12.07c1-.41.5.44.62.76A1.62,1.62,0,0,1,29.37,106.14Z"/><path class="cls-61" d="M20.8,106.86c.29.14.6.29.83-.06s0-.6-.17-.86a7.87,7.87,0,0,1-.65-.87,1,1,0,0,1,.05-1.13.9.9,0,0,1,.89-.31c.19,0,.33.07.31.3s-.21.12-.32.11a.49.49,0,0,0-.48.19.45.45,0,0,0,0,.56c.26.36.55.71.78,1.09a1,1,0,0,1-.4,1.5C21.15,107.55,20.78,107.33,20.8,106.86Z"/><path class="cls-62" d="M89.44,99.83c.59-.41,1.18-.83,1.79-1.23,1.07-.7,2.08-1.47,3.1-2.23a1.5,1.5,0,0,0,.2-.23,1.22,1.22,0,0,0,.44-.46c.16-.15.35-.27.52-.41a1.82,1.82,0,0,0,.56-.47.5.5,0,0,1,.15-.14,1.66,1.66,0,0,0,.55-.47,1.52,1.52,0,0,1,.34-.33c.2-.07.33-.26.54-.29a.26.26,0,0,1,.19.07,20.83,20.83,0,0,1-2.48,2.21,51.86,51.86,0,0,1-4.72,3.45,4.77,4.77,0,0,1-1.28.73Z"/><path class="cls-63" d="M83.24,102.82c.13.14-.11.12-.09.21a47.6,47.6,0,0,1-9.83,3.38,1,1,0,0,1-.25,0,.16.16,0,0,1-.22,0c.28-.29.68-.21,1-.33s.66-.17,1-.27c1.34-.51,2.74-.84,4.09-1.32S81.8,103.36,83.24,102.82Z"/><path class="cls-64" d="M97.82,93.64h-.2c-.08-.16.09-.23.14-.35a2,2,0,0,1,.43-.43,53.29,53.29,0,0,0,7.07-8.15c.19-.11.18-.51.54-.35a24.09,24.09,0,0,1-2.37,3.29,41.7,41.7,0,0,1-3,3.47c-.12.12-.25.22-.37.33a18.07,18.07,0,0,1-1.7,1.69A1.59,1.59,0,0,0,97.82,93.64Z"/><path class="cls-65" d="M105.31,84.76A46.77,46.77,0,0,1,101.18,90c-1,1-1.93,2-3,3,0,0-.1,0-.11-.11.55-.56,1.09-1.12,1.64-1.67a51.82,51.82,0,0,0,5.38-6.45,1.45,1.45,0,0,1,.17-.18A.16.16,0,0,1,105.31,84.76Z"/><path class="cls-66" d="M115,58.7a3.38,3.38,0,0,0-.18,1.26,53.55,53.55,0,0,1-1,5.73,8.36,8.36,0,0,1-.45,1.7.71.71,0,0,1,0-.57,48,48,0,0,0,1.2-6.28,25.45,25.45,0,0,0,.33-3.9.4.4,0,0,1,.1-.37Z"/><path class="cls-67" d="M77.66,2.3A52.26,52.26,0,0,0,71.52.7C69.59.34,67.66.05,65.7-.12c-.6-.05-1.21,0-1.81-.12a11.58,11.58,0,0,1,2.82.06c1.5.17,3,.4,4.49.68a56.3,56.3,0,0,1,6.3,1.57c.09,0,.17.09.26.13S77.69,2.27,77.66,2.3Z"/><path class="cls-61" d="M33.55,106.29c0-.25,0-.49,0-.74s.06-.25-.08-.31c-.33-.15-.34-.28,0-.43.14-.06.08-.2.09-.31s-.06-.37.24-.38.28.15.28.35,0,.33.2.38.12.26.07.29c-.47.21-.24.62-.27.94a9.2,9.2,0,0,0,0,1c0,.21-.06.3-.28.29s-.25-.11-.24-.28Z"/><path class="cls-68" d="M30.92,106.1c0-.33,0-.66,0-1s.09-.36.28-.27a.64.64,0,0,0,.7,0c.05,0,.13,0,.13.1s0,.26-.11.28c-.55.08-.48.5-.48.87s0,.7,0,1-.07.3-.29.29-.24-.11-.24-.28C30.92,106.79,30.92,106.45,30.92,106.1Z"/><path class="cls-69" d="M8.38,65.69c0-.1,0-.22.1-.29a44.3,44.3,0,0,0,1.7,6c-.06.06-.08.16-.2.1A53.79,53.79,0,0,1,8.39,66C8.37,65.93,8.39,65.81,8.38,65.69Z"/><path class="cls-70" d="M105.31,84.76v-.22l1.8-2.82c.28-.45.54-.91.8-1.36.08-.13.11-.29.3-.3a6.23,6.23,0,0,1-.93,1.79c-.46.82-1,1.57-1.46,2.41,0,0,0,.07,0,.1C105.52,84.34,105.52,84.69,105.31,84.76Z"/><path class="cls-71" d="M14.87,81.37l-.19.29-.1-.1a2.2,2.2,0,0,0-.41-.94A30.73,30.73,0,0,1,12.28,77a.24.24,0,0,1,0-.31c.52,1,1,2,1.57,2.94C14.17,80.2,14.53,80.78,14.87,81.37Z"/><path class="cls-72" d="M114.29,43.93a45.65,45.65,0,0,1,.61,4.53s.06.11.09.16V51.1c-.12-.69-.13-1.39-.19-2.08-.12-1.49-.32-3-.55-4.45a4.62,4.62,0,0,1-.06-.64A.07.07,0,0,1,114.29,43.93Z"/><path class="cls-73" d="M65.38,107.42a5.36,5.36,0,0,1,1.55-.19q2.75-.32,5.44-.89c.09,0,.15.09.08.19a48.42,48.42,0,0,1-6.88,1A.19.19,0,0,1,65.38,107.42Z"/><path class="cls-4" d="M28.65,97.24h.2c.43.13.68.54,1.1.7l2.59,1.79.1.2a25.08,25.08,0,0,1-3-1.92C29.32,97.77,29,97.49,28.65,97.24Z"/><path class="cls-74" d="M83,4.2a19.75,19.75,0,0,1,3.2,1.48,9,9,0,0,1,1.59.92c0,.06-.06.07-.1.1a39,39,0,0,0-4.79-2.4C82.82,4.21,82.84,4.16,83,4.2Z"/><path class="cls-74" d="M83,4.2l-.1.1a43.44,43.44,0,0,0-5.19-2l.1-.1a28,28,0,0,1,3.76,1.34A7.11,7.11,0,0,1,83,4.2Z"/><path class="cls-75" d="M11.78,75.88a19.77,19.77,0,0,1-1.4-3.4.12.12,0,0,1,.1-.1l1.4,3.3C11.82,75.73,11.86,75.83,11.78,75.88Z"/><path class="cls-76" d="M60.59,111.48c0,.29-.18.47-.48.46a.46.46,0,0,1,0-.92A.43.43,0,0,1,60.59,111.48Z"/><path class="cls-77" d="M91.65,111.49c0,.28-.16.45-.44.45a.42.42,0,0,1-.43-.45.43.43,0,0,1,.47-.47A.43.43,0,0,1,91.65,111.49Z"/><path class="cls-78" d="M75.41,111.47c0,.26-.13.46-.42.47s-.42-.15-.44-.43.13-.49.43-.49S75.37,111.22,75.41,111.47Z"/><path class="cls-79" d="M114.29,43.93h-.1c-.29-.84-.36-1.73-.58-2.59a3.89,3.89,0,0,0-.22-.6.13.13,0,0,1,.2,0C113.92,41.78,114.05,42.87,114.29,43.93Z"/><path class="cls-80" d="M87.64,6.7l.1-.1a13.91,13.91,0,0,1,2.49,1.49l-.1.1C89.32,7.66,88.49,7.15,87.64,6.7Z"/><path class="cls-81" d="M58.19,107.62c.11-.15.27-.08.41-.1h4.18c0,.08,0,.13-.06.16A32.62,32.62,0,0,1,58.19,107.62Z"/><path class="cls-82" d="M110.8,74.67a7.21,7.21,0,0,1-.91,2.2.34.34,0,0,1,0-.28A13,13,0,0,1,110.8,74.67Z"/><path class="cls-62" d="M98.32,93.14a16,16,0,0,1,1.7-1.69A5.59,5.59,0,0,1,98.32,93.14Z"/><path class="cls-69" d="M112.69,69.48a11,11,0,0,1-.8,2.51A11.12,11.12,0,0,1,112.69,69.48Z"/><path class="cls-83" d="M59.61,26.48h2.88v.06H59.62Z"/><path class="cls-84" d="M72.47,106.42l-.1-.08,2.06-.46a1.24,1.24,0,0,1,.43-.06,8,8,0,0,1-1.73.5c-.1,0-.2,0-.26.1A.35.35,0,0,1,72.47,106.42Z"/><path class="cls-85" d="M62.78,107.62v-.1c.87,0,1.73-.16,2.6-.1l.1.1A10.18,10.18,0,0,1,62.78,107.62Z"/><path class="cls-86" d="M98.1,62.13a3.35,3.35,0,0,1-1.57.15A3.08,3.08,0,0,1,98.1,62.13Z"/><path class="cls-69" d="M113.3,67.39a7.34,7.34,0,0,1-.61,2.1A8.89,8.89,0,0,1,113.3,67.39Z"/><path class="cls-87" d="M113.59,40.74h-.2c0-.53-.28-1-.3-1.5a.09.09,0,0,1,0-.05s.07-.09.08,0A12.22,12.22,0,0,1,113.59,40.74Z"/><path class="cls-70" d="M109.7,77.07a3.72,3.72,0,0,1-.8,1.6A7,7,0,0,1,109.7,77.07Z"/><path class="cls-70" d="M108.81,78.87c-.06.45-.14.88-.61,1.1A3,3,0,0,1,108.81,78.87Z"/><path class="cls-88" d="M10.48,72.38l-.1.1c-.13-.33-.27-.66-.4-1l.2-.1Z"/><path class="cls-60" d="M95.52,95.34l-.49.4a.13.13,0,0,1-.2,0h0a5.34,5.34,0,0,1,1.1-.9l0,.06A1.1,1.1,0,0,1,95.52,95.34Z"/><path class="cls-71" d="M11.78,75.88a.2.2,0,0,1,.1-.2,2.07,2.07,0,0,1,.31.79c-.2.07-.12-.15-.22-.19A.58.58,0,0,1,11.78,75.88Z"/><path class="cls-89" d="M84,102.93a2.23,2.23,0,0,1,1.09-.5A2.42,2.42,0,0,1,84,102.93Z"/><path class="cls-60" d="M97.12,93.94a.72.72,0,0,0-.3.3.16.16,0,0,1-.17,0l0,0a2.11,2.11,0,0,1,.81-.7C97.47,93.77,97.24,93.82,97.12,93.94Z"/><path class="cls-65" d="M97.12,93.94l.3-.41.19-.19a.15.15,0,0,1,.21,0l-.2.3C97.44,93.71,97.35,94,97.12,93.94Z"/><path class="cls-90" d="M111.8,72.18a2.7,2.7,0,0,1-.4,1.1A1.85,1.85,0,0,1,111.8,72.18Z"/><path class="cls-89" d="M85.64,102.13a1.75,1.75,0,0,1,.9-.5A1.72,1.72,0,0,1,85.64,102.13Z"/><path class="cls-27" d="M31.16,35.45a2.11,2.11,0,0,1,0,1.29Z"/><path class="cls-60" d="M96.22,94.74l-.1.1a.13.13,0,0,1-.2,0h0a1.74,1.74,0,0,1,.69-.6h0C96.63,94.53,96.37,94.59,96.22,94.74Z"/><path class="cls-89" d="M77.26,105.52a2.13,2.13,0,0,1,.9-.3A1.25,1.25,0,0,1,77.26,105.52Z"/><path class="cls-75" d="M12,76.28l.22.19.09.19V77A1.05,1.05,0,0,1,12,76.28Z"/><path class="cls-60" d="M97.82,93.34h-.21a1.7,1.7,0,0,1,.5-.5l.11.11A1.07,1.07,0,0,0,97.82,93.34Z"/><path class="cls-62" d="M86.94,101.43a1.09,1.09,0,0,1,.7-.4A1.09,1.09,0,0,1,86.94,101.43Z"/><path class="cls-89" d="M81.45,104a1,1,0,0,1,.7-.3A1,1,0,0,1,81.45,104Z"/><path class="cls-89" d="M74.86,106.22a1,1,0,0,1,.7-.2A1,1,0,0,1,74.86,106.22Z"/><path class="cls-82" d="M111.1,74.18c-.11.16-.14.37-.31.5a.62.62,0,0,1,.2-.5C111,74.13,111.06,74.13,111.1,74.18Z"/><path class="cls-89" d="M80.45,104.42a.59.59,0,0,1,.5-.19A.58.58,0,0,1,80.45,104.42Z"/><path class="cls-89" d="M82.15,103.73a.56.56,0,0,1,.5-.2A.63.63,0,0,1,82.15,103.73Z"/><path class="cls-89" d="M81,104.23a.56.56,0,0,1,.5-.2A.62.62,0,0,1,81,104.23Z"/><path class="cls-89" d="M83.05,103.33a.56.56,0,0,1,.5-.2A.6.6,0,0,1,83.05,103.33Z"/><path class="cls-89" d="M79.65,104.72a.59.59,0,0,1,.5-.19A.58.58,0,0,1,79.65,104.72Z"/><path class="cls-90" d="M111.1,74.18H111c0-.17,0-.33.21-.4Z"/><path class="cls-4" d="M8.18,42.13a6.82,6.82,0,0,1-.39,2A6.51,6.51,0,0,1,8.18,42.13Z"/><path class="cls-91" d="M37.43,4.9a5.56,5.56,0,0,1-1.4.7A2.78,2.78,0,0,1,37.43,4.9Z"/><path class="cls-91" d="M36,5.6c-.08.23-.37.21-.5.4l-.59.2A2.35,2.35,0,0,1,36,5.6Z"/><path class="cls-91" d="M38.73,4.3a2.51,2.51,0,0,1-1.1.5A2.3,2.3,0,0,1,38.73,4.3Z"/><path class="cls-4" d="M8.38,41.24a1.47,1.47,0,0,1-.2.89A1.62,1.62,0,0,1,8.38,41.24Z"/><path class="cls-4" d="M7.79,44.13c0,.2.08.42-.1.6C7.72,44.53,7.6,44.31,7.79,44.13Z"/><path class="cls-92" d="M68.16,80.06H66.37a.56.56,0,0,1-.08-.38c.07-8.07,0-16.13,0-24.2,0-.14.06-.33-.08-.42s-.3.07-.43.16l-1.28.85a.81.81,0,0,0-.39.71c0,.22,0,.44,0,.65v21.7a1.46,1.46,0,0,1-.13.92H62.25a1.45,1.45,0,0,1-.12-.87V58.57c0-.15,0-.29,0-.44s-.09-.31-.34-.3c-.76,0-1-.24-1.13-1a6,6,0,0,1,0-1.59,10.92,10.92,0,0,0,0-1.4c0-.12,0-.29-.12-.34s-.25.07-.35.14a.64.64,0,0,0-.3.55c0,.18,0,.36,0,.54q0,12.14,0,24.25a2.2,2.2,0,0,1-.06,1.08H58.09a.59.59,0,0,1-.07-.39c0-7.93,0-15.86,0-23.79a1.5,1.5,0,0,0,0-.3c0-.25-.13-.28-.32-.15-.52.38-1.06.74-1.57,1.14a.69.69,0,0,0-.28.56c0,.22,0,.44,0,.65q0,10.69,0,21.4a1.45,1.45,0,0,1-.12.87H54a1.45,1.45,0,0,1-.12-.87q0-10.09,0-20.2c0-.21.1-.51-.08-.61s-.38.18-.58.28a3.71,3.71,0,0,0-.32.23c-1.39,1-1.19.63-1.19,2.34,0,5.94,0,11.87,0,17.81a2.12,2.12,0,0,1-.06,1c-.32.06-.48,0-.61-.38a35.58,35.58,0,0,0-6.44-11.1,22.93,22.93,0,0,1-5.29-10.67A22.32,22.32,0,0,1,51,33.88a21,21,0,0,1,7.7-2.24A22.19,22.19,0,0,1,81.28,44.46a22.19,22.19,0,0,1-2.9,23.14A46.24,46.24,0,0,0,72.25,77a17.39,17.39,0,0,0-1,2.58c-.12.4-.3.56-.7.47a1.4,1.4,0,0,1-.1-.78V53c0-.24.12-.56-.13-.68s-.41.16-.59.28c-1.72,1.18-1.45.64-1.45,2.69q0,12.07,0,24.15A1.09,1.09,0,0,1,68.16,80.06Z"/><path class="cls-93" d="M68.16,80.06a2.06,2.06,0,0,1-.08-.74q0-12.64,0-25.3a.81.81,0,0,1,.44-.8c.67-.41,1.32-.87,2-1.32a1,1,0,0,1,.07.57q0,13.39,0,26.79a2.39,2.39,0,0,1-.07.8Z"/><path class="cls-93" d="M64,80.05c0-.26-.05-.53-.05-.79Q64,68,64,56.81a.88.88,0,0,1,.48-.87c.66-.41,1.3-.85,1.95-1.29a.83.83,0,0,1,.07.52q0,12,0,24a8,8,0,0,1-.08.84Z"/><path class="cls-93" d="M55.73,80.05c0-.26,0-.53,0-.79q0-11,0-22a.91.91,0,0,1,.44-.86c.68-.44,1.33-.92,2-1.4a.89.89,0,0,1,.06.52q0,11.87,0,23.74a3,3,0,0,1-.09.84Z"/><path class="cls-93" d="M59.88,80.06a2.67,2.67,0,0,1-.08-.84V54.32a1.26,1.26,0,0,1,.86-1.16c.3-.08.18.18.18.28,0,.91,0,1.82,0,2.74v.45c0,1.08.52,1.37,1.48.82V58q0,10.59,0,21.2c0,.28,0,.56,0,.84Z"/><path class="cls-93" d="M51.6,80.06a3.11,3.11,0,0,1-.08-.74V60.1a.76.76,0,0,1,.36-.74c.69-.45,1.36-1,2-1.42.18.09.1.24.1.36q0,10.56,0,21.11c0,.21,0,.43-.05.64Z"/><path class="cls-94" d="M56.69,114a12.77,12.77,0,0,1-.19,1.62,1,1,0,0,1-.4.61.77.77,0,0,1-.61.15c-.23-.09-.11-.35-.11-.53,0-1.26,0-2.52,0-3.78,0-.44.18-.45.51-.35a.9.9,0,0,1,.62.65A11,11,0,0,1,56.69,114Z"/><path class="cls-95" d="M46.38,115.69a1.35,1.35,0,0,1,0-.29c.08-.22.17-.49.39-.54s.24.27.36.42a1.76,1.76,0,0,1,.23.37c.09.18.35.34.21.56a.67.67,0,0,1-.65.29.66.66,0,0,1-.54-.51A1.54,1.54,0,0,1,46.38,115.69Z"/><path class="cls-96" d="M46.69,112.6c0-.33.18-.53.5-.53a.39.39,0,0,1,.41.46c-.05.35-.22.8-.53.82S46.75,112.88,46.69,112.6Z"/><path class="cls-97" d="M78.44,114.89a3.57,3.57,0,0,1,.1-1.08c.06-.19.16-.34.37-.34a.41.41,0,0,1,.43.34,5.5,5.5,0,0,1,0,2.32.4.4,0,0,1-.4.37c-.24,0-.34-.17-.4-.38A4.21,4.21,0,0,1,78.44,114.89Z"/><path class="cls-97" d="M26.25,115a3.88,3.88,0,0,1,.1-1.21c.06-.21.18-.37.41-.36a.39.39,0,0,1,.4.37,5.67,5.67,0,0,1,0,2.32.38.38,0,0,1-.42.35.41.41,0,0,1-.36-.36A4,4,0,0,1,26.25,115Z"/><path class="cls-98" d="M95.64,115.2c0,.21,0,.58-.06.94s-.14.47-.44.46-.38-.23-.42-.47a7.33,7.33,0,0,1,0-2.29c0-.24.13-.47.41-.48s.4.24.46.49A7.81,7.81,0,0,1,95.64,115.2Z"/><path class="cls-99" d="M34.65,114.51c-.3,0-.49,0-.43-.39s0-.84.46-.84.42.52.47.88S34.87,114.48,34.65,114.51Z"/><path class="cls-65" d="M62.78,107.62c.91.07,1.8-.16,2.7-.1a48.67,48.67,0,0,0,6-.85,2.63,2.63,0,0,0,1-.25h.6a14.69,14.69,0,0,1-2.69.59c-1,.19-2.09.33-3.13.46a22.75,22.75,0,0,1-2.46.24c-1.73,0-3.45.21-5.17.1a53,53,0,0,1-5.77-.48,3.35,3.35,0,0,0-.55,0c-.85-.26-1.75-.28-2.61-.5a4.45,4.45,0,0,1-1.18-.3l2.78.45c1.13.18,2.24.39,3.38.46.84,0,1.68.2,2.52.19Z"/><path class="cls-65" d="M49.51,106.52a10.85,10.85,0,0,1-2.8-.7A17.92,17.92,0,0,1,49.51,106.52Z"/><path class="cls-65" d="M38.33,102.74a3.61,3.61,0,0,1-1.3-.61A3,3,0,0,1,38.33,102.74Z"/><path class="cls-65" d="M46.71,105.82a3.23,3.23,0,0,1-1.39-.4A3.71,3.71,0,0,1,46.71,105.82Z"/><path class="cls-65" d="M45.32,105.43a1.41,1.41,0,0,1-.91-.3A2,2,0,0,1,45.32,105.43Z"/><path class="cls-65" d="M39.43,103.23a1,1,0,0,1-.7-.3A1,1,0,0,1,39.43,103.23Z"/><path class="cls-65" d="M40.12,103.53a1,1,0,0,1-.69-.3A1,1,0,0,1,40.12,103.53Z"/><path class="cls-65" d="M41.32,104a.63.63,0,0,1-.5-.2A.55.55,0,0,1,41.32,104Z"/><path class="cls-65" d="M40.82,103.83a.64.64,0,0,1-.5-.2A.55.55,0,0,1,40.82,103.83Z"/><path class="cls-65" d="M41.82,104.23a.63.63,0,0,1-.5-.2A.53.53,0,0,1,41.82,104.23Z"/><path class="cls-65" d="M42.62,104.53a.63.63,0,0,1-.5-.2A.54.54,0,0,1,42.62,104.53Z"/><path class="cls-65" d="M94.83,95.74H95c-.13.19-.25.37-.5.4Z"/><path class="cls-100" d="M28.88,106.16c0,.18,0,.4-.05.61a.26.26,0,0,1-.23.23c-.13,0-.21-.11-.23-.22a4.29,4.29,0,0,1,0-1.29.26.26,0,0,1,.27-.25c.15,0,.21.14.22.29S28.87,105.92,28.88,106.16Z"/><path class="cls-65" d="M95.92,94.84h.2c-.16.22-.3.45-.6.5Z"/><path class="cls-65" d="M96.22,94.74l.4-.5h.2C96.66,94.46,96.52,94.69,96.22,94.74Z"/><path class="cls-6" d="M61.4,51.6,55.12,56l-3.79,2.68c-.54.38-1.1.26-1.28-.26s.1-.73.43-1l2.28-1.62,8.74-6.2a.88.88,0,0,1,1-.19.87.87,0,0,1,.44.92c0,1.18,0,2.36,0,3.54.22.07.33-.08.46-.17,2.34-1.5,4.66-3,7-4.5.29-.18.32-.3.09-.55s-.45-.6-.75-1l1.59.21,1.53.21c.15,0,.36,0,.32.28-.15,1-.3,2.1-.47,3.26-.32-.43-.6-.76-.83-1.12s-.32-.25-.57-.09c-2.81,1.83-5.64,3.64-8.45,5.46-.32.21-.63.4-1,.19s-.42-.59-.42-1C61.41,54,61.4,52.85,61.4,51.6Z"/></svg>