<svg xmlns="http://www.w3.org/2000/svg" width="29.942" height="29.936" viewBox="0 0 29.942 29.936"><defs><style>.a{fill:none;stroke:#08a8f2;}</style></defs><g transform="translate(0.505 0.5)"><g transform="translate(0 0)"><path class="a" d="M14.452.022A14.49,14.49,0,0,0,12.9.105a13.658,13.658,0,0,0-1.4.224l-.267.059a14.469,14.469,0,0,0-7.137,4q-.271.278-.531.573A14.485,14.485,0,0,0,24.811,24.63q.272-.278.531-.573A14.485,14.485,0,0,0,14.452.022ZM4.737,5.109c.076-.079.155-.155.233-.232s.179-.177.271-.263.164-.148.246-.221.186-.165.281-.245.17-.139.256-.208.193-.155.293-.229.177-.13.267-.193.2-.145.3-.211.183-.122.276-.181.207-.131.312-.193.189-.112.285-.166.214-.12.322-.178.193-.1.29-.151.221-.109.333-.162.2-.092.3-.135L9.345,2c.1-.041.2-.081.3-.12.117-.044.235-.086.353-.127.1-.035.2-.07.3-.1.12-.039.241-.074.363-.11.1-.029.2-.06.305-.087l.117-.028A11.981,11.981,0,0,0,8,6.43,16.218,16.218,0,0,1,4.694,5.157C4.71,5.14,4.723,5.123,4.737,5.109Zm-.694.777A16.776,16.776,0,0,0,7.707,7.344a25.056,25.056,0,0,0-.975,6.68H.943A13.49,13.49,0,0,1,4.043,5.886Zm0,17.242a13.492,13.492,0,0,1-3.1-8.138H6.732a25.053,25.053,0,0,0,.975,6.68A16.787,16.787,0,0,0,4.043,23.128Zm6.925,4.44c-.1-.025-.2-.056-.3-.086-.122-.036-.245-.071-.366-.111-.1-.033-.2-.068-.3-.1-.119-.041-.238-.083-.355-.128-.1-.038-.2-.078-.3-.119L9,26.877q-.148-.065-.294-.134c-.113-.053-.225-.107-.338-.163-.1-.048-.193-.1-.29-.149s-.217-.118-.325-.18-.188-.109-.281-.165-.211-.129-.315-.2-.183-.118-.274-.179-.2-.142-.306-.214S6.4,25.37,6.315,25.3s-.2-.153-.3-.231-.17-.136-.254-.206-.19-.164-.283-.247-.165-.145-.245-.219-.182-.175-.271-.264-.157-.153-.233-.231l-.042-.045A16.206,16.206,0,0,1,8,22.587,11.984,11.984,0,0,0,11.086,27.6C11.047,27.588,11.007,27.579,10.968,27.569Zm3,.42c-2.066-.294-3.877-2.45-5.017-5.634a24.537,24.537,0,0,1,5.017-.591Zm0-7.191a25.428,25.428,0,0,0-5.32.634A24.155,24.155,0,0,1,7.7,14.99h6.271V20.8Zm0-6.774H7.7a24.15,24.15,0,0,1,.951-6.443,25.436,25.436,0,0,0,5.32.634Zm0-6.774A24.512,24.512,0,0,1,8.952,6.66c1.14-3.184,2.951-5.341,5.017-5.634ZM24.86,5.886a13.492,13.492,0,0,1,3.1,8.138H22.171a25.053,25.053,0,0,0-.975-6.68A16.794,16.794,0,0,0,24.86,5.886ZM17.932,1.445c.1.025.2.057.3.086.122.036.245.071.366.111.1.033.2.068.3.1.119.041.238.083.355.128.1.038.2.078.3.119l.345.145q.148.065.294.134c.113.053.225.107.338.163.1.048.193.1.29.149s.217.118.325.18.188.109.281.165.211.129.315.2.183.118.274.179.2.141.305.214.177.127.265.193.2.153.3.231.17.135.254.206.19.164.283.247.165.145.245.219.182.175.271.264.157.153.233.231l.042.045A16.206,16.206,0,0,1,20.9,6.427a11.983,11.983,0,0,0-3.09-5.01C17.853,1.427,17.892,1.435,17.932,1.445Zm-3-.42c2.066.294,3.877,2.45,5.017,5.634a24.538,24.538,0,0,1-5.017.591V1.026Zm0,7.191a25.427,25.427,0,0,0,5.32-.634,24.155,24.155,0,0,1,.951,6.443H14.934Zm0,6.774h6.271a24.15,24.15,0,0,1-.951,6.443h0a25.436,25.436,0,0,0-5.32-.634Zm0,13V21.764a24.512,24.512,0,0,1,5.017.591C18.812,25.539,17,27.7,14.934,27.989Zm9.232-4.083c-.076.079-.155.155-.233.231s-.18.178-.272.264-.163.145-.245.22-.187.166-.282.246-.17.139-.256.207-.193.155-.293.229-.177.13-.267.193-.2.145-.3.211-.183.122-.276.181-.207.131-.312.193-.189.112-.284.166-.214.12-.323.178-.193.1-.29.151-.221.109-.333.162-.2.092-.3.135l-.343.145c-.1.041-.2.081-.3.119-.118.045-.236.087-.355.128-.1.035-.2.07-.3.1-.121.039-.241.075-.365.11-.1.03-.2.06-.3.087l-.117.028A11.981,11.981,0,0,0,20.9,22.584a16.217,16.217,0,0,1,3.308,1.273C24.194,23.874,24.18,23.891,24.166,23.906Zm.694-.777A16.776,16.776,0,0,0,21.2,21.67a25.056,25.056,0,0,0,.975-6.68H27.96A13.49,13.49,0,0,1,24.86,23.128Z" transform="translate(0 -0.022)"/></g></g></svg>