<svg xmlns="http://www.w3.org/2000/svg" xmlns:xlink="http://www.w3.org/1999/xlink" width="100" height="100" viewBox="0 0 100 100">
  <defs>
    <clipPath id="clip-contact">
      <rect width="100" height="100"/>
    </clipPath>
  </defs>
  <g id="contact" clip-path="url(#clip-contact)">
    <path id="Path_11" data-name="Path 11" d="M99.524,72.568,90.6,63.638a14.291,14.291,0,0,0-20.042-.085,8.734,8.734,0,0,1-11.076,1.084A60.986,60.986,0,0,1,42.67,47.862a8.852,8.852,0,0,1,1.153-11.117A14.291,14.291,0,0,0,43.7,16.764L34.767,7.835a14.262,14.262,0,0,0-20.135,0l-2.569,2.573C-1.331,23.8-.328,51.961,27.539,79.812c16.8,16.807,33.716,23.845,47.43,23.845a30.44,30.44,0,0,0,21.99-8.365l2.573-2.573A14.258,14.258,0,0,0,99.524,72.568ZM93.785,86.98l-2.573,2.573C80.659,100.106,57.366,98.178,33.27,74.077S7.241,26.668,17.794,16.115l2.553-2.569a6.133,6.133,0,0,1,8.657,0l8.929,8.929a6.133,6.133,0,0,1,.085,8.564A16.969,16.969,0,0,0,35.863,52.3,69.039,69.039,0,0,0,54.992,71.4a16.961,16.961,0,0,0,21.231-2.1,6.137,6.137,0,0,1,8.6.053l8.929,8.929a6.129,6.129,0,0,1,.037,8.694Z" transform="translate(-3.698 -3.675)" fill="#0089ff"/>
  </g>
</svg>
