<svg  xmlns="http://www.w3.org/2000/svg"  id="Group_13825" data-name="Group 13825" viewBox="0 0 81.086 106.277"><path id="Path_1576" data-name="Path 1576" d="M141.766,87.964c-.236-14.444-15-18.711-25.787-21.827-1.258-.363-2.468-.713-3.6-1.062V59.116a21.233,21.233,0,0,0,5.694-5.234h6.568a5.836,5.836,0,0,0,5.83-5.829V41a7.485,7.485,0,0,0,.606-2.958V35.843a7.475,7.475,0,0,0-.606-2.955v-3.64a29.244,29.244,0,1,0-58.487,0v3.536c0,.028,0,.055,0,.082a7.475,7.475,0,0,0-.616,2.977v2.195a7.53,7.53,0,0,0,7.518,7.524H80.6a21.125,21.125,0,0,0,9.465,13.553v5.959c-1.134.349-2.344.7-3.6,1.062C75.684,69.253,60.916,73.52,60.68,87.964c0,.011,0,.023,0,.034v16.2a2.076,2.076,0,0,0,2.076,2.076H68.91a2.076,2.076,0,1,0,0-4.151H64.831V88.015c.087-5.039,2.4-8.817,7.285-11.888a47.571,47.571,0,0,1,11.043-4.678l5.015,9.771a2.1,2.1,0,0,0,3.007.773l2.236-1.508,1.92,7.216-3.289,14.425h-4.5a2.076,2.076,0,0,0,0,4.151H139.69a2.076,2.076,0,0,0,2.076-2.076V88C141.766,87.986,141.766,87.975,141.766,87.964ZM114.827,70.125l.414.12-3.588,7-6.715-4.528,5.69-3.838c1.322.416,2.728.823,4.2,1.248Zm-13.6,5.094,4.162,2.807-2.012,7.561h-4.3L97.06,78.028Zm0-5.007-7-4.723v-4.37a21.035,21.035,0,0,0,14.005,0v4.368Zm16.91-40.584-.085-.054c-4.259-2.711-7.938-5.053-13.7-3.4-.054.015-.107.033-.159.052-1.222.459-2.333.887-3.408,1.3-6.564,2.527-10.148,3.907-16.468,3.729V29.589a16.911,16.911,0,1,1,33.822,0v.038Zm8.184,18.425a1.68,1.68,0,0,1-1.678,1.678H120.5a20.888,20.888,0,0,0,1.339-4.168h1.715a7.467,7.467,0,0,0,2.761-.528v3.018Zm.606-10.014a3.373,3.373,0,0,1-3.367,3.373h-1.274c0-.051,0-8.934,0-8.934h1.272a3.371,3.371,0,0,1,3.367,3.367v2.195ZM78.889,41.411a3.374,3.374,0,0,1-3.367-3.373V35.843a3.37,3.37,0,0,1,3.367-3.367h1.272s0,8.883,0,8.934ZM80.2,28.325H78.888a7.474,7.474,0,0,0-2.75.523,25.09,25.09,0,0,1,50.174,0,7.474,7.474,0,0,0-2.755-.525h-1.311a21.061,21.061,0,0,0-42.047,0Zm4.237,14.951v-.006a17.005,17.005,0,0,1-.124-2.013V35.4c7.1.173,11.338-1.457,17.959-4.006,1.043-.4,2.121-.816,3.3-1.258,3.921-1.095,6.177.342,10.253,2.937.707.45,1.483.944,2.314,1.45v6.731a16.8,16.8,0,0,1-2.286,8.474H101.223a2.076,2.076,0,1,0,0,4.151h11.235A16.895,16.895,0,0,1,84.437,43.276ZM90.8,77.243l-3.592-7,.413-.119c1.473-.426,2.878-.832,4.2-1.248l5.692,3.838Zm5.507,24.883,2.825-12.388h4.185l2.829,12.388Zm41.309,0H110.4L107.109,87.7l1.921-7.219,2.242,1.512a2.1,2.1,0,0,0,3.008-.774l5.01-9.77a47.574,47.574,0,0,1,11.042,4.678c4.882,3.071,7.2,6.849,7.285,11.888v14.111Z" transform="translate(-60.68 0)" fill="#fff"></path><path id="Path_1577" data-name="Path 1577" d="M343.968,442H333.507a2.076,2.076,0,0,0,0,4.151h10.461a2.076,2.076,0,1,0,0-4.151Z" transform="translate(-275.23 -350.248)" fill="#fff"></path><path id="Path_1578" data-name="Path 1578" d="M137.3,492a2.076,2.076,0,0,0,0,4.151h.006A2.076,2.076,0,0,0,137.3,492Z" transform="translate(-119.753 -389.872)" fill="#fff"></path></svg>