<svg id="smartphone" xmlns="http://www.w3.org/2000/svg" width="124.641" height="130.45" viewBox="0 0 124.641 130.45">
  <path id="Path_40504" data-name="Path 40504" d="M215.082,431.413a4.387,4.387,0,1,0,4.387,4.387A4.387,4.387,0,0,0,215.082,431.413Zm0,5.593a1.206,1.206,0,1,1,1.206-1.206,1.206,1.206,0,0,1-1.206,1.206Z" transform="translate(-160.399 -319.679)" fill="#fbb333"/>
  <path id="Path_40505" data-name="Path 40505" d="M122.121,47h-.53a1.591,1.591,0,1,0,0,3.182h.53a1.591,1.591,0,1,0,0-3.182Z" transform="translate(-93.751 -37.19)" fill="#fbb333"/>
  <path id="Path_40506" data-name="Path 40506" d="M167.984,47H143.591a1.591,1.591,0,0,0,0,3.182h24.393a1.591,1.591,0,0,0,0-3.182Z" transform="translate(-109.918 -37.19)" fill="#fbb333"/>
  <path id="Path_40507" data-name="Path 40507" d="M53.166,162.182H65.3a1.591,1.591,0,0,0,0-3.182H53.166a1.591,1.591,0,1,0,0,3.182Z" transform="translate(-43.468 -119.494)" fill="#fbb333"/>
  <path id="Path_40508" data-name="Path 40508" d="M122.3,160.591a1.591,1.591,0,0,0,1.591,1.591h15.166a1.591,1.591,0,0,0,0-3.182H123.891A1.591,1.591,0,0,0,122.3,160.591Z" transform="translate(-95.441 -119.494)" fill="#fbb333"/>
  <path id="Path_40509" data-name="Path 40509" d="M79.024,186.591A1.591,1.591,0,0,0,77.433,185H53.166a1.591,1.591,0,1,0,0,3.182H77.433A1.591,1.591,0,0,0,79.024,186.591Z" transform="translate(-43.468 -138.6)" fill="#fbb333"/>
  <path id="Path_40510" data-name="Path 40510" d="M172.683,185H169.65a1.591,1.591,0,1,0,0,3.182h3.033a1.591,1.591,0,0,0,0-3.182Z" transform="translate(-129.067 -138.6)" fill="#fbb333"/>
  <path id="Path_40511" data-name="Path 40511" d="M66.4,211H53.166a1.591,1.591,0,1,0,0,3.182H66.4a1.591,1.591,0,1,0,0-3.182Z" transform="translate(-43.468 -157.706)" fill="#fbb333"/>
  <path id="Path_40512" data-name="Path 40512" d="M142.113,211H128.049a1.591,1.591,0,1,0,0,3.182h14.064a1.591,1.591,0,1,0,0-3.182Z" transform="translate(-98.497 -157.706)" fill="#fbb333"/>
  <path id="Path_40513" data-name="Path 40513" d="M138.049,76.1a7.381,7.381,0,0,0-4.852-4.89,7.089,7.089,0,0,0-3.036-.292,7.393,7.393,0,0,0-5.177,3.044,7.38,7.38,0,0,0-13.091,1.326,7.471,7.471,0,0,0-1.01-.583V22.777A12.835,12.835,0,0,0,98.056,10H53.311A12.718,12.718,0,0,0,40.62,22.777V38.105H28.077A7.077,7.077,0,0,0,21,45.182V69.729a7.076,7.076,0,0,0,7.069,7.087H40.62v50.857a12.718,12.718,0,0,0,12.69,12.777H98.056a12.835,12.835,0,0,0,12.827-12.777v-1.518a20.787,20.787,0,0,0,12.588.116l7.387-2.263A20.93,20.93,0,0,0,144.725,97.9ZM43.8,22.777a9.532,9.532,0,0,1,9.509-9.6H98.056a9.649,9.649,0,0,1,9.646,9.6v4.192H43.8Zm63.9,104.9a9.649,9.649,0,0,1-9.646,9.6H53.311a9.532,9.532,0,0,1-9.509-9.6V116.057H96.055l4.749,3a20.972,20.972,0,0,0,6.9,5.755Zm-22.582-22.3a7.418,7.418,0,0,1,9.227-1.533l.473.269,2.54,8.292c.093.3.194.6.3.9Zm44.807,15.59-7.387,2.263A17.743,17.743,0,0,1,100.4,111.474L94.126,90.984a1.591,1.591,0,0,0-1.975-1.059h0a1.591,1.591,0,0,0-1.068,1.991l2.506,8.179a10.6,10.6,0,0,0-12.115,4.944,1.591,1.591,0,0,0,.532,2.132l9.018,5.7H43.8V76.816h2.152a14.284,14.284,0,0,0,9.962,14.3,1.577,1.577,0,0,0,.413.056,1.6,1.6,0,0,0,1.4-.83,1.636,1.636,0,0,0,.137-1.18c-.509-2.091-1.326-7.99.842-10.758a4.457,4.457,0,0,1,3.771-1.587h4.757a7.059,7.059,0,0,0,7.059-7.059V45.17a7.065,7.065,0,0,0-7.065-7.065H58.65a1.591,1.591,0,0,0,0,3.182h8.584a3.877,3.877,0,0,1,3.877,3.877V69.716a3.918,3.918,0,0,1-3.918,3.918H62.478a7.535,7.535,0,0,0-6.28,2.813c-2.271,2.906-2.265,7.421-1.934,10.425C51.949,85.4,48.9,82.3,49.15,76.255a2.483,2.483,0,0,0-2.436-2.621H28.071a3.894,3.894,0,0,1-3.889-3.917V45.182a3.9,3.9,0,0,1,3.9-3.9H47.514a1.591,1.591,0,1,0,0-3.182H43.8V30.151h63.9V73.979a7.363,7.363,0,0,0-5.8,2.814l-6.821-22.27a7.385,7.385,0,0,0-14.123,4.326l6.867,22.42A1.591,1.591,0,0,0,89.8,82.328h0a1.591,1.591,0,0,0,1.068-1.991L84,57.918a4.231,4.231,0,0,1,1.082-4.254,3.24,3.24,0,0,1,.447-.378,4.218,4.218,0,0,1,6.509,2.169l12.558,41a1.591,1.591,0,0,0,3.043-.932l-3.96-12.927a4.2,4.2,0,1,1,8.038-2.462l3.96,12.927a1.591,1.591,0,1,0,3.043-.932L114.756,79.2a4.2,4.2,0,1,1,8.038-2.462l3.96,12.928a1.591,1.591,0,0,0,3.043-.932L126.968,79.5a4.232,4.232,0,0,1,1.1-4.269,3.178,3.178,0,0,1,.451-.378,4.231,4.231,0,0,1,4.441-.3A4.173,4.173,0,0,1,135,77.038L141.68,98.83a17.744,17.744,0,0,1-11.754,22.136Z" transform="translate(-21 -10)" fill="#fbb333"/>
</svg>
