<svg id="web-development" xmlns="http://www.w3.org/2000/svg" width="137.386" height="137.501" viewBox="0 0 137.386 137.501">
  <path id="Path_40514" data-name="Path 40514" d="M345.633,112.1a1.881,1.881,0,0,0-1.692-1.816.747.747,0,0,0-.472.125l-6.318,4.1a1.644,1.644,0,0,0,0,2.786l6.318,4.1a.747.747,0,0,0,.472.125,1.881,1.881,0,0,0,1.692-1.816,1.14,1.14,0,0,0-.448-.97l-4.379-2.836,4.379-2.836a1.142,1.142,0,0,0,.448-.97Zm0,0" transform="translate(-246.042 -80.664)" fill="#08a8f2"/>
  <path id="Path_40515" data-name="Path 40515" d="M390.46,85.367a1.094,1.094,0,0,0-1.045.622l-8.731,17.934a1.117,1.117,0,0,0-.125.473,1.377,1.377,0,0,0,1.394,1.318,1.248,1.248,0,0,0,1.119-.621l8.755-17.935a1.079,1.079,0,0,0,.1-.473,1.426,1.426,0,0,0-1.468-1.318Zm0,0" transform="translate(-278.357 -62.441)" fill="#08a8f2"/>
  <path id="Path_40516" data-name="Path 40516" d="M441.1,114.51l-6.317-4.1a.752.752,0,0,0-.473-.125,1.88,1.88,0,0,0-1.691,1.816,1.14,1.14,0,0,0,.448.97l4.378,2.836-4.378,2.836a1.14,1.14,0,0,0-.448.97,1.88,1.88,0,0,0,1.691,1.816.752.752,0,0,0,.473-.125l6.317-4.1a1.644,1.644,0,0,0,0-2.786Zm0,0" transform="translate(-316.435 -80.664)" fill="#08a8f2"/>
  <path id="Path_40517" data-name="Path 40517" d="M127.763,10.014H84.4A15.594,15.594,0,0,0,69.851,0H40.763A15.584,15.584,0,0,0,25.2,15.566V33.241a6.568,6.568,0,0,0-2.115,6.187l1.143,6.292a5.479,5.479,0,0,0,2.448,3.823,5.921,5.921,0,0,0,3.115.825v1.118c0,5.673,3.31,11.926,9.081,17.155a37.074,37.074,0,0,0,3.369,2.712v3.374a2.134,2.134,0,0,1-1.745,2.1c-.047.008-.093.019-.14.03s-3.492.911-8.013,2.193H17.571a6,6,0,0,0-5.989,6.432l.04.569C5.016,89.361.86,95.3.463,102.052l0,.085L0,129.862A7.545,7.545,0,0,0,7.549,137.5h95.517a7.547,7.547,0,0,0,7.547-7.648l-.458-27.717c0-.028,0-.057,0-.085-.407-6.946-4.794-13.032-11.737-16.283-.127-.06-.26-.121-.4-.183l.007-.106a6,6,0,0,0-5.989-6.432H78.274c-4.519-1.282-7.978-2.183-8.013-2.191s-.092-.023-.14-.031a2.134,2.134,0,0,1-1.745-2.1V71.354a37.27,37.27,0,0,0,3.369-2.713,29.424,29.424,0,0,0,7.8-10.8H92.635l-2.286,9.226a3.636,3.636,0,0,0,1.556,3.961,3.633,3.633,0,0,0,4.254-.16l16.959-13.027h14.645a9.634,9.634,0,0,0,9.624-9.624V19.638a9.635,9.635,0,0,0-9.624-9.624ZM80.83,36.721a8.69,8.69,0,0,1,1.974-.413,2.6,2.6,0,0,1,.765,2.4l-1.137,6.261c-.166.874-.5,1.082-.612,1.15a1.966,1.966,0,0,1-.992.223Zm-51.6-21.155A11.551,11.551,0,0,1,40.763,4.028H69.852A11.551,11.551,0,0,1,81.389,15.566V32.442A11.723,11.723,0,0,0,77.94,33.6V21.329a8.014,8.014,0,0,0-8-8H64.492A8.228,8.228,0,0,0,59.3,15.177l-.533.436a5.468,5.468,0,0,1-6.921,0l-.534-.437a8.226,8.226,0,0,0-5.192-1.852H40.679a8.013,8.013,0,0,0-8,8V33.6a11.717,11.717,0,0,0-3.449-1.159Zm-.431,30.553c-.11-.068-.446-.276-.608-1.133l-1.14-6.276a2.6,2.6,0,0,1,.763-2.4,8.693,8.693,0,0,1,1.976.411l0,9.622a1.971,1.971,0,0,1-.992-.223Zm-17.821,85.9a5.487,5.487,0,0,0,.2,1.459H7.549a3.519,3.519,0,0,1-3.52-3.553l.458-27.673a14.785,14.785,0,0,1,7.45-11.771l2.459,34.5a5.956,5.956,0,0,0,.416,1.8,5.5,5.5,0,0,0-3.841,5.234Zm84.235-7.036,2.5-35.058c5.054,2.712,8.1,7.15,8.421,12.327l.458,27.665a3.519,3.519,0,0,1-3.52,3.562H99.445a5.488,5.488,0,0,0-4.574-6.9,5.928,5.928,0,0,0,.337-1.6Zm.406,7.036a1.461,1.461,0,0,1-1.458,1.459h-77.7a1.459,1.459,0,0,1,0-2.917h77.7A1.46,1.46,0,0,1,95.613,132.014ZM93.481,83.706a1.955,1.955,0,0,1,.525,1.488l-2.816,39.5a1.982,1.982,0,0,1-1.971,1.835H20.386a1.984,1.984,0,0,1-1.971-1.836L15.6,85.194a1.976,1.976,0,0,1,1.971-2.117H92.034a1.959,1.959,0,0,1,1.447.629ZM66.118,79.048H44.5a6.155,6.155,0,0,0,1.77-4.321v-.9a20.416,20.416,0,0,0,9.041,2.566,20.424,20.424,0,0,0,9.042-2.566v.9a6.155,6.155,0,0,0,1.77,4.321ZM69.04,65.656c-4.5,4.075-9.887,6.708-13.733,6.708s-9.235-2.633-13.732-6.708c-4.931-4.466-7.758-9.631-7.758-14.171l0-12.689h.079A2.816,2.816,0,0,0,36.7,35.985V21.329a3.98,3.98,0,0,1,3.976-3.976h5.444a4.182,4.182,0,0,1,2.64.942l.535.437a9.5,9.5,0,0,0,12.019,0l.534-.436a4.185,4.185,0,0,1,2.642-.942h5.442a3.981,3.981,0,0,1,3.977,3.976V35.985A2.815,2.815,0,0,0,76.8,38.8l0,12.69c0,4.538-2.827,9.7-7.758,14.17Zm64.318-17.437a5.6,5.6,0,0,1-5.6,5.6H112.434a2.01,2.01,0,0,0-1.226.418L94.5,67.065l2.664-10.752a2.014,2.014,0,0,0-1.954-2.5H80.648a15.564,15.564,0,0,0,.179-2.328V50.368a5.92,5.92,0,0,0,3.114-.825,5.486,5.486,0,0,0,2.452-3.838l1.14-6.276a6.567,6.567,0,0,0-2.115-6.187V15.566c0-.513-.025-1.022-.074-1.523h42.419a5.6,5.6,0,0,1,5.6,5.6Zm0,0" transform="translate(-0.001)" fill="#08a8f2"/>
  <path id="Path_40518" data-name="Path 40518" d="M185.315,383.121a7.572,7.572,0,1,0-7.572-7.572A7.581,7.581,0,0,0,185.315,383.121Zm0-11.116a3.544,3.544,0,1,1-3.544,3.544A3.548,3.548,0,0,1,185.315,372Zm0,0" transform="translate(-130.009 -269.154)" fill="#08a8f2"/>
</svg>
