<svg xmlns="http://www.w3.org/2000/svg"  viewBox="0 0 97.452 97.452"><g id="management" transform="translate(-0.5)"><path id="Path_1569" data-name="Path 1569" d="M113.334,53.6V50.35a1.624,1.624,0,0,0,1.624-1.624V38.981a1.624,1.624,0,0,0-1.624-1.624h-8.771l-.315-1.22a30.014,30.014,0,0,0-3.314-7.936l-.65-1.087,6.227-6.238a1.61,1.61,0,0,0,0-2.274l-6.9-6.908a1.648,1.648,0,0,0-2.275,0L91.1,17.933l-1.086-.65a30.083,30.083,0,0,0-7.946-3.315l-1.219-.317V4.873a1.624,1.624,0,0,0-1.624-1.624H69.481a1.624,1.624,0,0,0-1.624,1.624v8.771l-1.22.315A30.075,30.075,0,0,0,58.7,17.27l-1.087.65-6.237-6.226a1.647,1.647,0,0,0-2.282,0l-6.9,6.9a1.613,1.613,0,0,0,0,2.284l6.239,6.238-.65,1.087a30.012,30.012,0,0,0-3.313,7.936l-.318,1.22H35.373a1.624,1.624,0,0,0-1.624,1.624v9.745a1.624,1.624,0,0,0,1.624,1.624V53.6A4.873,4.873,0,0,1,30.5,48.726V38.981a4.873,4.873,0,0,1,4.873-4.873h6.284a33.167,33.167,0,0,1,2.7-6.469l-4.467-4.467a4.856,4.856,0,0,1,0-6.877l6.9-6.9a4.974,4.974,0,0,1,6.878,0l4.465,4.465a33.172,33.172,0,0,1,6.469-2.7V4.873A4.873,4.873,0,0,1,69.481,0h9.745A4.873,4.873,0,0,1,84.1,4.873v6.285a33.179,33.179,0,0,1,6.469,2.7l4.467-4.467a4.975,4.975,0,0,1,6.879,0l6.9,6.9a4.859,4.859,0,0,1,0,6.877l-4.467,4.467a33.293,33.293,0,0,1,2.7,6.471h6.284a4.873,4.873,0,0,1,4.873,4.873v9.745a4.873,4.873,0,0,1-4.873,4.873Zm0,0" transform="translate(-25.128)" fill="#fff"></path><path id="Path_1570" data-name="Path 1570" d="M205.977,152.739h-3.248a19.49,19.49,0,1,0-38.981,0H160.5a22.739,22.739,0,1,1,45.477,0Zm0,0" transform="translate(-134.013 -108.885)" fill="#fff"></path><path id="Path_1571" data-name="Path 1571" d="M250.245,249.49a9.745,9.745,0,1,1,9.745-9.745A9.746,9.746,0,0,1,250.245,249.49Zm0-16.242a6.5,6.5,0,1,0,6.5,6.5A6.5,6.5,0,0,0,250.245,233.248Zm0,0" transform="translate(-201.02 -192.644)" fill="#fff"></path><path id="Path_1572" data-name="Path 1572" d="M420.245,289.49a9.745,9.745,0,1,1,9.745-9.745A9.746,9.746,0,0,1,420.245,289.49Zm0-16.242a6.5,6.5,0,1,0,6.5,6.5A6.5,6.5,0,0,0,420.245,273.248Zm0,0" transform="translate(-343.408 -226.147)" fill="#fff"></path><path id="Path_1573" data-name="Path 1573" d="M80.245,289.49a9.745,9.745,0,1,1,9.745-9.745A9.746,9.746,0,0,1,80.245,289.49Zm0-16.242a6.5,6.5,0,1,0,6.5,6.5A6.5,6.5,0,0,0,80.245,273.248Zm0,0" transform="translate(-58.631 -226.147)" fill="#fff"></path><path id="Path_1574" data-name="Path 1574" d="M91.561,369.039a14.454,14.454,0,0,0-8.228-2.543H70.34a14.536,14.536,0,0,0-2.357.214,14.575,14.575,0,0,0-3.977-4.127,6.3,6.3,0,0,0-.749-.487,14.5,14.5,0,0,0-7.535-2.1H42.729a14.455,14.455,0,0,0-12.256,6.711,14.6,14.6,0,0,0-2.361-.214H15.117a14.455,14.455,0,0,0-8.223,2.54A14.618,14.618,0,0,0,.5,381.114v6.5a11.38,11.38,0,0,0,6.614,10.32,11.01,11.01,0,0,0,4.755,1.049H28.111v-3.248H13.493V377.865H10.245v17.7a7.623,7.623,0,0,1-1.769-.587,8.134,8.134,0,0,1-4.728-7.37v-6.5a11.381,11.381,0,0,1,4.98-9.4,11.234,11.234,0,0,1,6.39-1.971H28.111c.286,0,.562.03.841.049a14.617,14.617,0,0,0-.841,4.823v16.242a8.131,8.131,0,0,0,8.121,8.121H41.1V372.993H37.856v22.739H36.232a4.873,4.873,0,0,1-4.873-4.873V374.617a11.369,11.369,0,0,1,11.369-11.369H55.722a11.349,11.349,0,0,1,5.92,1.671,4.061,4.061,0,0,1,.474.3,11.506,11.506,0,0,1,3.642,4.06,11.344,11.344,0,0,1,1.334,5.334v16.242a4.873,4.873,0,0,1-4.873,4.873H60.595V372.993H57.346V398.98h4.873a8.131,8.131,0,0,0,8.121-8.121V374.617a14.651,14.651,0,0,0-.84-4.823c.28-.019.556-.049.84-.049H83.334a11.242,11.242,0,0,1,6.394,1.974,11.383,11.383,0,0,1,4.975,9.395v6.5a8.132,8.132,0,0,1-4.755,7.383,7.468,7.468,0,0,1-1.742.575v-17.7H84.958v17.866H70.34v3.248H86.582a10.984,10.984,0,0,0,4.728-1.037,11.384,11.384,0,0,0,6.641-10.333v-6.5a14.618,14.618,0,0,0-6.39-12.075Zm0,0" transform="translate(0 -301.528)" fill="#fff"></path><path id="Path_1575" data-name="Path 1575" d="M260.5,580h12.994v3.248H260.5Zm0,0" transform="translate(-217.771 -485.797)" fill="#fff"></path></g></svg>