<svg xmlns="http://www.w3.org/2000/svg" xmlns:xlink="http://www.w3.org/1999/xlink" width="100" height="100" viewBox="0 0 100 100">
  <defs>
    <clipPath id="clip-location">
      <rect width="100" height="100"/>
    </clipPath>
  </defs>
  <g id="location" clip-path="url(#clip-location)">
    <g id="layer1" transform="translate(5.977 -1035.617)">
      <path id="path4926" d="M43.981,0A27.742,27.742,0,0,0,16.286,27.694a3.077,3.077,0,0,0,.144.973c.262,9.714,4.47,18.215,9.424,26.1C30.969,62.9,36.9,70.532,40.7,78.323a3.077,3.077,0,0,0,5.506.06C50.2,70.6,56.43,62.96,61.808,54.823S71.772,37.9,71.772,27.741a3.078,3.078,0,0,0-.2-1.144A27.689,27.689,0,0,0,43.981,0Zm0,6.155A21.494,21.494,0,0,1,65.523,27.694a3.078,3.078,0,0,0,.06.661c-.183,8.049-3.9,15.5-8.907,23.08-4.236,6.4-9.019,13.021-13.15,19.9-3.924-6.849-8.442-13.452-12.455-19.84-4.886-7.773-8.535-15.421-8.535-23.752a3.077,3.077,0,0,0-.048-.541A21.466,21.466,0,0,1,43.981,6.153Zm0,12.321a9.231,9.231,0,1,0,9.229,9.23,9.232,9.232,0,0,0-9.229-9.23Zm0,6.155A3.077,3.077,0,1,1,40.9,27.708a3.032,3.032,0,0,1,3.077-3.081ZM69.151,56.8a3.077,3.077,0,0,0-1.106,5.955c6.134,2.484,10.076,5.742,11.781,8.739s1.663,5.586-.565,8.775C74.8,86.635,60.578,92.283,44.344,92.352S13.68,86.917,8.965,80.523c-2.357-3.2-2.475-5.805-.887-8.787s5.383-6.267,11.419-8.8a3.077,3.077,0,1,0-2.38-5.674c-6.9,2.892-11.92,6.782-14.473,11.588A14.234,14.234,0,0,0,4.013,84.177c6.965,9.445,22.839,14.4,40.365,14.331s33.251-5.156,39.931-14.715a14.193,14.193,0,0,0,.865-15.351c-2.7-4.753-7.837-8.579-14.824-11.406a3.077,3.077,0,0,0-1.2-.241Z" transform="translate(0 1036.362)" fill="#0089ff" stroke="#0089ff" stroke-width="1"/>
    </g>
  </g>
</svg>
