<svg xmlns="http://www.w3.org/2000/svg" xmlns:xlink="http://www.w3.org/1999/xlink" width="100" height="100" viewBox="0 0 100 100">
  <defs>
    <clipPath id="clip-email">
      <rect width="100" height="100"/>
    </clipPath>
  </defs>
  <g id="email" clip-path="url(#clip-email)">
    <g id="Group_87" data-name="Group 87" transform="translate(-2.08 3.692)">
      <path id="Path_12" data-name="Path 12" d="M87.873,81.937H16.284a14.221,14.221,0,0,1-14.2-14.2V24.884a14.221,14.221,0,0,1,14.2-14.2H87.873a14.221,14.221,0,0,1,14.207,14.2V67.733A14.221,14.221,0,0,1,87.873,81.937ZM16.284,15.694a9.191,9.191,0,0,0-9.19,9.189V67.733a9.191,9.191,0,0,0,9.189,9.19h71.59a9.191,9.191,0,0,0,9.191-9.191V24.884a9.191,9.191,0,0,0-9.19-9.19Z" fill="#0089ff" stroke="#0089ff" stroke-width="1"/>
      <path id="Path_13" data-name="Path 13" d="M51.551,52.918a14.221,14.221,0,0,1-8.573-2.857L3.957,20.547a2.506,2.506,0,1,1,3.029-3.994L46,46.1a9.275,9.275,0,0,0,11.1,0L96.12,16.553a2.506,2.506,0,1,1,3.029,3.994L60.124,50.059a14.221,14.221,0,0,1-8.573,2.857Z" transform="translate(0.529 3.552)" fill="#0089ff" stroke="#0089ff" stroke-width="1"/>
      <path id="Path_14" data-name="Path 14" d="M5.178,62.162a2.506,2.506,0,0,1-1.671-4.379L34.256,30.36A2.509,2.509,0,1,1,37.6,34.1L6.849,61.527a2.44,2.44,0,0,1-1.671.635Zm93.015,0a2.44,2.44,0,0,1-1.671-.635L65.773,34.1a2.509,2.509,0,0,1,3.342-3.741L99.844,57.786a2.506,2.506,0,0,1-1.671,4.379Z" transform="translate(0.395 12.79)" fill="#0089ff" stroke="#0089ff" stroke-width="1"/>
    </g>
  </g>
</svg>
