<svg xmlns="http://www.w3.org/2000/svg"  viewBox="0 0 93.16 93.16"><g id="team" transform="translate(-1 -1)"><path id="Path_1579" data-name="Path 1579" d="M34.83,15.97,34.1,13.055,30.331,14a5.987,5.987,0,1,1,2.031,6.828l-1.8,2.4a9.019,9.019,0,1,0-2.542-11.453L26.794,9.334l-2.688,1.345,3.545,7.088Z" transform="translate(11.613 3.015)" fill="#fff"></path><path id="Path_1580" data-name="Path 1580" d="M82.475,69.791A12.01,12.01,0,1,0,64.5,56.6h-1.9V45.2l19.35-19.35a5.752,5.752,0,1,0-8.135-8.135l-9.681,9.68c-.409.409-.841.783-1.274,1.155a18.033,18.033,0,1,0-31.5-1.675L21.343,17.617a5.99,5.99,0,0,0-4.072-1.593A5.753,5.753,0,0,0,13.2,25.847L32.554,45.2V56.6h-1.9a12.012,12.012,0,1,0-17.971,13.2A18.045,18.045,0,0,0,1,86.647V94.16H94.16V86.647A18.045,18.045,0,0,0,82.475,69.791ZM76.129,50.585A9.015,9.015,0,1,1,67.114,59.6,9.025,9.025,0,0,1,76.129,50.585ZM69.806,69.8a18.142,18.142,0,0,0-7.955,5.865,18.089,18.089,0,0,0-7.926-5.878A12.014,12.014,0,0,0,59.6,59.6h4.508A12.012,12.012,0,0,0,69.806,69.8ZM47.58,50.585A9.015,9.015,0,1,1,38.565,59.6,9.025,9.025,0,0,1,47.58,50.585ZM44.575,36.8c.273.038.545.087.822.116a18.037,18.037,0,0,0,2.183.146h1.5v-.051c.5-.02,1.007-.026,1.5-.074v1.627a3.009,3.009,0,0,1-3.555,2.957,3.18,3.18,0,0,1-2.455-3.213Zm3.005-32.8a15.021,15.021,0,0,1,.225,30.04c-.676-.008-1.349-.039-2.018-.105A15.021,15.021,0,0,1,47.58,4.005ZM15.329,23.722a2.748,2.748,0,0,1,1.943-4.691,3,3,0,0,1,2.034.795l11.269,10.4A25.682,25.682,0,0,0,41.57,36.215v2.095a6.212,6.212,0,0,0,4.947,6.173,6.113,6.113,0,0,0,1.055.092,6.01,6.01,0,0,0,6.019-6.009V36.449a25.57,25.57,0,0,0,12.676-6.933l9.681-9.68a2.723,2.723,0,0,1,1.941-.805,2.748,2.748,0,0,1,1.943,4.691L59.6,43.953V56.6h-.4a12.037,12.037,0,0,0-10.123-8.912v-.1H46.077v.1A12.037,12.037,0,0,0,35.955,56.6h-.4V43.953ZM35.559,59.6a12.014,12.014,0,0,0,5.675,10.191,18.089,18.089,0,0,0-7.926,5.878A18.131,18.131,0,0,0,25.354,69.8a12.012,12.012,0,0,0,5.7-10.2Zm-25.544,0a9.015,9.015,0,1,1,9.015,9.015A9.025,9.025,0,0,1,10.015,59.6ZM4.005,91.155V86.647a14.99,14.99,0,0,1,27.547-8.222,17.9,17.9,0,0,0-2,8.222v4.508Zm58.6,0H32.554V86.647a15.026,15.026,0,1,1,30.052,0Zm28.549,0H65.611V86.647a17.9,17.9,0,0,0-2-8.222,14.99,14.99,0,0,1,27.547,8.222Z" transform="translate(0 0)" fill="#fff"></path><path id="Path_1581" data-name="Path 1581" d="M50,28h3.005v3.005H50Z" transform="translate(24.627 13.57)" fill="#fff"></path><path id="Path_1582" data-name="Path 1582" d="M54,28h3.005v3.005H54Z" transform="translate(26.637 13.57)" fill="#fff"></path><path id="Path_1583" data-name="Path 1583" d="M58,28h3.005v3.005H58Z" transform="translate(28.647 13.57)" fill="#fff"></path><path id="Path_1584" data-name="Path 1584" d="M4,28H7.005v3.005H4Z" transform="translate(1.508 13.57)" fill="#fff"></path><path id="Path_1585" data-name="Path 1585" d="M8,28h3.005v3.005H8Z" transform="translate(3.518 13.57)" fill="#fff"></path><path id="Path_1586" data-name="Path 1586" d="M12,28h3.005v3.005H12Z" transform="translate(5.528 13.57)" fill="#fff"></path></g></svg>