<svg id="Layer_1" data-name="Layer 1" xmlns="http://www.w3.org/2000/svg" viewBox="0 0 256.75 169.1"><defs><style>.cls-1{fill:#fff;}</style></defs><path class="cls-1" d="M78.2,16.24c-.33.18-.69.05-1,.08C77.5,16.15,77.86,16.27,78.2,16.24Z"/><path class="cls-1" d="M134.24,16.66a1.15,1.15,0,0,1-1,0Z"/><path class="cls-1" d="M81,16c-.23.16-.49.07-.73.09C80.52,15.94,80.78,16.06,81,16Z"/><path class="cls-1" d="M79.67,16.14c-.19.15-.41.08-.63.08C79.23,16.06,79.46,16.16,79.67,16.14Z"/><path class="cls-1" d="M85,16.22c-.21,0-.44.07-.63-.09C84.57,16.16,84.8,16.06,85,16.22Z"/><path class="cls-1" d="M137.48,16.14c-.2.15-.42.07-.63.08C137,16.06,137.27,16.16,137.48,16.14Z"/><path class="cls-1" d="M189.51,16.56v.61A.5.5,0,0,1,189.51,16.56Z"/><path class="cls-1" d="M86,16.32c-.18,0-.36.06-.52-.08C85.69,16.26,85.88,16.17,86,16.32Z"/><path class="cls-1" d="M142.9,15.7c-.18,0-.37.05-.52-.09C142.55,15.63,142.75,15.55,142.9,15.7Z"/><path class="cls-1" d="M102.67,42.14a7.49,7.49,0,0,0,.17,2.06,1.31,1.31,0,0,1-.56,1.53c-.28.14-.58,0-.86.07s-.43,0-.63-.08l-.53,0c-.2-.12-.43,0-.63-.09a6.16,6.16,0,0,1-4.22-1.7,8.1,8.1,0,0,1-1.74-2.74c-.53-1.23-.88-2.51-1.34-3.76a1.58,1.58,0,0,1,1-2.3,1.39,1.39,0,0,0,.75-.54.5.5,0,0,0,0-.66c-.18-.2-.38-.12-.57,0a2.49,2.49,0,0,1-1.19.32c-.65,0-.87-.34-.64-1,.07-.18.16-.35.23-.52a.75.75,0,0,1,0-.51l.37-.79c-.84-.15-.9-.22-.89-1.09v-.52a2.88,2.88,0,0,0,0-1.17,4,4,0,0,0-3.49-4c-.57-.11-1.16-.17-1.72-.31s-.91-.61-.63-1.25c.37-.83-.07-1.55-.29-2.28-.1-.34-.81-.44-1-.17a3.91,3.91,0,0,1-2.62,1.52c-.33.08-.65.23-1,.31s-.41.31-.34.62a1.75,1.75,0,0,1,0,.72A3.34,3.34,0,0,1,79,25.08c-.65.44-.69.57-.35,1.26.24.49.15.79-.33,1a5.67,5.67,0,0,0-1.61.81c-.18.16-.44,0-.64.15a.57.57,0,0,0,.35.36c.37.13.74.27.66.77a1.2,1.2,0,0,1-1.09,1,4.25,4.25,0,0,1-1.13-.1c-.16-.12-.36,0-.52-.08H73c-.27.09-.56-.05-.83.08-.65,0-1.29,0-1.93,0a1.6,1.6,0,0,1-1.53-1.16,3.79,3.79,0,0,1-.29-1.45c0-.47.27-.7.73-.58a3.84,3.84,0,0,0,.82.07.64.64,0,0,0,.54,0,2.71,2.71,0,0,0,.82-1,1.84,1.84,0,0,1,1.7-1c-.21-.42-.85-.54-.73-1.17,0-.13-.22-.09-.35-.07a8.22,8.22,0,0,0-1.35.53,1.26,1.26,0,0,1-.61,0,6.74,6.74,0,0,1-3.16-1.45,5.28,5.28,0,0,1-.44-.36c-.52-.56-.52-1.09.09-1.74a4.11,4.11,0,0,1,2.32-1.37c.43-.07.36-.36.35-.62,0-.53.16-.87.72-.95a1.24,1.24,0,0,0,.74,0c1,0,2-.36,3-.44a5.86,5.86,0,0,1,1.45,0c.82.18.81.17,1.26-.58a1.15,1.15,0,0,1,.84-.68c.34-.1.7.05,1-.08l.84,0c.2-.09.43,0,.63-.08l.63,0c.23-.1.49,0,.73-.09,1.11,0,2.22,0,3.33.1.2.13.43,0,.63.09l.52,0c.16.12.36,0,.52.08a10.6,10.6,0,0,1,3.58,1c.17.09.33.13.47,0a7,7,0,0,1,3.5-1.8,8.33,8.33,0,0,0,3.08-1.84,6.22,6.22,0,0,1,1.4-.73h1.46a9,9,0,0,1,2.07,1.46c.26.29.63.11.84-.17a5.93,5.93,0,0,1,.63-.69c.48-.45.87-.37,1,.25.25.92.44,1.85.64,2.77a4.29,4.29,0,0,0,2.6,3.14,4.64,4.64,0,0,1,2.86,3.28,4.29,4.29,0,0,1,0,1.24,2.35,2.35,0,0,0,1,2.09,3.18,3.18,0,0,1,1.27,1.9,2.59,2.59,0,0,1,0,.92A6.16,6.16,0,0,1,108.66,33a.43.43,0,0,0-.27.34,8.77,8.77,0,0,1-1.77,2.78,26.25,26.25,0,0,0-3.13,3.53,4.45,4.45,0,0,0-.73,2C102.64,41.78,102.77,42,102.67,42.14Z"/><path class="cls-1" d="M0,52.18c.26,0,.48.2.42.47s-.26.16-.42.05Z"/><path class="cls-1" d="M0,53a.56.56,0,0,1,.5.21c-.18.18-.34.05-.5,0Z"/><path class="cls-1" d="M190.35,22.39c1.32.49,1.91.22,3.13-1.22.41-.48.74-1,1.38-1.19a1.59,1.59,0,0,1,.72,0c.68.24,1.06.87,1.61,1.28a1.37,1.37,0,0,0,.8.31.62.62,0,0,0,.53,0l.84-.13a1.59,1.59,0,0,1,.72,0,2.12,2.12,0,0,1,1.82,1.47,1,1,0,0,1-.41,1.22,10.46,10.46,0,0,1-1.11.66c-.43.21-.36.48-.11.75s.93.39,1.43.5a1.84,1.84,0,0,0,.47,0c.19.12.42,0,.62.09l.73,0c.16.11.36,0,.53.08a5.84,5.84,0,0,1,2.38.83,1.14,1.14,0,0,0,1.75-.37,1.42,1.42,0,0,1,1.88-.51,2.65,2.65,0,0,0,1.44.32c.24-.05.39.36.2.6a3.13,3.13,0,0,1-.51.52c-.32.25-.25.53.07.63.62.19.86.7,1.17,1.18.56.84,1.06.84,1.7,0,.18-.23.35-.49.7-.48A4.28,4.28,0,0,1,216,29c.72.12,1.43.27,2.15.33s1-.25,1.22-.94a1.38,1.38,0,0,1,1.6-1c.91.2,1.82.4,2.74.55a6.89,6.89,0,0,1,3.19,1.42,2.6,2.6,0,0,0,1.76.68.58.58,0,0,0,.53,0,9,9,0,0,0,1.36-.23,2.84,2.84,0,0,1,.92,0,2.36,2.36,0,0,1,1.72,1.3c.43.84.84.91,1.86.76a7.55,7.55,0,0,1,1.43-.16c.34,0,.6.28.95.21.23.13.5,0,.73.09a2.39,2.39,0,0,1,1.26.57c.23.18.46.52.84.25a.7.7,0,0,0,0-.6,2.43,2.43,0,0,1-.1-.6c0-.28.19-.47.48-.39a5.32,5.32,0,0,0,1,.06c.16.11.36,0,.52.08l.74,0c.19.12.43,0,.63.09A13.36,13.36,0,0,1,246,32a3.27,3.27,0,0,1,2.15,2.09,1.46,1.46,0,0,1,0,.72,4.49,4.49,0,0,1-1.35,1.92c-.34.32-.64.67-1,1-.06.29.27.06.31.23a1.28,1.28,0,0,0-.26,1.73c.38.64.21.94-.37,1.09a.89.89,0,0,1-.51,0,1.58,1.58,0,0,0-1.27.33,15.17,15.17,0,0,1-7.08,2.59,2.47,2.47,0,0,0-1.23.36.92.92,0,0,0-.47.76,1,1,0,0,0,0,.65,1.93,1.93,0,0,0,.12.5,1.94,1.94,0,0,1-.4,2.51,36.88,36.88,0,0,0-2.44,3.26A6.13,6.13,0,0,1,231,53.14c-.2-1-.39-1.93-.59-2.87a7.71,7.71,0,0,1-.22-1.59,3.25,3.25,0,0,1,1.36-2.74,17.58,17.58,0,0,0,2.78-2.74.36.36,0,0,0-.28-.61,1.92,1.92,0,0,1-1.31-.68c-.62-.58-.91-.58-1.54,0-.39.37-.8.72-1.19,1.09a2,2,0,0,0-.57,1c-.06.21.07.54-.27.62s-.84.36-1.21.1c-1.14-.81-2.37-.57-3.61-.37a4.4,4.4,0,0,1-1.91,0,1.33,1.33,0,0,0-1.41.4c-1.11,1.13-2.12,2.35-3.16,3.55l-.23.28c-.21.25-.6.46-.51.82s1.1.82,1.52.74A1.79,1.79,0,0,0,219,50a.66.66,0,0,1,1.06.34c.16.32.38.31.67.23.72-.19,1,0,1.17.69a8.08,8.08,0,0,1-.13,4.17c-.17.72-.35,1.44-.54,2.2a1.38,1.38,0,0,1-.38-1,17.51,17.51,0,0,1,.21-2.8c.11-.86,0-1.22-.72-1.4A8.73,8.73,0,0,1,218.85,57a23.69,23.69,0,0,1-2.66,3.33,1,1,0,0,1-1.11.35,1.54,1.54,0,0,0-1.82.76c-.29.47-.56,1-.85,1.44a2,2,0,0,1-.7.76.38.38,0,0,0-.07.68,3.53,3.53,0,0,1,.91,1.79,1.46,1.46,0,0,1-1,1.87c-.17.05-.34.08-.51.12-.57.14-.56.14-.43-.44a3.08,3.08,0,0,0-.44-1.82,7.38,7.38,0,0,1-.58-1.55c-.07-.47-.48-.61-1.33-.58-.27.1-.57,0-.83.09a10.27,10.27,0,0,0-2.14.34c-.52.17-.54.36-.17.75a1.74,1.74,0,0,1,.3.36.52.52,0,0,0,.74.25,1.52,1.52,0,0,1,1.64.33c-.16.32-.52.38-.77.58a1.71,1.71,0,0,0-.57,2.45,4.73,4.73,0,0,1,.85,2.68,8,8,0,0,1-1.86,4.64,6.06,6.06,0,0,1-3.08,2c-.79.24-1.57.53-2.36.79-.14.54,0,1.1-.09,1.65a1.9,1.9,0,0,1-.44.62.83.83,0,0,1-.62,0c-.47-.16-.34-.5-.21-.8a9,9,0,0,1,.45-.94c.11-.2.09-.37-.14-.46a1.43,1.43,0,0,0-2,1.14.94.94,0,0,0,0,.64,2.49,2.49,0,0,0,.77,1.43,5.44,5.44,0,0,1,1.34,2.54,1.89,1.89,0,0,1,0,.82c-.3,1.54-1.49,2.25-2.72,2.93-.26.14-.36-.06-.43-.23a7.31,7.31,0,0,0-2.64-3c-.08-.07-.15-.19-.28,0a3.39,3.39,0,0,0-.13,3.4,6.46,6.46,0,0,0,2,2,9.63,9.63,0,0,1,2.81,4,9.19,9.19,0,0,1-3.1-1.59,3.82,3.82,0,0,1-1.7-2.44.69.69,0,0,0-.24-.33,3,3,0,0,1-1-2.2,5.46,5.46,0,0,1,0-1.34l0-.94a1.54,1.54,0,0,0,0-.85c-.23-.69-.46-1.37-.67-2.07-.1-.32-.25-.42-.56-.24a4.93,4.93,0,0,1-.46.23c-.63.27-1.17,0-1.11-.66.14-1.55-.71-2.61-1.66-3.64-.1-.12-.18-.25-.28-.37s-.22-.2-.36-.1a3.6,3.6,0,0,1-1.52.47,1.85,1.85,0,0,0-1.44,1.15,2.16,2.16,0,0,1-.89,1,9,9,0,0,0-2.85,2.9,4.11,4.11,0,0,0-.54,2.39c-.12.2,0,.43-.09.63l-.13.62c-.06.11,0,.27-.2.32-.81.65-1.27.58-1.87-.3a18.35,18.35,0,0,1-2-4.54,14,14,0,0,1-.76-3c-.1-.19,0-.42-.09-.61l-.72.1a1.4,1.4,0,0,1-1.49-.89,9.87,9.87,0,0,0-.74-1.3,3.29,3.29,0,0,0-2.16-1.37,2.42,2.42,0,0,0-1.07,0c-.5,0-1,.1-1.48.12a4.72,4.72,0,0,1-2.7-.71c-.13-.08-.26-.24-.31.06a1,1,0,0,0,0,.65,1.22,1.22,0,0,0,.65.83c.25.16.52.29.77.45a1,1,0,0,1,.38,1.65,12.29,12.29,0,0,1-1,1.28,16.32,16.32,0,0,1-6.71,4.61,7.83,7.83,0,0,1-2.54.48c-.32,0-.4-.09-.48-.36a24.38,24.38,0,0,0-2.11-5.06c-1-1.72-2.06-3.37-2.92-5.15-.12-.23-.21-.47-.31-.71a.54.54,0,0,0-.84-.3.58.58,0,0,0-.3.86c.78,1.77,1.57,3.54,2.33,5.33a22.5,22.5,0,0,0,1.24,2.91,6.36,6.36,0,0,0,1.21,1.42,4.83,4.83,0,0,1,.87.88.63.63,0,0,0,.63.28.28.28,0,0,1,.14.4c-.24.42.07.73.25,1s.43-.11.67-.08a1.19,1.19,0,0,1,.62,0c.39-.19.78-.36,1.16-.58a1.42,1.42,0,0,1,.42-.15c.24-.09.5,0,.73-.08s.56-.6,1-.42c.1.19,0,.39.05.58s0,.22.17.16a3.83,3.83,0,0,1-.17,1.81A10.64,10.64,0,0,1,156,93.57a15.1,15.1,0,0,0-2.95,3.33c-.25.39-.67.59-.9,1a3.18,3.18,0,0,0-.51,1.72.88.88,0,0,0,0,.64,12.27,12.27,0,0,0,.69,3c.12.48.25,1,.38,1.44.09.17,0,.37.08.53a8.72,8.72,0,0,1-1,2.76c-.25.65-1,.92-1.61,1.16a2.08,2.08,0,0,0-1.24,2.7,3.45,3.45,0,0,1,.24.79,1.52,1.52,0,0,1-.77,1.68,1.68,1.68,0,0,0-1.06,1.41,7.53,7.53,0,0,1-3.41,5.07,8.21,8.21,0,0,1-3.63,1.57c-.16.1-.36,0-.52.09-.71-.07-1.47.2-2.1-.36a.15.15,0,0,0-.23,0c-.32.41-.62.17-.88,0s-.61-.16-.52-.69c.05-.26-.18-.56.05-.91s-.08-.54-.25-.75a4.17,4.17,0,0,1-.67-1.33,1.64,1.64,0,0,0-.31-.65,4.17,4.17,0,0,1-1.14-2.89,2.19,2.19,0,0,1-.11-.76.68.68,0,0,0,0-.54,2.52,2.52,0,0,0-.49-1.18A10.06,10.06,0,0,0,131.8,110a.8.8,0,0,1-.18-.57,7.86,7.86,0,0,1,.43-2.76,3.07,3.07,0,0,1,.73-1.49,1,1,0,0,0,.14-1.33,2.76,2.76,0,0,1-.33-1.48,2,2,0,0,0-.5-1.52,2,2,0,0,1-.46-1.23,1.07,1.07,0,0,0-.39-.77,6.39,6.39,0,0,1-1.69-2.13c-.12-.24-.2-.48,0-.7a.39.39,0,0,0,.14-.33,6,6,0,0,1,.37-2,3.4,3.4,0,0,0,0-.78c0-.16,0-.27-.23-.27s-.22,0-.25,0c-.36-.75-1-.18-1.51-.35a2.26,2.26,0,0,1-.82,0c-.26,0-.27-.28-.34-.47a2.48,2.48,0,0,0-.41-.77.52.52,0,0,0-.63-.17c-1.34.46-2.75.6-4.12.93a5.35,5.35,0,0,1-1.9-.12,5,5,0,0,0-.77,0c-.17.09-.37,0-.53.08s-.12,0-.15,0c-.8.7-1.45.13-2-.32a10.78,10.78,0,0,1-1.19-1.24c-.37-.36-.76-.7-1.15-1.05a.57.57,0,0,1-.25-.54c.14-.62-.33-.94-.57-1.4s-.83-.6-1-1.18c0-.21-.42-.43-.48-.75a3.63,3.63,0,0,1,0-1.14c0-.11,0-.26,0-.31-.46-.45-.07-.77.07-1.2.25-.79.89-1.44.8-2.35,0-.45-.23-.92.16-1.36.1-.12-.18-.33-.3-.44-.44-.42-.23-.78.06-1.12a14.08,14.08,0,0,0,1.53-2.06,18.59,18.59,0,0,1,1.47-1.91,1,1,0,0,1,.79-.5c.75,0,1.15-.65,1.67-1a.75.75,0,0,0,.27-.88c-.07-.16,0-.3.1-.44a5.19,5.19,0,0,1,1.88-2c1.11-.87.75-1.59-.18-2.11a7.17,7.17,0,0,0-.71-.3.56.56,0,0,1-.39-.45c-.11-.27,0-.57-.09-.84l0-.31a3.24,3.24,0,0,1,0-1l.12-1.36c.13-.23,0-.5.09-.73v-.22a.84.84,0,0,1,0-.52.5.5,0,0,1,.44-.43c.41-.12.84,0,1.25-.09a5.08,5.08,0,0,1,1.45.15,1.62,1.62,0,0,0,2-2.1,3,3,0,0,0-1.65-1.77c-.25-.14-.52-.26-.81-.41a3.25,3.25,0,0,1,1.76-.88,3.6,3.6,0,0,0,1.85-.86l.14-.15c.13-.22.4-.46.26-.69s-.45,0-.67,0-.71.16-1.07.24a2.9,2.9,0,0,1-.93,0,1.5,1.5,0,0,1-.92-.39c-.5-.32-1-.66-1.48-1a.62.62,0,0,0-.53,0,2.1,2.1,0,0,0-.78.38c-.46.28-.76.17-1-.33a3.23,3.23,0,0,1,1.29-3.68,3.85,3.85,0,0,1,.84-.23c.36-.12.84-.13.58-.76-.1-.24.15-.52.08-.81.11-.16,0-.35.08-.52,0-.48.21-.85.73-.92a1.3,1.3,0,0,1,1.25.59,4,4,0,0,1,.35.75c.12.41,0,.84.09,1.26a3.64,3.64,0,0,0,1.06,2.14,7.49,7.49,0,0,0,.85.84,1.34,1.34,0,0,1,.44,1.5c-.05.19-.12.43,0,.55s.37,0,.53-.07a4.78,4.78,0,0,0,1.8-1.47,3.33,3.33,0,0,1,2.41-1.32S131,50,131,50a.88.88,0,0,0,0-.64c0-.4-.33-.73-.34-1.15a1.26,1.26,0,0,1,0-.61,2.06,2.06,0,0,1,1.06-1.35c.39-.27.45-.72.71-1.06.08-.1,0-.23-.15-.29a.36.36,0,0,0-.46,0,6.24,6.24,0,0,1-1.24.86c-.68.3-1.09.2-1.41-.46a5.81,5.81,0,0,1-.71-2.1c-.08-.17,0-.36-.08-.52a1.93,1.93,0,0,1,1.17-1.9,10,10,0,0,0,3.22-2.89c.92-1.17,1.71-2.44,2.73-3.52a14.93,14.93,0,0,1,6.87-4c.38-.11.77-.22,1.16-.3a2.29,2.29,0,0,1,2.13.83,4.27,4.27,0,0,0,1.66.93c1.11.39,2.26.66,3.34,1.14a5.91,5.91,0,0,1,2.12,1.47,1.54,1.54,0,0,1,.38.84c.05.13.07.27.27.26a9.29,9.29,0,0,0,1.49-.06c0-.57,0-1.15,0-1.72,0-.19,0-.39.21-.49a1.26,1.26,0,0,1,.61,0,3.41,3.41,0,0,1,.46.1c.37.14.47.38.23.72,0,.07-.12.13-.16.2-.15.25-.49.46-.1.78a.77.77,0,0,0,1.08,0,4.78,4.78,0,0,1,3.84-1.8c.45-.1.91,0,1.36-.08l1.15,0c.16-.09.36,0,.52-.09.47,0,.93-.22,1.42,0,.23.08.27-.23.36-.38.28-.48.52-1,1.15-1.17a1.59,1.59,0,0,1,.72,0,12,12,0,0,1,1.47.75l.23.11c.9.41,1.06.3,1-.65,0-.07,0-.13,0-.2a2.43,2.43,0,0,1,0-.93,3.86,3.86,0,0,1,1.93-3.2,1.2,1.2,0,0,1,1.87.41c.28.45.52,1,1.23.71.19-.07.31.13.42.25a.74.74,0,0,0,1.07.1,2.81,2.81,0,0,1,1.78-.72c.52,0,.74-.43.82-.92.17-1.05.39-1.26,1.46-1.22.67,0,1.32-.14,2-.12a.6.6,0,0,0,.54,0c.62-.17.37-.66.39-1.05a.75.75,0,0,1,0-.51,1.72,1.72,0,0,1,1.37-1c.2-.1.43,0,.63-.09a8.13,8.13,0,0,0,2-.56,8.1,8.1,0,0,1,1.2-.3A3.89,3.89,0,0,1,190.35,22.39Z"/><path class="cls-1" d="M78.51,82.07a4,4,0,0,1-.06,1,.38.38,0,0,1-.66.2,10.2,10.2,0,0,1-1.4-1.54,6.09,6.09,0,0,1-1.1-1.8,8,8,0,0,0-.44-.94c-.22-.39-.47-.42-.78-.1s-.57.64-.94,0a.5.5,0,0,0-.73-.16c-.27.17-.67,0-.87.35,0,0,0,0,0,0-.21-.42-.4-.06-.61,0a2.1,2.1,0,0,0-.81.31.37.37,0,0,1-.35.06c-.13,0-.27-.14-.3.1s.13.22.26.27.48-.09.4.34c0,.12.31.3.45.49a1,1,0,0,1-.61-.23c-.28,0,0,.25-.19.3s-.31,0-.4.06-.34,0-.51-.08-.53-.71-.94-.14c-.07.1-.19,0-.29,0-.3-.07-.62-.1-.92-.18-.12,0-.15,0-.18.1s-.07.17-.09.17c-.77-.12-.58.72-1,1s-.43.69-.41,1.12a.64.64,0,0,0,0,.54,3.59,3.59,0,0,0,1.92,3.2.77.77,0,0,0,.49.13.55.55,0,0,0,.53,0,2.54,2.54,0,0,0,1.59-1.51,1.65,1.65,0,0,1,2.11-.91c.57.18.65.38.39.9a11.38,11.38,0,0,0-.74,3.4c.72.14,1.45,0,2.18.09.49.09,1,.21,1.17.75a.81.81,0,0,1,0,.51,4.59,4.59,0,0,0-.34,1.72,3.09,3.09,0,0,0,1.14,2.08c.13.12.29.08.45.08a1.08,1.08,0,0,1,.61.1c.24.13.49.39.76,0a.25.25,0,0,1,.25,0c.45.43,1.15.19,1.61.61.2.17.46.11.7.1a1,1,0,0,1,.89.44,2.31,2.31,0,0,0,2.3.89c.24,0,.48-.06.72-.09a2.84,2.84,0,0,1,.92,0A3,3,0,0,1,87,97.27a5.15,5.15,0,0,0,4,2.35,3,3,0,0,1,2.42,2,3.88,3.88,0,0,1,.14.45,2.64,2.64,0,0,1,0,.93c-.16.76.3,1.33,1.22,1.35a2.26,2.26,0,0,1,1.48.57,7.94,7.94,0,0,0,3,1.22,13.39,13.39,0,0,1,2.74,1,2.82,2.82,0,0,1,1.43,4.18c-.46,1-1,1.88-1.43,2.83a24.6,24.6,0,0,0-1.11,3.57,6.24,6.24,0,0,1-3.55,4.4,4.79,4.79,0,0,0-2.77,3.28,11.81,11.81,0,0,1-1.87,3.52,6.65,6.65,0,0,1-1.5,1.26A8.94,8.94,0,0,1,89,131.4c-.4.14,0,.48,0,.72a3.63,3.63,0,0,1,0,1.14,1.32,1.32,0,0,1-.63.67c-3,1.28-4.31,3.85-5.12,6.79-.25.91-.42,1.85-.63,2.77a2.42,2.42,0,0,0,.22,1.61c.43.87.88,1.74,1.37,2.57,1,1.66.34,2.83-1.59,2.94a4.27,4.27,0,0,1-3.51-1.6A8.81,8.81,0,0,1,77,144.8a3.56,3.56,0,0,1,0-.47c-.09-.16,0-.36-.09-.52a8.14,8.14,0,0,1,.94-3.93,5.81,5.81,0,0,0,.42-1.7,11.79,11.79,0,0,0,0-2.52c0-.47,0-.94,0-1.41a18.39,18.39,0,0,1,.49-4.05c.27-1.61.59-3.21.78-4.83.12-1.06.28-2.12.42-3.17.11-.16,0-.36.08-.53l0-.52c.12-.23,0-.5.09-.73v-.75c-.08-.16,0-.36-.08-.52a3.47,3.47,0,0,0-2.32-2.79,3.63,3.63,0,0,1-1.73-1.87c-1-2-2-3.94-2.91-5.91a3.81,3.81,0,0,1-.38-1.66,2.84,2.84,0,0,1,0-.92,5.05,5.05,0,0,1,2-3.86,1,1,0,0,0,.43-1.23,1.76,1.76,0,0,1-.06-.46,4.68,4.68,0,0,1,0-1.24,7.07,7.07,0,0,1,1.2-3c.25-.42.29-.71-.17-.93a13,13,0,0,1-3.21-2.71,27.68,27.68,0,0,0-4.4-3.18,5,5,0,0,0-3.21-.75,3.61,3.61,0,0,1-2-.6c-1-.54-1.91-1.13-2.85-1.7a1.62,1.62,0,0,1-.89-1.5,3.61,3.61,0,0,0-1.13-2.5c-.62-.67-1.31-1.29-1.89-2a.84.84,0,0,1-.22-.36.57.57,0,0,0-.51,0c-.23.26,0,.49.06.72a3.87,3.87,0,0,0,.31.65c.18.35.15.64-.24.8a.61.61,0,0,1-.86-.4,4.42,4.42,0,0,1-.1-.5,1.21,1.21,0,0,0-.69-1c-.92-.4-1.11-.78-.51-1.67-1.27-.85-2.71-1.45-3.69-2.68-.17-.11-.37,0-.54-.08a3.63,3.63,0,0,1-.57,0c-.22,0-.48-.11-.46-.4,0-.75-.49-1.22-.89-1.73s-.52-.83-1.06-.93a.19.19,0,0,1-.13-.26c.19-.52-.08-1-.21-1.45a4.31,4.31,0,0,1-.19-1.26,4.62,4.62,0,0,0-.21-1.35,4.23,4.23,0,0,1-.21-2.17s0-.08,0-.1c-.33-.77.08-1.41.34-2.08,0,0,0-.1,0-.15.12-.28,0-.57.08-.85a2.1,2.1,0,0,1,.34-1c.43-.72.47-.92-.2-1.33-1.47-.91-1.89-2.35-2.2-3.87-.09-.45-.27-.67-.78-.66a1,1,0,0,1-1.1-.89,1.33,1.33,0,0,0-.17-.43c-.07-.08-.16-.14-.26,0s-.11.17,0,.26l0,0c.13.19.29.47.11.61s-.37-.13-.52-.3-.09,0-.17-.05c-.07.22.26.33.14.54-.43-.15-.6-.34-.51-.66s0-.59-.34-.72a.2.2,0,0,1-.1-.33,1,1,0,0,1,.67.06c.06,0,0-.11,0,0s0,0,0,0-.18-.13-.24-.23c-.14-.25-.5-.06-.63-.32s-.35-.52-.74-.43c-.06,0-.13-.12-.15-.2a3.93,3.93,0,0,0-.88-1.45,6.65,6.65,0,0,1,1,1.7,1.85,1.85,0,0,1,.2.63c0,.17,0,.39-.27.29-.12-.12-.21-.27-.35-.39s-.65-.26-.65-.73c0-.25-.41-.27-.58-.46-.15,0,.17-.44-.21-.21a.47.47,0,0,1-.61-.07A17.68,17.68,0,0,0,34.69,51c-.22-.13-.47,0-.7-.08s-.43-.32-.73-.24a1,1,0,0,0-.65,0l-.41,0a1.3,1.3,0,0,1-.62,0c-.31-.07-.5-.34-.88-.36a1.41,1.41,0,0,0-1.29.81c-.16-.48-.07-.71.31-.87.17-.07.46-.1.45-.28s-.26-.31-.48-.34a.89.89,0,0,1-.51,0c-.23-.14-.36-.08-.23.18a.86.86,0,0,1-.2,1c-.2.11-.44,0-.64.09-.25.51-.83.48-1.24.75a.75.75,0,0,1-.51,0c-.05-.42-.2-.85.19-1.19,0,0,.06,0,.06-.08.17-.69.5-1.11,1.29-.83l0,0s0,0,0-.08c-.17-.1-.26-.4-.54-.21-.71,0-.94.7-1.4,1.06a1.47,1.47,0,0,0-.49.71c0,.15-.12.22-.31.17s-.37.19-.46.38.06.26.24.32.12.22,0,.33A4.93,4.93,0,0,1,22.59,54a3.59,3.59,0,0,0-1.64.95,2.09,2.09,0,0,1-1.27.43,4.8,4.8,0,0,0-.75.09c-1.08.27-2.17.53-3.26.78-.12,0-.3.07-.36-.1s.08-.25.19-.34a.44.44,0,0,1,.19-.07,14.29,14.29,0,0,0,2.1-.67A7.84,7.84,0,0,0,20,54.27a14.57,14.57,0,0,0,1.55-1.12A2.11,2.11,0,0,0,22.11,52c-.23-.16-.71.17-.69-.5-.14.51-.32.56-.63.27s-.51-.52-.92-.34c-.06.2-.18.32-.41.23s-.16-.14-.28-.1c-.32.13-.27-.11-.22-.26s.17-.57.28-.85a3.11,3.11,0,0,0,0-1.1s.06-.12,0-.16-.08,0-.12,0l-.44.43a1.7,1.7,0,0,1-.71,0c-.42-.21-.45-.69-.68-1-.1-.14.26-.13.35-.26s.4,0,.58.07c-.16-.15-.43-.08-.57-.27s-.52-.21-.53-.61A1.46,1.46,0,0,1,18,46.34c.14-.06.29-.08.38-.23.27-.44.59-.72,1.12-.33a.32.32,0,0,0,.25,0c.32-.38.77-.37,1.2-.47a.42.42,0,0,0,.28-.69c-.2-.26-.09-.35.15-.44s.24-.14.21-.27-.27-.14-.35-.1c-.52.28-1,.49-1.52,0-.06-.06-.29.06-.44.09a.81.81,0,0,1-.84-.29c-.15-.27-.39-.59-.15-1s-.16-.3-.29-.4-.34-.17-.31-.37.25-.15.39-.19c.37-.1.77.06,1.13-.08A.88.88,0,0,1,20,41.3a.89.89,0,0,1,.51,0c.34.15,0,.31,0,.37-.18.26-.09.34.17.42a2.86,2.86,0,0,0,.92.07c.13-.14-.06-.15-.09-.22.2-.28-.13-.42-.17-.64s0-.46-.36-.44c-.19,0-.18-.19-.21-.35A1.88,1.88,0,0,0,20,39c-.26-.16-.2-.4-.11-.65s.26-.18.45-.15c1,.2,1.29,0,1.75-.87.31-.6.84-.77,1.87-.58-.25-.35-.08-.46.23-.48s.48,0,.73,0a.6.6,0,0,0,.49-.25c.2-.41.42-.23.65-.06.12,0-.05.35.23.21a1.15,1.15,0,0,0,1,.31c.11.15.39-.09.44.2s.12.34.29.42a.58.58,0,0,0,.53,0l.11,0a.65.65,0,0,1,.51,0,4.7,4.7,0,0,0,2.92.54c.19,0,.35.12.52.21a4.56,4.56,0,0,0,2.31.81.62.62,0,0,0,.53,0,1.31,1.31,0,0,0,.83-.27,2.68,2.68,0,0,1,2.09-.28A.56.56,0,0,0,39,38a2.34,2.34,0,0,1,2.16-.85c.2.12.43,0,.63.08l.52,0a1.17,1.17,0,0,0,.74,0,1.84,1.84,0,0,0,1.39-.78c.1-.14.21-.2.33-.05a2.51,2.51,0,0,0,2.46.71c.17-.09.37,0,.52-.09a3.05,3.05,0,0,1,2.17.64,3.12,3.12,0,0,0,2.11.51c.3.13.63,0,.94.09a.78.78,0,0,0,.63-.1c0-.12,0-.12-.3-.18a2.65,2.65,0,0,1-1.3-.46.44.44,0,0,1-.27-.46.46.46,0,0,1,.35-.45l.79-.23c.11-.19,0-.24-.16-.25a1.43,1.43,0,0,1-.46,0c-.65-.07-.92-.56-1.14-1.08-.13-.3-.22-.61-.34-.92s-.47-.45-.78-.13a4.15,4.15,0,0,1-1.41,1.19,1.59,1.59,0,0,1-.72,0,1.86,1.86,0,0,1-1.16-.72c-.23-.23-.66-.32-.64-.76a.89.89,0,0,1,0-.51,2.86,2.86,0,0,1,3.69-2.56,15.6,15.6,0,0,0,1.93.35,1.69,1.69,0,0,1,1,.43.88.88,0,0,1,0,.62c0,.14-.27.43.09.41a11.37,11.37,0,0,1,3.26.7,1.68,1.68,0,0,0,.86,0,.62.62,0,0,1,.91.43c.18-.11.18-.14.09-.52,0-.83.23-1,1-.73A1.45,1.45,0,0,1,60,33.42a4.24,4.24,0,0,0,2.43,3.17c.42.17.44.4.09.68l-.36.29c-.11.09-.29.18-.3.28-.06.81-.76,1-1.4,1.31a5,5,0,0,0,2.67.58c.2-.1.43,0,.63-.09.7-.23.77-.36.59-1a4.74,4.74,0,0,1-.16-.65.69.69,0,0,1,.64-.83c.48-.07.67-.27.61-.78a1.34,1.34,0,0,1,.21-1.14q.15-.16,0-.36c-.21-.25-.41,0-.62,0a2.06,2.06,0,0,1-.82,0A2.23,2.23,0,0,1,63,34.14a5.58,5.58,0,0,0-.94-.81.39.39,0,0,1-.17-.57c.13-.25.28,0,.43.05.48.13.59-.22.69-.56s.12-.84.62-1a1.35,1.35,0,0,1,.72,0,1.28,1.28,0,0,1,.94,1,1.46,1.46,0,0,0,.63.85c.1.06.17.18.31.09s.12-.2.12-.32c0-.31,0-.62,0-.93,0-.64.37-.91,1.14-1a1.19,1.19,0,0,1,.62,0,5.18,5.18,0,0,1,1.69.33,1.59,1.59,0,0,1,0,.72c-.26.6-.89.67-1.38.92-.33.17-.61.34-.62.74a1,1,0,0,0,0,.66,2.81,2.81,0,0,0,.56,1c.35.57.77,1.12.51,1.87-.07.19.07.32.24.4a4,4,0,0,0,1.17.39,1.48,1.48,0,0,1,1.39,1.63c0,.2-.06.44.19.54a.51.51,0,0,0,.64-.22,3.93,3.93,0,0,0,.85-1.63,1.84,1.84,0,0,0,0-1c-.13-.51-.63-.51-1-.7-1.36-.73-2.51-2.21-1.88-3.85a2,2,0,0,1,1.84-1.31,4,4,0,0,1,.85,0c.09,0,.21,0,.18.15a2.11,2.11,0,0,0-.61,2c0,.16,0,.43.28.43s.25-.24.33-.4a1.79,1.79,0,0,1,0-.83,2,2,0,0,1,2.32-1.22,1.12,1.12,0,0,1,.93,1.2c0,.14,0,.28,0,.42,0,.54.16.65.67.47a7.47,7.47,0,0,1,1.43-.46,2.57,2.57,0,0,1,2.1.84,5.92,5.92,0,0,0,1.93,1.11c.89.36,1.66.92,2.51,1.35.59.3.6.83.14,1.45s-.37.51.18,1a11.51,11.51,0,0,0,3.17,1.73c.88.35.95.81.3,1.49a1.63,1.63,0,0,0-.48.77c-.1.39-.44.55-.81.66-.61.19-.67.33-.48.95,0,.13.08.27.11.4.18.77.18.77-.55,1a1.86,1.86,0,0,0-.75.45c-.65.6-.9.63-1.68.2l-1.09-.6a2.53,2.53,0,0,1-.94-.87,2.49,2.49,0,0,0-1.26-1.11,1.11,1.11,0,0,0-.74,0c-.4,0-.73.3-1.14.34a.67.67,0,0,1-.82-.51c-.09-.4-.06-.81.51-.88a2.26,2.26,0,0,1,.82,0c.81,0,1.17-.23,1.55-1.16a3.85,3.85,0,0,1,.63-1.4c.18-.19.07-.47-.12-.65s-.53-.43-.81-.64-.31-.16-.46,0-.31.24-.23.48a.77.77,0,0,1-.39,1,.89.89,0,0,1-1.12-.25,1.15,1.15,0,0,1,0-.61,3.16,3.16,0,0,0,.52-1.2c.09-.75-.31-1.55-1-1.59a4.35,4.35,0,0,0-1.68.22c-.29.1-.47.55-.52.9a3.13,3.13,0,0,1-.2.8A1.36,1.36,0,0,0,76,40a.82.82,0,0,1-.46,1.27,6.6,6.6,0,0,1-1,.32.54.54,0,0,0-.35.18c-.48.59-.46.75.21,1.12a7.21,7.21,0,0,1,1.88,1.55c.12.15.34.3.16.54a.47.47,0,0,1-.61.12c-.23-.1-.45-.25-.68-.37s-.6-.19-.72.11a1.71,1.71,0,0,1-.93.85.69.69,0,0,1-.51,0c-.46-.11-.6-.51-.78-.85s-.45-.72-1-.42-1,.28-1.24,1c-.07.23-.44.37-.64.58-.42.44-.83.89-1.24,1.34a3.4,3.4,0,0,0,.26,4.36,1.26,1.26,0,0,0,.72.39,6.22,6.22,0,0,1,2.88,1.22,5.17,5.17,0,0,0,2.46,1,.93.93,0,0,0,.24,0c.68-.08.82,0,1,.68.11.41,0,.84.09,1.26A2.47,2.47,0,0,0,77,58.09a.63.63,0,0,0,.67-.16.72.72,0,0,0,.24-.8,4.1,4.1,0,0,1-.31-1.19.81.81,0,0,1,0-.51,2,2,0,0,1,1-1.6,1.49,1.49,0,0,0,.74-.82.62.62,0,0,0-.11-.72,2.38,2.38,0,0,1-.79-2.14c0-.26,0-.52,0-.78s0-.43.09-.63v-.43c-.09-.16,0-.36-.09-.52l0-.42a1.59,1.59,0,0,1,0-.72c0-.27.21-.32.45-.32s.41,0,.62,0,.43,0,.63-.08a2.82,2.82,0,0,1,2,.66,15.78,15.78,0,0,0,1.38,1,1.72,1.72,0,0,1,.73,1.61c0,.83.12,1.07.94,1.21a.64.64,0,0,0,.54,0,2.2,2.2,0,0,0,1-1c.48-.83,1-.84,1.41.06s.89,1.87,1.42,2.77a8.42,8.42,0,0,0,2.78,3c1,.64,1.19.94.9,2.1a2.07,2.07,0,0,0,.5,2A23.56,23.56,0,0,1,95.46,62a.54.54,0,0,1,0,.51l-.09.1a.83.83,0,0,1-.62,0,.64.64,0,0,0-.85-.34,1.88,1.88,0,0,1-1.07-.12,2.68,2.68,0,0,0-2.29.2l1.93-3.73-.07-.11c-2.08,1-4.48.62-6.65,1.54.39.25.79.12,1.15.24a.76.76,0,0,1,.61,1c0,.16-.08.31-.12.46-.3,1,.15,1.65,1.28,1.73a1.08,1.08,0,0,0,.73,0,1.4,1.4,0,0,1,.23-.74.58.58,0,0,1,.56-.3c.26,0,.26.25.31.42.19.6,0,1-.49,1.18a8,8,0,0,0-2.29,1.18A1.29,1.29,0,0,1,86,65.07a1,1,0,0,0-1.47.2,17,17,0,0,1-2.62,2.81c-1.08,1-2,2.18-2,3.84-.12.23,0,.5-.09.73a2.81,2.81,0,0,1-1.18,1.28,6.55,6.55,0,0,0-2,1.72A2.11,2.11,0,0,0,76.53,78c.23.45.51.86.76,1.29a13.92,13.92,0,0,0,.77,1.48,7.3,7.3,0,0,1,.36.68C78.52,81.64,78.39,81.88,78.51,82.07Z"/><path class="cls-1" d="M211,127.73a6.35,6.35,0,0,0-.84-4.15,7.24,7.24,0,0,1-.94-3,2.06,2.06,0,0,1,0-.82,3.36,3.36,0,0,1,2.43-2.92,8.15,8.15,0,0,0,2-.94,5.91,5.91,0,0,0,1.37-1.59,16.28,16.28,0,0,1,2.73-2.83,1.2,1.2,0,0,1,1.5,0c.6.34.89.22,1.1-.43a2,2,0,0,1,1.69-1.54,3,3,0,0,1,1,0,10.71,10.71,0,0,0,1.78.23c.11.08.23,0,.35,0s.28.06.19.25a.91.91,0,0,0-.12.62,2,2,0,0,0,0,1c0,.87.65,1.3,1.31,1.68a2.24,2.24,0,0,0,1,.3.64.64,0,0,0,.54,0,3,3,0,0,0,.63-1.77c.11-.16,0-.36.08-.52a3.53,3.53,0,0,1,.57-2.07c.07-.11.12-.29.29-.25s.1.2.13.3a15.89,15.89,0,0,0,1.72,3.6,9.58,9.58,0,0,1,.71,1.39,13.14,13.14,0,0,0,2.52,3.72,8,8,0,0,1,2.13,5.49,6.82,6.82,0,0,1-1.23,3.59,6.16,6.16,0,0,0-1.14,2.63,2.47,2.47,0,0,1-3.07,1.91l-.31,0c-.3-.13-.63,0-.93-.08a11.91,11.91,0,0,1-1.34-.12,1.6,1.6,0,0,1-1.32-1.19c-.18-1.29-1.13-1.93-2-2.64a23.2,23.2,0,0,0-2.89-2,3,3,0,0,0-1.24-.45.64.64,0,0,0-.54,0,5.81,5.81,0,0,0-2.81,1.11,14.69,14.69,0,0,1-4.2,2,10.48,10.48,0,0,0-1.28.58,1.06,1.06,0,0,1-1.54-.54A.81.81,0,0,1,211,127.73Z"/><path class="cls-1" d="M204.91,103.79c-.39,1.15-.39,1.16.82,1.46a29.8,29.8,0,0,1,3.57.84,7.86,7.86,0,0,1,1.63.9c.07.05.21.09.12.22s-.13,0-.2,0c-.23-.12-.49,0-.72-.08l-.84,0c-.2-.12-.43,0-.63-.08a6.82,6.82,0,0,1-4.06-1.19c-1.55-1.24-3.12-2.48-3.91-4.42a5.17,5.17,0,0,0-2-2c-1.87-1.36-3.77-2.66-5.66-4a2.59,2.59,0,0,1-.35-.31c-.1-.11-.37-.13-.3-.3s.34-.12.51-.1a12,12,0,0,1,3.35,1.07,20.61,20.61,0,0,1,5.21,3.4c.77.72,1.55,1.43,2.34,2.14a3.5,3.5,0,0,1,1.08,1.74A1.75,1.75,0,0,1,204.91,103.79Z"/><path class="cls-1" d="M227.68,107.36c-.78,0-1.13-.36-1.14-1a2.11,2.11,0,0,0-2-2.22c-.61-.11-1.28-.09-1.74-.66a4.36,4.36,0,0,1-.42-.72,3.17,3.17,0,0,0-.39-.67c-.22-.22-.47-.44-.28-.74a1,1,0,0,1,1-.4,1.09,1.09,0,0,1,1,.92,2.64,2.64,0,0,0,.15.55c.16.33.37.55.82.39a6.31,6.31,0,0,1,1.56-.35,8.13,8.13,0,0,1,1.56,0,6,6,0,0,1,4.2,2.69,14.41,14.41,0,0,0,2.38,3c.41.34,0,.34-.21.4a.89.89,0,0,1-.51,0,2.34,2.34,0,0,1-1.39-.73,5.34,5.34,0,0,0-1-.92,1,1,0,0,0-1.31.18c-.36.44-.73.68-1.28.4C228.32,107.32,228,107.47,227.68,107.36Z"/><path class="cls-1" d="M137.48,16.14a5.15,5.15,0,0,1,4.12-.58,6.78,6.78,0,0,0,.77,0c.16.12.37,0,.53.09h.84a3.31,3.31,0,0,1-2.62,1.91,3.63,3.63,0,0,1-1.14,0h-.53c-.13.15,0,.36-.11.51A2.42,2.42,0,0,0,138,19.49a5.11,5.11,0,0,1-1.21,1.67c-.26.23-.59.46-.87.2s-.89-.44-.52-1.06c.1-.17-.11-.17-.19-.24-.29-.26-.67-.5-.26-1a1.64,1.64,0,0,1-1.72-.83c-.32-.55-.66-1.08-1-1.64.37-.08.71.16,1.07.08a2,2,0,0,0,1,0,25.85,25.85,0,0,0,2.61-.44C137.05,16.13,137.28,16.25,137.48,16.14Z"/><path class="cls-1" d="M212.82,69.32a4.85,4.85,0,0,1,1.24-1.48,13.68,13.68,0,0,1,3.07-1.51,4.35,4.35,0,0,0,2.59-3.25.82.82,0,0,0,0-.41,2.76,2.76,0,0,1,.45-2.28,3.85,3.85,0,0,0,.71-1.72c0-.22.14-.18.29-.14a1.48,1.48,0,0,1,.75.62,1.09,1.09,0,0,0,.93.46c.52,0,.69.35.47.81a1.81,1.81,0,0,1-1.94,1c-.69-.09-.82-.06-.72.63.08.53.14,1.06.22,1.59a4.13,4.13,0,0,1-1.76,4A8,8,0,0,1,215,69.29c-.46.06-.73.24-.8.72a1.62,1.62,0,0,1-.65,1c-.18.14-.31.1-.38-.12s-.23-.72-.35-1.09A.75.75,0,0,1,212.82,69.32Z"/><path class="cls-1" d="M158.6,106.72c0,.21-.1.44.08.63a.59.59,0,0,1,0,.52c-.22.3-.22.3-.52.09,0,.05,0,.1,0,.15,0,.42.37.85-.27,1.26-.33.21-.18.93-.38,1.41-.58,1.36-1.24,2.69-1.76,4.09-.09.23,0,.6-.41.64-.17.1-.37,0-.53.09-.31,0-.55.32-.95.06a1.33,1.33,0,0,1-.6-1.41.65.65,0,0,0,0-.53,1.29,1.29,0,0,1,.25-1.39,4.32,4.32,0,0,0,.66-1.17c.18-.4-.18-.79-.09-1.2a1.46,1.46,0,0,1,0-.72c.16-.76.66-1,1.4-1.2a2,2,0,0,0,1.32-1.15c.07-.14.32-.24.14-.52s.16-.15.28-.17.21,0,.3-.11a.59.59,0,0,0,.14-.57c-.06-.23.15-.36.29-.56l.64,1A1.46,1.46,0,0,1,158.6,106.72Z"/><path class="cls-1" d="M163,28.58a1.9,1.9,0,0,0,.61,1.28c.29.32.2.47-.2.57-1,.27-1.73-.35-2.44-.92a3.1,3.1,0,0,0-.66-.5c-.36-.15-.25-.33-.11-.55.54-.86,1-1.83,2.09-2.11.19,0,.19-.22.19-.39a3,3,0,0,1,1.33-2.29A8.45,8.45,0,0,1,168,22a12.2,12.2,0,0,0,2.45-.68,1.1,1.1,0,0,1,1.17.05.71.71,0,0,1,0,.62,6.76,6.76,0,0,1-2.51,1,7.8,7.8,0,0,0-3.58,1.65,24.5,24.5,0,0,0-2.27,2.4,1.48,1.48,0,0,0-.31,1A.66.66,0,0,0,163,28.58Z"/><path class="cls-1" d="M209.39,103.29a5.82,5.82,0,0,1-.93-.07,1.9,1.9,0,0,1-1.44-1.35,16,16,0,0,1-.44-1.54c-.11-.5,0-.62.52-.6.85,0,1.66-.26,2.52-.25a1.27,1.27,0,0,0,1.13-.94,7.28,7.28,0,0,1,.31-.77.62.62,0,0,1,1.08-.24,2.64,2.64,0,0,1,.92,1.47,1.15,1.15,0,0,1,0,.61,2.2,2.2,0,0,1-.49.85,3.64,3.64,0,0,0-.63,1.35,8.14,8.14,0,0,1-.51,1.35c-.21.38-.42.69-.93.37a2.13,2.13,0,0,0-.59-.15C209.75,103.26,209.56,103.38,209.39,103.29Z"/><path class="cls-1" d="M199.77,94.72a.63.63,0,0,1-.5-.64c0-.31-.16-.44-.46-.43a2.17,2.17,0,0,1-.35-.07c-.42-.06-.84-.19-.85-.67a1.06,1.06,0,0,1,.72-1c1.16-.51,2.33-1,3.47-1.51a9.63,9.63,0,0,0,2.4-1.2.93.93,0,0,1,1.24,0,6.08,6.08,0,0,1,1.21,1.22c.46.66.22,1.13-.72,1.49a1.75,1.75,0,0,1-.72,0,5.47,5.47,0,0,1-.55-.13,1.35,1.35,0,0,0-1.83.78,2.21,2.21,0,0,1-1.11,1.18,1.85,1.85,0,0,1-.7.13c-.16,0-.39-.09-.47.09s.24.2.32.4l-.48.36A1.09,1.09,0,0,1,199.77,94.72Z"/><path class="cls-1" d="M112.23,39.75a3.4,3.4,0,0,1-2.57-1.53c-.17-.21,0-.26.17-.33s.21-.08.19-.21-.12-.1-.21-.13c-.9-.28-1-.71-.29-1.37a.77.77,0,0,1,.86-.13.48.48,0,0,1,.22.15c.69.85,1.46.58,2.28.22a2.54,2.54,0,0,1,1.66-.24,3.29,3.29,0,0,1,1.54,1.18c.16.18.07.42-.1.61A5.29,5.29,0,0,1,112.23,39.75Z"/><path class="cls-1" d="M57.71,26.91a1.15,1.15,0,0,1,.3.65c.05.58.32.75.86.57a1.18,1.18,0,0,1,.72,0l.23.41a.89.89,0,0,1,0,.51,1.18,1.18,0,0,1-1.55.71,2.28,2.28,0,0,0-1.64.24,3.82,3.82,0,0,1-1.47.62,1,1,0,0,1-1.22-.82c-.09-.24-.28-.22-.47-.23-.4,0-.81.16-1.22,0a1,1,0,0,1-.55-.51c-.08-.18,0-.36.13-.38.38-.05.51-.33.64-.61a.7.7,0,0,1,1-.39,18.83,18.83,0,0,0,2.65.91s.1.05.14.05c.26,0,.58.13.74-.1s-.1-.46-.22-.67c-.35-.58-.29-.78.32-1A.79.79,0,0,1,57.71,26.91Z"/><path class="cls-1" d="M246.81,138.61a1.65,1.65,0,0,1-1.12-.69c-.29-.35-.08-.64.15-.92a12.49,12.49,0,0,1,1.66-1.41,6,6,0,0,0,1.71-2c.26-.54.46-.57,1.12-.19a.72.72,0,0,1,.3,1.06l-2.23,3a6.42,6.42,0,0,1-1.08,1.13A.89.89,0,0,1,246.81,138.61Z"/><path class="cls-1" d="M214.2,105.47c-.1.08-.17,0-.19-.07a8.49,8.49,0,0,1-.64-3.37c.07-.57.3-1.11.39-1.69a.84.84,0,0,1,.92-.62c.26,0,.52,0,.77,0a1.46,1.46,0,0,1,.72,0c.48.51.48.84,0,1.31-.22.21-.43.45-.64.67a.66.66,0,0,0,0,.55c.09.39.18.77.26,1.16a.81.81,0,0,1-.24.75c-.12.12-.22.2-.37,0s-.3-.44-.59-.33-.28.44-.31.71a1.33,1.33,0,0,0,0,.2C214.16,105,214.32,105.23,214.2,105.47Z"/><path class="cls-1" d="M217.83,23h-.46c-.72,0-1-.35-.72-1,.11-.27.25-.53.36-.8a.63.63,0,0,1,.55-.43,5.55,5.55,0,0,1,4.72,1.65s0,.06,0,.14a35.42,35.42,0,0,1-3.84.39C218.27,23,218,22.91,217.83,23Z"/><path class="cls-1" d="M191,17.38l-.52,0a.89.89,0,0,1-.51,0c-.18,0-.36,0-.44-.23a1.15,1.15,0,0,1,0-.61,3.61,3.61,0,0,1,.42-1.06c.21-.4.64-.39,1-.39a5.7,5.7,0,0,1,3.88,1.37l.29.29a.88.88,0,0,1,.1.18c-1.08.15-2.13.3-3.19.35C191.68,17.4,191.32,17.25,191,17.38Z"/><path class="cls-1" d="M117,55.21c-1.24,0-1.33-.12-.94-1.34.13-.4.14-.92.75-1a3.23,3.23,0,0,1,1,0,4.64,4.64,0,0,1,2.8,1.52c.27.27.18.34-.15.39a26.27,26.27,0,0,1-2.65.33C117.54,55.22,117.24,55.08,117,55.21Z"/><path class="cls-1" d="M250.87,131.18a3,3,0,0,1,.26-1.1c.13-.36.35-.52.7-.21.12.11.27.18.37.29a1.23,1.23,0,0,0,1.56.49c-.66.87-1,1.87-1.62,2.7-.17.24-.36.57-.65.54s-.23-.41-.34-.64a3,3,0,0,1-.28-1.14A2.64,2.64,0,0,1,250.87,131.18Z"/><path class="cls-1" d="M61.48,24.61c-1.12-.07-1.38-.36-1.36-1.49,0-.47.19-.65.6-.48A13.48,13.48,0,0,1,63.64,24a1,1,0,0,1,.41,1.2c-.17.3-.38.48-.76.25s-.68-.65-1.18-.71C61.91,24.58,61.68,24.71,61.48,24.61Z"/><path class="cls-1" d="M64.09,29.62a3.24,3.24,0,0,1-1.67-.86.91.91,0,0,1-.28-1c.11-.35.45-.38.77-.41a7.67,7.67,0,0,1,1.35-.1c.62,0,1,.44.84,1s0,1-.49,1.38A.72.72,0,0,1,64.09,29.62Z"/><path class="cls-1" d="M206.25,84.36a1.1,1.1,0,0,0-.05-.51c-.46-.91.08-1.72.3-2.55.11-.42.52-.48.88-.22a1.62,1.62,0,0,1,.56.68.89.89,0,0,1,0,.51c-.14.25-.49.37-.44.73a.88.88,0,0,0,0,.64,4.8,4.8,0,0,0,.1.92.66.66,0,0,1-.6.72c-.31.07-.65.07-.66-.4C206.25,84.71,206.37,84.52,206.25,84.36Z"/><path class="cls-1" d="M51.75,27.21a3.48,3.48,0,0,0-1.2.44,4.07,4.07,0,0,1-1.1.41.89.89,0,0,1-.51,0c-.33-.06-.81,0-.88-.4s.4-.4.62-.59A4.4,4.4,0,0,1,51,25.88a1.46,1.46,0,0,1,1.36.5,1.36,1.36,0,0,1,0,.72h0C52.18,27.23,51.94,27.08,51.75,27.21Z"/><path class="cls-1" d="M207.64,89.18a8.71,8.71,0,0,0,1.43-.8c.73-.34,1.05-.31,1.46.21a1.26,1.26,0,0,1-.12,1.58,1.66,1.66,0,0,1-.63.45c-.4.18-.75.18-1-.3a2.38,2.38,0,0,0-.87-.94C207.88,89.23,207.58,89.46,207.64,89.18Z"/><path class="cls-1" d="M233.24,134.51a2,2,0,0,1-.76,1.38.69.69,0,0,1-.51,0,1.26,1.26,0,0,1-.94-1.27c0-.28,0-.55,0-.83a.8.8,0,0,1,0-.53,1,1,0,0,0,.75.21,3.63,3.63,0,0,1,1.14,0l.33.33A1.59,1.59,0,0,1,233.24,134.51Z"/><path class="cls-1" d="M78.3,86.44a3.08,3.08,0,0,1,1.65,1c.07.08.2.15.15.25s-.17.12-.26.13l-1.23.13c-.2.1-.43,0-.63.09a3.62,3.62,0,0,0-.57,0c-.57.07-.78-.1-.65-.66a1.31,1.31,0,0,1,.5-.92A2.6,2.6,0,0,1,78.3,86.44Z"/><path class="cls-1" d="M256.63,112.27a12.46,12.46,0,0,0-.86,1.76c-.1.36-1.14.6-1.44.39a.19.19,0,0,1-.08-.18,1.92,1.92,0,0,1,1.77-2A.92.92,0,0,1,256.63,112.27Z"/><path class="cls-1" d="M180.65,90.21l-.33.33a1,1,0,0,1-.62,0,1,1,0,0,1-.73-1c0-.31,0-.62,0-.93s0-.37.05-.55,0-.21.16-.18c.21.57.81.8,1.13,1.28.11.17.23.33.35.5A1.15,1.15,0,0,1,180.65,90.21Z"/><path class="cls-1" d="M215.33,107.56l-.2.12c-.28.1-.57,0-.85.08-.77.51-.8.38-1.54-.14-.21-.15-.24-.3,0-.46a2.77,2.77,0,0,1,2.56-.23A.7.7,0,0,1,215.33,107.56Z"/><path class="cls-1" d="M65.44,23.64l.93.33a.72.72,0,0,1,.43.61c0,.27-.18.39-.42.45a3.24,3.24,0,0,1-1,0,1,1,0,0,1-.78-.74.45.45,0,0,1,.36-.65A.89.89,0,0,1,65.44,23.64Z"/><path class="cls-1" d="M84.22,87.57c-.32.46-.91.55-1.17,1.05-.1.19-.3,0-.38-.16a2.87,2.87,0,0,1-.28-1.73c0-.15.1-.14.22-.11.47.14,1,.16,1.29.66C84,87.39,84.1,87.46,84.22,87.57Z"/><path class="cls-1" d="M207.35,75.47a3.29,3.29,0,0,1-.48,2.54c-.09.11-.15.27-.31.25s-.17-.2-.22-.32C206,77.09,206.31,76.2,207.35,75.47Z"/><path class="cls-1" d="M25.72,54.16a.46.46,0,0,0-.35.16c-.51.47-.74.45-1.24,0-.16-.15-.25-.31-.13-.5s.33-.1.5,0,.14.09.25.15c0-.21-.17-.56.33-.47.22,0,.27-.4.45-.59s.13-.4.34-.33a.54.54,0,0,1,.32.38c0,.21-.22.22-.36.3l-.21.09c.19.21.41.37.42.65C25.94,54,25.76,54,25.72,54.16Z"/><path class="cls-1" d="M242.21,26.64c-.5.22-.93.45-1.38.62s-1.06-.07-1-.59c0-.24.12-.34.37-.41A2.68,2.68,0,0,1,242.21,26.64Z"/><path class="cls-1" d="M225.77,22.77a12.79,12.79,0,0,1-1.32.62,1.28,1.28,0,0,1-.67,0c-.26-.06-.49-.21-.48-.52a.52.52,0,0,1,.45-.49C224.36,22.25,224.45,22.26,225.77,22.77Z"/><path class="cls-1" d="M222.5,24.86a7.8,7.8,0,0,1-1.31.61.86.86,0,0,1-.75,0,.5.5,0,0,1-.28-.51.45.45,0,0,1,.34-.41A2.16,2.16,0,0,1,222.5,24.86Z"/><path class="cls-1" d="M196.54,18.81l-1.2.57a1.16,1.16,0,0,1-.82.05.47.47,0,0,1-.38-.54c0-.25.14-.38.4-.46A2.58,2.58,0,0,1,196.54,18.81Z"/><path class="cls-1" d="M249.75,38.74a10.53,10.53,0,0,1-1.39.64.94.94,0,0,1-.75-.07c-.17-.1-.32-.24-.27-.46a.56.56,0,0,1,.35-.46A2.56,2.56,0,0,1,249.75,38.74Z"/><path class="cls-1" d="M55.63,25.87l-.4-.11c-.16-.06-.43-.05-.45-.24s.24-.35.43-.46c.49-.29,1-.09,1.46,0,.16,0,.21.14.13.32s-.29.33-.45.48A1.18,1.18,0,0,1,55.63,25.87Z"/><path class="cls-1" d="M67,26.68a.57.57,0,0,1,.13.08c.23.16.7.27.6.52s-.6.4-.94.41a1.13,1.13,0,0,1-.89-.64c-.14-.22.06-.34.27-.38A1.79,1.79,0,0,1,67,26.68Z"/><path class="cls-1" d="M120,44.67a1.61,1.61,0,0,1-.45.9c-.14.18-.26,0-.33-.09a1.69,1.69,0,0,1-.26-.82c0-.32,0-.66.41-.72S120,44.25,120,44.67Z"/><path class="cls-1" d="M220.06,100.34c-.15.23-.29.47-.45.69,0,0-.08.06-.13.09a2.11,2.11,0,0,1-.39-.88.75.75,0,0,1,0-.51c.25-.46.56-.46,1,0A1.06,1.06,0,0,1,220.06,100.34Z"/><path class="cls-1" d="M244.29,116.58a.38.38,0,0,1-.19.41c-.16.08-.24-.07-.28-.17a9.52,9.52,0,0,0-1-1.79c-.06-.09-.13-.2,0-.28s.21,0,.29.1a4.12,4.12,0,0,1,1.11,1.35C244.23,116.33,244.32,116.45,244.29,116.58Z"/><path class="cls-1" d="M208.64,87.33c-.14.24,0,.71-.47.77-.21,0-.66-.75-.65-1.09s.33-.23.51-.23C208.49,86.79,208.67,87,208.64,87.33Z"/><path class="cls-1" d="M220,103.39c-.38-.06-.34-.35-.31-.6.05-.43.42-.16.62-.26a.84.84,0,0,1,.52,0c.36.25.47.52.1.86A2.24,2.24,0,0,1,220,103.39Z"/><path class="cls-1" d="M39.32,54.28c.2,0,.21-.13.16-.29a4.62,4.62,0,0,0-.91-1.81,1.21,1.21,0,0,1-.37-1,4.78,4.78,0,0,1,1.22,2.16c.29-.3.5-.39.57.07a.88.88,0,0,0,.16.32v.12c-.22,0-.31.17-.42.31S39.53,54.5,39.32,54.28Z"/><path class="cls-1" d="M122.42,43.43a1.07,1.07,0,0,1-.55,1c-.12.07-.52-.6-.49-.88s.1-.52.4-.49S122.44,43,122.42,43.43Z"/><path class="cls-1" d="M14.72,44.24c.22.21.65.08.83.46.06.11.21.18.29.28s.34,0,.35.25a.14.14,0,0,1-.18.14c-.19,0-.4.22-.59-.08a.83.83,0,0,0-.82-.44c-.22,0-.29-.16-.26-.36S14.5,44.24,14.72,44.24Z"/><path class="cls-1" d="M234.06,105.38l-.72-.24a1.57,1.57,0,0,1,.83-.42.89.89,0,0,1,.51,0c.21,0,.52,0,.55.28s-.28.26-.45.38A1.59,1.59,0,0,1,234.06,105.38Z"/><path class="cls-1" d="M218.79,106.72a.36.36,0,0,1,.15.53.63.63,0,0,1-.65.31c-.23,0-.42,0-.51-.28s.06-.52.39-.57A1,1,0,0,1,218.79,106.72Z"/><path class="cls-1" d="M86,146.4a8.35,8.35,0,0,1-.88.42.44.44,0,0,1-.6-.26c-.08-.29.13-.42.39-.49A1.34,1.34,0,0,1,86,146.4Z"/><path class="cls-1" d="M157,32.24a.35.35,0,0,1-.18-.48.45.45,0,0,1,.41-.26,1.76,1.76,0,0,1,1,.27c-.22.25-.52.3-.74.48A1,1,0,0,1,157,32.24Z"/><path class="cls-1" d="M80.39,88.74c.13.13.37.08.49.29a2.39,2.39,0,0,1-.77.46.46.46,0,0,1-.62-.29c-.1-.28.11-.44.39-.47A.89.89,0,0,1,80.39,88.74Z"/><path class="cls-1" d="M16.45,49.16c.35,0,.58.1.58.39s-.32.4-.51.38-.7,0-.69-.41S16.29,49.29,16.45,49.16Z"/><path class="cls-1" d="M9,57.56c0,.1-.11.18-.19.14a3.06,3.06,0,0,0-1.36-.36c-.11,0-.18-.14,0-.24A1.32,1.32,0,0,1,9,57.47Z"/><path class="cls-1" d="M13.06,57c.22,0,.26.15.18.27a1.11,1.11,0,0,1-.91.42c-.14,0-.26-.15-.1-.3S12.88,57.27,13.06,57Z"/><path class="cls-1" d="M13.4,57.45c.18-.25.48-.28.55-.58s.28-.13.4,0a.24.24,0,0,1,0,.37A.83.83,0,0,1,13.4,57.45Z"/><path class="cls-1" d="M82.16,85.83a.6.6,0,0,1-.55.34.72.72,0,0,1-.51-.44c0-.19.26-.09.42-.11A.67.67,0,0,1,82.16,85.83Z"/><path class="cls-1" d="M244.87,119.16a1.86,1.86,0,0,1,.65.9c0,.14,0,.29-.11.35s-.25-.13-.25-.22C245.18,119.83,244.76,119.61,244.87,119.16Z"/><path class="cls-1" d="M79.49,85.27a.57.57,0,0,1-.87-.14c-.15-.21.1-.27.2-.31C79.29,84.59,79.2,85.2,79.49,85.27Z"/><path class="cls-1" d="M76.61,84.16c.21,0,.33.09.32.28s-.22.33-.43.32-.39,0-.37-.26S76.42,84.21,76.61,84.16Z"/><path class="cls-1" d="M240.68,110c.16,0,.38,0,.36.29a.33.33,0,0,1-.35.32c-.2,0-.43-.1-.43-.36S240.46,110,240.68,110Z"/><path class="cls-1" d="M242,112.69c.13,0,.34,0,.31.25a.4.4,0,0,1-.49.34c-.15,0-.31-.1-.29-.31S241.73,112.68,242,112.69Z"/><path class="cls-1" d="M241,111.42c.24,0,.46,0,.45.27s-.22.26-.42.26-.38-.06-.37-.31S240.9,111.46,241,111.42Z"/><path class="cls-1" d="M39.72,54.17c0-.16-.08-.37.09-.47s.22.11.33.16,0,.17,0,.26,0,.37-.13.39S39.76,54.34,39.72,54.17Z"/><path class="cls-1" d="M243.25,47.93a.27.27,0,0,1-.27.27.37.37,0,0,1-.42-.3c0-.13.1-.2.23-.2A.45.45,0,0,1,243.25,47.93Z"/><path class="cls-1" d="M245,48.23c0,.2-.12.28-.28.29s-.36,0-.41-.22.14-.25.26-.25A.47.47,0,0,1,245,48.23Z"/><path class="cls-1" d="M115.75,72c0,.42-.32.67-.76.92A1.55,1.55,0,0,1,115.75,72Z"/><path class="cls-1" d="M242.31,122l-.65,0c-.16,0-.29-.08-.26-.25s.19-.13.32-.08l.64.27Z"/><path class="cls-1" d="M246.18,49.06c-.11-.08-.26-.15-.14-.32s.24-.12.38-.11.3.2.28.41A.67.67,0,0,1,246.18,49.06Z"/><path class="cls-1" d="M78.2,135.66a6.89,6.89,0,0,1,0,2.52Z"/><path class="cls-1" d="M129.51,93a.26.26,0,0,1-.26.26c-.18,0-.25-.06-.25-.24s.05-.26.23-.26A.25.25,0,0,1,129.51,93Z"/><path class="cls-1" d="M243.55,122l.58-.7a1.4,1.4,0,0,1-.35.9C243.55,122.29,243.5,122.19,243.55,122Z"/><path class="cls-1" d="M81,85.31c-.21.51-.57.14-.82.25,0,0-.05-.11,0-.13s.1-.11.15-.11Z"/><path class="cls-1" d="M73.49,88.63a9.93,9.93,0,0,1-2.18-.09A11.34,11.34,0,0,1,73.49,88.63Z"/><path class="cls-1" d="M17.68,48.21l.8.22a.15.15,0,0,1,.11.2c0,.11-.13.06-.21,0-.25,0-.41-.33-.71-.26Z"/><path class="cls-1" d="M154.92,35.46a4.42,4.42,0,0,1-1.62.08c-.16,0-.14-.16-.14-.28.17.27.44.2.69.2Z"/><path class="cls-1" d="M114,72.36c-.08.15-.17.27-.34.28s-.19-.13-.21-.24.15-.15.25-.16S114,72.21,114,72.36Z"/><path class="cls-1" d="M239.81,108.84c-.32.29-.54.37-.82.08C239.23,108.74,239.47,108.82,239.81,108.84Z"/><path class="cls-1" d="M15.34,56.84a.43.43,0,0,1-.62,0s0-.12,0-.13C15,56.59,15.12,56.82,15.34,56.84Z"/><path class="cls-1" d="M127.73,95.59c-.15,0-.17,0-.17-.14a.26.26,0,0,1,.19-.31c.12,0,.23,0,.24.13S127.82,95.51,127.73,95.59Z"/><path class="cls-1" d="M238.2,107.22c-.23.2-.43.11-.7.1C237.84,107,237.84,107,238.2,107.22Z"/><path class="cls-1" d="M199.89,80.6A6.08,6.08,0,0,1,200,79,6.08,6.08,0,0,1,199.89,80.6Z"/><path class="cls-1" d="M226.83,57.12c.17.05.22.14.21.27a.19.19,0,0,1-.2.19.17.17,0,0,1-.18-.2A.32.32,0,0,1,226.83,57.12Z"/><path class="cls-1" d="M239.35,47.58c0,.13-.1.17-.21.19a.21.21,0,0,1-.3-.17c0-.14.08-.13.16-.12S239.27,47.42,239.35,47.58Z"/><path class="cls-1" d="M227.78,102.42h-1.56A3,3,0,0,1,227.78,102.42Z"/><path class="cls-1" d="M227.82,56.81a.17.17,0,0,1-.2.17c-.1,0-.22-.06-.19-.18s.07-.24.23-.22S227.79,56.72,227.82,56.81Z"/><path class="cls-1" d="M154.09,104.71c0,.12,0,.22-.16.22s-.15-.12-.15-.23,0-.23.12-.23S154.08,104.59,154.09,104.71Z"/><path class="cls-1" d="M75.06,17.58H73.61A2.56,2.56,0,0,1,75.06,17.58Z"/><path class="cls-1" d="M228.52,56.63c-.11,0-.21-.07-.19-.19a.27.27,0,0,1,.24-.23c.09,0,.14.09.15.18A.22.22,0,0,1,228.52,56.63Z"/><path class="cls-1" d="M238.24,107.88c-.14.37-.45.23-.64.14s0-.13.12-.17A.72.72,0,0,1,238.24,107.88Z"/><path class="cls-1" d="M238.24,47c0,.17-.08.3-.27.3s-.25-.13-.26-.3A.58.58,0,0,1,238.24,47Z"/><path class="cls-1" d="M179.18,87.82c-.25.19,0,.52-.21.73-.05-.28.11-.59-.11-.85l.2-.32Z"/><path class="cls-1" d="M191.6,86.88v1.34A2.12,2.12,0,0,1,191.6,86.88Z"/><path class="cls-1" d="M248.57,49c0,.16-.13.18-.24.22a.1.1,0,0,1-.15-.09.21.21,0,0,1,.2-.25C248.48,48.84,248.55,48.87,248.57,49Z"/><path class="cls-1" d="M113,72.22c-.11,0-.18,0-.18-.14a.19.19,0,0,1,.18-.21.16.16,0,0,1,.18.15C113.19,72.14,113.11,72.2,113,72.22Z"/><path class="cls-1" d="M162.46,33.17a3.9,3.9,0,0,1-1.36.08A4.13,4.13,0,0,1,162.46,33.17Z"/><path class="cls-1" d="M114.45,72.73a.23.23,0,0,1-.22.19c-.12,0-.17-.12-.15-.23s.13-.14.23-.13A.15.15,0,0,1,114.45,72.73Z"/><path class="cls-1" d="M237,46.54c0,.16-.07.28-.23.29s-.27-.11-.29-.29A.59.59,0,0,1,237,46.54Z"/><path class="cls-1" d="M114.44,68.91a.2.2,0,0,1-.2.18.14.14,0,0,1-.17-.14c0-.14.08-.24.22-.22A.17.17,0,0,1,114.44,68.91Z"/><path class="cls-1" d="M75.69,56.27A3.35,3.35,0,0,1,75.6,55,3.57,3.57,0,0,1,75.69,56.27Z"/><path class="cls-1" d="M123.77,47.91c-.19-.41,0-.84-.09-1.26A3.57,3.57,0,0,1,123.77,47.91Z"/><path class="cls-1" d="M110.2,24.17V22.93A1.82,1.82,0,0,1,110.2,24.17Z"/><path class="cls-1" d="M112.84,101.91c-.15,0-.22,0-.22-.15s.12-.16.22-.15.16.07.14.17A.14.14,0,0,1,112.84,101.91Z"/><path class="cls-1" d="M75.05,99.21c0,.41,0,.82,0,1.24A1.88,1.88,0,0,1,75.05,99.21Z"/><path class="cls-1" d="M73.38,31.59c-.32-.24-.69,0-1-.12a2,2,0,0,1,1-.06C73.49,31.42,73.46,31.53,73.38,31.59Z"/><path class="cls-1" d="M250.33,48.87a.3.3,0,0,1-.28.2c-.11,0-.09-.08-.09-.14s.12-.19.25-.19S250.33,48.78,250.33,48.87Z"/><path class="cls-1" d="M120.85,60a3.74,3.74,0,0,1-1.25.09A3.53,3.53,0,0,1,120.85,60Z"/><path class="cls-1" d="M216,29h-1.13A1.63,1.63,0,0,1,216,29Z"/><path class="cls-1" d="M91.37,28.66a1.68,1.68,0,0,1,0,1.17Z"/><path class="cls-1" d="M111.84,84.06c0,.38,0,.76,0,1.14A1.5,1.5,0,0,1,111.84,84.06Z"/><path class="cls-1" d="M6.24,57.26c.07-.15.13-.3.34-.21.06,0,.13.1.08.16S6.39,57.3,6.24,57.26Z"/><path class="cls-1" d="M140,17.61h1.14A1.6,1.6,0,0,1,140,17.61Z"/><path class="cls-1" d="M24.57,55c-.2.25-.4.2-.62.25C24.08,55,24.29,55,24.57,55Z"/><path class="cls-1" d="M19.23,41.63c-.36.19-.75,0-1.13.08C18.47,41.53,18.86,41.67,19.23,41.63Z"/><path class="cls-1" d="M190.35,22.39h-1.13A1.57,1.57,0,0,1,190.35,22.39Z"/><path class="cls-1" d="M232.9,133.46h-1.14A1.5,1.5,0,0,1,232.9,133.46Z"/><path class="cls-1" d="M89,133.26v-1.14A1.55,1.55,0,0,1,89,133.26Z"/><path class="cls-1" d="M251,49.15c.09,0,.17,0,.13.16a.22.22,0,0,1-.19.14.14.14,0,0,1-.16-.15C250.8,49.16,250.9,49.15,251,49.15Z"/><path class="cls-1" d="M119.55,108a.19.19,0,0,1-.16.19c-.09,0-.17,0-.18-.12s.05-.16.15-.17S119.53,107.87,119.55,108Z"/><path class="cls-1" d="M19,56.38c0-.2,0-.3.22-.32s.15,0,.13.11A.31.31,0,0,1,19,56.38Z"/><path class="cls-1" d="M3.27,56.21a1.06,1.06,0,0,1-.19-.72C3.25,55.73,3.39,55.86,3.27,56.21Z"/><path class="cls-1" d="M80.91,86s-.07.12-.12.12-.2-.1-.25-.2,0-.13.09-.13A.26.26,0,0,1,80.91,86Z"/><path class="cls-1" d="M40.78,54.06l.38.3-.79-.12C40.47,54.11,40.69,54.23,40.78,54.06Z"/><path class="cls-1" d="M191,17.38A2.49,2.49,0,0,1,192,17.3C191.69,17.47,191.33,17.35,191,17.38Z"/><path class="cls-1" d="M4.85,56.06c.07,0,.15,0,.14.11a.22.22,0,0,1-.22.18c-.06,0-.14,0-.13-.11A.21.21,0,0,1,4.85,56.06Z"/><path class="cls-1" d="M154.86,105.19a.16.16,0,0,1-.16.16.13.13,0,0,1-.16-.1c0-.1,0-.17.12-.18A.17.17,0,0,1,154.86,105.19Z"/><path class="cls-1" d="M168,75.79a1.37,1.37,0,0,1,1.07,0Z"/><path class="cls-1" d="M78.3,86.44h-1A1.19,1.19,0,0,1,78.3,86.44Z"/><path class="cls-1" d="M119,63.37v1A1.27,1.27,0,0,1,119,63.37Z"/><path class="cls-1" d="M236,105.29c-.23.22-.37.2-.53.1C235.58,105.18,235.73,105.29,236,105.29Z"/><path class="cls-1" d="M223.07,109.53h-1A1.27,1.27,0,0,1,223.07,109.53Z"/><path class="cls-1" d="M65.35,25h1A1.27,1.27,0,0,1,65.35,25Z"/><path class="cls-1" d="M37.53,52.49a.56.56,0,0,1,.46-.3c0,.23-.28.3-.25.51Z"/><path class="cls-1" d="M117.81,52.89h-1A1.32,1.32,0,0,1,117.81,52.89Z"/><path class="cls-1" d="M72.64,106v.92A1.1,1.1,0,0,1,72.64,106Z"/><path class="cls-1" d="M159.64,86.15c-.11.08-.2.06-.21-.08s0-.44,0-.66C159.66,85.6,159.39,86,159.64,86.15Z"/><path class="cls-1" d="M151.45,113.25a.16.16,0,0,1-.17.18c-.11,0-.1-.07-.1-.13s0-.18.14-.16S151.42,113.22,151.45,113.25Z"/><path class="cls-1" d="M26.26,36.2a.31.31,0,0,1-.28.29L26,36Z"/><path class="cls-1" d="M84.67,95.84h-.92A1.06,1.06,0,0,1,84.67,95.84Z"/><path class="cls-1" d="M220,103.39h.93A1,1,0,0,1,220,103.39Z"/><path class="cls-1" d="M231.43,29.8h-.92A1.13,1.13,0,0,1,231.43,29.8Z"/><path class="cls-1" d="M236.89,106.63a.32.32,0,0,1,.44-.06C237.22,106.77,237.09,106.76,236.89,106.63Z"/><path class="cls-1" d="M123.15,53.56h.93A1.16,1.16,0,0,1,123.15,53.56Z"/><path class="cls-1" d="M225.27,111.64a1.08,1.08,0,0,1,0-1Z"/><path class="cls-1" d="M170.48,30.56c0,.31,0,.62,0,.93A1.08,1.08,0,0,1,170.48,30.56Z"/><path class="cls-1" d="M73.39,37.33a1,1,0,0,1,0,1Z"/><path class="cls-1" d="M250.87,131.18v.93A1.08,1.08,0,0,1,250.87,131.18Z"/><path class="cls-1" d="M93.58,103V102A1,1,0,0,1,93.58,103Z"/><path class="cls-1" d="M224.73,59.17s0,.06-.14.06a.14.14,0,0,1-.12-.19.17.17,0,0,1,.18-.14C224.74,58.91,224.75,59,224.73,59.17Z"/><path class="cls-1" d="M6.27,56.73a1.44,1.44,0,0,1-.24.2.1.1,0,0,1-.15-.08c0-.11.06-.16.16-.16A.91.91,0,0,1,6.27,56.73Z"/><path class="cls-1" d="M53,38.27a2,2,0,0,1-.94-.09C52.37,38.22,52.7,38.09,53,38.27Z"/><path class="cls-1" d="M112.5,29.08v-.92A1,1,0,0,1,112.5,29.08Z"/><path class="cls-1" d="M227.68,107.36a2,2,0,0,1,.95.09C228.31,107.42,228,107.55,227.68,107.36Z"/><path class="cls-1" d="M52.28,36.11a4.34,4.34,0,0,1,.51,0c.21,0,.29.11.11.29C52.82,36,52.43,36.33,52.28,36.11Z"/><path class="cls-1" d="M230.2,131.51a1.65,1.65,0,0,1,.93.08C230.82,131.55,230.5,131.68,230.2,131.51Z"/><path class="cls-1" d="M12.29,47.88c.21.1.34.18.34.41C12.38,48.25,12.34,48.1,12.29,47.88Z"/><path class="cls-1" d="M67,26.68h-.83A.82.82,0,0,1,67,26.68Z"/><path class="cls-1" d="M20.15,56.39c0,.08-.09.16-.19.13s-.06-.08,0-.12,0-.18.14-.17S20.17,56.31,20.15,56.39Z"/><path class="cls-1" d="M5.52,56.6c0,.07-.08.15-.18.13s-.08-.08-.07-.1.08-.16.15-.19S5.54,56.5,5.52,56.6Z"/><path class="cls-1" d="M225.47,58.92c0,.1-.05.15-.16.14a.1.1,0,0,1-.1-.13.24.24,0,0,1,.14-.14C225.42,58.78,225.47,58.84,225.47,58.92Z"/><path class="cls-1" d="M224.11,59.35c0,.1-.08.15-.18.12a.14.14,0,0,1,.08-.26C224.1,59.21,224.1,59.28,224.11,59.35Z"/><path class="cls-1" d="M46.09,63.05c0,.28.1.58-.08.85C46,63.62,45.91,63.32,46.09,63.05Z"/><path class="cls-1" d="M207.4,63.78c.26-.17.55-.08.83-.09C208,63.87,207.67,63.74,207.4,63.78Z"/><path class="cls-1" d="M119,64.71c.17.27,0,.56.09.84C118.88,65.28,119,65,119,64.71Z"/><path class="cls-1" d="M199.05,85.61v-.82A.85.85,0,0,1,199.05,85.61Z"/><path class="cls-1" d="M191.62,85.09a.94.94,0,0,1,0,.85Z"/><path class="cls-1" d="M127.34,92.22h.82A.88.88,0,0,1,127.34,92.22Z"/><path class="cls-1" d="M156.06,103c.07-.1.16-.14.26-.07s0,.17,0,.26C156.05,103.27,156,103.17,156.06,103Z"/><path class="cls-1" d="M214.28,107.76c.27-.18.57-.06.85-.08C214.86,107.86,214.56,107.73,214.28,107.76Z"/><path class="cls-1" d="M225.39,110.06c0-.36-.41-.11-.54-.3a2.8,2.8,0,0,1,.41,0C225.48,109.78,225.54,109.88,225.39,110.06Z"/><path class="cls-1" d="M209.27,119.79c0,.27,0,.55,0,.82A.85.85,0,0,1,209.27,119.79Z"/><path class="cls-1" d="M72.13,30.34a1.47,1.47,0,0,1,.83-.08C72.7,30.43,72.4,30.31,72.13,30.34Z"/><path class="cls-1" d="M73.38,32.75v.83A.85.85,0,0,1,73.38,32.75Z"/><path class="cls-1" d="M64.2,34.85H65A.83.83,0,0,1,64.2,34.85Z"/><path class="cls-1" d="M79.76,42.86h-.82A.85.85,0,0,1,79.76,42.86Z"/><path class="cls-1" d="M117,55.21a1.43,1.43,0,0,1,.84-.08C117.54,55.3,117.25,55.17,117,55.21Z"/><path class="cls-1" d="M3.76,55.53A.16.16,0,0,1,4,55.46c.11.09,0,.18,0,.27C3.76,55.83,3.71,55.73,3.76,55.53Z"/><path class="cls-1" d="M233.24,134.51c0-.24,0-.48,0-.72A.67.67,0,0,1,233.24,134.51Z"/><path class="cls-1" d="M234.06,105.38h.72A.69.69,0,0,1,234.06,105.38Z"/><path class="cls-1" d="M55.63,25.87l.72,0A.62.62,0,0,1,55.63,25.87Z"/><path class="cls-1" d="M52.38,27.1c0-.24,0-.48,0-.72A.65.65,0,0,1,52.38,27.1Z"/><path class="cls-1" d="M57.92,33.05a.58.58,0,0,1,.08.52c0,.13-.11.09-.17,0C58,33.42,57.89,33.22,57.92,33.05Z"/><path class="cls-1" d="M47.89,35.16h.72A.67.67,0,0,1,47.89,35.16Z"/><path class="cls-1" d="M80.07,120.42c0,.24.07.5-.09.73C80,120.91,79.89,120.64,80.07,120.42Z"/><path class="cls-1" d="M205.21,91.91h.72A.69.69,0,0,1,205.21,91.91Z"/><path class="cls-1" d="M70.57,18a.75.75,0,0,1-.74,0Z"/><path class="cls-1" d="M195.58,20h-.72A.69.69,0,0,1,195.58,20Z"/><path class="cls-1" d="M80.39,43.92a.66.66,0,0,1,.74,0Z"/><path class="cls-1" d="M200.08,21.45h-.72A.69.69,0,0,1,200.08,21.45Z"/><path class="cls-1" d="M59.59,28.16l-.72,0A.6.6,0,0,1,59.59,28.16Z"/><path class="cls-1" d="M154.08,109.24V110A.65.65,0,0,1,154.08,109.24Z"/><path class="cls-1" d="M43.08,37.24a.7.7,0,0,1-.74,0Z"/><path class="cls-1" d="M242.54,48.31a.17.17,0,0,1-.2.09s-.08-.08-.07-.1.12-.1.2-.08S242.58,48.23,242.54,48.31Z"/><path class="cls-1" d="M242,47.94c0,.14-.18.21-.27.12s0-.15.13-.16A.43.43,0,0,1,242,47.94Z"/><path class="cls-1" d="M64.39,31.27h-.72A.63.63,0,0,1,64.39,31.27Z"/><path class="cls-1" d="M75.81,84.77a.89.89,0,0,1-.15.17c-.07,0-.15,0-.12-.09a.29.29,0,0,1,.12-.15S75.74,84.74,75.81,84.77Z"/><path class="cls-1" d="M240.67,47.87a.17.17,0,0,1-.2.12s-.1-.07-.1-.09.12-.1.2-.1S240.67,47.8,240.67,47.87Z"/><path class="cls-1" d="M69.85,32v-.72A.67.67,0,0,1,69.85,32Z"/><path class="cls-1" d="M17.47,56.92a2.16,2.16,0,0,1-.25.1s-.06-.07,0-.11.09-.14.18-.11S17.41,56.86,17.47,56.92Z"/><path class="cls-1" d="M34,51c.23,0,.49-.1.7.08C34.46,51,34.21,51.11,34,51Z"/><path class="cls-1" d="M210.13,107.16c.24,0,.5-.08.72.08C210.61,107.21,210.35,107.33,210.13,107.16Z"/><path class="cls-1" d="M167.78,31.48h-.72A.69.69,0,0,1,167.78,31.48Z"/><path class="cls-1" d="M119.16,61.28c0,.24.08.5-.09.73C119.1,61.76,119,61.5,119.16,61.28Z"/><path class="cls-1" d="M214.2,105.47c0-.25-.07-.51.1-.74C214.26,105,214.39,105.24,214.2,105.47Z"/><path class="cls-1" d="M238.12,32c-.24,0-.5.08-.73-.09C237.63,31.94,237.9,31.83,238.12,32Z"/><path class="cls-1" d="M78.39,46.65v.72A.69.69,0,0,1,78.39,46.65Z"/><path class="cls-1" d="M158.38,85.83c-.23.17-.48.07-.73.08C157.88,85.74,158.14,85.86,158.38,85.83Z"/><path class="cls-1" d="M89.37,63.47a.69.69,0,0,1-.73,0Z"/><path class="cls-1" d="M229.44,55.44c0,.18,0,.25-.09.25s-.1-.08-.1-.15,0-.14.08-.14A.39.39,0,0,1,229.44,55.44Z"/><path class="cls-1" d="M2.61,54.9c-.11.05-.23.17-.36.05s0-.12.06-.16S2.6,54.62,2.61,54.9Z"/><path class="cls-1" d="M158.6,106.72c0-.24,0-.48,0-.72A.65.65,0,0,1,158.6,106.72Z"/><path class="cls-1" d="M21.45,41.93c.12,0,.32-.07.34.12s-.15.09-.25.1Z"/><path class="cls-1" d="M204.91,103.79v-.72A.71.71,0,0,1,204.91,103.79Z"/><path class="cls-1" d="M229.86,54.44a.54.54,0,0,1,.1.16.11.11,0,0,1-.08.15c-.09,0-.1-.06-.11-.13A.15.15,0,0,1,229.86,54.44Z"/><path class="cls-1" d="M18,49.69h.71A.69.69,0,0,1,18,49.69Z"/><path class="cls-1" d="M79.88,72.65c0-.24-.07-.5.09-.73C79.94,72.16,80.06,72.43,79.88,72.65Z"/><path class="cls-1" d="M248.18,34.83v-.72A.67.67,0,0,1,248.18,34.83Z"/><path class="cls-1" d="M252,49.17c.05,0,.14,0,.12.09s-.08.1-.13.12-.13,0-.12-.08S251.88,49.17,252,49.17Z"/><path class="cls-1" d="M27.39,49.25c.3-.24.41,0,.54.21C27.72,49.46,27.62,49.19,27.39,49.25Z"/><path class="cls-1" d="M216.17,99.71h-.72A.67.67,0,0,1,216.17,99.71Z"/><path class="cls-1" d="M80.31,23.86v-.72A.71.71,0,0,1,80.31,23.86Z"/><path class="cls-1" d="M19.15,49.26a.5.5,0,0,1,.39-.31c-.12.17-.2.3-.29.42Z"/><path class="cls-1" d="M174.16,79.25c.16.19.07.41.09.61C174.08,79.68,174.19,79.46,174.16,79.25Z"/><path class="cls-1" d="M52.71,32l0-.62A.46.46,0,0,1,52.71,32Z"/><path class="cls-1" d="M199.77,94.72h.62A.5.5,0,0,1,199.77,94.72Z"/><path class="cls-1" d="M68.16,31h-.62A.51.51,0,0,1,68.16,31Z"/><path class="cls-1" d="M171.64,22v-.62A.43.43,0,0,1,171.64,22Z"/><path class="cls-1" d="M230.83,54.1l-.1.09s-.1-.09-.11-.14,0-.15.09-.11S230.79,54,230.83,54.1Z"/><path class="cls-1" d="M217.83,23c.2-.16.43-.07.64-.08C218.28,23.1,218.05,23,217.83,23Z"/><path class="cls-1" d="M11.59,57.51s-.1,0-.11-.06a.12.12,0,0,1,.14-.12s.11.05.12.08S11.66,57.49,11.59,57.51Z"/><path class="cls-1" d="M226.52,58c0-.06-.08-.1-.08-.13s0-.14.11-.12.06.08.06.12S226.57,58,226.52,58Z"/><path class="cls-1" d="M226,58.63c0-.07-.08-.11-.07-.14s0-.14.09-.16.1.06.09.11A1,1,0,0,1,226,58.63Z"/><path class="cls-1" d="M256.63,112.27l-.61,0A.47.47,0,0,1,256.63,112.27Z"/><path class="cls-1" d="M150.87,112.68s-.08-.09-.08-.11a.19.19,0,0,1,.11-.09c.07,0,.14,0,.11.12S150.93,112.65,150.87,112.68Z"/><path class="cls-1" d="M51.75,27.21c.19-.17.42-.06.63-.1C52.19,27.29,52,27.18,51.75,27.21Z"/><path class="cls-1" d="M19.46,51.68c.2,0,.3-.1.41-.23C19.88,51.77,19.74,51.84,19.46,51.68Z"/><path class="cls-1" d="M23.22,55.74c.08,0,.15,0,.12.08a.31.31,0,0,1-.16.11c-.05,0-.12,0-.09-.08S23.19,55.77,23.22,55.74Z"/><path class="cls-1" d="M155.75,33.25h-.61A.5.5,0,0,1,155.75,33.25Z"/><path class="cls-1" d="M28.11,50.92c.2-.18.43-.06.64-.09C28.56,51,28.33,50.9,28.11,50.92Z"/><path class="cls-1" d="M202.79,26.15c-.21,0-.43.06-.62-.09C202.37,26.09,202.6,26,202.79,26.15Z"/><path class="cls-1" d="M94.72,62.64l.62,0A.46.46,0,0,1,94.72,62.64Z"/><path class="cls-1" d="M61.48,24.61c.21,0,.44-.07.63.09C61.9,24.67,61.67,24.78,61.48,24.61Z"/><path class="cls-1" d="M70,24.51h.61A.51.51,0,0,1,70,24.51Z"/><path class="cls-1" d="M31.58,50.73h.62A.51.51,0,0,1,31.58,50.73Z"/><path class="cls-1" d="M32.61,50.71a.56.56,0,0,1,.65,0Z"/><path class="cls-1" d="M231,133.25v.53C230.89,133.6,230.84,133.42,231,133.25Z"/><path class="cls-1" d="M186,23.24c-.19.16-.42.08-.63.09C185.54,23.16,185.77,23.27,186,23.24Z"/><path class="cls-1" d="M131,49.35a.53.53,0,0,1,0,.64Z"/><path class="cls-1" d="M163.49,75.91a.56.56,0,0,1,0-.65Z"/><path class="cls-1" d="M78.5,48.74c0,.21.07.43-.09.63C78.44,49.16,78.33,48.93,78.5,48.74Z"/><path class="cls-1" d="M196.94,80.82a.54.54,0,0,1,0-.64Z"/><path class="cls-1" d="M69.73,80.81c.1-.13-.15-.29,0-.4s.13,0,.15.1Z"/><path class="cls-1" d="M198.83,81.24l.62,0A.47.47,0,0,1,198.83,81.24Z"/><path class="cls-1" d="M78.51,82.07c-.15-.19-.08-.42-.09-.63C78.59,81.63,78.48,81.86,78.51,82.07Z"/><path class="cls-1" d="M207.5,83.64a.53.53,0,0,1,0-.64Z"/><path class="cls-1" d="M130.66,47.59c0,.2,0,.41,0,.61A.51.51,0,0,1,130.66,47.59Z"/><path class="cls-1" d="M179.19,86.76c0-.21-.06-.44.09-.63C179.25,86.34,179.36,86.57,179.19,86.76Z"/><path class="cls-1" d="M63.78,39.64c-.19.16-.42.08-.63.09C63.34,39.57,63.57,39.67,63.78,39.64Z"/><path class="cls-1" d="M80.09,46.23c-.2.15-.42.08-.63.08C79.65,46.15,79.88,46.25,80.09,46.23Z"/><path class="cls-1" d="M100.79,45.72a1,1,0,0,1,.63.08C101.21,45.78,101,45.88,100.79,45.72Z"/><path class="cls-1" d="M156.07,86.64h-.62A.53.53,0,0,1,156.07,86.64Z"/><path class="cls-1" d="M99.63,45.61c.21,0,.44-.07.63.09C100.05,45.67,99.82,45.78,99.63,45.61Z"/><path class="cls-1" d="M235,45.5a.56.56,0,0,1,0-.65Z"/><path class="cls-1" d="M78,88c.19-.15.42-.08.63-.09C78.42,88.1,78.19,88,78,88Z"/><path class="cls-1" d="M207.64,89.18l.28.2h-.3c-.06,0-.15,0-.13-.09S207.58,89.21,207.64,89.18Z"/><path class="cls-1" d="M180.65,90.21c0-.2,0-.41,0-.61A.5.5,0,0,1,180.65,90.21Z"/><path class="cls-1" d="M179.7,90.53h.62A.48.48,0,0,1,179.7,90.53Z"/><path class="cls-1" d="M230.47,54.57c0,.08,0,.14-.11.14s-.07-.07-.07-.1,0-.16.06-.17S230.45,54.51,230.47,54.57Z"/><path class="cls-1" d="M78.81,39.65v.61A.5.5,0,0,1,78.81,39.65Z"/><path class="cls-1" d="M57.71,26.91l-.62,0A.44.44,0,0,1,57.71,26.91Z"/><path class="cls-1" d="M213.06,99.61V99A.5.5,0,0,1,213.06,99.61Z"/><path class="cls-1" d="M41.82,37.22c-.22,0-.44.07-.63-.08C41.4,37.16,41.63,37.06,41.82,37.22Z"/><path class="cls-1" d="M151.68,100.25a.56.56,0,0,1,0-.64Z"/><path class="cls-1" d="M220.06,100.34v-.61A.5.5,0,0,1,220.06,100.34Z"/><path class="cls-1" d="M27.73,36.71c-.1-.17-.33-.05-.44-.2C27.42,36.61,27.74,36.29,27.73,36.71Z"/><path class="cls-1" d="M67.84,34.33a.57.57,0,0,1,0-.66Z"/><path class="cls-1" d="M240.22,32.22a.45.45,0,0,1,0,.6Z"/><path class="cls-1" d="M157.52,106.09c0,.19-.15.21-.3.11C157.25,105.94,157.39,106,157.52,106.09Z"/><path class="cls-1" d="M218.79,106.72h-.62A.5.5,0,0,1,218.79,106.72Z"/><path class="cls-1" d="M243.46,31.48c-.22,0-.44.06-.63-.09C243,31.42,243.27,31.31,243.46,31.48Z"/><path class="cls-1" d="M215.33,107.56v-.63A.43.43,0,0,1,215.33,107.56Z"/><path class="cls-1" d="M208.66,107.06c.21,0,.44-.07.63.08C209.08,107.11,208.85,107.21,208.66,107.06Z"/><path class="cls-1" d="M190,17.4h.51A.38.38,0,0,1,190,17.4Z"/><path class="cls-1" d="M139.34,18.12c0-.17-.05-.37.11-.51C139.43,17.78,139.53,18,139.34,18.12Z"/><path class="cls-1" d="M198.52,21.57a.41.41,0,0,1-.53,0Z"/><path class="cls-1" d="M120.22,52.18a.38.38,0,0,1,.53,0Z"/><path class="cls-1" d="M26.36,51.67h.51A.36.36,0,0,1,26.36,51.67Z"/><path class="cls-1" d="M3.76,55.53c0,.13.07.22.22.2-.06.09-.15.14-.25.06S3.67,55.61,3.76,55.53Z"/><path class="cls-1" d="M95.43,62.52l0-.51A.34.34,0,0,1,95.43,62.52Z"/><path class="cls-1" d="M77.56,55.43c0,.17,0,.34,0,.51A.37.37,0,0,1,77.56,55.43Z"/><path class="cls-1" d="M85.73,50.72a.4.4,0,0,1-.54,0Z"/><path class="cls-1" d="M212.82,69.32v.51A.38.38,0,0,1,212.82,69.32Z"/><path class="cls-1" d="M29.18,49.69h.51A.38.38,0,0,1,29.18,49.69Z"/><path class="cls-1" d="M46.09,33.17v.51A.38.38,0,0,1,46.09,33.17Z"/><path class="cls-1" d="M234.68,104.72h-.51A.38.38,0,0,1,234.68,104.72Z"/><path class="cls-1" d="M152.83,105.27c-.14-.16-.08-.35-.08-.53C152.9,104.9,152.81,105.09,152.83,105.27Z"/><path class="cls-1" d="M128.38,42.67c.14.15.08.34.08.52C128.31,43,128.4,42.84,128.38,42.67Z"/><path class="cls-1" d="M164.13,33.06c-.16.14-.34.09-.52.09C163.76,33,164,33.08,164.13,33.06Z"/><path class="cls-1" d="M73,45.71h.51A.35.35,0,0,1,73,45.71Z"/><path class="cls-1" d="M28.55,37.14a.38.38,0,0,1-.53,0Z"/><path class="cls-1" d="M157,32.24h.51A.38.38,0,0,1,157,32.24Z"/><path class="cls-1" d="M68,86.66a.41.41,0,0,1-.53,0Z"/><path class="cls-1" d="M91.89,32.23c0,.17,0,.34,0,.51A.37.37,0,0,1,91.89,32.23Z"/><path class="cls-1" d="M246.18,38c-.09-.09-.41.12-.31-.23C245.93,37.9,246.14,37.83,246.18,38Z"/><path class="cls-1" d="M237,46.54h-.52A.34.34,0,0,1,237,46.54Z"/><path class="cls-1" d="M238.24,47h-.53A.35.35,0,0,1,238.24,47Z"/><path class="cls-1" d="M118.64,91.67c.16-.13.35-.08.53-.08C119,91.74,118.82,91.66,118.64,91.67Z"/><path class="cls-1" d="M47.78,37c-.15.14-.34.09-.52.09C47.42,37,47.61,37.05,47.78,37Z"/><path class="cls-1" d="M154.53,85.71a.53.53,0,0,0-.14-.4C154.69,85.36,154.65,85.52,154.53,85.71Z"/><path class="cls-1" d="M219.1,99.73c0,.17,0,.34,0,.51A.37.37,0,0,1,219.1,99.73Z"/><path class="cls-1" d="M245,40.81h.51A.38.38,0,0,1,245,40.81Z"/><path class="cls-1" d="M29.17,37.14l-.51,0A.35.35,0,0,1,29.17,37.14Z"/><path class="cls-1" d="M78.41,47.79c.14.15.09.34.09.52C78.34,48.16,78.43,48,78.41,47.79Z"/><path class="cls-1" d="M158.7,107.87c0-.17,0-.35,0-.52A.35.35,0,0,1,158.7,107.87Z"/><path class="cls-1" d="M242.09,31.37c-.17,0-.36.05-.52-.08C241.75,31.3,241.94,31.22,242.09,31.37Z"/><path class="cls-1" d="M25.72,54.16c-.09-.36.22-.12.32-.21C26,54.08,25.83,54.11,25.72,54.16Z"/><path class="cls-1" d="M215.55,102.24a.41.41,0,0,1,0-.55Z"/><path class="cls-1" d="M2.61,54.9c-.06-.15-.19-.1-.3-.11a.23.23,0,0,1,.35,0C2.72,54.79,2.68,54.86,2.61,54.9Z"/><path class="cls-1" d="M206.25,84.36c.15.15.08.34.09.52C206.19,84.72,206.27,84.53,206.25,84.36Z"/><path class="cls-1" d="M233.64,108.52h.51A.38.38,0,0,1,233.64,108.52Z"/><path class="cls-1" d="M35.45,38.71a.41.41,0,0,1-.53,0Z"/><path class="cls-1" d="M74.34,30.26c.18,0,.36-.06.52.08C74.68,30.32,74.49,30.41,74.34,30.26Z"/><path class="cls-1" d="M65,83.33a.42.42,0,0,1,0-.54Z"/><path class="cls-1" d="M229.15,30a.41.41,0,0,1-.53,0Z"/><path class="cls-1" d="M74.66,89.89v-.51A.38.38,0,0,1,74.66,89.89Z"/><path class="cls-1" d="M64.09,29.62h.52A.37.37,0,0,1,64.09,29.62Z"/><path class="cls-1" d="M59.82,29.08v-.51A.38.38,0,0,1,59.82,29.08Z"/><path class="cls-1" d="M228.81,111.33c0,.18.06.37-.08.52C228.74,111.68,228.66,111.48,228.81,111.33Z"/><path class="cls-1" d="M163,28.58a.42.42,0,0,1,0-.55Z"/><path class="cls-1" d="M220.78,102.53h-.52A.38.38,0,0,1,220.78,102.53Z"/><path class="cls-1" d="M207.94,82.27v-.51A.38.38,0,0,1,207.94,82.27Z"/><path class="cls-1" d="M20.49,41.29H20A.38.38,0,0,1,20.49,41.29Z"/><path class="cls-1" d="M48.94,28.06h.51A.38.38,0,0,1,48.94,28.06Z"/><path class="cls-1" d="M70.47,27.21a.42.42,0,0,1-.54,0Z"/><path class="cls-1" d="M133.71,113.61a.41.41,0,0,1,0,.54Z"/><path class="cls-1" d="M228.1,113.62a.39.39,0,0,1-.54,0Z"/><path class="cls-1" d="M153.26,113.72a.41.41,0,0,1,0,.53Z"/><path class="cls-1" d="M53.33,38c.1,0,.37-.17.3.18Z"/><path class="cls-1" d="M154.81,115.6c.16-.15.35-.08.53-.09C155.18,115.67,155,115.58,154.81,115.6Z"/><path class="cls-1" d="M80,119.15c.14.16.09.34.08.52C79.91,119.52,80,119.33,80,119.15Z"/><path class="cls-1" d="M9.62,57.5c0-.06-.06-.11,0-.13a.18.18,0,0,1,.12,0c.05,0,.1,0,.06.09S9.68,57.46,9.62,57.5Z"/><path class="cls-1" d="M243.31,48.39c-.06,0-.09.09-.13.09s-.06,0-.09-.07.06-.08.1-.08S243.26,48.36,243.31,48.39Z"/><path class="cls-1" d="M55.82,80a.37.37,0,0,1,.51,0Z"/><path class="cls-1" d="M204.05,26.25c-.18,0-.37.05-.53-.08C203.7,26.19,203.89,26.1,204.05,26.25Z"/><path class="cls-1" d="M80,121.67c0,.18.06.37-.08.53C79.89,122,79.81,121.83,80,121.67Z"/><path class="cls-1" d="M243.55,122c0,.14.07.22.23.2-.07.1-.16.14-.25.06S243.47,122.06,243.55,122Z"/><path class="cls-1" d="M139.87,122.5c.15-.14.34-.08.52-.09C140.24,122.57,140,122.48,139.87,122.5Z"/><path class="cls-1" d="M220.88,125.11a.42.42,0,0,1,.54,0Z"/><path class="cls-1" d="M102.67,42.14c0-.17,0-.36.09-.52C102.74,41.8,102.83,42,102.67,42.14Z"/><path class="cls-1" d="M211,127.73v.51A.37.37,0,0,1,211,127.73Z"/><path class="cls-1" d="M183.58,25.85a.42.42,0,0,1-.54,0Z"/><path class="cls-1" d="M119.16,60.54v.52A.4.4,0,0,1,119.16,60.54Z"/><path class="cls-1" d="M156.06,103c0,.13.07.21.22.19-.06.1-.15.15-.25.06S156,103,156.06,103Z"/><path class="cls-1" d="M80.39,88.74h-.51A.37.37,0,0,1,80.39,88.74Z"/><path class="cls-1" d="M209.39,103.29c.18,0,.37-.06.52.09C209.74,103.36,209.55,103.44,209.39,103.29Z"/><path class="cls-1" d="M184,24.29c0,.17,0,.34,0,.51A.36.36,0,0,1,184,24.29Z"/><path class="cls-1" d="M65.44,23.64h-.51A.38.38,0,0,1,65.44,23.64Z"/><path class="cls-1" d="M121.35,46.23c0,.18.06.37-.08.52C121.29,46.58,121.2,46.39,121.35,46.23Z"/><path class="cls-1" d="M49.56,75.81c.18,0,.38-.06.54.08C49.92,75.88,49.72,76,49.56,75.81Z"/><path class="cls-1" d="M246.18,49.06l.52,0A.36.36,0,0,1,246.18,49.06Z"/><path class="cls-1" d="M232,135.88h.51A.35.35,0,0,1,232,135.88Z"/><path class="cls-1" d="M246.81,138.61h.51A.38.38,0,0,1,246.81,138.61Z"/><path class="cls-1" d="M76.84,143.81c.14.15.09.34.09.52C76.78,144.18,76.86,144,76.84,143.81Z"/><path class="cls-1" d="M238.24,107.88l-.52,0A.37.37,0,0,1,238.24,107.88Z"/><path class="cls-1" d="M133.69,65.18c.42.25.59.6.87.85.45.4.8.34,1-.23a1.33,1.33,0,0,1,.69-.83c.51-.26.54-.77.49-1.28,0-.14-.14-.34.14-.33s.34-.14.38-.34a.62.62,0,0,0-.22-.65,1.09,1.09,0,0,0-.37-.19,3.42,3.42,0,0,1-2.09-1.69,5.66,5.66,0,0,0-.67-.86.7.7,0,0,1-.17-.72c.1-.41.35-.47.64-.17a26.15,26.15,0,0,0,2.67,2,3.39,3.39,0,0,1,1.49,2.67c0,.39.28.6.51.82a1.08,1.08,0,0,1,.43,1,1.22,1.22,0,0,0,.23.73.64.64,0,0,0,1.12.08,2.29,2.29,0,0,1,.23-.21c.51-.47.51-.59,0-1.07s-.18-1.38.58-1.75,1.21-.26,1.39.68a5.4,5.4,0,0,0,.71,2A2.92,2.92,0,0,0,146.52,67a13,13,0,0,0,1.95-.31c.65-.13,1,.16.91.81a4.74,4.74,0,0,1-.63,2.23,3.64,3.64,0,0,1-3.52,1.36,20.86,20.86,0,0,1-2.6-.48,4,4,0,0,1-1.4-.56,1.86,1.86,0,0,0-1.73-.34,7.36,7.36,0,0,1-1.82.61.62.62,0,0,0-.45.41c-.12.52-.37.32-.65.17A20.66,20.66,0,0,0,134,69.37a5.77,5.77,0,0,0-.9-.26c-.64-.12-.8-.41-.62-1a3.68,3.68,0,0,0,.24-1.23A.86.86,0,0,0,132,66a2.26,2.26,0,0,0-.93-.07c-1.4.23-2.83.24-4.23.49a8.33,8.33,0,0,0-2.7.93,2.27,2.27,0,0,1-2.19-.07c-.21-.1-.19-.2-.05-.35a1.92,1.92,0,0,1,1-.57l.76-.19c1.11-.32,1.41-.7,1.44-1.85a1.11,1.11,0,0,1,.69-1.12,5.09,5.09,0,0,0,1.59-1.41,5,5,0,0,1,3.15-1.67,2,2,0,0,1,1.78.52,14,14,0,0,0,3.06,2.57c.45.25.49.78.53,1.24,0,.27-.19.38-.44.43C134.85,64.93,134.32,65.05,133.69,65.18Z"/><path class="cls-1" d="M144.47,60.91a6.12,6.12,0,0,1,1.21-3.06.86.86,0,0,1,1.51.07c.06.09.12.18.17.27.52.9.58,1,1.55.53a1.28,1.28,0,0,1,1.35.16,17.28,17.28,0,0,1,2.25,1.55c.35.3.83.53.69,1.11a1.33,1.33,0,0,1-1.33,1,5,5,0,0,1-2-.53,3.33,3.33,0,0,0-2.66-.34,3.63,3.63,0,0,1-2,.26C144.47,61.83,144.47,61.88,144.47,60.91Z"/><path class="cls-1" d="M156.91,61.66c.06-.63.1-1.36.22-2.08a10.7,10.7,0,0,0-.37-4.06,3.81,3.81,0,0,1-.08-1.81c.09-.38.29-.53.65-.49a5.4,5.4,0,0,1,2.61,1.23c.2.15,0,.33,0,.47-.24.67-.49,1.34-.77,2a3.09,3.09,0,0,0,0,2.24c.2.66.37,1.33.56,2a2,2,0,0,1,0,.83c-.09.69-.17.73-.7.33-.32-.23-.41-.1-.48.2-.13.62-.27,1.25-.42,1.87,0,.11,0,.28-.16.3s-.21-.12-.28-.21A4.77,4.77,0,0,1,156.91,61.66Z"/><path class="cls-1" d="M139.12,40.1a5.11,5.11,0,0,0,0,2.17,2,2,0,0,0,2,1.81A21.22,21.22,0,0,1,139,47.52a6.24,6.24,0,0,1-5.22,1.83c-.12,0-.26,0-.3-.15s.11-.23.23-.29a1.33,1.33,0,0,1,.7-.16,2.14,2.14,0,0,0,2.1-1.1,8.57,8.57,0,0,0,1.61-3.74,3.56,3.56,0,0,0-.13-1.34A2.12,2.12,0,0,1,139.12,40.1Z"/><path class="cls-1" d="M163.16,74.74a7,7,0,0,1-1.6,1.74c-.45.33-1.05.15-1.53-.36A25.92,25.92,0,0,1,158,73a.69.69,0,0,1,.29-1,.62.62,0,0,1,1,.22c.19.27.34.57.51.85a3.16,3.16,0,0,0,2.91,1.6A.69.69,0,0,1,163.16,74.74Z"/><path class="cls-1" d="M139.92,39.05a3.08,3.08,0,0,1,.89-1.2A2.19,2.19,0,0,1,139.92,39.05Z"/><path class="cls-1" d="M37,51.8c.34,0,.62-.14.76.23A.72.72,0,0,1,37,51.8Z"/><path class="cls-1" d="M21.85,41.71a.58.58,0,0,1,.57,0,.09.09,0,0,1,0,.16A.54.54,0,0,1,21.85,41.71Z"/><path class="cls-1" d="M131.14,61.12c.24.5.48,1,.69,1.43a1.36,1.36,0,0,1-.07,1.24c-.12.23-.26.37-.53.27s-.53-.26-.42-.56C131.07,62.74,130.9,61.93,131.14,61.12Z"/></svg>