<svg xmlns="http://www.w3.org/2000/svg" xmlns:xlink="http://www.w3.org/1999/xlink" width="644.265" height="572.532" viewBox="0 0 644.265 572.532">
  <defs>
    <linearGradient id="linear-gradient" x1="0.5" x2="0.5" y2="1" gradientUnits="objectBoundingBox">
      <stop offset="0" stop-color="#08a8f2"/>
      <stop offset="1"/>
    </linearGradient>
    <linearGradient id="linear-gradient-2" x1="0.5" x2="0.5" y2="1.72" gradientUnits="objectBoundingBox">
      <stop offset="0" stop-color="#08a8f2"/>
      <stop offset="1" stop-color="#10337c"/>
    </linearGradient>
    <clipPath id="clip-path">
      <path id="Path_362" data-name="Path 362" d="M455.688,441.649c-9.357,15.245-56.835,22.4-82.75,21.728S272.454,427.4,267.4,419.921c-4.686-6.925-16.2-29.813,1.548-43.649a34.39,34.39,0,0,1,4.782-3.1c12.149-6.579,92.951,14.167,92.951,14.167s5-3.165,6.842-2.93c5.639.719,9.634,5.28,21.064,8.528,7.975,2.281,29.744-6.482,43.649,1.05a19.181,19.181,0,0,1,4.229,3.068C455.453,409.472,465.032,426.4,455.688,441.649Z" transform="translate(-259.382 -371.887)" fill="#92e3a9" stroke="#263238" stroke-linecap="round" stroke-linejoin="round" stroke-width="1"/>
    </clipPath>
    <clipPath id="clip-path-2">
      <path id="Path_367" data-name="Path 367" d="M332.162,435.92l24.21,19a277.051,277.051,0,0,0,34.717-5.189v-.011c11.473-2.657,21.49-6.466,22.041-11.685.839-7.935-7.643-10.109-17.723-9.8-1.885.042-3.816.187-5.765.391-16.134,1.729-36.64-7.183-36.64-7.183Z" transform="translate(-332.162 -421.446)" fill="#263238" stroke="#263238" stroke-linecap="round" stroke-linejoin="round" stroke-width="1"/>
    </clipPath>
    <clipPath id="clip-path-3">
      <path id="Path_371" data-name="Path 371" d="M348.958,437.356c-4.365.712.431,9.639,6.348,6.927S353.323,436.644,348.958,437.356Z" transform="translate(-347.268 -437.287)" fill="#fff" stroke="#263238" stroke-linecap="round" stroke-linejoin="round" stroke-width="1"/>
    </clipPath>
    <clipPath id="clip-path-4">
      <path id="Path_375" data-name="Path 375" d="M375.318,447.852c11.473-2.656,21.49-6.466,22.041-11.685.839-7.935-7.643-10.109-17.723-9.8C379.194,426.791,369.423,436.241,375.318,447.852Z" transform="translate(-373.433 -426.34)" fill="#fff" stroke="#263238" stroke-linecap="round" stroke-linejoin="round" stroke-width="1"/>
    </clipPath>
    <clipPath id="clip-path-5">
      <path id="Path_385" data-name="Path 385" d="M343.717,437.033l-26.072,16.355a277.062,277.062,0,0,1-33.981-8.807v-.012c-11.132-3.845-20.692-8.687-20.692-13.935,0-7.979,8.662-9.249,18.655-7.884,1.869.24,3.775.587,5.692,1,15.863,3.414,37.191-3.3,37.191-3.3Z" transform="translate(-262.972 -420.45)" fill="#263238" stroke="#263238" stroke-linecap="round" stroke-linejoin="round" stroke-width="1"/>
    </clipPath>
  </defs>
  <g id="Group_13237" data-name="Group 13237" transform="translate(-1136.735 -2683.293)">
    <g id="Group_13289" data-name="Group 13289" transform="translate(1016.73 2622.652)">
      <path id="Path_426" data-name="Path 426" d="M74.486,632.65H415.614q2.074-3.152,4.191-6.246c36.7-53.322,95.445-91.336,159.615-109.167,28.747-7.989,59.89-12.742,82.989-30.925,23.768-18.71,34.684-48.558,39.411-77.616,5.724-35.187,2.628-74.627-22.391-101.036-29.38-31.016-78.6-34.49-116.885-54.822-65.879-34.991-91.42-114.688-151.352-158.347-37.845-27.571-88.978-38.256-134.7-32.213-64.91,8.578-125.986,50.106-144.319,110.945a147.17,147.17,0,0,0-5.556,54.594c2.933,36.307,11.115,73.082,3.4,108.742-8.505,39.3-35.3,72.487-51.3,109.6-19.927,46.2-22.669,98.061-14.15,147.359A244.086,244.086,0,0,0,74.486,632.65Z" transform="translate(60 -0.001)" opacity="0.6" fill="url(#linear-gradient)"/>
      <path id="Path_427" data-name="Path 427" d="M214.1,631.849H555.229c1.383-2.1,2.775-4.19,4.19-6.246,36.7-53.322,95.446-91.336,159.617-109.169,28.747-7.988,59.889-12.742,82.988-30.925,23.767-18.709,34.685-48.556,39.413-77.616,5.722-35.185,2.628-74.625-22.391-101.036-29.382-31.015-78.606-34.488-116.885-54.82-65.879-34.991-91.42-114.688-151.352-158.348C512.962,66.119,461.829,55.434,416.1,61.476c-64.909,8.58-125.984,50.107-144.319,110.945a147.21,147.21,0,0,0-5.556,54.6c2.935,36.307,11.117,73.082,3.4,108.742-8.507,39.3-35.3,72.487-51.3,109.6-19.927,46.2-22.671,98.059-14.15,147.357A243.939,243.939,0,0,0,214.1,631.849Z" transform="translate(-79.614 0.801)" opacity="0.7" fill="url(#linear-gradient-2)"/>
    </g>
    <g id="Group_13288" data-name="Group 13288" transform="translate(1126.293 2659.122)">
      <g id="Floor" transform="translate(41.992 595.311)">
        <line id="Line_6" data-name="Line 6" x2="578.183" fill="none" stroke="#263238" stroke-linecap="round" stroke-linejoin="round" stroke-width="1"/>
      </g>
      <g id="Graphics" transform="translate(153.57 64.119)">
        <g id="Group_13242" data-name="Group 13242">
          <path id="Path_329" data-name="Path 329" d="M311.913,132.863v-21.7l-16.253-1.4a44.738,44.738,0,0,0-4.019-9.74l10.492-12.471L286.791,72.211,274.32,82.7a44.8,44.8,0,0,0-9.74-4.019l-1.4-16.253h-21.7l-1.4,16.253a44.8,44.8,0,0,0-9.74,4.019L217.869,72.211,202.527,87.553l10.492,12.471a44.8,44.8,0,0,0-4.019,9.74l-16.253,1.4v21.7l16.253,1.4a44.8,44.8,0,0,0,4.019,9.74l-10.492,12.471,15.342,15.342,12.471-10.492a44.736,44.736,0,0,0,9.74,4.019l1.4,16.253h21.7l1.4-16.253a44.736,44.736,0,0,0,9.74-4.019l12.471,10.492,15.342-15.342L291.641,144a44.736,44.736,0,0,0,4.019-9.74Zm-59.582,14.365a25.214,25.214,0,1,1,25.213-25.215A25.214,25.214,0,0,1,252.331,147.228Z" transform="translate(-95.957 -62.431)" fill="none" stroke="#fff" stroke-linecap="round" stroke-linejoin="round" stroke-width="2"/>
          <path id="Path_330" data-name="Path 330" d="M463.49,276.184V265.778l-7.794-.672a21.431,21.431,0,0,0-1.928-4.67l5.033-5.981-7.359-7.359-5.981,5.032a21.4,21.4,0,0,0-4.67-1.927l-.672-7.8H429.713l-.672,7.8a21.427,21.427,0,0,0-4.67,1.927L418.39,247.1l-7.359,7.359,5.032,5.981a21.469,21.469,0,0,0-1.928,4.67l-7.794.672v10.406l7.794.672a21.468,21.468,0,0,0,1.928,4.67l-5.032,5.981,7.359,7.359,5.981-5.032a21.431,21.431,0,0,0,4.67,1.928l.672,7.794h10.406l.672-7.794a21.4,21.4,0,0,0,4.67-1.928l5.981,5.032,7.359-7.359-5.033-5.981a21.4,21.4,0,0,0,1.928-4.67Zm-28.574,6.889a12.092,12.092,0,1,1,12.091-12.091A12.092,12.092,0,0,1,434.917,283.073Z" transform="translate(-14.328 6.35)" fill="none" stroke="#fff" stroke-linecap="round" stroke-linejoin="round" stroke-width="2"/>
          <g id="Group_13239" data-name="Group 13239" transform="translate(317.061 45.476)">
            <path id="Path_331" data-name="Path 331" d="M476.391,142.971a28.378,28.378,0,0,0-35.053-33.78,27.222,27.222,0,0,0-50.884,11.66,22.178,22.178,0,0,0-26.22,19.345,12.386,12.386,0,0,0,.271,24.768H468.563a12.388,12.388,0,0,0,7.827-21.993Z" transform="translate(-352.113 -95.333)" fill="none" stroke="#fff" stroke-linecap="round" stroke-linejoin="round" stroke-width="2"/>
            <g id="Group_13238" data-name="Group 13238" transform="translate(61.645 32.201)">
              <line id="Line_7" data-name="Line 7" y2="28.676" transform="translate(5.415 27.924)" fill="none" stroke="#fff" stroke-linecap="round" stroke-linejoin="round" stroke-width="2"/>
              <line id="Line_8" data-name="Line 8" y2="11.47" transform="translate(5.415 10.719)" fill="none" stroke="#fff" stroke-linecap="round" stroke-linejoin="round" stroke-width="2"/>
              <line id="Line_9" data-name="Line 9" y2="6.135" transform="translate(5.415)" fill="none" stroke="#fff" stroke-linecap="round" stroke-linejoin="round" stroke-width="2"/>
              <path id="Path_332" data-name="Path 332" d="M396.713,157.156l5.416,6.7,5.415-6.7" transform="translate(-396.713 -103.907)" fill="none" stroke="#fff" stroke-linecap="round" stroke-linejoin="round" stroke-width="2"/>
            </g>
          </g>
          <g id="Group_13241" data-name="Group 13241" transform="translate(0 381.829)">
            <path id="Path_333" data-name="Path 333" d="M247,386.321a28.379,28.379,0,0,0-35.055-33.78A27.222,27.222,0,0,0,161.06,364.2a22.187,22.187,0,0,0-26.221,19.345,12.386,12.386,0,0,0,.271,24.768H239.169A12.389,12.389,0,0,0,247,386.321Z" transform="translate(-122.719 -338.685)" fill="none" stroke="#fff" stroke-linecap="round" stroke-linejoin="round" stroke-width="2"/>
            <g id="Group_13240" data-name="Group 13240" transform="translate(61.646 32.2)">
              <line id="Line_10" data-name="Line 10" y1="28.676" transform="translate(5.415 3.352)" fill="none" stroke="#fff" stroke-linecap="round" stroke-linejoin="round" stroke-width="2"/>
              <line id="Line_11" data-name="Line 11" y1="11.47" transform="translate(5.415 37.763)" fill="none" stroke="#fff" stroke-linecap="round" stroke-linejoin="round" stroke-width="2"/>
              <line id="Line_12" data-name="Line 12" y1="6.136" transform="translate(5.415 53.816)" fill="none" stroke="#fff" stroke-linecap="round" stroke-linejoin="round" stroke-width="2"/>
              <path id="Path_334" data-name="Path 334" d="M178.151,368.685l-5.416-6.7-5.415,6.7" transform="translate(-167.32 -361.982)" fill="none" stroke="#fff" stroke-linecap="round" stroke-linejoin="round" stroke-width="2"/>
            </g>
          </g>
        </g>
      </g>
      <g id="Interface" transform="translate(52.016 58.014)">
        <g id="Group_13259" data-name="Group 13259">
          <path id="Rectangle_205" data-name="Rectangle 205" d="M4.236,0H355.021a4.236,4.236,0,0,1,4.236,4.236v18a0,0,0,0,1,0,0H0a0,0,0,0,1,0,0v-18A4.236,4.236,0,0,1,4.236,0Z" transform="translate(0 71.714)" fill="#08a8f2" stroke="#263238" stroke-linecap="round" stroke-linejoin="round" stroke-width="1"/>
          <rect id="Rectangle_206" data-name="Rectangle 206" width="363.112" height="255.518" transform="translate(15.717 98.071)" fill="#fff" stroke="#263238" stroke-linecap="round" stroke-linejoin="round" stroke-width="1"/>
          <path id="Path_335" data-name="Path 335" d="M330.425,119.481a5.56,5.56,0,1,1-5.559-5.559A5.56,5.56,0,0,1,330.425,119.481Z" transform="translate(53.964 -36.648)" fill="#fff" stroke="#263238" stroke-linecap="round" stroke-linejoin="round" stroke-width="1"/>
          <path id="Path_336" data-name="Path 336" d="M316.265,119.481a5.56,5.56,0,1,1-5.559-5.559A5.56,5.56,0,0,1,316.265,119.481Z" transform="translate(48.552 -36.648)" fill="#fff" stroke="#263238" stroke-linecap="round" stroke-linejoin="round" stroke-width="1"/>
          <path id="Path_337" data-name="Path 337" d="M302.1,119.481a5.56,5.56,0,1,1-5.56-5.559A5.56,5.56,0,0,1,302.1,119.481Z" transform="translate(43.141 -36.648)" fill="#fff" stroke="#263238" stroke-linecap="round" stroke-linejoin="round" stroke-width="1"/>
          <g id="Group_13243" data-name="Group 13243" transform="translate(353.449 109.029)">
            <line id="Line_13" data-name="Line 13" x1="14.38" fill="none" stroke="#263238" stroke-linecap="round" stroke-linejoin="round" stroke-width="2"/>
            <line id="Line_14" data-name="Line 14" x1="14.38" transform="translate(0 5.832)" fill="none" stroke="#263238" stroke-linecap="round" stroke-linejoin="round" stroke-width="2"/>
            <line id="Line_15" data-name="Line 15" x1="14.38" transform="translate(0 11.665)" fill="none" stroke="#263238" stroke-linecap="round" stroke-linejoin="round" stroke-width="2"/>
          </g>
          <g id="Group_13244" data-name="Group 13244" transform="translate(40.869 259.796)">
            <line id="Line_16" data-name="Line 16" x2="108.811" transform="translate(0 0)" fill="none" stroke="#263238" stroke-linecap="round" stroke-linejoin="round" stroke-width="2"/>
            <line id="Line_17" data-name="Line 17" x2="108.811" transform="translate(0 8.583)" fill="none" stroke="#263238" stroke-linecap="round" stroke-linejoin="round" stroke-width="2"/>
            <line id="Line_18" data-name="Line 18" x2="85.794" transform="translate(0 17.329)" fill="none" stroke="#263238" stroke-linecap="round" stroke-linejoin="round" stroke-width="2"/>
          </g>
          <g id="Group_13245" data-name="Group 13245" transform="translate(20.091 100.953)">
            <line id="Line_19" data-name="Line 19" y2="248.407" transform="translate(251.524)" fill="none" stroke="#263238" stroke-linecap="round" stroke-linejoin="round" stroke-width="1" stroke-dasharray="1 3"/>
            <line id="Line_20" data-name="Line 20" x2="353.178" transform="translate(0 195.334)" fill="none" stroke="#263238" stroke-linecap="round" stroke-linejoin="round" stroke-width="1" stroke-dasharray="1 3"/>
            <rect id="Rectangle_207" data-name="Rectangle 207" width="4.763" height="4.763" transform="translate(249.142 192.952)" fill="#fff" stroke="#263238" stroke-linecap="round" stroke-linejoin="round" stroke-width="1"/>
          </g>
          <g id="Group_13247" data-name="Group 13247" transform="translate(91.568)">
            <path id="Path_338" data-name="Path 338" d="M186.647,58.014H118.5a3.008,3.008,0,0,0-3.006,3.008V92.735a3.007,3.007,0,0,0,3.006,3.008h30.582l3.491,12.5,3.491-12.5h30.582a3.007,3.007,0,0,0,3.008-3.008V61.022A3.008,3.008,0,0,0,186.647,58.014Z" transform="translate(-115.494 -58.014)" fill="#08a8f2" stroke="#fff" stroke-linecap="round" stroke-linejoin="round" stroke-width="1"/>
            <g id="Group_13246" data-name="Group 13246" transform="translate(11.337 9.081)">
              <line id="Line_21" data-name="Line 21" x2="51.485" fill="none" stroke="#fff" stroke-linecap="round" stroke-linejoin="round" stroke-width="2"/>
              <line id="Line_22" data-name="Line 22" x2="51.485" transform="translate(0 6.523)" fill="none" stroke="#fff" stroke-linecap="round" stroke-linejoin="round" stroke-width="2"/>
              <line id="Line_23" data-name="Line 23" x2="51.485" transform="translate(0 13.045)" fill="none" stroke="#fff" stroke-linecap="round" stroke-linejoin="round" stroke-width="2"/>
              <line id="Line_24" data-name="Line 24" x2="38.802" transform="translate(0 19.568)" fill="none" stroke="#fff" stroke-linecap="round" stroke-linejoin="round" stroke-width="2"/>
            </g>
          </g>
          <g id="Group_13249" data-name="Group 13249" transform="translate(60.756 336.668)">
            <rect id="Rectangle_208" data-name="Rectangle 208" width="74.161" height="46.481" fill="#263238" stroke="#263238" stroke-linecap="round" stroke-linejoin="round" stroke-width="1"/>
            <rect id="Rectangle_209" data-name="Rectangle 209" width="74.161" height="7.067" fill="#08a8f2" stroke="#263238" stroke-linecap="round" stroke-linejoin="round" stroke-width="1"/>
            <g id="Group_13248" data-name="Group 13248" transform="translate(7.569 13.024)">
              <line id="Line_25" data-name="Line 25" x2="18.955" fill="none" stroke="#fff" stroke-linecap="round" stroke-linejoin="round" stroke-width="1"/>
              <line id="Line_26" data-name="Line 26" x2="32.808" transform="translate(9.478 5.286)" fill="none" stroke="#fff" stroke-linecap="round" stroke-linejoin="round" stroke-width="1"/>
              <line id="Line_27" data-name="Line 27" x2="9.66" transform="translate(5.286 10.217)" fill="none" stroke="#fff" stroke-linecap="round" stroke-linejoin="round" stroke-width="1"/>
              <line id="Line_28" data-name="Line 28" x2="22.097" transform="translate(9.478 16.039)" fill="none" stroke="#fff" stroke-linecap="round" stroke-linejoin="round" stroke-width="1"/>
              <line id="Line_29" data-name="Line 29" x2="18.955" transform="translate(0 21.325)" fill="none" stroke="#fff" stroke-linecap="round" stroke-linejoin="round" stroke-width="1"/>
            </g>
          </g>
          <g id="Group_13251" data-name="Group 13251" transform="translate(184.907 247.887)">
            <line id="Line_30" data-name="Line 30" x1="63.671" transform="translate(4.01 2.591)" fill="none" stroke="#263238" stroke-linecap="round" stroke-linejoin="round" stroke-width="1"/>
            <path id="Path_339" data-name="Path 339" d="M251.16,268.716s0-29.584-33.06-29.584-33.06,29.584-33.06,29.584" transform="translate(-182.255 -236.683)" fill="none" stroke="#263238" stroke-linecap="round" stroke-linejoin="round" stroke-width="1"/>
            <circle id="Ellipse_14" data-name="Ellipse 14" cx="2.785" cy="2.785" r="2.785" transform="translate(66.119 29.247)" fill="#92e3a9" stroke="#263238" stroke-linecap="round" stroke-linejoin="round" stroke-width="1"/>
            <path id="Path_340" data-name="Path 340" d="M183.025,261.306a2.785,2.785,0,1,1,2.785,2.785A2.785,2.785,0,0,1,183.025,261.306Z" transform="translate(-183.025 -229.274)" fill="#92e3a9" stroke="#263238" stroke-linecap="round" stroke-linejoin="round" stroke-width="1"/>
            <g id="Group_13250" data-name="Group 13250" transform="translate(0.336 0)">
              <rect id="Rectangle_210" data-name="Rectangle 210" width="4.898" height="4.898" transform="translate(71.017 4.898) rotate(180)" fill="#92e3a9" stroke="#263238" stroke-linecap="round" stroke-linejoin="round" stroke-width="1"/>
              <rect id="Rectangle_211" data-name="Rectangle 211" width="4.898" height="4.898" transform="translate(37.957 4.898) rotate(180)" fill="#92e3a9" stroke="#263238" stroke-linecap="round" stroke-linejoin="round" stroke-width="1"/>
              <rect id="Rectangle_212" data-name="Rectangle 212" width="4.898" height="4.898" transform="translate(4.898 4.898) rotate(180)" fill="#92e3a9" stroke="#263238" stroke-linecap="round" stroke-linejoin="round" stroke-width="1"/>
            </g>
          </g>
          <path id="Path_341" data-name="Path 341" d="M122.278,183.638v-9.775l-7.323-.63a20.1,20.1,0,0,0-1.811-4.388l4.727-5.617-6.911-6.912-5.619,4.727a20.1,20.1,0,0,0-4.388-1.811l-.63-7.323H90.549l-.632,7.323a20.087,20.087,0,0,0-4.387,1.811l-5.618-4.727L73,163.228l4.727,5.617a20.234,20.234,0,0,0-1.811,4.388l-7.323.63v9.775l7.323.632a20.235,20.235,0,0,0,1.811,4.388L73,194.275l6.912,6.912,5.618-4.727a20.058,20.058,0,0,0,4.387,1.811l.632,7.323h9.775l.63-7.323a20.069,20.069,0,0,0,4.388-1.811l5.619,4.727,6.911-6.912-4.727-5.617a20.1,20.1,0,0,0,1.811-4.388Zm-26.842,6.471a11.359,11.359,0,1,1,11.359-11.359A11.358,11.358,0,0,1,95.436,190.109Z" transform="translate(-41.85 -22.131)" fill="#08a8f2" stroke="#263238" stroke-linecap="round" stroke-linejoin="round" stroke-width="1"/>
          <path id="Path_342" data-name="Path 342" d="M141.63,196.733v-6.691l-5.012-.431a13.788,13.788,0,0,0-1.24-3l3.236-3.847-4.731-4.731-3.845,3.236a13.814,13.814,0,0,0-3-1.24l-.433-5.012H119.91l-.431,5.012a13.786,13.786,0,0,0-3,1.24l-3.847-3.236-4.731,4.731,3.236,3.847a13.786,13.786,0,0,0-1.24,3l-5.012.431v6.691l5.012.433a13.814,13.814,0,0,0,1.24,3l-3.236,3.845,4.731,4.731,3.847-3.236a13.788,13.788,0,0,0,3,1.24l.431,5.012H126.6l.433-5.012a13.788,13.788,0,0,0,3-1.24l3.845,3.236,4.731-4.731-3.236-3.845a13.816,13.816,0,0,0,1.24-3Zm-18.373,4.43a7.775,7.775,0,1,1,7.775-7.775A7.776,7.776,0,0,1,123.257,201.163Z" transform="translate(-27.981 -13.301)" fill="#08a8f2" stroke="#263238" stroke-linecap="round" stroke-linejoin="round" stroke-width="1"/>
          <g id="Group_13252" data-name="Group 13252" transform="translate(285.28 312.54)">
            <line id="Line_31" data-name="Line 31" x2="53.525" transform="translate(0 0)" fill="none" stroke="#263238" stroke-linecap="round" stroke-linejoin="round" stroke-width="2"/>
            <line id="Line_32" data-name="Line 32" x2="53.525" transform="translate(0 8.583)" fill="none" stroke="#263238" stroke-linecap="round" stroke-linejoin="round" stroke-width="2"/>
            <line id="Line_33" data-name="Line 33" x2="30.507" transform="translate(0 17.329)" fill="none" stroke="#263238" stroke-linecap="round" stroke-linejoin="round" stroke-width="2"/>
          </g>
          <path id="Path_343" data-name="Path 343" d="M214.321,303.083H186.14a6.934,6.934,0,0,1-6.934-6.934h0a6.935,6.935,0,0,1,6.934-6.936h28.181a6.936,6.936,0,0,1,6.936,6.936h0A6.935,6.935,0,0,1,214.321,303.083Z" transform="translate(0.423 30.342)" fill="#08a8f2" stroke="#263238" stroke-linecap="round" stroke-linejoin="round" stroke-width="1"/>
          <path id="Path_344" data-name="Path 344" d="M252.316,303.083H224.135a6.935,6.935,0,0,1-6.936-6.934h0a6.936,6.936,0,0,1,6.936-6.936h28.181a6.935,6.935,0,0,1,6.934,6.936h0A6.934,6.934,0,0,1,252.316,303.083Z" transform="translate(14.942 30.342)" fill="#08a8f2" stroke="#263238" stroke-linecap="round" stroke-linejoin="round" stroke-width="1"/>
          <g id="Group_13253" data-name="Group 13253" transform="translate(289.189 185.144)">
            <rect id="Rectangle_213" data-name="Rectangle 213" width="59.766" height="59.766" fill="#fff" stroke="#263238" stroke-linecap="round" stroke-linejoin="round" stroke-width="1"/>
            <line id="Line_34" data-name="Line 34" x2="59.766" y2="59.766" fill="#fff" stroke="#263238" stroke-linecap="round" stroke-linejoin="round" stroke-width="1"/>
            <line id="Line_35" data-name="Line 35" x1="59.766" y2="59.766" fill="#fff" stroke="#263238" stroke-linecap="round" stroke-linejoin="round" stroke-width="1"/>
          </g>
          <g id="Group_13255" data-name="Group 13255" transform="translate(339.686 149.643)">
            <rect id="Rectangle_214" data-name="Rectangle 214" width="74.161" height="46.481" fill="#263238" stroke="#263238" stroke-linecap="round" stroke-linejoin="round" stroke-width="1"/>
            <rect id="Rectangle_215" data-name="Rectangle 215" width="74.161" height="7.067" fill="#08a8f2" stroke="#263238" stroke-linecap="round" stroke-linejoin="round" stroke-width="1"/>
            <g id="Group_13254" data-name="Group 13254" transform="translate(7.569 13.024)">
              <line id="Line_36" data-name="Line 36" x2="18.955" fill="none" stroke="#fff" stroke-linecap="round" stroke-linejoin="round" stroke-width="1"/>
              <line id="Line_37" data-name="Line 37" x2="32.807" transform="translate(9.478 5.286)" fill="none" stroke="#fff" stroke-linecap="round" stroke-linejoin="round" stroke-width="1"/>
              <line id="Line_38" data-name="Line 38" x2="9.66" transform="translate(5.286 10.217)" fill="none" stroke="#fff" stroke-linecap="round" stroke-linejoin="round" stroke-width="1"/>
              <line id="Line_39" data-name="Line 39" x2="22.097" transform="translate(9.478 16.039)" fill="none" stroke="#fff" stroke-linecap="round" stroke-linejoin="round" stroke-width="1"/>
              <line id="Line_40" data-name="Line 40" x2="18.955" transform="translate(0 21.325)" fill="none" stroke="#fff" stroke-linecap="round" stroke-linejoin="round" stroke-width="1"/>
            </g>
          </g>
          <g id="Group_13256" data-name="Group 13256" transform="translate(292.53 117.299)">
            <path id="Path_345" data-name="Path 345" d="M280.987,142.88v13.946l-6.151,6.151H260.89v-20.1Z" transform="translate(-260.89 -142.88)" fill="#fff" stroke="#263238" stroke-linecap="round" stroke-linejoin="round" stroke-width="1"/>
            <path id="Path_346" data-name="Path 346" d="M277.131,152.97l-6.151,6.151V152.97Z" transform="translate(-257.034 -139.024)" fill="#fff" stroke="#263238" stroke-linecap="round" stroke-linejoin="round" stroke-width="1"/>
          </g>
          <g id="Group_13257" data-name="Group 13257" transform="translate(78.803 225.156)">
            <path id="Path_347" data-name="Path 347" d="M126.355,220.915v13.946l-6.151,6.151H106.258v-20.1Z" transform="translate(-106.258 -220.915)" fill="#fff" stroke="#263238" stroke-linecap="round" stroke-linejoin="round" stroke-width="1"/>
            <path id="Path_348" data-name="Path 348" d="M122.5,231l-6.151,6.151V231Z" transform="translate(-102.402 -217.059)" fill="#fff" stroke="#263238" stroke-linecap="round" stroke-linejoin="round" stroke-width="1"/>
          </g>
          <g id="Group_13258" data-name="Group 13258" transform="translate(2.862 311.075)">
            <path id="Path_349" data-name="Path 349" d="M71.411,283.077v13.946l-6.151,6.151H51.315v-20.1Z" transform="translate(-51.315 -283.077)" fill="#fff" stroke="#263238" stroke-linecap="round" stroke-linejoin="round" stroke-width="1"/>
            <path id="Path_350" data-name="Path 350" d="M67.555,293.167,61.4,299.318v-6.151Z" transform="translate(-47.459 -279.221)" fill="#fff" stroke="#263238" stroke-linecap="round" stroke-linejoin="round" stroke-width="1"/>
          </g>
        </g>
      </g>
      <g id="Character" transform="translate(176.297 170.877)">
        <g id="Group_13287" data-name="Group 13287">
          <path id="Path_351" data-name="Path 351" d="M255.017,231.169c-7.306.625-16.6-8.112-16.6-8.112a1.634,1.634,0,0,1-2.61-.332c-1.187-1.708-6.341-5.671-6.633-9.1s5.8-8.99,5.8-8.99c-4.7,1.281-5.191-1.471-5.191-1.471s7.894-6.518,10.654-6.692c1.081-.069,5.789,2.636,10.333,6.292,4.755,3.824,13.677,17.3,13.677,17.3S294.648,242,302.283,247.616c10.072,7.408,22.011,20.549,22.011,20.549S364.4,286.24,375.4,296.174l-14.945,35.418s-36.453-24.424-40.1-30.621-7.291-2.469-10.936-6.52-7.14-8.679-7.14-8.679a61.706,61.706,0,0,1-17.348-12.612c-8.525-8.749-16.029-22.13-20.741-30.149S255.017,231.169,255.017,231.169Z" transform="translate(-104.767 -117.963)" fill="#fff" stroke="#263238" stroke-linecap="round" stroke-linejoin="round" stroke-width="1"/>
          <path id="Path_352" data-name="Path 352" d="M256.03,223.547s-10.871-2.634-11.818-9.809a13.274,13.274,0,0,0-2.333-5.016s-10.153-.5-9.508-4.634l13.537-1.2a23.585,23.585,0,0,1,11.8,9.918" transform="translate(-103.552 -115.509)" fill="#fff" stroke="#263238" stroke-linecap="round" stroke-linejoin="round" stroke-width="1"/>
          <path id="Path_353" data-name="Path 353" d="M235.856,218.991a4.4,4.4,0,0,0,.457-2.93s2.985-.54,2.652-3.186c0,0,4.428-.545,1.57-5.765" transform="translate(-102.209 -113.897)" fill="none" stroke="#263238" stroke-linecap="round" stroke-linejoin="round" stroke-width="1"/>
          <path id="Path_354" data-name="Path 354" d="M239.937,213.058s-5.946-4.416-6.621-6.426" transform="translate(-103.18 -114.08)" fill="none" stroke="#263238" stroke-linecap="round" stroke-linejoin="round" stroke-width="1"/>
          <path id="Path_355" data-name="Path 355" d="M237.971,215.279s-6.34-3.859-6.452-6.124" transform="translate(-103.866 -113.116)" fill="none" stroke="#263238" stroke-linecap="round" stroke-linejoin="round" stroke-width="1"/>
          <path id="Path_356" data-name="Path 356" d="M238.714,199.206s-2.014,3.625-5.35,4.383" transform="translate(-103.161 -116.918)" fill="none" stroke="#263238" stroke-linecap="round" stroke-linejoin="round" stroke-width="1"/>
          <path id="Path_357" data-name="Path 357" d="M236.511,200.234a17.425,17.425,0,0,1,2.984,1.974" transform="translate(-101.959 -116.525)" fill="none" stroke="#263238" stroke-linecap="round" stroke-linejoin="round" stroke-width="1"/>
          <path id="Path_358" data-name="Path 358" d="M438.328,296.231S414.37,285.8,390.089,280.115s-63.526-10.755-63.526-10.755,10.8,110.3,7.961,116.931-19.934,28.915-19.934,28.915,92.456,36.048,108.572,39.117,7.71-52.862,7.71-52.862S447.806,330.359,438.328,296.231Z" transform="translate(-72.119 -90.107)" fill="#263238"/>
          <path id="Path_359" data-name="Path 359" d="M390.788,288.647s2.2,4.188-3.58,6.317c-14.969,5.529-30.919.65-29.219-5.211.65-2.239,4.354,0,4.119-8.362a10.183,10.183,0,0,0-1.009-3.677,37.963,37.963,0,0,0-3.8-6.372,79.154,79.154,0,0,0-5.128-6.4s23.759-15.162,41.382,0C393.552,264.943,387,268.26,390.788,288.647Z" transform="translate(-57.758 -94.371)" fill="#fff" stroke="#263238" stroke-linecap="round" stroke-linejoin="round" stroke-width="1"/>
          <g id="Group_13261" data-name="Group 13261" transform="translate(166.164 320.963)">
            <path id="Path_360" data-name="Path 360" d="M455.688,441.649c-9.357,15.245-56.835,22.4-82.75,21.728S272.454,427.4,267.4,419.921c-4.686-6.925-16.2-29.813,1.548-43.649a34.39,34.39,0,0,1,4.782-3.1c12.149-6.579,92.951,14.167,92.951,14.167s5-3.165,6.842-2.93c5.639.719,9.634,5.28,21.064,8.528,7.975,2.281,29.744-6.482,43.649,1.05a19.181,19.181,0,0,1,4.229,3.068C455.453,409.472,465.032,426.4,455.688,441.649Z" transform="translate(-259.382 -371.887)" fill="#08a8f2"/>
            <g id="Group_13260" data-name="Group 13260" clip-path="url(#clip-path)">
              <path id="Path_361" data-name="Path 361" d="M435.588,393.992c-14.25-.954-26.952,2.032-35.826,7.27-10.518,6.22-60.193,30.145-60.193,30.145.111-2.571,2.875-7.754,2.875-7.754-4.672-4.16-16.89-7.395-16.89-7.395-9.468-8.086-47.035-32.2-59.254-39.986a34.39,34.39,0,0,1,4.782-3.1c12.149-6.579,92.951,14.167,92.951,14.167s5-3.165,6.842-2.93c5.639.719,9.634,5.28,21.064,8.528C399.914,395.222,421.683,386.459,435.588,393.992Z" transform="translate(-256.738 -371.887)" fill="rgba(0,0,0,0.7)" opacity="0.3"/>
            </g>
            <path id="Path_363" data-name="Path 363" d="M455.688,441.649c-9.357,15.245-56.835,22.4-82.75,21.728S272.454,427.4,267.4,419.921c-4.686-6.925-16.2-29.813,1.548-43.649a34.39,34.39,0,0,1,4.782-3.1c12.149-6.579,92.951,14.167,92.951,14.167s5-3.165,6.842-2.93c5.639.719,9.634,5.28,21.064,8.528,7.975,2.281,29.744-6.482,43.649,1.05a19.181,19.181,0,0,1,4.229,3.068C455.453,409.472,465.032,426.4,455.688,441.649Z" transform="translate(-259.382 -371.887)" fill="none" stroke="#263238" stroke-linecap="round" stroke-linejoin="round" stroke-width="1"/>
          </g>
          <g id="Group_13273" data-name="Group 13273" transform="translate(266.758 389.461)">
            <path id="Path_364" data-name="Path 364" d="M406.6,432.316l1.194,5.209s-3.178,9.023-17.155,10.493-22.249,4.569-28.965,4.973a57.475,57.475,0,0,1-10.626-.17l-1.372-2.051Z" transform="translate(-325.467 -417.292)" fill="#fff" stroke="#263238" stroke-linecap="round" stroke-linejoin="round" stroke-width="1"/>
            <g id="Group_13263" data-name="Group 13263">
              <path id="Path_365" data-name="Path 365" d="M332.162,435.92l24.21,19a277.051,277.051,0,0,0,34.717-5.189v-.011c11.473-2.657,21.49-6.466,22.041-11.685.839-7.935-7.643-10.109-17.723-9.8-1.885.042-3.816.187-5.765.391-16.134,1.729-36.64-7.183-36.64-7.183Z" transform="translate(-332.162 -421.446)" fill="#263238"/>
              <g id="Group_13262" data-name="Group 13262" clip-path="url(#clip-path-2)">
                <path id="Path_366" data-name="Path 366" d="M413.142,437.862a74.481,74.481,0,0,0-13.466,6.626s-22.491,11.574-57.046-.347l-10.471-8.22,20.847-14.474s20.5,8.914,36.641,7.176c1.953-.2,3.881-.347,5.764-.383C405.414,427.929,413.837,430.062,413.142,437.862Z" transform="translate(-332.164 -421.446)" fill="rgba(0,0,0,0.7)" opacity="0.3"/>
              </g>
              <path id="Path_368" data-name="Path 368" d="M332.162,435.92l24.21,19a277.051,277.051,0,0,0,34.717-5.189v-.011c11.473-2.657,21.49-6.466,22.041-11.685.839-7.935-7.643-10.109-17.723-9.8-1.885.042-3.816.187-5.765.391-16.134,1.729-36.64-7.183-36.64-7.183Z" transform="translate(-332.162 -421.446)" fill="none" stroke="#263238" stroke-linecap="round" stroke-linejoin="round" stroke-width="1"/>
            </g>
            <g id="Group_13265" data-name="Group 13265" transform="translate(20.879 21.894)">
              <path id="Path_369" data-name="Path 369" d="M348.958,437.356c-4.365.712.431,9.639,6.348,6.927S353.323,436.644,348.958,437.356Z" transform="translate(-347.268 -437.287)" fill="#fff"/>
              <g id="Group_13264" data-name="Group 13264" clip-path="url(#clip-path-3)">
                <path id="Path_370" data-name="Path 370" d="M357.151,442.844a92.929,92.929,0,0,1-9.406-1.642c-.839-1.748-.647-3.547,1.211-3.845C352.622,436.757,358.781,440.136,357.151,442.844Z" transform="translate(-347.267 -437.287)" fill="rgba(0,0,0,0.7)" opacity="0.2"/>
              </g>
              <path id="Path_372" data-name="Path 372" d="M348.958,437.356c-4.365.712.431,9.639,6.348,6.927S353.323,436.644,348.958,437.356Z" transform="translate(-347.268 -437.287)" fill="none" stroke="#263238" stroke-linecap="round" stroke-linejoin="round" stroke-width="1"/>
            </g>
            <g id="Group_13267" data-name="Group 13267" transform="translate(57.043 6.764)">
              <path id="Path_373" data-name="Path 373" d="M375.318,447.852c11.473-2.656,21.49-6.466,22.041-11.685.839-7.935-7.643-10.109-17.723-9.8C379.194,426.791,369.423,436.241,375.318,447.852Z" transform="translate(-373.433 -426.34)" fill="#fff"/>
              <g id="Group_13266" data-name="Group 13266" clip-path="url(#clip-path-4)">
                <path id="Path_374" data-name="Path 374" d="M397.366,435.991a74.483,74.483,0,0,0-13.466,6.626,45.393,45.393,0,0,1-9.466,3.164c-3.87-10.64,4.781-19.016,5.2-19.411C389.638,426.059,398.061,428.192,397.366,435.991Z" transform="translate(-373.43 -426.339)" fill="rgba(0,0,0,0.7)" opacity="0.3"/>
              </g>
              <path id="Path_376" data-name="Path 376" d="M375.318,447.852c11.473-2.656,21.49-6.466,22.041-11.685.839-7.935-7.643-10.109-17.723-9.8C379.194,426.791,369.423,436.241,375.318,447.852Z" transform="translate(-373.433 -426.34)" fill="none" stroke="#263238" stroke-linecap="round" stroke-linejoin="round" stroke-width="1"/>
            </g>
            <g id="Group_13268" data-name="Group 13268" transform="translate(49.675 6.149)">
              <path id="Path_377" data-name="Path 377" d="M369.173,438.166l.069.006a1.2,1.2,0,0,0,1.254-1.139c.241-5,4.088-9.07,4.127-9.111a1.2,1.2,0,0,0-1.726-1.661c-.184.192-4.509,4.742-4.793,10.656A1.2,1.2,0,0,0,369.173,438.166Z" transform="translate(-368.102 -425.895)" fill="#fff" stroke="#263238" stroke-linecap="round" stroke-linejoin="round" stroke-width="1"/>
            </g>
            <g id="Group_13269" data-name="Group 13269" transform="translate(44.879 6.11)">
              <path id="Path_378" data-name="Path 378" d="M365.7,438.464a.869.869,0,0,0,.1.007,1.2,1.2,0,0,0,1.222-1.173c.1-5.05,3.631-9.429,3.667-9.475a1.2,1.2,0,0,0-1.852-1.519c-.167.2-4.1,5.048-4.21,10.945A1.2,1.2,0,0,0,365.7,438.464Z" transform="translate(-364.632 -425.866)" fill="#fff" stroke="#263238" stroke-linecap="round" stroke-linejoin="round" stroke-width="1"/>
            </g>
            <g id="Group_13270" data-name="Group 13270" transform="translate(39.141 5.528)">
              <path id="Path_379" data-name="Path 379" d="M361.554,438.02l.021,0a1.2,1.2,0,0,0,1.3-1.089c.369-4.2,3.941-9.567,3.977-9.621a1.2,1.2,0,0,0-1.989-1.337c-.162.241-3.952,5.931-4.375,10.748A1.2,1.2,0,0,0,361.554,438.02Z" transform="translate(-360.481 -425.445)" fill="#fff" stroke="#263238" stroke-linecap="round" stroke-linejoin="round" stroke-width="1"/>
            </g>
            <g id="Group_13271" data-name="Group 13271" transform="translate(33.601 4.563)">
              <path id="Path_380" data-name="Path 380" d="M357.665,437.714a1.224,1.224,0,0,0,.325-.01,1.2,1.2,0,0,0,.984-1.379c-.851-5.089,3.877-9.448,3.924-9.491a1.2,1.2,0,0,0-1.606-1.78c-.235.213-5.753,5.27-4.681,11.667A1.2,1.2,0,0,0,357.665,437.714Z" transform="translate(-356.472 -424.747)" fill="#fff" stroke="#263238" stroke-linecap="round" stroke-linejoin="round" stroke-width="1"/>
            </g>
            <g id="Group_13272" data-name="Group 13272" transform="translate(27.648 2.947)">
              <path id="Path_381" data-name="Path 381" d="M353.424,436.744a1.2,1.2,0,0,0,1.294-1.46c-1.042-4.536,3.431-9.664,3.476-9.714a1.2,1.2,0,0,0-1.794-1.591c-.218.246-5.338,6.094-4.017,11.841A1.2,1.2,0,0,0,353.424,436.744Z" transform="translate(-352.166 -423.578)" fill="#fff" stroke="#263238" stroke-linecap="round" stroke-linejoin="round" stroke-width="1"/>
            </g>
          </g>
          <g id="Group_13281" data-name="Group 13281" transform="translate(169.388 388.084)">
            <path id="Path_382" data-name="Path 382" d="M263.451,426.677l-1.736,5.057s2.213,9.3,15.958,12.236,21.646,6.882,28.282,7.988a57.515,57.515,0,0,0,10.586.948l1.581-1.9Z" transform="translate(-261.715 -418.07)" fill="#fff" stroke="#263238" stroke-linecap="round" stroke-linejoin="round" stroke-width="1"/>
            <g id="Group_13275" data-name="Group 13275" transform="translate(1.737)">
              <path id="Path_383" data-name="Path 383" d="M343.717,437.033l-26.072,16.355a277.062,277.062,0,0,1-33.981-8.807v-.012c-11.132-3.845-20.692-8.687-20.692-13.935,0-7.979,8.662-9.249,18.655-7.884,1.869.24,3.775.587,5.692,1,15.863,3.414,37.191-3.3,37.191-3.3Z" transform="translate(-262.972 -420.45)" fill="#263238"/>
              <g id="Group_13274" data-name="Group 13274" clip-path="url(#clip-path-5)">
                <path id="Path_384" data-name="Path 384" d="M334.242,437.033l-15.337,9.621a61.813,61.813,0,0,1-31.14-21.939c13.6.036,27.27-4.265,27.27-4.265Z" transform="translate(-253.497 -420.45)" fill="rgba(0,0,0,0.7)" opacity="0.3"/>
              </g>
              <path id="Path_386" data-name="Path 386" d="M343.717,437.033l-26.072,16.355a277.062,277.062,0,0,1-33.981-8.807v-.012c-11.132-3.845-20.692-8.687-20.692-13.935,0-7.979,8.662-9.249,18.655-7.884,1.869.24,3.775.587,5.692,1,15.863,3.414,37.191-3.3,37.191-3.3Z" transform="translate(-262.972 -420.45)" fill="none" stroke="#263238" stroke-linecap="round" stroke-linejoin="round" stroke-width="1"/>
            </g>
            <path id="Path_387" data-name="Path 387" d="M283.664,444.064c-11.132-3.845-20.692-8.687-20.692-13.935,0-7.979,8.662-9.249,18.655-7.884C282.022,422.713,290.745,433.137,283.664,444.064Z" transform="translate(-261.235 -419.945)" fill="#fff" stroke="#263238" stroke-linecap="round" stroke-linejoin="round" stroke-width="1"/>
            <g id="Group_13276" data-name="Group 13276" transform="translate(27.007 2.486)">
              <path id="Path_388" data-name="Path 388" d="M285.85,434.94l-.069,0a1.2,1.2,0,0,1-1.128-1.263c.286-5-3.113-9.45-3.147-9.494a1.2,1.2,0,0,1,1.892-1.471c.162.209,3.985,5.189,3.648,11.1A1.2,1.2,0,0,1,285.85,434.94Z" transform="translate(-281.254 -422.248)" fill="#fff" stroke="#263238" stroke-linecap="round" stroke-linejoin="round" stroke-width="1"/>
            </g>
            <g id="Group_13277" data-name="Group 13277" transform="translate(32.299 3.006)">
              <path id="Path_389" data-name="Path 389" d="M289.127,435.586a.867.867,0,0,1-.1,0,1.2,1.2,0,0,1-1.092-1.3c.431-5.033-2.621-9.758-2.652-9.806a1.2,1.2,0,0,1,2-1.317c.145.22,3.541,5.451,3.037,11.327A1.2,1.2,0,0,1,289.127,435.586Z" transform="translate(-285.084 -422.624)" fill="#fff" stroke="#263238" stroke-linecap="round" stroke-linejoin="round" stroke-width="1"/>
            </g>
            <g id="Group_13278" data-name="Group 13278" transform="translate(37.83 3.005)">
              <path id="Path_390" data-name="Path 390" d="M293.364,435.586h-.021a1.2,1.2,0,0,1-1.176-1.219c.075-4.214-2.914-9.928-2.944-9.985a1.2,1.2,0,0,1,2.119-1.121c.135.257,3.306,6.314,3.22,11.149A1.2,1.2,0,0,1,293.364,435.586Z" transform="translate(-289.085 -422.624)" fill="#fff" stroke="#263238" stroke-linecap="round" stroke-linejoin="round" stroke-width="1"/>
            </g>
            <g id="Group_13279" data-name="Group 13279" transform="translate(43.194 2.601)">
              <path id="Path_391" data-name="Path 391" d="M297.332,435.7a1.235,1.235,0,0,1-.322-.043,1.2,1.2,0,0,1-.835-1.475c1.382-4.972-2.861-9.8-2.905-9.852a1.2,1.2,0,0,1,1.784-1.6c.212.236,5.168,5.845,3.431,12.094A1.2,1.2,0,0,1,297.332,435.7Z" transform="translate(-292.966 -422.332)" fill="#fff" stroke="#263238" stroke-linecap="round" stroke-linejoin="round" stroke-width="1"/>
            </g>
            <g id="Group_13280" data-name="Group 13280" transform="translate(49.772 1.67)">
              <path id="Path_392" data-name="Path 392" d="M301.516,435.166a1.2,1.2,0,0,1-1.133-1.588c1.513-4.4-2.4-9.97-2.435-10.025a1.2,1.2,0,0,1,1.95-1.393c.192.267,4.669,6.621,2.751,12.2A1.2,1.2,0,0,1,301.516,435.166Z" transform="translate(-297.725 -421.659)" fill="#fff" stroke="#263238" stroke-linecap="round" stroke-linejoin="round" stroke-width="1"/>
            </g>
            <path id="Path_393" data-name="Path 393" d="M307.046,436.178c4.267,1.166-1.44,9.54-7.041,6.222S302.781,435.012,307.046,436.178Z" transform="translate(-247.795 -414.517)" fill="#fff" stroke="#263238" stroke-linecap="round" stroke-linejoin="round" stroke-width="1"/>
          </g>
          <path id="Path_394" data-name="Path 394" d="M268.917,403.986c6.409,8.973,25.381,18.88,44.287,27.056a89.248,89.248,0,0,0,11.856,15.493c11.639,11.971,16.384,5.263,16.384,5.263s7.35-.824,18.207-2.311a5.149,5.149,0,0,0,5.489,3.085c1.411-.224,4.13-2.242,7.2-4.908,27.4-4.124,64.6-11,74.648-19.1" transform="translate(-89.574 -38.658)" fill="#08a8f2" stroke="#263238" stroke-linecap="round" stroke-linejoin="round" stroke-width="1"/>
          <g id="Group_13282" data-name="Group 13282" transform="translate(222.72 343.232)">
            <path id="Path_395" data-name="Path 395" d="M424.247,393.031c-4.739-5.214-9.48-5.451-19.435-4.74,0,0-25.97,8.235-44.081,19.2s-44.557,22.478-44.557,22.478-8.058-2.333-13.664,0c0,0-3.938.305-1.3,7.185" transform="translate(-300.301 -387.999)" fill="none" stroke="#263238" stroke-linecap="round" stroke-linejoin="round" stroke-width="1"/>
            <path id="Path_396" data-name="Path 396" d="M401.832,414.167s.133,8.03-11.251,13.592" transform="translate(-265.798 -377.999)" fill="none" stroke="#263238" stroke-linecap="round" stroke-linejoin="round" stroke-width="1"/>
            <path id="Path_397" data-name="Path 397" d="M307.841,389.925s17.983,13,21.567,21.567c0,0,6.915,2.943,10.211,5.263" transform="translate(-297.419 -387.263)" fill="none" stroke="#263238" stroke-linecap="round" stroke-linejoin="round" stroke-width="1"/>
            <path id="Path_398" data-name="Path 398" d="M324.389,397.742a20.583,20.583,0,0,1,.632,11.623" transform="translate(-291.095 -384.276)" fill="none" stroke="#263238" stroke-linecap="round" stroke-linejoin="round" stroke-width="1"/>
            <path id="Path_399" data-name="Path 399" d="M321.391,391.64a31.849,31.849,0,0,1,2.574,4.495" transform="translate(-292.24 -386.608)" fill="none" stroke="#263238" stroke-linecap="round" stroke-linejoin="round" stroke-width="1"/>
            <path id="Path_400" data-name="Path 400" d="M339.906,390.783s6.014,8.035,7.511,14.564" transform="translate(-285.165 -386.935)" fill="none" stroke="#263238" stroke-linecap="round" stroke-linejoin="round" stroke-width="1"/>
            <path id="Path_401" data-name="Path 401" d="M364.136,426.166a51.719,51.719,0,0,0,6.669-.822" transform="translate(-275.905 -373.727)" fill="none" stroke="#263238" stroke-linecap="round" stroke-linejoin="round" stroke-width="1"/>
            <path id="Path_402" data-name="Path 402" d="M323.328,421.77a320.816,320.816,0,0,0,51.688,5.935" transform="translate(-291.5 -375.093)" fill="none" stroke="#263238" stroke-linecap="round" stroke-linejoin="round" stroke-width="1"/>
          </g>
          <path id="Path_403" data-name="Path 403" d="M437.8,336.545s-3.247,56.6-7.074,59.917-9.871,4.265-21.306,5.214-61.987,4.055-61.987,4.055l-5.407-16.246s26.882-2.728,38.813-7.12S408.3,375.1,408.3,375.1s-2.258-14.254-2.258-20.383V325.851" transform="translate(-61.634 -68.518)" fill="#fff" stroke="#263238" stroke-linecap="round" stroke-linejoin="round" stroke-width="1"/>
          <path id="Path_404" data-name="Path 404" d="M411.677,288.8c12.328,7.584,15.961,25.122,11.694,62.569,0,0,3.639,4.424-1.737,6.636,0,0-20.131-7.529-29.5-2.343s-6.937-7.171-6.937-7.171-3.853-34.445,4.679-40.669" transform="translate(-45.468 -82.678)" fill="#263238"/>
          <path id="Path_405" data-name="Path 405" d="M389.122,298.747S377.272,311.07,387.7,342.2c0,0-1.448,5.663-1.436,7.742s2.858,3.161,2.858,3.161" transform="translate(-45.82 -78.877)" fill="none" stroke="#fff" stroke-linecap="round" stroke-linejoin="round" stroke-width="1"/>
          <path id="Path_406" data-name="Path 406" d="M377.518,313.836S378.382,329,387.8,335.641" transform="translate(-48.07 -73.11)" fill="none" stroke="#fff" stroke-linecap="round" stroke-linejoin="round" stroke-width="1"/>
          <path id="Path_407" data-name="Path 407" d="M390.451,291.834s-18.368,7.038-32.983-.753c-8.663-4.618-5.095-12.044-5.095-12.044" transform="translate(-57.958 -86.409)" fill="none" stroke="#fff" stroke-linecap="round" stroke-linejoin="round" stroke-width="1"/>
          <g id="Group_13283" data-name="Group 13283" transform="translate(167.783 264.559)">
            <path id="Path_408" data-name="Path 408" d="M285.646,394.022h99.983a26.409,26.409,0,0,0,6.692-.862l19.721-5.173a1.278,1.278,0,0,0,.952-1.236h0a1.276,1.276,0,0,0-1.277-1.276h-130.2a1.276,1.276,0,0,0-1.277,1.276v1.865A5.407,5.407,0,0,0,285.646,394.022Z" transform="translate(-253.03 -310.291)" fill="#757575" stroke="#263238" stroke-linecap="round" stroke-linejoin="round" stroke-width="1"/>
            <path id="Path_409" data-name="Path 409" d="M283.258,409.843H383.52a2.4,2.4,0,0,0,2.34-3.219l-18.6-72.327a4.408,4.408,0,0,0-4-3.218H263a2.4,2.4,0,0,0-2.34,3.218l18.6,72.327A4.409,4.409,0,0,0,283.258,409.843Z" transform="translate(-260.553 -331.079)" fill="#999" stroke="#263238" stroke-linecap="round" stroke-linejoin="round" stroke-width="1"/>
            <line id="Line_41" data-name="Line 41" x1="1.896" transform="translate(4.087 2.572)" fill="none" stroke="#263238" stroke-linecap="round" stroke-linejoin="round" stroke-width="1"/>
            <line id="Line_42" data-name="Line 42" x1="9.796" transform="translate(10.881 2.572)" fill="none" stroke="#263238" stroke-linecap="round" stroke-linejoin="round" stroke-width="1"/>
            <path id="Path_410" data-name="Path 410" d="M374.781,399.986l-16.416-63.828a4.406,4.406,0,0,0-4-3.218H277.114" transform="translate(-254.225 -330.368)" fill="none" stroke="#263238" stroke-linecap="round" stroke-linejoin="round" stroke-width="1"/>
            <line id="Line_43" data-name="Line 43" x1="0.41" y1="1.594" transform="translate(121.577 73.589)" fill="none" stroke="#263238" stroke-linecap="round" stroke-linejoin="round" stroke-width="1"/>
            <path id="Path_411" data-name="Path 411" d="M298.812,363.214a10,10,0,0,0,.35,1.733c1.28,4.354,5.359,7,9.106,5.9s5.751-5.534,4.471-9.888-5.37-7-9.117-5.9a6.228,6.228,0,0,0-1.267.538A7.713,7.713,0,0,1,298.812,363.214Z" transform="translate(-245.932 -322.01)" fill="#fff" stroke="#263238" stroke-linecap="round" stroke-linejoin="round" stroke-width="1"/>
          </g>
          <path id="Path_412" data-name="Path 412" d="M340.752,267.742c-8.679-.948-13.418-9.191-18.632-10.481a58.259,58.259,0,0,1-8.549-2.75s-1.8-6.283-4.487-4.09-6.239,49.059-2.764,47.587,3.475,4.058,3.475,4.058l32.224,28.4,27.008-47.826S349.431,268.69,340.752,267.742Z" transform="translate(-75.831 -97.523)" fill="#263238"/>
          <g id="Group_13284" data-name="Group 13284">
            <rect id="Rectangle_216" data-name="Rectangle 216" width="124.395" height="82.93" transform="translate(2.382 2.382)" fill="none" stroke="#263238" stroke-linecap="round" stroke-linejoin="round" stroke-width="1" stroke-dasharray="1 3"/>
            <circle id="Ellipse_15" data-name="Ellipse 15" cx="2.05" cy="2.05" r="2.05" transform="translate(62.529 0.331)" fill="#92e3a9" stroke="#263238" stroke-linecap="round" stroke-linejoin="round" stroke-width="1"/>
            <circle id="Ellipse_16" data-name="Ellipse 16" cx="2.05" cy="2.05" r="2.05" transform="translate(0.331 41.796)" fill="#92e3a9" stroke="#263238" stroke-linecap="round" stroke-linejoin="round" stroke-width="1"/>
            <circle id="Ellipse_17" data-name="Ellipse 17" cx="2.05" cy="2.05" r="2.05" transform="translate(62.529 83.261)" fill="#92e3a9" stroke="#263238" stroke-linecap="round" stroke-linejoin="round" stroke-width="1"/>
            <circle id="Ellipse_18" data-name="Ellipse 18" cx="2.05" cy="2.05" r="2.05" transform="translate(124.726 41.796)" fill="#92e3a9" stroke="#263238" stroke-linecap="round" stroke-linejoin="round" stroke-width="1"/>
            <rect id="Rectangle_217" data-name="Rectangle 217" width="4.763" height="4.763" transform="translate(124.395 82.93)" fill="#92e3a9" stroke="#263238" stroke-linecap="round" stroke-linejoin="round" stroke-width="1"/>
            <rect id="Rectangle_218" data-name="Rectangle 218" width="4.763" height="4.763" transform="translate(124.395)" fill="#92e3a9" stroke="#263238" stroke-linecap="round" stroke-linejoin="round" stroke-width="1"/>
            <rect id="Rectangle_219" data-name="Rectangle 219" width="4.763" height="4.763" transform="translate(0 82.93)" fill="#92e3a9" stroke="#263238" stroke-linecap="round" stroke-linejoin="round" stroke-width="1"/>
            <rect id="Rectangle_220" data-name="Rectangle 220" width="4.763" height="4.763" fill="#92e3a9" stroke="#263238" stroke-linecap="round" stroke-linejoin="round" stroke-width="1"/>
          </g>
          <g id="Group_13285" data-name="Group 13285" transform="translate(10.636 9.716)">
            <rect id="Rectangle_221" data-name="Rectangle 221" width="108.265" height="68.791" fill="#fff" stroke="#263238" stroke-linecap="round" stroke-linejoin="round" stroke-width="1"/>
            <path id="Path_413" data-name="Path 413" d="M255.122,189.7l-12.036,12.036-32.56-32.56-13.7,13.7-21.846-21.846L146.857,189.15v20.866H255.122Z" transform="translate(-146.857 -141.225)" fill="#08a8f2" stroke="#263238" stroke-linecap="round" stroke-linejoin="round" stroke-width="1"/>
            <circle id="Ellipse_19" data-name="Ellipse 19" cx="7.644" cy="7.644" r="7.644" transform="translate(78.191 11.882)" fill="#08a8f2" stroke="#263238" stroke-linecap="round" stroke-linejoin="round" stroke-width="1"/>
          </g>
          <path id="Path_414" data-name="Path 414" d="M337.529,271.992s-8.22,15.437-9.265,39.063" transform="translate(-66.894 -89.101)" fill="none" stroke="#fff" stroke-linecap="round" stroke-linejoin="round" stroke-width="1"/>
          <path id="Path_415" data-name="Path 415" d="M317.363,279.732s2.474,13.128,9.711,22.644" transform="translate(-71.06 -86.143)" fill="none" stroke="#fff" stroke-linecap="round" stroke-linejoin="round" stroke-width="1"/>
          <path id="Path_416" data-name="Path 416" d="M342.026,318.928s12.416,40.854,39.469,52.89" transform="translate(-61.634 -71.164)" fill="none" stroke="#fff" stroke-linecap="round" stroke-linejoin="round" stroke-width="1"/>
          <path id="Path_417" data-name="Path 417" d="M369.425,265.42s-1.175,8.915-9.744,9.537a37.966,37.966,0,0,0-3.8-6.372A119.675,119.675,0,0,1,369.425,265.42Z" transform="translate(-56.34 -91.613)" fill="#263238"/>
          <g id="Group_13286" data-name="Group 13286" transform="translate(284.367 105.068)">
            <path id="Path_418" data-name="Path 418" d="M391.882,282.414s14.333,1.751,20.333-17.487,1.285-33.739-22.439-40.721c-13.154-3.87-26.308-.756-31.048,9.2-4.065,8.535-2.144,15.627-3.081,18.488-1.048,3.2-10.745,5.924-10.745,8.123,0,1.819,5.372,4.912,5.372,4.912l-1.58,4.778,1.489.791s-2.753,10.77-1.489,14.563c.925,2.771,25.2,3.923,27.1-2.949" transform="translate(-344.902 -213.047)" fill="#fff" stroke="#263238" stroke-linecap="round" stroke-linejoin="round" stroke-width="1"/>
            <path id="Path_419" data-name="Path 419" d="M354.991,235.474s4.74,1.185,6.043,3.674" transform="translate(-341.046 -208.125)" fill="none" stroke="#263238" stroke-linecap="round" stroke-linejoin="round" stroke-width="1"/>
            <path id="Path_420" data-name="Path 420" d="M355.616,244.029c-.2,1.392.116,2.592.716,2.68s1.249-.97,1.454-2.362-.116-2.592-.716-2.68S355.82,242.638,355.616,244.029Z" transform="translate(-340.831 -205.76)" fill="#263238"/>
            <path id="Path_421" data-name="Path 421" d="M348.723,257.251s7.715,2.962,10.589,1.171" transform="translate(-343.442 -199.803)" fill="none" stroke="#263238" stroke-linecap="round" stroke-linejoin="round" stroke-width="1"/>
            <path id="Path_422" data-name="Path 422" d="M350.741,244c-.574,3.088.117,5.806,1.544,6.072s3.048-2.025,3.621-5.113-.117-5.808-1.544-6.073S351.314,240.913,350.741,244Z" transform="translate(-342.748 -206.828)" fill="none" stroke="#263238" stroke-linecap="round" stroke-linejoin="round" stroke-width="1"/>
            <path id="Path_423" data-name="Path 423" d="M410.2,237.111a22.816,22.816,0,0,0-9.006-13.9,42.168,42.168,0,0,0-17.381-7.11s4.582,2,6.321,4.634c0,0-11.851-8.9-25.913-3.055s-12.323,21.041-12.323,21.041l2.054-3.977s-.238,4.741,2.251,6.478c0,0,1.5-4.582,3.021-6.636,0,0,3.733,11.218,14,15.01a8.132,8.132,0,0,1-.158-5.53s5.683,12.323,4.026,18.328l1.819,3.161s6.536-6.625,11.851-1.107c3.053,3.171-5.847,15.169-7.11,15.169l5.371,7.9s13.43,1.914,21.173-12.632,5.845-20.766,5.845-20.766,2.528,3.536,2.845,5.589C418.887,259.7,421.1,244.063,410.2,237.111Z" transform="translate(-342.256 -215.687)" fill="#263238"/>
            <path id="Path_424" data-name="Path 424" d="M371.195,255.578s4.122-13.941,12.962-9.024,2.521,12.343-.639,15.187-5.53,8.058-7.584,8.058-2.528-2.528-2.528-2.528" transform="translate(-334.854 -204.292)" fill="#fff" stroke="#263238" stroke-linecap="round" stroke-linejoin="round" stroke-width="1"/>
            <line id="Line_44" data-name="Line 44" x2="24.605" y2="5.108" transform="translate(13.158 38.132)" fill="none" stroke="#263238" stroke-linecap="round" stroke-linejoin="round" stroke-width="1"/>
          </g>
        </g>
      </g>
    </g>
  </g>
</svg>
