<svg xmlns="http://www.w3.org/2000/svg" xmlns:xlink="http://www.w3.org/1999/xlink" width="618.286" height="494.905" viewBox="0 0 618.286 494.905">
  <defs>
    <linearGradient id="linear-gradient" x1="0.87" y1="0.5" x2="0.198" y2="0.5" gradientUnits="objectBoundingBox">
      <stop offset="0" stop-color="#10337c"/>
      <stop offset="1" stop-color="#08a8f2"/>
    </linearGradient>
    <linearGradient id="linear-gradient-2" x1="0.5" y1="0" x2="0.5" y2="1" xlink:href="#linear-gradient"/>
  </defs>
  <g id="Group_138552" data-name="Group 138552" transform="translate(-75.857 -118.682)">
    <g id="Shadow" transform="translate(75.857 577.478)">
      <ellipse id="_Path_" data-name="&lt;Path&gt;" cx="309.143" cy="18.054" rx="309.143" ry="18.054" fill="url(#linear-gradient)"/>
    </g>
    <g id="Group_13703" data-name="Group 13703" transform="translate(-7 -36)">
      <g id="Bubble" transform="translate(164.433 220.871)">
        <g id="Group_13618" data-name="Group 13618">
          <rect id="Rectangle_441" data-name="Rectangle 441" width="63.571" height="39.366" rx="3.401" fill="#407bff"/>
          <path id="Path_1088" data-name="Path 1088" d="M129.107,182.448s2.4,11,16.447,15.24c0,0-7.312-6.6-5.659-15.24Z" transform="translate(-87.688 -145.084)" fill="#407bff"/>
          <g id="Group_13615" data-name="Group 13615" transform="translate(6.066 6.144)">
            <path id="Path_1089" data-name="Path 1089" d="M109.171,162.9v6.609h-.679v-6h-1.558v-.6Z" transform="translate(-106.934 -162.846)" fill="#fff"/>
            <path id="Path_1090" data-name="Path 1090" d="M109.325,166.228c0-2.106,1.1-3.361,2.632-3.361s2.644,1.255,2.644,3.361-1.115,3.361-2.644,3.361S109.325,168.333,109.325,166.228Zm4.578,0c0-1.765-.792-2.738-1.945-2.738s-1.944.973-1.944,2.738.792,2.736,1.944,2.736S113.9,167.993,113.9,166.228Z" transform="translate(-105.513 -162.867)" fill="#fff"/>
            <path id="Path_1091" data-name="Path 1091" d="M113.242,166.228c0-2.106,1.1-3.361,2.634-3.361s2.642,1.255,2.642,3.361-1.113,3.361-2.642,3.361S113.242,168.333,113.242,166.228Zm4.578,0c0-1.765-.792-2.738-1.944-2.738s-1.945.973-1.945,2.738.792,2.736,1.945,2.736S117.82,167.993,117.82,166.228Z" transform="translate(-103.184 -162.867)" fill="#fff"/>
            <path id="Path_1092" data-name="Path 1092" d="M119.131,162.9v6.609h-.679v-6h-1.558v-.6Z" transform="translate(-101.013 -162.846)" fill="#fff"/>
            <path id="Path_1093" data-name="Path 1093" d="M121.267,162.9v6.609h-.679v-6H119.03v-.6Z" transform="translate(-99.744 -162.846)" fill="#fff"/>
            <path id="Path_1094" data-name="Path 1094" d="M121.42,166.228c0-2.106,1.1-3.361,2.634-3.361s2.644,1.255,2.644,3.361-1.113,3.361-2.644,3.361S121.42,168.333,121.42,166.228Zm4.579,0c0-1.765-.792-2.738-1.945-2.738s-1.944.973-1.944,2.738.792,2.736,1.944,2.736S126,167.993,126,166.228Z" transform="translate(-98.323 -162.867)" fill="#fff"/>
            <path id="Path_1095" data-name="Path 1095" d="M127.309,162.9v6.609h-.679v-6h-1.558v-.6Z" transform="translate(-96.152 -162.846)" fill="#fff"/>
            <path id="Path_1096" data-name="Path 1096" d="M127.462,166.228c0-2.106,1.1-3.361,2.634-3.361s2.644,1.255,2.644,3.361-1.113,3.361-2.644,3.361S127.462,168.333,127.462,166.228Zm4.579,0c0-1.765-.792-2.738-1.945-2.738s-1.944.973-1.944,2.738.792,2.736,1.944,2.736S132.041,167.993,132.041,166.228Z" transform="translate(-94.731 -162.867)" fill="#fff"/>
            <path id="Path_1097" data-name="Path 1097" d="M131.38,166.228c0-2.106,1.1-3.361,2.634-3.361s2.644,1.255,2.644,3.361-1.113,3.361-2.644,3.361S131.38,168.333,131.38,166.228Zm4.579,0c0-1.765-.792-2.738-1.945-2.738s-1.944.973-1.944,2.738.792,2.736,1.944,2.736S135.959,167.993,135.959,166.228Z" transform="translate(-92.403 -162.867)" fill="#fff"/>
            <path id="Path_1098" data-name="Path 1098" d="M137.269,162.9v6.609h-.679v-6h-1.558v-.6Z" transform="translate(-90.232 -162.846)" fill="#fff"/>
            <path id="Path_1099" data-name="Path 1099" d="M139.4,162.9v6.609h-.679v-6h-1.558v-.6Z" transform="translate(-88.962 -162.846)" fill="#fff"/>
          </g>
          <g id="Group_13616" data-name="Group 13616" transform="translate(6.471 15.71)">
            <path id="Path_1100" data-name="Path 1100" d="M107.188,172.228c0-2.106,1.1-3.361,2.634-3.361s2.644,1.255,2.644,3.361-1.115,3.361-2.644,3.361S107.188,174.333,107.188,172.228Zm4.579,0c0-1.765-.792-2.738-1.945-2.738s-1.944.973-1.944,2.738.792,2.736,1.944,2.736S111.767,173.993,111.767,172.228Z" transform="translate(-107.188 -168.867)" fill="#fff"/>
            <path id="Path_1101" data-name="Path 1101" d="M111.106,172.228c0-2.106,1.1-3.361,2.632-3.361s2.644,1.255,2.644,3.361-1.113,3.361-2.644,3.361S111.106,174.333,111.106,172.228Zm4.578,0c0-1.765-.792-2.738-1.945-2.738s-1.944.973-1.944,2.738.792,2.736,1.944,2.736S115.684,173.993,115.684,172.228Z" transform="translate(-104.859 -168.867)" fill="#fff"/>
            <path id="Path_1102" data-name="Path 1102" d="M116.994,168.9v6.609h-.679v-6h-1.558v-.6Z" transform="translate(-102.689 -168.846)" fill="#fff"/>
            <path id="Path_1103" data-name="Path 1103" d="M119.131,168.9v6.609h-.679v-6h-1.558v-.6Z" transform="translate(-101.418 -168.846)" fill="#fff"/>
            <path id="Path_1104" data-name="Path 1104" d="M119.285,172.228c0-2.106,1.1-3.361,2.632-3.361s2.644,1.255,2.644,3.361-1.113,3.361-2.644,3.361S119.285,174.333,119.285,172.228Zm4.578,0c0-1.765-.792-2.738-1.945-2.738s-1.944.973-1.944,2.738.792,2.736,1.944,2.736S123.863,173.993,123.863,172.228Z" transform="translate(-99.997 -168.867)" fill="#fff"/>
            <path id="Path_1105" data-name="Path 1105" d="M125.174,168.9v6.609h-.679v-6h-1.559v-.6Z" transform="translate(-97.828 -168.846)" fill="#fff"/>
            <path id="Path_1106" data-name="Path 1106" d="M125.327,172.228c0-2.106,1.1-3.361,2.632-3.361s2.644,1.255,2.644,3.361-1.113,3.361-2.644,3.361S125.327,174.333,125.327,172.228Zm4.578,0c0-1.765-.792-2.738-1.945-2.738s-1.944.973-1.944,2.738.792,2.736,1.944,2.736S129.9,173.993,129.9,172.228Z" transform="translate(-96.406 -168.867)" fill="#fff"/>
            <path id="Path_1107" data-name="Path 1107" d="M129.244,172.228c0-2.106,1.1-3.361,2.634-3.361s2.642,1.255,2.642,3.361-1.113,3.361-2.642,3.361S129.244,174.333,129.244,172.228Zm4.578,0c0-1.765-.792-2.738-1.944-2.738s-1.945.973-1.945,2.738.792,2.736,1.945,2.736S133.822,173.993,133.822,172.228Z" transform="translate(-94.077 -168.867)" fill="#fff"/>
            <path id="Path_1108" data-name="Path 1108" d="M135.132,168.9v6.609h-.679v-6h-1.558v-.6Z" transform="translate(-91.907 -168.846)" fill="#fff"/>
            <path id="Path_1109" data-name="Path 1109" d="M137.269,168.9v6.609h-.679v-6h-1.558v-.6Z" transform="translate(-90.637 -168.846)" fill="#fff"/>
            <path id="Path_1110" data-name="Path 1110" d="M139.4,168.9v6.609h-.679v-6h-1.558v-.6Z" transform="translate(-89.367 -168.846)" fill="#fff"/>
          </g>
          <g id="Group_13617" data-name="Group 13617" transform="translate(6.066 25.277)">
            <path id="Path_1111" data-name="Path 1111" d="M109.171,174.9v6.609h-.679v-6h-1.558v-.6Z" transform="translate(-106.934 -174.846)" fill="#fff"/>
            <path id="Path_1112" data-name="Path 1112" d="M111.307,174.9v6.609h-.679v-6H109.07v-.6Z" transform="translate(-105.664 -174.846)" fill="#fff"/>
            <path id="Path_1113" data-name="Path 1113" d="M111.46,178.228c0-2.106,1.1-3.361,2.634-3.361s2.644,1.255,2.644,3.361-1.113,3.361-2.644,3.361S111.46,180.333,111.46,178.228Zm4.579,0c0-1.765-.792-2.738-1.945-2.738s-1.944.973-1.944,2.738.792,2.736,1.944,2.736S116.039,179.993,116.039,178.228Z" transform="translate(-104.244 -174.867)" fill="#fff"/>
            <path id="Path_1114" data-name="Path 1114" d="M115.378,178.228c0-2.106,1.1-3.361,2.634-3.361s2.644,1.255,2.644,3.361-1.113,3.361-2.644,3.361S115.378,180.333,115.378,178.228Zm4.579,0c0-1.765-.792-2.738-1.945-2.738s-1.944.973-1.944,2.738.792,2.736,1.944,2.736S119.957,179.993,119.957,178.228Z" transform="translate(-101.915 -174.867)" fill="#fff"/>
            <path id="Path_1115" data-name="Path 1115" d="M121.267,174.9v6.609h-.679v-6H119.03v-.6Z" transform="translate(-99.744 -174.846)" fill="#fff"/>
            <path id="Path_1116" data-name="Path 1116" d="M123.4,174.9v6.609h-.679v-6h-1.558v-.6Z" transform="translate(-98.474 -174.846)" fill="#fff"/>
            <path id="Path_1117" data-name="Path 1117" d="M123.557,178.228c0-2.106,1.1-3.361,2.634-3.361s2.642,1.255,2.642,3.361-1.113,3.361-2.642,3.361S123.557,180.333,123.557,178.228Zm4.578,0c0-1.765-.792-2.738-1.944-2.738s-1.945.973-1.945,2.738.792,2.736,1.945,2.736S128.135,179.993,128.135,178.228Z" transform="translate(-97.053 -174.867)" fill="#fff"/>
            <path id="Path_1118" data-name="Path 1118" d="M127.474,178.228c0-2.106,1.1-3.361,2.634-3.361s2.644,1.255,2.644,3.361-1.114,3.361-2.644,3.361S127.474,180.333,127.474,178.228Zm4.579,0c0-1.765-.792-2.738-1.945-2.738s-1.944.973-1.944,2.738.792,2.736,1.944,2.736S132.053,179.993,132.053,178.228Z" transform="translate(-94.724 -174.867)" fill="#fff"/>
            <path id="Path_1119" data-name="Path 1119" d="M133.363,174.9v6.609h-.679v-6h-1.558v-.6Z" transform="translate(-92.553 -174.846)" fill="#fff"/>
            <path id="Path_1120" data-name="Path 1120" d="M133.517,178.228c0-2.106,1.1-3.361,2.632-3.361s2.644,1.255,2.644,3.361-1.113,3.361-2.644,3.361S133.517,180.333,133.517,178.228Zm4.578,0c0-1.765-.792-2.738-1.945-2.738s-1.944.973-1.944,2.738.792,2.736,1.944,2.736S138.095,179.993,138.095,178.228Z" transform="translate(-91.132 -174.867)" fill="#fff"/>
            <path id="Path_1121" data-name="Path 1121" d="M139.4,174.9v6.609h-.679v-6h-1.558v-.6Z" transform="translate(-88.962 -174.846)" fill="#fff"/>
          </g>
        </g>
      </g>
      <g id="Group_13702" data-name="Group 13702">
        <g id="Group_13701" data-name="Group 13701" transform="translate(369.64 154.682)">
          <g id="Group_13647" data-name="Group 13647">
            <path id="Path_1329" data-name="Path 1329" d="M9.1,0H225.269a9.1,9.1,0,0,1,9.1,9.1V443.651a9.1,9.1,0,0,1-9.1,9.1H9.1a9.1,9.1,0,0,1-9.1-9.1V9.1A9.1,9.1,0,0,1,9.1,0Z" fill="#08a8f2"/>
            <rect id="Rectangle_461" data-name="Rectangle 461" width="225.59" height="442.351" rx="18.7" transform="translate(4.388 3.964)" fill="#fff"/>
            <path id="Path_1201" data-name="Path 1201" d="M502.673,103.125V495.775A16.675,16.675,0,0,1,486,512.449H313.507a16.674,16.674,0,0,1-16.674-16.674V103.125a16.675,16.675,0,0,1,16.674-16.676h28.764a4.217,4.217,0,0,1,3.771,2.329l3.055,6.1a8.239,8.239,0,0,0,7.389,4.575H443.02a8.239,8.239,0,0,0,7.389-4.575l3.055-6.1a4.217,4.217,0,0,1,3.771-2.329H486A16.675,16.675,0,0,1,502.673,103.125Z" transform="translate(-282.57 -75.31)" fill="url(#linear-gradient-2)"/>
            <path id="Path_1202" data-name="Path 1202" d="M420.049,92.319h-69.7a2.934,2.934,0,0,1-2.934-2.935h0a2.934,2.934,0,0,1,2.934-2.935h69.7a2.935,2.935,0,0,1,2.935,2.935h0A2.935,2.935,0,0,1,420.049,92.319Z" transform="translate(-266.55 -75.31)" fill="#dee3fc"/>
          </g>
          <rect id="Rectangle_462" data-name="Rectangle 462" width="177.158" height="76.828" rx="8.379" transform="translate(26.597 346.682)" fill="#fff" stroke="#698bd1" stroke-linecap="round" stroke-linejoin="round" stroke-width="1" stroke-dasharray="2.837"/>
          <rect id="Rectangle_463" data-name="Rectangle 463" width="92.852" height="53.941" rx="6.044" transform="translate(99.967 181.041)" fill="#fff" stroke="#698bd1" stroke-linecap="round" stroke-linejoin="round" stroke-width="1" stroke-dasharray="2.837"/>
          <g id="Group_13651" data-name="Group 13651" transform="translate(26.597 240.965)">
            <rect id="Rectangle_464" data-name="Rectangle 464" width="177.861" height="85.982" rx="7.201" transform="translate(6.449 6.956)" fill="#fff"/>
            <path id="Path_1203" data-name="Path 1203" d="M483.358,270.467v67.058a9.457,9.457,0,0,1-9.467,9.454H315.667a9.457,9.457,0,0,1-9.467-9.454V270.467A9.468,9.468,0,0,1,315.667,261H473.891A9.468,9.468,0,0,1,483.358,270.467Z" transform="translate(-306.2 -261)" fill="#7f95f4"/>
            <rect id="Rectangle_465" data-name="Rectangle 465" width="59.414" height="59.414" rx="4.861" transform="translate(8.185 19.577)" fill="#fff"/>
            <g id="Group_13648" data-name="Group 13648" transform="translate(73.37 23.052)">
              <path id="Path_1204" data-name="Path 1204" d="M405,282.55H363.945a2.021,2.021,0,0,1-2.021-2.021h0a2.021,2.021,0,0,1,2.021-2.021H405a2.022,2.022,0,0,1,2.022,2.021h0A2.022,2.022,0,0,1,405,282.55Z" transform="translate(-361.924 -278.508)" fill="#b2c1f9"/>
              <path id="Path_1205" data-name="Path 1205" d="M386.29,288.68H363.945a2.022,2.022,0,0,1-2.021-2.021h0a2.022,2.022,0,0,1,2.021-2.022H386.29a2.022,2.022,0,0,1,2.021,2.022h0A2.022,2.022,0,0,1,386.29,288.68Z" transform="translate(-361.924 -276.567)" fill="#b2c1f9"/>
              <path id="Path_1206" data-name="Path 1206" d="M447.626,288.68H387.162a2.022,2.022,0,0,1-2.021-2.021h0a2.022,2.022,0,0,1,2.021-2.022h60.464a2.023,2.023,0,0,1,2.021,2.022h0A2.022,2.022,0,0,1,447.626,288.68Z" transform="translate(-354.572 -276.567)" fill="#b2c1f9"/>
              <path id="Path_1207" data-name="Path 1207" d="M398.518,294.809H363.945a2.022,2.022,0,0,1-2.021-2.021h0a2.021,2.021,0,0,1,2.021-2.021h34.573a2.022,2.022,0,0,1,2.021,2.021h0A2.022,2.022,0,0,1,398.518,294.809Z" transform="translate(-361.924 -274.626)" fill="#b2c1f9"/>
              <path id="Path_1208" data-name="Path 1208" d="M417.718,294.809H395.984a2.022,2.022,0,0,1-2.021-2.021h0a2.021,2.021,0,0,1,2.021-2.021h21.734a2.022,2.022,0,0,1,2.021,2.021h0A2.022,2.022,0,0,1,417.718,294.809Z" transform="translate(-351.778 -274.626)" fill="#b2c1f9"/>
              <path id="Path_1209" data-name="Path 1209" d="M437.9,294.809H417.882a2.022,2.022,0,0,1-2.021-2.021h0a2.022,2.022,0,0,1,2.021-2.021H437.9a2.021,2.021,0,0,1,2.021,2.021h0A2.022,2.022,0,0,1,437.9,294.809Z" transform="translate(-344.844 -274.626)" fill="#b2c1f9"/>
              <path id="Path_1210" data-name="Path 1210" d="M454.978,300.938H363.945a2.021,2.021,0,0,1-2.021-2.021h0a2.021,2.021,0,0,1,2.021-2.021h91.033A2.021,2.021,0,0,1,457,298.917h0A2.021,2.021,0,0,1,454.978,300.938Z" transform="translate(-361.924 -272.685)" fill="#b2c1f9"/>
              <path id="Path_1211" data-name="Path 1211" d="M414.047,307.067h-50.1a2.021,2.021,0,0,1-2.021-2.021h0a2.021,2.021,0,0,1,2.021-2.021h50.1a2.022,2.022,0,0,1,2.021,2.021h0A2.022,2.022,0,0,1,414.047,307.067Z" transform="translate(-361.924 -270.744)" fill="#b2c1f9"/>
              <path id="Path_1212" data-name="Path 1212" d="M440.986,307.067H408.131a2.021,2.021,0,0,1-2.021-2.021h0a2.022,2.022,0,0,1,2.021-2.021h32.855a2.021,2.021,0,0,1,2.021,2.021h0A2.021,2.021,0,0,1,440.986,307.067Z" transform="translate(-347.932 -270.744)" fill="#b2c1f9"/>
              <path id="Path_1213" data-name="Path 1213" d="M393.382,313.2H363.945a2.021,2.021,0,0,1-2.021-2.021h0a2.022,2.022,0,0,1,2.021-2.021h29.437a2.022,2.022,0,0,1,2.021,2.021h0A2.021,2.021,0,0,1,393.382,313.2Z" transform="translate(-361.924 -268.803)" fill="#b2c1f9"/>
              <path id="Path_1214" data-name="Path 1214" d="M421.79,313.2H392.353a2.021,2.021,0,0,1-2.021-2.021h0a2.021,2.021,0,0,1,2.021-2.021H421.79a2.021,2.021,0,0,1,2.021,2.021h0A2.021,2.021,0,0,1,421.79,313.2Z" transform="translate(-352.928 -268.803)" fill="#b2c1f9"/>
              <path id="Path_1215" data-name="Path 1215" d="M437.192,313.2H420.111a2.021,2.021,0,0,1-2.021-2.021h0a2.022,2.022,0,0,1,2.021-2.021h17.081a2.022,2.022,0,0,1,2.021,2.021h0A2.021,2.021,0,0,1,437.192,313.2Z" transform="translate(-344.138 -268.803)" fill="#b2c1f9"/>
              <path id="Path_1216" data-name="Path 1216" d="M405,319.326H363.945a2.022,2.022,0,0,1-2.021-2.022h0a2.022,2.022,0,0,1,2.021-2.021H405a2.023,2.023,0,0,1,2.022,2.021h0A2.023,2.023,0,0,1,405,319.326Z" transform="translate(-361.924 -266.863)" fill="#b2c1f9"/>
              <path id="Path_1217" data-name="Path 1217" d="M442.958,282.55H401.9a2.021,2.021,0,0,1-2.021-2.021h0a2.021,2.021,0,0,1,2.021-2.021h41.054a2.022,2.022,0,0,1,2.021,2.021h0A2.021,2.021,0,0,1,442.958,282.55Z" transform="translate(-349.904 -278.508)" fill="#b2c1f9"/>
            </g>
            <g id="Group_13650" data-name="Group 13650">
              <path id="Path_1218" data-name="Path 1218" d="M483.358,270.467v2.818H306.2v-2.818A9.468,9.468,0,0,1,315.667,261H473.891A9.468,9.468,0,0,1,483.358,270.467Z" transform="translate(-306.2 -261)" fill="#10337c"/>
              <g id="Group_13649" data-name="Group 13649" transform="translate(139.376 4.17)">
                <path id="Path_1219" data-name="Path 1219" d="M416.445,266.361a2.195,2.195,0,1,1-2.195-2.194A2.2,2.2,0,0,1,416.445,266.361Z" transform="translate(-412.055 -264.167)" fill="#dee3fc"/>
                <path id="Path_1220" data-name="Path 1220" d="M424.973,266.361a2.195,2.195,0,1,1-2.195-2.194A2.2,2.2,0,0,1,424.973,266.361Z" transform="translate(-409.354 -264.167)" fill="#dee3fc"/>
                <path id="Path_1221" data-name="Path 1221" d="M433.5,266.361a2.195,2.195,0,1,1-2.195-2.194A2.2,2.2,0,0,1,433.5,266.361Z" transform="translate(-406.654 -264.167)" fill="#dee3fc"/>
              </g>
            </g>
          </g>
          <g id="Group_13653" data-name="Group 13653" transform="translate(36.968 181.09)">
            <rect id="Rectangle_466" data-name="Rectangle 466" width="53.892" height="53.892" rx="7.151" fill="#fff" stroke="#495ad6" stroke-miterlimit="10" stroke-width="0.896"/>
            <g id="Group_13652" data-name="Group 13652" transform="translate(10.775 19.151)">
              <path id="Path_1222" data-name="Path 1222" d="M330.025,230.071l-7.765,7.765,7.826,7.826" transform="translate(-322.26 -230.071)" fill="none" stroke="#495ad6" stroke-linecap="round" stroke-linejoin="round" stroke-width="1.672"/>
              <path id="Path_1223" data-name="Path 1223" d="M340.941,230.071l7.764,7.765-7.825,7.826" transform="translate(-316.364 -230.071)" fill="none" stroke="#495ad6" stroke-linecap="round" stroke-linejoin="round" stroke-width="1.672"/>
              <line id="Line_65" data-name="Line 65" x1="7.271" y2="15.59" transform="translate(12.535)" fill="none" stroke="#495ad6" stroke-linecap="round" stroke-linejoin="round" stroke-width="1.672"/>
            </g>
          </g>
          <g id="Group_13654" data-name="Group 13654" transform="translate(26.597 38.777)">
            <rect id="Rectangle_467" data-name="Rectangle 467" width="177.158" height="131.18" rx="8.18" fill="#10337c"/>
            <circle id="Ellipse_35" data-name="Ellipse 35" cx="25.675" cy="25.675" r="25.675" transform="translate(115.604 8.967)" fill="#f0f4ff"/>
            <path id="Path_1224" data-name="Path 1224" d="M410.335,231.5H316.97a10.775,10.775,0,0,1-10.77-10.77V203.468L347.056,132.7a5.549,5.549,0,0,1,9.612,0l30.85,53.43,22.91,39.684A5.445,5.445,0,0,1,410.335,231.5Z" transform="translate(-306.2 -100.32)" fill="#fff"/>
            <path id="Path_1225" data-name="Path 1225" d="M437.343,224.464H348.06l26.2-45.372,14.115-24.451a4.993,4.993,0,0,1,8.651,0Z" transform="translate(-292.944 -93.284)" fill="#f0f4ff"/>
          </g>
        </g>
        <g id="Character" transform="translate(82.857 270.464)">
          <g id="Group_13620" data-name="Group 13620" transform="translate(0 78.483)">
            <path id="Path_1122" data-name="Path 1122" d="M79.1,419.448l43.852-4.31V353.51H140.33v61.61l44.029,4.327a8.536,8.536,0,0,1,7.7,8.5v6.585H71.4v-6.585A8.537,8.537,0,0,1,79.1,419.448Z" transform="translate(-40.418 -171.476)" fill="#263238"/>
            <path id="Path_1123" data-name="Path 1123" d="M79.1,419.448l43.852-4.31V353.51H140.33v61.61l44.029,4.327a8.536,8.536,0,0,1,7.7,8.5v6.585H71.4v-6.585A8.537,8.537,0,0,1,79.1,419.448Z" transform="translate(-40.418 -171.476)" fill="#fff" opacity="0.2" style="isolation: isolate"/>
            <circle id="Ellipse_26" data-name="Ellipse 26" cx="11.363" cy="11.363" r="11.363" transform="translate(135.641 259.859)" fill="#263238"/>
            <circle id="Ellipse_27" data-name="Ellipse 27" cx="11.363" cy="11.363" r="11.363" transform="translate(24.256 259.859)" fill="#263238"/>
            <path id="Rectangle_442" data-name="Rectangle 442" d="M4.133,0h15.1a4.133,4.133,0,0,1,4.133,4.133V54.891a0,0,0,0,1,0,0H0a0,0,0,0,1,0,0V4.133A4.133,4.133,0,0,1,4.133,0Z" transform="translate(102.905 195.28) rotate(180)" fill="#263238"/>
            <path id="Rectangle_443" data-name="Rectangle 443" d="M4.133,0h15.1a4.133,4.133,0,0,1,4.133,4.133V54.891a0,0,0,0,1,0,0H0a0,0,0,0,1,0,0V4.133A4.133,4.133,0,0,1,4.133,0Z" transform="translate(102.905 195.28) rotate(180)" fill="#fff" opacity="0.3" style="isolation: isolate"/>
            <path id="Path_1124" data-name="Path 1124" d="M91.357,266.974s-3.312,82.18,19.568,96.331H84.8s-20.24-28-14.52-96.331Z" transform="translate(-41.684 -222.915)" fill="#263238"/>
            <path id="Path_1125" data-name="Path 1125" d="M91.357,266.974s-3.312,82.18,19.568,96.331H84.8s-20.24-28-14.52-96.331Z" transform="translate(-41.684 -222.915)" fill="#fff" opacity="0.3" style="isolation: isolate"/>
            <path id="Rectangle_444" data-name="Rectangle 444" d="M5,0H112.071a5,5,0,0,1,5,5V17.791a0,0,0,0,1,0,0H0a0,0,0,0,1,0,0V5A5,5,0,0,1,5,0Z" transform="translate(34.222 128.896)" fill="#263238"/>
            <g id="Group_13619" data-name="Group 13619" transform="translate(29.342 137.791)">
              <rect id="Rectangle_445" data-name="Rectangle 445" width="126.831" height="8.895" rx="2.011" fill="#263238"/>
              <rect id="Rectangle_446" data-name="Rectangle 446" width="126.831" height="8.895" rx="2.011" fill="#fff" opacity="0.6" style="isolation: isolate"/>
            </g>
            <rect id="Rectangle_447" data-name="Rectangle 447" width="86.238" height="60.756" rx="14.584" transform="translate(86.238 60.756) rotate(180)" fill="#263238"/>
          </g>
          <g id="_Group_" data-name="&lt;Group&gt;" transform="translate(56.542)">
            <path id="Path_1126" data-name="Path 1126" d="M138.133,421.258l12.7-1.743,1.76-30.192-12.683,1.757Z" transform="translate(-57.289 -71.704)" fill="#ebb376"/>
            <path id="Path_1127" data-name="Path 1127" d="M139.619,391.074l12.685-1.741-1.01,17.258L138.626,407.7Z" transform="translate(-56.996 -71.698)" opacity="0.2" style="isolation: isolate"/>
            <path id="Path_1128" data-name="Path 1128" d="M167.629,306.858l-3.1-19.412-71.206-4.259s-7.572,40.4-1.755,51.16c10.386,19.215,66.357,9.517,82.735,11.407-9.79,40.036-8.833,118.275-8.833,118.275l23.39,1.786s18-84.307,21.636-124.366C212.952,314.417,190.555,315.09,167.629,306.858Z" transform="translate(-86.275 -134.794)" fill="#08a8f2"/>
            <path id="Path_1129" data-name="Path 1129" d="M135.516,401.631l28.11,1.85,2.408-12.038-30.884-1.435Z" transform="translate(-59.063 -71.297)" fill="#407bff"/>
            <path id="Path_1130" data-name="Path 1130" d="M156.51,413.147l12.785.941,8.011-29.163L164.536,384Z" transform="translate(-46.365 -74.868)" fill="#ebb376"/>
            <g id="Group_13621" data-name="Group 13621" transform="translate(124.661 334.801)">
              <path id="Path_1131" data-name="Path 1131" d="M165.66,405.088c.016.033.01.073.035.1a.17.17,0,0,0,.108.014,15.853,15.853,0,0,0,3.128,1.342,3.425,3.425,0,0,0,2.487.038,1.592,1.592,0,0,0,.8-1.505,1.127,1.127,0,0,0-.432-1c-.725-.541-2.247-.383-3.586-.1a4.657,4.657,0,0,0,1.888-2.594,1.124,1.124,0,0,0-.773-1.162,1.475,1.475,0,0,0-1.284.056c-1.551.853-2.156,4.432-2.2,4.624l.226,0v0l-.231.013c0,.013-.215.022-.214.035A.246.246,0,0,0,165.66,405.088Zm.955-.711-.289.088c.3-1.177.946-3.109,1.875-3.607a.862.862,0,0,1,.686-.089l.139.049c.4.163.448.394.426.568C169.343,402.248,167.875,403.685,166.615,404.377Zm.048.659c1.687-.51,4.028-.971,4.747-.431a.539.539,0,0,1,.21.493,1.1,1.1,0,0,1-.491.966C170.388,406.469,168.749,406.086,166.663,405.035Z" transform="translate(-165.614 -400.099)" fill="#407bff"/>
            </g>
            <path id="Path_1132" data-name="Path 1132" d="M163.2,384l12.769.939-4.582,16.669-12.622-1.551Z" transform="translate(-45.026 -74.868)" opacity="0.2" style="isolation: isolate"/>
            <path id="Path_1133" data-name="Path 1133" d="M213.37,456.294l-22.515-6.617s13.441-75.863,27.073-102.171c-1.02-.335-2.376-.765-4.05-1.26-3.012-.909-7.014-2.041-11.719-3.348-32.716-9.072-99.03-26.085-99.03-26.085l30.294-28.269s120.667,18.4,123.17,50.193C257.789,354.027,213.37,456.294,213.37,456.294Z" transform="translate(-78.096 -131.61)" fill="#08a8f2"/>
            <path id="Path_1134" data-name="Path 1134" d="M156.328,394.184l27.108,7.664,4.862-11.272-29.908-7.836Z" transform="translate(-46.474 -75.618)" fill="#407bff"/>
            <path id="Path_1135" data-name="Path 1135" d="M206.542,341.867c-3.012-.909-7.014-2.041-11.719-3.348.941-7.717.957-16.566-2.758-21.078-7.382-8.993-26.37-14.27-37.181-16.184-9.04-1.594-39.414-4.767-39.414-4.767s39.414-3.779,79.7,7.972C215.09,310.282,211.216,329.75,206.542,341.867Z" transform="translate(-70.761 -127.231)" opacity="0.2" style="isolation: isolate"/>
            <path id="Path_1136" data-name="Path 1136" d="M135.516,401.631l28.11,1.85,2.408-12.038-30.884-1.435Z" transform="translate(-59.063 -71.297)" fill="#fff" opacity="0.2"/>
            <path id="Path_1137" data-name="Path 1137" d="M156.328,394.184l27.108,7.664,4.862-11.272-29.908-7.836Z" transform="translate(-46.474 -75.618)" fill="#fff" opacity="0.2"/>
            <path id="Path_1138" data-name="Path 1138" d="M172.332,403.515l-13.848-3.863a.907.907,0,0,0-1.146.579l0,.014-3.736,10.78a2.265,2.265,0,0,0,1.547,2.782c4.853,1.269,7.236,1.633,13.342,3.286,3.744,1.033,11.043,3.43,16.381,4.039s5.8-4.686,3.591-5.415c-5.228-1.751-11.485-7.2-14.2-10.9A3.6,3.6,0,0,0,172.332,403.515Z" transform="translate(-48.146 -65.592)" fill="#263238"/>
            <g id="Group_13622" data-name="Group 13622" transform="translate(94.811 342.461)">
              <path id="Path_1139" data-name="Path 1139" d="M146.893,410.287c0,.014.265.021.268.034.014.048.285.088.322.121s.024.069.054.089a.17.17,0,0,0,.108-.01,15.778,15.778,0,0,0,3.339.662,3.433,3.433,0,0,0,2.438-.48,1.593,1.593,0,0,0,.464-1.639,1.144,1.144,0,0,0-.643-.891c-.823-.376-2.3.1-3.549.654a4.562,4.562,0,0,0,1.261-2.927,1.216,1.216,0,0,0-1.089-.969,1.88,1.88,0,0,0-1.424.335c-1.335,1.153-1.55,4.774-1.55,5v.025Zm1.376-.741-.263.147c.048-1.213.276-3.237,1.081-3.917a.865.865,0,0,1,.652-.231l.147.019c.421.077.52.292.534.467C150.495,406.9,149.356,408.607,148.269,409.546Zm.183.636c1.545-.851,3.737-1.789,4.554-1.411a.54.54,0,0,1,.308.439,1.1,1.1,0,0,1-.279,1.048C152.394,410.807,150.712,410.773,148.452,410.182Z" transform="translate(-146.893 -404.903)" fill="#407bff"/>
            </g>
            <path id="Path_1140" data-name="Path 1140" d="M152.95,407.634l-14.35-.894a.91.91,0,0,0-1,.807l0,.014-1.408,11.32a2.266,2.266,0,0,0,2.092,2.4c5.013.23,7.417.091,13.734.434,3.876.233,11.515,1.055,16.863.539s4.694-5.791,2.384-6.043c-5.477-.623-12.732-4.649-16.158-7.7A3.6,3.6,0,0,0,152.95,407.634Z" transform="translate(-58.447 -61.354)" fill="#263238"/>
            <path id="Path_1141" data-name="Path 1141" d="M156.659,255.63s4.013,21.767,11.258,25.973,57.3-25.729,57.3-25.729l-4.192-8.443s-41.911,11.311-42.313,11.387-1.586-9.6-1.586-9.6Z" transform="translate(-46.277 -156.049)" fill="#263238"/>
            <path id="Path_1142" data-name="Path 1142" d="M174.6,231.093c3.305,4.083,8.057,34.248,8.057,34.248l-24.581,5.727-5.327-15.287Z" transform="translate(-48.6 -165.761)" fill="#407bff"/>
            <path id="Path_1143" data-name="Path 1143" d="M174.6,231.093c3.305,4.083,8.057,34.248,8.057,34.248l-24.581,5.727-5.327-15.287Z" transform="translate(-48.6 -165.761)" fill="#fff" opacity="0.4" style="isolation: isolate"/>
            <g id="Group_13623" data-name="Group 13623" transform="translate(0 39.892)">
              <path id="Path_1144" data-name="Path 1144" d="M87.429,348.737,169.944,335s5.158-49.01,43.486-94.425c0,0-13.3-29.087-60.655-25.056S87.429,348.737,87.429,348.737Z" transform="translate(-87.429 -215.138)" fill="#407bff"/>
              <path id="Path_1145" data-name="Path 1145" d="M87.429,348.737,169.944,335s5.158-49.01,43.486-94.425c0,0-13.3-29.087-60.655-25.056S87.429,348.737,87.429,348.737Z" transform="translate(-87.429 -215.138)" fill="#fff" opacity="0.6" style="isolation: isolate"/>
            </g>
            <path id="Path_1146" data-name="Path 1146" d="M135.892,241.543s-.828,22.662,1.695,23.964,50.183-16.043,57.734-17.3,24.9,5.357,24.9,5.357l1.577,10.353s-15.437-.306-24.119-4.539c0,0-55.671,33.3-67.656,31.406s-16.085-46.991-16.085-46.991Z" transform="translate(-71.674 -159.549)" fill="#ebb376"/>
            <path id="Path_1147" data-name="Path 1147" d="M135.657,246.577s.18,13.339,2.954,14.344,44.008-13.5,44.008-13.5l6.518,15.1s-52.1,33.627-62.192,25.35-12.615-37.923-12.615-37.923Z" transform="translate(-71.438 -156.557)" fill="#263238"/>
            <g id="Group_13624" data-name="Group 13624" transform="translate(39.14 45.336)">
              <path id="Path_1148" data-name="Path 1148" d="M129.6,218.585c14.819-1.547,9.461,50.905,9.461,50.905l-24.915,3.549S103.429,221.317,129.6,218.585Z" transform="translate(-111.977 -218.552)" fill="#407bff"/>
              <path id="Path_1149" data-name="Path 1149" d="M129.6,218.585c14.819-1.547,9.461,50.905,9.461,50.905l-24.915,3.549S103.429,221.317,129.6,218.585Z" transform="translate(-111.977 -218.552)" fill="#fff" opacity="0.4" style="isolation: isolate"/>
            </g>
            <path id="Path_1150" data-name="Path 1150" d="M137.749,216.234s-.5,23.046,13.639,25.4S167,225.2,167,225.2,157.491,214.973,137.749,216.234Z" transform="translate(-57.519 -174.657)" fill="#263238"/>
            <path id="Path_1151" data-name="Path 1151" d="M172.264,232.512c-3.46-1.531-7.574,0-7.574,0a11.029,11.029,0,0,1-10.6,8.514,19.262,19.262,0,0,1-3.635-.159c-12.341-1.69-10.986-20.042-10.986-20.042a22.015,22.015,0,0,0,12.851-3.093v-.016a28.47,28.47,0,0,0,8.419-7.526Z" transform="translate(-56.523 -178.186)" fill="#ebb376"/>
            <path id="Path_1152" data-name="Path 1152" d="M167.724,232.512c-3.46-1.531-7.574,0-7.574,0a11.029,11.029,0,0,1-10.6,8.514c-3.173-7.861-2.758-16.869-1.77-23.295v-.016a28.469,28.469,0,0,0,8.419-7.526Z" transform="translate(-51.983 -178.186)" opacity="0.2" style="isolation: isolate"/>
            <g id="Group_13626" data-name="Group 13626" transform="translate(94.525)">
              <path id="Path_1153" data-name="Path 1153" d="M167.048,203.335c-5.5,3.729-2.994,10.053,9.444,19.945,5.048-6.553,5.887-19.272,1.87-22.47S171.839,200.106,167.048,203.335Z" transform="translate(-136.266 -184.645)" fill="#263238"/>
              <path id="Path_1154" data-name="Path 1154" d="M151.2,215.486c.6,13.436.273,21.321,6.921,28.33,10.016,10.531,26.691,4.672,30.124-8.677,3.068-11.992,1.588-31.959-11.456-37.512A18.345,18.345,0,0,0,151.2,215.486Z" transform="translate(-144.063 -186.551)" fill="#ebb376"/>
              <path id="Path_1155" data-name="Path 1155" d="M163.72,211.517c-.018,1.092.552,1.988,1.264,2s1.3-.856,1.314-1.947-.534-1.985-1.244-2.009S163.814,210.442,163.72,211.517Z" transform="translate(-136.604 -178.563)" fill="#263238"/>
              <path id="Path_1156" data-name="Path 1156" d="M171.508,211.66c-.018,1.092.552,1.988,1.264,2s1.312-.851,1.333-1.958-.55-1.988-1.263-2S171.527,210.567,171.508,211.66Z" transform="translate(-131.975 -178.477)" fill="#263238"/>
              <path id="Path_1157" data-name="Path 1157" d="M169.029,211.209a39.075,39.075,0,0,0,5.062,9.433c-2,1.77-5.242.883-5.242.883Z" transform="translate(-133.555 -177.58)" fill="#d58745"/>
              <path id="Path_1158" data-name="Path 1158" d="M177.274,206.764a.666.666,0,0,1-.6.335,5.1,5.1,0,0,0-4.294,1.743.645.645,0,0,1-1.046-.756,6.4,6.4,0,0,1,5.413-2.262.632.632,0,0,1,.6.663v.01A.741.741,0,0,1,177.274,206.764Z" transform="translate(-132.149 -180.794)" fill="#263238"/>
              <path id="Path_1159" data-name="Path 1159" d="M169.158,209.047a.666.666,0,0,1-.673-.151,5.106,5.106,0,0,0-4.366-1.555.645.645,0,0,1-.279-1.26,6.4,6.4,0,0,1,5.547,1.909.635.635,0,0,1,.008.9l-.006.006A.75.75,0,0,1,169.158,209.047Z" transform="translate(-136.827 -180.668)" fill="#263238"/>
              <path id="Path_1160" data-name="Path 1160" d="M159.4,201.657c6.237,2.258,5.352,9.009-4.281,21.635-6.505-5.117-10.44-17.257-7.31-21.319S153.95,199.7,159.4,201.657Z" transform="translate(-146.713 -184.527)" fill="#263238"/>
              <path id="Path_1161" data-name="Path 1161" d="M147.152,217.759a12.8,12.8,0,0,0,5.95,7.751c3.9,2.2,6.913-1.032,6.733-5.268-.169-3.82-2.409-9.573-6.749-10.035S146.092,213.745,147.152,217.759Z" transform="translate(-146.591 -178.198)" fill="#ebb376"/>
              <path id="Path_1162" data-name="Path 1162" d="M162.529,219.075s2.331,4.405,8.835,4.2" transform="translate(-137.312 -172.905)" fill="none" stroke="#263238" stroke-linecap="round" stroke-linejoin="round" stroke-width="0.526"/>
              <path id="Path_1163" data-name="Path 1163" d="M160.217,211.911s5.292.284,7.728,3.627a7.464,7.464,0,0,0,1.323-6.151s6.4.784,9.241,5.2a9.626,9.626,0,0,0,.945-5.2s2.13,2.519,1.932,5.2c0,0,4.876-3.092,4.24-5.99a13.477,13.477,0,0,1,2.6,5.046s3.213-1.1,2.5-6.781c0,0,2.13,2.4,2.288,4.117,0,0,4.179-11.843-11.63-18.467s-33.944,1.229-33.628,14.369S160.217,211.911,160.217,211.911Z" transform="translate(-146.094 -190.118)" fill="#263238"/>
              <g id="Group_13625" data-name="Group 13625" transform="translate(10.763 28.657)">
                <path id="Path_1164" data-name="Path 1164" d="M171.987,214.527c0,3.476-2.352,6.293-5.254,6.293s-5.252-2.817-5.252-6.293,2.352-6.295,5.252-6.295S171.987,211.051,171.987,214.527Z" transform="translate(-148.698 -208.007)" fill="none" stroke="#263238" stroke-linecap="round" stroke-linejoin="round" stroke-width="0.526"/>
                <path id="Path_1165" data-name="Path 1165" d="M181,214.384c0,3.476-2.352,6.293-5.254,6.293s-5.252-2.817-5.252-6.293,2.352-6.293,5.252-6.293S181,210.908,181,214.384Z" transform="translate(-143.341 -208.091)" fill="none" stroke="#263238" stroke-linecap="round" stroke-linejoin="round" stroke-width="0.526"/>
                <path id="Path_1166" data-name="Path 1166" d="M168.07,212.507s2.031-1.813,3.863-.226" transform="translate(-144.781 -205.987)" fill="none" stroke="#263238" stroke-linecap="round" stroke-linejoin="round" stroke-width="0.526"/>
                <line id="Line_64" data-name="Line 64" x1="12.783" y1="1.092" transform="translate(0 5.427)" fill="none" stroke="#263238" stroke-linecap="round" stroke-linejoin="round" stroke-width="0.526"/>
              </g>
            </g>
            <g id="Group_13627" data-name="Group 13627" transform="translate(131.483 45.37)">
              <path id="Path_1167" data-name="Path 1167" d="M275.125,252.573v4.219c0,1.264-2.176,2.159-3.425,2.159H173.174c-1.264,0-3.281-.894-3.281-2.159v-4.219Z" transform="translate(-169.893 -198.362)" fill="#263238"/>
              <path id="Path_1168" data-name="Path 1168" d="M275.125,252.573v4.219c0,1.264-2.176,2.159-3.425,2.159H173.174c-1.264,0-3.281-.894-3.281-2.159v-4.219Z" transform="translate(-169.893 -198.362)" fill="#fff" opacity="0.6" style="isolation: isolate"/>
              <path id="Path_1169" data-name="Path 1169" d="M262.642,252.573v4.219c0,1.264-2.176,2.159-3.425,2.159H194.233c-1.264,0-3.34-.894-3.34-2.159v-4.219Z" transform="translate(-157.41 -198.362)" opacity="0.2" style="isolation: isolate"/>
              <path id="Path_1170" data-name="Path 1170" d="M276.408,220.985l-11.73,53.38a4.157,4.157,0,0,1-3.807,3.2H196.8c-1.708,0-2.8-1.821-2.408-3.572l11.714-52.808a3.668,3.668,0,0,1,3.807-2.615h64.071C275.707,218.573,276.788,219.249,276.408,220.985Z" transform="translate(-155.377 -218.573)" fill="#263238"/>
              <path id="Path_1171" data-name="Path 1171" d="M276.408,220.985l-11.73,53.38a4.157,4.157,0,0,1-3.807,3.2H196.8c-1.708,0-2.8-1.821-2.408-3.572l11.714-52.808a3.668,3.668,0,0,1,3.807-2.615h64.071C275.707,218.573,276.788,219.249,276.408,220.985Z" transform="translate(-155.377 -218.573)" fill="#fff" opacity="0.6" style="isolation: isolate"/>
              <path id="Path_1172" data-name="Path 1172" d="M275.6,220.985l-11.73,53.38a4.157,4.157,0,0,1-3.807,3.2H198.172c-1.722,0-2.8-1.821-2.424-3.572l11.73-52.808a3.658,3.658,0,0,1,3.809-2.615h61.891C274.9,218.573,275.98,219.249,275.6,220.985Z" transform="translate(-154.569 -218.573)" fill="#fff" opacity="0.4" style="isolation: isolate"/>
              <path id="Path_1173" data-name="Path 1173" d="M223.729,246.875c2.982,0,6.043-3.2,6.824-7.143.765-3.954-1.02-7.159-4.018-7.159a4.64,4.64,0,0,0-1.658.319c-.7,3.077-2.79,5.66-5.086,6.521a2.331,2.331,0,0,0-.08.319C218.93,243.67,220.731,246.875,223.729,246.875Z" transform="translate(-140.388 -210.251)" opacity="0.2" style="isolation: isolate"/>
            </g>
          </g>
          <g id="Group_13637" data-name="Group 13637" transform="translate(103.52 11.02)">
            <g id="Group_13629" data-name="Group 13629" transform="translate(226.234)">
              <path id="Path_1174" data-name="Path 1174" d="M275.338,229.066l14.928,14.928,5.046,28.93h-30.7l1.262-3.189,16.82-3.189,1.472-17.587-11.143-2.653Z" transform="translate(-255.316 -177.985)" fill="#263238"/>
              <path id="Path_1175" data-name="Path 1175" d="M295.313,272.917H264.62l1.26-3.189,16.821-3.189,1.467-17.587-1.451-.351-9.694-2.3,2.312-17.236,14.924,14.924Z" transform="translate(-255.314 -177.983)" fill="#fff" opacity="0.6" style="isolation: isolate"/>
              <path id="Path_1176" data-name="Path 1176" d="M285.053,241.921l-5.469,6.681-9.694-2.3L272.2,229.07Z" transform="translate(-252.181 -177.983)" opacity="0.2" style="isolation: isolate"/>
              <g id="Group_13628" data-name="Group 13628">
                <path id="Path_1177" data-name="Path 1177" d="M277.071,273.16H259.929a1.114,1.114,0,0,1-1.134-1.3l9.949-73.526a1.544,1.544,0,0,1,1.488-1.3h17.142a1.116,1.116,0,0,1,1.135,1.3l-9.951,73.526A1.544,1.544,0,0,1,277.071,273.16Z" transform="translate(-258.783 -197.029)" fill="#263238"/>
                <path id="Path_1178" data-name="Path 1178" d="M277.071,273.16H259.929a1.114,1.114,0,0,1-1.134-1.3l9.949-73.526a1.544,1.544,0,0,1,1.488-1.3h17.142a1.116,1.116,0,0,1,1.135,1.3l-9.951,73.526A1.544,1.544,0,0,1,277.071,273.16Z" transform="translate(-258.783 -197.029)" fill="#fff" opacity="0.6" style="isolation: isolate"/>
                <path id="Path_1179" data-name="Path 1179" d="M272.288,273.16H259.929a1.114,1.114,0,0,1-1.134-1.3l9.949-73.526a1.544,1.544,0,0,1,1.488-1.3h12.358a1.116,1.116,0,0,1,1.135,1.3l-9.951,73.526A1.544,1.544,0,0,1,272.288,273.16Z" transform="translate(-258.783 -197.029)" fill="#fff" opacity="0.4" style="isolation: isolate"/>
                <path id="Path_1180" data-name="Path 1180" d="M272.617,269.992H259.458l9.678-71.516h13.158Z" transform="translate(-258.382 -196.169)" fill="#407bff"/>
              </g>
            </g>
            <g id="Group_13636" data-name="Group 13636" transform="translate(0 94.288)">
              <g id="Group_13630" data-name="Group 13630" transform="translate(99.6 11.418)">
                <path id="Path_1181" data-name="Path 1181" d="M206.681,507.668h-9.767l-17.55-244.341h12.958Z" transform="translate(-179.359 -263.326)" fill="#263238"/>
                <path id="Path_1182" data-name="Path 1182" d="M206.689,507.521h-9.774l-16.694-232.2-.861-11.743h12.963l.7,11.743Z" transform="translate(-179.361 -263.18)" fill="#fff" opacity="0.4" style="isolation: isolate"/>
                <path id="Path_1183" data-name="Path 1183" d="M193.025,274.734h-12.8l-.861-11.161h12.963Z" transform="translate(-179.361 -263.18)" opacity="0.2" style="isolation: isolate"/>
              </g>
              <g id="Group_13631" data-name="Group 13631" transform="translate(187.244 11.418)">
                <path id="Path_1184" data-name="Path 1184" d="M245.692,507.668h-9.768l-1.6-244.341h12.958Z" transform="translate(-234.329 -263.326)" fill="#263238"/>
                <path id="Path_1185" data-name="Path 1185" d="M247.294,263.573,247.038,303,245.7,507.521h-9.774L234.586,303l-.255-39.422Z" transform="translate(-234.328 -263.18)" fill="#fff" opacity="0.5" style="isolation: isolate"/>
                <path id="Path_1186" data-name="Path 1186" d="M247.294,263.573l-.255,39.861H234.586l-.255-39.861Z" transform="translate(-234.328 -263.18)" opacity="0.2" style="isolation: isolate"/>
              </g>
              <g id="Group_13632" data-name="Group 13632" transform="translate(274.988 11.418)">
                <path id="Path_1187" data-name="Path 1187" d="M316.681,507.668h-9.767l-17.55-244.341h12.958Z" transform="translate(-289.359 -263.326)" fill="#263238"/>
                <path id="Path_1188" data-name="Path 1188" d="M316.689,507.521h-9.774l-16.694-232.2-.861-11.743h12.963l.7,11.743Z" transform="translate(-289.361 -263.18)" fill="#fff" opacity="0.5" style="isolation: isolate"/>
                <path id="Path_1189" data-name="Path 1189" d="M303.025,274.734h-12.8l-.861-11.161h12.963Z" transform="translate(-289.361 -263.18)" opacity="0.2" style="isolation: isolate"/>
              </g>
              <g id="Group_13633" data-name="Group 13633" transform="translate(5.415 11.418)">
                <path id="Path_1190" data-name="Path 1190" d="M130.056,507.668h-9.767l14.359-244.341h12.958Z" transform="translate(-120.289 -263.326)" fill="#263238"/>
                <path id="Path_1191" data-name="Path 1191" d="M147.6,263.573l-.861,11.743-16.694,232.2h-9.758l13.648-232.2.7-11.743Z" transform="translate(-120.288 -263.18)" fill="#fff" opacity="0.5" style="isolation: isolate"/>
                <path id="Path_1192" data-name="Path 1192" d="M129.552,263.573h12.963l-.861,11.161h-12.8Z" transform="translate(-115.199 -263.18)" opacity="0.2" style="isolation: isolate"/>
              </g>
              <g id="Group_13634" data-name="Group 13634" transform="translate(9.502 5.299)">
                <path id="Rectangle_448" data-name="Rectangle 448" d="M0,0H288.722a0,0,0,0,1,0,0V10.076a2.162,2.162,0,0,1-2.162,2.162H2.162A2.162,2.162,0,0,1,0,10.076V0A0,0,0,0,1,0,0Z" fill="#407bff"/>
              </g>
              <rect id="Rectangle_449" data-name="Rectangle 449" width="288.722" height="6.119" transform="translate(9.502 5.299)" opacity="0.2" style="isolation: isolate"/>
              <g id="Group_13635" data-name="Group 13635">
                <path id="Path_1193" data-name="Path 1193" d="M421.171,263.059H120.34a3.447,3.447,0,0,1-3.447-3.447h0a3.447,3.447,0,0,1,3.447-3.447H421.171a3.447,3.447,0,0,1,3.447,3.447h0A3.447,3.447,0,0,1,421.171,263.059Z" transform="translate(-116.893 -256.165)" fill="#407bff"/>
              </g>
            </g>
          </g>
        </g>
      </g>
    </g>
  </g>
</svg>
