<svg xmlns="http://www.w3.org/2000/svg" xmlns:xlink="http://www.w3.org/1999/xlink" width="678.047" height="580.353" viewBox="0 0 678.047 580.353">
  <defs>
    <linearGradient id="linear-gradient" x1="0.5" x2="0.5" y2="1" gradientUnits="objectBoundingBox">
      <stop offset="0" stop-color="#10337c"/>
      <stop offset="1" stop-color="#08a8f2"/>
    </linearGradient>
    <clipPath id="clip-path">
      <path id="Path_846" data-name="Path 846" d="M359.942,453.059c-1.114,8.566-2.379,17.839-3.824,27.91H226.894l.617-16.65c-7.723,1.867-22.732.723-22.732.723V440.429c9.123-5.163,10.478-3.718,10.478-3.718s.467-60.065,5.931-75.059a30.24,30.24,0,0,1,10.688-14.06v-.015a36.588,36.588,0,0,1,4.08-2.634,2.215,2.215,0,0,0,.2-.121c1.505-.8,3.327-1.641,5.4-2.514.181-.075.376-.151.572-.226,20.233-8.265,64.386-17.854,105.529-.271,2.875,1.234,26.36,12.45,28.362,28.663C377.163,379.716,370.871,425.691,359.942,453.059Z" transform="translate(-204.78 -331.921)" fill="#92e3a9" stroke="#263238" stroke-linecap="round" stroke-linejoin="round" stroke-width="1"/>
    </clipPath>
    <clipPath id="clip-path-2">
      <path id="Path_860" data-name="Path 860" d="M239.539,408.276a5.34,5.34,0,0,1,6.166-1.48s3.1-2.412,6.118-.425,9.029,24.574,3.172,28.8c-1.689,1.218-6.4,2.344-7.845-.086,0,0-3.693,2.43-5.49-1.734-1.691-3.919,1.393-8.76-2.979-20.159A4.781,4.781,0,0,1,239.539,408.276Z" transform="translate(-238.355 -405.586)" fill="#08a8f2" stroke="#263238" stroke-linecap="round" stroke-linejoin="round" stroke-width="1"/>
    </clipPath>
    <clipPath id="clip-path-3">
      <path id="Path_867" data-name="Path 867" d="M288.154,343.447,286,313.121l-31.383,7.265-1.672,24.359c-1.98.247-3.864.522-5.7.808l7.673,18.4,15,1.969,24-22.114C291.973,343.663,290.045,343.538,288.154,343.447Z" transform="translate(-247.245 -313.121)" fill="#fff" stroke="#263238" stroke-linecap="round" stroke-linejoin="round" stroke-width="1"/>
    </clipPath>
    <clipPath id="clip-path-4">
      <path id="Path_888" data-name="Path 888" d="M252.538,333.566l11.6,20.86,27.836-21.968,8.554,1.2L282.515,365.5a2.454,2.454,0,0,1-3.435.851l-15.4-9.713-12.007,7.339a2.452,2.452,0,0,1-3.717-1.826l-2.982-27.174Z" transform="translate(-244.978 -332.458)" fill="#08a8f2" stroke="#263238" stroke-linecap="round" stroke-linejoin="round" stroke-width="1"/>
    </clipPath>
    <clipPath id="clip-path-5">
      <path id="Path_895" data-name="Path 895" d="M385.4,312.975s-2.076,25.541,11.1,47.51c0,0-17.755,5.785-36.27.285h0a60.649,60.649,0,0,0-1.114-20.3l-.631-2.782,13.46-11.643Z" transform="translate(-358.488 -312.975)" fill="#fff" stroke="#263238" stroke-linecap="round" stroke-linejoin="round" stroke-width="1"/>
    </clipPath>
    <clipPath id="clip-path-6">
      <path id="Path_909" data-name="Path 909" d="M449.525,462.064q-.994,6.142-2.123,12.751H344.162c-.166-1.385.813-4.17,1.746-9.017-11.5,3.9-31.568-2.153-31.568-2.153,2.5-6.579.768-23.289.768-23.289l11.712-2.484s4.862-50.913,8.566-65.5c3.929-15.475,25.429-32.372,97.731-27.383h0s33.363-.632,38.541,21.482C476.49,387.1,450.91,461.116,449.525,462.064Z" transform="translate(-314.34 -344.098)" fill="#92e3a9" stroke="#263238" stroke-linecap="round" stroke-linejoin="round" stroke-width="1"/>
    </clipPath>
    <clipPath id="clip-path-7">
      <path id="Path_944" data-name="Path 944" d="M378.836,409.451s3.384-7.441,13.458-3.768c0,0,9.537,3.28,12.388,13.085s-.712,18.541-7.666,18.9-8.221-.179-7.051-2.318a17.491,17.491,0,0,0,.543-15.224C386.182,409.776,378.836,409.451,378.836,409.451Z" transform="translate(-378.836 -404.664)" fill="#08a8f2" stroke="#263238" stroke-linecap="round" stroke-linejoin="round" stroke-width="1"/>
    </clipPath>
    <clipPath id="clip-path-8">
      <path id="Path_958" data-name="Path 958" d="M266.051,449.792H108.2a7.464,7.464,0,0,1-7.2-6.416L87.3,331.821a5.556,5.556,0,0,1,5.627-6.416H250.779a7.464,7.464,0,0,1,7.2,6.416l13.7,111.555A5.557,5.557,0,0,1,266.051,449.792Z" transform="translate(-87.247 -325.405)" fill="#263238" stroke="#263238" stroke-linecap="round" stroke-linejoin="round" stroke-width="1"/>
    </clipPath>
  </defs>
  <g id="Group_13560" data-name="Group 13560" transform="translate(-18.752 -36.872)">
    <g id="Background_Simple" data-name="Background Simple" transform="translate(18.752 36.872)">
      <g id="Group_13460" data-name="Group 13460" transform="translate(0 0)">
        <path id="Path_797" data-name="Path 797" d="M112.344,565.367C68.827,503.461-30.685,322.323,169.916,268.207S306.287,59.473,452.821,61.746,743.175,186.768,725.506,303.234,547.054,410.446,502.1,530.755,188.886,674.253,112.344,565.367Z" transform="translate(-48.936 -61.721)" fill="url(#linear-gradient)"/>
        <path id="Path_798" data-name="Path 798" d="M112.344,565.716C68.827,503.81-30.685,322.672,169.916,268.556S306.287,59.822,452.821,62.1,743.175,187.117,725.506,303.583,547.054,410.795,502.1,531.1,188.886,674.6,112.344,565.716Z" transform="translate(-48.936 -61.477)" opacity="0.7" fill="url(#linear-gradient)"/>
      </g>
    </g>
    <g id="Graphics" transform="translate(102.631 184.94)">
      <g id="Group_13467" data-name="Group 13467">
        <g id="Group_13462" data-name="Group 13462" transform="translate(402.513)">
          <path id="Path_799" data-name="Path 799" d="M383.037,219.439a33.038,33.038,0,0,0,16.6-9.6l10.612,3.59,5.294-9.172-8.408-7.388a33.157,33.157,0,0,0,0-19.176l8.408-7.4-5.294-9.172-10.612,3.589a32.979,32.979,0,0,0-16.6-9.591l-2.2-10.979h-5.294" transform="translate(-335.536 -144.143)" fill="none" stroke="#fff" stroke-miterlimit="10" stroke-width="1"/>
          <path id="Path_800" data-name="Path 800" d="M383.674,144.143l-2.195,10.979a33,33,0,0,0-16.608,9.591l-10.612-3.589-5.294,9.172,8.409,7.4a33.155,33.155,0,0,0,0,19.176l-8.409,7.388,5.294,9.172,10.612-3.59a33.058,33.058,0,0,0,16.608,9.6l2.195,10.979h10.589l2.2-10.979" transform="translate(-348.966 -144.143)" fill="none" stroke="#fff" stroke-miterlimit="10" stroke-width="1"/>
          <path id="Path_801" data-name="Path 801" d="M380.485,195.819c-18.876-1.32-22.424-28.806-3.554-33.635" transform="translate(-341.152 -135.025)" fill="none" stroke="#fff" stroke-miterlimit="10" stroke-width="1"/>
          <path id="Path_802" data-name="Path 802" d="M385.071,164.7c9.4,8.606,6.421,25.4-6.1,29.2" transform="translate(-333.8 -133.755)" fill="none" stroke="#fff" stroke-miterlimit="10" stroke-width="1"/>
          <path id="Path_803" data-name="Path 803" d="M376.969,161.925a16.875,16.875,0,0,1,4.753,1.314" transform="translate(-334.813 -135.156)" fill="none" stroke="#fff" stroke-miterlimit="10" stroke-width="1"/>
          <path id="Path_804" data-name="Path 804" d="M417.877,200.716l2.231-2.672a21.774,21.774,0,0,0,12.624-.319l5.007,5.41" transform="translate(-314.138 -117.063)" fill="none" stroke="#fff" stroke-miterlimit="10" stroke-width="1"/>
          <path id="Path_805" data-name="Path 805" d="M416.529,171.984l.966,2.634a21.73,21.73,0,0,0-6.028,11.095l-7.193,1.633.181,6.97,7.264,1.263a21.838,21.838,0,0,0,6.594,10.767l-2.181,7.041,6.125,3.33" transform="translate(-321.013 -130.072)" fill="none" stroke="#fff" stroke-miterlimit="10" stroke-width="1"/>
          <path id="Path_806" data-name="Path 806" d="M441.028,219l5.946-3.642-2.537-6.922a21.745,21.745,0,0,0,6.02-11.1l7.193-1.633-.179-6.97-7.262-1.257a21.822,21.822,0,0,0-6.592-10.768l2.178-7.045-6.125-3.33L434.945,172a21.7,21.7,0,0,0-12.618.319l-5.012-5.406-5.946,3.64" transform="translate(-317.427 -132.927)" fill="none" stroke="#fff" stroke-miterlimit="10" stroke-width="1"/>
          <g id="Group_13461" data-name="Group 13461" transform="translate(100.932 49.704)">
            <path id="Path_807" data-name="Path 807" d="M437.8,184.565c2.055,8.652-6.159,16.976-14.845,13.463-8.283-3.35-9.487-15.5-1.8-20.163" transform="translate(-416.013 -176.804)" fill="none" stroke="#fff" stroke-miterlimit="10" stroke-width="1"/>
            <path id="Path_808" data-name="Path 808" d="M425.765,177.16a11.1,11.1,0,0,1,4.564,2.934" transform="translate(-411.084 -177.16)" fill="none" stroke="#fff" stroke-miterlimit="10" stroke-width="1"/>
          </g>
        </g>
        <g id="Group_13466" data-name="Group 13466" transform="translate(0 178.533)">
          <g id="Group_13463" data-name="Group 13463" transform="translate(0 0)">
            <path id="Path_809" data-name="Path 809" d="M108.825,298.783l11.306,11.307a12.189,12.189,0,0,0,14.657,14.657l-7.1-7.1,1.924-7.182,7.184-1.925,7.1,7.1a12.188,12.188,0,0,0-14.657-14.657L118.827,290.57" transform="translate(-67.82 -248.672)" fill="none" stroke="#fff" stroke-miterlimit="10" stroke-width="1"/>
            <path id="Path_810" data-name="Path 810" d="M116.049,288.092l-10.377-10.377a12.188,12.188,0,0,0-14.657-14.657l7.1,7.1-1.925,7.184-7.184,1.925-7.1-7.1a12.19,12.19,0,0,0,14.658,14.657L106.941,297.2" transform="translate(-81.587 -262.738)" fill="none" stroke="#fff" stroke-miterlimit="10" stroke-width="1"/>
          </g>
          <g id="Group_13465" data-name="Group 13465" transform="translate(1.419)">
            <g id="Group_13464" data-name="Group 13464">
              <path id="Path_811" data-name="Path 811" d="M113.224,299.009l14.47-14.471a9.779,9.779,0,0,1,2.419-1.769l2.913-1.505,10.479-11.975-6.548-6.55-11.975,10.479-1.507,2.913a9.72,9.72,0,0,1-1.769,2.421L110.23,290.026" transform="translate(-68.53 -262.738)" fill="none" stroke="#fff" stroke-miterlimit="10" stroke-width="1"/>
              <path id="Path_812" data-name="Path 812" d="M88.717,327.384a4.909,4.909,0,0,0,6.29-.869l25.074-25.074a4.78,4.78,0,0,0,1.548-4.354l4.348-4.348.265.265a1.609,1.609,0,0,0,2.276-2.276l-8.576-8.578a1.61,1.61,0,0,0-2.276,2.278l.265.265-4.348,4.348a4.776,4.776,0,0,0-4.354,1.546L84.155,315.662a4.819,4.819,0,0,0-1.59,4.12" transform="translate(-82.53 -253.164)" fill="none" stroke="#fff" stroke-miterlimit="10" stroke-width="1"/>
              <path id="Path_813" data-name="Path 813" d="M83.217,308.758a14.129,14.129,0,0,0,2.088,2.576A13.2,13.2,0,0,0,88.37,313.7" transform="translate(-82.182 -239.479)" fill="none" stroke="#fff" stroke-miterlimit="10" stroke-width="1"/>
            </g>
          </g>
          <line id="Line_50" data-name="Line 50" y1="4.377" x2="4.377" transform="translate(10.17 62.241)" fill="none" stroke="#fff" stroke-miterlimit="10" stroke-width="1"/>
          <line id="Line_51" data-name="Line 51" y1="18.903" x2="18.511" transform="translate(20.468 37.417)" fill="none" stroke="#fff" stroke-miterlimit="10" stroke-width="1"/>
        </g>
      </g>
    </g>
    <g id="Coding" transform="translate(125.775 100.058)">
      <g id="Group_13494" data-name="Group 13494">
        <g id="Group_13469" data-name="Group 13469">
          <rect id="Rectangle_244" data-name="Rectangle 244" width="401.345" height="260.741" fill="#fff"/>
          <path id="Path_814" data-name="Path 814" d="M498.305,87.758H96.961V348.5H498.305Z" transform="translate(-96.961 -87.758)" fill="#bfbfbf"/>
          <rect id="Rectangle_245" data-name="Rectangle 245" width="401.345" height="34.111" fill="#fff"/>
          <rect id="Rectangle_246" data-name="Rectangle 246" width="401.345" height="34.111" fill="#757575"/>
          <rect id="Rectangle_247" data-name="Rectangle 247" width="23.244" height="23.244" rx="2.616" transform="translate(369.74 5.434)" fill="#fff"/>
          <rect id="Rectangle_248" data-name="Rectangle 248" width="23.244" height="23.244" rx="2.641" transform="translate(341.255 5.434)" fill="#fff"/>
          <rect id="Rectangle_249" data-name="Rectangle 249" width="23.244" height="23.244" rx="2.617" transform="translate(312.77 5.434)" fill="#fff"/>
          <rect id="Rectangle_250" data-name="Rectangle 250" width="371.237" height="196.522" rx="5.216" transform="translate(15.054 49.165)" fill="#263238" stroke="#263238" stroke-linecap="round" stroke-linejoin="round" stroke-width="1"/>
          <g id="Group_13468" data-name="Group 13468" transform="translate(376.376 12.07)">
            <line id="Line_52" data-name="Line 52" y1="9.971" x2="9.971" transform="translate(0)" fill="none" stroke="#263238" stroke-linecap="round" stroke-linejoin="round" stroke-width="1"/>
            <line id="Line_53" data-name="Line 53" x2="9.971" y2="9.971" transform="translate(0)" fill="none" stroke="#263238" stroke-linecap="round" stroke-linejoin="round" stroke-width="1"/>
          </g>
          <rect id="Rectangle_251" data-name="Rectangle 251" width="13.295" height="8.779" transform="translate(346.229 14.924)" fill="none" stroke="#263238" stroke-linecap="round" stroke-linejoin="round" stroke-width="1"/>
          <line id="Line_54" data-name="Line 54" x1="13.295" transform="translate(317.745 23.703)" fill="none" stroke="#263238" stroke-linecap="round" stroke-linejoin="round" stroke-width="1"/>
        </g>
        <g id="Group_13473" data-name="Group 13473" transform="translate(197.661 176.736)">
          <g id="Group_13470" data-name="Group 13470" transform="translate(135.889)">
            <path id="Path_815" data-name="Path 815" d="M347.923,211.181H321.541a3.011,3.011,0,1,1,0-6.022h26.382a3.011,3.011,0,0,1,0,6.022Z" transform="translate(-318.53 -205.159)" fill="#757575"/>
          </g>
          <g id="Group_13471" data-name="Group 13471" transform="translate(88.612 20.824)">
            <path id="Path_816" data-name="Path 816" d="M363.8,225.014H290.136a3.011,3.011,0,0,1,0-6.022H363.8a3.011,3.011,0,0,1,0,6.022Z" transform="translate(-287.125 -218.992)" fill="#757575"/>
          </g>
          <g id="Group_13472" data-name="Group 13472" transform="translate(0 41.65)">
            <path id="Path_817" data-name="Path 817" d="M393.544,238.848H231.273a3.011,3.011,0,1,1,0-6.022H393.544a3.011,3.011,0,0,1,0,6.022Z" transform="translate(-228.262 -232.826)" fill="#757575"/>
          </g>
        </g>
        <g id="Group_13482" data-name="Group 13482" transform="translate(27.599 155.912)">
          <g id="Group_13474" data-name="Group 13474">
            <path id="Path_818" data-name="Path 818" d="M130.595,197.348H118.3a3.011,3.011,0,0,1,0-6.022h12.29a3.011,3.011,0,0,1,0,6.022Z" transform="translate(-115.294 -191.326)" fill="#bfbfbf"/>
          </g>
          <g id="Group_13475" data-name="Group 13475" transform="translate(0 20.824)">
            <path id="Path_819" data-name="Path 819" d="M130.595,211.181H118.3a3.011,3.011,0,0,1,0-6.022h12.29a3.011,3.011,0,0,1,0,6.022Z" transform="translate(-115.294 -205.159)" fill="#bfbfbf"/>
          </g>
          <g id="Group_13476" data-name="Group 13476" transform="translate(0 41.648)">
            <path id="Path_820" data-name="Path 820" d="M130.595,225.014H118.3a3.011,3.011,0,0,1,0-6.022h12.29a3.011,3.011,0,0,1,0,6.022Z" transform="translate(-115.294 -218.992)" fill="#bfbfbf"/>
          </g>
          <g id="Group_13477" data-name="Group 13477" transform="translate(0 62.474)">
            <path id="Path_821" data-name="Path 821" d="M130.595,238.848H118.3a3.011,3.011,0,0,1,0-6.022h12.29a3.011,3.011,0,0,1,0,6.022Z" transform="translate(-115.294 -232.826)" fill="#bfbfbf"/>
          </g>
          <g id="Group_13478" data-name="Group 13478" opacity="0.7">
            <path id="Path_822" data-name="Path 822" d="M130.595,197.348H118.3a3.011,3.011,0,0,1,0-6.022h12.29a3.011,3.011,0,0,1,0,6.022Z" transform="translate(-115.294 -191.326)" fill="#bfbfbf"/>
          </g>
          <g id="Group_13479" data-name="Group 13479" transform="translate(0 20.824)" opacity="0.7">
            <path id="Path_823" data-name="Path 823" d="M130.595,211.181H118.3a3.011,3.011,0,0,1,0-6.022h12.29a3.011,3.011,0,0,1,0,6.022Z" transform="translate(-115.294 -205.159)" fill="#bfbfbf"/>
          </g>
          <g id="Group_13480" data-name="Group 13480" transform="translate(0 41.648)" opacity="0.7">
            <path id="Path_824" data-name="Path 824" d="M130.595,225.014H118.3a3.011,3.011,0,0,1,0-6.022h12.29a3.011,3.011,0,0,1,0,6.022Z" transform="translate(-115.294 -218.992)" fill="#bfbfbf"/>
          </g>
          <g id="Group_13481" data-name="Group 13481" transform="translate(0 62.474)" opacity="0.7">
            <path id="Path_825" data-name="Path 825" d="M130.595,238.848H118.3a3.011,3.011,0,0,1,0-6.022h12.29a3.011,3.011,0,0,1,0,6.022Z" transform="translate(-115.294 -232.826)" fill="#bfbfbf"/>
          </g>
        </g>
        <g id="Group_13487" data-name="Group 13487" transform="translate(27.599 93.437)">
          <g id="Group_13483" data-name="Group 13483" transform="translate(0 41.648)">
            <path id="Path_826" data-name="Path 826" d="M376.979,183.514H118.3a3.011,3.011,0,0,1,0-6.022H376.979a3.011,3.011,0,1,1,0,6.022Z" transform="translate(-115.294 -177.492)" fill="#bfbfbf"/>
          </g>
          <g id="Group_13484" data-name="Group 13484" transform="translate(305.951)">
            <path id="Path_827" data-name="Path 827" d="M347.923,155.848H321.541a3.011,3.011,0,0,1,0-6.022h26.382a3.011,3.011,0,0,1,0,6.022Z" transform="translate(-318.53 -149.826)" fill="#bfbfbf"/>
          </g>
          <g id="Group_13485" data-name="Group 13485" transform="translate(269.714)">
            <path id="Path_828" data-name="Path 828" d="M322.666,155.848h-25.2a3.011,3.011,0,1,1,0-6.022h25.2a3.011,3.011,0,0,1,0,6.022Z" transform="translate(-294.458 -149.826)" fill="#bfbfbf"/>
          </g>
          <g id="Group_13486" data-name="Group 13486">
            <path id="Path_829" data-name="Path 829" d="M376.979,155.848H118.3a3.011,3.011,0,0,1,0-6.022H376.979a3.011,3.011,0,0,1,0,6.022Z" transform="translate(-115.294 -149.826)" fill="#bfbfbf"/>
          </g>
        </g>
        <g id="Group_13493" data-name="Group 13493" transform="translate(53.438 155.912)">
          <g id="Group_13488" data-name="Group 13488" transform="translate(280.111)">
            <path id="Path_830" data-name="Path 830" d="M347.923,197.348H321.54a3.011,3.011,0,1,1,0-6.022h26.384a3.011,3.011,0,1,1,0,6.022Z" transform="translate(-318.529 -191.326)" fill="#999"/>
          </g>
          <g id="Group_13489" data-name="Group 13489">
            <path id="Path_831" data-name="Path 831" d="M404.542,197.348H135.469a3.011,3.011,0,1,1,0-6.022H404.542a3.011,3.011,0,1,1,0,6.022Z" transform="translate(-132.458 -191.326)" fill="#999"/>
          </g>
          <g id="Group_13490" data-name="Group 13490" transform="translate(0 20.824)">
            <path id="Path_832" data-name="Path 832" d="M212.745,211.181H135.469a3.011,3.011,0,1,1,0-6.022h77.277a3.011,3.011,0,0,1,0,6.022Z" transform="translate(-132.458 -205.159)" fill="#999"/>
          </g>
          <g id="Group_13491" data-name="Group 13491" transform="translate(0 41.648)">
            <path id="Path_833" data-name="Path 833" d="M212.745,225.014H135.469a3.011,3.011,0,0,1,0-6.022h77.277a3.011,3.011,0,0,1,0,6.022Z" transform="translate(-132.458 -218.992)" fill="#999"/>
          </g>
          <g id="Group_13492" data-name="Group 13492" transform="translate(0 62.474)">
            <path id="Path_834" data-name="Path 834" d="M212.745,238.848H135.469a3.011,3.011,0,1,1,0-6.022h77.277a3.011,3.011,0,0,1,0,6.022Z" transform="translate(-132.458 -232.826)" fill="#999"/>
          </g>
        </g>
      </g>
    </g>
    <g id="Character_1" data-name="Character 1" transform="translate(180.598 344.639)">
      <g id="Group_13518" data-name="Group 13518">
        <g id="Group_13498" data-name="Group 13498" transform="translate(10.688 227.764)">
          <g id="Group_13495" data-name="Group 13495" transform="translate(0 7.238)">
            <path id="Path_835" data-name="Path 835" d="M153.932,415.342s-7.9,13.589-4.787,14.08,9.615-11.256,9.615-11.256l17.837-4.729-13.436-1.386Z" transform="translate(-136.465 -403.443)" fill="#fff" stroke="#263238" stroke-linecap="round" stroke-linejoin="round" stroke-width="1"/>
            <path id="Path_836" data-name="Path 836" d="M153.932,415.342s-7.9,13.589-4.787,14.08,9.615-11.256,9.615-11.256l17.837-4.729-13.436-1.386Z" transform="translate(-136.465 -403.443)" stroke="#263238" stroke-linecap="round" stroke-linejoin="round" stroke-width="1" opacity="0.3"/>
            <path id="Path_837" data-name="Path 837" d="M163.95,408.307s-11.044-2.63-14.094,2.558-11.989,20.54-8.638,22.3,6.273-3.919,6.273-3.919Z" transform="translate(-140.478 -405.672)" fill="#fff" stroke="#263238" stroke-linecap="round" stroke-linejoin="round" stroke-width="1"/>
            <path id="Path_838" data-name="Path 838" d="M208.492,424.711s-11.084,4.188-22.644,2.379l-12.573,4.177s-11.048,5.442-16.188,2.7,13.1-8.795,13.1-8.795,12.268-5.308,8.6-6.583-17.5-1.034-20.224,1.052-9.851,15.6-15,14.828,2.175-8.128,4.022-10.961,5.993-14.128,14.4-14.6,36.681.977,36.681.977l33.254-3.553,7.846,18.915Z" transform="translate(-139.826 -406.333)" fill="#fff" stroke="#263238" stroke-linecap="round" stroke-linejoin="round" stroke-width="1"/>
          </g>
          <g id="Group_13497" data-name="Group 13497" transform="translate(81.777)">
            <g id="Group_13496" data-name="Group 13496">
              <path id="Path_839" data-name="Path 839" d="M199.045,431.826a5.336,5.336,0,0,0,6.339-.1s3.6,1.567,6.032-1.108,2.643-26.046-4.08-28.681c-1.939-.76-6.78-.682-7.577,2.031,0,0-4.181-1.436-4.887,3.044-.665,4.217,3.523,8.14,2.121,20.267A4.78,4.78,0,0,0,199.045,431.826Z" transform="translate(-194.801 -401.525)" fill="#92e3a9" stroke="#263238" stroke-linecap="round" stroke-linejoin="round" stroke-width="1"/>
              <path id="Path_840" data-name="Path 840" d="M199.045,431.826a5.336,5.336,0,0,0,6.339-.1s3.6,1.567,6.032-1.108,2.643-26.046-4.08-28.681c-1.939-.76-6.78-.682-7.577,2.031,0,0-4.181-1.436-4.887,3.044-.665,4.217,3.523,8.14,2.121,20.267A4.78,4.78,0,0,0,199.045,431.826Z" transform="translate(-194.801 -401.525)" stroke="#263238" stroke-linecap="round" stroke-linejoin="round" stroke-width="1" opacity="0.3"/>
            </g>
            <path id="Path_841" data-name="Path 841" d="M204.05,424.232s.2-10.134-3.973-18.467" transform="translate(-192.135 -399.382)" fill="none" stroke="#263238" stroke-linecap="round" stroke-linejoin="round" stroke-width="1"/>
          </g>
        </g>
        <g id="Group_13500" data-name="Group 13500" transform="translate(107.488 122.983)">
          <path id="Path_842" data-name="Path 842" d="M359.942,453.059c-1.114,8.566-2.379,17.839-3.824,27.91H226.894l.617-16.65c-7.723,1.867-22.732.723-22.732.723V440.429c9.123-5.163,10.478-3.718,10.478-3.718s.467-60.065,5.931-75.059a30.24,30.24,0,0,1,10.688-14.06v-.015a36.588,36.588,0,0,1,4.08-2.634,2.215,2.215,0,0,0,.2-.121c1.505-.8,3.327-1.641,5.4-2.514.181-.075.376-.151.572-.226,20.233-8.265,64.386-17.854,105.529-.271,2.875,1.234,26.36,12.45,28.362,28.663C377.163,379.716,370.871,425.691,359.942,453.059Z" transform="translate(-204.78 -331.921)" fill="#08a8f2"/>
          <g id="Group_13499" data-name="Group 13499" clip-path="url(#clip-path)">
            <path id="Path_843" data-name="Path 843" d="M303.645,363.2l-12.886,59.81c-2-1.581-7.768-1.686-15.1-.994a23.566,23.566,0,0,0,3.9-5.841C299.039,374.024,303.3,364.043,303.645,363.2Z" transform="translate(-168.957 -316.113)" opacity="0.2"/>
            <path id="Path_844" data-name="Path 844" d="M355.588,406.85c-3.733,13.308-5.374,25.426-6.895,36.25H219.47l1.189-19.179c8.054-1.144,22.19-2.318,36.867-4.923a32.761,32.761,0,0,1,.346,14.015s59.433,7.376,79.38,2.574c5.69-1.37,10.839-9.318,15.25-20.263C353.571,412.661,354.595,409.816,355.588,406.85Z" transform="translate(-197.356 -294.052)" opacity="0.2"/>
            <path id="Path_845" data-name="Path 845" d="M216.806,423.108s-2.893-2.579-12.031,2.589v24.615s15.06-.541,20.967-3.74c5.082,3.145,4.179-54.461,5.082-85.492-7.375,2.028-7.967,16.066-9.106,29.271A265.4,265.4,0,0,1,216.806,423.108Z" transform="translate(-204.783 -317.184)" opacity="0.3"/>
          </g>
          <path id="Path_847" data-name="Path 847" d="M359.942,453.059c-1.114,8.566-2.379,17.839-3.824,27.91H226.894l.617-16.65c-7.723,1.867-22.732.723-22.732.723V440.429c9.123-5.163,10.478-3.718,10.478-3.718s.467-60.065,5.931-75.059a30.24,30.24,0,0,1,10.688-14.06v-.015a36.588,36.588,0,0,1,4.08-2.634,2.215,2.215,0,0,0,.2-.121c1.505-.8,3.327-1.641,5.4-2.514.181-.075.376-.151.572-.226,20.233-8.265,64.386-17.854,105.529-.271,2.875,1.234,26.36,12.45,28.362,28.663C377.163,379.716,370.871,425.691,359.942,453.059Z" transform="translate(-204.78 -331.921)" fill="none" stroke="#263238" stroke-linecap="round" stroke-linejoin="round" stroke-width="1"/>
        </g>
        <g id="Group_13517" data-name="Group 13517">
          <g id="Group_13515" data-name="Group 13515" transform="translate(67.901)">
            <g id="Group_13507" data-name="Group 13507" transform="translate(0 144.437)">
              <path id="Path_848" data-name="Path 848" d="M357.193,357.53c.045.361.09.783.105,1.249.662,11.561-5.63,55.188-16.2,81.472-4.411,10.944-9.559,18.893-15.25,20.263-19.947,4.8-79.38-2.574-79.38-2.574a32.941,32.941,0,0,0-4.441-23.635s58.349-14.271,65.726-8.43l12.916-59.87" transform="translate(-146.367 -340.433)" fill="none" stroke="#263238" stroke-linecap="round" stroke-linejoin="round" stroke-width="1"/>
              <path id="Path_849" data-name="Path 849" d="M288.388,405.1a26.48,26.48,0,0,1,10.339,8.861" transform="translate(-122.938 -316.393)" fill="none" stroke="#263238" stroke-linecap="round" stroke-linejoin="round" stroke-width="1"/>
              <g id="Group_13501" data-name="Group 13501" transform="translate(0 22.443)">
                <path id="Path_850" data-name="Path 850" d="M195.286,406.613s-5.436-1.144-7.65,1.331c-2.314,2.583-11.7,16.73-8.492,19.445s9.722-12.185,9.722-12.185Z" transform="translate(-178.484 -338.203)" fill="#fff" stroke="#263238" stroke-linecap="round" stroke-linejoin="round" stroke-width="1"/>
                <path id="Path_851" data-name="Path 851" d="M205.747,406.65s-12.088-2.6-14.8,1.1-17.94,22.769-8.463,23.385l15.138-16.984Z" transform="translate(-178.012 -338.499)" fill="#fff" stroke="#263238" stroke-linecap="round" stroke-linejoin="round" stroke-width="1"/>
                <path id="Path_852" data-name="Path 852" d="M227.888,422.13s-12.42,2.708-17.466,3.693-14.4,7.507-19.936,4.923,18.09-12.185,18.09-12.185l8.123-3.27Z" transform="translate(-172.843 -333.683)" fill="#bfbfbf" stroke="#263238" stroke-linecap="round" stroke-linejoin="round" stroke-width="1"/>
                <path id="Path_853" data-name="Path 853" d="M221.729,375.209q.262-7.063.527-14.128" transform="translate(-156.628 -361.081)" fill="none" stroke="#263238" stroke-linecap="round" stroke-linejoin="round" stroke-width="1"/>
                <path id="Path_854" data-name="Path 854" d="M219.47,459.336c2.3-28.5,3.16-84.611,3.16-84.611" transform="translate(-157.769 -354.185)" fill="none" stroke="#263238" stroke-linecap="round" stroke-linejoin="round" stroke-width="1"/>
                <path id="Path_855" data-name="Path 855" d="M277.276,411.35H234.448s-33.229-9.969-38.767-2.214-17.353,19.567-14.03,21.783S199,417.073,199,417.073l12.185.114s-10.339,4.5-12.554,6.716-7.015,8.492-4.43,9.6,10.706-7.015,10.706-7.015,12.185-2.954,15.138-1.477a41.98,41.98,0,0,0,30.644,2.954l32.681,4.062Z" transform="translate(-177.176 -338.287)" fill="#fff" stroke="#263238" stroke-linecap="round" stroke-linejoin="round" stroke-width="1"/>
              </g>
              <g id="Group_13503" data-name="Group 13503" transform="translate(168.912)">
                <path id="Path_856" data-name="Path 856" d="M291.609,383.889a63.439,63.439,0,0,1-.135-20.729" transform="translate(-290.688 -337.588)" fill="none" stroke="#263238" stroke-linecap="round" stroke-linejoin="round" stroke-width="1"/>
                <g id="Group_13502" data-name="Group 13502" transform="translate(10.636)">
                  <path id="Path_857" data-name="Path 857" d="M297.753,356.574s20.776-27.374,31.278,6.7" transform="translate(-297.753 -346.173)" fill="none" stroke="#263238" stroke-linecap="round" stroke-linejoin="round" stroke-width="1"/>
                </g>
              </g>
              <g id="Group_13506" data-name="Group 13506" transform="translate(90.131 89.441)">
                <g id="Group_13505" data-name="Group 13505">
                  <path id="Path_858" data-name="Path 858" d="M239.539,408.276a5.34,5.34,0,0,1,6.166-1.48s3.1-2.412,6.118-.425,9.029,24.574,3.172,28.8c-1.689,1.218-6.4,2.344-7.845-.086,0,0-3.693,2.43-5.49-1.734-1.691-3.919,1.393-8.76-2.979-20.159A4.781,4.781,0,0,1,239.539,408.276Z" transform="translate(-238.355 -405.586)" fill="#08a8f2"/>
                  <g id="Group_13504" data-name="Group 13504" clip-path="url(#clip-path-2)">
                    <path id="Path_859" data-name="Path 859" d="M239.539,408.276a5.34,5.34,0,0,1,6.166-1.48s3.1-2.412,6.118-.425,9.029,24.574,3.172,28.8c-1.689,1.218-6.4,2.344-7.845-.086,0,0-3.693,2.43-5.49-1.734-1.691-3.919,1.393-8.76-2.979-20.159A4.781,4.781,0,0,1,239.539,408.276Z" transform="translate(-238.355 -405.586)" opacity="0.3"/>
                  </g>
                  <path id="Path_861" data-name="Path 861" d="M239.539,408.276a5.34,5.34,0,0,1,6.166-1.48s3.1-2.412,6.118-.425,9.029,24.574,3.172,28.8c-1.689,1.218-6.4,2.344-7.845-.086,0,0-3.693,2.43-5.49-1.734-1.691-3.919,1.393-8.76-2.979-20.159A4.781,4.781,0,0,1,239.539,408.276Z" transform="translate(-238.355 -405.586)" fill="none" stroke="#263238" stroke-linecap="round" stroke-linejoin="round" stroke-width="1"/>
                </g>
              </g>
              <path id="Path_862" data-name="Path 862" d="M245.458,415.162a37.5,37.5,0,0,1,.122,10.594" transform="translate(-144.635 -311.306)" fill="none" stroke="#263238" stroke-linecap="round" stroke-linejoin="round" stroke-width="1"/>
            </g>
            <path id="Path_863" data-name="Path 863" d="M259.934,371.3a2.932,2.932,0,1,1-2.758-3.1A2.932,2.932,0,0,1,259.934,371.3Z" transform="translate(-140.28 -190.606)" fill="#fff" stroke="#263238" stroke-linecap="round" stroke-linejoin="round" stroke-width="1"/>
            <path id="Path_864" data-name="Path 864" d="M258.533,401.489a2.933,2.933,0,1,1-2.759-3.1A2.932,2.932,0,0,1,258.533,401.489Z" transform="translate(-140.989 -175.347)" fill="#fff" stroke="#263238" stroke-linecap="round" stroke-linejoin="round" stroke-width="1"/>
            <g id="Group_13509" data-name="Group 13509" transform="translate(103.513 94.681)">
              <path id="Path_865" data-name="Path 865" d="M288.154,343.447,286,313.121l-31.383,7.265-1.672,24.359c-1.98.247-3.864.522-5.7.808l7.673,18.4,15,1.969,24-22.114C291.973,343.663,290.045,343.538,288.154,343.447Z" transform="translate(-247.245 -313.121)" fill="#fff"/>
              <g id="Group_13508" data-name="Group 13508" clip-path="url(#clip-path-3)">
                <path id="Path_866" data-name="Path 866" d="M251.834,331.13c.206,21.575,25.425,14.958,32.4-6.6l-.549-11.414L252.3,320.386Z" transform="translate(-244.926 -313.121)" fill="#263238"/>
              </g>
              <path id="Path_868" data-name="Path 868" d="M288.154,343.447,286,313.121l-31.383,7.265-1.672,24.359c-1.98.247-3.864.522-5.7.808l7.673,18.4,15,1.969,24-22.114C291.973,343.663,290.045,343.538,288.154,343.447Z" transform="translate(-247.245 -313.121)" fill="none" stroke="#263238" stroke-linecap="round" stroke-linejoin="round" stroke-width="1"/>
            </g>
            <g id="Group_13512" data-name="Group 13512" transform="translate(77.26)">
              <path id="Path_869" data-name="Path 869" d="M243.736,317.672s-11.464-19.844-13.162-30.31c-5.246-32.321,18.09-21.414,18.09-21.414s16.5-14.77,37.049-12.185,25.962,11.328,39.791,16.7c0,0-10.381,52.71-23.674,64.524S243.736,317.672,243.736,317.672Z" transform="translate(-229.806 -248.593)" fill="#263238" stroke="#263238" stroke-linecap="round" stroke-linejoin="round" stroke-width="1"/>
              <path id="Path_870" data-name="Path 870" d="M243.406,272.38s-5.17-12.553,7.938-22.153" transform="translate(-223.44 -250.227)" fill="none" stroke="#263238" stroke-linecap="round" stroke-linejoin="round" stroke-width="1"/>
              <path id="Path_871" data-name="Path 871" d="M258.052,260.647c15.343-6.782,22.179,4.56,39.3,7.542" transform="translate(-215.53 -246.036)" fill="none" stroke="#bfbfbf" stroke-miterlimit="10" stroke-width="1"/>
              <path id="Path_872" data-name="Path 872" d="M250.182,266.436a19.328,19.328,0,0,1,4.974-4.448" transform="translate(-219.507 -244.283)" fill="none" stroke="#bfbfbf" stroke-miterlimit="10" stroke-width="1"/>
              <path id="Path_873" data-name="Path 873" d="M260.64,269s6.637-6.377,19.807,1.907a34.33,34.33,0,0,0,13.15,5.183" transform="translate(-214.222 -241.925)" fill="none" stroke="#bfbfbf" stroke-miterlimit="10" stroke-width="1"/>
              <path id="Path_874" data-name="Path 874" d="M292.282,280.1c-19.1.492-38.808-8.122-38.808-8.122-17.789,10.727-15.149,28.18-15.149,28.18,4.066,41.7,9.562,52.8,29.045,52.8,19.358,0,35.32-21.017,36.586-51.1C296.586,302.2,292.282,280.1,292.282,280.1Z" transform="translate(-225.57 -239.236)" fill="#fff" stroke="#263238" stroke-linecap="round" stroke-linejoin="round" stroke-width="1"/>
              <g id="Group_13510" data-name="Group 13510" transform="translate(75.632 58.706)">
                <path id="Path_875" data-name="Path 875" d="M281.166,291.435a5.04,5.04,0,0,1,3.913-2.211c3.465,0,6.031,4.552,4.8,10.152-1.2,5.477-2.811,10.154-6.276,10.154-1.629,0-2.786-1-3.556-2.648" transform="translate(-280.046 -289.224)" fill="#fff" stroke="#263238" stroke-linecap="round" stroke-linejoin="round" stroke-width="1"/>
              </g>
              <path id="Path_876" data-name="Path 876" d="M259.438,311.124s2.33,3.194-2.136,5.591-8.036,2.347-9.177-.391,3.831-25.559,3.831-25.559" transform="translate(-220.633 -229.739)" fill="none" stroke="#263238" stroke-linecap="round" stroke-linejoin="round" stroke-width="1"/>
              <g id="Group_13511" data-name="Group 13511" transform="translate(9.37 62.012)">
                <path id="Path_877" data-name="Path 877" d="M257.226,294.054c-2.409-1.219-12.058-5.435-21.2.316l.587,8.852s3.372,1.852,11.11,1.852a31.093,31.093,0,0,0,7.542-.783" transform="translate(-236.03 -291.42)" fill="none" stroke="#263238" stroke-linecap="round" stroke-linejoin="round" stroke-width="1"/>
                <path id="Path_878" data-name="Path 878" d="M255.421,294.371l2.8,9.228s1.144,1.505,8.9,1.505,10.3-1.852,10.3-1.852l-.226-8.852S265.944,287.732,255.421,294.371Z" transform="translate(-226.23 -291.416)" fill="none" stroke="#263238" stroke-linecap="round" stroke-linejoin="round" stroke-width="1"/>
                <line id="Line_55" data-name="Line 55" x2="7.376" transform="translate(21.815 2.955)" fill="none" stroke="#263238" stroke-linecap="round" stroke-linejoin="round" stroke-width="1"/>
              </g>
              <path id="Path_879" data-name="Path 879" d="M251.563,315.618a20.274,20.274,0,0,0,12.27-.373,17.09,17.09,0,0,0,7.632-5.754" transform="translate(-218.809 -220.275)" fill="none" stroke="#263238" stroke-linecap="round" stroke-linejoin="round" stroke-width="1"/>
              <path id="Path_880" data-name="Path 880" d="M259.708,288.114c9.683-3.992,13.953.8,13.953.8" transform="translate(-214.693 -231.882)" fill="none" stroke="#263238" stroke-linecap="round" stroke-linejoin="round" stroke-width="1"/>
              <path id="Path_881" data-name="Path 881" d="M242.741,287.645a9.778,9.778,0,0,1,10.35,1.189" transform="translate(-223.268 -231.802)" fill="none" stroke="#263238" stroke-linecap="round" stroke-linejoin="round" stroke-width="1"/>
              <path id="Path_882" data-name="Path 882" d="M262.813,292.053c.9,0,1.531,1.435,1.531,3.261s-.75,3.261-1.629,3.261-1.516-1.5-1.516-3.261C261.231,293.537,261.916,292.053,262.813,292.053Z" transform="translate(-213.939 -229.088)" fill="#263238"/>
              <path id="Path_883" data-name="Path 883" d="M246.85,291.783c.881,0,1.516,1.435,1.516,3.259s-.75,3.261-1.63,3.261-1.516-1.5-1.516-3.261C245.27,293.282,245.97,291.783,246.85,291.783Z" transform="translate(-222.015 -229.225)" fill="#263238"/>
              <path id="Path_884" data-name="Path 884" d="M235.637,280.742a24.981,24.981,0,0,0,1.5,5.182" transform="translate(-226.858 -234.805)" fill="none" stroke="#bfbfbf" stroke-miterlimit="10" stroke-width="1"/>
              <path id="Path_885" data-name="Path 885" d="M247.563,267.739c-9.514-2.559-13.279,3.158-12.575,12.183" transform="translate(-227.228 -241.686)" fill="none" stroke="#bfbfbf" stroke-miterlimit="10" stroke-width="1"/>
            </g>
            <g id="Group_13514" data-name="Group 13514" transform="translate(100.1 116.067)">
              <path id="Path_886" data-name="Path 886" d="M252.538,333.566l11.6,20.86,27.836-21.968,8.554,1.2L282.515,365.5a2.454,2.454,0,0,1-3.435.851l-15.4-9.713-12.007,7.339a2.452,2.452,0,0,1-3.717-1.826l-2.982-27.174Z" transform="translate(-244.978 -324.734)" fill="#08a8f2"/>
              <g id="Group_13513" data-name="Group 13513" transform="translate(3.862 0)" clip-path="url(#clip-path-4)">
                <path id="Path_887" data-name="Path 887" d="M251.519,333.551l12.615,21L292.455,332.2l8.53,1.347-18.47,32.082a2.454,2.454,0,0,1-3.435.851l-15.4-9.713-12.007,7.339a2.452,2.452,0,0,1-3.717-1.826l-2.982-27.174Z" transform="translate(-247.874 -319.07)" opacity="0.3"/>
              </g>
              <path id="Path_889" data-name="Path 889" d="M252.538,333.566l11.6,20.86,27.836-21.968,8.554,1.2L282.515,365.5a2.454,2.454,0,0,1-3.435.851l-15.4-9.713-12.007,7.339a2.452,2.452,0,0,1-3.717-1.826l-2.982-27.174Z" transform="translate(-244.978 -324.734)" fill="none" stroke="#263238" stroke-linecap="round" stroke-linejoin="round" stroke-width="1"/>
            </g>
          </g>
          <g id="Group_13516" data-name="Group 13516" transform="translate(0 261.938)">
            <path id="Rectangle_252" data-name="Rectangle 252" d="M1.97,0H78.652a0,0,0,0,1,0,0V10.092a0,0,0,0,1,0,0H1.97A1.97,1.97,0,0,1,0,8.122V1.97A1.97,1.97,0,0,1,1.97,0Z" fill="#263238" stroke="#263238" stroke-linecap="round" stroke-linejoin="round" stroke-width="1"/>
            <path id="Path_890" data-name="Path 890" d="M250.759,434.318H185.625V424.226l65.271,4.3a2.06,2.06,0,0,1,1.925,2.056v1.67A2.063,2.063,0,0,1,250.759,434.318Z" transform="translate(-106.973 -424.226)" fill="#08a8f2" stroke="#263238" stroke-linecap="round" stroke-linejoin="round" stroke-width="1"/>
          </g>
          <path id="Path_891" data-name="Path 891" d="M269.9,296.221l16.386-5.528-1.943,2.454" transform="translate(-64.378 -229.775)" fill="none" stroke="#263238" stroke-linecap="round" stroke-linejoin="round" stroke-width="1"/>
        </g>
      </g>
    </g>
    <g id="Character_2" data-name="Character 2" transform="translate(366.339 368.046)">
      <g id="Group_13538" data-name="Group 13538">
        <g id="Group_13537" data-name="Group 13537">
          <path id="Path_892" data-name="Path 892" d="M340.839,327.662s-18.858-57.586,28.571-61.627,53.028,40.166,57.377,62.328c3.4,17.323,35.8,49.017,10.724,72.669-26.177,24.695-89.913,16.457-93.577-18.658S343.608,340.074,340.839,327.662Z" transform="translate(-216.139 -265.776)" fill="#263238" stroke="#263238" stroke-linecap="round" stroke-linejoin="round" stroke-width="1"/>
          <g id="Group_13520" data-name="Group 13520" transform="translate(153.139 71.054)">
            <path id="Path_893" data-name="Path 893" d="M385.4,312.975s-2.076,25.541,11.1,47.51c0,0-17.755,5.785-36.27.285h0a60.649,60.649,0,0,0-1.114-20.3l-.631-2.782,13.46-11.643Z" transform="translate(-358.488 -312.975)" fill="#fff"/>
            <g id="Group_13519" data-name="Group 13519" clip-path="url(#clip-path-5)">
              <path id="Path_894" data-name="Path 894" d="M354.721,333.4c2.446,13.746,4.7,16.74,16.343,14.289,8.632-1.819,15.993-14.768,16.409-24.174a127.187,127.187,0,0,1-.614-12.853L373.852,327.21Z" transform="translate(-360.392 -314.143)" fill="#263238"/>
            </g>
            <path id="Path_896" data-name="Path 896" d="M385.4,312.975s-2.076,25.541,11.1,47.51c0,0-17.755,5.785-36.27.285h0a60.649,60.649,0,0,0-1.114-20.3l-.631-2.782,13.46-11.643Z" transform="translate(-358.488 -312.975)" fill="none" stroke="#263238" stroke-linecap="round" stroke-linejoin="round" stroke-width="1"/>
          </g>
          <g id="Group_13523" data-name="Group 13523" transform="translate(0 196.187)">
            <path id="Path_897" data-name="Path 897" d="M298,412.095s-26.269-12.075-27.733-2.07,4.947,25.342,29,17.777l50.467,6.652s8.643-17.208-.6-26.587C349.142,407.868,304.674,414.783,298,412.095Z" transform="translate(-250.033 -391.065)" fill="#fff" stroke="#263238" stroke-linecap="round" stroke-linejoin="round" stroke-width="1"/>
            <g id="Group_13522" data-name="Group 13522">
              <path id="Path_898" data-name="Path 898" d="M263.717,417.233s-4.162,1.332-4.771,4.084-1.962,6.658-.361,6.67,3.535-5.48,3.535-5.48l4.047-1.051Z" transform="translate(-256.22 -385.417)" fill="#fff" stroke="#263238" stroke-linecap="round" stroke-linejoin="round" stroke-width="1"/>
              <g id="Group_13521" data-name="Group 13521" transform="translate(2.125)">
                <rect id="Rectangle_253" data-name="Rectangle 253" width="27.454" height="39.111" transform="translate(5.573 8.522) rotate(-5.98)" fill="#fff" stroke="#263238" stroke-linecap="round" stroke-linejoin="round" stroke-width="1"/>
                <rect id="Rectangle_254" data-name="Rectangle 254" width="4.1" height="39.111" transform="translate(1.495 8.949) rotate(-5.98)" fill="#08a8f2" stroke="#263238" stroke-linecap="round" stroke-linejoin="round" stroke-width="1"/>
                <path id="Path_899" data-name="Path 899" d="M276.926,396.131a5.952,5.952,0,0,0-5.293,6.532c.015.143.057.274.083.412l1.379-.145,1.46-.154a3.087,3.087,0,1,1,4.8,1.757,2.677,2.677,0,0,0,2.3,1.77,5.922,5.922,0,0,0-4.725-10.173Z" transform="translate(-251.387 -396.098)" fill="#fff" stroke="#263238" stroke-linecap="round" stroke-linejoin="round" stroke-width="1"/>
                <line id="Line_56" data-name="Line 56" y1="0.984" x2="9.397" transform="translate(10.72 15.603)" fill="none" stroke="#263238" stroke-linecap="round" stroke-linejoin="round" stroke-width="1"/>
                <line id="Line_57" data-name="Line 57" y1="1.913" x2="18.262" transform="translate(11.169 18.961)" fill="none" stroke="#263238" stroke-linecap="round" stroke-linejoin="round" stroke-width="1"/>
                <line id="Line_58" data-name="Line 58" y1="0.957" x2="9.131" transform="translate(11.618 24.204)" fill="none" stroke="#263238" stroke-linecap="round" stroke-linejoin="round" stroke-width="1"/>
                <line id="Line_59" data-name="Line 59" y1="1.597" x2="15.248" transform="translate(12.067 27.849)" fill="none" stroke="#263238" stroke-linecap="round" stroke-linejoin="round" stroke-width="1"/>
                <line id="Line_60" data-name="Line 60" y1="0.957" x2="9.131" transform="translate(12.516 32.777)" fill="none" stroke="#263238" stroke-linecap="round" stroke-linejoin="round" stroke-width="1"/>
                <line id="Line_61" data-name="Line 61" y1="2.099" x2="20.035" transform="translate(12.965 35.921)" fill="none" stroke="#263238" stroke-linecap="round" stroke-linejoin="round" stroke-width="1"/>
                <line id="Line_62" data-name="Line 62" y1="0.984" x2="9.397" transform="translate(13.414 41.322)" fill="none" stroke="#263238" stroke-linecap="round" stroke-linejoin="round" stroke-width="1"/>
                <path id="Path_900" data-name="Path 900" d="M273.57,396.482a5.953,5.953,0,0,0-5.295,6.533c.015.145.059.277.084.417l1.379-.144v-.006l1.46-.152a3.086,3.086,0,1,1,6.065-1.057A3.079,3.079,0,0,1,276,404.886a2.677,2.677,0,0,0,2.3,1.77,5.922,5.922,0,0,0-4.724-10.175Z" transform="translate(-253.084 -395.921)" fill="#fff" stroke="#263238" stroke-linecap="round" stroke-linejoin="round" stroke-width="1"/>
                <path id="Path_901" data-name="Path 901" d="M270.213,396.834a5.952,5.952,0,0,0-5.293,6.533c.015.141.057.272.081.411l1.38-.145,1.46-.154a3.086,3.086,0,1,1,4.8,1.758,2.676,2.676,0,0,0,2.3,1.769,5.922,5.922,0,0,0-4.725-10.173Z" transform="translate(-254.78 -395.743)" fill="#fff" stroke="#263238" stroke-linecap="round" stroke-linejoin="round" stroke-width="1"/>
                <path id="Path_902" data-name="Path 902" d="M266.856,397.186a5.951,5.951,0,0,0-5.293,6.532c.015.143.057.274.083.412l1.379-.144,1.46-.154a3.087,3.087,0,1,1,4.8,1.757,2.677,2.677,0,0,0,2.3,1.77,5.922,5.922,0,0,0-4.725-10.174Z" transform="translate(-256.477 -395.565)" fill="#fff" stroke="#263238" stroke-linecap="round" stroke-linejoin="round" stroke-width="1"/>
                <path id="Path_903" data-name="Path 903" d="M261.044,403.772a3.092,3.092,0,1,1,4.884,2.169,2.673,2.673,0,0,0,2.3,1.769,5.952,5.952,0,1,0-8.2.008l-.355-3.381,1.462-.152A3.086,3.086,0,0,1,261.044,403.772Z" transform="translate(-258.173 -395.388)" fill="#fff" stroke="#263238" stroke-linecap="round" stroke-linejoin="round" stroke-width="1"/>
              </g>
              <path id="Path_904" data-name="Path 904" d="M257.221,410.854a13.483,13.483,0,0,0,.894,1.642,7.219,7.219,0,0,0,1.076,6.133s.128,4.289,1.648,4.966,3.941,1.5,3.9.309-.759-4.813-3.487-5.611c0,0,3.146.626,2.791-1.129s-.941-4.266-2.869-4.989l-1.039-.456s2.488.456,2.29-1.435-.423-4.086-1.85-4.62a9.386,9.386,0,0,0-1.1-.324C257.358,404.841,256,408.162,257.221,410.854Z" transform="translate(-256.761 -391.452)" fill="#fff" stroke="#263238" stroke-linecap="round" stroke-linejoin="round" stroke-width="1"/>
            </g>
            <path id="Path_905" data-name="Path 905" d="M292.417,416.059s-2.93-6.5-7.742-9.884-6.6-9.982-8.557-8.379-.179,8.585,2.851,10.977-.357,7.742,7.131,14.337" transform="translate(-247.394 -395.365)" fill="#fff" stroke="#263238" stroke-linecap="round" stroke-linejoin="round" stroke-width="1"/>
          </g>
          <g id="Group_13525" data-name="Group 13525" transform="translate(86.679 117.906)">
            <path id="Path_906" data-name="Path 906" d="M449.525,462.064q-.994,6.142-2.123,12.751H344.162c-.166-1.385.813-4.17,1.746-9.017-11.5,3.9-31.568-2.153-31.568-2.153,2.5-6.579.768-23.289.768-23.289l11.712-2.484s4.862-50.913,8.566-65.5c3.929-15.475,25.429-32.372,97.731-27.383h0s33.363-.632,38.541,21.482C476.49,387.1,450.91,461.116,449.525,462.064Z" transform="translate(-314.34 -344.098)" fill="#08a8f2"/>
            <g id="Group_13524" data-name="Group 13524" clip-path="url(#clip-path-6)">
              <path id="Path_907" data-name="Path 907" d="M344.3,450.392c-7.994,2.71-20.112.617-26.766-.918,1.731-1.325,2.815-4.035,3.222-7.467,5.419-.843,10.839-9.454,14.407-48.594.843-9.183,2.65-14.949,4.968-18.833a54.545,54.545,0,0,0-.271,26.917c1.295,5.254,5.359,17.9,5.721,23.138A97.359,97.359,0,0,1,344.3,450.392Z" transform="translate(-312.728 -328.693)" opacity="0.2"/>
              <path id="Path_908" data-name="Path 908" d="M439.5,452.132q-.971,6.142-2.108,12.736H334.156c1.852-5.66,6.4-32.607-.015-48.986-.256-.662,22.175-10.086,37.2-6.232,63.678,16.334,41.745-36.3,59.93-45.87l-15.686,61.526-8.566,2.725c18.547,1.144,13.187,28.949,13.187,28.949C428.906,458.394,436.071,454.51,439.5,452.132Z" transform="translate(-304.334 -334.151)" opacity="0.2"/>
            </g>
            <path id="Path_910" data-name="Path 910" d="M449.525,462.064q-.994,6.142-2.123,12.751H344.162c-.166-1.385.813-4.17,1.746-9.017-11.5,3.9-31.568-2.153-31.568-2.153,2.5-6.579.768-23.289.768-23.289l11.712-2.484s4.862-50.913,8.566-65.5c3.929-15.475,25.429-32.372,97.731-27.383h0s33.363-.632,38.541,21.482C476.49,387.1,450.91,461.116,449.525,462.064Z" transform="translate(-314.34 -344.098)" fill="none" stroke="#263238" stroke-linecap="round" stroke-linejoin="round" stroke-width="1"/>
          </g>
          <g id="Group_13526" data-name="Group 13526" transform="translate(78.804 210.593)">
            <path id="Path_911" data-name="Path 911" d="M319.635,406.367s3.909,2.091,5.186,11.29-.686,17.119-5.8,16.992-5.993-2.129-4.963-4.018,3.282-4.444,1.579-12.31c-2.136-9.865-6.53-8.965-6.53-8.965S314.976,403.746,319.635,406.367Z" transform="translate(-309.109 -405.666)" fill="#08a8f2" stroke="#263238" stroke-linecap="round" stroke-linejoin="round" stroke-width="1"/>
            <path id="Path_912" data-name="Path 912" d="M325.008,426.3c-.406,3.432-1.49,6.142-3.222,7.467a4.2,4.2,0,0,1-2.755.888c-5.118-.12-6.007-2.123-4.968-4.019,1.024-1.882,3.282-4.441,1.581-12.314-2.138-9.86-6.535-8.959-6.535-8.959s5.873-5.614,10.524-2.994c0,0,3.914,2.093,5.194,11.291A35.079,35.079,0,0,1,325.008,426.3Z" transform="translate(-309.109 -405.667)" opacity="0.2"/>
          </g>
          <g id="Group_13527" data-name="Group 13527" transform="translate(147.468 100.383)">
            <path id="Path_913" data-name="Path 913" d="M394.933,332.458s-25.961,7.873-37.766,3.673l-2.446,15.758s11.479,10,48.28-2.294Z" transform="translate(-354.721 -332.458)" fill="#08a8f2" stroke="#263238" stroke-linecap="round" stroke-linejoin="round" stroke-width="1"/>
          </g>
          <g id="Group_13528" data-name="Group 13528" transform="translate(86.285 189.199)">
            <path id="Path_914" data-name="Path 914" d="M323.247,408.952c3.086,10.049,5.845,18.114,3.118,18.952s-4.969-7.387-8.054-17.436-5.846-18.116-3.118-18.953S320.163,398.9,323.247,408.952Z" transform="translate(-314.079 -391.456)" fill="#08a8f2" stroke="#263238" stroke-linecap="round" stroke-linejoin="round" stroke-width="1"/>
            <path id="Path_915" data-name="Path 915" d="M317.309,405.978l4.941-1.517c-.724-2.372-1.4-4.616-2.056-6.642l-4.911,1.508C315.881,401.37,316.578,403.607,317.309,405.978Z" transform="translate(-313.47 -388.24)" fill="#263238"/>
            <path id="Path_916" data-name="Path 916" d="M316.329,395.507s2.309-4.625,4.432-1.361,2.558,13.193,4.054,13.2" transform="translate(-312.941 -390.686)" fill="none" stroke="#263238" stroke-linecap="round" stroke-linejoin="round" stroke-width="1"/>
          </g>
          <path id="Path_917" data-name="Path 917" d="M339.372,361.99c-1.882,5.766-4.486,11.983-6.217,18.953a54.545,54.545,0,0,0-.271,26.917c1.295,5.254,5.359,17.9,5.721,23.138a97.358,97.358,0,0,1-1.28,25.757c-.933,4.847-1.912,7.632-1.746,9.017" transform="translate(-219.078 -217.149)" fill="none" stroke="#263238" stroke-linecap="round" stroke-linejoin="round" stroke-width="1"/>
          <path id="Path_918" data-name="Path 918" d="M410.7,408.277s-42,5.737-56.156,6.062c-2.177.05-8.676-.756-8.676-.756L335.8,406.852s-7.76-1.15-11.564-.277L319.9,412.24s-5.41,1.743-2.32,5.844a5.243,5.243,0,0,0,1.426,5.526s.238,3.565,2.615,4.99c0,0,.476,3.328,3.091,4.28s19.016-1.665,24.008-3.091,53.481,6.18,72.5,5.7C421.217,435.494,437.5,416.479,410.7,408.277Z" transform="translate(-226.505 -194.781)" fill="#fff" stroke="#263238" stroke-linecap="round" stroke-linejoin="round" stroke-width="1"/>
          <path id="Path_919" data-name="Path 919" d="M399.212,311.712s-11.086,4.327-17.646-7.625c-2.844-5.18-8.6-15.984-8.6-15.984-1.638,4.235.372,10.684.372,10.684-3.751-1.647-11.015-2.035-11.015-2.035-2.576-4.313-3.327-14.089-3.327-14.089-3.568,5.96-2.537,14.508-2.537,14.508-7.62,1.057-12.329,3.652-15.8,6.691.945,3.84,1.287,9.827.972,22.268-.412,16.255,7.4,20.705,15.006,26.781s28.472,9.224,35.666-22.545c0,0,15.086-5.611,7.7-17.4C399.757,312.567,399.491,312.147,399.212,311.712Z" transform="translate(-214.36 -257.242)" fill="#fff" stroke="#263238" stroke-linecap="round" stroke-linejoin="round" stroke-width="1"/>
          <g id="Group_13529" data-name="Group 13529" transform="translate(126.884 5.022)">
            <path id="Path_920" data-name="Path 920" d="M371.354,289.008c4.743,9.722,13,17.208,23.584,19.962" transform="translate(-325.73 -259.057)" fill="none" stroke="#bfbfbf" stroke-miterlimit="10" stroke-width="1"/>
            <path id="Path_921" data-name="Path 921" d="M368.723,281.012a38.869,38.869,0,0,0,1.453,5.818" transform="translate(-327.06 -263.098)" fill="none" stroke="#bfbfbf" stroke-miterlimit="10" stroke-width="1"/>
            <path id="Path_922" data-name="Path 922" d="M373.718,281.493s8.548,16.317,21.916,16.707" transform="translate(-324.535 -262.855)" fill="none" stroke="#bfbfbf" stroke-miterlimit="10" stroke-width="1"/>
            <path id="Path_923" data-name="Path 923" d="M391.133,309.063s21.747,35.219,21.747,55.716" transform="translate(-315.733 -248.921)" fill="none" stroke="#bfbfbf" stroke-miterlimit="10" stroke-width="1"/>
            <path id="Path_924" data-name="Path 924" d="M387.308,315.3s5.383,19.647,14.027,29.5" transform="translate(-317.667 -245.769)" fill="none" stroke="#bfbfbf" stroke-miterlimit="10" stroke-width="1"/>
            <path id="Path_925" data-name="Path 925" d="M342.33,281.372a59.189,59.189,0,0,0-1.283,8.808" transform="translate(-341.047 -262.916)" fill="none" stroke="#bfbfbf" stroke-miterlimit="10" stroke-width="1"/>
            <path id="Path_926" data-name="Path 926" d="M359.345,269.112s-10.121,1.9-16.736,13.835" transform="translate(-340.258 -269.112)" fill="none" stroke="#bfbfbf" stroke-miterlimit="10" stroke-width="1"/>
            <path id="Path_927" data-name="Path 927" d="M345.214,329.7s-.333,15.8,7.729,24.675" transform="translate(-338.942 -238.488)" fill="none" stroke="#bfbfbf" stroke-miterlimit="10" stroke-width="1"/>
          </g>
          <g id="Group_13530" data-name="Group 13530" transform="translate(129.185 47.368)">
            <path id="Path_928" data-name="Path 928" d="M354.721,297.733c10.967-2.15,15.783,3.438,15.783,3.438" transform="translate(-336.438 -297.241)" fill="none" stroke="#263238" stroke-linecap="round" stroke-linejoin="round" stroke-width="1"/>
            <path id="Path_929" data-name="Path 929" d="M342.576,301.888a12.467,12.467,0,0,1,9.291-3.7" transform="translate(-342.576 -296.767)" fill="none" stroke="#263238" stroke-linecap="round" stroke-linejoin="round" stroke-width="1"/>
            <path id="Path_930" data-name="Path 930" d="M362.709,324.349c3.381-1.937,5.267-6.956,5.267-6.956l-.706.379a40.825,40.825,0,0,1-14.2,4.54h0C356.247,325.652,360.462,325.635,362.709,324.349Z" transform="translate(-337.27 -287.056)" fill="none" stroke="#263238" stroke-linecap="round" stroke-linejoin="round" stroke-width="1"/>
            <path id="Path_931" data-name="Path 931" d="M352.516,321.32c-1.429-.176-5.513-2.111-5.853-4.871-.1-.829.5-1.587,1.39-2.242a12.665,12.665,0,0,0,5.347-11.051c-.023-.31-.036-.489-.036-.489" transform="translate(-340.516 -294.499)" fill="none" stroke="#263238" stroke-linecap="round" stroke-linejoin="round" stroke-width="1"/>
            <path id="Path_932" data-name="Path 932" d="M360.356,300.5c1.04-.128,2.108,1.6,2.383,3.842s-.342,4.165-1.382,4.292-2.106-1.588-2.382-3.828S359.315,300.625,360.356,300.5Z" transform="translate(-334.321 -295.599)" fill="#263238"/>
            <path id="Path_933" data-name="Path 933" d="M349.108,306.071c.271,2.2-.336,4.089-1.353,4.214s-2.064-1.558-2.335-3.761.336-4.087,1.353-4.214S348.837,303.868,349.108,306.071Z" transform="translate(-341.171 -294.682)" fill="#263238"/>
            <path id="Path_934" data-name="Path 934" d="M370.425,303.8s-1.409-3.98.194-6.082" transform="translate(-328.79 -297.002)" fill="none" stroke="#263238" stroke-linecap="round" stroke-linejoin="round" stroke-width="1"/>
          </g>
          <g id="Group_13533" data-name="Group 13533" transform="translate(145.049 104.057)">
            <path id="Path_935" data-name="Path 935" d="M415.041,452.139c-3.429,2.374-10.6,6.261-19.3,4.84,0,0,5.347-27.8-13.193-28.947l8.558-2.728L406.8,363.78" transform="translate(-338.237 -320.301)" fill="none" stroke="#263238" stroke-linecap="round" stroke-linejoin="round" stroke-width="1"/>
            <path id="Path_936" data-name="Path 936" d="M391.315,404.65s9.928,2.615,12.721,11.167" transform="translate(-333.807 -299.645)" fill="none" stroke="#263238" stroke-linecap="round" stroke-linejoin="round" stroke-width="1"/>
            <g id="Group_13531" data-name="Group 13531" transform="translate(4.164)">
              <path id="Path_937" data-name="Path 937" d="M364.385,340.886a67.2,67.2,0,0,0,27.392-5.988" transform="translate(-351.582 -334.898)" fill="none" stroke="#263238" stroke-linecap="round" stroke-linejoin="round" stroke-width="1"/>
              <path id="Path_938" data-name="Path 938" d="M355.88,337.9a41.365,41.365,0,0,0,6.473,1.143" transform="translate(-355.88 -333.381)" fill="none" stroke="#263238" stroke-linecap="round" stroke-linejoin="round" stroke-width="1"/>
            </g>
            <g id="Group_13532" data-name="Group 13532" transform="translate(0 18.839)">
              <path id="Path_939" data-name="Path 939" d="M383.989,350.734q4.017-1.429,8.438-3.322" transform="translate(-337.51 -347.412)" fill="none" stroke="#263238" stroke-linecap="round" stroke-linejoin="round" stroke-width="1"/>
              <path id="Path_940" data-name="Path 940" d="M353.114,349.771s10.094,9.585,36.816,2.743" transform="translate(-353.114 -346.22)" fill="none" stroke="#263238" stroke-linecap="round" stroke-linejoin="round" stroke-width="1"/>
            </g>
            <path id="Path_941" data-name="Path 941" d="M358.909,381.426s1.587,23.146,18.735,31.764" transform="translate(-350.185 -311.383)" fill="none" stroke="#263238" stroke-linecap="round" stroke-linejoin="round" stroke-width="1"/>
          </g>
          <g id="Group_13536" data-name="Group 13536" transform="translate(183.771 209.083)">
            <path id="Path_942" data-name="Path 942" d="M378.836,409.451s3.384-7.441,13.458-3.768c0,0,9.537,3.28,12.388,13.085s-.712,18.541-7.666,18.9-8.221-.179-7.051-2.318a17.491,17.491,0,0,0,.543-15.224C386.182,409.776,378.836,409.451,378.836,409.451Z" transform="translate(-378.836 -404.664)" fill="#08a8f2"/>
            <g id="Group_13535" data-name="Group 13535" clip-path="url(#clip-path-7)">
              <g id="Group_13534" data-name="Group 13534" opacity="0.2">
                <path id="Path_943" data-name="Path 943" d="M378.836,409.451s3.384-7.441,13.458-3.768c0,0,9.537,3.28,12.388,13.085s-.712,18.541-7.666,18.9-8.221-.179-7.051-2.318a17.491,17.491,0,0,0,.543-15.224C386.182,409.776,378.836,409.451,378.836,409.451Z" transform="translate(-378.836 -404.664)"/>
              </g>
            </g>
            <path id="Path_945" data-name="Path 945" d="M378.836,409.451s3.384-7.441,13.458-3.768c0,0,9.537,3.28,12.388,13.085s-.712,18.541-7.666,18.9-8.221-.179-7.051-2.318a17.491,17.491,0,0,0,.543-15.224C386.182,409.776,378.836,409.451,378.836,409.451Z" transform="translate(-378.836 -404.664)" fill="none" stroke="#263238" stroke-linecap="round" stroke-linejoin="round" stroke-width="1"/>
          </g>
        </g>
      </g>
    </g>
    <g id="Desk" transform="translate(37.906 457.812)">
      <g id="Group_13550" data-name="Group 13550">
        <g id="Group_13542" data-name="Group 13542" transform="translate(0 8.84)">
          <g id="Group_13539" data-name="Group 13539" transform="translate(0 53.979)">
            <path id="Path_946" data-name="Path 946" d="M89.554,397.808S84.377,353.53,38.592,371.37c0,0,38.954-.289,45.543,33.072l6.059-.647Z" transform="translate(-38.592 -367.134)" fill="#92e3a9"/>
            <path id="Path_947" data-name="Path 947" d="M89.554,397.808S84.377,353.53,38.592,371.37c0,0,38.954-.289,45.543,33.072l6.059-.647Z" transform="translate(-38.592 -367.134)" opacity="0.1"/>
          </g>
          <g id="Group_13541" data-name="Group 13541" transform="translate(16.16)">
            <g id="Group_13540" data-name="Group 13540" transform="translate(22.841)">
              <path id="Path_948" data-name="Path 948" d="M77.082,415.184S73.121,367.97,64.5,331.277c0,0,26.344,27.868,20.323,80.34Z" transform="translate(-64.5 -331.277)" fill="#92e3a9"/>
              <path id="Path_949" data-name="Path 949" d="M77.082,415.184S73.121,367.97,64.5,331.277c0,0,26.344,27.868,20.323,80.34Z" transform="translate(-64.5 -331.277)" opacity="0.1"/>
            </g>
            <path id="Path_950" data-name="Path 950" d="M82.2,437.106S74.6,372.073,49.327,349.742c0,0,45.2,11.242,38.505,80.312Z" transform="translate(-49.327 -321.945)" fill="#92e3a9"/>
            <path id="Path_951" data-name="Path 951" d="M78.247,434.662s11.074-64.532,37.51-85.475c0,0-45.742,8.8-42.759,78.129Z" transform="translate(-37.434 -322.225)" fill="#92e3a9"/>
          </g>
        </g>
        <g id="Group_13545" data-name="Group 13545" transform="translate(26.73 100.166)">
          <path id="Path_952" data-name="Path 952" d="M109.79,391.943H56.348v9.284h1.779v32.768a16.639,16.639,0,0,0,16.639,16.639H91.373a16.64,16.64,0,0,0,16.639-16.639V401.227h1.778Z" transform="translate(-56.348 -391.943)" fill="#fff" stroke="#263238" stroke-miterlimit="10" stroke-width="1"/>
          <g id="Group_13544" data-name="Group 13544" transform="translate(9.022 8.846)">
            <g id="Group_13543" data-name="Group 13543">
              <path id="Path_953" data-name="Path 953" d="M80.846,397.819h7.118" transform="translate(-52.989 -397.819)" fill="#fff" stroke="#263238" stroke-miterlimit="10" stroke-width="1"/>
              <path id="Path_954" data-name="Path 954" d="M62.341,397.819H82.962" transform="translate(-62.341 -397.819)" fill="#fff" stroke="#263238" stroke-miterlimit="10" stroke-width="1"/>
            </g>
          </g>
        </g>
        <g id="Group_13549" data-name="Group 13549" transform="translate(73.245)">
          <g id="Group_13548" data-name="Group 13548" transform="translate(0)">
            <path id="Path_955" data-name="Path 955" d="M224.312,443.376l-13.7-111.555a7.464,7.464,0,0,0-7.2-6.416H187.69l18.149,124.387h12.846A5.556,5.556,0,0,0,224.312,443.376Z" transform="translate(-36.482 -325.405)" fill="#92e3a9" stroke="#263238" stroke-linecap="round" stroke-linejoin="round" stroke-width="1"/>
            <g id="Group_13547" data-name="Group 13547">
              <path id="Path_956" data-name="Path 956" d="M266.051,449.792H108.2a7.464,7.464,0,0,1-7.2-6.416L87.3,331.821a5.556,5.556,0,0,1,5.627-6.416H250.779a7.464,7.464,0,0,1,7.2,6.416l13.7,111.555A5.557,5.557,0,0,1,266.051,449.792Z" transform="translate(-87.247 -325.405)" fill="#263238"/>
              <g id="Group_13546" data-name="Group 13546" clip-path="url(#clip-path-8)">
                <path id="Path_957" data-name="Path 957" d="M266.051,449.792H108.2a7.464,7.464,0,0,1-7.2-6.416L87.3,331.821a5.556,5.556,0,0,1,5.627-6.416H250.779a7.464,7.464,0,0,1,7.2,6.416l13.7,111.555A5.557,5.557,0,0,1,266.051,449.792Z" transform="translate(-87.247 -325.405)" fill="#fff" opacity="0.1"/>
              </g>
              <path id="Path_959" data-name="Path 959" d="M266.051,449.792H108.2a7.464,7.464,0,0,1-7.2-6.416L87.3,331.821a5.556,5.556,0,0,1,5.627-6.416H250.779a7.464,7.464,0,0,1,7.2,6.416l13.7,111.555A5.557,5.557,0,0,1,266.051,449.792Z" transform="translate(-87.247 -325.405)" fill="none" stroke="#263238" stroke-linecap="round" stroke-linejoin="round" stroke-width="1"/>
            </g>
          </g>
          <path id="Path_960" data-name="Path 960" d="M172.676,450.072l6.3-71.85a2.953,2.953,0,0,0-2.943-3.211H136.185a2.954,2.954,0,0,0-2.943,2.695l-6.866,78.273a2.955,2.955,0,0,0,2.943,3.213h78.942a2.955,2.955,0,0,0,2.954-2.954h0a2.955,2.955,0,0,0-2.954-2.955H175.619A2.954,2.954,0,0,1,172.676,450.072Z" transform="translate(-67.476 -300.334)" fill="#263238" stroke="#263238" stroke-linecap="round" stroke-linejoin="round" stroke-width="1"/>
          <path id="Path_961" data-name="Path 961" d="M197.827,456.237a2.955,2.955,0,0,0-2.954-2.955H162.232a2.954,2.954,0,0,1-2.943-3.211l6.3-71.85a2.942,2.942,0,1,0-5.862-.516l-6.866,78.273a2.954,2.954,0,0,0,2.943,3.213h39.067A2.955,2.955,0,0,0,197.827,456.237Z" transform="translate(-54.089 -300.334)" fill="#08a8f2" stroke="#263238" stroke-linecap="round" stroke-linejoin="round" stroke-width="1"/>
        </g>
        <line id="Line_63" data-name="Line 63" x2="564.525" transform="translate(35.991 158.857)" fill="none" stroke="#263238" stroke-linecap="round" stroke-linejoin="round" stroke-width="1"/>
      </g>
    </g>
    <g id="Code" transform="translate(462.793 300.576)">
      <g id="Group_13552" data-name="Group 13552" transform="translate(101.21 42.713)">
        <g id="Group_13551" data-name="Group 13551">
          <path id="Path_962" data-name="Path 962" d="M424.721,249.33h-29.68a6.977,6.977,0,0,0-6.976,6.976v14.44a6.977,6.977,0,0,0,6.976,6.978H402.8l2.266,13.323,11.9-13.323h7.757a6.977,6.977,0,0,0,6.976-6.978v-14.44A6.977,6.977,0,0,0,424.721,249.33Z" transform="translate(-388.065 -249.33)" fill="#fff" stroke="#263238" stroke-linecap="round" stroke-linejoin="round" stroke-width="1"/>
        </g>
      </g>
      <g id="Group_13554" data-name="Group 13554" transform="translate(55.716)">
        <g id="Group_13553" data-name="Group 13553">
          <path id="Path_963" data-name="Path 963" d="M394.5,220.957H364.821a6.975,6.975,0,0,0-6.976,6.976v14.44a6.976,6.976,0,0,0,6.976,6.976h7.757l5.879,13.323,8.286-13.323H394.5a6.977,6.977,0,0,0,6.978-6.976v-14.44A6.976,6.976,0,0,0,394.5,220.957Z" transform="translate(-357.845 -220.957)" fill="#fff" stroke="#263238" stroke-linecap="round" stroke-linejoin="round" stroke-width="1"/>
        </g>
      </g>
      <g id="Group_13558" data-name="Group 13558" transform="translate(0 8.075)">
        <g id="Group_13555" data-name="Group 13555" transform="translate(0 6.913)">
          <path id="Path_964" data-name="Path 964" d="M355.452,230.913H327.423a6.59,6.59,0,0,0-6.589,6.589V251.14a6.589,6.589,0,0,0,6.589,6.588h7.325l7.644,12.582,5.733-12.582h7.327a6.589,6.589,0,0,0,6.589-6.588V237.5A6.59,6.59,0,0,0,355.452,230.913Z" transform="translate(-320.834 -230.913)" fill="#fff" stroke="#263238" stroke-linecap="round" stroke-linejoin="round" stroke-width="1"/>
        </g>
        <g id="Group_13556" data-name="Group 13556" transform="translate(10.884 13.972)">
          <path id="Path_965" data-name="Path 965" d="M333.952,238.727v1.642c0,2.022-.977,3.124-2.961,3.124h-.941v4.748h-1.986V235.6h2.926C332.975,235.6,333.952,236.7,333.952,238.727Zm-3.9-1.319v4.28h.941c.632,0,.973-.291.973-1.194V238.6c0-.9-.34-1.192-.973-1.192Z" transform="translate(-328.064 -235.602)" fill="#263238"/>
          <path id="Path_966" data-name="Path 966" d="M334.634,248.241h-1.986V235.6h1.986v5.416h2.258V235.6h2.022v12.639h-2.022v-5.416h-2.258Z" transform="translate(-325.747 -235.602)" fill="#263238"/>
          <path id="Path_967" data-name="Path 967" d="M343.659,238.727v1.642c0,2.022-.974,3.124-2.961,3.124h-.938v4.748h-1.989V235.6H340.7C342.685,235.6,343.659,236.7,343.659,238.727Zm-3.9-1.319v4.28h.938c.632,0,.975-.291.975-1.194V238.6c0-.9-.343-1.192-.975-1.192Z" transform="translate(-323.158 -235.602)" fill="#263238"/>
        </g>
        <g id="Group_13557" data-name="Group 13557" transform="translate(67.356)">
          <path id="Path_968" data-name="Path 968" d="M371.5,234.391v1.678c0,2.022-1.012,3.178-2.961,3.178s-2.961-1.156-2.961-3.178V229.5c0-2.022,1.01-3.176,2.961-3.176s2.961,1.155,2.961,3.176v1.228h-1.877v-1.355c0-.9-.4-1.245-1.03-1.245s-1.03.343-1.03,1.245V236.2c0,.9.4,1.228,1.03,1.228s1.03-.325,1.03-1.228v-1.8Z" transform="translate(-365.577 -226.321)" fill="#263238"/>
          <path id="Path_969" data-name="Path 969" d="M373.965,230.965h2.418v1.409h-2.418v2.472h-1.409v-2.472h-2.419v-1.409h2.419v-2.437h1.409Z" transform="translate(-363.272 -225.206)" fill="#263238"/>
          <path id="Path_970" data-name="Path 970" d="M378.717,230.965h2.418v1.409h-2.418v2.472h-1.409v-2.472h-2.419v-1.409h2.419v-2.437h1.409Z" transform="translate(-360.871 -225.206)" fill="#263238"/>
        </g>
      </g>
      <g id="Group_13559" data-name="Group 13559" transform="translate(109.11 48.697)">
        <path id="Path_971" data-name="Path 971" d="M393.313,261.32v-1.925l8.043-2.96v1.948l-5.526,1.975,5.526,1.974v1.949Z" transform="translate(-393.313 -251.723)" fill="#263238"/>
        <path id="Path_972" data-name="Path 972" d="M406.2,253.3h2.344l-6.81,17.268h-2.344Z" transform="translate(-390.24 -253.305)" fill="#263238"/>
        <path id="Path_973" data-name="Path 973" d="M406.213,264.281v-1.949l5.526-1.974-5.526-1.975v-1.948l8.043,2.96v1.925Z" transform="translate(-386.793 -251.723)" fill="#263238"/>
      </g>
    </g>
  </g>
</svg>
