<svg xmlns="http://www.w3.org/2000/svg" xmlns:xlink="http://www.w3.org/1999/xlink" width="679.641" height="585.807" viewBox="0 0 679.641 585.807">
  <defs>
    <linearGradient id="linear-gradient" x1="0.141" y1="-0.506" x2="0.5" y2="1" gradientUnits="objectBoundingBox">
      <stop offset="0" stop-color="#08a8f2"/>
      <stop offset="0.481" stop-color="#0f3b84"/>
      <stop offset="1" stop-color="#10337c"/>
    </linearGradient>
    <linearGradient id="linear-gradient-2" x1="0.5" x2="0.5" y2="1" gradientUnits="objectBoundingBox">
      <stop offset="0" stop-color="#08a8f2"/>
      <stop offset="1" stop-color="#10337c"/>
    </linearGradient>
    <linearGradient id="linear-gradient-3" x1="0.252" y1="-0.42" xlink:href="#linear-gradient-2"/>
    <linearGradient id="linear-gradient-4" x1="0.229" y1="-0.7" x2="0.5" y2="1" gradientUnits="objectBoundingBox">
      <stop offset="0" stop-color="#10337c"/>
      <stop offset="1" stop-color="#08a8f2"/>
    </linearGradient>
  </defs>
  <g id="Group_13855" data-name="Group 13855" transform="translate(-1114.036 -147.96)">
    <g id="Group_13701" data-name="Group 13701" transform="translate(1114.036 234.485)">
      <g id="Group_13568" data-name="Group 13568" transform="translate(569.458 321.656)">
        <rect id="Rectangle_263" data-name="Rectangle 263" width="48.64" height="48.64" transform="translate(25.439 21.326)" fill="#08a8f2"/>
        <rect id="Rectangle_264" data-name="Rectangle 264" width="59.014" height="34.077" transform="translate(20.252 28.349)" fill="#08a8f2"/>
        <rect id="Rectangle_265" data-name="Rectangle 265" width="25.508" height="15.693" transform="translate(37.004 0)" fill="#08a8f2"/>
        <rect id="Rectangle_266" data-name="Rectangle 266" width="32.772" height="8.399" transform="translate(33.373 3.303)" fill="#08a8f2"/>
        <g id="Group_13566" data-name="Group 13566" transform="translate(0.063 3.303)">
          <rect id="Rectangle_267" data-name="Rectangle 267" width="6.583" height="6.583" transform="translate(79.077 18.023)" fill="#08a8f2"/>
          <rect id="Rectangle_268" data-name="Rectangle 268" width="5.307" height="18.023" transform="translate(85.861 0)" fill="#08a8f2"/>
          <rect id="Rectangle_269" data-name="Rectangle 269" width="6.712" height="6.712" transform="translate(78.948 38.07)" fill="#08a8f2"/>
          <rect id="Rectangle_270" data-name="Rectangle 270" width="6.941" height="6.94" transform="translate(85.66 31.13)" fill="#08a8f2"/>
          <rect id="Rectangle_271" data-name="Rectangle 271" width="6.791" height="9.815" transform="translate(92.601 21.315)" fill="#08a8f2"/>
          <rect id="Rectangle_272" data-name="Rectangle 272" width="6.583" height="6.583" transform="translate(20.314 24.606) rotate(180)" fill="#08a8f2"/>
          <rect id="Rectangle_273" data-name="Rectangle 273" width="5.307" height="18.023" transform="translate(13.531 18.023) rotate(180)" fill="#08a8f2"/>
          <rect id="Rectangle_274" data-name="Rectangle 274" width="6.712" height="6.712" transform="translate(20.443 44.782) rotate(180)" fill="#08a8f2"/>
          <rect id="Rectangle_275" data-name="Rectangle 275" width="6.941" height="6.94" transform="translate(13.731 38.07) rotate(180)" fill="#08a8f2"/>
          <rect id="Rectangle_276" data-name="Rectangle 276" width="6.791" height="9.815" transform="translate(6.791 31.13) rotate(180)" fill="#08a8f2"/>
        </g>
        <g id="Group_13567" data-name="Group 13567" transform="translate(0 51.97)">
          <rect id="Rectangle_277" data-name="Rectangle 277" width="6.583" height="6.583" transform="translate(25.621 24.301) rotate(180)" fill="#08a8f2"/>
          <rect id="Rectangle_278" data-name="Rectangle 278" width="5.307" height="18.023" transform="translate(18.838 42.324) rotate(180)" fill="#08a8f2"/>
          <rect id="Rectangle_279" data-name="Rectangle 279" width="6.712" height="6.712" transform="translate(20.443 6.712) rotate(180)" fill="#08a8f2"/>
          <rect id="Rectangle_280" data-name="Rectangle 280" width="6.94" height="6.94" transform="translate(13.731 13.653) rotate(180)" fill="#08a8f2"/>
          <rect id="Rectangle_281" data-name="Rectangle 281" width="6.791" height="9.815" transform="translate(6.791 23.467) rotate(180)" fill="#08a8f2"/>
          <rect id="Rectangle_282" data-name="Rectangle 282" width="6.583" height="6.583" transform="translate(74.016 17.717)" fill="#08a8f2"/>
          <rect id="Rectangle_283" data-name="Rectangle 283" width="5.307" height="18.023" transform="translate(80.799 24.301)" fill="#08a8f2"/>
          <rect id="Rectangle_284" data-name="Rectangle 284" width="6.712" height="6.712" transform="translate(78.948)" fill="#08a8f2"/>
          <rect id="Rectangle_285" data-name="Rectangle 285" width="6.94" height="6.94" transform="translate(85.66 6.712)" fill="#08a8f2"/>
          <rect id="Rectangle_286" data-name="Rectangle 286" width="6.791" height="9.815" transform="translate(92.726 13.653)" fill="#08a8f2"/>
        </g>
      </g>
      <g id="Group_13574" data-name="Group 13574" transform="translate(290.415)">
        <rect id="Rectangle_311" data-name="Rectangle 311" width="30.554" height="30.554" transform="translate(15.979 13.396)" fill="#08a8f2"/>
        <rect id="Rectangle_312" data-name="Rectangle 312" width="37.07" height="21.406" transform="translate(12.721 17.808)" fill="#08a8f2"/>
        <rect id="Rectangle_313" data-name="Rectangle 313" width="16.023" height="9.858" transform="translate(23.245)" fill="#08a8f2"/>
        <rect id="Rectangle_314" data-name="Rectangle 314" width="20.586" height="5.276" transform="translate(20.963 2.075)" fill="#08a8f2"/>
        <g id="Group_13572" data-name="Group 13572" transform="translate(0.039 2.075)">
          <rect id="Rectangle_315" data-name="Rectangle 315" width="4.135" height="4.135" transform="translate(49.673 11.321)" fill="#08a8f2"/>
          <rect id="Rectangle_316" data-name="Rectangle 316" width="3.334" height="11.321" transform="translate(53.934)" fill="#08a8f2"/>
          <rect id="Rectangle_317" data-name="Rectangle 317" width="4.216" height="4.216" transform="translate(49.592 23.914)" fill="#08a8f2"/>
          <rect id="Rectangle_318" data-name="Rectangle 318" width="4.36" height="4.36" transform="translate(53.808 19.554)" fill="#08a8f2"/>
          <rect id="Rectangle_319" data-name="Rectangle 319" width="4.266" height="6.165" transform="translate(58.168 13.389)" fill="#08a8f2"/>
          <rect id="Rectangle_320" data-name="Rectangle 320" width="4.135" height="4.135" transform="translate(12.761 15.457) rotate(180)" fill="#08a8f2"/>
          <rect id="Rectangle_321" data-name="Rectangle 321" width="3.334" height="11.321" transform="translate(8.5 11.321) rotate(180)" fill="#08a8f2"/>
          <rect id="Rectangle_322" data-name="Rectangle 322" width="4.216" height="4.216" transform="translate(12.842 28.13) rotate(180)" fill="#08a8f2"/>
          <rect id="Rectangle_323" data-name="Rectangle 323" width="4.36" height="4.36" transform="translate(8.625 23.914) rotate(180)" fill="#08a8f2"/>
          <rect id="Rectangle_324" data-name="Rectangle 324" width="4.265" height="6.165" transform="translate(4.265 19.554) rotate(180)" fill="#08a8f2"/>
        </g>
        <g id="Group_13573" data-name="Group 13573" transform="translate(0 32.645)">
          <rect id="Rectangle_325" data-name="Rectangle 325" width="4.135" height="4.135" transform="translate(16.094 15.265) rotate(180)" fill="#08a8f2"/>
          <rect id="Rectangle_326" data-name="Rectangle 326" width="3.334" height="11.321" transform="translate(11.833 26.586) rotate(180)" fill="#08a8f2"/>
          <rect id="Rectangle_327" data-name="Rectangle 327" width="4.216" height="4.216" transform="translate(12.842 4.216) rotate(180)" fill="#08a8f2"/>
          <rect id="Rectangle_328" data-name="Rectangle 328" width="4.36" height="4.36" transform="translate(8.625 8.576) rotate(180)" fill="#08a8f2"/>
          <rect id="Rectangle_329" data-name="Rectangle 329" width="4.265" height="6.165" transform="translate(4.265 14.741) rotate(180)" fill="#08a8f2"/>
          <rect id="Rectangle_330" data-name="Rectangle 330" width="4.135" height="4.135" transform="translate(46.494 11.129)" fill="#08a8f2"/>
          <rect id="Rectangle_331" data-name="Rectangle 331" width="3.334" height="11.321" transform="translate(50.755 15.265)" fill="#08a8f2"/>
          <rect id="Rectangle_332" data-name="Rectangle 332" width="4.216" height="4.216" transform="translate(49.592 0)" fill="#08a8f2"/>
          <rect id="Rectangle_333" data-name="Rectangle 333" width="4.36" height="4.36" transform="translate(53.808 4.216)" fill="#08a8f2"/>
          <rect id="Rectangle_334" data-name="Rectangle 334" width="4.265" height="6.165" transform="translate(58.247 8.576)" fill="#08a8f2"/>
        </g>
      </g>
      <g id="Group_13577" data-name="Group 13577" transform="translate(24.239 18.486)">
        <rect id="Rectangle_335" data-name="Rectangle 335" width="18.958" height="18.958" transform="translate(9.915 8.312)" fill="#08a8f2"/>
        <rect id="Rectangle_336" data-name="Rectangle 336" width="23.001" height="13.282" transform="translate(7.893 11.049)" fill="#08a8f2"/>
        <rect id="Rectangle_337" data-name="Rectangle 337" width="9.942" height="6.116" transform="translate(14.423)" fill="#08a8f2"/>
        <rect id="Rectangle_338" data-name="Rectangle 338" width="12.773" height="3.274" transform="translate(13.007 1.287)" fill="#08a8f2"/>
        <g id="Group_13575" data-name="Group 13575" transform="translate(0.024 1.287)">
          <rect id="Rectangle_339" data-name="Rectangle 339" width="2.566" height="2.566" transform="translate(30.821 7.025)" fill="#08a8f2"/>
          <rect id="Rectangle_340" data-name="Rectangle 340" width="2.068" height="7.025" transform="translate(33.465)" fill="#08a8f2"/>
          <rect id="Rectangle_341" data-name="Rectangle 341" width="2.616" height="2.616" transform="translate(30.771 14.838)" fill="#08a8f2"/>
          <rect id="Rectangle_342" data-name="Rectangle 342" width="2.705" height="2.705" transform="translate(33.387 12.133)" fill="#08a8f2"/>
          <rect id="Rectangle_343" data-name="Rectangle 343" width="2.647" height="3.825" transform="translate(36.092 8.307)" fill="#08a8f2"/>
          <rect id="Rectangle_344" data-name="Rectangle 344" width="2.566" height="2.566" transform="translate(7.918 9.59) rotate(180)" fill="#08a8f2"/>
          <rect id="Rectangle_345" data-name="Rectangle 345" width="2.068" height="7.025" transform="translate(5.274 7.025) rotate(180)" fill="#08a8f2"/>
          <rect id="Rectangle_346" data-name="Rectangle 346" width="2.616" height="2.616" transform="translate(7.968 17.454) rotate(180)" fill="#08a8f2"/>
          <rect id="Rectangle_347" data-name="Rectangle 347" width="2.705" height="2.705" transform="translate(5.352 14.838) rotate(180)" fill="#08a8f2"/>
          <rect id="Rectangle_348" data-name="Rectangle 348" width="2.647" height="3.825" transform="translate(2.647 12.133) rotate(180)" fill="#08a8f2"/>
        </g>
        <g id="Group_13576" data-name="Group 13576" transform="translate(0 20.256)">
          <rect id="Rectangle_349" data-name="Rectangle 349" width="2.566" height="2.566" transform="translate(9.986 9.472) rotate(180)" fill="#08a8f2"/>
          <rect id="Rectangle_350" data-name="Rectangle 350" width="2.068" height="7.025" transform="translate(7.342 16.496) rotate(180)" fill="#08a8f2"/>
          <rect id="Rectangle_351" data-name="Rectangle 351" width="2.616" height="2.616" transform="translate(7.968 2.616) rotate(180)" fill="#08a8f2"/>
          <rect id="Rectangle_352" data-name="Rectangle 352" width="2.705" height="2.705" transform="translate(5.352 5.321) rotate(180)" fill="#08a8f2"/>
          <rect id="Rectangle_353" data-name="Rectangle 353" width="2.647" height="3.825" transform="translate(2.647 9.147) rotate(180)" fill="#08a8f2"/>
          <rect id="Rectangle_354" data-name="Rectangle 354" width="2.566" height="2.566" transform="translate(28.848 6.906)" fill="#08a8f2"/>
          <rect id="Rectangle_355" data-name="Rectangle 355" width="2.068" height="7.025" transform="translate(31.492 9.472)" fill="#08a8f2"/>
          <rect id="Rectangle_356" data-name="Rectangle 356" width="2.616" height="2.616" transform="translate(30.771 0)" fill="#08a8f2"/>
          <rect id="Rectangle_357" data-name="Rectangle 357" width="2.705" height="2.705" transform="translate(33.387 2.616)" fill="#08a8f2"/>
          <rect id="Rectangle_358" data-name="Rectangle 358" width="2.647" height="3.825" transform="translate(36.141 5.321)" fill="#08a8f2"/>
        </g>
      </g>
      <g id="Group_13579" data-name="Group 13579" transform="translate(0 179.987)">
        <rect id="Rectangle_359" data-name="Rectangle 359" width="65.334" height="46.454" transform="translate(0 26.179)" fill="#08a8f2"/>
        <rect id="Rectangle_360" data-name="Rectangle 360" width="53.616" height="53.616" transform="translate(5.859 22.586)" fill="#08a8f2"/>
        <g id="Group_13578" data-name="Group 13578" transform="translate(6.693)">
          <rect id="Rectangle_361" data-name="Rectangle 361" width="7.14" height="12.757" transform="translate(0 7.051)" fill="#08a8f2"/>
          <rect id="Rectangle_362" data-name="Rectangle 362" width="7.14" height="12.757" transform="translate(44.809 7.051)" fill="#08a8f2"/>
          <rect id="Rectangle_363" data-name="Rectangle 363" width="37.669" height="7.368" transform="translate(7.14)" fill="#08a8f2"/>
        </g>
        <rect id="Rectangle_364" data-name="Rectangle 364" width="15.728" height="10.643" transform="translate(24.803 38.751)" fill="#08a8f2"/>
        <rect id="Rectangle_365" data-name="Rectangle 365" width="5.638" height="16.357" transform="translate(29.848 45.54)" fill="#08a8f2"/>
      </g>
      <g id="Group_13583" data-name="Group 13583" transform="translate(464.766 423.079)">
        <rect id="Rectangle_373" data-name="Rectangle 373" width="65.334" height="46.454" transform="translate(0 26.179)" fill="#08a8f2"/>
        <rect id="Rectangle_374" data-name="Rectangle 374" width="53.616" height="53.616" transform="translate(5.859 22.586)" fill="#08a8f2"/>
        <g id="Group_13582" data-name="Group 13582" transform="translate(6.693)">
          <rect id="Rectangle_375" data-name="Rectangle 375" width="7.14" height="12.758" transform="translate(0 7.051)" fill="#08a8f2"/>
          <rect id="Rectangle_376" data-name="Rectangle 376" width="7.14" height="12.758" transform="translate(44.809 7.051)" fill="#08a8f2"/>
          <rect id="Rectangle_377" data-name="Rectangle 377" width="37.669" height="7.368" transform="translate(7.14)" fill="#08a8f2"/>
        </g>
        <rect id="Rectangle_378" data-name="Rectangle 378" width="15.728" height="10.643" transform="translate(24.803 38.751)" fill="#08a8f2"/>
        <rect id="Rectangle_379" data-name="Rectangle 379" width="5.638" height="16.357" transform="translate(29.848 45.54)" fill="#08a8f2"/>
      </g>
      <g id="Group_13588" data-name="Group 13588" transform="translate(138.645 24.1)">
        <g id="Group_13586" data-name="Group 13586">
          <rect id="Rectangle_387" data-name="Rectangle 387" width="54.942" height="68.962" transform="translate(11.362)" fill="#08a8f2"/>
          <rect id="Rectangle_388" data-name="Rectangle 388" width="77.666" height="38.463" transform="translate(0 3.498)" fill="#08a8f2"/>
          <rect id="Rectangle_389" data-name="Rectangle 389" width="68.593" height="24.056" transform="translate(4.536 33.849)" fill="#08a8f2"/>
          <rect id="Rectangle_390" data-name="Rectangle 390" width="37.257" height="12.98" transform="translate(20.205 62.562)" fill="#08a8f2"/>
          <rect id="Rectangle_391" data-name="Rectangle 391" width="9.882" height="10.546" transform="translate(33.892 71.226)" fill="#08a8f2"/>
        </g>
        <g id="Group_13587" data-name="Group 13587" transform="translate(13.567 14.064)">
          <rect id="Rectangle_392" data-name="Rectangle 392" width="8.271" height="8.271" transform="translate(0 11.489)" fill="#08a8f2"/>
          <rect id="Rectangle_393" data-name="Rectangle 393" width="8.461" height="8.461" transform="translate(8.271 20.076)" fill="#08a8f2"/>
          <rect id="Rectangle_394" data-name="Rectangle 394" width="10.219" height="7.562" transform="translate(16.732 28.537)" fill="#08a8f2"/>
          <rect id="Rectangle_395" data-name="Rectangle 395" width="7.634" height="10.758" transform="translate(26.95 17.83)" fill="#08a8f2"/>
          <rect id="Rectangle_396" data-name="Rectangle 396" width="7.635" height="9.734" transform="translate(34.585 8.096)" fill="#08a8f2"/>
          <rect id="Rectangle_397" data-name="Rectangle 397" width="8.312" height="8.312" transform="translate(42.219)" fill="#08a8f2"/>
        </g>
      </g>
      <g id="Group_13591" data-name="Group 13591" transform="translate(631.488 43.608)">
        <g id="Group_13589" data-name="Group 13589">
          <rect id="Rectangle_398" data-name="Rectangle 398" width="34.063" height="42.756" transform="translate(7.044)" fill="#08a8f2"/>
          <rect id="Rectangle_399" data-name="Rectangle 399" width="48.152" height="23.846" transform="translate(0 2.169)" fill="#08a8f2"/>
          <rect id="Rectangle_400" data-name="Rectangle 400" width="42.527" height="14.915" transform="translate(2.813 20.986)" fill="#08a8f2"/>
          <rect id="Rectangle_401" data-name="Rectangle 401" width="23.099" height="8.047" transform="translate(12.527 38.788)" fill="#08a8f2"/>
          <rect id="Rectangle_402" data-name="Rectangle 402" width="6.127" height="6.538" transform="translate(21.013 44.159)" fill="#08a8f2"/>
        </g>
        <g id="Group_13590" data-name="Group 13590" transform="translate(8.412 8.72)">
          <rect id="Rectangle_403" data-name="Rectangle 403" width="5.128" height="5.128" transform="translate(0 7.123)" fill="#08a8f2"/>
          <rect id="Rectangle_404" data-name="Rectangle 404" width="5.246" height="5.246" transform="translate(5.128 12.447)" fill="#08a8f2"/>
          <rect id="Rectangle_405" data-name="Rectangle 405" width="6.335" height="4.688" transform="translate(10.373 17.693)" fill="#08a8f2"/>
          <rect id="Rectangle_406" data-name="Rectangle 406" width="4.733" height="6.67" transform="translate(16.709 11.055)" fill="#08a8f2"/>
          <rect id="Rectangle_407" data-name="Rectangle 407" width="4.733" height="6.035" transform="translate(21.442 5.019)" fill="#08a8f2"/>
          <rect id="Rectangle_408" data-name="Rectangle 408" width="5.153" height="5.154" transform="translate(26.176)" fill="#08a8f2"/>
        </g>
      </g>
    </g>
    <g id="Group_13446" data-name="Group 13446" transform="translate(1161.021 110.568)">
      <g id="Background_Simple" data-name="Background Simple" transform="translate(30.462 42.391)">
        <g id="Group_13446-2" data-name="Group 13446">
          <path id="Path_723" data-name="Path 723" d="M568.184,252.784C506.668,147.441,339.825,184.96,305.745,133.716c-17.448-26.237-36.97-56.65-65.286-72.466-26.993-15.077-58.29-20.456-85.577-18.459C57.447,49.924,16.132,137.1,34.856,232.836,59.835,360.54,173.041,490.988,307.528,491.9c70.338.477,137.492-24.666,190.17-60.21l1.177-.8C551.5,395.072,615.149,333.212,568.184,252.784Z" transform="translate(-30.462 -42.391)" opacity="0.2" fill="url(#linear-gradient)"/>
          <path id="Path_724" data-name="Path 724" d="M568.184,252.784C506.668,147.441,339.825,184.96,305.745,133.716c-17.448-26.237-36.97-56.65-65.286-72.466-26.993-15.077-58.29-20.456-85.577-18.459C57.447,49.924,16.132,137.1,34.856,232.836,59.835,360.54,173.041,490.988,307.528,491.9c70.338.477,137.492-24.666,190.17-60.21l1.177-.8C551.5,395.072,615.149,333.212,568.184,252.784Z" transform="translate(-30.462 -47.391)" opacity="0.22" fill="url(#linear-gradient-2)"/>
        </g>
      </g>
      <g id="Lines" transform="translate(56.176 70.199)">
        <g id="Group_13447" data-name="Group 13447">
          <path id="Path_725" data-name="Path 725" d="M85.355,215.179H78.516a27.678,27.678,0,0,0-27.678,27.678V394.728a27.678,27.678,0,0,0,27.678,27.678h93.842a27.678,27.678,0,0,0,27.678-27.678h0" transform="translate(-50.838 -24.93)" fill="none" stroke="#263238" stroke-linecap="round" stroke-linejoin="round" stroke-width="1.103" stroke-dasharray="4.412"/>
          <path id="Path_726" data-name="Path 726" d="M162.964,111.376v-30a16.951,16.951,0,0,1,16.951-16.951H301.952A16.951,16.951,0,0,1,318.9,81.377h0" transform="translate(-21.462 -64.426)" fill="none" stroke="#263238" stroke-linecap="round" stroke-linejoin="round" stroke-width="1.103" stroke-dasharray="4.412"/>
        </g>
      </g>
      <g id="Shadow" transform="translate(65.818 517.208)">
        <g id="Group_13448" data-name="Group 13448">
          <ellipse id="Ellipse_21" data-name="Ellipse 21" cx="241.699" cy="33.776" rx="241.699" ry="33.776" fill="url(#linear-gradient-3)"/>
          <path id="Path_796" data-name="Path 796" d="M241.7,0C375.186,0,483.4,15.122,483.4,33.776S375.186,67.551,241.7,67.551,0,52.43,0,33.776,108.212,0,241.7,0Z" fill="url(#linear-gradient-4)"/>
        </g>
      </g>
      <g id="Window" transform="translate(79.677 129.378)">
        <g id="Group_13449" data-name="Group 13449">
          <path id="Path_727" data-name="Path 727" d="M525.141,139.342V366.576a28.013,28.013,0,0,1-28.01,28.01H97.47a28.013,28.013,0,0,1-28.01-28.01V139.342c0-.668.028-1.323.083-1.976A28.006,28.006,0,0,1,97.47,111.319H497.131a28.006,28.006,0,0,1,27.927,26.046C525.113,138.019,525.141,138.674,525.141,139.342Z" transform="translate(-69.46 -111.319)" fill="#fff" stroke="#263238" stroke-linecap="round" stroke-linejoin="round" stroke-width="1.103"/>
          <path id="Rectangle_222" data-name="Rectangle 222" d="M0,0H429.849a0,0,0,0,1,0,0V215.358a20.8,20.8,0,0,1-20.8,20.8H20.8A20.8,20.8,0,0,1,0,215.358V0A0,0,0,0,1,0,0Z" transform="translate(13.63 36.544)" fill="#263238"/>
          <path id="Path_728" data-name="Path 728" d="M510.117,140.275V350.193a26.107,26.107,0,0,1-25.958,26.241H106.218A26.107,26.107,0,0,1,80.26,350.193V140.275Z" transform="translate(-66.63 -103.733)" fill="#fff" opacity="0.2"/>
          <path id="Path_729" data-name="Path 729" d="M525.04,137.365H69.526a28.006,28.006,0,0,1,27.927-26.046H497.113A28.006,28.006,0,0,1,525.04,137.365Z" transform="translate(-69.443 -111.319)" fill="#10337c" stroke="#263238" stroke-miterlimit="10" stroke-width="1.103"/>
          <path id="Path_730" data-name="Path 730" d="M115.941,122.668a4.961,4.961,0,1,1-4.961-4.961A4.961,4.961,0,0,1,115.941,122.668Z" transform="translate(-59.882 -109.645)" fill="#fff"/>
          <path id="Path_731" data-name="Path 731" d="M132.564,122.668a4.962,4.962,0,1,1-4.962-4.961A4.962,4.962,0,0,1,132.564,122.668Z" transform="translate(-55.527 -109.645)" fill="#fff"/>
          <circle id="Ellipse_23" data-name="Ellipse 23" cx="4.961" cy="4.961" r="4.961" transform="translate(88.091 8.062)" fill="#fff"/>
          <path id="Path_732" data-name="Path 732" d="M510.108,140.282v209.9a26.258,26.258,0,0,1-26.255,26.256H106.507a26.249,26.249,0,0,1-25.741-21.161l-.014-.014v-.056a26.028,26.028,0,0,1-.487-5.025v-209.9Z" transform="translate(-66.629 -103.731)" fill="none" stroke="#263238" stroke-miterlimit="10" stroke-width="1.103"/>
          <path id="Path_733" data-name="Path 733" d="M430.883,168.7a26.68,26.68,0,0,0-5.833-2.408L422.7,155.749H412.674l-2.339,10.539a25.881,25.881,0,0,0-5.847,2.408L395.44,162.9l-7.086,7.086,5.694,9.049a25.773,25.773,0,0,0-2.408,5.847L381.1,187.224v10.024L391.64,199.6a25.548,25.548,0,0,0,2.408,5.888l-5.791,9.1,7.086,7.086,9.1-5.791a25.87,25.87,0,0,0,5.847,2.423l2.339,10.524h10.024l2.352-10.524a26.666,26.666,0,0,0,5.833-2.423l.459.293v-47.75Zm-13.169,36.544a12.947,12.947,0,1,1,12.947-12.947A12.94,12.94,0,0,1,417.714,205.239Z" transform="translate(12.188 -99.679)" fill="#263238"/>
          <path id="Path_734" data-name="Path 734" d="M309.459,182.9V161.769l-22.219-4.928a57.414,57.414,0,0,0-5.081-12.333l2.687-4.233H179.978l2.59,4.12a54.7,54.7,0,0,0-5.068,12.321l-22.217,4.942V182.79l22.217,4.956a55.441,55.441,0,0,0,5.068,12.418l-12.21,19.2L185.31,234.3l19.184-12.209a56.437,56.437,0,0,0,12.333,5.109l4.928,22.191h21.132l4.97-22.191a56.834,56.834,0,0,0,12.293-5.109l19.2,12.209,14.937-14.937-12.125-19.2a57.918,57.918,0,0,0,5.081-12.307Zm-76.984,16.734a27.3,27.3,0,1,1,27.3-27.3A27.3,27.3,0,0,1,232.474,199.635Z" transform="translate(-46.975 -103.733)" fill="#263238"/>
          <path id="Path_735" data-name="Path 735" d="M188.948,304.244l.89-16.762-17.373-4.9a47.08,47.08,0,0,0-3.564-9.967l10.5-14.743-11.248-12.487-15.731,8.9a46.575,46.575,0,0,0-9.577-4.58l-3.007-17.819-16.761-.891-4.845,17.429a43.827,43.827,0,0,0-9.968,3.536l-14.727-10.5-12.5,11.249,8.91,15.745a43.5,43.5,0,0,0-4.595,9.563l-5.081.835v22.706l3.689,1.044a43.911,43.911,0,0,0,3.564,9.995l-7.253,10.149.487,8.7v.055l.014.014,7.476,8.3,15.759-8.9a43.654,43.654,0,0,0,9.605,4.635l2.869,17.11v.014l.139.709,16.762.891.445-1.6v-.014l4.4-15.815a44.854,44.854,0,0,0,10.024-3.536l14.7,10.483,12.5-11.234L166.563,316.8a43.562,43.562,0,0,0,4.538-9.551Zm-44.521-26.186a21.706,21.706,0,1,0-1.614,30.641A21.707,21.707,0,0,0,144.427,278.057Z" transform="translate(-66.629 -79.966)" fill="#263238"/>
          <path id="Path_736" data-name="Path 736" d="M289.077,280.508a34.139,34.139,0,0,0,1.017-7.938l12.049-6.335-3.329-12.226-13.6.636a33.824,33.824,0,0,0-4.886-6.315l4.03-13.011-10.983-6.292-9.189,10.027a35.576,35.576,0,0,0-7.913-1.007l-6.362-12.061L237.7,229.308l.644,13.619a34.563,34.563,0,0,0-6.328,4.881L219,243.792l-6.3,10.965,10.08,9.165a33.064,33.064,0,0,0-.994,7.916l-12.072,6.357,3.329,12.226,13.619-.645a32.405,32.405,0,0,0,4.869,6.323l-4.05,12.945,10.984,6.292,9.141-9.941a33.3,33.3,0,0,0,7.93,1l6.344,12.068,12.209-3.322-.536-11.633-.091-1.994a33.565,33.565,0,0,0,6.389-4.889l13.007,4.043,5.375-9.394.916-1.59Zm-28.866,7.427a16.353,16.353,0,1,1,11.48-20.076A16.352,16.352,0,0,1,260.211,287.935Z" transform="translate(-32.714 -81.277)" fill="#263238"/>
          <path id="Path_737" data-name="Path 737" d="M408.728,303.062l2.784-16.774-16.984-6.835a45.116,45.116,0,0,0-2.436-10.47l12.222-13.614-9.9-13.838-16.859,7.155a44.846,44.846,0,0,0-9.1-5.652l-.988-18.291-16.79-2.771L343.8,238.885a47,47,0,0,0-10.427,2.45l-13.657-12.222-13.824,9.9,7.169,16.845a45.821,45.821,0,0,0-5.109,7.935c-.194.389-.39.779-.57,1.169L289.1,265.977l-2.784,16.761,2.756,1.113,14.228,5.736a44.107,44.107,0,0,0,2.436,10.427L293.517,313.67l9.9,13.824,16.858-7.183A43.719,43.719,0,0,0,329.364,326l.946,18.209,16.774,2.77,6.864-16.788a44.114,44.114,0,0,0,10.454-2.451l13.628,12.238,13.838-9.912L384.7,313.211a43.919,43.919,0,0,0,5.75-9.147Zm-47.067-.752a21.97,21.97,0,1,1,5.067-30.654A21.973,21.973,0,0,1,361.661,302.31Z" transform="translate(-12.644 -82.329)" fill="#263238"/>
        </g>
      </g>
      <g id="Graphics" transform="translate(99.78 95.724)">
        <g id="Group_13457" data-name="Group 13457" transform="translate(0 0)">
          <g id="Group_13454" data-name="Group 13454" transform="translate(0 130.135)">
            <rect id="Rectangle_223" data-name="Rectangle 223" width="165.065" height="215.818" rx="13.11" fill="#08a8f2" stroke="#263238" stroke-miterlimit="10" stroke-width="1.103"/>
            <rect id="Rectangle_224" data-name="Rectangle 224" width="165.065" height="215.818" rx="13.11" transform="translate(0 2.794)" fill="#08a8f2" opacity="0.2"/>
            <g id="Group_13453" data-name="Group 13453" transform="translate(15.367 16.307)">
              <path id="Path_738" data-name="Path 738" d="M262.63,217.23V399.958a16.546,16.546,0,0,1-16.552,16.552H114.1a16.543,16.543,0,0,1-16.538-16.552V217.23A16.54,16.54,0,0,1,114.1,200.692H246.077A16.543,16.543,0,0,1,262.63,217.23Z" transform="translate(-97.566 -200.692)" fill="#fff" stroke="#263238" stroke-linecap="round" stroke-linejoin="round" stroke-width="1.103"/>
              <path id="Path_739" data-name="Path 739" d="M262.63,217.23v9.785H97.566V217.23A16.54,16.54,0,0,1,114.1,200.692H246.077A16.543,16.543,0,0,1,262.63,217.23Z" transform="translate(-97.566 -200.692)" fill="#08a8f2" stroke="#263238" stroke-miterlimit="10" stroke-width="1.103"/>
              <rect id="Rectangle_225" data-name="Rectangle 225" width="40.609" height="6.811" transform="translate(15.523 37.66)" fill="#08a8f2"/>
              <rect id="Rectangle_226" data-name="Rectangle 226" width="40.609" height="6.811" transform="translate(15.523 98.726)" fill="#08a8f2"/>
              <rect id="Rectangle_227" data-name="Rectangle 227" width="40.609" height="6.811" transform="translate(15.523 154.102)" fill="#08a8f2"/>
              <g id="Group_13450" data-name="Group 13450" transform="translate(15.523 54.523)">
                <rect id="Rectangle_228" data-name="Rectangle 228" width="115.336" height="4.996" fill="#263238"/>
                <rect id="Rectangle_229" data-name="Rectangle 229" width="94.539" height="4.868" transform="translate(0 9.562)" fill="#263238"/>
                <rect id="Rectangle_230" data-name="Rectangle 230" width="106.919" height="4.868" transform="translate(0 18.962)" fill="#263238"/>
                <rect id="Rectangle_231" data-name="Rectangle 231" width="106.919" height="4.868" transform="translate(0 28.354)" fill="#263238"/>
              </g>
              <g id="Group_13451" data-name="Group 13451" transform="translate(15.523 109.9)">
                <rect id="Rectangle_232" data-name="Rectangle 232" width="115.336" height="4.996" fill="#263238"/>
                <rect id="Rectangle_233" data-name="Rectangle 233" width="94.539" height="4.868" transform="translate(0 9.562)" fill="#263238"/>
                <rect id="Rectangle_234" data-name="Rectangle 234" width="106.919" height="4.868" transform="translate(0 18.962)" fill="#263238"/>
              </g>
              <g id="Group_13452" data-name="Group 13452" transform="translate(15.523 170.71)">
                <rect id="Rectangle_235" data-name="Rectangle 235" width="115.336" height="4.996" fill="#263238"/>
                <rect id="Rectangle_236" data-name="Rectangle 236" width="94.539" height="4.868" transform="translate(0 9.562)" fill="#263238"/>
                <rect id="Rectangle_237" data-name="Rectangle 237" width="106.919" height="4.868" transform="translate(0 18.962)" fill="#263238"/>
              </g>
            </g>
          </g>
          <g id="Group_13456" data-name="Group 13456" transform="translate(156.899)">
            <path id="Path_740" data-name="Path 740" d="M419.269,104.392v73.852a19.719,19.719,0,0,1-19.726,19.726h-170.1a19.727,19.727,0,0,1-19.726-19.726V104.392a19.739,19.739,0,0,1,19.726-19.74h170.1A19.731,19.731,0,0,1,419.269,104.392Z" transform="translate(-209.715 -84.652)" fill="#fff" stroke="#222221" stroke-miterlimit="10" stroke-width="1.103"/>
            <path id="Path_741" data-name="Path 741" d="M419.269,104.392v1.685H209.715v-1.685a19.739,19.739,0,0,1,19.726-19.74h170.1A19.731,19.731,0,0,1,419.269,104.392Z" transform="translate(-209.715 -84.652)" fill="#10337c" stroke="#263238" stroke-miterlimit="10" stroke-width="1.103"/>
            <path id="Path_742" data-name="Path 742" d="M235.18,97.007a3.021,3.021,0,1,1,0-4.272A3.019,3.019,0,0,1,235.18,97.007Z" transform="translate(-204.395 -82.766)" fill="#fff"/>
            <path id="Path_743" data-name="Path 743" d="M246.3,97.007a3.021,3.021,0,1,1,0-4.272A3.019,3.019,0,0,1,246.3,97.007Z" transform="translate(-201.481 -82.766)" fill="#fff"/>
            <path id="Path_744" data-name="Path 744" d="M257.42,97.007a3.021,3.021,0,1,1,0-4.272A3.019,3.019,0,0,1,257.42,97.007Z" transform="translate(-198.568 -82.766)" fill="#fff"/>
            <rect id="Rectangle_238" data-name="Rectangle 238" width="68.499" height="59.21" transform="translate(13.362 35.005)" fill="none" stroke="#263238" stroke-linecap="round" stroke-linejoin="round" stroke-width="1.103" stroke-dasharray="4.412"/>
            <g id="Group_13455" data-name="Group 13455" transform="translate(92.429 35.005)">
              <rect id="Rectangle_239" data-name="Rectangle 239" width="78.833" height="4.158" fill="#263238"/>
              <rect id="Rectangle_240" data-name="Rectangle 240" width="60.47" height="4.158" transform="translate(0 8.623)" fill="#263238"/>
              <rect id="Rectangle_241" data-name="Rectangle 241" width="90.047" height="4.207" transform="translate(0 17.197)" fill="#263238"/>
              <rect id="Rectangle_242" data-name="Rectangle 242" width="76.677" height="4.207" transform="translate(0 25.574)" fill="#263238"/>
            </g>
          </g>
        </g>
      </g>
      <g id="Character" transform="translate(280.211 251.251)">
        <g id="Group_13459" data-name="Group 13459">
          <path id="Path_745" data-name="Path 745" d="M314.81,443.418s-36.6,10.5-41.708,12.307c-4.649,1.642-17.248,6.055-26.7,4.691a20.37,20.37,0,0,1-2.7-.584c-9.579-2.853-13.879-5.512-15.133-11.541s3.508-10.454,8.1-13.3,29.513-5.8,29.513-5.8l6.013,1.768h.014Z" transform="translate(-228.362 -149.912)" fill="#08a8f2"/>
          <path id="Path_746" data-name="Path 746" d="M246.4,460.416a20.37,20.37,0,0,1-2.7-.584c-9.579-2.853-13.879-5.512-15.133-11.541s3.508-10.454,8.1-13.3,29.513-5.8,29.513-5.8l6.013,1.768c-5.443,2.505-25.74,3.9-30.167,6.445s-6.571,7.35-3.954,13.838C239.469,454.694,243.2,458.036,246.4,460.416Z" transform="translate(-228.362 -149.912)" fill="#fff"/>
          <path id="Path_747" data-name="Path 747" d="M309.262,444.6s-27.486,7.121-38.385,11.68-31.694,6.552-39.1-2.848-.854-17.489,6.552-19.285,22.384-4.645,30.563-3.506" transform="translate(-228.32 -149.6)" fill="none" stroke="#263238" stroke-linecap="round" stroke-linejoin="round" stroke-width="1.103"/>
          <path id="Path_748" data-name="Path 748" d="M245.229,459.551s-13.985-7.668-9.341-18.416c3.426-7.932,22.084-6.212,31.321-10.548" transform="translate(-226.638 -149.546)" fill="none" stroke="#263238" stroke-linecap="round" stroke-linejoin="round" stroke-width="1.103"/>
          <path id="Path_749" data-name="Path 749" d="M401.027,462.262c-.376,3.744-1.7,7.336-5.485,9.563-2.52,1.49-6.112,2.381-11.248,2.326-12.836-.168-36.961-9.341-36.961-9.341l-22.593-12.487,11.749-18.6,3.215-5.095,8.312,1.865s6.877,3.9,13.8,7,23.707,3.758,29.624,8.547C397.352,450.819,401.666,456.026,401.027,462.262Z" transform="translate(-203.112 -150.059)" fill="#08a8f2"/>
          <path id="Path_750" data-name="Path 750" d="M398.587,462.262c-.376,3.744-1.7,7.336-5.485,9.563a16.919,16.919,0,0,0-.641-11.276c-2.505-5.666-10.733-10.663-21.536-11.5s-19.071-5.888-23.4-8.145c-3.382-1.754-10.51-5.582-13.476-7.183l3.216-5.095,8.312,1.865s6.877,3.9,13.8,7,23.707,3.758,29.624,8.547C394.912,450.819,399.227,456.026,398.587,462.262Z" transform="translate(-200.673 -150.059)" fill="#fff"/>
          <path id="Path_751" data-name="Path 751" d="M329.191,454.264c16.084,9.214,34.48,15.848,52.883,18.065,4.109.495,8.892.563,11.646-2.527a8.61,8.61,0,0,0,1.9-6.455c-.5-5.8-5.374-10.4-10.723-12.7s-11.254-2.847-16.935-4.12a66.955,66.955,0,0,1-16.286-5.958c-4.082-2.132-8.036-4.719-12.542-5.673s-9.875.2-12.278,4.133" transform="translate(-202.558 -148.499)" fill="none" stroke="#263238" stroke-linecap="round" stroke-linejoin="round" stroke-width="1.103"/>
          <path id="Path_752" data-name="Path 752" d="M389.8,472.551c4.158-2.134,7.573-6.054,8.265-10.676.819-5.467-2.294-10.962-6.681-14.325s-9.869-4.942-15.281-6.068S365.153,439.6,360,437.59c-7.916-3.093-15.724-9.2-23.94-7.024" transform="translate(-200.145 -149.672)" fill="none" stroke="#263238" stroke-linecap="round" stroke-linejoin="round" stroke-width="1.103"/>
          <path id="Path_753" data-name="Path 753" d="M377.306,301.668,339.077,287.12l-.473-.18s.14-1.017.251-2.492c.236-3.049.362-8.019-1.071-9.7-2.13-2.491-8.173-.4-14.061-3.1s-16.788,2.13-16.788,2.13S299.068,272.322,295.6,278c-1.767,4.58-1.155,11.4-1.155,11.4s-.251.1-.724.265c-4.552,1.7-29.331,11.025-34.58,14.77-5.791,4.107-12.195,46.218-14.255,58.579-2.06,12.376-5.721,23.513-3.855,27.773s28.482,24.753,43.795,30.042c15.314,5.3,69.648,3.746,69.648,3.746s.891-.237,2.463-.738c9.189-2.952,41.792-15.1,59.082-43.768C416.02,380.071,399.273,325.139,377.306,301.668ZM274.024,372.5c-2.812,1.991-1.309,9.717-1.309,9.717L267.927,378l12.014-29.541,5.122,22.677S276.837,370.522,274.024,372.5Zm96.112,18.766c-1.323.683,3.8-13.517,1.364-16.733s-9.731-2.909-9.731-2.909l.626-3.884c.085-.432,4.33-22.2,4.33-22.2l1.434-1.711s14.869,25.488,17.527,34.468C385.685,378.289,369.481,391.264,370.136,391.264Z" transform="translate(-225.177 -191.404)" fill="#08a8f2"/>
          <path id="Path_754" data-name="Path 754" d="M296.2,222.254,276.475,243.2s-2.722,2.4-1.641,8.481,3.6,11.3,5.5,11.7a27.038,27.038,0,0,0,4.568.409s4.228,9.162,7.222,12.764c0,0,1.044,14.142.487,18.069,0,0,7.089,6.191,13.765,6.979s16.993-9.442,16.993-9.442l2.558-12.523s6.051-9.187,6.465-11.634,3.179-1.819,4.539-3.024,4.507-6.6,5.025-11.7.557-10.955-5.366-9.235c-5.133-1.379-1.919-12.229-1.919-12.229l-9.018-7.957Z" transform="translate(-216.253 -204.128)" fill="#fff"/>
          <path id="Path_755" data-name="Path 755" d="M328.032,287.12a19.914,19.914,0,0,1-1.016,2.283c-3.257,6.14-17.443,17.833-17.443,17.833l-4.287-13.184-2.354,13.184c-4.732-2.061-19.168-14.576-19.168-14.576s-.487-1.169-1.087-2.992c.473-.168.724-.265.724-.265s-.612-6.821,1.155-11.4c3.467-5.68,11.333-4.233,11.333-4.233s10.9-4.831,16.788-2.13,11.931.613,14.061,3.1.82,12.2.82,12.2Z" transform="translate(-214.132 -191.404)" fill="#fff" opacity="0.5"/>
          <path id="Path_756" data-name="Path 756" d="M358.228,298.839,320,284.291l-.473-.18s.14-1.017.251-2.492l-.794,4.956-5.651,7.684a154.887,154.887,0,0,1,17.639,7.775,15.493,15.493,0,0,1,8.1,15.453l-7.047,60.258-2.881,34.218,8.714,9.049c9.189-2.952,41.792-15.1,59.081-43.768C396.943,377.242,380.2,322.31,358.228,298.839Zm-7.169,89.6c-1.323.683,3.8-13.517,1.364-16.733s-9.731-2.909-9.731-2.909l.626-3.884c.085-.432,4.33-22.2,4.33-22.2l1.434-1.711s14.869,25.488,17.527,34.468C366.608,375.46,350.4,388.434,351.059,388.434Z" transform="translate(-206.1 -188.575)" opacity="0.2"/>
          <path id="Path_757" data-name="Path 757" d="M285.944,366.532,280,346.667s-10.658-36.35-17.966-45.316l1.921,25.564s-6.27,30.54-12.075,39.617-7.058,11.331,0,11.331S276.1,391.548,276.1,391.548l-1.323-11.416Zm-14.938,7.684L266.218,370l12.014-29.541,5.122,22.677s-8.227-.612-11.04,1.364C269.5,366.49,271.006,374.216,271.006,374.216Z" transform="translate(-223.467 -183.405)" opacity="0.2"/>
          <path id="Path_758" data-name="Path 758" d="M288.485,265.284s1.1,10.711,0,15.606" transform="translate(-212.61 -192.855)" fill="none" stroke="#263238" stroke-linecap="round" stroke-linejoin="round" stroke-width="1.103"/>
          <path id="Path_759" data-name="Path 759" d="M314.108,278.638A45.938,45.938,0,0,1,315.3,268.4" transform="translate(-205.897 -192.037)" fill="none" stroke="#263238" stroke-linecap="round" stroke-linejoin="round" stroke-width="1.103"/>
          <path id="Path_760" data-name="Path 760" d="M325.41,228.582s6.482,8.142,6.148,14.291-.83,13.46-.665,20.606-11.465,22.1-17.448,23.43-11.133,1.662-14.955-2.159-7.644-9.141-12.63-15.953-3.821-21.769-3.821-21.769" transform="translate(-214.33 -202.47)" fill="none" stroke="#263238" stroke-linecap="round" stroke-linejoin="round" stroke-width="1.103"/>
          <path id="Path_761" data-name="Path 761" d="M304.149,247.714a33.649,33.649,0,0,0-.5,6.773c.05,1.9.332,3.95,1.662,5.305.716.731,1.757,1.315,1.893,2.328a2.46,2.46,0,0,1-1.331,2.206,18.8,18.8,0,0,0-2.336,1.388" transform="translate(-208.668 -197.458)" fill="none" stroke="#263238" stroke-linecap="round" stroke-linejoin="round" stroke-width="1.103"/>
          <path id="Path_762" data-name="Path 762" d="M295.866,262.6s.75,4.83,7.227,5.841" transform="translate(-210.676 -193.557)" fill="none" stroke="#263238" stroke-linecap="round" stroke-linejoin="round" stroke-width="1.103"/>
          <path id="Path_763" data-name="Path 763" d="M296.96,251.157c0,1.4-.6,2.528-1.348,2.528s-1.348-1.132-1.348-2.528.6-2.527,1.348-2.527S296.96,249.761,296.96,251.157Z" transform="translate(-211.096 -197.218)" fill="#263238"/>
          <path id="Path_764" data-name="Path 764" d="M312.269,251.638c0,1.4-.6,2.528-1.348,2.528s-1.348-1.132-1.348-2.528.6-2.527,1.348-2.527S312.269,250.242,312.269,251.638Z" transform="translate(-207.085 -197.092)" fill="#263238"/>
          <path id="Path_765" data-name="Path 765" d="M308.621,246.8s6.282-6.282,11.6.724" transform="translate(-207.335 -198.375)" fill="none" stroke="#263238" stroke-linecap="round" stroke-linejoin="round" stroke-width="2.206"/>
          <path id="Path_766" data-name="Path 766" d="M300.223,246.772s-3.987-4.469-10.269,0" transform="translate(-212.225 -198.225)" fill="none" stroke="#263238" stroke-linecap="round" stroke-linejoin="round" stroke-width="2.206"/>
          <path id="Path_767" data-name="Path 767" d="M288.972,271.17s3.848,10.606,12.441,13.614,20-12.6,20-12.6l-.6-2.029s-7.477,9.714-15.794,8.057-16.542-12.924-16.542-12.924Z" transform="translate(-212.61 -192.855)" fill="#263238"/>
          <path id="Path_768" data-name="Path 768" d="M284.853,259.218s-5.122,1.808-6.484-2.183-6.032-14.5-1.946-18,7.369,4.624,7.369,4.624" transform="translate(-216.2 -199.961)" fill="none" stroke="#263238" stroke-linecap="round" stroke-linejoin="round" stroke-width="1.103"/>
          <path id="Path_769" data-name="Path 769" d="M320.72,261.119s4.762.958,6.123-3.034,6.031-14.5,1.946-18-7.37,4.624-7.37,4.624" transform="translate(-204.165 -199.686)" fill="none" stroke="#263238" stroke-linecap="round" stroke-linejoin="round" stroke-width="1.103"/>
          <path id="Path_770" data-name="Path 770" d="M284.951,261.83a7.1,7.1,0,0,0,4.5-2.655,11.192,11.192,0,0,0,1.306-4.028,48.655,48.655,0,0,0,.713-8.12,10.93,10.93,0,0,1,.285-3.165,8.1,8.1,0,0,1,1.712-2.816c1.788-2.1,3.94-3.865,5.64-6.034s2.949-4.91,2.49-7.626c0,0,11.617,10.618,28.362,7.335,9.014-1.768,17.668-9.679,16.614-19.621a8.045,8.045,0,0,0-6.352-6.923c-4.457-1.108-8.462,1.267-12.5,2.79-7.36,2.775-14.562-1.991-22-2.792-6.36-.684-14.167.1-17.479,6.429,0,0-11.425,1.343-16.429,10.724s4.509,22.373,4.509,22.373,3.828-4.634,8.748,4.748Z" transform="translate(-217.359 -207.891)" fill="#263238"/>
          <path id="Path_771" data-name="Path 771" d="M317.067,227.508s-2.954,15.4,4.755,22.848c0,0,1.687-4.628,3.4-5.756a17.85,17.85,0,0,0-1.35-17.092C318.23,218.549,317.067,227.508,317.067,227.508Z" transform="translate(-205.267 -203.795)" fill="#263238"/>
          <path id="Path_772" data-name="Path 772" d="M340.521,212.8c-1.141,4.242-4.729,7.525-8.8,9.182-10.7,4.359-21.1-.476-31.81-1.422-8.757-.775-18.411,7.115-19.022,16.1" transform="translate(-214.599 -206.605)" fill="none" stroke="#fff" stroke-linecap="round" stroke-linejoin="round" stroke-width="1.103" opacity="0.2"/>
          <path id="Path_773" data-name="Path 773" d="M275.626,233.258a18.708,18.708,0,0,1,11.4-16.509" transform="translate(-215.979 -205.57)" fill="none" stroke="#fff" stroke-linecap="round" stroke-linejoin="round" stroke-width="1.103" opacity="0.2"/>
          <path id="Path_774" data-name="Path 774" d="M286.53,276.772s7.049,7.769,16.665,11.4c0,0,12.81-3.715,19.331-12.648" transform="translate(-213.122 -190.171)" fill="none" stroke="#263238" stroke-linecap="round" stroke-linejoin="round" stroke-width="1.103"/>
          <circle id="Ellipse_24" data-name="Ellipse 24" cx="11.336" cy="11.336" r="11.336" transform="translate(66.728 48.36) rotate(-24.636)" fill="none" stroke="#263238" stroke-linecap="round" stroke-linejoin="round" stroke-width="1.103"/>
          <circle id="Ellipse_25" data-name="Ellipse 25" cx="11.336" cy="11.336" r="11.336" transform="translate(94.451 44.069) rotate(-7.003)" fill="none" stroke="#263238" stroke-linecap="round" stroke-linejoin="round" stroke-width="1.103"/>
          <path id="Path_775" data-name="Path 775" d="M289.858,273.162a8.886,8.886,0,0,0-5.453,4.229c-2.007,3.53-.8,14.651-.8,14.651s10.358,10.251,19.177,14.575l2.6-14.632,4.038,14.632s13.659-9.659,17.441-17.824c0,0,1.233-9.521,0-12.648a4.365,4.365,0,0,0-4.078-2.982" transform="translate(-213.983 -190.791)" fill="none" stroke="#263238" stroke-linecap="round" stroke-linejoin="round" stroke-width="1.103"/>
          <path id="Path_776" data-name="Path 776" d="M277.584,358.628s-4.043-27.128-9.432-38.2" transform="translate(-217.937 -178.406)" fill="none" stroke="#263238" stroke-linecap="round" stroke-linejoin="round" stroke-width="1.103"/>
          <path id="Path_777" data-name="Path 777" d="M258.921,301.351a109.915,109.915,0,0,1,8.378,14.022" transform="translate(-220.356 -183.405)" fill="none" stroke="#263238" stroke-linecap="round" stroke-linejoin="round" stroke-width="1.103"/>
          <path id="Path_778" data-name="Path 778" d="M343.228,320.148a78.334,78.334,0,0,1,4.452-13.242" transform="translate(-198.268 -181.95)" fill="none" stroke="#263238" stroke-linecap="round" stroke-linejoin="round" stroke-width="1.103"/>
          <path id="Path_779" data-name="Path 779" d="M336.6,357.741s2.922-18.6,6.4-33.924" transform="translate(-200.005 -177.519)" fill="none" stroke="#263238" stroke-linecap="round" stroke-linejoin="round" stroke-width="1.103"/>
          <path id="Path_780" data-name="Path 780" d="M340.521,331.62a21.392,21.392,0,0,1,11.285-7.717" transform="translate(-198.977 -177.497)" fill="none" stroke="#263238" stroke-linecap="round" stroke-linejoin="round" stroke-width="1.103"/>
          <path id="Path_781" data-name="Path 781" d="M318.245,283.592s23.522,9.4,38.7,14.731c0,0,18.678,17.566,38.7,78.4,0,0-18.356,30.87-53.256,40.765" transform="translate(-204.813 -188.058)" fill="none" stroke="#263238" stroke-linecap="round" stroke-linejoin="round" stroke-width="1.103"/>
          <path id="Path_782" data-name="Path 782" d="M342.184,370.84l16.863-14.08s8.921-6.781,18.2-2.142" transform="translate(-198.541 -169.875)" fill="none" stroke="#263238" stroke-linecap="round" stroke-linejoin="round" stroke-width="1.103"/>
          <path id="Path_783" data-name="Path 783" d="M341.665,328.669s13.95,20.547,17.518,34.464" transform="translate(-198.677 -176.248)" fill="none" stroke="#263238" stroke-linecap="round" stroke-linejoin="round" stroke-width="1.103"/>
          <path id="Path_784" data-name="Path 784" d="M270.42,360.71,265.484,356s-7.326-1.281-15.621,4.281" transform="translate(-222.729 -169.12)" fill="none" stroke="#263238" stroke-linecap="round" stroke-linejoin="round" stroke-width="1.103"/>
          <path id="Path_785" data-name="Path 785" d="M262.241,362.316s6.13-20.135,12.176-30.529" transform="translate(-219.486 -175.431)" fill="none" stroke="#263238" stroke-linecap="round" stroke-linejoin="round" stroke-width="1.103"/>
          <path id="Path_786" data-name="Path 786" d="M294.336,285.547s-33.835,12.7-37.153,16.392-15.926,74.708-16.258,82.833c-.3,7.264,26.059,23.585,39.078,30.465" transform="translate(-225.071 -187.546)" fill="none" stroke="#263238" stroke-linecap="round" stroke-linejoin="round" stroke-width="1.103"/>
          <rect id="Rectangle_243" data-name="Rectangle 243" width="55.041" height="39.105" rx="6.532" transform="translate(144.96 47.495)" fill="#fff" stroke="#263238" stroke-linecap="round" stroke-linejoin="round" stroke-width="1.103"/>
          <path id="Path_787" data-name="Path 787" d="M359.5,254.846l-10.584,6.644,9.822,8.711" transform="translate(-196.778 -195.589)" fill="none" stroke="#263238" stroke-linecap="round" stroke-linejoin="round" stroke-width="1.103"/>
          <path id="Path_788" data-name="Path 788" d="M372.887,270.692l9.511-8.106-10.979-7.2" transform="translate(-190.882 -195.447)" fill="none" stroke="#263238" stroke-linecap="round" stroke-linejoin="round" stroke-width="1.103"/>
          <line id="Line_46" data-name="Line 46" y1="24.499" x2="7.813" transform="translate(167.864 55.733)" fill="none" stroke="#263238" stroke-linecap="round" stroke-linejoin="round" stroke-width="1.103"/>
          <path id="Path_789" data-name="Path 789" d="M304.22,305.018A2.226,2.226,0,1,1,302,302.793,2.224,2.224,0,0,1,304.22,305.018Z" transform="translate(-209.654 -183.027)" fill="#263238"/>
          <g id="Group_13458" data-name="Group 13458" transform="translate(46.562 180.221)">
            <path id="Path_790" data-name="Path 790" d="M350.681,399.526h-77a1.805,1.805,0,0,1-1.8-1.806h0a1.805,1.805,0,0,1,1.8-1.8h77a1.805,1.805,0,0,1,1.8,1.8h0A1.805,1.805,0,0,1,350.681,399.526Z" transform="translate(-263.524 -338.851)" fill="#263238"/>
            <path id="Path_791" data-name="Path 791" d="M355.11,405.388l10.319-48.459a5.157,5.157,0,0,0-5.044-6.23H270.416a5.157,5.157,0,0,0-5.059,6.156l9.252,46.846a5.156,5.156,0,0,0,4.941,4.156l70.4,1.613A5.157,5.157,0,0,0,355.11,405.388Z" transform="translate(-265.257 -350.698)" fill="#fff" stroke="#263238" stroke-linecap="round" stroke-linejoin="round" stroke-width="1.103"/>
            <path id="Path_792" data-name="Path 792" d="M313.421,374.317a7.183,7.183,0,1,1-7.183-7.182A7.183,7.183,0,0,1,313.421,374.317Z" transform="translate(-256.402 -346.392)" fill="#263238"/>
            <line id="Line_47" data-name="Line 47" x2="10.689" transform="translate(71.136 4.598)" fill="none" stroke="#263238" stroke-linecap="round" stroke-linejoin="round" stroke-width="1.103"/>
            <line id="Line_48" data-name="Line 48" x2="40.576" transform="translate(20.09 4.598)" fill="none" stroke="#263238" stroke-linecap="round" stroke-linejoin="round" stroke-width="1.103"/>
          </g>
          <path id="Path_793" data-name="Path 793" d="M363.768,448.276l-8.2,21.527s-20.913-5.273-47.712-10.764c-28.021-5.742-57.288-13.176-72.469-39.81-1.851-3.247-3.083-7.084-2.216-10.719,2.191-9.2,14.158-11.7,22.047-12.617a146.762,146.762,0,0,1,14.929-.84c2.54-.035,10.919-1.365,12.947.126a59.352,59.352,0,0,0,9.738,5.77c4.48,1.9,69.873-1.709,69.873-1.709a23.342,23.342,0,0,0,2.057-7.852c10.279-5.223,34.083-9.649,44.139-7.694,15.817,3.075,25.042,12.3,23.285,21.966S395.521,441.247,363.768,448.276Z" transform="translate(-227.177 -161.955)" fill="#263238"/>
          <path id="Path_794" data-name="Path 794" d="M354.813,442.6s-19.892-5.273-36.147-16.256-28.955-23.724-51.6-21.088" transform="translate(-218.222 -156.275)" fill="none" stroke="#fff" stroke-linecap="round" stroke-linejoin="round" stroke-width="1.103"/>
          <path id="Path_795" data-name="Path 795" d="M304.99,426.957c10.268-2.954,17.8-9.595,26.043-15.974,8.727-6.757,17.956-13.3,27.881-18.32" transform="translate(-208.286 -159.482)" fill="none" stroke="#fff" stroke-linecap="round" stroke-linejoin="round" stroke-width="1.103"/>
          <line id="Line_49" data-name="Line 49" x2="3.013" transform="translate(93.095 55.733)" fill="none" stroke="#263238" stroke-linecap="round" stroke-linejoin="round" stroke-width="1.103"/>
        </g>
      </g>
    </g>
  </g>
</svg>
