<svg xmlns="http://www.w3.org/2000/svg" xmlns:xlink="http://www.w3.org/1999/xlink" width="50" height="25" viewBox="0 0 50 25">
  <defs>
    <clipPath id="clip-trademark">
      <rect width="50" height="25"/>
    </clipPath>
  </defs>
  <g id="trademark" clip-path="url(#clip-trademark)">
    <path id="Icon_metro-trademark" data-name="Icon metro-trademark" d="M23.865,13.613v2.856a.706.706,0,0,1-.236.537.793.793,0,0,1-.559.22h-7.4V37.05a.765.765,0,0,1-.224.549.73.73,0,0,1-.547.232H11.541a.793.793,0,0,1-.559-.22.734.734,0,0,1-.236-.562V17.226H3.366a.793.793,0,0,1-.559-.22.706.706,0,0,1-.236-.537V13.613a.753.753,0,0,1,.224-.562.781.781,0,0,1,.571-.22h19.7a.771.771,0,0,1,.559.232A.744.744,0,0,1,23.865,13.613Zm25.791-.073L51.569,37a.76.76,0,0,1-.77.83H47.469a.783.783,0,0,1-.77-.708L45.556,22.768l-4.7,10.376a.721.721,0,0,1-.721.464H37.158a.75.75,0,0,1-.721-.464L31.766,22.719l-1.118,14.4a.783.783,0,0,1-.77.708H26.523a.792.792,0,0,1-.571-.244A.837.837,0,0,1,25.728,37L27.666,13.54a.783.783,0,0,1,.77-.708h3.528a.75.75,0,0,1,.72.464l5.466,12.7q.248.586.5,1.245.075-.171.236-.6t.261-.647l5.491-12.7a.75.75,0,0,1,.72-.464h3.5a.774.774,0,0,1,.547.208.75.75,0,0,1,.248.5Z" transform="translate(-2.571 -12.832)"/>
  </g>
</svg>
