<svg xmlns="http://www.w3.org/2000/svg" xmlns:xlink="http://www.w3.org/1999/xlink" width="1080" height="1080" viewBox="0 0 1080 1080">
  <defs>
    <clipPath id="clip-_41">
      <rect width="1080" height="1080"/>
    </clipPath>
  </defs>
  <g id="_41" data-name="41" clip-path="url(#clip-_41)">
    <g id="pandas" transform="translate(-35.971 325.345)">
      <path id="Path_922" data-name="Path 922" d="M312.239,235.328c-14.861,0-30-6.15-39.474-18.2v65.115H243V121.492h26.914l1.027,17.682c9.232-13.587,25.626-20.764,41.268-20.764,30,0,52.092,25.134,52.092,58.459S342.235,235.342,312.239,235.328Zm-9.217-94.851c-17.436,0-31.53,13.587-31.53,36.407s14.094,36.435,31.53,36.435,31.53-13.587,31.53-36.407S320.458,140.477,303.022,140.477Z" transform="translate(92.444 28.17)" fill="#130754"/>
      <path id="Path_923" data-name="Path 923" d="M433.522,232.261l-1.027-17.682c-9.232,13.587-25.641,20.764-41.283,20.75-30,0-52.092-25.12-52.092-58.444s22.052-58.459,52.092-58.444c15.642,0,32.051,7.235,41.283,20.764l1.027-17.682h26.972V232.261Zm-33.064-91.783c-17.436,0-31.53,13.587-31.545,36.407s14.094,36.421,31.53,36.421,31.545-13.587,31.545-36.407-14.094-36.421-31.53-36.421Z" transform="translate(135.41 28.183)" fill="#130754"/>
      <path id="Path_924" data-name="Path 924" d="M519.661,232.271V171.005c0-21.531-7.423-28.708-21.01-28.708-14.108,0-29.49,12.806-29.49,28.188v61.787H439.41V121.518H466.6l1.288,20.518c7.438-14.108,24.093-23.586,41.022-23.586,29.475,0,40.516,20.518,40.516,47.939v65.9Z" transform="translate(180.24 28.188)" fill="#130754"/>
      <path id="Path_925" data-name="Path 925" d="M619.928,244.646l-1.027-17.7c-9.232,13.587-25.641,20.764-41.268,20.764-30,0-52.092-25.134-52.092-58.459s22.052-58.444,52.092-58.444c14.861,0,29.982,6.164,39.474,18.2V90.83h29.75V244.646Zm-33.064-91.783c-17.364,0-31.53,13.587-31.53,36.392s14.094,36.392,31.53,36.392,31.53-13.573,31.53-36.392S604.344,152.863,586.864,152.863Z" transform="translate(218.74 15.842)" fill="#130754"/>
      <path id="Path_926" data-name="Path 926" d="M715.762,232.306l-1.027-17.682c-9.232,13.587-25.641,20.75-41.283,20.75-30,0-52.092-25.12-52.092-58.459s22.052-58.444,52.092-58.444c15.642,0,32.051,7.235,41.283,20.779l1.027-17.7h26.914V232.291ZM682.7,140.522c-17.364,0-31.53,13.587-31.545,36.407s14.108,36.363,31.53,36.363,31.545-13.587,31.545-36.407-14.094-36.363-31.53-36.363Z" transform="translate(261.571 28.197)" fill="#130754"/>
      <path id="Path_927" data-name="Path 927" d="M764.43,235.98a87.051,87.051,0,0,1-44.351-12.574l4.876-20.5c8.971,5.383,22.559,12.314,38.968,12.314,11.793,0,20-3.589,20-12.82,0-7.944-8.465-10.766-23.586-14.354-27.175-5.9-36.913-20.258-36.913-35.9,0-17.436,13.587-33.831,43.584-33.831,18.2,0,34.106,7.944,37.622,10L799.752,147.8a64.521,64.521,0,0,0-32.036-9.232c-12.039,0-17.943,4.1-17.943,10.766,0,7.423,7.7,10.766,19.477,13.587,29.229,6.15,41.022,19.737,41.022,34.612C810.329,221.365,792.893,235.98,764.43,235.98Z" transform="translate(305.699 28.125)" fill="#130754"/>
      <rect id="Rectangle_246" data-name="Rectangle 246" width="34.858" height="72.379" transform="translate(92.174 74.244)" fill="#130754"/>
      <rect id="Rectangle_247" data-name="Rectangle 247" width="34.858" height="72.379" transform="translate(92.174 222.924)" fill="#130754"/>
      <rect id="Rectangle_248" data-name="Rectangle 248" width="34.858" height="34.149" transform="translate(92.174 167.75)" fill="#ffca00"/>
      <rect id="Rectangle_249" data-name="Rectangle 249" width="34.858" height="240.593" transform="translate(36.19 133.76)" fill="#130754"/>
      <rect id="Rectangle_250" data-name="Rectangle 250" width="34.858" height="72.379" transform="translate(147.016 282.641)" fill="#130754"/>
      <rect id="Rectangle_251" data-name="Rectangle 251" width="34.858" height="72.379" transform="translate(147.016 133.846)" fill="#130754"/>
      <rect id="Rectangle_252" data-name="Rectangle 252" width="34.858" height="34.149" transform="translate(147.016 227.352)" fill="#e70488"/>
      <rect id="Rectangle_253" data-name="Rectangle 253" width="34.858" height="240.593" transform="translate(201.843 55.39)" fill="#130754"/>
    </g>
  </g>
</svg>
