<svg xmlns="http://www.w3.org/2000/svg" xmlns:xlink="http://www.w3.org/1999/xlink" width="1269" height="1080" viewBox="0 0 1269 1080">
  <defs>
    <clipPath id="clip-path">
      <path id="Path_917" data-name="Path 917" d="M123.6,60.892,25,4.8V235.3l39.44-22.788V147.66l29.8,17.091-.438-44.26L64.44,103.4V77.545l59.16,34.62Z" transform="translate(-25 -4.8)"/>
    </clipPath>
    <linearGradient id="linear-gradient" y1="6.247" x2="1" y2="6.247" gradientUnits="objectBoundingBox">
      <stop offset="0" stop-color="#ff6f00"/>
      <stop offset="1" stop-color="#ffa800"/>
    </linearGradient>
    <clipPath id="clip-path-2">
      <path id="Path_919" data-name="Path 919" d="M.5,60.892,99.1,4.8V235.3L59.66,212.517V77.545L.5,112.164Z" transform="translate(-0.5 -4.8)"/>
    </clipPath>
    <clipPath id="clip-_6">
      <rect width="1269" height="1080"/>
    </clipPath>
  </defs>
  <g id="_6" data-name="6" clip-path="url(#clip-_6)">
    <g id="lockup" transform="translate(21.321 400.821)">
      <g id="Group_910" data-name="Group 910" transform="translate(107.864 4.8)">
        <g id="Group_909" data-name="Group 909">
          <g id="Group_908" data-name="Group 908" clip-path="url(#clip-path)">
            <path id="Path_916" data-name="Path 916" d="M-1.6,4.6H240.3V236.419H-1.6Z" transform="translate(-114.967 -5.476)" fill="url(#linear-gradient)"/>
          </g>
        </g>
      </g>
      <g id="Group_913" data-name="Group 913" transform="translate(0.5 4.8)">
        <g id="Group_912" data-name="Group 912">
          <g id="Group_911" data-name="Group 911" clip-path="url(#clip-path-2)">
            <path id="Path_918" data-name="Path 918" d="M-1.9,4.6H240V236.419H-1.9Z" transform="translate(-8.617 -5.476)" fill="url(#linear-gradient)"/>
          </g>
        </g>
      </g>
      <path id="Path_920" data-name="Path 920" d="M174.785,36.32H130.963V157.707h-24.54V36.32H62.6V16.6H174.785Z" transform="translate(210.036 39.91)" fill="#425066"/>
      <path id="Path_921" data-name="Path 921" d="M133.8,159.8c-14.9,0-27.17-4.82-36.372-14.023S83.4,123.864,83.4,108.088v-3.068a62.325,62.325,0,0,1,6.135-28.046,48.378,48.378,0,0,1,17.091-19.282,44.4,44.4,0,0,1,24.54-7.012c14.461,0,25.417,4.382,33.3,13.585S176.3,86.177,176.3,102.83v9.641H107.5a32.542,32.542,0,0,0,8.764,20.6,24.479,24.479,0,0,0,19.282,7.45c10.517.438,20.158-4.82,26.293-13.147l12.708,12.27A43.9,43.9,0,0,1,157.9,154.1,43.547,43.547,0,0,1,133.8,159.8Zm-2.629-89.835a19.388,19.388,0,0,0-15.776,6.573,32.544,32.544,0,0,0-7.45,18.844h45.137V93.627c-.438-7.888-2.629-14.023-6.135-17.967-4.382-3.506-10.079-6.135-15.776-5.7Zm85.015-17.091.876,12.27A37.794,37.794,0,0,1,247.733,51.12c21.911,0,32.867,12.708,33.3,37.687v69.239H257.374V90.121c0-6.573-1.315-11.394-4.382-14.9-3.068-3.068-7.45-4.82-14.023-4.82A22.927,22.927,0,0,0,217.5,83.11v74.5H193.832V52.434l22.349.438Zm141.107,76.689a11,11,0,0,0-5.259-9.641,49.2,49.2,0,0,0-17.091-5.7,83.479,83.479,0,0,1-20.158-6.573c-11.832-5.7-17.529-14.023-17.529-24.54a29.07,29.07,0,0,1,11.394-22.788c7.45-6.135,17.529-9.2,28.923-9.2q19.063,0,30.237,9.2a29.071,29.071,0,0,1,11.394,24.1H355.536a14.754,14.754,0,0,0-5.259-11.394,18.859,18.859,0,0,0-13.585-4.382,22.343,22.343,0,0,0-12.708,3.506,11.638,11.638,0,0,0-4.82,9.641,9.972,9.972,0,0,0,4.382,8.326c3.068,2.191,9.2,3.944,18.405,6.135a80.989,80.989,0,0,1,21.911,7.45,29.237,29.237,0,0,1,11.832,10.079,28.075,28.075,0,0,1-7.888,37.249c-7.888,5.7-17.967,8.764-30.675,8.764-7.888,0-15.776-1.315-22.788-4.82a37.052,37.052,0,0,1-15.776-12.708,32.084,32.084,0,0,1-5.7-17.529h22.788a16.2,16.2,0,0,0,6.135,12.708,24.161,24.161,0,0,0,15.338,4.382c6.135,0,10.956-1.315,14.023-3.506a9.126,9.126,0,0,0,6.135-8.764Zm35.5-24.979c0-9.641,1.753-19.282,6.135-27.608A44.488,44.488,0,0,1,416.01,58.131c7.888-4.382,16.652-7.012,25.417-6.573,14.023,0,25.855,4.382,34.62,13.585s13.585,21.035,14.461,36.372v5.7a60.509,60.509,0,0,1-6.135,27.608,41.872,41.872,0,0,1-17.091,18.844c-7.888,4.382-16.652,7.012-25.855,6.573-14.9,0-26.732-4.82-35.5-14.9-8.764-9.641-13.147-22.788-13.585-39.44Zm23.226,2.191c0,10.956,2.191,19.282,6.573,25.417a23.588,23.588,0,0,0,32.867,4.382,20.776,20.776,0,0,0,4.382-4.382c4.382-6.135,6.573-15.338,6.573-27.17,0-10.517-2.191-18.844-7.012-25.417-7.45-10.079-21.911-12.27-32.428-4.82a47.985,47.985,0,0,0-4.82,4.382C418.64,85.3,416.01,94.5,416.01,106.774Zm145.051-31.99a71.658,71.658,0,0,0-9.641-.876c-10.956,0-17.967,3.944-21.911,12.27v71.868H505.846V52.872H528.2l.438,11.832c5.7-9.2,13.585-13.585,23.664-13.585a27.517,27.517,0,0,1,8.326,1.315l.438,22.349Zm98.6,23.226H602.693v60.036H578.152V16.938h89.836v19.72H602.693V78.728h56.969Zm46.89,60.036H682.888V16.5h23.664Zm17.091-53.463c0-9.641,1.753-19.282,6.135-27.608a44.489,44.489,0,0,1,17.091-18.844c7.888-4.382,16.652-7.012,25.417-6.573,14.023,0,25.855,4.382,34.62,13.585s13.585,21.035,14.461,36.372v5.7a66.327,66.327,0,0,1-5.7,27.608,41.872,41.872,0,0,1-17.091,18.844c-7.888,4.382-16.653,7.012-25.855,6.573-14.9,0-26.732-4.82-35.5-14.9-8.765-9.641-13.585-22.788-13.585-39.44Zm23.664,2.191c0,10.956,2.191,19.282,6.573,25.417a21.571,21.571,0,0,0,18.844,9.2,20.349,20.349,0,0,0,18.405-9.2c4.382-6.135,6.573-15.338,6.573-27.17,0-10.517-2.191-18.844-7.012-25.417-7.45-10.079-21.911-12.27-32.428-4.82a47.964,47.964,0,0,0-4.82,4.382C749.5,85.3,747.306,94.5,747.306,106.774Zm180.547,18.844,16.652-72.307h22.788L938.809,158.484H919.527L897.178,86.177l-22.349,72.307H855.547L826.624,53.311H849.85l17.091,71.868,21.473-71.868H906.38l21.473,72.307Z" transform="translate(280.386 39.572)" fill="#425066"/>
    </g>
  </g>
</svg>
