<svg id="Layer_1" data-name="Layer 1" xmlns="http://www.w3.org/2000/svg" viewBox="0 0 120 120"><defs><style>.cls-1{fill:#fff;}.cls-2{fill:#3952a4;}.cls-3{fill:#fbfafd;}.cls-4{fill:#fcfcfe;}.cls-5{fill:#fcfcfd;}</style></defs><path class="cls-1" d="M59.79,99.7c-18.91,0-37.81,0-56.72.06C.71,99.77,0,99.37,0,96.82q.18-41.5,0-83c0-2.33.39-3.05,3-3q57.19.15,114.4,0c2.36,0,3.09.39,3.08,2.94q-.18,41.51,0,83c0,3.15-1.19,3-3.51,3C97.92,99.67,78.85,99.7,59.79,99.7Z"/><path class="cls-2" d="M79.2,76.73c-5,1.42-8.36.63-9.14-4.78-.44-3-2.34-3.81-5.2-3.54a34.49,34.49,0,0,1-6.89,0c-5.25-.58-9.19.19-10.08,6.52-.55,3.95-4.36,2.56-6.4,2.1-2.85-.65-.51-2.84-.06-4.12C45.56,61.11,50,49.42,54,37.58c1.08-3.17,2.73-3.79,5.73-3.75,2.77,0,4.38.58,5.39,3.51C69.64,50.52,74.47,63.6,79.2,76.73Z"/><path class="cls-2" d="M4.88,55.52c0-6,.11-12-.06-18-.07-2.67.64-3.79,3.53-3.64,5.07.28,10.18-.06,15.22.39,7,.62,11.62,5.52,11.9,12,.28,6.26-3.78,11-10.52,12.73-3.41.85-6.84.68-10.27.61-2.11,0-2.89.6-2.81,2.76.14,4.05-.12,8.12.09,12.16.14,2.72-1.33,2.81-3.33,2.72s-3.92.47-3.81-2.75C5,68.19,4.88,61.85,4.88,55.52Z"/><path class="cls-2" d="M96.73,33.79c3.11.16,6.26.08,9.32.54,6.51,1,10.65,5.63,11,11.89s-3.49,10.94-9.94,12.68a32.88,32.88,0,0,1-10.26.71c-2.62-.13-3.45.78-3.31,3.32.19,3.4,0,6.82.07,10.23.09,2.51,0,4.23-3.48,4.21-3.34,0-3.65-1.38-3.62-4.06.11-11.54.2-23.08,0-34.61-.08-3.82,1-5.35,4.9-4.82a40.65,40.65,0,0,0,5.41,0Z"/><path class="cls-3" d="M59.57,42.21c2.27,6.42,4.07,11.77,6.07,17,.92,2.42.75,3.56-2.27,3.4-3.4-.18-6.83,0-11,0C54.72,56,56.92,49.74,59.57,42.21Z"/><path class="cls-4" d="M11.93,46.38c-.25-4-.94-7.66,5.57-7,7.46.7,10.56,2.21,10.63,7.25.07,5.21-3,6.67-10.87,7.38C9.86,54.63,12.27,49.82,11.93,46.38Z"/><path class="cls-5" d="M93.54,46.78c.11-8-1-7.23,5.67-7.27,7.53,0,10.42,2,10.45,7.14,0,5.36-2.74,6.6-10.8,7.33C91.9,54.61,93.72,50.3,93.54,46.78Z"/></svg>