<svg id="Layer_1" data-name="Layer 1" xmlns="http://www.w3.org/2000/svg" viewBox="0 0 120 120"><defs><style>.cls-1{fill:#020202;}.cls-2{fill:#010101;}.cls-3{fill:#030303;}.cls-4{fill:#080a09;}.cls-5{fill:#4d4d4d;}.cls-6{fill:#4c4c4c;}.cls-7{fill:#3bb54a;}.cls-8{fill:#0d0e0e;}.cls-9{fill:#f0efef;}.cls-10{fill:#121212;}</style></defs><path class="cls-1" d="M77.18,50c.93,0,1.83,0,2.74,0,.09,0,.2.11.25.2q2.73,4,5.44,8.09L88.81,63a1.83,1.83,0,0,0,.15.21V50h2.19V66.09h-.64c-.63,0-1.25,0-1.87,0a.45.45,0,0,1-.42-.23L79.61,53.15l-.25-.35V66.08H77.18Z"/><path class="cls-1" d="M27,66.09H24.58c-.17,0-.21-.08-.26-.21-.48-1.18-1-2.35-1.43-3.53a.32.32,0,0,0-.36-.23H15.37a.32.32,0,0,0-.37.26c-.46,1.17-.94,2.33-1.41,3.51a.26.26,0,0,1-.29.2H11c.19-.42.36-.81.53-1.2q3.25-7.35,6.49-14.7A.3.3,0,0,1,18.3,50c.51,0,1,0,1.52,0a.3.3,0,0,1,.33.23q3.12,7.31,6.26,14.61ZM15.89,60.18H22l-3-7.44Z"/><path class="cls-2" d="M62,56.84v2H54.37v5.18H63v2H52.18V50H62.57v2h-8.2v4.85Z"/><path class="cls-2" d="M75.08,50v2H66.87v4.84H74.5v2H66.87v5.18h8.61v2H64.67V50Z"/><path class="cls-1" d="M51.93,66.09H48.82a.5.5,0,0,1-.26-.18L42.08,59c-.25-.26-.49-.54-.75-.8A1.92,1.92,0,0,0,41,58v8.11H38.85V50H41v7a2.44,2.44,0,0,0,.34-.23l6-5.82.89-.86a.37.37,0,0,1,.23-.12H51.4l-7.8,7.44Z"/><path class="cls-3" d="M26.28,64.23l1.8-1.55a3.81,3.81,0,0,0,2.58,1.67,3.71,3.71,0,0,0,3-.61,2.35,2.35,0,0,0,.94-2.64,1.9,1.9,0,0,0-.54-.8,6.5,6.5,0,0,0-2.38-1.15c-.76-.27-1.55-.5-2.29-.84A4.2,4.2,0,0,1,27,55.8a4.53,4.53,0,0,1,3.17-6,7.57,7.57,0,0,1,5,.21,4.08,4.08,0,0,1,1.73,1.35L35.14,53h-.06a3.88,3.88,0,0,0-5-.82A2.33,2.33,0,0,0,30,55.91,11.09,11.09,0,0,0,32.67,57a13.9,13.9,0,0,1,2.13.79A3.83,3.83,0,0,1,37,62.09a4.82,4.82,0,0,1-4.28,4.27,7.61,7.61,0,0,1-4.49-.54A4.65,4.65,0,0,1,26.28,64.23Z"/><path class="cls-4" d="M105.52,68c-.22-.35-.42-.7-.65-1a25.28,25.28,0,0,0-3.68-4.12c-1.49-1.39-3-2.75-4.53-4.13a12.46,12.46,0,0,1-3-3.76A8.79,8.79,0,0,1,93,48.46a7,7,0,0,1,12-2.3l.43.5.08,0c.17-.18.34-.37.5-.56a6.84,6.84,0,0,1,6-2.51,6.91,6.91,0,0,1,6.36,6.21,9,9,0,0,1-1.94,6.47,25.79,25.79,0,0,1-3.27,3.42c-1.37,1.27-2.77,2.51-4.11,3.82a18.83,18.83,0,0,0-3.42,4.32A.6.6,0,0,1,105.52,68Zm11.93-17.39a7.15,7.15,0,0,0-.38-2.18A6.31,6.31,0,0,0,111,44.55a5.52,5.52,0,0,0-4.28,2.36,2.92,2.92,0,0,0-.73,1.65c0,.3-.2.33-.4.33s-.38,0-.42-.32a2.32,2.32,0,0,0-.27-.94,6,6,0,0,0-10.06-.71,6.19,6.19,0,0,0-1.2,4.69,8.84,8.84,0,0,0,1.64,4.15A23.09,23.09,0,0,0,98.37,59c1.47,1.37,3,2.69,4.42,4.09.82.8,1.54,1.7,2.3,2.55.36.39.54.37.86,0s.67-.85,1-1.26a65.56,65.56,0,0,1,4.92-4.8c1.17-1.08,2.34-2.17,3.41-3.35A8.08,8.08,0,0,0,117.45,50.56Z"/><path class="cls-1" d="M9,66.08H6.8V52H1.61V50H14.17v2H9Z"/><path class="cls-5" d="M42.65,76.15H41.38V69.91h-.06L39,76.14l-.05,0c-.29,0-.65.1-.86,0s-.25-.5-.35-.77l-1.92-5.23a.49.49,0,0,0-.13-.2v6.21H34.42V68.51h1a4.85,4.85,0,0,0,.66,0c.34-.05.47.1.58.4.58,1.56,1.18,3.11,1.77,4.67,0,.07.07.14.12.26.34-.86.65-1.67,1-2.49s.68-1.75,1-2.63c.06-.16.13-.22.3-.21h1.83Z"/><path class="cls-5" d="M112.61,76.15h-1.34V68.51c.56,0,1.13,0,1.69,0,.08,0,.18.11.23.2q1.69,2.57,3.37,5.15l.22.31V68.53h1.36v7.63c-.54,0-1.09,0-1.64,0-.07,0-.16-.13-.21-.21l-3.47-5.35a.55.55,0,0,0-.21-.22Z"/><path class="cls-5" d="M58.39,76.16c-.54,0-1.06,0-1.58,0-.09,0-.21-.12-.27-.21l-3.47-5.35a.59.59,0,0,0-.2-.22v5.77H51.52V68.51h1.72c.07,0,.15.12.2.19l3.37,5.15.22.32V68.53h1.36Z"/><path class="cls-5" d="M59.77,76.15V68.51h3.08a4.2,4.2,0,0,1,1.78.39,3.41,3.41,0,0,1,2,2.95,3.62,3.62,0,0,1-1.23,3.31,4,4,0,0,1-2.42,1C61.94,76.19,60.86,76.15,59.77,76.15ZM61.13,75c.78-.08,1.54-.1,2.27-.25a2.14,2.14,0,0,0,1.75-1.63,3.75,3.75,0,0,0,.07-1.25A2.14,2.14,0,0,0,63.75,70a7.44,7.44,0,0,0-2.62-.22Z"/><path class="cls-6" d="M14.46,68.52h1.33v3h3.6v-3h1.35v7.62H19.39V72.76H15.82v3.38H14.46Z"/><path class="cls-5" d="M90.08,76.16c-.64,0-1.22,0-1.79,0A.51.51,0,0,1,88,76l-2.91-3.27-.32-.35v3.77H83.4V68.53h1.35v3.21l.11.08a1.1,1.1,0,0,1,.15-.26L87.8,68.7a.54.54,0,0,1,.45-.19h1.46l-3.42,3.57Z"/><path class="cls-5" d="M82.92,76.16c-.49,0-1,0-1.41,0a.33.33,0,0,1-.22-.18c-.22-.52-.43-1-.65-1.58H77.47a.32.32,0,0,0-.22.17c-.22.52-.41,1-.62,1.57H75.1a2.77,2.77,0,0,0,.1-.26q1.58-3.57,3.13-7.16a.29.29,0,0,1,.34-.22c.31,0,.69-.09.91,0s.29.53.41.82l2.82,6.52Zm-2.76-2.92L79,70.13l-1.19,3.11Z"/><path class="cls-5" d="M110.73,76.16c-.5,0-1,0-1.45,0a.33.33,0,0,1-.18-.17c-.19-.46-.39-.92-.57-1.39a.27.27,0,0,0-.3-.2h-2.89a.27.27,0,0,0-.3.22c-.19.52-.4,1-.61,1.54h-1.52c0-.1.06-.18.1-.26,1-2.38,2.09-4.77,3.13-7.16.07-.17.14-.25.33-.23s.7-.1.91,0,.3.54.42.83q1.4,3.21,2.78,6.42C110.63,75.92,110.67,76,110.73,76.16ZM108,73.24l-1.18-3.11-1.19,3.11Z"/><path class="cls-5" d="M29.05,76.16c-.48,0-.93,0-1.38,0a.3.3,0,0,1-.23-.16c-.2-.46-.39-.92-.58-1.39-.05-.13-.1-.2-.27-.2H23.65c-.17,0-.22.06-.27.2l-.61,1.56H21.25a2,2,0,0,1,.1-.29c1-2.36,2.07-4.73,3.1-7.09a.36.36,0,0,1,.42-.27c.24,0,.48,0,.72,0a.32.32,0,0,1,.23.16q1.61,3.69,3.2,7.38S29,76.11,29.05,76.16Zm-5.12-2.93H26.3l-1.18-3.1Z"/><path class="cls-5" d="M44.74,76.16H43.22c0-.1.07-.19.1-.28,1-2.38,2.09-4.76,3.12-7.15a.3.3,0,0,1,.34-.22c.31,0,.69-.09.91,0s.29.53.41.81l2.82,6.53.12.26c-.51,0-1,0-1.47,0-.06,0-.15-.12-.18-.2-.22-.51-.42-1-.63-1.55H45.57a.31.31,0,0,0-.21.18C45.15,75.11,45,75.63,44.74,76.16Zm3.54-2.91L47.1,70.13l-1.2,3.12h2.38Z"/><path class="cls-6" d="M13,71.59v1.2H9.54V75h3.89v1.2H8.18V68.53h5.05v1.18H9.54v1.88Z"/><path class="cls-5" d="M1.86,75.42l1-1.06a1.91,1.91,0,0,0,1.24.79,1.66,1.66,0,0,0,1.17-.23.9.9,0,0,0,0-1.58A9.32,9.32,0,0,0,4,72.81c-.26-.11-.53-.2-.79-.32A2.13,2.13,0,0,1,2.81,69,3.57,3.57,0,0,1,7,69l.1.1L6,70a1.73,1.73,0,0,0-1.74-.46.92.92,0,0,0-.8,1,.63.63,0,0,0,.34.61c.37.19.76.35,1.15.51s.61.19.9.33a2.24,2.24,0,0,1,.66,3.55A3.45,3.45,0,0,1,1.86,75.42Z"/><path class="cls-5" d="M97.84,69.09l-1,.94A1.73,1.73,0,0,0,95,69.56a.93.93,0,0,0-.8.94.65.65,0,0,0,.34.64c.38.19.77.35,1.16.51s.61.2.9.33a2.24,2.24,0,0,1,.69,3.51,3.43,3.43,0,0,1-4.71-.07l.94-1.06a1.91,1.91,0,0,0,1.64.81,1.22,1.22,0,0,0,1.22-.85.79.79,0,0,0-.34-.92,10.09,10.09,0,0,0-1.16-.53c-.32-.14-.66-.23-1-.38A2.13,2.13,0,0,1,93.57,69a3.56,3.56,0,0,1,4.17,0Z"/><path class="cls-6" d="M71.87,76.15H70.52V68.54l0,0c1.09,0,2.18,0,3.27.06a2.56,2.56,0,0,1,.93.24,2.17,2.17,0,0,1-1,4.09c-.63,0-1.27,0-1.93,0Zm0-4.3a17.28,17.28,0,0,0,1.8-.14.89.89,0,0,0,.81-.95.91.91,0,0,0-.81-1c-.58-.1-1.19-.09-1.8-.14Z"/><path class="cls-5" d="M104.19,69.72h-2.32v6.42h-1.38V69.73H98.13v-1.2h6.06Z"/><path class="cls-5" d="M30.11,69.72H27.76V68.53h6.06v1.18H31.48v6.44H30.11Z"/><path class="cls-5" d="M90.41,76.14V68.53h1.35v7.61Z"/><path class="cls-7" d="M117.45,50.56a8.08,8.08,0,0,1-2.15,5.62c-1.07,1.18-2.24,2.27-3.41,3.35a65.56,65.56,0,0,0-4.92,4.8q-.52.61-1,1.26c-.32.41-.5.43-.86,0-.76-.85-1.48-1.75-2.3-2.55-1.44-1.4-3-2.72-4.42-4.09a23.09,23.09,0,0,1-3.1-3.23,8.84,8.84,0,0,1-1.64-4.15,6.19,6.19,0,0,1,1.2-4.69,6,6,0,0,1,10.06.71,2.32,2.32,0,0,1,.27.94c0,.29.22.32.42.32s.4,0,.4-.33a2.92,2.92,0,0,1,.73-1.65A5.52,5.52,0,0,1,111,44.55a6.31,6.31,0,0,1,6.08,3.83A7.15,7.15,0,0,1,117.45,50.56ZM99.63,55.32A1.56,1.56,0,0,0,102,55a.83.83,0,0,1,.3-.23A2,2,0,0,0,103.55,53a.69.69,0,0,1,.25-.52,2,2,0,0,0,.49-2.19,1.73,1.73,0,0,1-.19-.89,2.15,2.15,0,0,0-1.51-1.86.93.93,0,0,1-.41-.26,1.82,1.82,0,0,0-2.1-.6,1,1,0,0,1-.91,0,1.64,1.64,0,0,0-2.06.7.48.48,0,0,1-.23.17,1.44,1.44,0,0,0-1,.86.57.57,0,0,1-.16.22,1.85,1.85,0,0,0-.51,2.41.86.86,0,0,1,0,.63,2,2,0,0,0,1.27,2.46.47.47,0,0,1,.33.35,1.55,1.55,0,0,0,.29.52A1.89,1.89,0,0,0,99.63,55.32Z"/><path class="cls-8" d="M99.63,55.32a1.89,1.89,0,0,1-2.49-.3,1.55,1.55,0,0,1-.29-.52.47.47,0,0,0-.33-.35,2,2,0,0,1-1.27-2.46.86.86,0,0,0,0-.63,1.85,1.85,0,0,1,.51-2.41.57.57,0,0,0,.16-.22,1.44,1.44,0,0,1,1-.86.48.48,0,0,0,.23-.17,1.64,1.64,0,0,1,2.06-.7,1,1,0,0,0,.91,0,1.82,1.82,0,0,1,2.1.6.93.93,0,0,0,.41.26,2.15,2.15,0,0,1,1.51,1.86,1.73,1.73,0,0,0,.19.89,2,2,0,0,1-.49,2.19.69.69,0,0,0-.25.52,2,2,0,0,1-1.22,1.75.83.83,0,0,0-.3.23A1.56,1.56,0,0,1,99.63,55.32ZM99.36,54a2.49,2.49,0,0,1-.5.07c-.23,0-.34.08-.35.31s-.12.32-.32.29-.28-.21-.22-.39a.63.63,0,0,0-.17-.79.07.07,0,0,1,0-.07c0-.11,0-.27.09-.32s.23,0,.34,0,.1.1.15.16.36.33.62.23a.59.59,0,0,0,.4-.6V51a.56.56,0,0,0-.32-.5.58.58,0,0,0-.85.23,4,4,0,0,1-.57.65.31.31,0,0,1-.5,0c-.12-.21,0-.33.19-.42.37-.22.27-.45,0-.64a.93.93,0,0,0-.6-.08c-.2,0-.37.07-.45-.16s.11-.33.29-.39a1.17,1.17,0,0,1,1.26.31c.09.09.15.17.3.07a1.2,1.2,0,0,1,1-.1l.25.06a3.36,3.36,0,0,1,0-.45c0-.22-.05-.32-.27-.39a1.42,1.42,0,0,1-.86-.77c-.15-.32-.13-.52.07-.59s.35.14.44.32a.9.9,0,0,0,.6.52c0-.27,0-.49,0-.71a.69.69,0,0,0-.74-.78.86.86,0,0,0-.94,1.24,2,2,0,0,0,.26.44c.11.15.17.3,0,.44a.28.28,0,0,1-.43-.08,5.14,5.14,0,0,1-.41-.77c-.11-.27-.17-.31-.41-.12a.75.75,0,0,0-.16.18c.12.16.29.29.29.41s-.25.2-.44.2a.72.72,0,0,0-.65.38,1.3,1.3,0,0,0-.08,1.17c.07.19.16.24.35.14a3.16,3.16,0,0,1,.43-.16c.2-.07.39,0,.45.17s-.11.32-.29.35a1.09,1.09,0,0,0-.82,1.37A1.37,1.37,0,0,0,97,53.68c.22,0,.35.12.38.36a1.18,1.18,0,0,0,1.7.92.62.62,0,0,0,.3-.34A2.87,2.87,0,0,0,99.36,54Zm.58-1.83c0,.4,0,.77,0,1.14,0,.06.11.15.19.17a1.27,1.27,0,0,1,.83.48c.12.15.16.3,0,.44s-.29.06-.43-.06a2.44,2.44,0,0,0-.43-.28.18.18,0,0,0-.17.06.81.81,0,0,0,.4,1,1,1,0,0,0,1.09-.26.9.9,0,0,0,.16-1.07c-.17-.34-.37-.65-.84-.63-.08,0-.17-.18-.26-.28a3.61,3.61,0,0,1,.3-.25.31.31,0,0,1,.21,0c.4.15.73.12.89-.34l0,0c.13,0,.28-.11.36-.06a.37.37,0,0,1,.11.34,5.09,5.09,0,0,1-.32.54c0,.06-.08.15-.06.2.09.27.21.54.33.81a1.31,1.31,0,0,0,.63-1.3.48.48,0,0,1,.3-.61,1.36,1.36,0,0,0,.43-1.77.8.8,0,0,1-.17-.75,1.42,1.42,0,0,0-1-1.48.36.36,0,0,0,0,.09.83.83,0,0,1-1.27.62.47.47,0,0,0-.53.09c-.15.13-.31.18-.45,0s0-.32.11-.45a.6.6,0,0,1,.13-.09c.22-.1.35-.21.18-.48,0-.06,0-.25.12-.31s.23,0,.29.08a1,1,0,0,1,.17.37c.06.2.28.38.46.33s.23-.28.19-.47a1.23,1.23,0,0,0-1.4-.8.57.57,0,0,0-.51.59c0,.48,0,1,0,1.45a.3.3,0,0,0,.17.21c.26.1.52.17.78.25.07,0,.16.06.21,0a3.69,3.69,0,0,0,1.29-.59.36.36,0,0,1,.35,0c.07.06.07.24.05.36s-.1.16-.16.24l.26.34a.27.27,0,0,1,0,.43c-.17.13-.31.05-.41-.1a.69.69,0,0,0-.82-.29.58.58,0,0,0-.45.59.26.26,0,0,1-.3.28c-.2,0-.27-.16-.26-.36,0-.42,0-.53-.45-.6-.17,0-.24,0-.23.2,0,.33,0,.66,0,1a.36.36,0,0,0,.3.4,1.08,1.08,0,0,0,1.33-.73c.15-.39.25-.41.6-.18s.57.41.91,0a.27.27,0,0,1,.41,0c.14.16.07.3-.07.4a.44.44,0,0,0-.19.5c0,.09-.11.27-.21.31s-.22-.1-.32-.17,0-.13-.05-.15a2.65,2.65,0,0,0-.55-.3s-.17.1-.23.17a1.46,1.46,0,0,1-1.32.66Z"/><path class="cls-9" d="M99.36,54a2.87,2.87,0,0,1,0,.66.62.62,0,0,1-.3.34,1.18,1.18,0,0,1-1.7-.92c0-.24-.16-.32-.38-.36a1.37,1.37,0,0,1-1.21-1.18,1.09,1.09,0,0,1,.82-1.37c.18,0,.36-.12.29-.35s-.25-.24-.45-.17a3.16,3.16,0,0,0-.43.16c-.19.1-.28,0-.35-.14a1.3,1.3,0,0,1,.08-1.17.72.72,0,0,1,.65-.38c.19,0,.42.06.44-.2s-.17-.25-.29-.41a.75.75,0,0,1,.16-.18c.24-.19.3-.15.41.12a5.14,5.14,0,0,0,.41.77.28.28,0,0,0,.43.08c.17-.14.11-.29,0-.44a2,2,0,0,1-.26-.44.86.86,0,0,1,.94-1.24.69.69,0,0,1,.74.78c0,.22,0,.44,0,.71a.9.9,0,0,1-.6-.52c-.09-.18-.14-.43-.44-.32s-.22.27-.07.59a1.42,1.42,0,0,0,.86.77c.22.07.3.17.27.39a3.36,3.36,0,0,0,0,.45l-.25-.06a1.2,1.2,0,0,0-1,.1c-.15.1-.21,0-.3-.07a1.17,1.17,0,0,0-1.26-.31c-.18.06-.36.16-.29.39s.25.2.45.16a.93.93,0,0,1,.6.08c.3.19.4.42,0,.64-.16.09-.31.21-.19.42a.31.31,0,0,0,.5,0,4,4,0,0,0,.57-.65.58.58,0,0,1,.85-.23.56.56,0,0,1,.32.5v1.85a.59.59,0,0,1-.4.6c-.26.1-.45-.06-.62-.23s-.09-.15-.15-.16-.26-.07-.34,0-.07.21-.09.32a.07.07,0,0,0,0,.07.63.63,0,0,1,.17.79c-.06.18,0,.36.22.39s.3-.1.32-.29.12-.32.35-.31A2.49,2.49,0,0,0,99.36,54ZM96.8,52.39c0,.11-.08.18-.1.26s-.1.4.14.49.32-.09.39-.28.41-.36.69-.41.37.08.49.27.22.24.39.13a.25.25,0,0,0,.07-.42.64.64,0,0,1-.08-.75,1.05,1.05,0,0,0,.06-.24.25.25,0,0,0-.21-.33.25.25,0,0,0-.33.24.56.56,0,0,1-.57.55,1.11,1.11,0,0,0-.26.07A.56.56,0,0,1,97,52a1.25,1.25,0,0,0-.58-.05.3.3,0,0,0-.18.25c0,.08.14.17.23.21A1.38,1.38,0,0,0,96.8,52.39Z"/><path class="cls-9" d="M99.94,52.13l.59,0a1.46,1.46,0,0,0,1.32-.66c.06-.07.18-.19.23-.17a2.65,2.65,0,0,1,.55.3s0,.12.05.15.25.2.32.17.23-.22.21-.31a.44.44,0,0,1,.19-.5c.14-.1.21-.24.07-.4a.27.27,0,0,0-.41,0c-.34.37-.62.15-.91,0s-.45-.21-.6.18a1.08,1.08,0,0,1-1.33.73.36.36,0,0,1-.3-.4c0-.33,0-.66,0-1,0-.17.06-.22.23-.2.4.07.49.18.45.6,0,.2.06.33.26.36a.26.26,0,0,0,.3-.28.58.58,0,0,1,.45-.59.69.69,0,0,1,.82.29c.1.15.24.23.41.1a.27.27,0,0,0,0-.43l-.26-.34c.06-.08.15-.16.16-.24s0-.3-.05-.36a.36.36,0,0,0-.35,0,3.69,3.69,0,0,1-1.29.59s-.14,0-.21,0c-.26-.08-.52-.15-.78-.25a.3.3,0,0,1-.17-.21c0-.48,0-1,0-1.45a.57.57,0,0,1,.51-.59,1.23,1.23,0,0,1,1.4.8c0,.19.07.4-.19.47s-.4-.13-.46-.33a1,1,0,0,0-.17-.37c-.06-.07-.24-.12-.29-.08s-.16.25-.12.31c.17.27,0,.38-.18.48a.6.6,0,0,0-.13.09c-.15.13-.26.26-.11.45s.3.13.45,0a.47.47,0,0,1,.53-.09.83.83,0,0,0,1.27-.62.36.36,0,0,1,0-.09,1.42,1.42,0,0,1,1,1.48.8.8,0,0,0,.17.75,1.36,1.36,0,0,1-.43,1.77.48.48,0,0,0-.3.61,1.31,1.31,0,0,1-.63,1.3c-.12-.27-.24-.54-.33-.81,0-.05,0-.14.06-.2a5.09,5.09,0,0,0,.32-.54.37.37,0,0,0-.11-.34c-.08-.05-.23,0-.36.06l0,0c-.16.46-.49.49-.89.34a.31.31,0,0,0-.21,0,3.61,3.61,0,0,0-.3.25c.09.1.18.29.26.28.47,0,.67.29.84.63a.9.9,0,0,1-.16,1.07,1,1,0,0,1-1.09.26.81.81,0,0,1-.4-1,.18.18,0,0,1,.17-.06,2.44,2.44,0,0,1,.43.28c.14.12.28.2.43.06s.12-.29,0-.44a1.27,1.27,0,0,0-.83-.48c-.08,0-.19-.11-.19-.17C99.93,52.9,99.94,52.53,99.94,52.13Z"/><path class="cls-10" d="M96.8,52.39a1.38,1.38,0,0,1-.37,0c-.09,0-.23-.13-.23-.21a.3.3,0,0,1,.18-.25A1.25,1.25,0,0,1,97,52a.56.56,0,0,0,.52,0,1.11,1.11,0,0,1,.26-.07.56.56,0,0,0,.57-.55.25.25,0,0,1,.33-.24.25.25,0,0,1,.21.33,1.05,1.05,0,0,1-.06.24.64.64,0,0,0,.08.75.25.25,0,0,1-.07.42c-.17.11-.3,0-.39-.13s-.26-.32-.49-.27-.58.08-.69.41-.15.36-.39.28-.2-.3-.14-.49S96.76,52.5,96.8,52.39Z"/></svg>