<svg xmlns="http://www.w3.org/2000/svg" xmlns:xlink="http://www.w3.org/1999/xlink" width="1080" height="1080" viewBox="0 0 1080 1080">
  <defs>
    <clipPath id="clip-_13">
      <rect width="1080" height="1080"/>
    </clipPath>
  </defs>
  <g id="_13" data-name="13" clip-path="url(#clip-_13)">
    <g id="Scikit_learn_logo_small" transform="translate(0 249)">
      <g id="g3" transform="translate(0 0)">
        <path id="path5" d="M682.989,715.194c131.9-131.893,153.822-323.806,48.961-428.66C627.1,181.693,435.2,203.611,303.306,335.5s-93.739,383.866-48.953,428.659c36.191,36.191,296.752,82.924,428.636-48.961Z" transform="translate(145.4 -220.26)" fill="#f89939"/>
        <path id="path7" d="M407.789,348.109c-76.518-76.518-187.875-89.256-248.725-28.41-60.835,60.839-48.116,172.212,28.418,248.718,76.533,76.541,222.742,54.4,248.71,28.41C457.205,575.847,484.33,424.634,407.789,348.109Z" transform="translate(-120.609 -43.756)" fill="#3499cd"/>
      </g>
      <g id="g9" transform="translate(450.968 282.715)">
        <g id="g11">
          <path id="path13" d="M336.634,472.746q-20.276,18.664-35.568,27.526-15.288,8.879-29.161,8.875-15.959,0-25.73-12.377t-9.767-33.27q0-31.317,13.576-75.166a477.278,477.278,0,0,1,32.958-80.852l37.889-14.028a9.49,9.49,0,0,1,2.691-.6c2.874,0,5.25,2.119,7.072,6.336q2.763,6.356,2.769,17.089A131.78,131.78,0,0,1,319.335,375.2q-14.032,28.5-43.851,60.858-1.2,15.515-1.2,21.33,0,12.986,4.771,20.582c3.186,5.082,7.407,7.606,12.68,7.606q8.067,0,17.159-5.8,9.084-5.83,27.732-24.173v17.147ZM279.51,414.435a182.008,182.008,0,0,0,30.731-47.2q11.777-26.141,11.773-44.977a20.5,20.5,0,0,0-1.628-8.871c-1.094-2.239-2.5-3.365-4.183-3.365q-5.5,0-16.033,27.483-10.521,27.479-20.66,76.934Z" transform="translate(-236.407 -292.855)" fill="#010101"/>
          <path id="path15" d="M374.38,408.554q-18.939,18.664-34.006,27.526a64.288,64.288,0,0,1-33.262,8.875q-20.288,0-32.752-12.968-12.449-13-12.443-34.166,0-31.615,21.937-57.2,21.906-25.592,48.618-25.586,13.874,0,22.226,7.166t8.353,18.794q0,30.885-65.629,50.117,5.958,29.074,31.171,29.087a36.4,36.4,0,0,0,18.787-5.285q8.967-5.3,27-23.5v17.143Zm-78.161-27.588q38.175-10.749,38.185-39.676,0-14.318-10.437-14.316-9.849,0-18.787,14.994-8.973,14.984-8.961,39Z" transform="translate(-162.57 -228.663)" fill="#010101"/>
          <path id="path17" d="M451.429,408.994q-23.869,22.671-34.154,29.551-10.293,6.858-19.694,6.854-23.571,0-22.226-41.616-14.914,21.322-27.526,31.483Q335.235,445.407,321.8,445.4q-13.109,0-22.3-12.3t-9.168-30.213q0-22.362,12.291-42.663a101.255,101.255,0,0,1,31.553-32.807q19.237-12.53,34.006-12.536,18.652,0,26.112,17.151l30.486-16.847h8.365l-13.167,43.7q-10.141,32.976-10.153,45.2,0,12.822,9.1,12.824,5.795,0,12.817-6.192t19.679-18.872v17.147Zm-109.188,8.213q14.914,0,28.129-25.427t13.2-46.924c0-5.561-1.254-9.919-3.727-13.046a12.1,12.1,0,0,0-9.993-4.7q-14.925,0-28.266,25.36t-13.358,46.678q0,8.068,3.957,13.062a12.258,12.258,0,0,0,10.059,5Z" transform="translate(-80.314 -229.102)" fill="#010101"/>
          <path id="path19" d="M445.674,408.771q-37.445,36.691-57.731,36.7-9.107,0-15.364-7.668-6.251-7.688-6.266-19.032,0-21.03,22.529-56.38a83.172,83.172,0,0,1-24.165,7.9q-9.7,17.9-30.431,38.473h-3.423V395.358a195.61,195.61,0,0,0,21.03-25.96q-12.846-5.672-12.832-16.847,0-11.5,7.836-24.554t21.556-13.039q11.637,0,11.629,11.925,0,9.4-6.718,26.852,24.757-2.693,43.263-37.889l13.568-.6-13.872,38.185q-8.646,24.167-11.181,32.9a56.343,56.343,0,0,0-2.539,15.434c0,4.183.974,7.524,2.905,9.993a9.384,9.384,0,0,0,7.835,3.735,17.11,17.11,0,0,0,10.293-3.645q4.919-3.686,22.081-20.224v17.151Z" transform="translate(36.873 -228.879)" fill="#010101"/>
          <path id="path21" d="M507.913,408.991q-34.454,36.417-59.071,36.4-10,0-16.111-7.014T426.609,419.6q0-15.959,13.136-48.77,7-17.607,7.014-22.377c0-3.186-1.254-4.778-3.727-4.778-1.39,0-3.24.7-5.522,2.083a67.863,67.863,0,0,0-7.318,5.826q-3.721,3.423-8.353,8.338-4.037,4.212-8.642,9.553l-8.365,9.7a30.779,30.779,0,0,0-6.854,14.164,225.672,225.672,0,0,0-2.991,23.285q-.456,7.886-.448,21.33L361.573,445.7q-1.63-20.136-1.643-29.975a179.613,179.613,0,0,1,5.6-45.495q5.59-21.5,17.973-48.338l36.39-7.006q-11.479,30.885-15.06,48.618,24.465-27.292,38.823-37.811t25.536-10.5a16.184,16.184,0,0,1,12.657,5.729,20.9,20.9,0,0,1,5.067,14.367q0,14.306-12.816,47.138-8.809,22.514-8.809,29.247,0,8.979,7.326,8.977,10.906,0,35.3-28.791Z" transform="translate(121.118 -229.1)" fill="#010101"/>
        </g>
      </g>
      <text id="text25" transform="translate(597.143 316.349)" fill="#fff" font-size="87" font-family="ArialMT, Arial"><tspan x="0" y="0">scikit</tspan></text>
    </g>
  </g>
</svg>
