<svg id="Layer_1" data-name="Layer 1" xmlns="http://www.w3.org/2000/svg" viewBox="0 0 120 120"><defs><style>.cls-1{fill:#2992ca;}.cls-2{fill:#2990ce;}.cls-3{fill:#2894c9;}.cls-4{fill:#29aa93;}.cls-5{fill:#2ab27d;}.cls-6{fill:#2995c5;}.cls-7{fill:#2ba59c;}.cls-8{fill:#2aab8f;}.cls-9{fill:#2ba69a;}.cls-10{fill:#2db37a;}.cls-11{fill:#2795c2;}.cls-12{fill:#2db674;}.cls-13{fill:#28b081;}.cls-14{fill:#2cb477;}.cls-15{fill:#2cb478;}.cls-16{fill:#28af84;}.cls-17{fill:#29ad88;}.cls-18{fill:#2bb17f;}.cls-19{fill:#299fab;}.cls-20{fill:#2aa0a7;}.cls-21{fill:#2eb477;}.cls-22{fill:#2a9aba;}.cls-23{fill:#2796c0;}.cls-24{fill:#2aa897;}.cls-25{fill:#2a9bb7;}.cls-26{fill:#2bb479;}.cls-27{fill:#28a2a3;}.cls-28{fill:#2ba49f;}.cls-29{fill:#2a9cb4;}.cls-30{fill:#29ad89;}.cls-31{fill:#29ae86;}.cls-32{fill:#29a1a5;}.cls-33{fill:#29a3a0;}.cls-34{fill:#2994c8;}.cls-35{fill:#2b9cb1;}.cls-36{fill:#2aa49f;}.cls-37{fill:#29ac8e;}.cls-38{fill:#29ac8b;}.cls-39{fill:#2a9cb3;}.cls-40{fill:#2ab082;}.cls-41{fill:#2ba49e;}.cls-42{fill:#2a9bb6;}.cls-43{fill:#28a1a5;}.cls-44{fill:#2aab90;}.cls-45{fill:#29ab8e;}.cls-46{fill:#2a9eaf;}.cls-47{fill:#2aa995;}.cls-48{fill:#28a799;}.cls-49{fill:#2ab676;}.cls-50{fill:#2aa799;}.cls-51{fill:#28a2a2;}.cls-52{fill:#2996c3;}.cls-53{fill:#29a1a6;}.cls-54{fill:#29a897;}.cls-55{fill:#2b9db3;}.cls-56{fill:#2993ca;}.cls-57{fill:#2a9ab9;}.cls-58{fill:#2b9fa9;}.cls-59{fill:#2998bc;}.cls-60{fill:#2c9fae;}.cls-61{fill:#2a91cc;}.cls-62{fill:#2b9aba;}.cls-63{fill:#2fb477;}.cls-64{fill:#2b90cf;}.cls-65{fill:#2997be;}.cls-66{fill:#29a2a2;}.cls-67{fill:#2aa1a6;}.cls-68{fill:#29a2a4;}.cls-69{fill:#2a9fae;}.cls-70{fill:#2b9eb0;}.cls-71{fill:#29a2a3;}.cls-72{fill:#2a9fad;}.cls-73{fill:#2b9db1;}.cls-74{fill:#2aac8e;}.cls-75{fill:#2ca79b;}.cls-76{fill:#2899bc;}.cls-77{fill:#2896c2;}.cls-78{fill:#2b9db0;}.cls-79{fill:#29ad8a;}.cls-80{fill:#2b9bb6;}.cls-81{fill:#3aaf92;}.cls-82{fill:#2bab93;}.cls-83{fill:#41a7b4;}.cls-84{fill:#2b9bb8;}.cls-85{fill:#289cb1;}.cls-86{fill:#2aa1a8;}.cls-87{fill:#2897be;}.cls-88{fill:#39b287;}.cls-89{fill:#2ba4a1;}.cls-90{fill:#28a3a1;}.cls-91{fill:#3cb095;}.cls-92{fill:#289ab9;}.cls-93{fill:#3eaaa5;}.cls-94{fill:#3ead9e;}.cls-95{fill:#2b9fae;}.cls-96{fill:#3db096;}.cls-97{fill:#2ca799;}.cls-98{fill:#29a0a8;}.cls-99{fill:#2ba899;}.cls-100{fill:#2aac8b;}.cls-101{fill:#2eac94;}.cls-102{fill:#3db28f;}.cls-103{fill:#40b38f;}.cls-104{fill:#2a9eb0;}.cls-105{fill:#29a995;}.cls-106{fill:#2ba59b;}.cls-107{fill:#2da59f;}.cls-108{fill:#2b9eaf;}.cls-109{fill:#2b9db4;}.cls-110{fill:#28a1a6;}.cls-111{fill:#3cae99;}.cls-112{fill:#41b48d;}.cls-113{fill:#3eb193;}.cls-114{fill:#45aaac;}.cls-115{fill:#2897bd;}.cls-116{fill:#2896c3;}.cls-117{fill:#2a9db3;}.cls-118{fill:#2bae87;}.cls-119{fill:#2799bc;}.cls-120{fill:#47a8b4;}.cls-121{fill:#299ab9;}.cls-122{fill:#2aa0a8;}.cls-123{fill:#40a7a8;}.cls-124{fill:#51abbb;}.cls-125{fill:#40aba3;}.cls-126{fill:#49b19d;}.cls-127{fill:#32a7a1;}.cls-128{fill:#43aba7;}.cls-129{fill:#299faa;}.cls-130{fill:#2894c4;}.cls-131{fill:#fff;}.cls-132{fill:#fefefe;}.cls-133{fill:#2bb27d;}.cls-134{fill:#29ab90;}.cls-135{fill:#2aab8d;}.cls-136{fill:#29b082;}.cls-137{fill:#4fb19c;}.cls-138{fill:#37a1b2;}.cls-139{fill:#2cb577;}.cls-140{fill:#2bb27c;}.cls-141{fill:#29ab91;}</style></defs><path class="cls-1" d="M10.64,72.09A11.76,11.76,0,0,1,9.88,70c-.38-1.17-.74-2.35-1-3.55a2.41,2.41,0,0,1-.07-.53c0-.06-.06-.13,0-.18s.15,0,.19.06a15.41,15.41,0,0,0,1.94,1.76c.7.66,1.44,1.26,2.16,1.89,1.27,1.09,2.51,2.22,3.79,3.29s2.34,2,3.53,3c1.38,1.16,2.74,2.34,4.1,3.52,1.06.93,2.13,1.85,3.19,2.79S29.86,84,30.92,84.9,33,86.69,34,87.59c1.78,1.53,3.55,3.08,5.33,4.62l4.78,4.14c1.59,1.39,3.18,2.78,4.79,4.15,1,.88,2,1.77,3.07,2.62a12.8,12.8,0,0,1,1.44,1.32c.2.21.26.39-.12.45-.13,0-.25,0-.37-.06-.64-.15-1.29-.23-1.93-.32a2.58,2.58,0,0,1-.78-.16c-.84-.25-1.7-.38-2.55-.6-1.08-.28-2.15-.59-3.22-.89.08-.5.2-.56.82-.31-1.2-1-2.35-2-3.52-3-1.72-1.46-3.41-2.94-5.11-4.42-1.38-1.19-2.76-2.37-4.12-3.57s-2.55-2.17-3.8-3.28c-.88-.79-1.78-1.56-2.68-2.33S24,84.12,23,83.28s-1.87-1.66-2.83-2.46c-1.35-1.14-2.63-2.37-4-3.49-1.16-1-2.23-2-3.41-2.91A8.82,8.82,0,0,1,10.64,72.09Z"/><path class="cls-2" d="M10.64,72.09c0-.08.07-.25.16-.08a6.35,6.35,0,0,0,1.67,2c1.07.87,2,1.89,3.12,2.75s2.17,1.89,3.28,2.81q1.95,1.64,3.87,3.32c1,.87,2,1.8,3,2.65s2.27,1.93,3.4,2.92,2.05,1.75,3.05,2.65c1.29,1.17,2.67,2.25,4,3.4,1.1,1,2.21,1.94,3.32,2.91s2.05,1.79,3.1,2.66,1.92,1.66,2.91,2.53c-.32.24-.79-.41-1,.16a2.33,2.33,0,0,1-1.16-.27,54.49,54.49,0,0,1-8.57-3.68,56.32,56.32,0,0,1-5.38-3.23c-1.44-1-2.84-2-4.18-3.17C23.52,91,22,89.54,20.48,88a37.79,37.79,0,0,1-3.68-4.4,48.93,48.93,0,0,1-5.33-9.29,1.29,1.29,0,0,1,0-.19c-.1-.19,0-.46-.26-.59-.08-.22-.25-.4-.24-.65a1,1,0,0,0-.17-.42A.53.53,0,0,1,10.64,72.09Z"/><path class="cls-3" d="M53.34,104.81c.2,0,.22-.13.07-.25-.34-.31-.7-.61-1-.93-1-.93-2.07-1.78-3.1-2.69-.78-.7-1.6-1.38-2.4-2.07s-1.55-1.37-2.33-2-1.29-1.17-2-1.67a10.79,10.79,0,0,1-1.07-1c-1.33-1.2-2.7-2.35-4.05-3.54-.79-.69-1.59-1.38-2.41-2-1-.85-2-1.83-3-2.66-.83-.66-1.55-1.43-2.4-2.07a11.44,11.44,0,0,1-1.29-1.14,14.64,14.64,0,0,0-1.19-1c-.53-.41-1-.87-1.53-1.31-.76-.67-1.54-1.31-2.31-2-.49-.41-.94-.87-1.45-1.26-.72-.57-1.34-1.26-2.09-1.8a18.63,18.63,0,0,1-1.51-1.31c-.48-.42-1-.83-1.44-1.25-.83-.73-1.63-1.49-2.49-2.18-.7-.56-1.33-1.19-2-1.73A10.91,10.91,0,0,1,11,67.78a9,9,0,0,0-1.24-1.06,2.34,2.34,0,0,1-.85-.89l0,0-.05.12a18.53,18.53,0,0,1-.73-3.2A52.05,52.05,0,0,1,7.19,55a49.21,49.21,0,0,1,.26-7.18,31.47,31.47,0,0,1,1-5.34.43.43,0,0,1,.13.3c0,.43-.16.85-.23,1.28a4.37,4.37,0,0,0-.19,1c-.14.71-.16,1.43-.29,2.14A19.2,19.2,0,0,0,7.57,50a2.78,2.78,0,0,1,0,.58,18.93,18.93,0,0,0,0,2.13c0,.19,0,.39,0,.58,0,1.39.09,2.77.19,4.16A28.57,28.57,0,0,0,8,60.36a19.53,19.53,0,0,0,.37,2c.08.46.5.71.84,1,.84.64,1.56,1.41,2.4,2.06s1.65,1.46,2.5,2.15,1.55,1.39,2.35,2.06c1.08.89,2.13,1.84,3.2,2.75s2.08,1.81,3.12,2.72c.71.64,1.42,1.29,2.18,1.87a13.4,13.4,0,0,1,1,.93,34.12,34.12,0,0,1,3,2.67,11.22,11.22,0,0,0,1,1.08l.1.09a1.45,1.45,0,0,0,.44.45.38.38,0,0,1,.09.09,1,1,0,0,0,.54.43,13,13,0,0,0,1.13,1l.17,0c.2-.07.09-.3.22-.4.3-.1.46.14.63.28,1.18.93,2.28,1.94,3.41,2.92s2.46,2.17,3.71,3.24l4.49,3.88c1,.9,2.09,1.82,3.15,2.7.71.6,1.38,1.24,2.1,1.83,1.24,1,2.43,2.09,3.65,3.13,1,.85,2,1.7,2.93,2.58.41.37.84.72,1.25,1.09.09.09.22.18.18.32s-.2.13-.33.14a37.32,37.32,0,0,1-4.21-.44C53.49,104.94,53.34,105,53.34,104.81Z"/><path class="cls-4" d="M72.58,43.72q1.71-1.81,3.52-3.52c.16.25-.06.39-.19.53-.41.42-.84.82-1.24,1.25s-.41.55,0,1c1.14,1,2.31,2,3.46,3,1.71,1.5,3.45,3,5.15,4.47,1,.92,2.1,1.8,3.15,2.7.36.3.7.63,1,1a2,2,0,0,1,.42,1.46c0,.62,0,1.24,0,1.86v2.43c-.18.45-.43.16-.63,0-.61-.43-1.11-1-1.7-1.46-1.45-1.17-2.82-2.45-4.24-3.65q-1.49-1.26-2.94-2.55c-1.09-1-2.22-1.9-3.3-2.88-.66-.59-1.35-1.12-2-1.72a2.32,2.32,0,0,1-.63-1.29C72.56,45.43,72.49,44.57,72.58,43.72Z"/><path class="cls-5" d="M113.11,53.8V56c-.06.06,0,.21-.15.2s-.15-.35-.14-.53c.06-1.34-.17-2.66-.1-4a2.09,2.09,0,0,0-1-1.76c-1.2-1-2.31-2-3.51-3-1-.86-2-1.79-3.1-2.67-.7-.58-1.37-1.19-2-1.79s-1.51-1.28-2.26-1.94a1.52,1.52,0,0,0-1-.41l-1.15-3.15A26,26,0,0,0,97,33.1a3.53,3.53,0,0,1-.39-2q.21-4.08.4-8.18c.1-2.28.19-4.55.3-6.83,0-.21-.09-.54.13-.62s.34.25.51.38a.93.93,0,0,1,.13.15A.16.16,0,0,1,98,16c-.16,0-.37-.17-.44.13,0,.62,0,1.24,0,1.86a2.07,2.07,0,0,1,0,.5,5.55,5.55,0,0,0,0,1.35,3.82,3.82,0,0,1,0,.68,2,2,0,0,0-.06.76c0,.47,0,.94,0,1.42-.16,1.5-.07,3-.22,4.52A14.66,14.66,0,0,0,97,29.82c0,.36-.07.71-.06,1.07a1.06,1.06,0,0,0,.4.79c1.59,1.39,3.19,2.76,4.79,4.14L105.84,39c1.67,1.45,3.36,2.87,5,4.35.08.06.14.14.22.19a2.17,2.17,0,0,1,1.14,1.8c0,.06,0,.1,0,0l.05,0c.12.66.28,1.32.35,2,.14,1.22.23,2.45.33,3.67C113,52,113,52.88,113.11,53.8Z"/><path class="cls-6" d="M30,81.74c-.39-.09-.6-.44-.81-.71a17.56,17.56,0,0,0-1.66-1.68c-.4-.38-.85-.68-1.25-1-.75-.71-1.57-1.34-2.34-2s-1.79-1.59-2.7-2.37-2.06-1.74-3.08-2.62-2.22-1.89-3.28-2.88c-.88-.82-1.78-1.63-2.7-2.37-1.07-.85-2-1.85-3.12-2.63a2.49,2.49,0,0,1-1-1.66c-.24-1.13-.22-2.28-.52-3.39a3.54,3.54,0,0,1,0-.73c.16,0,.22.1.31.19,1.23,1.25,2.6,2.35,3.93,3.49.88.77,1.72,1.59,2.65,2.3s2,1.77,3.06,2.65c1.44,1.23,2.92,2.43,4.29,3.75.28.27.66.41.92.71.53,1,1,2,1.58,3A36,36,0,0,0,29.57,81c.09.1.16.21.24.31S30.05,81.55,30,81.74Z"/><path class="cls-7" d="M72.5,69.24c0-.75,0-1.5,0-2.25V56c0-.19,0-.39,0-.58.2,0,.19.16.2.28.06.68-.11,1.35-.07,2a5.22,5.22,0,0,0,0-.57c0-.21,0-.43.22-.54a.51.51,0,0,1,.61.19c.38.38.82.69,1.23,1,.9.76,1.79,1.54,2.69,2.32,1.19,1,2.35,2.09,3.55,3.1s2.58,2.34,3.93,3.42c1,.78,1.85,1.64,2.8,2.43.15.12.32.23.3.47v4.08c-.16.42-.36.11-.49,0-.61-.49-1.14-1.06-1.76-1.54-1.3-1-2.46-2.18-3.72-3.23-2.07-1.72-4.09-3.51-6.13-5.27-.82-.71-1.69-1.37-2.46-2.14-.12-.13-.26-.31-.45-.21s-.13.31-.15.49c-.19,2.27,0,4.55-.1,6.82a1.38,1.38,0,0,1-.07.67A.13.13,0,0,1,72.5,69.24Z"/><path class="cls-8" d="M87.93,57.22c-.14-.11-.1-.27-.1-.41a15.74,15.74,0,0,0-.08-1.94,1.16,1.16,0,0,0-.33-.73c-.78-.65-1.51-1.37-2.3-2-.63-.52-1.26-1.05-1.87-1.6S82,49.44,81.38,48.91c-.95-.8-1.87-1.64-2.81-2.46-1.22-1.06-2.44-2.12-3.68-3.16-.21-.17-.39-.38-.59-.56s0-.54.2-.74c.42-.47.89-.9,1.33-1.35.13-.13.29-.23.27-.44,1.1-1.18,2.25-2.31,3.41-3.43a.2.2,0,0,1,.08.14.33.33,0,0,1,0,.14,18.47,18.47,0,0,1-1.64,1.67c-.34.33-.33.77-.48,1.15-.06.17.12.29.24.4,1.63,1.44,3.3,2.84,4.94,4.27s3.12,2.66,4.63,4a1.79,1.79,0,0,1,.64,1.47c0,.3,0,.61,0,.91-.14-2-.07-3.94-.1-5.91,0-1.2,0-2.39,0-3.59,0-.24,0-.49.17-.68a.78.78,0,0,1,.06.43L88,57a1.23,1.23,0,0,1,0,.19C88,57.27,88,57.27,87.93,57.22Z"/><path class="cls-9" d="M87.93,69.34a3.65,3.65,0,0,1-1.06-.84c-1.7-1.57-3.48-3-5.23-4.56-1.27-1.09-2.52-2.22-3.83-3.28-1-.81-2-1.67-2.94-2.57-.5-.49-1.1-.85-1.58-1.37-.26-.28-.56-.13-.6.26,0,.13,0,.26,0,.39a.43.43,0,0,1-.1.33V55.88c0-.17.06-.36-.09-.51,0-2,0-4,0-6V44.27c0-.18-.07-.39.1-.55,0,.92,0,1.84,0,2.75a1.79,1.79,0,0,1,.13.76c0,1.4,0,2.8,0,4.2a.7.7,0,0,0,.35.66A20.06,20.06,0,0,1,75,53.71c1.2,1,2.38,2.06,3.56,3.09,1.36,1.19,2.72,2.36,4.08,3.54,1,.87,2,1.76,3,2.59.7.57,1.34,1.22,2,1.79a.75.75,0,0,1,.25.56v2.87A6.74,6.74,0,0,1,87.93,69.34Z"/><path class="cls-10" d="M112.26,45.39l0,.32a3.06,3.06,0,0,1-.16-.53,1.63,1.63,0,0,0-.65-1.17c-1.39-1.16-2.75-2.35-4.12-3.54l-3.19-2.77-3.24-2.78-3.08-2.67c-.05,0-.09-.1-.14-.14-.78-.47-.86-1.13-.8-2a12,12,0,0,0,.07-2.16c0-.17-.07-.36.09-.51a.86.86,0,0,1,.6.29c.72.6,1.43,1.22,2.13,1.84,1.11,1,2.24,1.93,3.34,2.91,1.34,1.2,2.74,2.33,4.09,3.53,1,.91,2.06,1.79,3.09,2.68a2.17,2.17,0,0,1,.59.76c.07.15.1,0,.14,0a27.14,27.14,0,0,1,.78,3.23c.07.35.13.7.2,1.06.1.16,0,.36.1.51h0c.1.19,0,.42.09.6S112.3,45.19,112.26,45.39Z"/><path class="cls-11" d="M22.69,70.7a4.68,4.68,0,0,1-1.8-1.36c-1.42-1.26-2.87-2.47-4.31-3.7l-1-1c-1.12-1-2.25-2-3.41-2.95S10,59.8,8.9,59a8,8,0,0,1-1.37-1.35c-.11-1.43-.21-2.86-.2-4.3.38-.07.58.25.79.45.85.8,1.78,1.5,2.64,2.29.67.63,1.42,1.17,2.09,1.81S14.49,59.28,15.3,60l3,2.59a13.85,13.85,0,0,1,1.36,1.18.37.37,0,0,0,.57,0A54.92,54.92,0,0,0,22.69,70.7Z"/><path class="cls-12" d="M97.21,22.73V21.27c.13-.22,0-.47.09-.69V19.9c.13-.45,0-.92.09-1.37V18a9.16,9.16,0,0,0,0-1.48,1.56,1.56,0,0,1,0-.57c.16-.41.33,0,.49,0a22.71,22.71,0,0,1,2.79,3.09c.43.52.79,1.1,1.26,1.59a42.57,42.57,0,0,1,3.09,4.83c.79,1.39,1.53,2.82,2.29,4.23.06.13.1.27.15.4a11.89,11.89,0,0,0,1,2.07h0a2.74,2.74,0,0,0,.15.4c.07.13.18.27,0,.39s-.28,0-.39-.07c-.6-.55-1.26-1-1.85-1.58-.73-.72-1.56-1.32-2.32-2L101.47,27c-.67-.6-1.41-1.14-2.07-1.76s-1.2-1.05-1.8-1.56A1.37,1.37,0,0,1,97.21,22.73Z"/><path class="cls-13" d="M99.84,40c.68-.34,1,.29,1.34.59,1.09.88,2.15,1.79,3.19,2.72.75.67,1.52,1.31,2.27,2,1.14,1,2.3,2,3.44,3,.83.72,1.67,1.43,2.48,2.18a1.47,1.47,0,0,1,.27,1.14c0,1.4.18,2.79.11,4.19a.37.37,0,0,0,.09.36,1.54,1.54,0,0,1,0,.85c-.09.66,0,1.33-.09,2h0c-.13.23,0,.49-.09.72l0,.46c-.1.15,0,.34-.08.5l0,.56c-.3-.1-.18-.36-.21-.56a2.16,2.16,0,0,1,0-.62,2.36,2.36,0,0,0,.08-.45c.08-1.19.12-2.37.11-3.56a1.13,1.13,0,0,0-.47-1c-1-.8-1.89-1.59-2.81-2.41s-1.84-1.56-2.73-2.36-2.11-1.83-3.17-2.75c-.53-.45-1-1-1.58-1.37-.26-.2-.41-.33-.49.12a.12.12,0,0,1-.14.09,57.37,57.37,0,0,0-1.44-6.06A2.74,2.74,0,0,1,99.84,40Z"/><path class="cls-14" d="M85.94,113.45a5.4,5.4,0,0,1,2,1.74c.16.24.25.16.38,0a4.86,4.86,0,0,0,.74-3.4c0-.3,0-.32.28-.31h.78c.77,0,.81,0,.81.82a6.26,6.26,0,0,1-1.48,4c-.44.52-.43.54.15.91a2,2,0,0,0,1.51.16l.51-.15v.85c0,.76,0,.75-.73.91a2.74,2.74,0,0,1-2.66-.7.6.6,0,0,0-.91-.08,5.24,5.24,0,0,1-4.39.67,2.73,2.73,0,0,1-2.14-2.28,2.7,2.7,0,0,1,1.48-2.83c.24-.14.49-.26.73-.39-.22-.24-.44-.46-.63-.7a2,2,0,0,1,.85-3.19,3.92,3.92,0,0,1,2.86-.08A1.93,1.93,0,0,1,87.53,111a2,2,0,0,1-1,2.1C86.39,113.19,86.19,113.3,85.94,113.45Z"/><path class="cls-15" d="M97.21,22.73a2.79,2.79,0,0,0,1.29,1.48c.41.3.74.68,1.12,1,.6.52,1.22,1,1.81,1.53l2.06,1.82q2.3,2,4.6,3.94c.18.15.3.57.58.39s-.19-.4-.12-.66v0a21.59,21.59,0,0,1,1.6,4.18c.17.52.3,1,.45,1.58a5.51,5.51,0,0,0,.2.8l.19.66,0,.38a9,9,0,0,0-2.42-2.43c-1-.9-2-1.77-3-2.65L102,31.66l-2.91-2.54a19.35,19.35,0,0,0-2-1.7C97.07,25.86,97.07,24.29,97.21,22.73Z"/><path class="cls-16" d="M101.33,46.37c.21-.17-.1-.59.24-.64s.37.29.56.43c1.27,1,2.44,2.15,3.69,3.19,1,.86,2.05,1.74,3.07,2.61.76.65,1.51,1.32,2.26,2a8,8,0,0,0,1.37,1.15.55.55,0,0,1,.32.58c0,1.3,0,2.59-.1,3.89a1.72,1.72,0,0,1-1.35-.37c-1.63-1.44-3.28-2.85-4.92-4.27-1.11-1-2.26-1.9-3.34-2.91-.18-.17-.36-.46-.64-.33s-.28.45-.28.73c0,.57,0,1.14,0,1.7a2.51,2.51,0,0,1,0,.39c0,.11,0,.27-.16.26s-.05-.19-.12-.28c-.08-1.13,0-2.26-.07-3.4C101.75,49.51,101.52,47.94,101.33,46.37Z"/><path class="cls-17" d="M101.92,54.49l.17.27c0-.91,0-1.75,0-2.59a.72.72,0,0,1,.43-.69c.19-.09.45.18.62.35,1.29,1.24,2.71,2.33,4,3.53.93.85,1.93,1.6,2.83,2.47.58.56,1.24,1,1.81,1.58.23.23.64,0,.94.16,0,.13.05.28-.1.39a.41.41,0,0,0-.15.46,5.29,5.29,0,0,1-.16,2.56,3.72,3.72,0,0,0,0,.67c-.11.34,0,.73-.27,1-.2.09-.34,0-.48-.14-.92-.74-1.83-1.51-2.7-2.31-1.1-1-2.29-1.91-3.38-2.93-.87-.81-1.8-1.53-2.7-2.31-.16-.14-.33-.41-.56-.31s-.16.4-.19.62a18.87,18.87,0,0,1-.43,3.08,4.66,4.66,0,0,1-.23,1.11c-.11.11-.18,0-.24-.07.11-.86.31-1.7.42-2.56a26.28,26.28,0,0,0,.28-2.8,1.14,1.14,0,0,1,.07-.32c.09.07,0,.17.06.25,0-.24.07-.48,0-.72Z"/><path class="cls-18" d="M55.21,1a.11.11,0,0,1,.08,0A21.14,21.14,0,0,1,57.93.86a15,15,0,0,1,1.74,1.45c.82.66,1.57,1.4,2.38,2.07s1.66,1.45,2.5,2.16c1.68,1.41,3.29,2.89,5,4.29.47.39.91.82,1.38,1.22a2.85,2.85,0,0,0,.76.52c.16.07.28.18.06.34a39.1,39.1,0,0,0-5.67-1.08,4.54,4.54,0,0,1-.82-.14c-.94-.77-1.84-1.6-2.76-2.39q-1.63-1.38-3.25-2.81C57.83,5.26,56.39,4.06,55,2.81c-.29-.26-.64-.46-.91-.74s-.56-.4-.31-.8C54.23,1.07,54.74,1.19,55.21,1Z"/><path class="cls-14" d="M92.91,114.16v-4.39c0-.2,0-.39.28-.38,1.48.06,3-.09,4.44.1a3.94,3.94,0,0,1,3.7,3.9,4.73,4.73,0,0,1-2,4.7,4.89,4.89,0,0,1-2.63.77c-1.12,0-2.25,0-3.37,0-.35,0-.39-.13-.39-.42C92.92,117,92.91,115.59,92.91,114.16Z"/><path class="cls-14" d="M50.41,113c1.39-1.62,3-1.61,4.2-.05.12,0,.14-.13.2-.2a2.65,2.65,0,0,1,2.86-.84,2.1,2.1,0,0,1,1.4,2.18c.07,1.48,0,3,0,4.44,0,.23-.08.31-.31.3-.49,0-1,0-1.46,0-.29,0-.36-.1-.35-.37,0-1.14,0-2.28,0-3.42a2.58,2.58,0,0,0-.1-.91.88.88,0,0,0-.73-.7,1,1,0,0,0-1.07.41,1.83,1.83,0,0,0-.32,1.11c0,1.13,0,2.27,0,3.41,0,.35-.06.51-.45.47s-1.27.23-1.58-.11-.09-1-.09-1.56c0-.83,0-1.66,0-2.49s-.41-1.28-1.14-1.25a1,1,0,0,0-.83.5,2,2,0,0,0-.27,1.08c0,1.15,0,2.31,0,3.46,0,.27-.06.38-.35.37-.48,0-1,0-1.46,0-.23,0-.32-.07-.32-.31q0-3.12,0-6.24c0-.25.11-.3.33-.3.45,0,.91,0,1.36,0s.48.08.44.43A3.42,3.42,0,0,0,50.41,113Z"/><path class="cls-19" d="M52.65,65.4c0-.74,0-1.49,0-2.24a.61.61,0,0,1,.16-.45l1.72-1.57c.58-.32.58-.32,1.11.1,1.16.91,2.25,1.91,3.35,2.9.71.64,1.49,1.19,2.18,1.86s1.68,1.43,2.49,2.18S65,69.35,65.72,70s1.25,1,1.84,1.59a.89.89,0,0,1,.34.63c0,1,0,2,0,3.07a.25.25,0,0,1-.06.14c-.22.09-.33-.08-.46-.19q-2-1.8-4.07-3.54c-1.38-1.17-2.74-2.34-4.09-3.53s-2.78-2.34-4.1-3.59c-.54-.51-1.15-1-1.71-1.44-.1-.09-.21-.17-.35-.1s-.16.24-.17.39c0,.84,0,1.69,0,2.53,0,.28.09.58-.17.8A2.37,2.37,0,0,1,52.65,65.4Z"/><path class="cls-20" d="M67.8,75.39c0-1,0-2,0-3a1,1,0,0,0-.36-.8c-1.13-1-2.21-2-3.36-2.94s-2.31-2-3.46-3l-3-2.64c-.74-.66-1.48-1.34-2.28-1.95-.15-.11-.28-.2-.47-.05a.33.33,0,0,1-.36.06c.67-.77,1.42-1.44,2.15-2.16.5,0,.78.37,1.11.63.91.74,1.78,1.52,2.64,2.3,1,.93,2.11,1.82,3.16,2.74s2.2,1.93,3.32,2.86a3.46,3.46,0,0,1,1,1.06A7.6,7.6,0,0,0,68,69.83c0,2.78,0,5.57,0,8.36a.11.11,0,0,1-.16,0,.77.77,0,0,1-.13-.51c0-.6,0-1.21,0-1.82A.69.69,0,0,1,67.8,75.39Z"/><path class="cls-21" d="M19.25,114.14V109.8c0-.18-.08-.42.26-.4a34.32,34.32,0,0,1,4.18.09,2.59,2.59,0,0,1,2.47,2.24,3,3,0,0,1-1.63,3.43,5.43,5.43,0,0,1-2.66.47c-.38,0-.5.09-.48.48,0,.79,0,1.59,0,2.39,0,.3-.09.39-.38.38a11.63,11.63,0,0,0-1.32,0c-.36,0-.47-.07-.46-.45C19.26,117,19.25,115.57,19.25,114.14Z"/><path class="cls-14" d="M29.5,113a2.54,2.54,0,0,1,2-1.17A2.07,2.07,0,0,1,33.88,114c.07,1.55,0,3.09,0,4.64,0,.26-.12.29-.33.28-.47,0-.94,0-1.41,0-.29,0-.36-.09-.35-.36,0-1.19,0-2.38,0-3.57a3.38,3.38,0,0,0-.07-.63.92.92,0,0,0-.71-.83,1.12,1.12,0,0,0-1.25.46,1.74,1.74,0,0,0-.29,1.06c0,1.16,0,2.31,0,3.47,0,.33-.09.42-.41.4a12.34,12.34,0,0,0-1.36,0c-.24,0-.36,0-.35-.32v-9.43c0-.21,0-.33.29-.32.58,0,1.31-.19,1.71.09s.1,1,.11,1.57C29.52,111.27,29.5,112.06,29.5,113Z"/><path class="cls-22" d="M35.75,68.23a6.51,6.51,0,0,1,1.08-1,3.49,3.49,0,0,0,.68-.45.35.35,0,0,1,.58,0c.69.7,1.45,1.31,2.18,1.94,1.57,1.33,3.09,2.71,4.66,4,.72.6,1.42,1.22,2.15,1.82.3.25.67.48.74.92v3.1c0,.33-.22.23-.36.1-1-.88-2-1.67-2.94-2.54-.79-.71-1.6-1.38-2.4-2.07s-1.53-1.31-2.27-2c-.52-.46-1.07-.89-1.59-1.35s-1.34-1.14-2-1.74a2.52,2.52,0,0,0-.72-.48C35.48,68.38,35.7,68.36,35.75,68.23Z"/><path class="cls-14" d="M73.35,116.44a4.45,4.45,0,0,0,2.3.93A2.67,2.67,0,0,0,77,117.2a.84.84,0,0,0,.26-1.46,5,5,0,0,0-1.61-.88,5.08,5.08,0,0,1-1.5-.9,2.6,2.6,0,0,1,.7-4.33,6.29,6.29,0,0,1,4.3-.16c.18,0,.28.13.28.34,0,.55,0,1.1,0,1.73a5,5,0,0,0-1.92-.64,2.77,2.77,0,0,0-1.34.17.83.83,0,0,0-.19,1.51,6.12,6.12,0,0,0,1.41.74,6.41,6.41,0,0,1,1.67,1,2.69,2.69,0,0,1-.77,4.36,6.56,6.56,0,0,1-4.62,0c-.15-.05-.3-.11-.3-.33C73.36,117.74,73.35,117.13,73.35,116.44Z"/><path class="cls-5" d="M84.6,13.53a23.36,23.36,0,0,1,2.93-.86c0,.16-.08.21-.18.25-.42.15-.3.36-.06.55.77.65,1.47,1.37,2.29,2s1.25,1.12,1.9,1.67c1.1.91,2.14,1.89,3.24,2.81.13.11.31.2.29.42v3.31c-.08.38-.28.16-.42.06a17.6,17.6,0,0,1-1.48-1.26c-1.15-1-2.34-2-3.5-3l-3.87-3.35c-.58-.51-1.17-1-1.77-1.52-.23-.2-.52-.42-.15-.75C84.07,13.68,84.35,13.65,84.6,13.53Z"/><path class="cls-23" d="M20.19,63.78c-.11.11,0,.3-.2.43l-2.76-2.36c-.77-.67-1.56-1.32-2.31-2s-1.71-1.44-2.52-2.22c-.64-.6-1.38-1.09-2-1.7s-1.65-1.28-2.33-2.08a4,4,0,0,0-.73-.53V51c0-.15,0-.33.1-.45.9,1,2,1.73,2.94,2.6s2.06,1.83,3.1,2.73,2.17,1.9,3.29,2.82c.65.53,1.25,1.12,1.9,1.66a2.18,2.18,0,0,0,.48.36,25.12,25.12,0,0,1-.52-3.67,3.86,3.86,0,0,1-.09-.77,7.71,7.71,0,0,0,0-1.27.65.65,0,0,1,0-.31.92.92,0,0,0,0-.59.4.4,0,0,1,0-.15,7.58,7.58,0,0,1,0-1.26,7.71,7.71,0,0,0,.05-1.52c0-.43,0-.86,0-1.3a2.47,2.47,0,0,1,.17-.7.12.12,0,0,1,.15,0c-.11,1.72-.15,3.44-.14,5.16a33.83,33.83,0,0,0,1,7.37C19.85,62.43,20,63.1,20.19,63.78Z"/><path class="cls-24" d="M52.2,12.39c-1.64.43-3.29.79-4.9,1.33a39.25,39.25,0,0,0-9.82,5c-.13.09-.28.17-.41.25-.4.17-.68.53-1.08.69s-.75.06-1.05-.21q-1.84-1.65-3.74-3.24c-.94-.8-1.83-1.64-2.79-2.42a1.69,1.69,0,0,1-.66-.88.41.41,0,0,1,.18-.32c.64-.52,1.29-1,1.93-1.52a.28.28,0,0,1,.23,0,4,4,0,0,0,1.31,1.35c2,1.76,4.07,3.49,6.08,5.27a.62.62,0,0,0,.9.09c.51-.35,1.07-.61,1.57-1,.83-.49,1.71-.88,2.54-1.37s1.82-.84,2.75-1.19a28.17,28.17,0,0,1,2.85-1,24.16,24.16,0,0,1,2.4-.63A4.85,4.85,0,0,1,52,12.26.28.28,0,0,1,52.2,12.39Z"/><path class="cls-25" d="M47.77,75.39,46.16,74c-.67-.58-1.36-1.14-2-1.74s-1.62-1.36-2.39-2.09A12.12,12.12,0,0,0,40.32,69a6.82,6.82,0,0,1-1.21-1.07c-.36-.4-.89-.6-1.18-1.06-.08-.12-.21-.09-.32,0a1.07,1.07,0,0,1-.78.4c.78-.75,1.58-1.48,2.43-2.15a.68.68,0,0,1,.89.05,12.29,12.29,0,0,1,1.23,1c.83.8,1.78,1.46,2.6,2.27s1.64,1.33,2.37,2.09c.27.28.63.46.9.74a1.73,1.73,0,0,1,.53,1.27,15.44,15.44,0,0,0,0,1.8.39.39,0,0,1,0,.15A3,3,0,0,1,47.77,75.39Z"/><path class="cls-26" d="M95,20.19a4.72,4.72,0,0,1-1.17-.91C92.4,18,91,16.8,89.56,15.58l-2.35-2c-.51-.44-.49-.47.13-.74a.85.85,0,0,0,.19-.14c1.22-.43,2.46-.77,3.71-1.09a.54.54,0,0,0,.19.54c1,.88,2,1.75,3,2.6A1.44,1.44,0,0,1,95,16c0,1.25,0,2.5,0,3.75A.84.84,0,0,1,95,20.19Z"/><path class="cls-14" d="M35.74,114v-.78c0-.85,0-.85.84-1.09a6.37,6.37,0,0,1,2-.26,2.48,2.48,0,0,1,2.6,2.58c0,1.37,0,2.73,0,4.1,0,.28-.08.37-.36.36a9.14,9.14,0,0,0-1.17,0c-.36,0-.57,0-.49-.47a2.79,2.79,0,0,0,0-.36,2.83,2.83,0,0,1-1.37,1,2,2,0,0,1-2.67-1.38,2.12,2.12,0,0,1,1.52-2.79,11.42,11.42,0,0,1,2.16-.34c.42,0,.46-.2.35-.53a1,1,0,0,0-.92-.67A4.18,4.18,0,0,0,35.74,114Z"/><path class="cls-14" d="M60.94,114v-.57c0-1.11,0-1.11,1.12-1.37a6.36,6.36,0,0,1,1.74-.19,2.46,2.46,0,0,1,2.61,2.52c0,1.4,0,2.8,0,4.2,0,.27-.11.33-.35.31s-.59,0-.88,0c-.76,0-.76,0-.82-.74-.2,0-.24.19-.35.3a2.48,2.48,0,0,1-2.59.48,1.92,1.92,0,0,1-1.17-2c0-1.26.79-2,2.25-2.23.53-.07,1.06-.15,1.59-.2.29,0,.36-.13.29-.41a1,1,0,0,0-.93-.78A4.19,4.19,0,0,0,60.94,114Z"/><path class="cls-27" d="M58.72,57a18.18,18.18,0,0,1,1.84-1.78c.71.21,1.11.83,1.65,1.26,1.52,1.18,2.86,2.56,4.38,3.73.36.27.66.63,1,.92a.77.77,0,0,1,.3.69,3.77,3.77,0,0,0,0,.82v4a.14.14,0,0,1-.08.14c-.1,0-.13-.07-.16-.15-.06-.42,0-.84,0-1.26a.68.68,0,0,0-.19-.53c-1.33-1.12-2.62-2.28-3.94-3.4-.81-.69-1.61-1.41-2.41-2.11s-1.63-1.43-2.46-2.13A.2.2,0,0,1,58.72,57Z"/><path class="cls-28" d="M29.91,25l-.07.07-.13.06a.51.51,0,0,1-.43-.19c-1-.94-2.1-1.87-3.17-2.78-1.34-1.13-2.62-2.32-4-3.41-.13-.11-.31-.2-.31-.41s.15-.24.25-.34c.58-.56,1.08-1.21,1.71-1.72.11-.09.2-.24.38-.13a1.35,1.35,0,0,0,.62.89c1.5,1.24,2.91,2.59,4.42,3.81.61.49,1.19,1,1.76,1.55a1.07,1.07,0,0,0,1,.39c0,.35-.26.48-.45.64A14.73,14.73,0,0,0,29.91,25Z"/><path class="cls-29" d="M47.77,74.42a3.1,3.1,0,0,1-.08-1.48,2.17,2.17,0,0,0-1.06-2c-.74-.56-1.42-1.2-2.13-1.81S43.27,68,42.6,67.49a28.64,28.64,0,0,1-2.18-1.95,1.13,1.13,0,0,0-1.16-.41c.8-.82,1.68-1.54,2.55-2.27,1.7,1.6,3.53,3,5.26,4.61a1.72,1.72,0,0,1,.75,1.29v5.13A1,1,0,0,1,47.77,74.42Z"/><path class="cls-25" d="M52.38,59.88c-.28.4-.39.16-.5-.12-.81-2-1.62-3.92-2.41-5.89-.16-.38-.26-.48-.62-.16-.94.84-1.93,1.63-2.9,2.45l-.31.22a.24.24,0,0,1-.07-.13.52.52,0,0,1,.28-.39c.57-.47,1.13-1,1.69-1.44s.93-.9,1.44-1.3c.18-.14.05-.22,0-.3A23,23,0,0,1,47,51.16a.55.55,0,0,0-.87,0c-.4.33-.77.68-1.15,1-.14.12-.25.28-.46.3a.23.23,0,0,1-.12-.06l1.69-1.74c.51-.45,1-.95,1.45-1.42.13-.12.22-.29.42-.31a1.65,1.65,0,0,1,.64.43c1.32,1.14,2.62,2.3,4,3.41.08.15,0,.39.3.41a5.37,5.37,0,0,1,1.4,1.1,11.27,11.27,0,0,1,1.57,1.44A.57.57,0,0,1,56,56a4.23,4.23,0,0,1-1.54,1.52,10.28,10.28,0,0,1-1.63-1.31c-.86-.66-1.62-1.44-2.48-2.11a6.56,6.56,0,0,1-.65-.64c0-.07-.08,0,0,0s0,0,0,0c.69,1.88,1.44,3.73,2.19,5.58a1.22,1.22,0,0,0,.46.67A.1.1,0,0,1,52.38,59.88Z"/><path class="cls-30" d="M87.94,40.78l0,4.42c-.4-.07-.37-.41-.39-.68a1,1,0,0,0-.31-.68c-.72-.61-1.41-1.25-2.14-1.85s-1.47-1.28-2.2-1.91-1.73-1.53-2.62-2.26a2.33,2.33,0,0,1-.74-.82v-.1c.48-.58,1-1.08,1.57-1.62a.25.25,0,0,1,.21-.08.93.93,0,0,1,.41.26c1.09,1,2.21,1.95,3.34,2.91.73.62,1.45,1.24,2.16,1.88.11.11.24.28.41.19s.07-.27.07-.41c0-.51,0-1,0-1.52,0-.16-.07-.4.22-.44Z"/><path class="cls-31" d="M87.93,38.07c-.21.29-.08.63-.1.94s0,.88,0,1.31c0,.13,0,.28-.1.35s-.23-.07-.34-.13a8.73,8.73,0,0,1-1.17-1c-1.11-1-2.26-1.93-3.37-2.92-.52-.45-1-.94-1.57-1.36,0-.24.19-.32.32-.45.37-.39.75-.77,1.13-1.14l.64-.64c.09-.08.16-.21.32-.12a6.87,6.87,0,0,0,1.71,1.69c.58.5,1.12,1,1.72,1.51.14.1.27.3.46.2s.12-.32.12-.49c0-.83,0-1.66,0-2.48,0-1.4,0-2.79,0-4.18-.18-.08-.28.11-.42.09a.2.2,0,0,1-.15-.06,3.72,3.72,0,0,1,.73-.7c.12,0,.08.13.08.2,0,3,0,6.11,0,9.16A2,2,0,0,1,87.93,38.07Z"/><path class="cls-32" d="M67.8,66.6v.2a2.93,2.93,0,0,1,0,1.66c-.55-.47-1.1-.93-1.64-1.41s-1.32-1.22-2-1.78c-.56-.44-1.07-1-1.63-1.4s-1.14-.94-1.68-1.45c-.74-.7-1.53-1.34-2.3-2A7,7,0,0,0,56.67,59l1.06-1c.81-.13,1.22.49,1.75.9,1.17.93,2.26,1.94,3.39,2.92s2.18,1.8,3.17,2.8a5.9,5.9,0,0,0,.58.44A3.06,3.06,0,0,1,67.8,66.6Z"/><path class="cls-33" d="M67.9,62.5s-.08-.08-.08-.12c.17-1.2-.87-1.57-1.52-2.19-.29-.28-.65-.49-.93-.77C64,58.11,62.51,57,61.17,55.71c-.19-.18-.5-.19-.61-.46a23.19,23.19,0,0,1,1.87-1.84,1.9,1.9,0,0,1,.84.55c1.44,1.22,2.81,2.52,4.28,3.7a1,1,0,0,1,.4.75c0,1.33,0,2.67,0,4A.18.18,0,0,1,67.9,62.5Z"/><path class="cls-34" d="M31.94,56.35a2,2,0,0,1-.68.26,1.55,1.55,0,0,0-.6-.78c-.52-.42-1-.88-1.5-1.31a.67.67,0,0,1-.33-.51,5.48,5.48,0,0,1,1.07-.7,7.2,7.2,0,0,1,1.27,1.07c1.61,1.35,3.18,2.75,4.78,4.12a1.37,1.37,0,0,0,.2.13,3.42,3.42,0,0,1,.35,1.08c.12.51.15.52.57.23a.71.71,0,0,1,.18-.08,3.88,3.88,0,0,1,1.93,1.59.49.49,0,0,1,0,.24A5,5,0,0,1,37.63,63a5.44,5.44,0,0,1-1.38-1.1c-.55-.45-1.07-.92-1.62-1.38a.37.37,0,0,0-.3-.1c-.48-.89-.84-1.84-1.27-2.76-.16-.33-.33-.66-.46-1S32.27,56.16,31.94,56.35Z"/><path class="cls-14" d="M45,113.13a4.94,4.94,0,0,1,.55-.76,1.8,1.8,0,0,1,.78-.39c.8-.2,1-.07,1,.75v1.06c-.16.1-.27,0-.39,0A1.41,1.41,0,0,0,45,115a25.1,25.1,0,0,0-.06,3.36c0,.36-.07.54-.47.49s-1.24.22-1.54-.11-.09-1-.09-1.51c0-1.56,0-3.13,0-4.69,0-.46.14-.6.57-.54.11,0,.23,0,.34,0,.37,0,.82-.11,1.1.06S44.89,112.75,45,113.13Z"/><path class="cls-28" d="M67.9,62.5c0-1.09,0-2.18,0-3.27a1.6,1.6,0,0,0-.68-1.66A16.88,16.88,0,0,1,65.38,56l-2.95-2.6a22.22,22.22,0,0,1,1.85-1.78c.89.94,1.93,1.72,2.89,2.59A2.53,2.53,0,0,1,68,55.56c0,.14,0,.29,0,.43q0,14.71,0,29.42c0,.14,0,.29,0,.44-.26,0-.22-.27-.22-.43q0-3.39,0-6.79a.54.54,0,0,1,.13-.4v-8.5a17.92,17.92,0,0,1,0-2.93Z"/><path class="cls-18" d="M83.82,13.84c-.19.28,0,.45.19.61,1.29,1.06,2.52,2.2,3.79,3.28,1,.87,2,1.75,3,2.61s2.09,1.81,3.13,2.73a5.11,5.11,0,0,0,1,.74,5.08,5.08,0,0,1,.05,1c-.14.39-.37.15-.52,0a15.86,15.86,0,0,1-1.42-1.18c-.42-.39-.89-.74-1.29-1.16,1.17,1,2,2.29,3.2,3.3,0,.18.17.46-.22.43-1.08-1-2.12-2.06-3.14-3.14-.08-.26-.31-.39-.48-.57s-.34-.2-.33-.44.27-.17,0-.37c-1.31-1.09-2.6-2.21-3.88-3.34-1.12-1-2.29-1.92-3.38-2.94-.3-.27-.69-.44-.89-.82s-.15-.48.24-.63h0C83.24,14,83.5,13.76,83.82,13.84Z"/><path class="cls-35" d="M47.77,68.55a5,5,0,0,0-1.56-1.68c-1.16-1.05-2.36-2.05-3.53-3.08-.32-.28-.77-.45-.87-.93a17.41,17.41,0,0,1,1.76-1.55c.68.23,1.07.83,1.59,1.26q1.23,1,2.43,2.1c.11.1.25.16.23.34v3.07A.84.84,0,0,1,47.77,68.55Z"/><path class="cls-36" d="M55.77,39.34V40.9c-.19.13-.31,0-.42-.13-1.37-1.39-2.84-2.69-4.21-4.09a.56.56,0,0,1,0-.08.57.57,0,0,0-.67-.54H49.29c-.46,0-.55-.12-.58-.6s0-.68,0-1-.1-.63-.52-.66a18.71,18.71,0,0,1-1.35-1.32c-.43-.41-.83-.82-1.24-1.24-.12-.13-.29-.23-.26-.45a3.44,3.44,0,0,1,.75-.62,2.53,2.53,0,0,1,1.21.9c1.57,1.54,3.11,3.11,4.67,4.65,1.12,1.11,2.36,2.09,3.44,3.24C55.53,39.08,55.66,39.2,55.77,39.34Z"/><path class="cls-37" d="M47.39,24.71a1.55,1.55,0,0,1,1.38.42L57,32.21c.24.21.49.41.73.64.47.43.46.8-.06,1.18a1.37,1.37,0,0,0-.35.33c-.17.12-.28,0-.38-.1a31,31,0,0,1-3.27-3.11c-.68-.82-1.55-1.41-2.26-2.19a24,24,0,0,0-2.22-2.17c-.53-.46-1-1-1.53-1.42C47.49,25.2,47.25,25,47.39,24.71Z"/><path class="cls-4" d="M47.39,24.71a1.23,1.23,0,0,0,.56.77c1.59,1.36,3,2.91,4.54,4.33,1.27,1.19,2.36,2.55,3.72,3.64a5.72,5.72,0,0,0,1.12.91c-.38.51-.63.55-1.14.12q-2.22-1.89-4.42-3.8c-.79-.68-1.56-1.37-2.34-2.05-.93-.91-1.88-1.78-2.78-2.71-.14-.15-.39-.28-.25-.56A1.84,1.84,0,0,1,47.39,24.71Z"/><path class="cls-18" d="M82.94,14c-.31.25-.27.59.14.9s.52.43.78.66c1.4,1.21,2.82,2.41,4.23,3.62q1.62,1.41,3.22,2.84c-.15.21-.34-.1-.45.1s-.07.14-.1.21a12,12,0,0,0-1.5,1.36c-.26.08-.18-.09-.13-.2a3.1,3.1,0,0,1,.45-.51.37.37,0,0,0-.08-.61c-1.3-1-2.51-2.15-3.78-3.21-.12-.11-.37-.19-.24-.46h0c.37-.32.37-.37,0-.67L80.93,14.6A10.87,10.87,0,0,1,82.94,14Z"/><path class="cls-6" d="M36.15,58.69c-.43-.06-.65-.43-.95-.67-.63-.48-1.2-1-1.79-1.55-1-.83-1.93-1.65-2.89-2.49a7.93,7.93,0,0,1-.62-.67,16.17,16.17,0,0,1,1.86-1.17.3.3,0,0,1,.39.06c.9.81,1.8,1.63,2.75,2.4a2.5,2.5,0,0,1,.66,1.52c.2.77.43,1.53.62,2.29C36.2,58.51,36.23,58.6,36.15,58.69Z"/><path class="cls-38" d="M77.85,26.8a27.15,27.15,0,0,1,1.87-2c.08.07.06.19.18.27a26.52,26.52,0,0,1,2.65,2.21c.38.33.77.65,1.17.95s.38.41,0,.77-.5.37-.6.68a13.6,13.6,0,0,1-1.48,1.46c-.23,0-.17-.15-.12-.26a1,1,0,0,1,.33-.35c.15-.12.16-.24,0-.36-1.11-.8-2.05-1.79-3.11-2.64A2.43,2.43,0,0,0,78,27C77.88,27,77.79,26.93,77.85,26.8Z"/><path class="cls-31" d="M81.07,23.37A13.51,13.51,0,0,1,82.35,22c.42-.23.69,0,1,.25,1.14,1,2.19,2,3.4,2.9a.58.58,0,0,1,.16.87L84.78,28.1c-.26-.31,0-.5.19-.65s.2-.38,0-.57c-1.29-1-2.5-2.13-3.76-3.18C81.06,23.61,81,23.52,81.07,23.37Z"/><path class="cls-16" d="M86.92,26.05l-.09,0c.31-.49,0-.67-.39-.89a3.86,3.86,0,0,1-1-.8c-.77-.83-1.74-1.42-2.51-2.24a.21.21,0,0,0-.29-.06c-.11,0-.22.18-.33,0A23,23,0,0,1,84,20.27a1.28,1.28,0,0,1,.61.29c.91.76,1.82,1.52,2.68,2.33a9.8,9.8,0,0,0,1.06.87c.3.22.3.42.06.68s-.47.35-.56.65Z"/><path class="cls-7" d="M55.77,39.34c-.19,0-.28-.15-.39-.26-2.8-2.66-5.59-5.33-8.29-8.09-.31-.31-.67-.56-1-.84a2.85,2.85,0,0,1,.79-.68c.17-.06.22.09.31.17,2.8,2.54,5.42,5.26,8.1,7.92a4.72,4.72,0,0,1,.48.41Z"/><path class="cls-39" d="M40.15,35.24l1-.86a1,1,0,0,1,.46.33c.51.51,1,1,1.53,1.54a9,9,0,0,0,1.21,1,1.21,1.21,0,0,1,.06.38c0,.26.15.36.4.38a2.81,2.81,0,0,1,.91.08s0,0,0,0a2.11,2.11,0,0,1,1,2c.12.15.33.12.48.21a19.71,19.71,0,0,0,1.69,1.73c.15.14.4.26.26.55H47.77a3.41,3.41,0,0,1-.39-.37c-1.37-1.44-2.83-2.78-4.27-4.14C42.11,37.18,41.13,36.21,40.15,35.24Z"/><path class="cls-40" d="M87.86,25.09c0-.38.32-.49.49-.73s.2-.29-.06-.5c-.5-.4-1-.81-1.46-1.25-.79-.74-1.64-1.41-2.47-2.12-.1-.1-.36.06-.35-.22a18,18,0,0,1,1.47-1.55,6.71,6.71,0,0,0,1.27,1.17c1,.88,2,1.75,3,2.54.23.17.12.36,0,.51a7.13,7.13,0,0,1-.53.58c-.06.06-.17.14,0,.19A12.17,12.17,0,0,1,87.86,25.09Z"/><path class="cls-24" d="M70.43,34.64A14.43,14.43,0,0,1,72,33a.83.83,0,0,1,1.12.19c.9.85,1.91,1.56,2.79,2.44.48.47.47.59,0,1.06a8.39,8.39,0,0,1-1.24,1.14c-.61-.21-1-.76-1.43-1.14-.73-.58-1.44-1.2-2.11-1.85a.44.44,0,0,0-.45-.09C70.57,34.76,70.43,34.85,70.43,34.64Z"/><path class="cls-41" d="M70.81,41.78a6.72,6.72,0,0,1-1.1,1.16c-1.33,1.2-2.54,2.51-3.83,3.74l-.22.19a.08.08,0,0,1-.12,0c-.09-.17,0-.29.11-.39.34-.31.63-.68,1-1,.62-.5,1.09-1.15,1.68-1.67.42-.38.8-.81,1.22-1.19.22-.19.25-.35,0-.55-1-.78-1.87-1.59-2.79-2.41-.29-.25-.51-.31-.82,0s-.73.78-1.12,1.15c-.14.06-.22.37-.45.13a2.2,2.2,0,0,1,.64-.78c.69-.69,1.39-1.38,2.08-2.08s.71-.58,1.44,0c.93.72,1.8,1.52,2.67,2.32a.55.55,0,0,1,.18.6,1.86,1.86,0,0,1-.39.45C70.94,41.6,70.77,41.62,70.81,41.78Z"/><path class="cls-30" d="M81.07,23.37c0,.27.27.25.4.37,1.19,1.12,2.44,2.17,3.71,3.19.3.24.13.42-.08.57a.58.58,0,0,0-.32.6,20,20,0,0,1-1.61,1.58c-.11-.31.21-.37.35-.52.47-.52.49-.51,0-.94-1.14-1-2.28-1.94-3.4-2.92-.15-.14-.53-.13-.38-.5Z"/><path class="cls-42" d="M40.15,35.24c.22,0,.33.18.47.31,1.35,1.33,2.68,2.68,4.07,4,1,.88,1.85,1.82,2.79,2.71.12.12.29.22.29.43H46.11c-2.25-2-4.35-4.1-6.44-6.24C39.59,35.92,39.61,35.47,40.15,35.24Z"/><path class="cls-43" d="M67.8,66.6a.48.48,0,0,1-.27-.27c-.18-.69-.78-1-1.27-1.39s-1.11-1-1.68-1.51-1.44-1.2-2.14-1.81-1.47-1.31-2.21-2c-.57-.49-1.17-.95-1.74-1.45-.23-.21-.56,0-.76-.23l.19-.18a.62.62,0,0,0,.31-.29l.09-.1c.14,0,.21-.24.4-.19a4,4,0,0,1,1,.76c.39.31.74.67,1.12,1,.91.77,1.79,1.6,2.72,2.36s2,1.75,3,2.55c.36.28.64.67,1,.93a.46.46,0,0,1,.19.47Z"/><path class="cls-27" d="M64.38,41c.21.1.24-.18.39-.19s.37,0,.51.11c.87.82,1.81,1.55,2.7,2.34.2.17.43.36.41.67a20,20,0,0,1-1.66,1.66c-.9-.69-1.73-1.45-2.57-2.21-.24-.22-.53-.37-.76-.6s-.34,0-.49.1c-.4.34-.67.79-1.09,1.1-.1,0-.2,0-.18-.15A34.89,34.89,0,0,1,64.38,41Z"/><path class="cls-44" d="M74.74,30.06l1.34-1.41c.22.08.28-.13.38-.23a.48.48,0,0,1,.73,0c1.15,1,2.31,2,3.43,3,.16.14.28.3.11.49a7,7,0,0,1-1.5,1.42c-1.18-1-2.38-2-3.55-3.06-.24-.21-.42-.31-.7-.06S74.8,30.29,74.74,30.06Z"/><path class="cls-4" d="M74.74,30.06c.15.07.15.08.28,0s.36-.22.62,0c.79.73,1.68,1.36,2.45,2.1.39.37.91.61,1.14,1.13-.07.39-.47.52-.65.82s-.47.58-.83.7a3.49,3.49,0,0,1-1-.8c-1-.81-1.9-1.65-2.87-2.46-.09-.07-.23-.14-.19-.3A9.34,9.34,0,0,1,74.74,30.06Z"/><path class="cls-45" d="M78.55,34.06l.68-.78A10.52,10.52,0,0,0,80.57,32c.14-.15.22-.27,0-.48-1.14-.95-2.25-1.94-3.35-2.94-.3-.27-.48-.25-.7,0s-.2.35-.4.08l.08-.07a1.5,1.5,0,0,0,.34-.37,14.93,14.93,0,0,1,1.35-1.41,13.55,13.55,0,0,1,2.75,2.14A11.52,11.52,0,0,0,82,30.07c.25.15.34.32,0,.54-.14.1-.5.19-.3.53-.81.91-1.77,1.66-2.61,2.54-.12.13-.24.26-.37.38A.09.09,0,0,1,78.55,34.06Z"/><path class="cls-7" d="M71.32,41.1c.05-.67-.56-.87-.92-1.21-.71-.68-1.52-1.26-2.24-1.92-.32-.29-.49-.27-.74,0-.06.08-.11.32-.32.15a11.34,11.34,0,0,1,1.47-1.55.81.81,0,0,0,.42-.33c.23-.32.42-.32.74-.06,1.07.89,2.1,1.83,3.16,2.73.12.11.27.2.26.39A19.62,19.62,0,0,1,71.55,41C71.48,41.06,71.43,41.15,71.32,41.1Z"/><path class="cls-46" d="M47.77,64.84a.5.5,0,0,1-.39-.15c-.66-.6-1.34-1.19-2-1.78l-1.81-1.6a17,17,0,0,1,1.85-1.65.41.41,0,0,1,.57,0c.57.46,1,1,1.65,1.43a.41.41,0,0,1,.18.33C47.8,62.58,47.88,63.71,47.77,64.84Z"/><path class="cls-47" d="M73.66,31.24c.78.68,1.59,1.33,2.36,2,.57.51,1.15,1,1.75,1.49a.11.11,0,0,1,0,.08.06.06,0,0,1,0,0c-.25.3-.64.47-.79.86-.72.86-1.64,1.5-2.38,2.34-.08,0-.11,0-.12-.11a.17.17,0,0,1,.14-.18L76,36.46a.38.38,0,0,0,0-.62c-1-1-2.2-1.85-3.25-2.84a.33.33,0,0,0-.4,0c-.1,0-.21.19-.34,0A13.74,13.74,0,0,1,73.66,31.24Z"/><path class="cls-48" d="M74.64,37.78l-.1.19a4.77,4.77,0,0,1-1.46,1.37,3,3,0,0,0-1-1c-.47-.37-.87-.82-1.36-1.18a12.37,12.37,0,0,1-1.18-1c-.17-.17-.25-.13-.38,0s-.26.43-.57.39q.89-1,1.86-2a.82.82,0,0,1,.86.19C72.37,35.86,73.52,36.8,74.64,37.78Z"/><path class="cls-49" d="M95,20.19c0-1.43,0-2.86,0-4.29a1.12,1.12,0,0,0-.49-1c-.67-.58-1.32-1.19-2-1.74a12.36,12.36,0,0,0-1.59-1.3l.36-.31h0a7.92,7.92,0,0,0,1-.29c.85-.34,1.74-.51,2.6-.8.2-.06.26,0,.26.18s0,.23,0,.34V21.85c0,.1,0,.2,0,.3s-.07,0-.11,0Z"/><path class="cls-7" d="M68,55.56a6.43,6.43,0,0,0-1.91-2.14A15.06,15.06,0,0,1,64.45,52a.51.51,0,0,1-.17-.34c1.1-1.14,2.21-2.29,3.42-3.33.09.24-.11.35-.23.48-.29.31-.59.61-.89.9s-.23.44,0,.64.7.57,1.14,1c0-1.09,0-2.07,0-3.06,0-.06.09-.16.18-.09a.41.41,0,0,1,0,.23C68,50.76,68,53.16,68,55.56Z"/><path class="cls-50" d="M55.77,38a1.1,1.1,0,0,1-.64-.41c-1.75-1.75-3.51-3.49-5.25-5.25-.73-.75-1.6-1.32-2.3-2.1-.23-.25-.46-.5-.7-.74a1.4,1.4,0,0,1,.58-.5c.21-.07.33.08.46.2s.46.46.69.68c2.41,2.3,4.81,4.6,7.16,6.95Z"/><path class="cls-51" d="M51.2,36.7c.19,0,.28.15.39.26l3.79,3.68c.11.11.2.26.39.26,0,.37,0,.74,0,1.11a.5.5,0,0,1-.38.58c-1.49-1.27-2.87-2.66-4.25-4.06a.51.51,0,0,1-.2-.47,2.51,2.51,0,0,0,.11-.86A.62.62,0,0,1,51.2,36.7Z"/><path class="cls-52" d="M36.15,58.69c-.24-.94-.54-1.86-.71-2.81s-1.1-1.5-1.76-2.16c-.48-.48-1-.89-1.54-1.35-.12-.11-.19-.27-.38-.23l2.41-1.56c.34,1.27.67,2.48,1,3.7.48,1.8.94,3.61,1.41,5.41.09.33.19.46.49.14A9.36,9.36,0,0,1,38.2,58.7a.21.21,0,0,1,0,.13,3,3,0,0,1-1,1.13.83.83,0,0,0-.15.11c-.43.38-.42.38-.56-.15S36.27,59.1,36.15,58.69Z"/><path class="cls-53" d="M51,38.15c1,1.07,2,2.08,3.06,3.07a5.33,5.33,0,0,1,1.35,1.37,6.22,6.22,0,0,1-1.67.06,4.57,4.57,0,0,1-.87-.77c-1.11-1.05-2.18-2.15-3.25-3.24-.15-.15-.42-.35,0-.57A2.67,2.67,0,0,1,51,38.15Z"/><path class="cls-54" d="M55.77,36.8a.76.76,0,0,1-.45-.27c-.88-.87-1.78-1.71-2.64-2.6-1.57-1.62-3.32-3.06-4.87-4.7a2.27,2.27,0,0,0-.35-.26c.12-.18.21-.22.41,0,2.13,1.83,4.27,3.64,6.41,5.45A6.18,6.18,0,0,0,55,35,1.52,1.52,0,0,1,55.77,36.8Z"/><path class="cls-55" d="M52.85,53.31c-.4,0-.26-.28-.29-.49a1,1,0,0,1-.24-.57c-.08-.7-.28-1.37-.38-2.06a1.51,1.51,0,0,0-.63-1.06c-.52-.37-1-.82-1.47-1.21a.44.44,0,0,0-.64,0,5,5,0,0,0-.51.52A1.72,1.72,0,0,1,48,49c-.5.48-1,1-1.49,1.44-.1.09-.15.3-.36.24l3.51-3.57,1.73-1.78c.15.76.28,1.4.4,2,.33,1.81.66,3.63,1,5.44,0,.17.08.19.21.11a.15.15,0,0,1,.13.11C53.09,53.2,53,53.24,52.85,53.31Z"/><path class="cls-56" d="M26.17,55.65A17.21,17.21,0,0,1,28,54.48c.39,0,.53.4.76.61.51.45,1,.9,1.54,1.31.25.2.22.31,0,.45s-.68.17-1,.36a10.52,10.52,0,0,1-1.76.53.13.13,0,0,1,0-.17c.32-.24.15-.4-.06-.6A8.43,8.43,0,0,1,26.17,55.65Z"/><path class="cls-57" d="M39.67,36.41c.23,0,.33.19.47.33,1.08,1.08,2.19,2.13,3.23,3.25.76.81,1.71,1.41,2.45,2.23.11.13.28.22.29.43H44.94c-1.31-1.32-2.71-2.53-4-3.84-.41-.41-.82-.83-1.25-1.23Z"/><path class="cls-58" d="M49.44,38.18c0,.21.17.31.29.43l3.07,3.07c.32.31.73.54.93,1H52.27a9.32,9.32,0,0,1-1.47-1.26c-.67-.58-1.25-1.27-1.92-1.86a.48.48,0,0,1-.14-.25,2.56,2.56,0,0,1,0-.73C48.76,38.06,49,38,49.44,38.18Z"/><path class="cls-59" d="M39.67,37.58a.71.71,0,0,1,.42.23c1.45,1.54,3.08,2.89,4.55,4.41.13.13.29.22.3.43H43.57a1.07,1.07,0,0,1-.28-.19c-1.14-1.15-2.27-2.32-3.48-3.41a1,1,0,0,1-.14-.2Z"/><path class="cls-60" d="M47.77,64.84c0-1,0-2.07,0-3.11a.52.52,0,0,0-.24-.53,15.13,15.13,0,0,1-1.61-1.39.5.5,0,0,0-.51-.15l2.09-1.9c.07-.06.18-.14.25-.12s.1.18.1.29c0,1,0,1.92,0,2.88V74.13c0,.09,0,.19,0,.29s-.06,0-.08,0h0V64.84Z"/><path class="cls-61" d="M26.17,55.65c.38.17.59.53.91.77s.3.3.46.43c.55.45.55.5,0,.89a21.62,21.62,0,0,1-2.73.86c0-.35.36-.24.54-.41-.33-.49-.93-.72-1.22-1.26A20.37,20.37,0,0,1,26.17,55.65Z"/><path class="cls-62" d="M35.75,68.23l-.19.32c-.13.24-.3.21-.48.07a.4.4,0,0,1-.15-.19c-.44-1.12-1.45-1.71-2.27-2.51,0,1.21,0,2.37,0,3.54,0,1.85,0,3.7,0,5.55,0,2.61,0,5.22,0,7.83,0,.26-.1.5-.1.77s-.09.2-.23.19l-.1-.1s0-.09,0-.13c.32-.13.19-.42.19-.64,0-3.11,0-6.21,0-9.32V63.41a.82.82,0,0,1,.13-.62c.37.79.73,1.53,1.07,2.27.46,1,.94,2,1.35,3C35.19,68.5,35.39,68.55,35.75,68.23Z"/><path class="cls-63" d="M70,114.48c.49,0,1,0,1.46,0,.22,0,.3.06.32.3.08,1.17.09,1.17-1,1.17-.73,0-1.46,0-2.19,0-.31,0-.42-.07-.42-.4,0-1.07,0-1.07,1-1.07Z"/><path class="cls-64" d="M24.14,56.93h.05c.43.4.87.78,1.28,1.2.17.17,0,.21-.15.24s-.38.05-.5.23l-2.53.84c-.23.07-.35,0-.41-.26-.17-.76-.18-.76.52-1.18Z"/><path class="cls-65" d="M39.67,38.85a3.4,3.4,0,0,1,1,.85,36.7,36.7,0,0,1,2.9,2.95H42c-.8-.75-1.57-1.54-2.34-2.33Z"/><path class="cls-66" d="M45.34,30.77l2.43,2.46c.12.13.29.22.3.43-.24.24-.55.13-.83.15s-.35,0-.52,0h-.16a.35.35,0,0,1-.22-.08c-.62-.6-1.3-1.15-1.9-1.78-.08-.07-.16-.17-.09-.29A6.3,6.3,0,0,1,45.34,30.77Z"/><path class="cls-67" d="M44.35,31.71a27.85,27.85,0,0,0,2.15,2.06,2.58,2.58,0,0,1,.09,1.43c0,.2-.19.24-.38.18a.63.63,0,0,1-.24-.16c-.78-.77-1.56-1.55-2.33-2.34-.21-.21-.25-.4,0-.59A1.82,1.82,0,0,1,44.35,31.71Z"/><path class="cls-58" d="M43.67,32.29c-.13.17-.17.31,0,.49.79.77,1.56,1.56,2.35,2.34.1.1.19.26.36.18s.09-.23.09-.36c0-.39,0-.78,0-1.17h.09a3.68,3.68,0,0,1,.1,2c0,.18-.19.25-.36.28a2.48,2.48,0,0,1-.72,0,.66.66,0,0,1-.36-.23c-.78-.79-1.59-1.54-2.39-2.3-.11-.1-.26-.2-.25-.39A7.75,7.75,0,0,1,43.67,32.29Z"/><path class="cls-68" d="M56.84,24.29A1.17,1.17,0,0,0,56.07,23l-.48-.22c-1-.81-2.06-1.49-3-2.33a1.08,1.08,0,0,1,.17-.78c.3-.15.43.13.61.24a2.24,2.24,0,0,1,.46.35c0,.58.37.83.81,1.05l.48.2c.82.62,1.63,1.25,2.47,1.85a1.39,1.39,0,0,1,.45.42,1.29,1.29,0,0,1-.17,1.08A1.66,1.66,0,0,1,56.84,24.29Z"/><path class="cls-18" d="M78.58,3.86a24.07,24.07,0,0,1,2.69,1,49.79,49.79,0,0,1,8,4c.13.08.3.13.39.36l-2.48.81q-5,1.63-9.93,3.24c-.2.07-.41.12-.61.17a.37.37,0,0,1-.31,0c0-.28.23-.28.38-.33,1.38-.49,2.79-.9,4.18-1.34l3.51-1.16c1.55-.48,3.09-1,4.72-1.48a7.2,7.2,0,0,0-1.46-.94,57.85,57.85,0,0,0-8-3.74c-.24-.09-.51-.12-.75-.23s-.41-.12-.43-.39A.12.12,0,0,1,78.58,3.86Z"/><path class="cls-69" d="M48.87,39.44c.06,0,.13,0,.17.06l3.23,3.15H50.51c-.63-.6-1.28-1.17-1.89-1.78-.13-.13-.28-.29-.14-.51a.62.62,0,0,0,.24-.49C48.73,39.72,48.71,39.55,48.87,39.44Z"/><path class="cls-70" d="M44.22,37.19A.69.69,0,0,1,43.7,37c-.86-.86-1.71-1.73-2.56-2.59a4.22,4.22,0,0,1,.86-.72c.76.77,1.59,1.48,2.36,2.23a.24.24,0,0,1,0,.14C44.34,36.42,44.54,36.85,44.22,37.19Z"/><path class="cls-71" d="M44.56,29.87,43.19,31c-.15.05-.25,0-.34-.13q-.52-.5-1-1c-.14-.15-.26-.31-.11-.52L43,28.29A9.45,9.45,0,0,0,44.56,29.87Z"/><path class="cls-72" d="M39.18,31.56l1.17-1a6.92,6.92,0,0,1,1.5,1.31.22.22,0,0,1,.07.26,9.3,9.3,0,0,1-1.27,1.08,8,8,0,0,1-1.46-1.39A.17.17,0,0,1,39.18,31.56Z"/><path class="cls-20" d="M41.92,32.12a6.82,6.82,0,0,0-1.22-1.18,4.4,4.4,0,0,1-.35-.39l1.37-1.18a.49.49,0,0,0,.14.4L43.19,31A13,13,0,0,1,41.92,32.12Z"/><path class="cls-72" d="M44.37,35.93A6.64,6.64,0,0,1,43,34.77a3,3,0,0,1-1-1.11,2,2,0,0,1,.61-.54l2.63,2.52c.08.07.19.13.19.27A1,1,0,0,1,44.37,35.93Z"/><path class="cls-34" d="M29.31,57.21c.3-.33.82-.19,1.12-.55A22.38,22.38,0,0,1,28,54.48a2.34,2.34,0,0,1,.79-.47A24.13,24.13,0,0,0,31,55.92c.22.17.42.37.29.69Z"/><path class="cls-73" d="M39.18,31.56c.21.47.67.72,1,1.1.15.18.32.36.48.54a6.77,6.77,0,0,1-1,.87.22.22,0,0,1-.31,0A8.2,8.2,0,0,1,38,32.59,9,9,0,0,1,39.18,31.56Z"/><path class="cls-74" d="M54.53,17.85c-.11-.49.07-.7.57-.6h.1c.91,0,.92,0,1,.91,0,.18,0,.3.23.37a2,2,0,0,1,1.44,1.65c-.15.11-.15.12-.25.07A4.53,4.53,0,0,1,57,19.8l-2-1.5A1.14,1.14,0,0,1,54.53,17.85Z"/><path class="cls-47" d="M46.4,25.36c0,.22.18.33.32.46l2.39,2.4c.12.12.28.22.32.41-.33-.26-.67-.52-1-.8-.66-.56-.73-.57-1.42-.1a.25.25,0,0,1-.27-.06A16.78,16.78,0,0,1,45.5,26.4a.2.2,0,0,1-.06-.22A6.22,6.22,0,0,1,46.4,25.36Z"/><path class="cls-75" d="M67.78,48.22c.13.09.12.22.12.35v2.54c0,.1,0,.25-.09.29a.28.28,0,0,1-.26-.09,8.57,8.57,0,0,0-1.16-1c-.27-.24-.22-.39,0-.63a8.89,8.89,0,0,0,1.3-1.37Z"/><path class="cls-76" d="M56.15,27.12a4,4,0,0,1-1.5.09c-.13,0-.13-.12-.13-.22a1.7,1.7,0,0,1,0-.39c.07-.41-.09-.62-.51-.76a2,2,0,0,1-1.47-1.64.31.31,0,0,1,.44,0c1,.78,2,1.51,3,2.26C56.21,26.66,56.08,26.92,56.15,27.12Z"/><path class="cls-77" d="M39.67,40.32c.19,0,.28.14.4.25l1.68,1.69c.11.11.26.2.26.39h-1.7c-.42,0-.66-.19-.66-.64S39.67,40.88,39.67,40.32Z"/><path class="cls-78" d="M48.46,40.43a3.07,3.07,0,0,0,.87,1,4.72,4.72,0,0,1,1.18,1.26H49.14c-.12-.38-.46-.57-.71-.83a5.14,5.14,0,0,1-1.24-1.39A1.17,1.17,0,0,1,48.46,40.43Z"/><path class="cls-79" d="M58,.94c-.92-.08-1.82.19-2.74.08.12-.13.3-.1.46-.11A43.59,43.59,0,0,1,62.11.68a54.37,54.37,0,0,1,7.53.83,7,7,0,0,1,1.42.3A.4.4,0,0,1,70.8,2a11.78,11.78,0,0,1-2-.32,19.41,19.41,0,0,1-2.29-.32,1.35,1.35,0,0,0-.66-.07c-1-.11-2-.11-3-.23A2.7,2.7,0,0,0,62,1h-3.1a2.92,2.92,0,0,0-.66,0A.28.28,0,0,1,58,.94Z"/><path class="cls-1" d="M20.48,88a1,1,0,0,1,.24.15c1.17,1.15,2.34,2.3,3.57,3.39s2.51,2.08,3.83,3a48.81,48.81,0,0,0,6.18,3.87,3.48,3.48,0,0,1,.39.28.1.1,0,0,1-.14,0,19.34,19.34,0,0,1-2.72-1.49,53.25,53.25,0,0,1-10.57-8.39A5,5,0,0,1,20.48,88Z"/><path class="cls-3" d="M34.55,98.76l.14,0c.72.35,1.46.69,2.18,1.05,1.1.56,2.24,1,3.37,1.48,1.38.57,2.79,1,4.21,1.48.93.28,1.85.56,2.79.79s1.81.47,2.74.62c.08,0,.16.1.24.15a.34.34,0,0,1-.34,0,16.42,16.42,0,0,1-2.94-.65,57.45,57.45,0,0,1-12.16-4.74A1,1,0,0,1,34.55,98.76Z"/><path class="cls-50" d="M45.44,26.18A13.69,13.69,0,0,0,47,27.73a4.82,4.82,0,0,1-.91.77.21.21,0,0,1-.23,0,10.29,10.29,0,0,1-1.32-1.32.24.24,0,0,1,0-.23Z"/><path class="cls-80" d="M38,32.59a15.66,15.66,0,0,1,1.25,1.19c.13.12.22.29.43.29,0,0,0,0,0,0-1,.88-1.63.75-2.25-.47a.54.54,0,0,1,.14-.7C37.67,32.82,37.84,32.71,38,32.59Z"/><path class="cls-69" d="M52.65,65.4c.07.43-.11.88.11,1.3a.65.65,0,0,1,.15.5c0,.74,0,1.49,0,2.23-.15,1.37,0,2.74-.08,4.11,0,.91,0,1.81,0,2.72,0,1.13,0,2.25,0,3.37a.57.57,0,0,1,0,.18,24.75,24.75,0,0,0-.06,2.72,2.84,2.84,0,0,1-.07.92.12.12,0,0,1-.16,0c0-3.43,0-6.86.06-10.3,0-2.39,0-4.78,0-7.17A1.14,1.14,0,0,1,52.65,65.4Z"/><path class="cls-81" d="M76.3,13.45h.32a5.13,5.13,0,0,1-1.46.49c-.4.1-.78-.16-1.16-.29a41.22,41.22,0,0,0-7.75-1.76,38.05,38.05,0,0,0-6.13-.32l-.43,0a.13.13,0,0,1-.12-.12.22.22,0,0,1,.12-.13,6.71,6.71,0,0,1,1.79-.05l2.43.12a1.47,1.47,0,0,0,.59.07,1.09,1.09,0,0,1,.66.14c1.18.27,2.4.31,3.58.57s2.05.44,3.07.7c.19-.13.38,0,.55,0,.53.17,1.06.29,1.58.47a2.57,2.57,0,0,0,2.23.05A.17.17,0,0,1,76.3,13.45Z"/><path class="cls-82" d="M54.53,17.85c1,.71,1.91,1.43,2.88,2.14.12.09.23.27.43.19.15.24.14.39-.2.39a5.61,5.61,0,0,0-.58,0,.32.32,0,0,1-.38-.28,1.07,1.07,0,0,0-1.1-.9,1.59,1.59,0,0,1-1-.3c-.16-.14-.41-.26-.27-.55C54.64,18.39,54.46,18.08,54.53,17.85Z"/><path class="cls-83" d="M49.88,104.32h.34a2.87,2.87,0,0,0,.77.11c.64.19,1.33.15,2,.38h.39a5.9,5.9,0,0,0,1.51.26,21.17,21.17,0,0,0,3.08.22,22.12,22.12,0,0,1,2.7,0,6.71,6.71,0,0,0,1.79,0c.6,0,1.2,0,1.8,0a1.77,1.77,0,0,0,.76,0,5.47,5.47,0,0,1,1,0,1.62,1.62,0,0,0,.62-.05.66.66,0,0,1,.31,0,.26.26,0,0,1,.14.18,35.69,35.69,0,0,1-3.58.26c-1.42,0-2.84.06-4.25,0a48.12,48.12,0,0,1-6.77-.71A18.43,18.43,0,0,1,49.88,104.32Z"/><path class="cls-28" d="M44.56,29.87c-.53,0-.72-.52-1-.81s-.56-.38-.54-.77l.79-.68c.53.51,1.06,1,1.57,1.57A4.65,4.65,0,0,1,44.56,29.87Z"/><path class="cls-84" d="M56.15,27.12c-.06-.62-.62-.81-1-1.11-.69-.53-1.4-1-2.09-1.58-.16-.12-.29-.27-.51-.23a.18.18,0,0,1,0-.22c.09-.13,1.13-.12,1.17,0,.17.72.74.92,1.34,1.07s.82.62,1.27.87C56.06,26.33,56.24,26.74,56.15,27.12Z"/><path class="cls-7" d="M45.34,29.18a4.71,4.71,0,0,1-1.57-1.57l.78-.67a7.49,7.49,0,0,0,1.57,1.56A3.38,3.38,0,0,1,45.34,29.18Z"/><path class="cls-85" d="M47.78,74.42h.08c0,.19,0,.39,0,.58q0,8.59,0,17.18c0,.84,0,.8.86.91s2,.33,2.92.5a.1.1,0,0,1-.06.14,4.35,4.35,0,0,1-1.39-.13,13.81,13.81,0,0,1-2.45-.49.8.8,0,0,1-.16-.59c0-1,0-1.91,0-2.86,0-1.33,0-2.67,0-4s0-2.41,0-3.62c0-.87,0-1.75,0-2.63a.86.86,0,0,1,.15-.6V74.42Z"/><path class="cls-19" d="M67.9,78.23v7.06c0,.18-.06.39.09.56q0,3.63,0,7.26c0,.91,0,.92.9.71s1.8-.37,2.71-.51c.07,0,.22,0,.2.14s-.41.13-.61.21-.45,0-.64.14A8.92,8.92,0,0,1,69.2,94a2.5,2.5,0,0,1-.38.06,4.31,4.31,0,0,1-.79.12.31.31,0,0,1-.24-.24c-.06-2.07,0-4.15,0-6.22a3.1,3.1,0,0,0-.06-.91,7.18,7.18,0,0,1,0-1.31c0-1.07,0-2.14,0-3.2s0-2.33,0-3.49c0-.21,0-.45.15-.62Z"/><path class="cls-86" d="M52.58,20.48a5.08,5.08,0,0,1,1.28.87c.44.28.84.62,1.27.91a1.43,1.43,0,0,1,.46.55,5.65,5.65,0,0,1-2.2-.82A1.75,1.75,0,0,1,52.58,20.48Z"/><path class="cls-87" d="M8.41,42.76v-.32a16.36,16.36,0,0,1,.65-2.68,48.4,48.4,0,0,1,3.65-9,1.31,1.31,0,0,1,.28-.45.27.27,0,0,1,.09.12c0,.26-.18.44-.26.66-.45.87-.86,1.75-1.27,2.63-.27.66-.55,1.32-.8,2l-.12.34a28.26,28.26,0,0,0-1,2.81c-.33.89-.52,1.81-.76,2.72-.07.27-.1.54-.18.8S8.65,42.76,8.41,42.76Z"/><path class="cls-88" d="M112,64.65c.27-.28.12-.68.29-1q0-.06.09,0a22.54,22.54,0,0,1-.71,3.55,43.53,43.53,0,0,1-2.45,7.19c-.11.24-.24.46-.35.69a.09.09,0,0,1-.13,0,3.68,3.68,0,0,1,.44-1.28c.27-.69.49-1.4.78-2.09.45-1.07.73-2.2,1.07-3.3s.58-2,.74-3.08A1.12,1.12,0,0,1,112,64.65Z"/><path class="cls-89" d="M58,23.81a15.68,15.68,0,0,1-2-1.44c-.32-.25-.76-.38-.91-.83a5.44,5.44,0,0,1,2.22.89A1.67,1.67,0,0,1,58,23.81Z"/><path class="cls-90" d="M31.45,9.8a35.46,35.46,0,0,1,3.83-2.56,31.27,31.27,0,0,1,5-2.42.21.21,0,0,1,0,.13c-.25.38-.72.39-1.06.61-.84.33-1.63.78-2.46,1.15s-1.64.94-2.45,1.44A24.92,24.92,0,0,0,32.08,9.7c-.21.09-.37.33-.64.23A.11.11,0,0,1,31.45,9.8Z"/><path class="cls-91" d="M92.52,79.79c.86-1.24,1.72-2.47,2.49-3.77s1.59-2.86,2.27-4.35c.06-.13.15-.25.22-.38a.3.3,0,0,1,.1.2A8.55,8.55,0,0,1,97,73c-.39.75-.81,1.49-1.18,2.25s-.93,1.61-1.46,2.38a23.67,23.67,0,0,1-1.35,2c-.13.16-.23.36-.49.35,0,0,0,0,0-.08S92.51,79.79,92.52,79.79Z"/><path class="cls-6" d="M31.94,56.35c.42-.29.51-.26.71.19.57,1.27,1.16,2.54,1.74,3.81A2.74,2.74,0,0,1,35,61.44c.3.78.72,1.52,1,2.31.11.29.22.3.43.1s.22-.26.42-.18a.12.12,0,0,1,0,.13c-.76.77-.76.77-1.19-.18-1-2.27-2-4.55-3-6.82C32.48,56.48,32.33,56.26,31.94,56.35Z"/><path class="cls-92" d="M22.1,36.71c-.36,1-.73,2-1.09,3-.5,1.41-.83,2.86-1.25,4.28a.09.09,0,0,1-.13,0,.31.31,0,0,1-.07-.2c0-.12,0-.23.05-.35.18-.74.41-1.45.58-2.19.25-1,.62-1.89.92-2.84.19-.45.36-.91.52-1.36.07-.18.11-.39.34-.45A.13.13,0,0,1,22.1,36.71Z"/><path class="cls-93" d="M86.67,99.24a27.28,27.28,0,0,1-3.26,1.7,49.56,49.56,0,0,1-4.67,1.89,1.23,1.23,0,0,1-.19,0,.17.17,0,0,1-.21,0c.07-.36.42-.31.65-.43a19.8,19.8,0,0,0,2.45-1A15.62,15.62,0,0,0,84,100.31a2.14,2.14,0,0,1,.43-.21,9.23,9.23,0,0,0,1.5-.77,1.3,1.3,0,0,1,.57-.23A.2.2,0,0,1,86.67,99.24Z"/><path class="cls-94" d="M86.67,99.24l-.11-.1c0-.16.15-.23.28-.3a21.86,21.86,0,0,0,2.23-1.33,27.67,27.67,0,0,0,2.3-1.59,25.29,25.29,0,0,0,2.08-1.63c.18-.1.31-.32.56-.22a.12.12,0,0,1,0,.13,40.64,40.64,0,0,1-5.61,4.06A11.72,11.72,0,0,1,86.67,99.24Z"/><path class="cls-95" d="M56.84,24.29a4.79,4.79,0,0,1,1,.6,1.5,1.5,0,0,1-1,.87,2.85,2.85,0,0,1-1-.75A1.22,1.22,0,0,0,56.84,24.29Z"/><path class="cls-96" d="M100.61,87.51a46.14,46.14,0,0,1-4.35,4.71,10.87,10.87,0,0,1-1.2,1s-.08,0-.12,0a.15.15,0,0,1,0-.13,3.2,3.2,0,0,1,.33-.42.67.67,0,0,1,.15-.14,15.66,15.66,0,0,0,1.83-1.72c.66-.7,1.33-1.39,2-2.13.32-.29.57-.66.86-1a.89.89,0,0,1,.43-.31A.18.18,0,0,1,100.61,87.51Z"/><path class="cls-25" d="M13,30.45l0-.13a18.57,18.57,0,0,1,1.4-2.5,36.93,36.93,0,0,1,2.9-4.24.16.16,0,0,1,.07.11c0,.3-.26.49-.39.74a25.39,25.39,0,0,0-1.66,2.43c-.44.59-.78,1.24-1.16,1.87s-.52,1-.81,1.42C13.25,30.28,13.21,30.47,13,30.45Z"/><path class="cls-97" d="M88,78.79a2.34,2.34,0,0,1,.06.91c0,1.27,0,2.53,0,3.8,0,.42.12.53.48.29a.09.09,0,0,1,.15,0,.2.2,0,0,1,0,.17.7.7,0,0,1-.28.26c-.37.22-.59.13-.62-.3a12.36,12.36,0,0,1,0-1.36c0-1.17-.07-2.33,0-3.5A.46.46,0,0,1,88,78.79Z"/><path class="cls-98" d="M31.45,9.8v.13A2.75,2.75,0,0,1,30.09,11a22.85,22.85,0,0,0-2.21,1.71s0,.09,0,.14c-.44.42-.91.8-1.38,1.19-.08.07-.17.15-.3.08a.11.11,0,0,1,0-.12,38,38,0,0,1,3.31-2.78A18.3,18.3,0,0,1,31.45,9.8Z"/><path class="cls-27" d="M72.5,86.63c0-2.33,0-4.67,0-7,0-1.51,0-3,0-4.53h.09a.31.31,0,0,1,.1.15c.08,1,0,2,0,2.92,0,1.87,0,3.74,0,5.61,0,.76,0,1.52,0,2.27a1.19,1.19,0,0,1-.06.53A.13.13,0,0,1,72.5,86.63Z"/><path class="cls-98" d="M29.91,25c.25-.67.87-1,1.33-1.48a7.93,7.93,0,0,0,.71-.71,3.7,3.7,0,0,1,1-1,6.93,6.93,0,0,0,.58-.5c.1-.09.19-.2.35-.19a.17.17,0,0,1,.13.14c-1.29,1.2-2.64,2.33-3.86,3.6A1.23,1.23,0,0,1,29.91,25Z"/><path class="cls-99" d="M54.32,18.54c.21.6.77.68,1.26.85a2.39,2.39,0,0,0-1.45.32c-.35-.16-.75-.28-.69-.79A1.46,1.46,0,0,1,54.32,18.54Z"/><path class="cls-100" d="M87.93,68.16v-3a2.24,2.24,0,0,1-.15-.81V60.65a.94.94,0,0,1,.16-.69V57.22H88c0,1.56,0,3.11,0,4.67,0,2.09,0,4.18,0,6.27C88,68.21,88,68.21,87.93,68.16Z"/><path class="cls-101" d="M87.93,68.16H88c0,1.89,0,3.77,0,5.66,0,1.65,0,3.31,0,5,0,.08,0,.17-.11.22a.46.46,0,0,1-.14-.35c0-1.48,0-3,0-4.43a.66.66,0,0,1,.14-.5c0-1.46,0-2.93,0-4.39Z"/><path class="cls-102" d="M97.5,71.49v-.2A42.72,42.72,0,0,0,100,65.52a2.81,2.81,0,0,1,.33-.89.24.24,0,0,1,.11.19,4.85,4.85,0,0,1-.3,1.07c-.08.2-.13.41-.21.61a2.85,2.85,0,0,0-.2.51c-.13.48-.38.92-.55,1.38a15.42,15.42,0,0,1-1,2.14l-.35.67C97.75,71.32,97.72,71.51,97.5,71.49Z"/><path class="cls-103" d="M106.77,79.11a28.77,28.77,0,0,1-3.12,4.46c-.2.24-.39.48-.59.71-.09,0-.12,0-.14-.11.17-.49.6-.79.88-1.2.12-.17.26-.32.38-.5.52-.65,1-1.35,1.45-2a8.12,8.12,0,0,0,.59-.93c.1-.19.19-.38.42-.43A.17.17,0,0,1,106.77,79.11Z"/><path class="cls-104" d="M28.66,26.45c-.72.86-1.43,1.7-2.14,2.56-.37.44-.72.9-1.08,1.35a.11.11,0,0,1-.13,0c-.15-.24,0-.4.15-.55.23-.31.48-.6.72-.9.45-.62,1-1.18,1.47-1.77.27-.29.47-.65.89-.77A.23.23,0,0,1,28.66,26.45Z"/><path class="cls-105" d="M59.59,11.49l.1.07a58.76,58.76,0,0,0-7.49.83l-.23,0c.18-.37.56-.24.85-.34.7-.15,1.41-.24,2.12-.34.25,0,.51,0,.76-.06l.15,0a4.58,4.58,0,0,1,.53,0,1.6,1.6,0,0,0,.53-.06c.32,0,.64-.11,1-.14s.63,0,1,0S59.36,11.3,59.59,11.49Z"/><path class="cls-106" d="M40.26,5V4.82a37.44,37.44,0,0,1,5.47-1.95.21.21,0,0,1,.05.13c0,.19-.22.23-.37.25a8.32,8.32,0,0,0-1,.26,1.78,1.78,0,0,0-.43.18,2.19,2.19,0,0,1-.33.12c-.77.26-1.54.54-2.29.86C41,4.74,40.67,5,40.26,5Z"/><path class="cls-107" d="M53.44,18.92c.05.41.5.49.69.79a1.31,1.31,0,0,0-.31.58c-.32,0-.46-.26-.7-.38s-.2-.21-.37-.21A1.3,1.3,0,0,1,53.44,18.92Z"/><path class="cls-15" d="M102,20.67c-.45-.15-.57-.61-.82-.93-1-1.3-2.09-2.55-3.23-3.75h.11A26.35,26.35,0,0,1,102,20.67Z"/><path class="cls-108" d="M54.52,57.51A12.58,12.58,0,0,0,56,56.05a7.58,7.58,0,0,1,1.23-1.3.3.3,0,0,1,.36-.07.23.23,0,0,1,0,.14l-3.25,3.23a.48.48,0,0,1-.18.07.24.24,0,0,1-.06-.11.35.35,0,0,1,.1-.24A.71.71,0,0,1,54.52,57.51Z"/><path class="cls-109" d="M55.89,25a2.65,2.65,0,0,1,1,.75.89.89,0,0,1-.59.19c-.58-.05-.88-.53-1.27-.87A3.31,3.31,0,0,0,55.89,25Z"/><path class="cls-110" d="M64.58,47.85c-.74.89-1.61,1.64-2.41,2.47-.48.49-1,1-1.5,1.45a.24.24,0,0,1-.05-.2,8.93,8.93,0,0,1,1.53-1.66c.61-.43,1-1.1,1.59-1.54.29-.2.43-.61.85-.64C64.62,47.78,64.62,47.82,64.58,47.85Z"/><path class="cls-111" d="M88.71,83.8h-.13a24.44,24.44,0,0,0,3.94-4v.1a.21.21,0,0,1,0,.2,12.4,12.4,0,0,1-1.43,1.73,13.24,13.24,0,0,1-2.07,1.89A.32.32,0,0,1,88.71,83.8Z"/><path class="cls-87" d="M19.64,44h.12c-.29,1.73-.58,3.45-.88,5.18h-.12c-.15-.15-.07-.33-.06-.5,0-.84.29-1.65.38-2.48.1-.57.18-1.14.3-1.71C19.42,44.34,19.42,44.12,19.64,44Z"/><path class="cls-69" d="M51.68,93.66v-.07a1.43,1.43,0,0,1,.29,0c.35.07.41-.1.41-.4,0-1.43,0-2.87,0-4.3,0-1,0-2,0-3,0-.16,0-.33.06-.48.2.18.15.42.15.64,0,1.13,0,2.25,0,3.38V93a1.45,1.45,0,0,1-.07.62c-.19.23-.45.18-.69.15A.31.31,0,0,1,51.68,93.66Z"/><path class="cls-24" d="M46.69,2.58A35.66,35.66,0,0,1,51.48,1.5a.18.18,0,0,1,0,.21c-.26.23-.61.15-.92.21-.93.18-1.84.48-2.78.61-.39,0-.72.39-1.14.17A.09.09,0,0,1,46.69,2.58Z"/><path class="cls-29" d="M24.36,32,22.6,35.54a.11.11,0,0,1-.14,0,.69.69,0,0,1,.12-.68,12.27,12.27,0,0,0,.56-1.23c.28-.44.5-.9.75-1.35.07-.12.12-.27.27-.33A.21.21,0,0,1,24.36,32Z"/><path class="cls-69" d="M24.13,16.18c-.3,0-.43.31-.63.49-.48.45-.94.92-1.42,1.38a.09.09,0,0,1,0-.13,37.06,37.06,0,0,1,3.42-3.33.25.25,0,0,1,.07.12c0,.27-.26.36-.41.52C24.82,15.56,24.47,15.87,24.13,16.18Z"/><path class="cls-16" d="M78.58,3.86l-.13,0c-.18.16-.37.08-.55,0-.67-.18-1.32-.45-2-.62-.51-.22-1.07-.27-1.59-.44-.18-.07-.44-.06-.46-.35a.29.29,0,0,1,.24,0A32.27,32.27,0,0,1,78.58,3.86Z"/><path class="cls-16" d="M112.34,63.67h-.09c0-.87.18-1.73.27-2.59a.77.77,0,0,0-.14-.59c-.19-.3-.18-.53.26-.53a4.44,4.44,0,0,0,.08,1.26A22.67,22.67,0,0,1,112.34,63.67Z"/><path class="cls-110" d="M72.5,86.63h.09a.5.5,0,0,1,.13.4c0,2,0,4,0,6a.51.51,0,0,1-.1.24.45.45,0,0,1-.45.14.35.35,0,0,1-.27-.14c.49-.06.62-.33.62-.83C72.47,90.5,72.5,88.56,72.5,86.63Z"/><path class="cls-112" d="M106.77,79.11h-.09c-.14-.22,0-.37.12-.54.48-.86,1-1.73,1.36-2.63.25-.24.16-.71.57-.84h.1a21.13,21.13,0,0,1-1.54,3.13C107.14,78.53,106.94,78.82,106.77,79.11Z"/><path class="cls-105" d="M51.49,1.72V1.5A33.58,33.58,0,0,1,55.08,1s.08,0,.13.06c-.45.33-1,.16-1.47.31a1.72,1.72,0,0,1-.88.22C52.4,1.58,52,1.7,51.49,1.72Z"/><path class="cls-24" d="M73.08,39.34,74.54,38l.08.1c-.32.53-.88.82-1.28,1.28-.56.63-1.21,1.19-1.82,1.79a.1.1,0,0,1,0-.14Z"/><path class="cls-113" d="M103,84.19l.09.09a29.49,29.49,0,0,1-2.45,3.23h-.09c-.12-.2,0-.31.13-.44.62-.82,1.25-1.62,1.85-2.44C102.66,84.49,102.68,84.19,103,84.19Z"/><path class="cls-110" d="M61.64,43.83a.21.21,0,0,0,.2.1l0,.06a.21.21,0,0,1-.09.21,13.25,13.25,0,0,0-1.55,1.45,7.82,7.82,0,0,1-1,1c-.08,0-.14,0-.1-.13C60,45.59,60.73,44.64,61.64,43.83Z"/><path class="cls-69" d="M57.56,54.82l0-.14c-.08-.09,0-.17,0-.25.52-.47,1-1,1.48-1.46.35-.27.57-.69,1-.86a.16.16,0,0,1,.14.13C59.37,53.16,58.42,54,57.56,54.82Z"/><path class="cls-38" d="M82.75,33.67l-1.47,1.57L79.53,36.9l0-.13c1-1.1,2.12-2.18,3.23-3.22C82.79,33.59,82.79,33.63,82.75,33.67Z"/><path class="cls-38" d="M100.33,64.84v-.21c.18-.7.33-1.41.53-2.1a5.45,5.45,0,0,1,.27-1.11l.19.1a1.28,1.28,0,0,1-.08.84,10.18,10.18,0,0,0-.3,1.21c-.1.31-.23.62-.32.95C100.57,64.65,100.56,64.85,100.33,64.84Z"/><path class="cls-114" d="M77.67,103.14a36.65,36.65,0,0,1-3.72,1c-.07,0-.23,0-.2-.15a.35.35,0,0,1,.2-.14c.77-.14,1.51-.41,2.27-.61.41,0,.79-.25,1.2-.3A.35.35,0,0,1,77.67,103.14Z"/><path class="cls-85" d="M52.47,89.47c0-1.35,0-2.69,0-4,0-.64,0-1.28,0-1.93h.09c.2.22.13.49.14.74,0,.41,0,.81,0,1.21,0,1.17,0,2.34,0,3.51a.87.87,0,0,1-.07.42A.18.18,0,0,1,52.47,89.47Z"/><path class="cls-115" d="M43.1,58.53c-.79.72-1.59,1.41-2.44,2a.14.14,0,0,1-.06-.12.69.69,0,0,1,.27-.4c.63-.51,1.22-1.06,1.86-1.56.12-.06.22-.19.38-.1A.1.1,0,0,1,43.1,58.53Z"/><path class="cls-33" d="M72.59,75.1H72.5V69.24h.09l.06.07a.93.93,0,0,1,.07.52c0,1.56,0,3.12,0,4.67C72.72,74.71,72.76,74.93,72.59,75.1Z"/><path class="cls-116" d="M36.85,63.8l0-.13c.06-.47.48-.56.78-.78a9.33,9.33,0,0,0,1.47-1.17.08.08,0,0,1,.12,0,.09.09,0,0,1,0,.12A29.22,29.22,0,0,1,36.85,63.8Z"/><path class="cls-69" d="M54.62,51.17,57,48.71a.18.18,0,0,1,.14.14c-.28.59-.85.91-1.25,1.39-.41.31-.62.82-1.11,1C54.66,51.29,54.6,51.27,54.62,51.17Z"/><path class="cls-117" d="M17.3,23.71l0-.13a25.36,25.36,0,0,1,2.34-2.94.2.2,0,0,1,.08.12,6.49,6.49,0,0,1-1,1.31c-.08.12-.19.22-.27.34-.26.35-.54.69-.81,1C17.57,23.56,17.5,23.73,17.3,23.71Z"/><path class="cls-104" d="M19.64,20.78l0-.14a26.28,26.28,0,0,1,2.45-2.72v.13l-.19.29c-.53.76-1.2,1.39-1.79,2.09C19.94,20.54,19.88,20.78,19.64,20.78Z"/><path class="cls-118" d="M74.09,2.49l-.23,0a.21.21,0,0,1-.17.08,10.1,10.1,0,0,1-2.86-.67c0-.09.14-.1.23-.11A17.68,17.68,0,0,1,74.09,2.49Z"/><path class="cls-23" d="M32.25,83.57v.13a3.81,3.81,0,0,1-1.17-1,2,2,0,0,1-.59-.49h0a1.9,1.9,0,0,1-.49-.49h0c-.06-.14-.22-.23-.18-.42C30.59,82.11,31.42,82.84,32.25,83.57Z"/><path class="cls-119" d="M39.49,57.42c.82-.93,1.72-1.79,2.61-2.64,0,0,.08-.05.12,0,0,.22-.15.32-.26.46L40.7,56.5a4.76,4.76,0,0,1-1.09,1A.19.19,0,0,1,39.49,57.42Z"/><path class="cls-120" d="M36,19.51c.45-.05.65-.56,1.11-.58L34.6,20.81a.19.19,0,0,1-.07-.12c0-.22.19-.32.35-.44C35.23,20,35.62,19.78,36,19.51Z"/><path class="cls-26" d="M95,22.14h.11c0,1.35,0,2.71,0,4.06,0,.09,0,.24-.08.25s-.19-.09-.24-.19a.33.33,0,0,0,.2-.41A.72.72,0,0,1,95,25V22.14Z"/><path class="cls-121" d="M45.62,56.24l0,.14a19.52,19.52,0,0,1-2,1.66.24.24,0,0,1-.07-.12c0-.35.38-.45.59-.67s.61-.52.93-.77C45.27,56.37,45.4,56.19,45.62,56.24Z"/><path class="cls-121" d="M42.21,54.78H42.1c.76-.81,1.51-1.61,2.33-2.35h.12c.06.24-.14.34-.27.47-.27.3-.56.57-.84.86s-.52.53-.8.78C42.52,54.66,42.43,54.84,42.21,54.78Z"/><path class="cls-30" d="M82.75,33.67v-.12c.72-.78,1.46-1.53,2.25-2.24a.23.23,0,0,1,.06.12,4.71,4.71,0,0,1-1.42,1.46Z"/><path class="cls-122" d="M59.1,46.47l.1.1c0,.28-.21.37-.33.55a16.31,16.31,0,0,1-1.42,1.34c-.08,0-.14,0-.1-.13C57.94,47.72,58.45,47,59.1,46.47Z"/><path class="cls-123" d="M67,105.31l-.12-.11A2.18,2.18,0,0,1,68,105c.35,0,.7-.09,1-.16a1.77,1.77,0,0,1,.32,0c.23,0,.46-.12.7,0a.11.11,0,0,1,0,.14A15.24,15.24,0,0,1,67,105.31Z"/><path class="cls-55" d="M24.36,32h-.23c0-.42.37-.67.51-1s.25-.63.66-.64h.14Z"/><path class="cls-108" d="M54.62,51.17l.09.09c0,.28-.21.37-.34.55A8.43,8.43,0,0,1,53.05,53l-.1-.09A18.49,18.49,0,0,1,54.62,51.17Z"/><path class="cls-31" d="M85,31.43v-.12a24,24,0,0,1,2-2,.19.19,0,0,1,.07.12c-.25.57-.8.87-1.17,1.33C85.55,31,85.42,31.4,85,31.43Z"/><path class="cls-15" d="M108.55,32.2a4.07,4.07,0,0,1-1-2.07A12.24,12.24,0,0,1,108.55,32.2Z"/><path class="cls-16" d="M112.94,59a20.69,20.69,0,0,1,.09-2.84l.08-.19A22,22,0,0,1,112.94,59Z"/><path class="cls-69" d="M28.66,26.45h-.13a.39.39,0,0,1,.14-.43,4.55,4.55,0,0,1,1-.93h.14A5.9,5.9,0,0,1,28.66,26.45Z"/><path class="cls-23" d="M39.18,61.83v-.11a.3.3,0,0,1,.14-.34,9.66,9.66,0,0,0,1-.9.19.19,0,0,1,.3,0l0,.13A11.79,11.79,0,0,1,39.18,61.83Z"/><path class="cls-16" d="M113.11,53.8a10.58,10.58,0,0,1-.17-2.75A18,18,0,0,1,113.11,53.8Z"/><path class="cls-124" d="M52.38,59.88v-.12a7,7,0,0,1,1.1-1.21,1.8,1.8,0,0,1,.29-.26.31.31,0,0,1,.12,0,.17.17,0,0,1,.12,0A9.38,9.38,0,0,1,52.38,59.88Z"/><path class="cls-125" d="M73.76,104.12l.19.07-2.14.43a.14.14,0,0,1,0-.15c.3-.25.7-.19,1-.29S73.44,104,73.76,104.12Z"/><path class="cls-115" d="M39.49,57.42h.08c0,.46-.5.61-.72.93-.22.14-.32.46-.65.43V58.7A10.4,10.4,0,0,1,39.49,57.42Z"/><path class="cls-25" d="M22.47,35.53h.13a4.05,4.05,0,0,1-.5,1.17H22c-.15-.34.12-.59.19-.88A.44.44,0,0,1,22.47,35.53Z"/><path class="cls-126" d="M95,93.27h.11A5.84,5.84,0,0,1,94,94.2l0-.15C94.22,93.69,94.41,93.27,95,93.27Z"/><path class="cls-5" d="M90.76,22.35c0-.11-.08-.21.1-.21a2.13,2.13,0,0,0,.54.54c.12.1.31.22.22.45Z"/><path class="cls-127" d="M71.81,104.52v.1a8.09,8.09,0,0,1-1.76.29v-.1A2.83,2.83,0,0,1,71.81,104.52Z"/><path class="cls-4" d="M77,35.73c.06-.34.06-.34.77-.88,0-.06.1-.06.16,0Z"/><path class="cls-18" d="M83.82,13.84c-.3,0-.56.25-.89.19a6.18,6.18,0,0,1,1.67-.5A2,2,0,0,1,83.82,13.84Z"/><path class="cls-122" d="M60.18,52.24l-.1-.1c0-.34.26-.48.52-.61l.07,0v.22A1.57,1.57,0,0,1,60.18,52.24Z"/><path class="cls-44" d="M77.93,34.85h-.16v-.1l.78-.69h.16Z"/><path class="cls-27" d="M64.58,47.85v-.11c0-.25.16-.34.31-.47a1,1,0,0,1,.36-.17.23.23,0,0,1,.12.06A2.28,2.28,0,0,1,64.58,47.85Z"/><path class="cls-43" d="M34.58,20.67l0,.14a1.77,1.77,0,0,1-.58.47l-.12-.11A.64.64,0,0,1,34.58,20.67Z"/><path class="cls-48" d="M46.69,2.58v.13a1,1,0,0,1-1,.29V2.87A3.73,3.73,0,0,1,46.69,2.58Z"/><path class="cls-19" d="M25.5,14.73v-.14a2.69,2.69,0,0,1,.68-.58l0,.13c0,.16-.08.24-.17.34S25.74,14.77,25.5,14.73Z"/><path class="cls-48" d="M71.51,41v.14L71,41.6c-.11,0-.13,0-.11-.11a.92.92,0,0,1,.39-.39Z"/><path class="cls-128" d="M77.67,103.14a.2.2,0,0,1-.2-.09.74.74,0,0,1,.87-.21h.21A3.49,3.49,0,0,1,77.67,103.14Z"/><path class="cls-119" d="M43.67,57.9V58a2.1,2.1,0,0,1-.58.49l0-.14C43.11,58,43.36,57.93,43.67,57.9Z"/><path class="cls-16" d="M101.92,55.27c.25.28,0,.58,0,.88l0-.41Z"/><path class="cls-40" d="M85.47,18.05a.3.3,0,0,1,.34.33.31.31,0,0,1-.33.34C85.68,18.49,85.78,18.27,85.47,18.05Z"/><path class="cls-26" d="M92.22,11.3a1.55,1.55,0,0,1-1,.29A2.78,2.78,0,0,1,92.22,11.3Z"/><path class="cls-1" d="M11.17,73.54c.4,0,.27.35.26.59A1.83,1.83,0,0,1,11.17,73.54Z"/><path class="cls-129" d="M57.35,48.33l.1.1a.16.16,0,0,1,0,.12.46.46,0,0,1-.41.27L57,48.71A1.21,1.21,0,0,1,57.35,48.33Z"/><path class="cls-10" d="M110.8,38.76a1,1,0,0,1-.2-.8A1.69,1.69,0,0,1,110.8,38.76Z"/><path class="cls-16" d="M112.85,59.7c0-.24-.11-.5.09-.72A1.47,1.47,0,0,1,112.85,59.7Z"/><path class="cls-32" d="M58.72,57.22c-.14.06-.23.21-.4.19a1.46,1.46,0,0,1,.4-.38Z"/><path class="cls-90" d="M65.37,47.16h-.11c0-.22.07-.32.29-.3h.11A.68.68,0,0,1,65.37,47.16Z"/><path class="cls-44" d="M76.5,28.21a.4.4,0,0,1-.34.37A1,1,0,0,1,76.5,28.21Z"/><path class="cls-5" d="M112.16,44.81c-.19-.17-.08-.39-.09-.6C112.2,44.4,112.14,44.61,112.16,44.81Z"/><path class="cls-98" d="M71.88,93.26l.32,0c-.08.25-.23.19-.39.09l-.19-.06Z"/><path class="cls-7" d="M70.93,41.49l.11.11-.23.18C70.67,41.61,70.82,41.56,70.93,41.49Z"/><path class="cls-1" d="M10.76,72.47c.19.09.2.25.17.42A.71.71,0,0,1,10.76,72.47Z"/><path class="cls-5" d="M112.07,44.22c-.19-.14-.09-.34-.1-.51Z"/><path class="cls-16" d="M87,29.47v-.12a.28.28,0,0,1,.17-.18h.13C87.26,29.4,87.17,29.5,87,29.47Z"/><path class="cls-32" d="M58.23,57.51a.27.27,0,0,1-.31.29Z"/><path class="cls-29" d="M54,58.29h-.17c0-.1,0-.17.06-.24S54,58,54.12,58v.12Z"/><path class="cls-16" d="M112.75,60.66c0-.17-.07-.36.08-.5A.87.87,0,0,1,112.75,60.66Z"/><path class="cls-3" d="M53,104.8a10.13,10.13,0,0,1-2-.38A6,6,0,0,1,53,104.8Z"/><path class="cls-130" d="M47.77,89.66c0,1,0,1.94,0,2.91,0,.17-.06.36.09.51a3.85,3.85,0,0,0,.75.16,1.18,1.18,0,0,1,.71.39c1.05,1,2.19,1.91,3.28,2.89s2.28,2,3.42,3l3.06,2.63c1,.91,2.14,1.79,3.14,2.75.15.14.34.28.2.53-1.46.16-2.92-.07-4.38,0,0,0-.08-.05-.12-.08.23,0,.13-.13,0-.2-1-.76-1.93-1.68-2.91-2.5-.76-.64-1.51-1.3-2.24-2-1-.93-2.12-1.8-3.16-2.71-.79-.69-1.52-1.45-2.35-2.09s-1.56-1.36-2.37-2c-1-.84-2-1.73-3-2.6l-3.52-3-3-2.56c-.88-.76-1.78-1.51-2.66-2.26a1.05,1.05,0,0,0-.19,0c-.08-.12,0-.25,0-.38q0-2.88,0-5.76c0-.15-.1-.35.1-.43s.32.05.44.15c.8.59,1.51,1.28,2.26,1.93,1.65,1.42,3.31,2.83,4.94,4.27,1.11,1,2.25,2,3.38,2.94s2.08,1.82,3.14,2.7A3.87,3.87,0,0,1,47.77,89.66Z"/><path class="cls-23" d="M47.77,89.66c-.4-.32-.81-.63-1.19-1-1.09-.94-2.16-1.9-3.24-2.84-.74-.64-1.54-1.23-2.25-1.9-.87-.83-1.8-1.57-2.7-2.36-1.23-1.09-2.48-2.16-3.73-3.23-.55-.47-1.09-1-1.64-1.41-.09-.07-.2-.23-.33-.12s-.06.21-.06.32v6.15c0,.13,0,.26,0,.39s-.13.25-.29.1c.27-.14.19-.39.19-.61q0-4.09,0-8.19c.1-.61,0-1.23.05-1.84,0-.15-.1-.35.11-.43s.27.06.38.16c.72.61,1.46,1.19,2.15,1.83s1.58,1.34,2.34,2,1.68,1.48,2.54,2.2c1,.87,2,1.79,3,2.64.8.64,1.55,1.34,2.33,2,.63.54,1.27,1.07,1.87,1.63a4,4,0,0,1,.41.41Z"/><path class="cls-119" d="M18.56,54.09v.1a.53.53,0,0,1,0,.49V55c.14.45,0,.92.1,1.37a3.4,3.4,0,0,0,.1.78,1,1,0,0,1-.76-.36l-6.92-6C10,49.84,9,48.9,7.91,48.08c-.35-.26-.24-.59-.19-.92A11,11,0,0,1,8,45c.08-.25.06-.52.16-.76s.35,0,.47.12c1,.87,1.94,1.73,2.92,2.57.66.56,1.33,1.1,2,1.67,1.44,1.3,2.95,2.5,4.36,3.82.21.2.53.28.63.58A5.55,5.55,0,0,0,18.56,54.09Z"/><path class="cls-87" d="M7.72,47.16c-.08.47.13.73.52,1,.81.59,1.54,1.29,2.3,1.94L13.84,53c.67.58,1.31,1.21,2,1.77a30.41,30.41,0,0,0,2.92,2.39,16.66,16.66,0,0,0,.41,3.07,1.55,1.55,0,0,1,.07.43c0,.12.07.29-.07.35s-.18-.15-.27-.22c-.9-.64-1.68-1.44-2.53-2.14s-1.48-1.26-2.19-1.93-1.58-1.36-2.36-2c-.46-.42-.93-.82-1.4-1.23s-1-.81-1.43-1.21A10.56,10.56,0,0,1,7.5,50.85a.39.39,0,0,1-.07-.27,22.13,22.13,0,0,1,.2-3.26A.51.51,0,0,1,7.72,47.16Z"/><path class="cls-92" d="M18.47,52.92a1.06,1.06,0,0,1-.65-.4c-.79-.77-1.67-1.44-2.5-2.15s-1.4-1.25-2.1-1.87L10,45.74c-.43-.37-.85-.76-1.26-1.15a1.53,1.53,0,0,0-.51-.36.13.13,0,0,1,0-.2,7.81,7.81,0,0,1,.2-1.27c.32-.33.14-.82.39-1.17.15-.06.24,0,.33.13,1.54,1.39,3.14,2.73,4.7,4.09,1.18,1,2.35,2.06,3.55,3a6.36,6.36,0,0,0,1.28,1v1.27c-.11.16,0,.35-.07.52-.07.34,0,.68-.05,1C18.51,52.77,18.52,52.86,18.47,52.92Z"/><path class="cls-6" d="M30.48,82.23a1.14,1.14,0,0,1,.59.49A.57.57,0,0,1,30.48,82.23Z"/><path class="cls-87" d="M8.21,44v.2A2.36,2.36,0,0,1,8,45,1.75,1.75,0,0,1,8.21,44Z"/><path class="cls-6" d="M30,81.74a1.44,1.44,0,0,1,.49.49A.57.57,0,0,1,30,81.74Z"/><path class="cls-24" d="M87.93,60c0,1.72,0,3.45,0,5.18-.61-.56-1.25-1.08-1.83-1.67s-1.33-1.07-2-1.68a10.79,10.79,0,0,0-1.46-1.21,14.67,14.67,0,0,1-1.1-1c-.77-.71-1.58-1.38-2.36-2.08S77.43,56,76.55,55.2a44.12,44.12,0,0,0-3.48-3,1,1,0,0,1-.48-1.09V46.47A5.15,5.15,0,0,0,73.78,48a23.63,23.63,0,0,1,2,1.75c.64.57,1.24,1.18,1.92,1.69.84.62,1.57,1.35,2.36,2,1.06.88,2.08,1.78,3.1,2.69,1.23,1.09,2.5,2.13,3.72,3.22C87.17,59.58,87.44,60,87.93,60Z"/><path class="cls-15" d="M97.5,16v1.6c0,.15,0,.33-.1.45,0-.53,0-1.06,0-1.6C97.41,16.29,97.35,16.12,97.5,16Z"/><path class="cls-15" d="M97.4,18.53a4.23,4.23,0,0,1-.09,1.37A3.93,3.93,0,0,1,97.4,18.53Z"/><path class="cls-15" d="M97.3,20.58c0,.23.09.48-.09.69C97.24,21,97.12,20.79,97.3,20.58Z"/><path class="cls-33" d="M87.92,73.73v5c-.29.14-.45-.12-.62-.26-1-.85-2-1.69-3-2.57Q81.68,73.6,79,71.33c-1.69-1.45-3.35-2.94-5-4.38-.36-.3-.69-.63-1.07-.92a1,1,0,0,0-.1.65c0,.7,0,1.4,0,2.1,0,.17.08.41-.21.46h0c0-1.84,0-3.68,0-5.51,0-.79.12-1.55.11-2.33A.4.4,0,0,1,72.9,61c.18-.08.32,0,.43.16,1.32,1.3,2.81,2.43,4.19,3.67s2.91,2.46,4.35,3.71c.95.81,1.86,1.66,2.8,2.47s2.09,1.73,3.07,2.68C87.78,73.72,87.86,73.72,87.92,73.73Z"/><path class="cls-38" d="M79.52,37c.87.81,1.79,1.58,2.69,2.35s1.6,1.42,2.44,2.08S86.42,43,87.3,43.75a.85.85,0,0,1,.34.76.73.73,0,0,0,.28.69v5.94h-.09c0-.24,0-.48,0-.72a2.29,2.29,0,0,0-1-2l-2-1.7c-1.38-1.19-2.77-2.38-4.14-3.58-.84-.72-1.68-1.46-2.51-2.2l-.55-.47a.69.69,0,0,1-.32-.85c.22-.83.85-1.22,1.34-1.78C78.94,37.51,79.24,37.26,79.52,37Z"/><path class="cls-131" d="M82.93,116a1.94,1.94,0,0,1,1.22-1.72.48.48,0,0,1,.41.07,5.46,5.46,0,0,1,2.17,1.9c.09.13.21.26,0,.41a3.36,3.36,0,0,1-2.78.7A1.28,1.28,0,0,1,82.93,116Z"/><path class="cls-132" d="M85.69,111.5c0,.49-.64,1.15-1.06,1.12s-.82-.71-.81-1.17a.94.94,0,0,1,1-.86A.86.86,0,0,1,85.69,111.5Z"/><path class="cls-38" d="M112,64.65a18.19,18.19,0,0,1-.63,3c-.07.27,0,.58-.25.81a30.53,30.53,0,0,0-2.68-2.41c-1.33-1.07-2.54-2.27-3.89-3.33a29.39,29.39,0,0,1-2.29-2,.83.83,0,0,0-.71-.34c.25-1.19.29-2.4.47-3.6.07-.41.25-.38.48-.18,1.25,1.08,2.5,2.16,3.75,3.22s2.74,2.4,4.14,3.58c.4.34.84.65,1.21,1C111.67,64.51,111.77,64.65,112,64.65Z"/><path class="cls-45" d="M101.51,60.35c.17-.25.35-.16.52,0,.68.61,1.36,1.24,2,1.85,1.11,1,2.23,1.91,3.34,2.88l3.41,3c.12.11.25.21.25.4A19.19,19.19,0,0,1,110,71.78a5.5,5.5,0,0,0-1.55-1.6c-1.81-1.59-3.64-3.16-5.48-4.74-.72-.62-1.42-1.27-2.16-1.87a14.55,14.55,0,0,1,.49-2A3.6,3.6,0,0,1,101.51,60.35Z"/><path class="cls-16" d="M51.49,1.72a1,1,0,0,1,.57-.21c.56,0,1.12-.11,1.68-.17a1.45,1.45,0,0,0,.56.77,28.27,28.27,0,0,1,2.29,1.94c1.17,1,2.33,2,3.49,3l3.07,2.68c.55.47,1.09,1,1.65,1.42a1.17,1.17,0,0,1,.36.44h-.68c-.15-.11-.34,0-.49-.09-1.47,0-2.93-.17-4.39-.1-.25.12-.54,0-.78.09h-1c-1.21-.88-2.27-1.93-3.41-2.89s-2.35-2-3.53-3C49.92,4.73,49,3.91,48,3c-.17-.16-.38-.33-.23-.62,1-.22,2-.44,3-.64A4.77,4.77,0,0,1,51.49,1.72Z"/><path class="cls-133" d="M74,13.45l-2.15-.59c-.27-.31-.68-.43-1-.71-1.33-1.21-2.69-2.4-4.08-3.55-1.07-.89-2.1-1.83-3.17-2.73-.75-.63-1.49-1.31-2.24-2S60,2.71,59.27,2.15A4.32,4.32,0,0,1,58,.94h.2c.18-.09.38,0,.57,0h1c.42.15.67.54,1,.82q1.7,1.42,3.35,2.9c1.43,1.27,2.9,2.5,4.34,3.77,1,.88,2,1.75,3.06,2.64.68.6,1.39,1.18,2.08,1.76C73.78,13,74.1,13.09,74,13.45Z"/><path class="cls-131" d="M95.06,114.09c0-.84,0-1.69,0-2.53,0-.36.11-.45.44-.42a9,9,0,0,1,1.46.09,2.5,2.5,0,0,1,2.07,2,3.11,3.11,0,0,1-1.55,3.6,5.33,5.33,0,0,1-2.21.24c-.27,0-.2-.2-.2-.34Z"/><path class="cls-46" d="M67.8,78.81v3.52c-.15.06-.24,0-.34-.13-1-.84-2-1.75-3-2.58-.83-.7-1.63-1.43-2.46-2.13s-1.55-1.33-2.31-2c-1.08-.93-2.18-1.84-3.24-2.78-1.24-1.1-2.51-2.16-3.72-3.28V65.82c.18-.13.31,0,.42.12.69.66,1.39,1.32,2.14,1.91,1.4,1.11,2.66,2.38,4.07,3.48,1,.77,1.86,1.66,2.82,2.46C63.64,75,65,76.21,66.38,77.46c.3.27.66.47,1,.75A1.79,1.79,0,0,1,67.8,78.81Z"/><path class="cls-69" d="M67.8,78.81l-4-3.46-3.19-2.78c-1.08-.93-2.19-1.82-3.23-2.79-.76-.71-1.6-1.31-2.36-2S53.67,66.52,53,65.91a.85.85,0,0,0-.22-.09c0-.81,0-1.63,0-2.44,0-.25,0-.47.29-.56s.37.11.53.25L55,64.29c.48.43.91.9,1.42,1.29s.89.74,1.32,1.12,1,.87,1.45,1.26c.76.6,1.44,1.29,2.2,1.89.52.41,1,.87,1.5,1.33s.73.62,1.1.92c.57.47,1.09,1,1.66,1.46.74.59,1.41,1.25,2.15,1.83v3.42Z"/><path class="cls-43" d="M67.9,66.8v2.93c-.21-.41,0-.85-.1-1.27V66.8Z"/><path class="cls-131" d="M21.4,112.5a1.22,1.22,0,0,1,0-.33c.13-.37-.32-1,.26-1.1,1.3-.22,2.08.21,2.26,1A1.42,1.42,0,0,1,22.7,114c-1.21.21-1.3.14-1.3-1.07Z"/><path class="cls-119" d="M47.77,78.81V82c-.16.12-.27,0-.38-.09a18.5,18.5,0,0,1-1.86-1.56c-1.35-1.22-2.75-2.37-4.12-3.57l-4.22-3.67L34,70.37a4.13,4.13,0,0,0-1.45-1V65.65a13.78,13.78,0,0,0,1.33,1.16A3.62,3.62,0,0,1,35,68.33c.12.26.26.41.55.22s.54.2.77.41c.53.48,1.1.92,1.65,1.39.92.8,1.85,1.58,2.75,2.39s2.05,1.79,3.07,2.69c.74.66,1.49,1.32,2.26,1.95a7.66,7.66,0,0,1,1.5,1.34C47.6,78.78,47.7,78.78,47.77,78.81Z"/><path class="cls-25" d="M18.66,49.89c-.53.12-.74-.37-1-.62-.75-.71-1.56-1.35-2.33-2S13.64,45.77,12.79,45c-1.34-1.14-2.66-2.3-4-3.45a11,11,0,0,1,.78-2.74,7.2,7.2,0,0,1,1.83,1.42c1.16.93,2.24,2,3.39,2.92.67.56,1.34,1.13,2,1.72S18,46,18.63,46.5c.13.12.25.15.33-.06s.05-.2.19-.16c0,.86-.34,1.68-.35,2.55,0,.13,0,.25,0,.38A1.22,1.22,0,0,1,18.66,49.89Z"/><path class="cls-87" d="M18.56,51.65c0-.16-.06-.35.1-.49a5.18,5.18,0,0,1-.1,1.57l0-.08A4.79,4.79,0,0,1,18.56,51.65Z"/><path class="cls-87" d="M18.47,52.92v-.19s.06,0,.09,0h0v1.36C18.36,53.72,18.52,53.31,18.47,52.92Z"/><path class="cls-87" d="M18.66,56.34a4.19,4.19,0,0,1-.1-1.37C18.77,55.42,18.61,55.89,18.66,56.34Z"/><path class="cls-87" d="M18.56,54.68v-.49A.32.32,0,0,1,18.56,54.68Z"/><path class="cls-134" d="M34.29,8.07a16.79,16.79,0,0,1,2.45-1.45,23.77,23.77,0,0,0,2.73,2.47c1.12,1,2.28,2,3.44,3,.73.62,1.44,1.26,2.16,1.88.09.08.17.15.16.28A27.33,27.33,0,0,1,42.5,15.4a5.69,5.69,0,0,1-1.72-1.32c-1.73-1.44-3.38-3-5.13-4.39-.42-.33-.77-.74-1.19-1.07C34.31,8.5,34.15,8.32,34.29,8.07Z"/><path class="cls-135" d="M45.23,14.23c-1.1-.85-2.12-1.8-3.17-2.71s-2.18-1.85-3.22-2.83c-.61-.57-1.32-1-1.9-1.67-.12-.13-.22-.23-.2-.4l2.44-1.18c1.88,1.71,3.84,3.34,5.75,5,1,.85,1.94,1.72,2.94,2.54a.43.43,0,0,1,.2.26Z"/><path class="cls-4" d="M34.29,8.07a.84.84,0,0,0,.3.54l2,1.69,2.74,2.36L42.5,15.4c-.2.35-.6.37-.9.54a10.09,10.09,0,0,1-1.64.83c-.22.06-.32-.12-.45-.23-1.36-1.24-2.77-2.41-4.15-3.62-1-.86-2-1.68-3-2.53-.21-.18-.56-.35-.35-.75A10.88,10.88,0,0,1,34.29,8.07Z"/><path class="cls-79" d="M41.33,4.57a20.08,20.08,0,0,1,2.34-.89q1.77,1.61,3.59,3.14c1.66,1.42,3.26,2.91,5,4.26a2.51,2.51,0,0,1,.51.52c.13.17.26.35.11.57a2.46,2.46,0,0,0-.89.2,6,6,0,0,0-1.46.29,1.41,1.41,0,0,1-.71-.38c-1.33-1.22-2.73-2.35-4.08-3.54s-2.8-2.43-4.2-3.64C41.36,5,41.19,4.82,41.33,4.57Z"/><path class="cls-48" d="M26,14.43l.2-.29c.57-.4,1-1,1.65-1.28a2.21,2.21,0,0,0,.68.85c.95.76,1.83,1.58,2.75,2.37s1.82,1.58,2.74,2.35c.38.32.72.67,1.11,1a.65.65,0,0,0,.84.1,3.13,3.13,0,0,1-1,.82,1.16,1.16,0,0,0-.39.34,2.78,2.78,0,0,0-.68.5l-.29.19a3.48,3.48,0,0,1-.86-.65c-1.36-1.21-2.76-2.37-4.12-3.57-.77-.68-1.5-1.39-2.32-2C26.11,15,25.78,14.8,26,14.43Z"/><path class="cls-105" d="M32.05,9.64a.51.51,0,0,0,.25.49l2.25,1.93,1.21,1L40,16.77A10.64,10.64,0,0,1,38.06,18c-.18.11-.35,0-.48-.15-.81-.7-1.6-1.41-2.41-2.1-1.25-1.09-2.52-2.18-3.78-3.26l-.92-.77a.87.87,0,0,1-.38-.71l1.37-1.08C31.67,9.87,31.81,9.66,32.05,9.64Z"/><path class="cls-38" d="M41.33,4.57a.59.59,0,0,0,.25.45c1.17.89,2.24,1.9,3.36,2.86s2.12,1.88,3.19,2.8a26.57,26.57,0,0,0,2.38,2l-2.44.59c-.82-.58-1.51-1.32-2.29-1.94-1.24-1-2.35-2.11-3.61-3.08A24.85,24.85,0,0,1,40,6.29c-.29-.27-.73-.39-.82-.85L40.26,5Z"/><path class="cls-132" d="M39.26,116.06a1.41,1.41,0,0,1-1.18,1.51.89.89,0,0,1-1.06-.63.87.87,0,0,1,.71-1.09c.41-.09.84-.13,1.25-.19S39.22,115.9,39.26,116.06Z"/><path class="cls-132" d="M62.22,116.72a.82.82,0,0,1,.74-.87c.32-.07.64-.09,1-.14.57-.09.6,0,.53.53a1.37,1.37,0,0,1-1.19,1.34A.86.86,0,0,1,62.22,116.72Z"/><path class="cls-90" d="M29.7,25.08c-.34.5-.91.79-1.17,1.36a3.89,3.89,0,0,0-.78.79c-.2.18-.37.1-.56,0-.83-.61-1.58-1.3-2.34-2s-1.61-1.41-2.44-2.09S21,21.76,20.17,21.17a.55.55,0,0,1-.14-.78,15.72,15.72,0,0,1,1.86-2.05c.07.3.37.38.57.55,1.08.93,2.13,1.88,3.2,2.8.79.67,1.57,1.37,2.38,2,.44.35.84.74,1.26,1.11C29.42,24.93,29.51,25.08,29.7,25.08Z"/><path class="cls-106" d="M26,14.43a1,1,0,0,0,.61.81,11.34,11.34,0,0,1,1.45,1.21c1.17,1,2.31,2,3.5,3a16.56,16.56,0,0,1,2.06,1.87A16.46,16.46,0,0,1,32,22.83c-.38.27-.63.09-.94-.19-.84-.73-1.66-1.49-2.53-2.2s-1.76-1.52-2.63-2.29c-.51-.45-1-.91-1.53-1.34a.48.48,0,0,1-.19-.63c.21-.54.76-.76,1.11-1.18.08-.1.18-.18.26-.27S25.76,14.42,26,14.43Z"/><path class="cls-22" d="M53.93,58.1l-.1.2h0a.81.81,0,0,0-.29.29,8.09,8.09,0,0,1-1.17,1.17c-.2.13-.27,0-.34-.16-.37-.93-.76-1.85-1.14-2.77S50.15,55,49.8,54.1a3.77,3.77,0,0,1-.18-.85,12.94,12.94,0,0,0,1.63,1.43c.74.58,1.37,1.27,2.13,1.82a6.4,6.4,0,0,1,1.14,1,.67.67,0,0,1-.3.3A.81.81,0,0,0,53.93,58.1Z"/><path class="cls-29" d="M48,49a13.45,13.45,0,0,1,1.38-1.34.31.31,0,0,1,.46,0,12.68,12.68,0,0,0,1.3,1.13,2,2,0,0,1,1,1.49c.1.85.31,1.68.47,2.51a11.64,11.64,0,0,1-1.9-1.54c-.75-.66-1.52-1.28-2.28-1.92Z"/><path class="cls-29" d="M53.05,53a9.53,9.53,0,0,1,1.27-1.27c.22-.16.41,0,.57.09.88.69,1.72,1.42,2.57,2.16.13.11.32.25.18.49-.08,0-.09.11-.1.19a4.78,4.78,0,0,0-1.15,1,4.47,4.47,0,0,1-.41.32,17.48,17.48,0,0,0-2.19-2c-.3-.25-.51-.62-.94-.72Z"/><path class="cls-121" d="M44.94,52.14a7.56,7.56,0,0,1,1.44-1.33c.27-.23.51,0,.62.16.46.51,1.06.87,1.51,1.38.05.06.1.14.17.16.23.1.48.24.54.45s-.3.23-.42.4a3.77,3.77,0,0,1-1.22,1.13C46.67,53.73,45.77,53,44.94,52.14Z"/><path class="cls-119" d="M44.94,52.14a7.3,7.3,0,0,1,1.52,1.24c.26.23.51.44.78.64a1.14,1.14,0,0,1,.34.47A20.88,20.88,0,0,1,45.92,56a17.48,17.48,0,0,0-2.54-2.25l1.17-1.27Z"/><path class="cls-115" d="M43.38,53.7c.46,0,.7.44,1,.69s.79.65,1.18,1a.87.87,0,0,1,.34.57.65.65,0,0,0-.3.29l-1.36,1.08c-.77-.61-1.46-1.29-2.23-1.9a.3.3,0,0,1-.12-.25l.3-.39Z"/><path class="cls-16" d="M85,31.43l.78-.69a.23.23,0,0,1,0,.31c-.24.33-.13.56.16.78a20.2,20.2,0,0,0,1.91,1.55v2.73c0,.14,0,.32-.14.38a.44.44,0,0,1-.44-.12c-.39-.34-.8-.66-1.19-1-.59-.52-1.15-1.07-1.78-1.55a1.77,1.77,0,0,1-.65-.93Z"/><path class="cls-136" d="M87.83,33.38a.63.63,0,0,1-.49-.14c-.51-.46-1-.93-1.56-1.36-.34-.28-.41-.54-.12-.88a1,1,0,0,0,.12-.26L87,29.47a.58.58,0,0,0,.29-.29l.59-.49Z"/><path class="cls-6" d="M38.2,58.78l.59-.48c.19-.14.34,0,.47.11.47.43,1,.81,1.46,1.24.15.14.29.28.22.5l-.3.3a12.53,12.53,0,0,0-1.46,1.27h-.1a.76.76,0,0,0-.37-.73,11.13,11.13,0,0,1-1-.86.63.63,0,0,0-.53-.17Z"/><path class="cls-56" d="M37.61,62.89c-.16.35-.61.43-.78.78-.28.12-.43.6-.72.48s-.24-.53-.38-.8c-.5-1-.89-2-1.34-3,0-.15.1-.17.19-.09l1.73,1.49Z"/><path class="cls-18" d="M95,25v.88a3.44,3.44,0,0,1-1.31-1.2c-.61-.75-1.35-1.37-2-2.08-.07-.07-.2-.13-.11-.35.61.41,1.08.95,1.63,1.39A6.83,6.83,0,0,0,95,25Z"/><path class="cls-131" d="M48.46,40.43H47.19c-.2,0-.41,0-.59-.11a2.21,2.21,0,0,1,0-.81c0-1,0-1-.84-1.33-.29,0-.58,0-.86,0-.46,0-.68-.12-.62-.59a1.7,1.7,0,0,0,0-.39c.1-.41-.11-.86.15-1.26l1.06,0c1.14.06,1.14.06,1.14-1.07,0-.36,0-.71,0-1.07.48-.21,1,0,1.48-.11.13,0,.26,0,.39,0,.3,0,.4.14.39.42,0,.49,0,1,0,1.46,0,.32.1.39.39.38s.75,0,1.12,0c.8,0,.8,0,.85.78,0,.31,0,.62,0,.93a.6.6,0,0,1-.19.52l-1.55,0c-.45-.1-.67,0-.6.53a5.94,5.94,0,0,1,0,.73,4.52,4.52,0,0,0,0,.52C48.87,40.26,48.76,40.42,48.46,40.43Z"/><path class="cls-137" d="M53,31c-.39,0-.47-.19-.7-.42C52.69,30.63,52.76,30.84,53,31Z"/><path class="cls-138" d="M45.72,38.18c.85,0,.85,0,.85.77l0,1.37c-.2-.28-.1-.6-.09-.89a.71.71,0,0,0-.4-.78A.61.61,0,0,1,45.72,38.18Z"/><path class="cls-90" d="M68.39,43.93a10.08,10.08,0,0,0-1.76-1.63c-.46-.38-.89-.8-1.33-1.2-.15-.15-.28-.33-.53-.29a17,17,0,0,1,1.38-1.43c.13-.13.23-.13.37,0l2.55,2.2c.22.19.45.36.68.54s.24.32.06.49C69.34,43.06,68.86,43.49,68.39,43.93Z"/><path class="cls-110" d="M65.55,46.86a.7.7,0,0,0-.29.3l-.29.19c.15-.65-.3-.92-.73-1.26a18.56,18.56,0,0,1-1.47-1.33c-.29-.3-.74-.42-.93-.83h0A6.83,6.83,0,0,1,63,42.63c.11-.12.22-.18.37-.05.57.48,1.17.92,1.69,1.44s1,.85,1.5,1.29a.42.42,0,0,1,.17.28A6.77,6.77,0,0,0,65.55,46.86Z"/><path class="cls-115" d="M32.54,69.34a.93.93,0,0,1,.83.31c1,.89,2,1.83,3,2.69,1.31,1.08,2.55,2.24,3.85,3.34s2.45,2.15,3.71,3.18S46.31,81,47.59,82a.55.55,0,0,0,.18.06v3.61A10.28,10.28,0,0,1,46.1,84.3c-.75-.6-1.5-1.21-2.2-1.87s-1.51-1.3-2.24-2a11,11,0,0,0-1.48-1.24,12.67,12.67,0,0,1-1.12-1c-.49-.41-1-.85-1.44-1.28-1.13-1-2.3-2-3.42-3-.42-.38-.88-.74-1.32-1.1-.21-.18-.24,0-.25.16,0,.5,0,1,0,1.51,0,.16,0,.33-.09.46Z"/><path class="cls-10" d="M76.3,13.45h-.1A10.57,10.57,0,0,1,74.49,12c-1.64-1.4-3.27-2.82-4.9-4.24S66.31,5,64.7,3.54c-.8-.71-1.62-1.41-2.44-2.1-.14-.13-.32-.24-.25-.48A.15.15,0,0,1,62.14.9a2.23,2.23,0,0,1,.68,0l3.13.2c.18.12.4,0,.58.1l2.35.29a17.69,17.69,0,0,0,2,1.78c1.13.95,2.19,2,3.33,2.93,1.5,1.24,3,2.54,4.44,3.8a19.93,19.93,0,0,0,2.25,1.85c-1.08.41-2.18.74-3.29,1.06A8.51,8.51,0,0,0,76.3,13.45Z"/><path class="cls-139" d="M80.89,11.89a1.42,1.42,0,0,1-.85-.43c-1.34-1.3-2.81-2.44-4.2-3.68s-2.66-2.23-3.93-3.4C71,3.53,70,2.77,69,1.92a.41.41,0,0,1-.15-.39l2,.39,2.64.54.39,0A6.3,6.3,0,0,0,75.39,3a1.08,1.08,0,0,1,.52.21,4.33,4.33,0,0,0,1,.95c.74.56,1.41,1.2,2.1,1.81,1.11,1,2.26,1.9,3.34,2.9.62.58,1.3,1.08,1.94,1.63a.34.34,0,0,1,.16.23,20,20,0,0,1-2.5.87A3.09,3.09,0,0,1,80.89,11.89Z"/><path class="cls-12" d="M84.41,10.71a29.92,29.92,0,0,1-2.47-2l-3.48-3L76.05,3.57c-.09-.09-.33-.16-.14-.38a14.2,14.2,0,0,1,2,.6,1.83,1.83,0,0,0,.52.09,6.11,6.11,0,0,0,1.74.7,53.88,53.88,0,0,1,9.08,4.47s0,0,.1.15C87.7,9.69,86.08,10.3,84.41,10.71Z"/><path class="cls-16" d="M59.89.94H58.81s0,0,0-.06,0,0,0,0h2.63A.11.11,0,0,1,61.4,1,2.18,2.18,0,0,1,59.89.94Z"/><path class="cls-118" d="M62.82.94H62a.06.06,0,0,1,0-.06l0,0C62.3.89,62.58.75,62.82.94Z"/><path class="cls-18" d="M66.53,1.24c-.19,0-.41.07-.58-.1C66.14,1.17,66.36,1.06,66.53,1.24Z"/><path class="cls-18" d="M62,.85V.94h0a.42.42,0,0,1-.59,0V.85Z"/><path class="cls-118" d="M58.82.85a.28.28,0,0,0,0,.09h-.58C58.4.77,58.62.88,58.82.85Z"/><path class="cls-92" d="M78.34,102.84l-.87.21-1.17.38a11,11,0,0,0-2-2c-1.53-1.29-3-2.61-4.54-3.91-1-.87-2-1.74-3-2.62C65,93.47,63.26,92,61.59,90.51c-1-.88-2-1.69-3-2.57-1.68-1.51-3.45-2.92-5.11-4.46a4,4,0,0,0-.62-.47c-.14-.08-.28-.17-.26-.37,0-1-.06-1.9,0-2.85v-.1c.19-.13.3,0,.42.12.79.57,1.49,1.26,2.23,1.89,1.73,1.48,3.43,3,5.16,4.47,1.07.92,2.12,1.87,3.2,2.78,1.27,1.09,2.51,2.21,3.78,3.3a.93.93,0,0,1,.4.65,5.67,5.67,0,0,0,.05,1.16.2.2,0,0,0,.19.09c.21-.14.52.09.69-.19h.39c.34-.1.5.19.68.36,1.65,1.5,3.37,2.94,5.06,4.4,1.1,1,2.2,1.92,3.32,2.85.32.27.73.5.8,1A1.69,1.69,0,0,0,78.34,102.84Z"/><path class="cls-29" d="M67.8,85.56v1.27a21.44,21.44,0,0,1,0,2.27c0,.32-.2.2-.31.09-.41-.42-.88-.77-1.33-1.15-1.06-.91-2.1-1.83-3.17-2.73-.74-.62-1.48-1.27-2.19-1.92S59.16,82,58.34,81.23c-.62-.57-1.29-1.09-1.92-1.65-1.18-1-2.35-2.09-3.57-3.09a1,1,0,0,1-.19-.22V73.54a1.22,1.22,0,0,0,.05-.57c0-.41.11-.47.46-.24a7,7,0,0,1,.8.64c1.37,1.27,2.83,2.43,4.22,3.67s2.82,2.45,4.23,3.68,3,2.64,4.53,3.91A3,3,0,0,1,67.8,85.56Z"/><path class="cls-25" d="M52.66,76.27a11.37,11.37,0,0,1,1.8,1.44c.52.47,1.08.9,1.59,1.38.73.67,1.52,1.27,2.24,2,.89.84,1.87,1.58,2.78,2.4,1.09,1,2.25,1.91,3.37,2.88.64.55,1.22,1.2,1.91,1.69.53.38,1,.86,1.45,1.26a25.84,25.84,0,0,1,0,3.52A16,16,0,0,0,65.88,91c-.95-.87-1.93-1.71-2.92-2.54-1.25-1-2.48-2.12-3.71-3.19l-2.84-2.48c-1.17-1-2.38-2-3.57-3.07,0,0-.12,0-.18-.06Z"/><path class="cls-35" d="M67.8,85.56c-1-.85-1.91-1.7-2.88-2.54-1.27-1.1-2.57-2.16-3.83-3.28-.77-.69-1.59-1.33-2.35-2-1.37-1.26-2.83-2.42-4.23-3.66-.45-.39-.86-.83-1.35-1.18-.09-.07-.19-.23-.33-.15s-.06.24-.07.36.05.33-.1.46V70.2a2.21,2.21,0,0,1,.1-.77c.32,0,.46.28.67.45.9.76,1.82,1.51,2.69,2.32s1.9,1.56,2.78,2.42c.73.71,1.52,1.36,2.29,2,1,.86,2,1.79,3.09,2.62.5.39.94.86,1.42,1.28.69.61,1.4,1.2,2.1,1.79Z"/><path class="cls-25" d="M52.66,79.79v3a.69.69,0,0,1,.15.5c0,.54,0,1.09,0,1.63,0,.19.05.44-.24.51V80.29C52.57,80.12,52.5,79.93,52.66,79.79Z"/><path class="cls-140" d="M61.45.94H62c.13.42.53.6.82.86,1,.85,1.92,1.68,2.89,2.51l4.68,4C71.22,9,72,9.7,72.77,10.38c1,.89,2,1.76,3,2.64a5.22,5.22,0,0,1,.39.43,2.07,2.07,0,0,1-2.24,0c-.06-.34-.34-.51-.57-.7-1.27-1-2.43-2.12-3.66-3.15-1-.85-2-1.77-3.06-2.59-.71-.56-1.36-1.17-2-1.76L62,2.94,60.18,1.38a1,1,0,0,1-.29-.44Z"/><path class="cls-118" d="M58.82,11.49c.24-.19.52-.05.78-.09,0,0,0,.06,0,.09Z"/><path class="cls-118" d="M64,11.5c.17,0,.35-.07.49.09C64.31,11.57,64.13,11.65,64,11.5Z"/><path class="cls-11" d="M62.43,105.39c0-.44-.45-.63-.72-.87-.85-.77-1.71-1.52-2.59-2.24s-2-1.76-3.06-2.59c-.72-.58-1.4-1.23-2.1-1.84-.89-.77-1.79-1.53-2.67-2.3-.65-.56-1.29-1.12-1.91-1.71-.33-.3-.61-.62-1.12-.59a.47.47,0,0,1-.39-.17l3.43.54.38,0h.1c.06.06.16,0,.24.07s.39.14.49-.14,0-.69,0-1c.18-.29.33,0,.46.06.69.54,1.31,1.15,2,1.71.88.71,1.71,1.49,2.57,2.22.67.56,1.33,1.14,2,1.72s1.5,1.31,2.25,2c.53.45,1,.93,1.57,1.38,1.09.9,2.13,1.85,3.21,2.76.23.2.6.34.54.76a3.09,3.09,0,0,1-.43,0c-.2.07-.43,0-.62.14H65c-.21.13-.47,0-.68.1Z"/><path class="cls-115" d="M66.63,105.1h.49a2.67,2.67,0,0,1,2-.2,7.88,7.88,0,0,1-2.16.3h-.29s0,0,0-.06Z"/><path class="cls-23" d="M66.63,105.1v.09a.93.93,0,0,1-.59.09C66.15,104.94,66.43,105.16,66.63,105.1Z"/><path class="cls-23" d="M64.29,105.39c.2-.19.45-.06.68-.1C64.76,105.47,64.51,105.36,64.29,105.39Z"/><path class="cls-25" d="M79,102.55a19,19,0,0,0-2.23-2.07c-.85-.77-1.74-1.49-2.61-2.23-1.38-1.19-2.77-2.37-4.14-3.58a6.67,6.67,0,0,0-.88-.71c.43-.21.94-.09,1.37-.29.21-.13.47,0,.68-.1s.44,0,.59-.2c.13,0,.28,0,.39-.09a.26.26,0,0,0,.29,0,3.37,3.37,0,0,1,1,.75c.68.58,1.35,1.17,2,1.76s1.6,1.36,2.39,2.06,1.66,1.4,2.45,2.15a13.13,13.13,0,0,1,1.12,1c.17.21.23.39,0,.59A21.51,21.51,0,0,1,79,102.55Z"/><path class="cls-35" d="M67.8,92.79v-6c.16.14.1.33.1.5v6.73C67.69,93.65,67.86,93.21,67.8,92.79Z"/><path class="cls-25" d="M68.78,94c-.15.36-.46.12-.69.19C68.29,94,68.58,94.12,68.78,94Z"/><path class="cls-29" d="M71.22,93.57c-.2.19-.45.06-.68.1C70.74,93.48,71,93.61,71.22,93.57Z"/><path class="cls-104" d="M21.2,38.46c-.19.91-.59,1.76-.83,2.65a2.74,2.74,0,0,0-.05.28c-.17.13-.29,0-.42-.08-1.49-1.33-3-2.62-4.51-3.93-1.24-1.07-2.47-2.15-3.72-3.2a.71.71,0,0,1-.23-.51L12.71,31a6.3,6.3,0,0,1,1,.87c1.54,1.32,3.06,2.66,4.61,4C19.29,36.72,20.27,37.57,21.2,38.46Z"/><path class="cls-29" d="M19.15,46.28c-.24.64-.19.57-.79.14S17,45.16,16.24,44.64a6.58,6.58,0,0,1-.93-.82c-.43-.46-1-.8-1.41-1.24-.71-.69-1.54-1.26-2.26-1.94a17.75,17.75,0,0,1-1.44-1.28c-.18-.22-.53-.2-.62-.51a11.42,11.42,0,0,1,1-2.83c.67.69,1.41,1.28,2.13,1.91l2.47,2.12c.66.57,1.31,1.16,2,1.72a23.79,23.79,0,0,0,2.51,2.07V44C19.37,44.76,19.37,45.54,19.15,46.28Z"/><path class="cls-69" d="M21.2,38.46a6.84,6.84,0,0,1-1.65-1.33Q17,35,14.47,32.73A7.63,7.63,0,0,1,12.71,31l.29-.59,1.07-1.76c.87.88,1.86,1.6,2.78,2.42,1.12,1,2.24,2,3.38,2.92.69.59,1.36,1.2,2,1.79-.09.3-.19.59-.29.88C21.6,37.23,21.58,37.93,21.2,38.46Z"/><path class="cls-117" d="M11.44,33.67c.3.56.88.83,1.31,1.25.81.81,1.73,1.49,2.57,2.26s1.46,1.23,2.17,1.86l2.5,2.2a.41.41,0,0,0,.33.15l-.58,2.15c-.22.14-.33,0-.46-.15-2.11-1.73-4.11-3.59-6.19-5.35a26.9,26.9,0,0,1-2.26-2c-.08-.09-.24-.15-.18-.31A15.6,15.6,0,0,1,11.44,33.67Z"/><path class="cls-55" d="M10.65,35.73c1,.89,2,1.83,3,2.68S15.91,40.3,17,41.27c.76.69,1.61,1.29,2.35,2,.11.11.21.25.4.25l-.1.3c-.5,0-.77-.4-1.09-.68-.75-.63-1.48-1.27-2.22-1.9-.52-.45-1-.93-1.54-1.36-1.08-.86-2-1.85-3.14-2.67-.35-.27-.64-.63-1-.9-.1-.07-.08-.2-.09-.31S10.54,35.8,10.65,35.73Z"/><path class="cls-4" d="M108.73,75.1c-.25.24-.21.65-.48.88-1-.91-1.93-1.79-3-2.61-.72-.58-1.39-1.22-2.09-1.83-1.1-1-2.22-1.89-3.3-2.88a1,1,0,0,0-.84-.3L99.65,67c.09-.15.11-.33.19-.49a1,1,0,0,1,.2-.58c.22-.31.44-.11.62,0,.44.35.86.73,1.29,1.11,1.15,1,2.35,2,3.49,3s2.45,2,3.59,3.13c.19.18.35.34.19.62Z"/><path class="cls-141" d="M109.22,73.83a.48.48,0,0,0-.15-.43c-.88-.75-1.75-1.53-2.63-2.3l-2.78-2.39L100.6,66c-.16-.14-.33-.27-.56-.12a8.2,8.2,0,0,1,.29-1.08c.26-.38.22-.89.49-1.27a3.24,3.24,0,0,1,1.29.93c1.19,1.08,2.43,2.11,3.65,3.16s2.15,1.9,3.22,2.85c.26.24.6.38.8.7a.93.93,0,0,1,.23.57Z"/><path class="cls-24" d="M106.88,78.62l-.2.49c-.46.36-.56,1-1,1.37a3.13,3.13,0,0,1-1.24-.91c-.86-.74-1.71-1.49-2.58-2.22s-1.44-1.25-2.16-1.89S98,74,97.19,73.27c-.11-.09-.25-.16-.28-.32.1-.52.47-1,.59-1.46l.59-1c.35-.34.63-.08.89.12s.63.57,1,.84c1.89,1.57,3.67,3.28,5.59,4.82.37.29.71.62,1,.94C107.2,77.8,107.19,77.8,106.88,78.62Z"/><path class="cls-28" d="M102.58,84.68c-.57.84-1.2,1.65-1.86,2.44a1.27,1.27,0,0,0-.65-.85,9.2,9.2,0,0,1-1-1c-1.62-1.43-3.3-2.77-4.87-4.24a11.32,11.32,0,0,1-1.11-1c-.18-.21-.37,0-.54,0v-.19a11.67,11.67,0,0,0,1.59-2.11l.17-.24c.2-.13.33,0,.48.12a10.29,10.29,0,0,1,1.35,1.12l4.42,3.82c.64.55,1.3,1.08,1.91,1.66C102.56,84.37,102.7,84.48,102.58,84.68Z"/><path class="cls-106" d="M102.58,84.68a4.2,4.2,0,0,0-1.15-1.15c-.76-.7-1.57-1.34-2.35-2q-1.71-1.47-3.41-3a4.54,4.54,0,0,0-1.39-1,26.9,26.9,0,0,1,1.46-2.34c.25-.14.39.07.54.19.87.66,1.64,1.43,2.47,2.12,1.48,1.21,2.85,2.55,4.36,3.72.36.27.62.66,1,.91a.31.31,0,0,1,.13.39c-.34.62-.89,1.07-1.27,1.66Z"/><path class="cls-48" d="M104.24,82.53A5.08,5.08,0,0,0,103,81.29c-.91-.66-1.68-1.47-2.54-2.18q-1.59-1.31-3.12-2.67c-.44-.39-.87-.77-1.33-1.12a1,1,0,0,0-.26-.12A15.48,15.48,0,0,1,96.91,73c1.06.73,2,1.66,3,2.47.8.66,1.53,1.4,2.36,2,.43.33.83.7,1.24,1l2.25,2A13.45,13.45,0,0,1,104.24,82.53Z"/><path class="cls-35" d="M86.85,98.94l-.29.2c-.71.31-1.31.82-2,1.07-2.2-2-4.45-3.86-6.66-5.8-1.64-1.43-3.31-2.84-4.93-4.29-.13-.12-.3-.21-.28-.43V86.8c.12-.42.33-.11.44,0,.58.42,1.08.93,1.64,1.38,1.13.92,2.19,1.91,3.31,2.84.73.61,1.45,1.25,2.16,1.88s1.6,1.37,2.39,2.07c1,.88,2,1.74,3,2.63a10.91,10.91,0,0,1,1,.79C86.7,98.54,86.91,98.67,86.85,98.94Z"/><path class="cls-29" d="M72.69,89.85a4.74,4.74,0,0,1,1.16.94c1.12.92,2.24,1.85,3.31,2.84.82.76,1.7,1.44,2.53,2.19,1.12,1,2.29,2,3.4,3,.49.45,1.14.76,1.42,1.42a29.56,29.56,0,0,1-2.8,1.3l-.23.07c.2-.48-.23-.67-.47-.88-1-.88-2-1.73-3-2.61-1.33-1.19-2.73-2.31-4.06-3.5a10.83,10.83,0,0,1-1.47-1.32l.1-.09a18.81,18.81,0,0,0,0-2.12A5.45,5.45,0,0,1,72.69,89.85Z"/><path class="cls-98" d="M95,93.27c-.42.14-.61.57-1,.78l-.48.3c-1.08-1-2.21-1.9-3.3-2.87S88.1,89.64,87,88.73s-2.2-2-3.36-2.88c-.64-.5-1.21-1.08-1.82-1.61-1.16-1-2.33-2-3.47-3s-2.08-1.75-3.08-2.68c-.74-.7-1.55-1.33-2.33-2-.15-.12-.34-.21-.34-.44V72.92c0-.33.19-.14.32-.08a5.31,5.31,0,0,1,1.17.94c1.08,1,2.2,1.88,3.27,2.85.82.73,1.68,1.43,2.52,2.14L83.3,81.7c1.12.94,2.21,1.92,3.31,2.88l3.74,3.27c1.47,1.29,3,2.55,4.45,3.84.2.17.42.31.61.49a.33.33,0,0,1,0,.51l-.1.1a1.18,1.18,0,0,0-.39.38Z"/><path class="cls-129" d="M72.69,76.27c.71.44,1.27,1.06,1.93,1.56s1.49,1.32,2.26,2A18,18,0,0,1,78.29,81a24.58,24.58,0,0,0,1.88,1.62c.58.49,1.15,1,1.75,1.47s.93.85,1.4,1.26.85.67,1.25,1c.77.73,1.61,1.4,2.41,2.1s1.67,1.5,2.52,2.24c.67.57,1.37,1.11,2,1.69s1.14,1,1.75,1.51a.53.53,0,0,1,.23.41A16.44,16.44,0,0,1,91.44,96c-1.26-1.12-2.57-2.2-3.83-3.31l-3.38-3c-1.12-1-2.24-2-3.39-2.92s-2.26-2-3.4-2.92S75.3,82,74.21,81.08c-.43-.36-.85-.75-1.29-1.11-.14-.11-.29-.21-.28-.42V78.1A14,14,0,0,1,72.69,76.27Z"/><path class="cls-69" d="M72.69,79.69a17.82,17.82,0,0,1,2.07,1.7c.6.51,1.17,1.07,1.77,1.57.78.65,1.54,1.34,2.34,2s1.46,1.33,2.23,1.94,1.45,1.25,2.19,1.87,1.58,1.35,2.34,2.06c.35.33.72.65,1.09,1,.89.77,1.78,1.52,2.67,2.28l2,1.69c.09.07.08.17.08.27a16.2,16.2,0,0,1-2.34,1.57c-.28-.65-.9-1-1.38-1.42-1.13-1-2.34-2-3.51-3-1.45-1.25-2.86-2.54-4.35-3.75-.9-.73-1.76-1.5-2.6-2.29s-1.65-1.32-2.42-2a14.05,14.05,0,0,0-2-1.7.44.44,0,0,1-.2-.42C72.67,81.84,72.58,80.77,72.69,79.69Z"/><path class="cls-46" d="M72.69,83.11a18.82,18.82,0,0,1,2.57,2.14c1.09.92,2.16,1.85,3.24,2.78l2.32,2c1.09.94,2.16,1.9,3.26,2.82.9.75,1.74,1.56,2.64,2.3.75.62,1.47,1.27,2.2,1.91.15.14.36.27.18.53a11,11,0,0,1-2.25,1.36c-.35-.67-1.06-1-1.56-1.48A21.12,21.12,0,0,0,83.54,96c-.75-.61-1.47-1.27-2.21-1.89s-1.48-1.27-2.19-1.94-1.58-1.36-2.36-2c-.46-.41-1-.79-1.39-1.24s-.74-.6-1.11-.91a14.18,14.18,0,0,0-1.59-1.31c-.11-.93,0-1.86,0-2.79A2.25,2.25,0,0,1,72.69,83.11Z"/><path class="cls-110" d="M95.45,92.69c.16-.4-.22-.53-.41-.67-1.06-.8-2-1.72-3-2.59s-2.22-1.94-3.33-2.91-2.06-1.83-3.15-2.68c-.78-.61-1.43-1.4-2.22-2-1-.8-2-1.73-3-2.56-.47-.38-.94-.81-1.4-1.23-.74-.67-1.55-1.26-2.27-1.94-.44-.43-.93-.8-1.38-1.2-.83-.73-1.64-1.5-2.54-2.15a29.43,29.43,0,0,1,0-3c0-.26.21-.31.44-.09s.6.5.88.76C75.31,71.67,76.68,72.84,78,74l4.24,3.66c1.83,1.59,3.68,3.15,5.48,4.77.06,0,.1.12.17.17,0,.39,0,.78,0,1.17,0,.15-.08.35.08.44s.3-.12.46-.17a2,2,0,0,0,.24-.16c.35-.31.67-.09.9.14.66.62,1.38,1.17,2.06,1.77,1.08,1,2.16,1.9,3.27,2.82.74.61,1.46,1.25,2.16,1.89.12.1.26.21.2.41A10.29,10.29,0,0,1,95.45,92.69Z"/><path class="cls-27" d="M97.3,90.93a18.81,18.81,0,0,0-1.93-1.75c-1-.9-2-1.81-3.08-2.69s-1.86-1.6-2.79-2.41a.68.68,0,0,0-.79-.18v-.1a11.15,11.15,0,0,0,2.34-2c.27,0,.43.15.59.3,2,1.83,4.17,3.57,6.22,5.41.26.24.56.44.83.68a1.48,1.48,0,0,1,.57.64A15.34,15.34,0,0,1,97.3,90.93Z"/><path class="cls-90" d="M99.26,88.78,96.1,86.06c-1.36-1.17-2.72-2.33-4.08-3.51a10.85,10.85,0,0,0-1-.8l1.47-1.67c.26-.27.44-.26.72.06.44.51,1,.87,1.53,1.34,1,1,2.23,1.83,3.26,2.85a7.52,7.52,0,0,0,1.14,1c.52.34.81.92,1.39,1.19a.46.46,0,0,1,.16.64c0,.13-.2.22-.2.39C100,87.84,99.77,88.45,99.26,88.78Z"/><path class="cls-110" d="M95,93.17a.41.41,0,0,1,.39-.38A1,1,0,0,1,95,93.17Z"/><path class="cls-98" d="M24.72,31l-.59,1a10.13,10.13,0,0,1-.88,1.66,1.06,1.06,0,0,1-.79-.4c-1.74-1.58-3.57-3.06-5.31-4.64-.55-.5-1.18-.91-1.69-1.46-.09-.09-.26-.15-.22-.34a10.63,10.63,0,0,1,1.66-2.44,1.31,1.31,0,0,1,.66.39c.83.78,1.7,1.49,2.56,2.23.57.5,1.17,1,1.72,1.49C22.78,29.37,23.8,30.14,24.72,31Z"/><path class="cls-43" d="M24.72,31c-.19,0-.3-.11-.42-.21l-2.47-2.16c-.69-.59-1.42-1.15-2.08-1.78a30.45,30.45,0,0,1-2.31-2.09c-.15-.18-.43-.17-.54-.41.05-.27.27-.45.4-.68.36-.45.71-.91,1.07-1.37.29,0,.45.18.62.33,1.3,1.21,2.7,2.31,4,3.49,1.07,1,2.18,1.88,3.27,2.82a7,7,0,0,0-1,1.37C25,30.5,25,30.84,24.72,31Z"/><path class="cls-19" d="M15.24,26.83c1.18,1,2.35,2.08,3.54,3.09s2.61,2.2,3.86,3.37a3.47,3.47,0,0,0,.61.38c-.18.66-.64,1.19-.78,1.86l-.2.29a.81.81,0,0,1-.5-.26,15.14,15.14,0,0,0-1.53-1.37c-.84-.66-1.6-1.4-2.42-2.07-1-.84-2-1.73-3-2.6-.28-.25-.68-.38-.75-.83A7.67,7.67,0,0,1,15.24,26.83Z"/><path class="cls-27" d="M87.93,82.62a1.3,1.3,0,0,1-.65-.4c-.91-.86-1.87-1.64-2.81-2.45s-1.81-1.62-2.74-2.4c-1.26-1.06-2.46-2.18-3.75-3.21-1-.79-1.91-1.69-2.86-2.53-.72-.64-1.48-1.24-2.18-1.92-.22-.21-.25.05-.25.21,0,.75,0,1.5,0,2.25V75.1c0,.05-.07,0-.1,0h0V69.24c.19-.21.09-.47.09-.7,0-.78,0-1.57,0-2.35,0-.12,0-.28.11-.34s.23.08.32.16l5.55,4.81c1.4,1.22,2.79,2.45,4.2,3.67l4.76,4.08a.48.48,0,0,0,.29.15v3.9Z"/><path class="cls-69" d="M72.69,83.8v6c0,.94,0,1.88,0,2.82,0,.17.07.36-.09.51V83.8S72.65,83.75,72.69,83.8Z"/><path class="cls-98" d="M72.69,83.8h-.1V78.13s.06,0,.1,0V83.8Z"/><path class="cls-110" d="M72.69,78.13h-.1v-3h.1v3Z"/><path class="cls-47" d="M106.88,78.62c.37-.78-.19-1.16-.68-1.57-.79-.65-1.56-1.31-2.33-2L101.47,73c-.8-.71-1.65-1.35-2.4-2.11-.27-.27-.56-.5-1-.34.32-.72.65-1.43,1-2.15a.41.41,0,0,1,.64,0c.85.79,1.73,1.55,2.62,2.28,1.11.91,2.12,1.94,3.27,2.81.9.68,1.72,1.47,2.57,2.21a.46.46,0,0,1,.09.32A17.38,17.38,0,0,1,106.88,78.62Z"/><path class="cls-141" d="M99.84,66.5a.54.54,0,0,1-.19.49A.57.57,0,0,1,99.84,66.5Z"/><path class="cls-68" d="M26.28,29c-.56-.09-.84-.59-1.23-.91-1.37-1.13-2.68-2.32-4-3.47-.88-.76-1.77-1.51-2.66-2.26l1.27-1.56c.14-.12.2-.32.39-.39a.88.88,0,0,0,.49.9,11.81,11.81,0,0,1,1.32,1.15l3.44,3c.66.58,1.3,1.17,2,1.7a.51.51,0,0,0,.48.12Z"/><path class="cls-118" d="M52.86,12.17a.85.85,0,0,0-.34-.67L50.27,9.57,48.91,8.39,45.54,5.48l-1.61-1.4c-.12-.11-.26-.21-.26-.4L44,3.59c.21.1.29-.08.4-.19A11.25,11.25,0,0,0,45.73,3l1-.29a9.52,9.52,0,0,0,1.08-.29.94.94,0,0,0,.4.64c.79.63,1.54,1.31,2.32,2,1.43,1.19,2.78,2.45,4.19,3.66,1,.86,2,1.79,3,2.56a.33.33,0,0,1,.13.25,3.27,3.27,0,0,1-1,.1c-.15.09-.31,0-.47.05s-.41-.06-.6,0h0c-.25.13-.54,0-.79.1l-1.78.29Z"/><path class="cls-38" d="M55,11.79c.24-.2.53-.06.79-.1C55.54,11.88,55.26,11.75,55,11.79Z"/><path class="cls-38" d="M55.79,11.69c.17-.18.39-.07.58-.1,0,0,0,.05,0,.07s0,0,0,0Z"/><path class="cls-4" d="M56.37,11.69v-.1h.49C56.72,11.75,56.53,11.67,56.37,11.69Z"/><path class="cls-79" d="M44.36,3.4a.38.38,0,0,1-.27.34c-.1,0-.11-.07-.13-.15Z"/><path class="cls-25" d="M53.93,58.1a.27.27,0,0,1,.29-.29l-.1.19Z"/><path class="cls-129" d="M58.81,47.06l.39-.49a6.49,6.49,0,0,1,1-1c.31-.24.57-.07.77.13.87.82,1.76,1.6,2.69,2.34.12.09.22.2.16.37-.56.49-1,1.12-1.57,1.56a10.75,10.75,0,0,1-1.55-1.31C60,48.16,59.4,47.64,58.81,47.06Z"/><path class="cls-122" d="M63.8,48.43c-.39-.35-.76-.73-1.16-1.06A19.37,19.37,0,0,1,61,45.9a.84.84,0,0,0-.8-.31,7.67,7.67,0,0,1,1.55-1.46.24.24,0,0,0,.11-.2,15.23,15.23,0,0,1,2.34,2c.19.18.43.31.64.48.38.33.45.58.15,1a1,1,0,0,0-.39.39Z"/><path class="cls-69" d="M58.81,47.06a5.21,5.21,0,0,1,1.29,1A18.64,18.64,0,0,1,62.23,50l-1.56,1.56h0c-.84-.89-1.85-1.6-2.72-2.45-.19-.18-.43-.3-.5-.57v-.1A11,11,0,0,1,58.81,47.06Z"/><path class="cls-119" d="M52.56,92.49v1.27a.07.07,0,1,1-.1-.1c0-1.4,0-2.8,0-4.19h.09l.06.07a1.14,1.14,0,0,1,.08.52c0,.61,0,1.23,0,1.85A.78.78,0,0,1,52.56,92.49Z"/><path class="cls-85" d="M52.46,93.66v.1a.51.51,0,0,1-.48,0,.21.21,0,0,1-.2-.09Z"/><path class="cls-108" d="M57.45,48.53c.64.55,1.28,1.1,1.91,1.68a5.78,5.78,0,0,0,.82.66.93.93,0,0,1,.49.68,2.36,2.36,0,0,0-.59.59l-1,.88c-.68-.53-1.33-1.09-2-1.65-.45-.39-.93-.76-1.34-1.18l1.27-1.37Z"/><path class="cls-73" d="M55.79,50.19c.53.06.74.56,1.12.84.71.5,1.33,1.12,2,1.69a.39.39,0,0,1,.21.3,12.75,12.75,0,0,1-1.47,1.47c-.14-.46-.55-.65-.87-.93L54.89,52a.83.83,0,0,0-.57-.23l.39-.49A10.91,10.91,0,0,1,55.79,50.19Z"/><path class="cls-119" d="M52.56,85.46c.2-.3.08-.63.09-.94,0-.57,0-1.13,0-1.7a1.82,1.82,0,0,1,.86.52c1.4,1.29,2.88,2.5,4.31,3.76l3.22,2.8c1.38,1.17,2.74,2.37,4.11,3.56,1.11,1,2.23,1.91,3.34,2.89s2,1.8,3.09,2.66,2,1.8,3.08,2.66c.48.39.92.82,1.4,1.21a.57.57,0,0,1,.23.55l-2.54.69-.88.18c-.12-.54-.59-.8-1-1.11-1.58-1.3-3.12-2.65-4.65-4-1.82-1.6-3.67-3.16-5.49-4.76-1.22-1.07-2.43-2.15-3.68-3.19-1.65-1.37-3.22-2.83-4.87-4.2-.1-.08-.19-.22-.33-.17s-.11.25-.11.39c0,.59,0,1.17,0,1.76,0,.17.08.4-.21.45h0Z"/><path class="cls-116" d="M40.94,60.15a1.2,1.2,0,0,0-.6-.67c-.55-.36-.91-.95-1.55-1.18l.78-.88,1.07-1a.76.76,0,0,1,.68.17c.43.42.9.78,1.34,1.18.25.22.38.48.13.8Z"/><path class="cls-23" d="M42.79,58.59a.66.66,0,0,0-.33-.81,4.78,4.78,0,0,1-.84-.72,1.92,1.92,0,0,0-1-.62,10.16,10.16,0,0,1,1.27-1.27c.57.42,1.07.91,1.62,1.34a1.8,1.8,0,0,1,.73.81c-.15.24-.48.3-.59.58s-.46.24-.59.49Z"/><path class="cls-115" d="M52.56,89.46c.22-.41.06-.85.09-1.28s0-.78,0-1.17c0-.13,0-.29.11-.35a.4.4,0,0,1,.39.15c.39.4.85.7,1.26,1.06,1,.84,1.91,1.7,2.89,2.52,1.25,1,2.44,2.16,3.69,3.21,1,.84,1.93,1.77,3,2.59,1.21,1,2.35,2,3.53,3,1,.82,1.92,1.68,2.88,2.51q1.06.92,2.16,1.8c.24.21.49.39.36.76l-1.07.22-1.76.29-.68.09a.75.75,0,0,0-.32-.58c-1-.87-2.07-1.77-3.1-2.66s-2.18-1.94-3.3-2.87-2.08-1.86-3.17-2.73c-.42-.34-.8-.72-1.21-1.06-1.2-1-2.39-2-3.57-3.08a14.75,14.75,0,0,1-2.14-2Z"/><path class="cls-23" d="M52.56,90c.7.57,1.37,1.17,2,1.74.49.41.94.87,1.48,1.24.39.28.74.65,1.12,1s1,.88,1.53,1.33l2.34,2.07c.36.32.72.64,1.09,1,.92.76,1.8,1.58,2.72,2.35s1.55,1.37,2.36,2,1.4,1.21,2.1,1.81c.17.16.25.3,0,.46h-.29l-2,.2a17.67,17.67,0,0,0-1.71-1.52c-.37-.31-.74-.62-1.09-1-.54-.52-1.16-.95-1.7-1.46-.69-.68-1.46-1.26-2.17-1.91-.48-.44-1-.85-1.5-1.28s-.85-.76-1.28-1.14l-1.26-1.11-1.5-1.28a27.41,27.41,0,0,0-2.35-2Z"/><path class="cls-25" d="M53.54,58.59c0-.19.1-.29.29-.29A.58.58,0,0,1,53.54,58.59Z"/><path class="cls-119" d="M18.56,52.73h-.09c.05-.36-.11-.74.09-1.08Z"/><path class="cls-23" d="M52,93.76h.58A.43.43,0,0,1,52,93.76Z"/></svg>