<svg xmlns="http://www.w3.org/2000/svg" width="1014" height="1319.027" viewBox="0 0 1014 1319.027">
  <g id="Group_13344" data-name="Group 13344" transform="translate(-33 -25)">
    <g id="Group_13328" data-name="Group 13328" transform="translate(8.806 14.807)">
      <g id="Group_13314" data-name="Group 13314" transform="translate(24.194 10.194)">
        <g id="Group_13310" data-name="Group 13310" transform="translate(0 0)">
          <g id="Group_13200" data-name="Group 13200">
            <g id="Rectangle_1494" data-name="Rectangle 1494" transform="translate(0)" fill="#6dd2ec" stroke="#fff" stroke-width="1">
              <rect width="1014" height="1014" rx="70" stroke="none"/>
              <rect x="0.5" y="0.5" width="1013" height="1013" rx="69.5" fill="none"/>
            </g>
            <rect id="Rectangle_1495" data-name="Rectangle 1495" width="922" height="922" rx="70" transform="translate(46 46)" fill="#fff"/>
            <g id="facial-recognition_1_" data-name="facial-recognition (1)" transform="translate(81.161 81.156)">
              <path id="Path_68662" data-name="Path 68662" d="M14.2,127.754a14.194,14.194,0,0,0,14.191-14.2V70.976A42.584,42.584,0,0,1,70.976,28.389h42.58a14.194,14.194,0,1,0,0-28.389H70.976A71.056,71.056,0,0,0,0,70.976v42.58a14.2,14.2,0,0,0,14.2,14.2Zm0,0" transform="translate(0 0)" fill="#46c5ec"/>
              <path id="Path_68663" data-name="Path 68663" d="M113.556,534.564H70.976a42.584,42.584,0,0,1-42.587-42.585V449.4A14.194,14.194,0,1,0,0,449.4v42.581a71.057,71.057,0,0,0,70.976,70.975h42.58a14.195,14.195,0,1,0,0-28.39Zm0,0" transform="translate(0 288.729)" fill="#46c5ec"/>
              <path id="Path_68664" data-name="Path 68664" d="M548.755,435.2a14.194,14.194,0,0,0-14.191,14.2v42.579a42.584,42.584,0,0,1-42.586,42.587H449.4a14.194,14.194,0,1,0,0,28.389h42.58a71.055,71.055,0,0,0,70.975-70.976V449.4A14.2,14.2,0,0,0,548.755,435.2Zm0,0" transform="translate(288.729 288.729)" fill="#46c5ec"/>
              <path id="Path_68665" data-name="Path 68665" d="M491.977,0H449.4a14.194,14.194,0,1,0,0,28.389h42.579a42.584,42.584,0,0,1,42.587,42.587v42.58a14.194,14.194,0,1,0,28.388,0V70.976A71.054,71.054,0,0,0,491.977,0Zm0,0" transform="translate(288.729 0)" fill="#46c5ec"/>
              <path id="Path_68666" data-name="Path 68666" d="M62.522,90.911V62.522H90.911a14.195,14.195,0,1,0,0-28.389H62.522A28.388,28.388,0,0,0,34.133,62.522V90.911a14.195,14.195,0,1,0,28.389,0Zm0,0" transform="translate(22.645 22.645)" fill="#46c5ec"/>
              <path id="Path_68667" data-name="Path 68667" d="M90.911,477.787H62.522V449.4a14.195,14.195,0,1,0-28.389,0v28.389a28.389,28.389,0,0,0,28.389,28.389H90.911a14.194,14.194,0,1,0,0-28.389Zm0,0" transform="translate(22.645 288.729)" fill="#46c5ec"/>
              <path id="Path_68668" data-name="Path 68668" d="M477.787,449.4v28.389H449.4a14.2,14.2,0,1,0,0,28.39h28.389a28.389,28.389,0,0,0,28.389-28.39V449.4a14.194,14.194,0,1,0-28.389,0Zm0,0" transform="translate(288.729 288.729)" fill="#46c5ec"/>
              <path id="Path_68669" data-name="Path 68669" d="M491.976,105.108a14.2,14.2,0,0,0,14.2-14.2V62.522a28.389,28.389,0,0,0-28.389-28.389H449.4a14.195,14.195,0,1,0,0,28.389h28.389V90.911a14.194,14.194,0,0,0,14.191,14.2Zm0,0" transform="translate(288.729 22.645)" fill="#46c5ec"/>
            </g>
          </g>
        </g>
        <g id="emotions_1_" data-name="emotions (1)" transform="translate(191.745 218.601)">
          <path id="Path_68750" data-name="Path 68750" d="M667.978,431.59,633.52,343.651A212.054,212.054,0,0,1,620.5,291.995a269.663,269.663,0,0,0-60.019-139.454A124.626,124.626,0,0,0,336.033,54.4a269.39,269.39,0,0,0-56.378,9.178A124.651,124.651,0,1,0,98.821,226.272,268.4,268.4,0,0,0,80.9,303.857q-3.765,3.928-7.195,8.185a124.969,124.969,0,0,0-27.379,77.948c0,63.827,48.212,116.576,110.127,123.82A273.449,273.449,0,0,0,191.7,544.468a35.6,35.6,0,0,1,14.485,28.73V750.111a11.151,11.151,0,1,0,22.3,0V573.2a57.968,57.968,0,0,0-23.651-46.754c-5.616-4.093-11.063-8.445-16.336-13.005,60.513-8.526,107.225-60.621,107.225-123.449a124.263,124.263,0,0,0-95.488-121.225,11.151,11.151,0,1,0-5.208,21.686,102.4,102.4,0,1,1-47.557-.1,11.151,11.151,0,0,0-5.11-21.709,124.281,124.281,0,0,0-36.532,15.13,245.885,245.885,0,0,1,12.485-46.1A124.628,124.628,0,0,0,288.939,84.207a247.128,247.128,0,0,1,34.514-6.389,122.872,122.872,0,0,0-5.824,18.125,11.151,11.151,0,1,0,21.7,5.127,102.391,102.391,0,1,1,.069,47.558,11.152,11.152,0,0,0-21.69,5.2,124.671,124.671,0,0,0,234.1,23.849A247.219,247.219,0,0,1,598.362,294.7a234.4,234.4,0,0,0,14.391,57.09l34.458,87.939a4.006,4.006,0,0,1-2.193,5.188l-41.184,17.3a11.153,11.153,0,0,0-6.722,11.85l13.722,96.585A21.271,21.271,0,0,1,591.7,594.83l-75.778,6.875a11.151,11.151,0,0,0-10.143,11.105v137.3a11.151,11.151,0,0,0,22.3,0V623l65.635-5.955a43.575,43.575,0,0,0,39.2-49.527L620.4,479.447l33.252-13.97a26.178,26.178,0,0,0,14.323-33.887ZM171.025,227.1a102.4,102.4,0,1,1,102.4-102.4A102.513,102.513,0,0,1,171.025,227.1Z" transform="translate(-46.325 0)" fill="#6cd3ea"/>
          <path id="Path_68751" data-name="Path 68751" d="M102.374,86.514h.058a11.151,11.151,0,0,0,.055-22.3h-.2A11.091,11.091,0,0,0,91.208,75.306,11.214,11.214,0,0,0,102.374,86.514Z" transform="translate(-24.474 31.261)" fill="#6cd3ea"/>
          <path id="Path_68752" data-name="Path 68752" d="M165.458,64.211h-.2a11.09,11.09,0,0,0-11.078,11.095,11.213,11.213,0,0,0,11.164,11.209h.06a11.152,11.152,0,0,0,.055-22.3Z" transform="translate(6.183 31.261)" fill="#6cd3ea"/>
          <path id="Path_68753" data-name="Path 68753" d="M188.326,97.157a58.55,58.55,0,0,1-78.4,0,11.152,11.152,0,0,0-14.935,16.565,80.851,80.851,0,0,0,108.269,0,11.151,11.151,0,0,0-14.934-16.565Z" transform="translate(-24.426 45.903)" fill="#6cd3ea"/>
          <path id="Path_68754" data-name="Path 68754" d="M282.69,64.211h-.2a11.09,11.09,0,0,0-11.078,11.095,11.213,11.213,0,0,0,11.165,11.209h.058a11.152,11.152,0,0,0,.055-22.3Z" transform="translate(63.256 31.261)" fill="#6cd3ea"/>
          <path id="Path_68755" data-name="Path 68755" d="M345.6,86.514a11.151,11.151,0,0,0,.056-22.3h-.2a11.09,11.09,0,0,0-11.078,11.095,11.213,11.213,0,0,0,11.165,11.209Z" transform="translate(93.913 31.261)" fill="#6cd3ea"/>
          <path id="Path_68756" data-name="Path 68756" d="M275.195,115.085a11.151,11.151,0,1,0,14.934,16.564,58.552,58.552,0,0,1,78.4,0,11.151,11.151,0,0,0,14.935-16.564,80.853,80.853,0,0,0-108.27,0Z" transform="translate(63.304 45.903)" fill="#6cd3ea"/>
          <path id="Path_68757" data-name="Path 68757" d="M126.19,265.6a11.151,11.151,0,0,0-5.048-14.939l-13.884-6.872a11.151,11.151,0,0,0-9.892,19.987l13.884,6.872a11.142,11.142,0,0,0,14.94-5.048Z" transform="translate(-24.498 118.124)" fill="#6cd3ea"/>
          <path id="Path_68758" data-name="Path 68758" d="M156.05,271.81a11.1,11.1,0,0,0,4.937-1.158l13.883-6.87a11.151,11.151,0,0,0-9.89-19.99L151.1,250.663a11.152,11.152,0,0,0,4.954,21.148Z" transform="translate(1.659 118.124)" fill="#6cd3ea"/>
          <path id="Path_68759" data-name="Path 68759" d="M420.034,394.128a11.151,11.151,0,0,0-15.337-3.671,102.433,102.433,0,1,1,33.681-33.582A11.151,11.151,0,0,0,457.35,368.6a124.658,124.658,0,1,0-40.986,40.862,11.149,11.149,0,0,0,3.671-15.335Z" transform="translate(41.405 86.864)" fill="#6cd3ea"/>
          <path id="Path_68760" data-name="Path 68760" d="M282.773,242.636a11.17,11.17,0,0,0-11.266,11.036l-.142,13.742A11.15,11.15,0,0,0,282.4,278.679h.118a11.151,11.151,0,0,0,11.148-11.035l.143-13.741A11.152,11.152,0,0,0,282.773,242.636Z" transform="translate(63.233 118.125)" fill="#6cd3ea"/>
          <path id="Path_68761" data-name="Path 68761" d="M345.624,278.679h.118a11.149,11.149,0,0,0,11.035-11.265l-.141-13.743a11.151,11.151,0,0,0-11.149-11.037h-.117A11.15,11.15,0,0,0,334.335,253.9l.142,13.743A11.15,11.15,0,0,0,345.624,278.679Z" transform="translate(93.89 118.124)" fill="#6cd3ea"/>
          <path id="Path_68762" data-name="Path 68762" d="M103.49,289.892a11.152,11.152,0,0,0,11.151,11.152h50.8a11.151,11.151,0,1,0,0-22.3h-50.8A11.151,11.151,0,0,0,103.49,289.892Z" transform="translate(-18.495 135.702)" fill="#6cd3ea"/>
          <path id="Path_68763" data-name="Path 68763" d="M297.227,297.088h50.023a11.151,11.151,0,1,0,0-22.3H297.227a11.151,11.151,0,1,0,0,22.3Z" transform="translate(70.395 133.777)" fill="#6cd3ea"/>
        </g>
      </g>
      <path id="Path_68764" data-name="Path 68764" d="M667.978,431.59,633.52,343.651A212.054,212.054,0,0,1,620.5,291.995a269.663,269.663,0,0,0-60.019-139.454A124.626,124.626,0,0,0,336.033,54.4a269.39,269.39,0,0,0-56.378,9.178A124.651,124.651,0,1,0,98.821,226.272,268.4,268.4,0,0,0,80.9,303.857q-3.765,3.928-7.195,8.185a124.969,124.969,0,0,0-27.379,77.948c0,63.827,48.212,116.576,110.127,123.82A273.449,273.449,0,0,0,191.7,544.468a35.6,35.6,0,0,1,14.485,28.73V750.111a11.151,11.151,0,1,0,22.3,0V573.2a57.968,57.968,0,0,0-23.651-46.754c-5.616-4.093-11.063-8.445-16.336-13.005,60.513-8.526,107.225-60.621,107.225-123.449a124.263,124.263,0,0,0-95.488-121.225,11.151,11.151,0,1,0-5.208,21.686,102.4,102.4,0,1,1-47.557-.1,11.151,11.151,0,0,0-5.11-21.709,124.281,124.281,0,0,0-36.532,15.13,245.885,245.885,0,0,1,12.485-46.1A124.628,124.628,0,0,0,288.939,84.207a247.128,247.128,0,0,1,34.514-6.389,122.872,122.872,0,0,0-5.824,18.125,11.151,11.151,0,1,0,21.7,5.127,102.391,102.391,0,1,1,.069,47.558,11.152,11.152,0,0,0-21.69,5.2,124.671,124.671,0,0,0,234.1,23.849A247.219,247.219,0,0,1,598.362,294.7a234.4,234.4,0,0,0,14.391,57.09l34.458,87.939a4.006,4.006,0,0,1-2.193,5.188l-41.184,17.3a11.153,11.153,0,0,0-6.722,11.85l13.722,96.585A21.271,21.271,0,0,1,591.7,594.83l-75.778,6.875a11.151,11.151,0,0,0-10.143,11.105v137.3a11.151,11.151,0,0,0,22.3,0V623l65.635-5.955a43.575,43.575,0,0,0,39.2-49.527L620.4,479.447l33.252-13.97a26.178,26.178,0,0,0,14.323-33.887ZM171.025,227.1a102.4,102.4,0,1,1,102.4-102.4A102.513,102.513,0,0,1,171.025,227.1Z" transform="translate(169.614 228.794)" fill="#6cd3ea"/>
    </g>
    <text id="Facial_Expression_System" data-name="Facial Expression System" transform="translate(42.5 1120.027)" fill="#0ec5ff" font-size="77" font-family="Poppins-Regular, Poppins"><tspan x="-358.512" y="81">FACIAL EXPRESSION </tspan><tspan x="-141.41" y="197">SYSTEM</tspan></text>
  </g>
</svg>
