<svg id="Layer_1" data-name="Layer 1" xmlns="http://www.w3.org/2000/svg" viewBox="0 0 120 120"><defs><style>.cls-1{fill:#776299;}.cls-2{fill:#796798;}.cls-3{fill:#796997;}.cls-4{fill:#776597;}.cls-5{fill:#776399;}.cls-6{fill:#77639a;}.cls-7{fill:#7a6c96;}.cls-8{fill:#349;}.cls-9{fill:#786499;}.cls-10{fill:#796a97;}.cls-11{fill:#7a6b97;}.cls-12{fill:#3958a6;}.cls-13{fill:#313d95;}.cls-14{fill:#303992;}.cls-15{fill:#314097;}.cls-16{fill:#3751a1;}.cls-17{fill:#364d9f;}.cls-18{fill:#34459a;}.cls-19{fill:#35489b;}.cls-20{fill:#364e9f;}.cls-21{fill:#344a9c;}.cls-22{fill:#33469a;}.cls-23{fill:#354b9d;}.cls-24{fill:#333e96;}.cls-25{fill:#323d95;}.cls-26{fill:#34499c;}.cls-27{fill:#78649a;}.cls-28{fill:#796698;}.cls-29{fill:#3a5aa7;}.cls-30{fill:#324398;}.cls-31{fill:#3957a5;}.cls-32{fill:#324097;}.cls-33{fill:#7b6c98;}.cls-34{fill:#7a6a98;}.cls-35{fill:#3853a3;}.cls-36{fill:#7a6899;}.cls-37{fill:#7a669b;}.cls-38{fill:#36499c;}.cls-39{fill:#384c9e;}.cls-40{fill:#394d9e;}.cls-41{fill:#3c4f9f;}.cls-42{fill:#3752a2;}.cls-43{fill:#354c9e;}.cls-44{fill:#313e96;}.cls-45{fill:#7d699e;}.cls-46{fill:#3b51a0;}.cls-47{fill:#435aa7;}.cls-48{fill:#3a50a1;}.cls-49{fill:#816da0;}.cls-50{fill:#3e52a2;}.cls-51{fill:#374397;}.cls-52{fill:#3c59a7;}.cls-53{fill:#515da7;}.cls-54{fill:#344498;}.cls-55{fill:#3954a3;}.cls-56{fill:#3c5aa7;}.cls-57{fill:#475aa5;}.cls-58{fill:#806ca0;}.cls-59{fill:#fafafd;}.cls-60{fill:#3853a2;}.cls-61{fill:#f0eef3;}.cls-62{fill:#f0edf3;}.cls-63{fill:#f1eef4;}.cls-64{fill:#f5f3f7;}.cls-65{fill:#364fa1;}.cls-66{fill:#33479b;}</style></defs><path class="cls-1" d="M29.21,43.68c-1,2-2,4-1.91,6.29.07,3.06,1.71,5.21,4,7a15.68,15.68,0,0,0,7.1,3.36,6.87,6.87,0,0,1,1.36,0c.63,0,1,.44,1.44.78l2,.36A3.39,3.39,0,0,1,45.38,61c.61,0,1.22,0,1.83,0a12.25,12.25,0,0,0,2.84-.11,3.39,3.39,0,0,1,.55-.13,18,18,0,0,0,2.73-.31c.61-.16,1.26-.16,1.87-.36s1.41-.23,2.09-.46,1.52-.4,2.27-.63a7.45,7.45,0,0,1,2-.48c2.14-.27,3.86-1.53,5.74-2.42,1.67-.79,3.22-1.82,4.91-2.57C73.55,52.89,74,52.25,73,51a8.17,8.17,0,0,1-.71-1.28c4.75-.29,9.26.38,14.15.23l-6.66,12c-1.14-.88-1.06-2.82-2.28-2.84s-2.17,1.06-3.28,1.6c-4.63,2.29-9.08,5-14.11,6.37-.86,1.1-2.22,1-3.36,1.48a9.74,9.74,0,0,1-1.43.12c-.67,0-1.31.24-2,.32-.48,0-1,.06-1.46.08-.9,0-1.76.4-2.67.35-.72,0-1.43,0-2.14,0a39.7,39.7,0,0,0-4.23.1,18.52,18.52,0,0,0-2.58,0c-1.07-.32-2.26-.29-3.24-.95a36.69,36.69,0,0,1-8.15-2.91c-5.26-2.93-7.33-7.76-5.49-13.46a23,23,0,0,1,5.43-8.93C29.15,43.16,29.34,43.26,29.21,43.68Z"/><path class="cls-1" d="M34.41,26.91c-2.91-6.19-1.71-12,3.17-15.27a11,11,0,0,1,14.69,1.81c.19.91-.5,1.22-1.11,1.45-3.74,1.42-7.42,3-11.21,4.26-.6.2-1.55.88-1.86-.46a4.39,4.39,0,0,1,1.67-3.17c.59-.53.88-1.11.29-1.73s-1.25-.35-1.8.15a8.86,8.86,0,0,0-2.71,6.1,17.78,17.78,0,0,0,.75,6.11A2,2,0,0,1,34.41,26.91Z"/><path class="cls-1" d="M49.24,102.87c1.24-2.23,2.25-4.06,3.28-5.89a3.48,3.48,0,0,1,3.78-1.3.49.49,0,0,1,.28.73c-1.2,2.62-1.26,5.49-1.75,8.25-.21,1.2-.74,1.53-1.85,1.41-1.5-.16-.7-1.2-.65-1.81a34.46,34.46,0,0,0,.38-3.88c-.79,1.51-1.63,3-2.36,4.55a1.85,1.85,0,0,1-2,1.16c-1.23-.06-.87-1-1-1.63a36.63,36.63,0,0,0-1-4c-.26,1.44-.62,2.87-.77,4.32-.14,1.29-.88,1.43-1.91,1.33-1.37-.12-.7-1.11-.62-1.67.39-2.56,1-5.09,1.33-7.65.15-1.07.72-1.17,1.51-1.07s1.77-.47,2,.94C48.19,98.54,48.69,100.45,49.24,102.87Z"/><path class="cls-2" d="M41.5,32.87,40,28.77a3,3,0,0,1,1.84-1.14c3.94-1.3,7.72-3,11.65-4.33A6.48,6.48,0,0,0,56,21.7c1.51,1.13,1.42,2.95,1.92,4.5a2.19,2.19,0,0,0,.38.95c.19.72-.38.83-.83.94C52.7,29.28,48.35,31.51,43.76,33,43,33.29,42.17,34,41.5,32.87Z"/><path class="cls-3" d="M41.5,32.87c.6.47,1.12.1,1.7-.12,4.35-1.64,8.72-3.24,13.06-4.91.66-.25,1.54.12,2-.69a8.85,8.85,0,0,1,1.07,3,1.28,1.28,0,0,1-.86,1.91c-5,1.64-9.74,3.9-14.77,5.41a.76.76,0,0,1-.69-.18Z"/><path class="cls-4" d="M56,21.7c.07.86-.32,1.28-1.16,1.58-4.95,1.79-9.86,3.65-14.78,5.49L38.6,25.06a3.63,3.63,0,0,1,1.85-1.2C45,22.29,49.52,20.61,54,18.76a2,2,0,0,1,.92-.11A8.94,8.94,0,0,1,56,21.7Z"/><path class="cls-1" d="M41.29,105.86c-3.81,1.38-3-2.48-4.53-3.81-.75.93-.64,2-.79,3-.23,1.43-1.22,1-2,1-1.14,0-.62-.8-.53-1.33.43-2.61.89-5.22,1.35-7.84.1-.6.15-1.27,1-1.26,1.54,0,3.09,0,4.63.08a2.27,2.27,0,0,1,2.16,2,3,3,0,0,1-1.3,3.4c-1.71.83-1.49,1.75-.76,3A13.62,13.62,0,0,1,41.29,105.86Z"/><path class="cls-1" d="M84.2,105.85c-3.74,1.34-3-2.39-4.68-4a20,20,0,0,0-.52,2.8c0,1.43-.9,1.55-2,1.44-1.44-.15-.61-1.17-.53-1.67.37-2.56.92-5.1,1.32-7.66.13-.85.44-1.18,1.29-1.14,1.18.05,2.35,0,3.53,0a2.66,2.66,0,0,1,2.91,1.82A2.88,2.88,0,0,1,84.31,101c-2,.94-1.3,2-.7,3.3C83.84,104.82,84,105.34,84.2,105.85Z"/><path class="cls-1" d="M16.74,101.71c-1.63-.43-2,.45-2.21,1.84-.17,1,.29,2.86-1.94,2.54-.73-.1-1-.3-.86-1,.52-2.91,1-5.83,1.54-8.74.21-1.11,1.16-.66,1.83-.7.91,0,.71.62.67,1.16,0,.13,0,.25-.07.37-.4,2.39.59,3.22,3,2.53.62-.19.68-.64.78-1.11a20.63,20.63,0,0,1,.44-2.37c.36-1.14,1.36-.56,2.05-.54s.41.7.34,1.13c-.45,2.68-.9,5.35-1.37,8-.11.66-.21,1.29-1.21,1.27s-1.86-.07-1.33-1.47c.11-.28,0-.63.13-.91C19.16,101.93,18.53,101.3,16.74,101.71Z"/><path class="cls-1" d="M111.1,101.7a17.08,17.08,0,0,0-.49,2.82c0,1.51-.9,1.72-2.08,1.54-1.37-.22-.52-1.22-.44-1.73.36-2.56,1-5.08,1.31-7.64.19-1.4,1.09-1.08,1.89-1.06,1.24,0,.66.87.58,1.46-.12.84-.25,1.68-.4,2.66,2.4-1.3,3.15-5.09,7-3.93-1.27,1.28-2.4,2.55-3.65,3.66-1,.86-1.15,1.56-.35,2.65s1.53,2.48,2.28,3.73C112.82,107.23,112.94,103.28,111.1,101.7Z"/><path class="cls-1" d="M55.67,106A88.07,88.07,0,0,0,61,96.61c.7-1.32,1.73-.87,2.7-.94,1.15-.08,1,.92,1.11,1.56q.77,3.6,1.39,7.25c.09.54.72,1.48-.48,1.54-.7,0-1.72.6-2.06-.81-.27-1.18-3.78-1.7-4.26-.59C58.62,106.47,57.26,106.07,55.67,106Z"/><path class="cls-1" d="M21.76,106c1.79-3.29,3.52-6.35,5.14-9.47.65-1.26,1.7-.69,2.6-.81,1.05-.13,1,.78,1.1,1.37.53,2.54,1,5.09,1.46,7.65.08.45.54,1.26-.38,1.31-.72,0-1.72.62-2.16-.66s-3.8-1.86-4.34-.66C24.43,106.33,23.28,106.14,21.76,106Z"/><path class="cls-1" d="M85,106c1.79-3.27,3.51-6.34,5.13-9.45.7-1.34,1.82-.73,2.78-.81s.82.8.93,1.33c.53,2.54,1,5.09,1.46,7.65.09.5.55,1.38-.54,1.35-.67,0-1.59.57-2-.65s-3.78-1.9-4.33-.71C87.64,106.29,86.51,106.17,85,106Z"/><path class="cls-1" d="M106.63,102.41a5.62,5.62,0,0,1-7.37,3.36,3.46,3.46,0,0,1-2.12-2.4,6.24,6.24,0,0,1,1.56-6,5.75,5.75,0,0,1,5.74-1.76,3.64,3.64,0,0,1,2.36,1.65c.39.6.93,1.59.31,1.95a1.91,1.91,0,0,1-2.5-.29c-1-1.41-2.26-1.37-3.56-.56a3.78,3.78,0,0,0-1.27,4.3,2.15,2.15,0,0,0,3.46.54A3.56,3.56,0,0,1,106.63,102.41Z"/><path class="cls-5" d="M38.09,18.7c1.55.76,2.79-.38,4.08-.81,2.83-.93,5.57-2.14,8.35-3.23.69-.26,1.42-.44,1.75-1.21a5.57,5.57,0,0,1,1.84,3c.11.91-.7.89-1.2,1.12-4.13,1.83-8.45,3.16-12.62,4.9-.94.4-2.09.82-2.5-.78A4.83,4.83,0,0,1,38.09,18.7Z"/><path class="cls-6" d="M7.22,95.61h.55c2.59,0,3.73.73,3.88,2.46.18,2-1.47,4.26-3.6,4.16-2.29-.1-2.88.94-3,2.8-.07,1.46-1.15,1-1.91,1-1.3,0-.6-.93-.51-1.48q.45-3,1-6C4.24,95.6,4.26,95.61,7.22,95.61Z"/><path class="cls-7" d="M61.18,35.45a.55.55,0,0,1,.14.12c1,2.56,1,2.58-1.54,3.48-4.06,1.44-8.18,2.73-12.19,4.31-1.78.71-2.6.43-2.88-1.43-.05-.3-.15-.59-.23-.89C48.8,39.6,53,37.8,57.32,36.38,58.58,36,59.74,35.11,61.18,35.45Z"/><path class="cls-8" d="M92.64,47.7A5.71,5.71,0,0,1,91,49.62c-.9,0-.87-.71-.9-1.31a77.69,77.69,0,0,1,.05-10.68c.64-2.94.84-5.85-.4-8.7a4.84,4.84,0,0,1-.43-2.48c.13-.67.24-1.36,1.15-1.38.75.45,1.82.2,2.4,1.05.28,3.94.1,7.89.1,11.83C93,41.2,93.2,44.47,92.64,47.7Z"/><path class="cls-9" d="M37.79,21.72a1.31,1.31,0,0,0,1.73.58c4.8-2.11,9.89-3.48,14.59-5.82a4.56,4.56,0,0,1,.78,2.17c-3.4,2.13-7.34,3-11,4.51-1.72.74-3.54,1.27-5.32,1.9A8.77,8.77,0,0,1,37.79,21.72Z"/><path class="cls-10" d="M43,37.32c5-1.56,9.61-3.91,14.6-5.34.84-.24,1.85-.54,1.72-1.8a9.42,9.42,0,0,1,1.08,3,3,3,0,0,1-1.76,1.27c-4.58,1.57-9.11,3.31-13.63,5.07a1.25,1.25,0,0,1-1.07,0Z"/><path class="cls-11" d="M43.94,39.6c4.17-2,8.57-3.35,12.87-5l3.59-1.4a4.89,4.89,0,0,1,.78,2.22c-5,2-10.21,3.5-15.13,5.71A1.52,1.52,0,0,1,44.48,41Z"/><path class="cls-1" d="M71,106c-1.15.22-1.37-.23-1.13-1.32.41-1.93.58-3.92,1-5.83.29-1.22-.16-1.35-1.17-1.34-.47,0-1.34.45-1.27-.72,0-.92.42-1.28,1.37-1.24,1.92.06,3.84,0,5.75,0,.5,0,1.2-.21,1.16.72,0,.67-.13,1.36-1,1.21-2-.35-2.31.84-2.47,2.43s-.65,3.27-.87,4.92C72.3,105.85,71.92,106.22,71,106Z"/><path class="cls-12" d="M41.2,61.07l-1.61-.36c-1-.68-1-1.65-.78-2.68a.22.22,0,0,1,.06-.28c.39-.61,0-1.35.31-2,0-2.72,1-5.29,1.2-8,.07-1,.84-.93,1.5-.77s1.6,0,1.39,1.22c-.65,3.62-1.22,7.26-2,10.86C41.16,59.8,41.35,60.42,41.2,61.07Z"/><path class="cls-13" d="M94.65,27.27a3.59,3.59,0,0,1,1.58,1.43c0,5,.34,10-.21,14.92a3.83,3.83,0,0,1-1.42,1.87c-1.07.38-1.1-.49-1.22-1.1a13.83,13.83,0,0,1-.11-3c0-4.06-.07-8.13,0-12.19C93.34,28.44,92.94,27.06,94.65,27.27Z"/><path class="cls-14" d="M96,43.62c-.58-.84-.27-1.8-.28-2.7,0-3.45,0-6.91,0-10.37,0-.64-.23-1.38.5-1.85,2.83,2.94,3,6.45,2,10.12A13.13,13.13,0,0,1,96,43.62Z"/><path class="cls-15" d="M94.65,27.27c-.89.11-.78.79-.78,1.4q0,7.69,0,15.38c0,.59-.19,1.31.73,1.44-.38,1-1.41,1.38-2,2.21a2,2,0,0,1-.26-1.41q0-9.24,0-18.48c0-.59-.18-1.26.46-1.69A3.4,3.4,0,0,1,94.65,27.27Z"/><path class="cls-16" d="M47.39,61.44H45.53c-2,.12-1.6-1.44-1.79-2.57.53-3.35,1.08-6.7,1.6-10.06.19-1.22.81-1.36,1.77-.77.25,2.56.07,5.14.09,7.71C47.22,57.66,47.26,59.55,47.39,61.44Z"/><path class="cls-17" d="M47,68.94h2.23a2.09,2.09,0,0,1,.55,1.52q.11,4,0,8.09a2.35,2.35,0,0,1-.55,1.52,5.43,5.43,0,0,1-3-.09c-1.05-.58-.83-1.49-.65-2.4a4.43,4.43,0,0,0,.89-2.39,34,34,0,0,1,.16-5.71A2,2,0,0,1,47,68.94Z"/><path class="cls-18" d="M55.22,60.37c-.53.55-1.22.31-1.85.37-.95.35-1.86.28-1.95-.89a56.13,56.13,0,0,1,.06-10.37,1.2,1.2,0,0,1,.38-.63,14,14,0,0,1,4.11.72,1.51,1.51,0,0,1-.71.51.79.79,0,0,0-.61.8c-.06,2.82-.08,5.63,0,8.45a1.29,1.29,0,0,0,.44.78Z"/><path class="cls-19" d="M90.12,37.63c.81,3.28.2,6.62.41,9.93,0,.7-.29,1.5.44,2.06-.73,1.52-2.56,2.05-3.3,3.63.28-2,1.36-3.71,2.1-5.51-.6-.51-1.45.11-2-.47a5.91,5.91,0,0,1-.2-4Q88.84,40.44,90.12,37.63Z"/><path class="cls-20" d="M47.39,61.44a1.9,1.9,0,0,1-.75-1.39c0-3.68,0-7.37,0-11a1,1,0,0,1,.45-1,4.74,4.74,0,0,1,2.23.38c-.54,3.53-.16,7.09-.27,10.63,0,1,.75,1.46,1.33,2.06C49.45,61.79,48.39,61.36,47.39,61.44Z"/><path class="cls-21" d="M49.26,80.07V68.94l2.59-.36c.43,1.68.12,3.39.17,5.09a46.43,46.43,0,0,0,.26,5.66A4.87,4.87,0,0,1,49.26,80.07Z"/><path class="cls-15" d="M55.21,49.6l.76,0a5.14,5.14,0,0,1,2.63.36c-1.06,2.21-.44,4.57-.6,6.86-.08,1.08.22,2.22-.56,3.17a3.82,3.82,0,0,1-2.22.41l0,0a2.31,2.31,0,0,1-.54-1.71c0-2.44,0-4.89,0-7.33A2.33,2.33,0,0,1,55.21,49.6Z"/><path class="cls-14" d="M61.54,58.49a2.35,2.35,0,0,1-1.85.78c-.86-.08-.88-.78-.92-1.36a48.74,48.74,0,0,1,0-6.28c.06-1.07.5-1.8,1.78-1.35,1.26.27,2.73.08,1.83,2.38C61.69,54.44,61.79,56.54,61.54,58.49Z"/><path class="cls-22" d="M52.28,79.33c-.33-.16-.71-.38-.71-.77,0-3.33-.49-6.67.28-10l1.51,0c1,.56.87,1.54.89,2.45a71.85,71.85,0,0,0,.22,7.19A3.67,3.67,0,0,1,52.28,79.33Z"/><path class="cls-23" d="M50.4,61.12c-1.38.17-2-.28-1.92-1.83.12-3.09,0-6.19,0-9.29,0-.65-.17-1.43.82-1.57a3.2,3.2,0,0,1,1.92.34c-.59,3.16-.19,6.35-.31,9.53,0,1,.12,2-.56,2.82Z"/><path class="cls-6" d="M75.39,30.31a2.59,2.59,0,0,1-2.69-2.64A2.56,2.56,0,0,1,75.39,25a2.61,2.61,0,0,1,2.71,2.64A2.64,2.64,0,0,1,75.39,30.31Z"/><path class="cls-24" d="M56.69,68.15l3.39-1.09c-.49,2.81-.52,5.74-2.34,8.16-.82.35-1.21-.26-1.31-.82C56,72.31,55.71,70.19,56.69,68.15Z"/><path class="cls-25" d="M60.55,50.28c-.46.1-1.19,0-1.18.61.06,2.8-.53,5.62.32,8.38a6.84,6.84,0,0,1-2.25.69c0-2.88,0-5.75,0-8.63,0-.87.16-1.46,1.18-1.4A3.55,3.55,0,0,1,60.55,50.28Z"/><path class="cls-26" d="M50.39,61.12c0-3.55,0-7.1,0-10.65,0-.7-.19-1.54.88-1.7l.6.08c0,3.43,0,6.86,0,10.29,0,1.15.28,1.77,1.53,1.6C52.45,61.41,51.38,61,50.39,61.12Z"/><path class="cls-27" d="M72.58,35.43a2.26,2.26,0,0,1,2.61,2.26,2.38,2.38,0,0,1-2.47,2.44,2.29,2.29,0,0,1-2.27-2.43A2.11,2.11,0,0,1,72.58,35.43Z"/><path class="cls-28" d="M34.41,26.91c.58-.37,1.1-.89,1.88-.75,1.33,1.22,1.18,3,1.83,4.53a3.86,3.86,0,0,0,.41,1c-.15,1.27-.89,1.57-2,1.25A35.47,35.47,0,0,1,34.41,26.91Z"/><path class="cls-29" d="M37,68.54a4.77,4.77,0,0,1,3.27.71,1,1,0,0,1,.33,1.17,6.24,6.24,0,0,0-.49,3c-.05.84.06,1.77-.93,2.22A9.61,9.61,0,0,1,37,68.54Z"/><path class="cls-30" d="M54.47,78.2c-1-.45-.7-1.33-.75-2.1-.19-2.51.4-5.06-.36-7.54l1.85-.36c1,1.66.37,3.5.54,5.25a6.35,6.35,0,0,1-.06,2.22c-.27,1,.59.71.91,1Z"/><path class="cls-31" d="M39.17,75.69c.66-1.06.37-2.24.42-3.38,0-.72-.12-1.49.7-1.92.87,1.78,2.16,3.33,2.8,5.22-.59,1-.12,2.11-.56,3.1C41.22,77.92,39.8,77.24,39.17,75.69Z"/><path class="cls-32" d="M56.6,76.7c-1,.26-1.49,0-1.43-1.2.12-2.43,0-4.87,0-7.3l1.48,0c0,1.72,0,3.44,0,5.16,0,.8,0,1.64,1,1.91A3.21,3.21,0,0,1,56.6,76.7Z"/><path class="cls-33" d="M41.51,39.8c.45,1.13.92,2.25,1.35,3.39.28.75.85,1.48-.56,2s-1.71,0-2-1.17-.69-2.21-1-3.31C40,40.4,40.77,40.14,41.51,39.8Z"/><path class="cls-34" d="M41.51,39.8c-.53.87-1.17,1.45-2.26.87a19.82,19.82,0,0,1-1.46-4.1A3.19,3.19,0,0,1,40,35.71C40.9,36.93,40.62,38.58,41.51,39.8Z"/><path class="cls-35" d="M42.53,78.71c-.26-1.08-.85-2.19.33-3.11,1.17.38,2.37.72,3,1.88a4.49,4.49,0,0,0,.36,2.5A8,8,0,0,1,42.53,78.71Z"/><path class="cls-36" d="M40,35.71a3,3,0,0,1-2.23.86,14,14,0,0,1-1.28-3.67,3.35,3.35,0,0,0,2-1.25C39.43,32.85,39.13,34.5,40,35.71Z"/><path class="cls-37" d="M78,32.1c1.1.08,1.75.57,1.76,1.6a1.64,1.64,0,1,1-3.28,0A1.52,1.52,0,0,1,78,32.1Z"/><path class="cls-38" d="M90.44,25.07c-1.31,1.09-.35,2.6-.72,3.86l-2.54-2.44c-.35-.82-1-1.71.41-2.2A4.34,4.34,0,0,1,90.44,25.07Z"/><path class="cls-39" d="M87.53,43.23a15.46,15.46,0,0,1,.4,4.07c-.67.54-1.53,0-2.23.36h-.38c-.56-.61-.35-1.22,0-1.84Z"/><path class="cls-37" d="M68.07,36.27c-.18.87-.58,1.45-1.48,1.44a1.25,1.25,0,0,1-1.38-1.38,1.32,1.32,0,0,1,1.48-1.49A1.51,1.51,0,0,1,68.07,36.27Z"/><path class="cls-40" d="M87.59,24.29c-.73.62-.29,1.46-.41,2.2l-3.35-1.84a.87.87,0,0,1-.07-1.13.83.83,0,0,1,.87,0C85.49,24.26,86.75,23.44,87.59,24.29Z"/><path class="cls-41" d="M63.17,43c-1-.06-1.35-.54-1.35-1.33A1.2,1.2,0,0,1,63,40.3a1.27,1.27,0,0,1,1.36,1.42A1.24,1.24,0,0,1,63.17,43Z"/><path class="cls-42" d="M79,42.57a1.14,1.14,0,0,1-1.14-.69,4.67,4.67,0,0,1,0-3.54A1.23,1.23,0,0,1,79,37.62,5.23,5.23,0,0,1,79,42.57Z"/><path class="cls-43" d="M79,42.57v-5a1.22,1.22,0,0,1,1.56,0l-.06.24a8.48,8.48,0,0,0,0,4.47l.06.24A1.1,1.1,0,0,1,79,42.57Z"/><path class="cls-44" d="M81.31,38c1.36,1.94,1.41,2.19,0,4.17A2.63,2.63,0,0,1,81.31,38Z"/><path class="cls-45" d="M69.89,44.11A1.18,1.18,0,0,1,71,45.31a1,1,0,0,1-1,1.09,1,1,0,0,1-1.22-1A1.18,1.18,0,0,1,69.89,44.11Z"/><path class="cls-46" d="M65.08,46.33a1,1,0,0,1,.09-2.08c.7,0,.86.44.86,1.09S65.79,46.37,65.08,46.33Z"/><path class="cls-47" d="M84.63,23.54l-.78.08c-.94.7-2,.13-3,.28l-2.8-.4C80.28,23.36,82.48,22.85,84.63,23.54Z"/><path class="cls-48" d="M85.3,45.82l0,1.84H82.77Z"/><path class="cls-49" d="M74.83,43.15c0,.7-.4,1-.91,1.05a.79.79,0,0,1-.85-.78.8.8,0,0,1,.88-.91A.88.88,0,0,1,74.83,43.15Z"/><path class="cls-50" d="M80.87,23.9c.94-.65,2-.22,3-.28,0,.34,0,.69,0,1A6.23,6.23,0,0,1,80.87,23.9Z"/><path class="cls-51" d="M67.48,39.59c.53.07,1.27-.4,1.49.5s-.55,1-1.12,1.25A1.09,1.09,0,0,1,67.48,39.59Z"/><path class="cls-52" d="M77.84,38.34v3.54A2.27,2.27,0,0,1,77.84,38.34Z"/><path class="cls-53" d="M59.61,44.88a.86.86,0,0,1-.75.88c-.5.09-.79-.3-.85-.73a.73.73,0,0,1,.71-.86A.84.84,0,0,1,59.61,44.88Z"/><path class="cls-54" d="M81.31,38a4.38,4.38,0,0,0,0,4.17c-.14.38-.45.39-.78.38l-.07-.11a7.08,7.08,0,0,1,0-4.72l.08-.12A.8.8,0,0,1,81.31,38Z"/><path class="cls-55" d="M43.74,58.88c.42,1,.19,2.41,1.79,2.57l-2.3,0Z"/><path class="cls-56" d="M38.81,58a7.39,7.39,0,0,0,.78,2.68,1.17,1.17,0,0,1-1.19-.42C38.56,59.54,38.27,58.71,38.81,58Z"/><path class="cls-48" d="M85.7,47.66c.67-.58,1.5-.17,2.23-.36.61.17,1.36-.27,1.84.44Z"/><path class="cls-57" d="M67.48,39.59a2.56,2.56,0,0,0,.37,1.75C66.55,40.65,66.51,40.44,67.48,39.59Z"/><path class="cls-58" d="M29.21,43.68l-.43-.44A2.53,2.53,0,0,1,30.24,42,3.48,3.48,0,0,1,29.21,43.68Z"/><path class="cls-56" d="M39.18,55.78c0,.67.29,1.39-.31,2A3.12,3.12,0,0,1,39.18,55.78Z"/><path class="cls-59" d="M45.91,77.48c-1-.65-2.29-.84-3-1.88-.88-1.73-2.44-3.11-2.57-5.21l0-1.14a1.74,1.74,0,0,1,2.24.06c1,1.23,1.11,2.92,2.17,4.12.54,1,1.93,1.12,2.32,2.27C47.18,76.62,46.62,77.1,45.91,77.48Z"/><path class="cls-60" d="M44.43,73.73a7.47,7.47,0,0,1-1.93-4.42c1.45-.82,3-.23,4.53-.37v.34a2.41,2.41,0,0,0-1.77,2.77A1.46,1.46,0,0,1,44.43,73.73Z"/><path class="cls-61" d="M38.39,97.65c.75.08,1.67,0,1.63,1.18s-1,1.52-2,1.61c-.72.07-1.21-.1-1.06-1S36.91,97.47,38.39,97.65Z"/><path class="cls-62" d="M80.91,100.45c-.53,0-1.32.14-1.1-.76s-.11-2.18,1.49-2c.8.07,1.77,0,1.7,1.2S82,100.41,80.91,100.45Z"/><path class="cls-63" d="M62.6,98.77c.15.78.32,1.5.4,2.22,0,.44.34,1.07-.34,1.24s-1.31.33-1.74-.13.15-.91.39-1.3C61.72,100.14,61.83,99.29,62.6,98.77Z"/><path class="cls-63" d="M28.35,98.47c.2,1.11.37,1.86.46,2.62.06.44.3,1.07-.45,1.17-.53.06-1.23.16-1.59-.12s.09-.87.29-1.28C27.41,100.16,27.8,99.48,28.35,98.47Z"/><path class="cls-63" d="M91.55,98.45c.21,1.16.37,1.88.45,2.6,0,.44.31,1.07-.41,1.2a2.45,2.45,0,0,1-1.6-.09c-.52-.35.06-.87.25-1.27C90.58,100.19,91,99.51,91.55,98.45Z"/><path class="cls-64" d="M7,100.35c-.85.09-1-.38-.89-1.14s.12-1.79,1.42-1.65c.81.09,1.56.31,1.47,1.27C8.91,99.94,8.09,100.35,7,100.35Z"/><path class="cls-65" d="M44.43,73.73a3.33,3.33,0,0,0,.35-2.31c-.26-1.82.54-2.43,2.25-2.14q0,3.21,0,6.42C46.16,75,44.92,74.85,44.43,73.73Z"/><path class="cls-30" d="M55.21,49.6c0,3.58,0,7.16,0,10.74-1,.11-1.12-.44-1.12-1.24q0-4.14,0-8.28C54.07,50,54.28,49.49,55.21,49.6Z"/><path class="cls-66" d="M80.45,37.74v4.72A4,4,0,0,1,80.45,37.74Z"/></svg>