<svg id="Layer_1" data-name="Layer 1" xmlns="http://www.w3.org/2000/svg" viewBox="0 0 120 120"><defs><style>.cls-1{fill:#090909;}.cls-2{fill:#070908;}.cls-3{fill:#0a0b0b;}.cls-4{fill:#0b0b0b;}.cls-5{fill:#0d0e0e;}.cls-6{fill:#131313;}.cls-7{fill:#151515;}.cls-8{fill:#2d2d2c;}.cls-9{fill:#3bb2e6;}.cls-10{fill:#3098c8;}.cls-11{fill:#0893c7;}.cls-12{fill:#1ca3bc;}.cls-13{fill:#f0f9fb;}.cls-14{fill:#377eb7;}.cls-15{fill:#5780b5;}.cls-16{fill:#b82a28;}.cls-17{fill:#ae3830;}.cls-18{fill:#2b7cb5;}.cls-19{fill:#d6554f;}.cls-20{fill:#48b3d6;}.cls-21{fill:#cd3934;}.cls-22{fill:#e5e5e4;}.cls-23{fill:#1589c2;}.cls-24{fill:#a22122;}.cls-25{fill:#44c5e2;}.cls-26{fill:#3a629f;}.cls-27{fill:#95d1e5;}.cls-28{fill:#2886be;}.cls-29{fill:#407cb5;}.cls-30{fill:#9d2021;}.cls-31{fill:#1780bb;}.cls-32{fill:#6cb0d5;}.cls-33{fill:#b65b51;}.cls-34{fill:#f0e8e7;}.cls-35{fill:#e3e7ec;}.cls-36{fill:#0b76b4;}.cls-37{fill:#4584ba;}.cls-38{fill:#9d2022;}.cls-39{fill:#4891a6;}.cls-40{fill:#a42023;}.cls-41{fill:#1bbedf;}.cls-42{fill:#e6ebf0;}.cls-43{fill:#2285bd;}.cls-44{fill:#2c5494;}.cls-45{fill:#3d71ad;}.cls-46{fill:#e32328;}.cls-47{fill:#c9443c;}.cls-48{fill:#af3d3c;}.cls-49{fill:#f1ebe9;}.cls-50{fill:#bcbcbb;}.cls-51{fill:#167ab7;}.cls-52{fill:#1075b3;}.cls-53{fill:#2460a1;}.cls-54{fill:#d3d3d3;}.cls-55{fill:#1184be;}.cls-56{fill:#348b9b;}.cls-57{fill:#b94b4b;}.cls-58{fill:#e73330;}.cls-59{fill:#74959b;}.cls-60{fill:#125ea2;}.cls-61{fill:#d23935;}.cls-62{fill:#ef888a;}.cls-63{fill:#5491c1;}.cls-64{fill:#14afd3;}.cls-65{fill:#d54943;}.cls-66{fill:#2575b2;}.cls-67{fill:#184c8f;}.cls-68{fill:#d9bbb5;}.cls-69{fill:#b8b8b8;}.cls-70{fill:#307ab5;}.cls-71{fill:#cc3f3c;}.cls-72{fill:#969696;}.cls-73{fill:#106dad;}.cls-74{fill:#7f7f7f;}.cls-75{fill:#af3832;}.cls-76{fill:#167ebb;}.cls-77{fill:#116aab;}.cls-78{fill:#66a6ad;}.cls-79{fill:#2ca9d3;}.cls-80{fill:#0a79b7;}.cls-81{fill:#216caa;}.cls-82{fill:#1f70af;}.cls-83{fill:#b92427;}.cls-84{fill:#e7eff1;}.cls-85{fill:#cbcbca;}.cls-86{fill:#76acb2;}.cls-87{fill:#34619e;}.cls-88{fill:#b73935;}.cls-89{fill:#1c4f91;}.cls-90{fill:#e6e7e7;}.cls-91{fill:#1b569a;}.cls-92{fill:#dcdcdc;}.cls-93{fill:#b5b5b5;}.cls-94{fill:#c3c3c3;}.cls-95{fill:#979797;}.cls-96{fill:#949292;}.cls-97{fill:#6d6c6d;}.cls-98{fill:#3f80b8;}.cls-99{fill:#b83a35;}.cls-100{fill:#bdbdbd;}.cls-101{fill:#0c8fc5;}.cls-102{fill:#9bb0b2;}.cls-103{fill:#ea2928;}.cls-104{fill:#4ba5b4;}.cls-105{fill:#c8c6c4;}.cls-106{fill:#d8d9d8;}.cls-107{fill:#818080;}.cls-108{fill:#bbb;}.cls-109{fill:#eb2628;}.cls-110{fill:#b1b5b5;}.cls-111{fill:#6dbeca;}.cls-112{fill:#5bc1e0;}.cls-113{fill:#e0e0df;}.cls-114{fill:#a12022;}.cls-115{fill:#d72327;}.cls-116{fill:#e13e38;}.cls-117{fill:#c2c1c0;}.cls-118{fill:#529eb2;}.cls-119{fill:#c42528;}.cls-120{fill:#9eaeb0;}.cls-121{fill:#6ab9cc;}.cls-122{fill:#137eba;}.cls-123{fill:#b22325;}.cls-124{fill:#a51e23;}.cls-125{fill:#b92827;}.cls-126{fill:#b5b6b6;}.cls-127{fill:#e4e4e4;}.cls-128{fill:#adacac;}.cls-129{fill:#cbcbcb;}.cls-130{fill:#9a9a9a;}.cls-131{fill:#848484;}.cls-132{fill:#1782bd;}.cls-133{fill:#577b7e;}.cls-134{fill:#3f96a3;}.cls-135{fill:#dfe4e9;}.cls-136{fill:#e0ebec;}.cls-137{fill:#aa3c38;}.cls-138{fill:#838383;}.cls-139{fill:#154f91;}.cls-140{fill:#175497;}.cls-141{fill:#768382;}.cls-142{fill:#a8a6a6;}.cls-143{fill:#0f78b6;}.cls-144{fill:#faf9f9;}.cls-145{fill:#f6e9e9;}.cls-146{fill:#126bad;}.cls-147{fill:#d09796;}.cls-148{fill:#a61e23;}.cls-149{fill:#b02225;}.cls-150{fill:#3c649d;}.cls-151{fill:#a91f24;}.cls-152{fill:#1467a8;}.cls-153{fill:#757575;}.cls-154{fill:#0f7fba;}.cls-155{fill:#9c9c9d;}.cls-156{fill:#d9dad8;}.cls-157{fill:#c0bebe;}.cls-158{fill:#dbdada;}.cls-159{fill:#838385;}.cls-160{fill:#9e9e9e;}.cls-161{fill:#989798;}.cls-162{fill:#9b9c9d;}.cls-163{fill:#959797;}.cls-164{fill:#898989;}.cls-165{fill:#bcbcbc;}.cls-166{fill:#747475;}.cls-167{fill:#9f9f9f;}.cls-168{fill:#7e7d7d;}.cls-169{fill:#8e8d8d;}.cls-170{fill:#9b9a9a;}.cls-171{fill:#d7d6d5;}.cls-172{fill:#828282;}.cls-173{fill:#7c7b7b;}</style></defs><path class="cls-1" d="M50,71.6c-.13.16-.24.44-.37.45a6.31,6.31,0,0,1-6.5-4.78,6,6,0,0,1,11.75-2.41,6.94,6.94,0,0,1,.12.9v1.85c-.08,1.31-.2,2.61-.3,3.91h-4l-.12-3.71a5.1,5.1,0,0,0,0-2.06,2.22,2.22,0,0,0-1.61-1,1.93,1.93,0,0,0-1.32,1,1.29,1.29,0,0,0,.55,1.74l.09,0a6.06,6.06,0,0,0,1.74.31Z"/><path class="cls-2" d="M29.12,56.58h2.79c3.41,0,3.41,0,3.11,3.4-.07.84-.48,1-1.19,1-2.49.17-2.49.2-2.49,2.76v6.8c0,.75-.21,1.18-1,1.11H29.09c-2.32,0-2.18.23-2.18-2.13V62.71c0-1.61,0-1.63-1.63-1.73-.73,0-1.67.12-1.84-.73a12.23,12.23,0,0,1,0-3.31c0-.15.69-.33,1.06-.34C26,56.56,27.56,56.58,29.12,56.58Z"/><path class="cls-3" d="M74.35,71.65H70.61c-1.24,0-1.48-.18-.91-1.35.67-1.37,1.43-2.71,2.08-4.09.38-.8,0-1.28-.91-1.37H69.63c-.65,0-.89-.36-.88-1V61.36a.8.8,0,0,1,.65-.92.88.88,0,0,1,.28,0h8.1c.94,0,1.3.54.91,1.37-.65,1.38-1.4,2.72-2.08,4.09-.56,1.13-.49,1.24.56,1.35.89.09,2.29,0,2.55.42.45.8.17,2,.21,3,0,.64-.29.93-.91.93Z"/><path class="cls-4" d="M67.48,68.09v1.55c0,2.15,0,2-2,2-2.64,0-2.32.19-2.32-2.31v-3.4a3.45,3.45,0,0,0-.59-1.18c-.24.35-.68.69-.7,1-.08,1.44,0,2.89,0,4.33s0,1.46-1.58,1.51H58.74c-1,.1-1.23-.4-1.21-1.27V65.06a5,5,0,0,1,10-.1c.07,1,0,2.06,0,3.09Z"/><path class="cls-5" d="M113,66.63c.23.4.37,1,.71,1.16a4.81,4.81,0,0,0,1.52,0c.52,0,2.82,2.09,2.62,2.25a6.32,6.32,0,0,1-2.27,1.44c-3.28.87-6.79-1.65-7.37-5.16-.47-2.83,2.37-6.13,5.6-6.52A5.8,5.8,0,0,1,120,65.19s0,.09,0,.13c0,.88-.23,1.33-1.22,1.28-1.66-.07-3.32,0-5,0-.24-1.07-.4-2.08,1.27-1.91.12,0,.42-.44.4-.64a.82.82,0,0,0-.56-.51c-.67-.08-1.49-.33-1.82.57S111.75,65.74,113,66.63Z"/><path class="cls-6" d="M86.32,61.58V59.72c.08-1,.21-2,.31-3,1.35,0,2.69-.13,4,0,.2,0,.5.79.51,1.22v7.15A4.08,4.08,0,0,0,91.79,67c.27.43,1.27.16,1.22,1.1s0,2.08-.06,3.11c0,.16-.46.37-.73.41-3,.44-5-.91-5.51-3.94-.35-2-.45-4-.67-6.08Z"/><path class="cls-4" d="M101.14,65.7v-4A5.82,5.82,0,0,1,106,56.16a1.33,1.33,0,0,1,1,.46,3.43,3.43,0,0,1-.57,4c-1.22,1.06-1.25,1.09.32,2.49.85.76.53,1.69.59,2.58s.13,1.55-1.14,1.67c-1.46.15-1.08,1.46-1.17,2.44,0,.64.42,1.64-.59,1.8a11.19,11.19,0,0,1-3-.16c-.13,0-.26-.51-.27-.79V65.71Z"/><path class="cls-5" d="M36.29,67.69c0-.93-.07-1.87,0-2.79a4.82,4.82,0,0,1,5.05-4.56h.12c.8.06,1.09.36,1.06,1.13s0,1.45,0,2.17c0,.36-.2,1-.39,1-1.88.31-1.43,1.73-1.48,2.9v1.86c0,2.29.29,2.23-2.11,2.22s-2.25.19-2.24-2.1V67.69Z"/><path class="cls-7" d="M94.31,66V63.51c.07-3.54-.62-3,3.11-3.08.91,0,1.26.28,1.25,1.22q-.06,4.47,0,8.94c0,.83-.39,1-1.11,1.07-3.25.26-3.25.28-3.25-2.91Z"/><path class="cls-8" d="M82.69,63.47h1.24c.85,0,1.68-.09,1.6,1.21-.09,1.49-.32,1.83-1.75,1.9H81.3c-.82,0-1.3-.19-1.3-1.16,0-1.83,0-1.9,1.79-2Z"/><path class="cls-9" d="M97.42,59.77H95.6l-.6-.59c-.28-.79-1.1-1.46-.39-2.45s1.91-1.61,2.78-1.07c1.4.87,1.56,1.62.74,3.5Z"/><path class="cls-10" d="M7.54,75.33H8.8c-.08.5.21,1.17-.62,1.3L7.54,76C7.53,75.74,7.53,75.54,7.54,75.33Z"/><path class="cls-11" d="M7.54,76l.64.66L8,77.09l-.43-.46Z"/><path class="cls-12" d="M7.54,76v.65c-.82-.13-.6-.77-.63-1.28h.65A3.35,3.35,0,0,0,7.54,76Z"/><path class="cls-13" d="M95,59.18l.65.59Z"/><path class="cls-13" d="M97.42,59.77l.66-.61Z"/><path class="cls-14" d="M8.78,67.24a3,3,0,0,0,0-.6c.92-.67.92-1.22,0-1.9.34-1.14,1.26-.42,1.89-.58h0C11.71,66.46,11.35,67.09,8.78,67.24Z"/><path class="cls-15" d="M10.07,55.45l.61-1.22h1.86v1.23a3,3,0,0,0,0,.6c-.95-.08-1.38.34-1.29,1.29-.2-.17-.41-.33-.59-.51s-.43-.5-.65-.76A3.74,3.74,0,0,1,10.07,55.45Z"/><path class="cls-16" d="M20,53.58c1.58.45,1.75,1.13.64,2.57L19.38,56h0l-.58-.7a1.85,1.85,0,0,1,0-.47l.57-.69Z"/><path class="cls-17" d="M17.52,44.8l1.31.5v1.51c-.71,1.53-1.26-.17-1.9-.09C17,46,16.58,45.21,17.52,44.8Z"/><path class="cls-18" d="M10,56c.22.26.42.52.65.76a6.06,6.06,0,0,0,.59.51v.63c-.49,0-1.14-.22-1.25.61v1.23H9.38V59.1l-.68-.65.73-1.21.59-.61v-.54Z"/><path class="cls-19" d="M21.89,41.75l-1.8.64h-.72l-.68-.09.78-.54c1.5.19,1.13-.9,1.18-1.7C21.72,40.15,21.93,40.86,21.89,41.75Z"/><path class="cls-20" d="M9.42,59.8H10v.64c0,.5-.19,1.13.62,1.25v1.23l-.63.62H9.4c-.24-.84.67-2-.66-2.54a2.44,2.44,0,0,0,0-.54Z"/><path class="cls-21" d="M20.67,56.62c.9,1.1.89,1.6,0,2.63L20,59.14V56.73Z"/><path class="cls-22" d="M16.25,51.72l1.26-.63v1.25l.61.67v1.2h-.63l-.61-.62L16.27,53Z"/><path class="cls-23" d="M26.9,45.49a9.77,9.77,0,0,1,1.71,0c.26,0,.47.4.7.62-.49,0-1.1-.2-1.17.61l-.62.62h0c-.85-.11-.54-.78-.61-1.26C26.9,45.89,26.9,45.69,26.9,45.49Z"/><path class="cls-24" d="M17.53,48.09h1.21a5.42,5.42,0,0,1,0,.57V49.9H17.51L17,49.2v-.61Z"/><path class="cls-25" d="M23.16,49.22c.62-.23,1.59.55,1.88-.64h.6v1.25H25c-.51,0-1.17-.23-1.28.62h-.6v-.61Z"/><path class="cls-26" d="M8.75,64.74c.92.68.92,1.23,0,1.9a1.78,1.78,0,0,1-.56-.06L8.12,65.4Z"/><path class="cls-27" d="M20,52.94l-.62.6h-.62V51.09h.6L20,52.32Z"/><path class="cls-28" d="M11.28,69.73a1.32,1.32,0,0,0,0,1.86H9.38V71l.6-.63.64-.62a1.94,1.94,0,0,0,.59,0Z"/><path class="cls-29" d="M8.74,61c1.33.56.42,1.7.66,2.54-.5,0-1.16.23-1.21-.64l.6-.48-.64-.75Z"/><path class="cls-30" d="M19.38,61.58l-1.23.06h0L18,60.36a2.13,2.13,0,0,0,.1-.57h0l1.22.07Z"/><path class="cls-31" d="M10.66,69.72l-.64.62H9.44v-.63l.63-1.86c.51,0,1.14-.21,1.25.62l-.64.63A3.24,3.24,0,0,0,10.66,69.72Z"/><path class="cls-30" d="M18.69,42.31l.68.09v1.77l-.3.07-.3-.08-.55-.56-.08-1.23A4.87,4.87,0,0,1,18.69,42.31Z"/><path class="cls-32" d="M26.89,46.09c.07.48-.24,1.15.61,1.26V48a2.71,2.71,0,0,1,0,.57h-.62L26.23,48l.08-1.87h.58Z"/><path class="cls-33" d="M20.65,40.09c0,.8.32,1.89-1.18,1.7C19.36,40.86,19.52,40.09,20.65,40.09Z"/><path class="cls-34" d="M15.07,65.35H13.83l-.67-.66a2.91,2.91,0,0,0-.16-.5l1.39-.66L15,64.8C15,65,15.05,65.17,15.07,65.35Z"/><path class="cls-35" d="M19.38,59.87l-1.22-.07.63-1.32,1.23.66.62.11L20,59.8A1.32,1.32,0,0,0,19.38,59.87Z"/><path class="cls-36" d="M12.5,53c.41-.83.84-1,1.3,0v1.14l-.64.09h-.63l.07-.64.5-.28-.45-.34Z"/><path class="cls-37" d="M18.77,51.09v2.44h-.61V52.29l-.63-.64V51l.61-.06Z"/><path class="cls-38" d="M.59,71c-.79-.2-.6-.75-.46-1.28l.57-.52-.06-.12.63.14.05,1.83H.59Z"/><path class="cls-39" d="M16.25,51.72v1.21a2.08,2.08,0,0,0,0,.61H15v-.63l.58-.61a2.91,2.91,0,0,0,0-.59A1.89,1.89,0,0,1,16.25,51.72Z"/><path class="cls-35" d="M12.61,53.55l-.07.64H10.68l1.82-1.28h.16Z"/><path class="cls-40" d="M17.49,63.39l-.29.11-.28-.14-.51-.5-.2-.61.15,0,.53-.54.3-.08h.3Z"/><path class="cls-41" d="M10.05,67.86l-.63,1.86c-.86-.09-.59-.73-.6-1.23l.58-.63Z"/><path class="cls-42" d="M23.13,49.85v.61a3.11,3.11,0,0,0,0,.61H21.89a5.61,5.61,0,0,0,0-.58l.65-.65Z"/><path class="cls-43" d="M23.76,50.45c.11-.85.77-.57,1.28-.62-.06.5.23,1.17-.65,1.24l-.6-.62Z"/><path class="cls-44" d="M8.71,58.49l.68.65-1.15.61C8.13,59.23,8,58.69,8.71,58.49Z"/><path class="cls-45" d="M8.24,59.75l1.15-.61v.66l-.65.63Z"/><path class="cls-46" d="M19.38,59.87A1.32,1.32,0,0,1,20,59.8c-.15.61.63,1.52-.59,1.78Z"/><path class="cls-47" d="M17.49,63.39V61.71l.69-.07h0C18,62.25,18.72,63.18,17.49,63.39Z"/><path class="cls-48" d="M4.43,67.73l-.64.12a2.35,2.35,0,0,1,0-.53l0-.7.67-.71v.25a1.77,1.77,0,0,1,0,.46,2.15,2.15,0,0,0,0,.62A2.64,2.64,0,0,0,4.43,67.73Z"/><path class="cls-49" d="M1.27,69.18l-.63-.09,1.22-1.24v1.34l.08-.1Z"/><path class="cls-50" d="M25,44.84l-1.26-1.23c.49,0,1.15-.23,1.25.62C25,44.43,25,44.64,25,44.84Z"/><path class="cls-51" d="M28.14,46.72c.07-.81.68-.59,1.17-.61.09.53.28,1.09-.5,1.28l-.06-.06Z"/><path class="cls-52" d="M10.66,69.09l.64-.63c.82.54.82.72,0,1.25h0Z"/><path class="cls-53" d="M10,71.6h.61l.56.61-.55.71-.62-.1Z"/><path class="cls-54" d="M2.54,72.22c.49,0,1.16-.23,1.25.62v.62Z"/><path class="cls-55" d="M8.78,73.47a3.32,3.32,0,0,1,.63,0v1.81l-.63.06V73.47Z"/><path class="cls-56" d="M13.79,54.09v-1.2h.64v1.28H13.8Z"/><path class="cls-57" d="M12.56,65.89c-.91,0-.57-.69-.66-1.14.2,0,.41,0,.61,0v.66A2.61,2.61,0,0,0,12.56,65.89Z"/><path class="cls-58" d="M13.16,64.72l.67.66-.69.5a4.34,4.34,0,0,0,0-.51Z"/><path class="cls-59" d="M26.89,46.09h-.58a2.08,2.08,0,0,1,0-.61v-.56l.64.58A2.88,2.88,0,0,0,26.89,46.09Z"/><path class="cls-60" d="M15.62,52.33l-.58.61H14.4l.55-.63Z"/><path class="cls-61" d="M6.36,66a.86.86,0,0,1,0-.59h1.1a1.32,1.32,0,0,1,0,.56,5.42,5.42,0,0,0-.57,0A4.58,4.58,0,0,0,6.36,66Z"/><path class="cls-62" d="M7.48,66a1.32,1.32,0,0,0,0-.56h.64l.07,1.18-.64.05Z"/><path class="cls-63" d="M21.91,51.09h.6c-.06.47.26,1.15-.63,1.19a5.42,5.42,0,0,0,0-.57v-.6Z"/><path class="cls-49" d="M3.76,66.62l.05.7H3.13a1,1,0,0,0-.6-.13v0Z"/><path class="cls-64" d="M21.28,52.29h-.63V51.05h.65v.62A4.28,4.28,0,0,0,21.28,52.29Z"/><path class="cls-65" d="M17.51,49.84h1.26v.56a5.4,5.4,0,0,0-.58.08Z"/><path class="cls-66" d="M26.89,48.58h.62c0,.5.24,1.15-.62,1.23V48.59Z"/><path class="cls-67" d="M8.15,61.64l.64.75-.6.48Z"/><path class="cls-68" d="M20.67,56.62l-.65.11a1.88,1.88,0,0,0-.58,0V56l1.26.13A1.71,1.71,0,0,0,20.67,56.62Z"/><path class="cls-69" d="M10.64,64.16v-.67h.63l.63.62H10.63Z"/><path class="cls-70" d="M27.52,48v-.67h1.25l.06.06Z"/><path class="cls-71" d="M16.24,63.48c0,.5.27,1.14-.53,1.33l-.11-.1V63.58h.68Z"/><path class="cls-72" d="M5.66,74.09l.62.61v.59l-.65-.59A4,4,0,0,0,5.66,74.09Z"/><path class="cls-73" d="M9.41,74.7v-.61h.67a5.14,5.14,0,0,1,.55.06l-.56.6Z"/><path class="cls-74" d="M26.26,44.91v.56l-.64-.63Z"/><path class="cls-75" d="M17.53,48.09l-.53.5a1.06,1.06,0,0,1,0-.5A1,1,0,0,1,17.53,48.09Z"/><path class="cls-75" d="M17,49.2l.55.62Z"/><path class="cls-76" d="M25.63,49.84v-.63h.62v.64Z"/><path class="cls-77" d="M26.26,49.85v-.64h.62v.61Z"/><path class="cls-27" d="M18.15,50.47a5.4,5.4,0,0,1,.58-.08l.07.66h0L18.15,51A4.34,4.34,0,0,0,18.15,50.47Z"/><path class="cls-78" d="M10,63.5l.63-.62h0v.61H10Z"/><path class="cls-47" d="M16.41,62.86l.51.5-.68.12.06.06Z"/><path class="cls-79" d="M23.15,51.09a3.11,3.11,0,0,1,0-.61h.63v.63h-.31Z"/><path class="cls-80" d="M23.77,51.09v-.63l.6.62Z"/><path class="cls-81" d="M15.62,52.33H15l.65-.56A3.46,3.46,0,0,1,15.62,52.33Z"/><path class="cls-34" d="M12.51,64.71H11.9V64.1h0l.72.05A2.14,2.14,0,0,0,12.51,64.71Z"/><path class="cls-82" d="M21.28,52.29a2.91,2.91,0,0,1,0-.59h.6a5.42,5.42,0,0,1,0,.57l-.3.06Z"/><path class="cls-68" d="M20,53.58l-.66.59,0-.08a1.51,1.51,0,0,0,.07-.56h0Z"/><path class="cls-83" d="M13.14,65.37a4.34,4.34,0,0,1,0,.51h-.58a2.26,2.26,0,0,1,0-.52h.58Z"/><path class="cls-49" d="M1.86,67.8l.62-.61v0l-.63.61Z"/><path class="cls-84" d="M10.07,55.45A1.6,1.6,0,0,1,10,56h0a3.11,3.11,0,0,0-.61,0Z"/><path class="cls-85" d="M8.78,67.86l-.49-.41.49-.2C8.79,67.45,8.79,67.66,8.78,67.86Z"/><path class="cls-86" d="M9.4,67.86l-.58.63v-.64Z"/><path class="cls-87" d="M9.41,56.09a2.91,2.91,0,0,1,.59,0v.63H9.44Z"/><path class="cls-88" d="M.7,69.21l-.57.52Z"/><path class="cls-89" d="M9.44,56.68H10l-.59.61A.76.76,0,0,1,9.44,56.68Z"/><path class="cls-71" d="M15.07,65.35A5.41,5.41,0,0,0,15,64.8l.65-.09.11.1Z"/><path class="cls-88" d="M.59,71h.74a2.61,2.61,0,0,1-.08.56Z"/><path class="cls-90" d="M1.91,71.6l.63.62Z"/><path class="cls-91" d="M11.21,72.2l-.56-.61h.63Z"/><path class="cls-92" d="M23.15,43l-.63-.62Z"/><path class="cls-93" d="M3.79,73.46v-.62l.62.63Z"/><path class="cls-94" d="M23.77,43.61,23.14,43Z"/><path class="cls-95" d="M4.4,73.45l.6.64Z"/><path class="cls-96" d="M5.66,74.09v.61L5,74.09Z"/><path class="cls-96" d="M25,44.84v-.61l.64.63Z"/><path class="cls-97" d="M6.3,75.3v-.59l.64.64Z"/><path class="cls-98" d="M9.41,74.7h.66l-.67.56C9.4,75.09,9.41,74.89,9.41,74.7Z"/><path class="cls-42" d="M18.8,51.09l-.07-.66v-.56h.61l.64.63h0l-.58.59Z"/><path class="cls-99" d="M19.38,44.17V42.4h.72C19.87,43,20.61,44,19.38,44.17Z"/><path class="cls-100" d="M23.78,47.33l-1.26-1.24h0c.5,0,1.16-.23,1.25.63C23.77,46.93,23.77,47.09,23.78,47.33Z"/><path class="cls-101" d="M26.27,49.21h-.62V48h.59l.65.63h0l-.62.62Z"/><path class="cls-102" d="M23.13,49.85h-.6l-.63-1.26h0c.51,0,1.16-.22,1.27.63Z"/><path class="cls-103" d="M18.8,46.81V45.3C19.61,45.82,19.76,46.33,18.8,46.81Z"/><path class="cls-104" d="M25.65,48v.62H25A3.21,3.21,0,0,1,25,48v-.56Z"/><path class="cls-105" d="M22.52,46.09l-.62-.62h0Z"/><path class="cls-96" d="M23.78,47.33v-.6l.62.62h-.3Z"/><path class="cls-106" d="M21.27,48l-.5-.24.27-.26Z"/><path class="cls-107" d="M25,47.4V48l-.62-.62h0Z"/><path class="cls-65" d="M18.76,48.59a5.42,5.42,0,0,0,0-.57l.56.59A3.5,3.5,0,0,0,18.76,48.59Z"/><path class="cls-108" d="M21.27,48l.62.62h0L21.26,48Z"/><path class="cls-109" d="M18.76,48.59a4.86,4.86,0,0,1,.54,0,.57.57,0,0,1,0,.59h-.56Z"/><path class="cls-65" d="M18.77,49.22h.56l.05.62h-.61C18.76,49.63,18.76,49.42,18.77,49.22Z"/><path class="cls-110" d="M20,50.45h.63v.62h0l-.6-.62Z"/><path class="cls-111" d="M20.66,51.09v-.62a3.21,3.21,0,0,1,.62,0v.62Z"/><path class="cls-112" d="M21.27,51.09V50.5h.61a5.61,5.61,0,0,1,0,.58v.06a3.21,3.21,0,0,0-.62,0Z"/><path class="cls-99" d="M18.23,43.6l.55.56Z"/><path class="cls-113" d="M21.9,45.48l-.5-.24.26-.26Z"/><path class="cls-114" d="M1.9,67.85l.63-.61a1,1,0,0,1,.6.13v1.74H1.86Z"/><path class="cls-88" d="M1.27,69.18l.67-.09c.33.82.65,1.63-.62,1.94Z"/><path class="cls-115" d="M5,66.09c.93.52.93,1.1,0,1.66V66.09Z"/><path class="cls-116" d="M3.15,69.09V67.35h.68a2.35,2.35,0,0,0,0,.53C3.78,68.37,4.07,69.09,3.15,69.09Z"/><path class="cls-117" d="M6.92,72.83,5.66,71.59h0c.5,0,1.16-.24,1.25.62C6.91,72.42,6.91,72.62,6.92,72.83Z"/><path class="cls-118" d="M8.78,73.47v1.26l-.6-1.28V72.9Z"/><path class="cls-119" d="M7.48,66l.07.62-.42.46-.24-.42V66A5.76,5.76,0,0,1,7.48,66Z"/><path class="cls-120" d="M9.44,70.35H10L9.4,71H8.78v-.61Z"/><path class="cls-121" d="M8.78,71h.64v1.27C8.57,72.09,8.83,71.47,8.78,71Z"/><path class="cls-122" d="M9.38,72.24V71.6H10v1.22Z"/><path class="cls-123" d="M5,66.09v.54H4.4a1.77,1.77,0,0,0,0-.46Z"/><path class="cls-124" d="M6.91,66v.65L6.38,66A4.68,4.68,0,0,1,6.91,66Z"/><path class="cls-125" d="M5,67.24v.5H4.4a4,4,0,0,1,0-.49H5Z"/><path class="cls-54" d="M7.54,69.73,7,69.5l.27-.27.23.5Z"/><path class="cls-126" d="M8.16,70.35l-.62-.62h0Z"/><path class="cls-127" d="M5,71l-.5-.23.26-.26Z"/><path class="cls-128" d="M8.78,70.36V71l-.62-.62h.62Z"/><path class="cls-129" d="M5.66,71.59,5,71H5l.62.63Z"/><path class="cls-130" d="M6.92,72.83v-.61l.62.63H6.92Z"/><path class="cls-131" d="M8.16,72.9v.55l-.62-.62h0Z"/><path class="cls-132" d="M10.08,74.09H9.41v-.62Z"/><path class="cls-35" d="M13.15,54.2v1.22h-.61V54.19Z"/><path class="cls-133" d="M12.55,55.4h.61v.69L12.52,56A3.22,3.22,0,0,1,12.55,55.4Z"/><path class="cls-68" d="M18.81,54.86v-.69h.28l.27-.06.06.06Z"/><path class="cls-68" d="M19.42,56l-.58-.7Z"/><path class="cls-134" d="M10.64,58.54v1.87H10V58.53Z"/><path class="cls-135" d="M10.64,58.54H10c.11-.83.76-.56,1.25-.61h0v.62Z"/><path class="cls-136" d="M10.66,61v.62c-.81-.12-.59-.75-.62-1.25h.61C10.65,60.62,10.66,60.82,10.66,61Z"/><path class="cls-137" d="M18.79,58.48V57.32h0l.61-.63h0a1.88,1.88,0,0,1,.58,0V59.1Z"/><path class="cls-138" d="M16.9,53.56l.61.62h-.63l-.6-.06a5.42,5.42,0,0,0,0-.57h0A4.26,4.26,0,0,0,16.9,53.56Z"/><path class="cls-139" d="M17.51,51.68l.63.64h-.62Z"/><path class="cls-140" d="M17.52,52.32h.62V53Z"/><path class="cls-141" d="M16.9,53.56a3,3,0,0,1-.6,0,2.08,2.08,0,0,1,0-.61Z"/><path class="cls-142" d="M18.14,54.19v.63h-.62V54.2h.62Z"/><path class="cls-143" d="M28.14,47.34h-.62l.62-.62h0Z"/><path class="cls-144" d="M20,50.45l.6.62v1.24H20l-.6-1.22Z"/><path class="cls-145" d="M19.32,54.09l-.27.06h-.28v-.56c.2,0,.41,0,.62,0A1.68,1.68,0,0,1,19.32,54.09Z"/><path class="cls-146" d="M10.66,69.09l.59.57a1.94,1.94,0,0,1-.59,0A5.36,5.36,0,0,1,10.66,69.09Z"/><path class="cls-147" d="M16.93,61.09l.6-.63a2.44,2.44,0,0,0,.54,0l.11,1.28-.69.07h-.3l-.3.08v-.16A4.58,4.58,0,0,1,16.93,61.09Z"/><path class="cls-35" d="M18.07,60.36a2.44,2.44,0,0,1-.54,0l.64-.62A2.17,2.17,0,0,1,18.07,60.36Z"/><path class="cls-148" d="M15.6,64.71,15,64.8l-.52-1.27h1.2Z"/><path class="cls-149" d="M12.63,64.18a2.8,2.8,0,0,1,.41,0,2.4,2.4,0,0,1,.12.53v.65h-.59V64.7A2.31,2.31,0,0,1,12.63,64.18Z"/><path class="cls-150" d="M12.61,53.55l.05-.62.45.34Z"/><path class="cls-135" d="M15.62,63.58h-1.2v-.65l1.81-.64.2.61-.11.68Z"/><path class="cls-47" d="M16.36,62.3a1.23,1.23,0,0,1-.07-.6l.61-.1v.16Z"/><path class="cls-151" d="M5,67.24H4.4a2.15,2.15,0,0,1,0-.62H5Z"/><path class="cls-152" d="M28.14,47.34v-.62l.61.61h-.61Z"/><path class="cls-153" d="M14.41,53.61H15a1.57,1.57,0,0,0,0,.61v.6h-.59a1.57,1.57,0,0,1,0-.61A4.14,4.14,0,0,1,14.41,53.61Z"/><path class="cls-35" d="M14.4,54.18a1.57,1.57,0,0,0,0,.61l-.67-.57Z"/><path class="cls-154" d="M21.27,51.09a3.21,3.21,0,0,1,.62,0v.6h-.6C21.27,51.49,21.27,51.29,21.27,51.09Z"/><path class="cls-76" d="M26.27,49.21l.62-.62v.62Z"/><path class="cls-155" d="M10.67,62.88l.61.63h-.63C10.65,63.29,10.66,63.09,10.67,62.88Z"/><path class="cls-156" d="M16.27,57.92c.18.07.41.09.52.22a7.77,7.77,0,0,1,.53.87c-.56.3-.92.16-1.05-.48C16.28,58.33,16.28,58.09,16.27,57.92Z"/><path class="cls-157" d="M14.4,60.4l-.62-.63v-.59L15,60.4Z"/><path class="cls-158" d="M14.4,62.89c-.49,0-1.16.23-1.25-.62v-.63h0Z"/><path class="cls-68" d="M18.14,56.09v.61h-.62l-.62-.61v-.6Z"/><path class="cls-159" d="M15,54.78v-.6l.62.62a5,5,0,0,1,0,.55v.09Z"/><path class="cls-160" d="M13.76,56l.64.68v.61l-.62-.61a5.81,5.81,0,0,1,0-.59Z"/><path class="cls-161" d="M11.9,57.93l.63.61v.58l-.64-.59Z"/><path class="cls-35" d="M17.52,56.67h1.26v.67h0C18.32,57.22,17.62,57.54,17.52,56.67Z"/><path class="cls-162" d="M13.76,59.18v.59h-.61v-.62h0A3.12,3.12,0,0,1,13.76,59.18Z"/><path class="cls-163" d="M10.65,60.41v-.62l.62.61h-.62Z"/><path class="cls-164" d="M11.28,60.4h.59V61h-.65v-.66Z"/><path class="cls-135" d="M11.91,61.09v-.62l.67.6H12Z"/><path class="cls-135" d="M14.4,60.4H15V61Z"/><path class="cls-54" d="M15,61V60.4l.49.42Z"/><path class="cls-165" d="M16.27,57.92v.61l-.62-.62h.62Z"/><path class="cls-135" d="M12.54,61l.61.62h-.62V61Z"/><path class="cls-135" d="M16.9,61.6l-.61.1.64-.66A5.25,5.25,0,0,0,16.9,61.6Z"/><path class="cls-35" d="M13.17,56.09v-.65l.6.57v.09l-.65-.05Z"/><path class="cls-35" d="M16.29,56.09l-.63-.6V55.4l.65.07Z"/><path class="cls-130" d="M16.29,56.09v-.62h.61v.6h-.61Z"/><path class="cls-166" d="M13.13,56l.65,0a5.81,5.81,0,0,0,0,.59Z"/><path class="cls-95" d="M14.4,57.28v-.61l.62.63H14.4Z"/><path class="cls-167" d="M15.65,57.91,15,57.29h.61a3.11,3.11,0,0,1,0,.61Z"/><path class="cls-35" d="M15.64,57.91a3.11,3.11,0,0,0,0-.61l.63.61Z"/><path class="cls-168" d="M11.9,57.93v.6h-.59v-.62Z"/><path class="cls-169" d="M12.54,59.09v-.58l.62.62h-.64Z"/><path class="cls-135" d="M12.52,59.17h.64v.62Z"/><path class="cls-68" d="M18.82,57.34v-.67h.65Z"/><path class="cls-170" d="M11.28,60.41V61h-.63v-.62Z"/><path class="cls-34" d="M11.26,61.09h.65v.63h0Z"/><path class="cls-34" d="M12.53,62.27l-.64-.61h.62Z"/><path class="cls-50" d="M12.53,62.27v-.63h.62v.63Z"/><path class="cls-171" d="M16.9,54.81V54.2h.63v.62Z"/><path class="cls-172" d="M16.28,55.42l-.65-.07a5,5,0,0,0,0-.55h.61a3.11,3.11,0,0,1,0,.61Z"/><path class="cls-72" d="M12.53,61.65h-.62V61h.63C12.53,61.24,12.54,61.44,12.53,61.65Z"/><path class="cls-106" d="M16.26,55.43a3.11,3.11,0,0,0,0-.61h.64v.63Z"/><path class="cls-173" d="M27.22,74.45a7.47,7.47,0,0,1,1.24-.08,2,2,0,0,1,1.23.32,1.19,1.19,0,0,1,.44.94,1.31,1.31,0,0,1-.38,1,1.88,1.88,0,0,1-1.31.42,1.42,1.42,0,0,1-.31,0v1.45h-.91Zm.91,1.84.3,0c.49,0,.79-.25.79-.66s-.26-.59-.71-.59a1.57,1.57,0,0,0-.38,0Z"/><path class="cls-173" d="M32.24,78.44l-.06-.29h0a1.08,1.08,0,0,1-.84.36.9.9,0,0,1-.95-.9c0-.77.68-1.13,1.72-1.13v0c0-.15-.08-.38-.53-.38a1.65,1.65,0,0,0-.81.23l-.17-.59a2.35,2.35,0,0,1,1.14-.26A1.14,1.14,0,0,1,33,76.71v1a4.53,4.53,0,0,0,0,.71Zm-.11-1.39c-.48,0-.85.11-.85.47a.33.33,0,0,0,.36.34.49.49,0,0,0,.47-.33.41.41,0,0,0,0-.16Z"/><path class="cls-173" d="M33.74,76.47c0-.43,0-.71,0-1h.78l0,.54h0a.85.85,0,0,1,.79-.61h.19v.86l-.25,0a.59.59,0,0,0-.62.46,1.23,1.23,0,0,0,0,.2v1.49h-.91Z"/><path class="cls-173" d="M37.17,74.67v.84h.65v.67h-.65v1.06c0,.35.08.52.36.52a1.7,1.7,0,0,0,.27,0v.69a1.69,1.69,0,0,1-.59.08,1,1,0,0,1-.69-.25,1.27,1.27,0,0,1-.25-.87v-1.2h-.39v-.67h.39v-.64Z"/><path class="cls-173" d="M38.35,76.44c0-.36,0-.68,0-.93h.8l0,.4h0a1.06,1.06,0,0,1,.9-.47c.6,0,1.05.4,1.05,1.26v1.74h-.91V76.81c0-.37-.13-.63-.46-.63a.47.47,0,0,0-.46.34.5.5,0,0,0,0,.23v1.69h-.91Z"/><path class="cls-173" d="M42.57,77.26c0,.38.4.56.82.56a2.47,2.47,0,0,0,.81-.12l.12.62a2.87,2.87,0,0,1-1.06.18A1.41,1.41,0,0,1,41.7,77a1.47,1.47,0,0,1,1.48-1.57,1.3,1.3,0,0,1,1.3,1.46,1.48,1.48,0,0,1,0,.36Zm1.07-.62a.53.53,0,0,0-.52-.59.59.59,0,0,0-.56.59Z"/><path class="cls-173" d="M45,76.47c0-.43,0-.71,0-1h.78l0,.54h0a.86.86,0,0,1,.79-.61h.19v.86l-.24,0a.59.59,0,0,0-.63.46,1.23,1.23,0,0,0,0,.2v1.49H45Z"/><path class="cls-173" d="M47.31,77.64a1.75,1.75,0,0,0,.78.22c.28,0,.39-.09.39-.24s-.09-.22-.43-.34c-.61-.2-.84-.53-.83-.88,0-.55.46-1,1.19-1a2,2,0,0,1,.83.17l-.17.63a1.44,1.44,0,0,0-.63-.17c-.22,0-.35.09-.35.24s.12.21.47.34c.56.19.8.47.8.9s-.43,1-1.27,1a2.27,2.27,0,0,1-1-.2Z"/><path class="cls-173" d="M52.07,74.69a.49.49,0,0,1-1,0,.45.45,0,0,1,.48-.46A.46.46,0,0,1,52.07,74.69Zm-.94,3.75V75.51H52v2.93Z"/><path class="cls-173" d="M52.77,76.44c0-.36,0-.68,0-.93h.79l0,.4h0a1.06,1.06,0,0,1,.9-.47c.6,0,1,.4,1,1.26v1.74h-.91V76.81c0-.37-.13-.63-.46-.63a.48.48,0,0,0-.46.34.5.5,0,0,0,0,.23v1.69h-.91Z"/><path class="cls-173" d="M60.91,78.25a4.46,4.46,0,0,1-1.35.23,2.28,2.28,0,0,1-1.65-.54,2,2,0,0,1-.57-1.47,2.09,2.09,0,0,1,2.31-2.11,2.89,2.89,0,0,1,1.12.19l-.19.73a2.35,2.35,0,0,0-.94-.17,1.23,1.23,0,0,0-1.34,1.31,1.21,1.21,0,0,0,1.27,1.32,1.14,1.14,0,0,0,.45-.06v-.84H59.4v-.72h1.51Z"/><path class="cls-173" d="M61.61,76.47c0-.43,0-.71,0-1h.78l0,.54h0a.84.84,0,0,1,.79-.61h.19v.86l-.25,0a.59.59,0,0,0-.62.46,1.23,1.23,0,0,0,0,.2v1.49h-.91Z"/><path class="cls-173" d="M66.74,76.94a1.48,1.48,0,0,1-1.55,1.57A1.44,1.44,0,0,1,63.67,77a1.47,1.47,0,0,1,1.57-1.55A1.43,1.43,0,0,1,66.74,76.94Zm-2.12,0c0,.5.21.88.6.88s.58-.35.58-.88-.17-.88-.58-.88S64.62,76.54,64.62,77Z"/><path class="cls-173" d="M67.88,75.51l.23,1.2c.06.3.12.63.17,1h0c.06-.33.15-.67.22-1l.31-1.2h.72l.29,1.17c.08.33.16.66.22,1h0c0-.33.1-.66.17-1l.25-1.16h.9l-.9,2.93h-.86l-.28-1c-.07-.29-.12-.55-.18-.91h0a6.29,6.29,0,0,1-.19.91l-.29,1H67.8L67,75.51Z"/><path class="cls-173" d="M72.82,74.67v.84h.66v.67h-.66v1.06c0,.35.09.52.36.52a1.45,1.45,0,0,0,.27,0v.69a1.76,1.76,0,0,1-.6.08,1,1,0,0,1-.68-.25,1.22,1.22,0,0,1-.25-.87v-1.2h-.39v-.67h.39v-.64Z"/><path class="cls-173" d="M74,74.18h.91v1.67h0a1.07,1.07,0,0,1,.36-.3,1,1,0,0,1,.47-.11c.58,0,1,.4,1,1.28v1.72h-.91V76.83c0-.39-.14-.65-.48-.65a.46.46,0,0,0-.45.32.44.44,0,0,0,0,.2v1.74H74Z"/><path class="cls-173" d="M79.31,75.16H78.22V74.4h3.11v.76h-1.1v3.28h-.92Z"/><path class="cls-173" d="M81.46,76.47c0-.43,0-.71,0-1h.78l0,.54h0a.86.86,0,0,1,.79-.61h.19v.86l-.24,0a.59.59,0,0,0-.63.46,1.27,1.27,0,0,0,0,.2v1.49h-.92Z"/><path class="cls-173" d="M85.35,78.44l-.06-.29h0a1.06,1.06,0,0,1-.84.36.9.9,0,0,1-.94-.9c0-.77.68-1.13,1.72-1.13v0c0-.15-.09-.38-.54-.38a1.68,1.68,0,0,0-.81.23l-.16-.59a2.31,2.31,0,0,1,1.14-.26,1.14,1.14,0,0,1,1.28,1.27v1a4.34,4.34,0,0,0,0,.71Zm-.11-1.39c-.48,0-.85.11-.85.47a.32.32,0,0,0,.36.34.5.5,0,0,0,.47-.33.78.78,0,0,0,0-.16Z"/><path class="cls-173" d="M86.85,76.44c0-.36,0-.68,0-.93h.79l0,.4h0a1.07,1.07,0,0,1,.91-.47c.6,0,1,.4,1,1.26v1.74h-.91V76.81c0-.37-.14-.63-.46-.63a.49.49,0,0,0-.47.34.71.71,0,0,0,0,.23v1.69h-.91Z"/><path class="cls-173" d="M90.35,77.64a1.84,1.84,0,0,0,.79.22c.28,0,.39-.09.39-.24s-.09-.22-.43-.34c-.61-.2-.84-.53-.84-.88,0-.55.47-1,1.2-1a2,2,0,0,1,.83.17l-.17.63a1.44,1.44,0,0,0-.63-.17c-.22,0-.35.09-.35.24s.12.21.47.34c.56.19.8.47.8.9s-.43,1-1.27,1a2.27,2.27,0,0,1-1-.2Z"/><path class="cls-173" d="M93.07,78.44V76.18h-.39v-.67h.39v-.12a1.35,1.35,0,0,1,.37-1,1.16,1.16,0,0,1,.81-.29,1.56,1.56,0,0,1,.48.06l0,.7a.85.85,0,0,0-.3,0c-.3,0-.42.24-.42.53v.15h.59v.67H94v2.26Z"/><path class="cls-173" d="M97.85,76.94a1.48,1.48,0,0,1-1.55,1.57A1.44,1.44,0,0,1,94.78,77a1.47,1.47,0,0,1,1.57-1.55A1.43,1.43,0,0,1,97.85,76.94Zm-2.12,0c0,.5.21.88.6.88s.58-.35.58-.88-.17-.88-.58-.88S95.73,76.54,95.73,77Z"/><path class="cls-173" d="M98.41,76.47c0-.43,0-.71,0-1h.79l0,.54h0a.86.86,0,0,1,.79-.61h.19v.86l-.24,0a.59.59,0,0,0-.63.46,1.27,1.27,0,0,0,0,.2v1.49h-.92Z"/><path class="cls-173" d="M100.69,76.44c0-.36,0-.68,0-.93h.77l0,.39h0a1,1,0,0,1,.88-.46.84.84,0,0,1,.81.5h0a1.43,1.43,0,0,1,.38-.36,1.11,1.11,0,0,1,.56-.14c.56,0,1,.4,1,1.27v1.73h-.88v-1.6c0-.42-.14-.67-.43-.67a.45.45,0,0,0-.42.32.62.62,0,0,0,0,.23v1.72h-.89V76.8c0-.38-.13-.63-.42-.63a.46.46,0,0,0-.42.33.62.62,0,0,0,0,.23v1.71h-.89Z"/><path class="cls-173" d="M107.52,78.44l0-.29h0a1.06,1.06,0,0,1-.84.36.9.9,0,0,1-1-.9c0-.77.69-1.13,1.72-1.13v0c0-.15-.08-.38-.53-.38a1.65,1.65,0,0,0-.81.23l-.17-.59a2.38,2.38,0,0,1,1.14-.26,1.14,1.14,0,0,1,1.29,1.27v1a4.53,4.53,0,0,0,0,.71Zm-.11-1.39c-.48,0-.85.11-.85.47a.33.33,0,0,0,.36.34.49.49,0,0,0,.47-.33.41.41,0,0,0,0-.16Z"/><path class="cls-173" d="M110,74.67v.84h.66v.67H110v1.06c0,.35.09.52.36.52a1.45,1.45,0,0,0,.27,0v.69a1.76,1.76,0,0,1-.6.08,1,1,0,0,1-.68-.25,1.22,1.22,0,0,1-.25-.87v-1.2h-.39v-.67h.39v-.64Z"/><path class="cls-173" d="M112.12,74.69a.49.49,0,0,1-1,0,.45.45,0,0,1,.48-.46A.46.46,0,0,1,112.12,74.69Zm-.94,3.75V75.51h.91v2.93Z"/><path class="cls-173" d="M115.72,76.94a1.48,1.48,0,0,1-1.55,1.57A1.44,1.44,0,0,1,112.65,77a1.46,1.46,0,0,1,1.57-1.55A1.43,1.43,0,0,1,115.72,76.94Zm-2.13,0c0,.5.21.88.6.88s.58-.35.58-.88-.16-.88-.58-.88S113.59,76.54,113.59,77Z"/><path class="cls-173" d="M116.28,76.44c0-.36,0-.68,0-.93h.79l0,.4h0a1.06,1.06,0,0,1,.9-.47c.6,0,1,.4,1,1.26v1.74h-.91V76.81c0-.37-.13-.63-.46-.63a.48.48,0,0,0-.46.34.5.5,0,0,0,0,.23v1.69h-.91Z"/></svg>