<svg id="Layer_1" data-name="Layer 1" xmlns="http://www.w3.org/2000/svg" viewBox="0 0 120 120"><defs><style>.cls-1{fill:#fdfcfb;}.cls-2{fill:#807f7e;}.cls-3{fill:#878685;}.cls-4{fill:#888786;}.cls-5{fill:#888685;}.cls-6{fill:#898887;}.cls-7{fill:#828180;}.cls-8{fill:#848382;}.cls-9{fill:#858483;}.cls-10{fill:#f2f1f0;}.cls-11{fill:#f1efef;}.cls-12{fill:#f5f4f3;}.cls-13{fill:#efeeed;}.cls-14{fill:#b2b0af;}.cls-15{fill:#aeacab;}.cls-16{fill:#afacac;}.cls-17{fill:#e76126;}.cls-18{fill:#81807f;}.cls-19{fill:#eb7e46;}.cls-20{fill:#ea783e;}.cls-21{fill:#ec834d;}.cls-22{fill:#f0eeee;}.cls-23{fill:#f7f6f5;}.cls-24{fill:#faf9f9;}.cls-25{fill:#fafaf9;}.cls-26{fill:#eeedec;}.cls-27{fill:#fef6f1;}</style></defs><path class="cls-1" d="M69.4,88.76H67.69c.14-2.74.29-5.49.38-8.23,0-.18-.47-.56-.66-.52s-.72.37-.75.62a24.25,24.25,0,0,0,0,2.57H63a12.4,12.4,0,0,0,0-2.13c-.06-.39-.43-.74-.66-1.11-.27.38-.78.76-.78,1.14-.06,2.55,0,5.11,0,7.66H56.07l.8-3.34c2.83-.41,4-1.34,3.83-3.12s-1.62-2.52-4.37-2.4c-1,0-1.39.37-1.36,1.4.08,2.49.06,5,.07,7.46H51.62l-.79-2.07,1.07-2.83c-2-.84-1.45,1.3-2.37,1.79L48.1,84c1.22-1,2.31-1.86,1.29-3.34a2.14,2.14,0,0,0-2.91-.56c-1.69.84-1.39,2.23-.7,3.55-2.12,2-2,3.3.37,5.1H41.71l-1.45-4.55A2.27,2.27,0,0,0,41,81.14c-.74-1.28-2.9-1.64-5.56-.82l.47,8.44H34.19c.78-1.08.79-1.77-.83-1.69-.72,0-1.43,0-2.17,0V84.68a18.34,18.34,0,0,0,2.24,0c.29,0,.53-.39.8-.6-.25-.23-.49-.63-.76-.66a21,21,0,0,0-2.4,0l.13-2.09c.88,0,1.67.06,2.44,0,.3,0,.56-.38.83-.59-.24-.24-.47-.68-.72-.69-1.39-.07-2.79,0-4.45,0l.44,8.82h-1l-.06-.37V87H25.21V80.09c-1.15-.35-1.59,0-1.57,1.07,0,2.53,0,5.07-.05,7.6h-.68l-.06-.37V87H19.46v-7l-.5-.3c-.36.36-1.05.71-1.05,1.07,0,2.54.11,5.07.19,7.61a.69.69,0,0,0,0,.32H14.36a4.88,4.88,0,0,0,2.36-5,15.51,15.51,0,0,1,0-2.55c.09-1.26-.5-1.43-1.66-1.06,0,1.55,0,3.07,0,4.6,0,1.19-.12,2.42-1.69,2.43s-1.71-1.22-1.73-2.41c0-1.57,0-3.14,0-4.62-1.29-.43-1.72-.06-1.67,1a26,26,0,0,1,0,3.06,4.5,4.5,0,0,0,2.33,4.53H8.55c.15-.23.45-.46.44-.68-.13-2.69-.3-5.38-.45-8C7,79.66,6.28,80.05,6,81.41s-.88,2.75-1.44,4.44c-.53-1.65-1.06-3-1.38-4.4S2,79.62.66,80.11L0,83.65V75.81c3.7,0,7.4.09,11.1.07S14,76.45,14.7,73c1.32-6.12,2.56-12.26,3.93-18.87.28.88.43,1.29.54,1.71,1.64,6.2,3.3,12.39,4.89,18.61.28,1.12.7,1.59,1.94,1.53,2.22-.12,4.45-.09,6.66,0,1.16,0,1.71-.23,1.94-1.5.68-3.85,1.54-7.68,2.34-11.51q.78-3.75,1.57-7.51a1,1,0,0,1,.49.66c1.46,6.13,2.9,12.26,4.4,18.38.14.54.69,1.38,1.07,1.39,4.23.09,8.46.06,12.69.06-5.94-3.2-9.47-7.84-9.7-14.63s3.8-11.36,9-15.14C54.41,43,53.09,39.7,53.41,36c.35-4,3.09-6.32,6.93-8.2-8.42,0-16.27,0-24.12,0-1.09,0-1.32.56-1.55,1.38q-2,6.71-3.94,13.39c-.38,1.3-.8,2.59-1.2,3.89-1.89-5.75-3.48-11.42-5-17.11-.29-1.09-.69-1.59-1.95-1.55-3.64.09-7.29.08-10.93,0-1.21,0-1.65.34-1.9,1.53Q5.95,47.7,2,66.1c-.59,2.8-1.35,5.56-2,8.34v-47H120V88.76H88.55a7.93,7.93,0,0,1,.58-.58c2-1.52,1.84-3.32-.32-4.53a12.86,12.86,0,0,1-2-1.73l2.73-.52c.06,0,.11,0,.61-.23-.36-.48-.57-1.06-.94-1.19a4.41,4.41,0,0,0-1.85-.07c-1.17.15-2.24.78-2.16,2a5.1,5.1,0,0,0,1.37,2.44c.28.36,1,.37,1.34.68a6.29,6.29,0,0,1,.91,1.28,4.73,4.73,0,0,1-1.5.82,10.79,10.79,0,0,1-2.46-.3l.93,2H80.34v-3.3a18.74,18.74,0,0,0,2-.35,2.62,2.62,0,0,0-.48-5.18c-.62-.06-1.25,0-1.87,0-1-.06-1.37.37-1.35,1.41,0,2.48,0,5,0,7.45H73.85v-3.3a19,19,0,0,0,2-.35,2.62,2.62,0,0,0-.48-5.18c-.62-.06-1.25,0-1.87,0-1-.06-1.38.37-1.35,1.4,0,2.49,0,5,0,7.46H70.77a.74.74,0,0,0,0-.33c.09-2.48.18-5,.25-7.46,0-1.32-.71-1.12-1.53-.84v8.24ZM90.49,75.9V60.07h9.06A15.48,15.48,0,0,0,114.91,47.8c1.63-8.47-2-15.74-9.55-18.56a23,23,0,0,0-7.31-1.39c-6.66-.18-13.32-.06-20-.06h-2v8.29l-1.58-.62c-2.69-1.14-5.45-2-8.44-1.59S62,36,62.79,38.81a14,14,0,0,0,1.63,3.54c3.89,6.07,7.85,12.09,11.79,18.13a3.62,3.62,0,0,0,.52.5c1.59-3,1.54-6.07,1.13-9.23h7.6c.13,5.87-.66,11.33-4.51,16,1.7,2.51,3.37,5,5.09,7.47a1.67,1.67,0,0,0,1.07.64C88.17,76,89.25,75.9,90.49,75.9ZM70.4,67,60.64,52.41c-4.52,3.07-5.65,8.31-2.9,12.53S65.52,70.11,70.4,67Zm4,6.21L68.74,75.9h7.65Zm41.12-41.52.57,0,.26-2.16,1.24,2.09.4-.17-1.56-3.8-.6.15Zm-.89-3.82H112.4c2.26.68.33,2.79,1.42,3.95C114.1,30.41,114.36,29.16,114.63,27.82Zm4.48,3.84.62,0-.3-3.91-.59-.07-.79,1.93.4.27.42-.75Z"/><path class="cls-2" d="M0,74.44c.68-2.78,1.44-5.54,2-8.34Q5.95,47.7,9.74,29.28c.25-1.19.69-1.56,1.9-1.53,3.64.08,7.29.09,10.93,0,1.26,0,1.66.46,1.95,1.55,1.53,5.69,3.12,11.36,5,17.11.4-1.3.82-2.59,1.2-3.89q2-6.69,3.94-13.39c.23-.82.46-1.38,1.55-1.38,7.85.05,15.7,0,24.12,0-3.84,1.88-6.58,4.16-6.93,8.2-.32,3.72,1,7,3.05,10.14-5.2,3.78-9.23,8.25-9,15.14s3.76,11.43,9.7,14.63c-4.23,0-8.46,0-12.69-.06-.38,0-.93-.85-1.07-1.39-1.5-6.12-2.94-12.25-4.4-18.38a1,1,0,0,0-.49-.66q-.8,3.76-1.57,7.51c-.8,3.83-1.66,7.66-2.34,11.51-.23,1.27-.78,1.54-1.94,1.5-2.21-.08-4.44-.11-6.66,0-1.24.06-1.66-.41-1.94-1.53C22.47,68.18,20.81,62,19.17,55.79c-.11-.42-.26-.83-.54-1.71C17.26,60.69,16,66.83,14.7,73c-.75,3.5.09,2.91-3.6,2.93s-7.4,0-11.1-.07Z"/><path class="cls-3" d="M0,83.65l.66-3.54C2,79.62,2.8,80,3.13,81.45S4,84.2,4.51,85.85c.56-1.69,1.1-3,1.44-4.44S7,79.66,8.54,80.11c.15,2.59.32,5.28.45,8,0,.22-.29.45-.44.68h-1l-.35-6.88L4.79,88.76h-1l-1.66-6a18.47,18.47,0,0,0-.61,4.49c0,1.09-.49,1.42-1.49,1.15Z"/><path class="cls-4" d="M46.15,88.76c-2.37-1.8-2.49-3.09-.37-5.1-.69-1.32-1-2.71.7-3.55a2.14,2.14,0,0,1,2.91.56c1,1.48-.07,2.39-1.29,3.34l1.43,1.64c.92-.49.35-2.63,2.37-1.79l-1.07,2.83.79,2.07Zm.6-4.08-.63,0c0,.68-.25,1.52.06,2,.56.87,1.49.87,2.5,0Z"/><path class="cls-5" d="M35.9,88.76l-.47-8.44c2.66-.82,4.82-.46,5.56.82a2.27,2.27,0,0,1-.73,3.07l1.45,4.55H40c-.2-.75-.42-1.49-.58-2.25-.28-1.3-1-1.77-2.5-1.36v3.61Zm1.39-4.83a9,9,0,0,0,2.13-.9,1.39,1.39,0,0,0,0-1.3,9.12,9.12,0,0,0-2.12-.67Z"/><path class="cls-4" d="M12.31,88.76A4.5,4.5,0,0,1,10,84.23a26,26,0,0,0,0-3.06c-.05-1.1.38-1.47,1.67-1,0,1.48,0,3.05,0,4.62,0,1.19.15,2.42,1.73,2.41s1.68-1.24,1.69-2.43c0-1.53,0-3,0-4.6,1.16-.37,1.75-.2,1.66,1.06a15.51,15.51,0,0,0,0,2.55,4.88,4.88,0,0,1-2.36,5Z"/><path class="cls-6" d="M29.74,88.76l-.44-8.82c1.66,0,3.06,0,4.45,0,.25,0,.48.45.72.69-.27.21-.53.55-.83.59-.77.08-1.56,0-2.44,0l-.13,2.09a21,21,0,0,1,2.4,0c.27,0,.51.43.76.66-.27.21-.51.57-.8.6a18.34,18.34,0,0,1-2.24,0v2.39c.74,0,1.45,0,2.17,0,1.62-.08,1.61.61.83,1.69Z"/><path class="cls-7" d="M61.54,88.76c0-2.55-.06-5.11,0-7.66,0-.38.51-.76.78-1.14.23.37.6.72.66,1.11a12.4,12.4,0,0,1,0,2.13h3.62a24.25,24.25,0,0,1,0-2.57c0-.25.46-.56.75-.62s.67.34.66.52c-.09,2.74-.24,5.49-.38,8.23h-1v-4H63.24l-.68,4Z"/><path class="cls-6" d="M72.14,88.76c0-2.48.06-5,0-7.46,0-1,.32-1.46,1.35-1.4.62,0,1.25,0,1.87,0a2.62,2.62,0,0,1,.48,5.18,19,19,0,0,1-2,.35v3.3Zm1.74-4.4a10.44,10.44,0,0,0,2.21-1.18A1.39,1.39,0,0,0,76,81.81a8.85,8.85,0,0,0-2.14-.76Z"/><path class="cls-6" d="M78.63,88.76c0-2.48.07-5,0-7.45,0-1,.32-1.47,1.35-1.41.62,0,1.25,0,1.87,0a2.62,2.62,0,0,1,.48,5.18,18.74,18.74,0,0,1-2,.35v3.3Zm1.75-4.4a10,10,0,0,0,2.21-1.18,1.4,1.4,0,0,0-.06-1.36,8.52,8.52,0,0,0-2.15-.77Z"/><path class="cls-4" d="M85.81,88.76l-.93-2a10.79,10.79,0,0,0,2.46.3,4.73,4.73,0,0,0,1.5-.82A6.29,6.29,0,0,0,87.93,85c-.37-.31-1.06-.32-1.34-.68a5.1,5.1,0,0,1-1.37-2.44c-.08-1.2,1-1.83,2.16-2a4.41,4.41,0,0,1,1.85.07c.37.13.58.71.94,1.19-.5.19-.55.22-.61.23l-2.73.52a12.86,12.86,0,0,0,2,1.73c2.16,1.21,2.32,3,.32,4.53a7.93,7.93,0,0,0-.58.58Z"/><path class="cls-8" d="M55,88.76c0-2.48,0-5-.07-7.46,0-1,.35-1.36,1.36-1.4,2.75-.12,4.22.64,4.37,2.4s-1,2.71-3.83,3.12l-.8,3.34Zm1.54-4.44a11.2,11.2,0,0,0,2.29-1.08,1.41,1.41,0,0,0,0-1.34,11,11,0,0,0-2.3-1Z"/><path class="cls-9" d="M23.59,88.76c0-2.53.08-5.07.05-7.6,0-1.12.42-1.42,1.57-1.07V87h3.45v1.42l-4.39.37Z"/><path class="cls-10" d="M62.56,88.76l.68-4h3.43v4Z"/><path class="cls-11" d="M4.79,88.76l2.38-6.88.35,6.88Z"/><path class="cls-12" d="M36.92,88.76V85.15c1.46-.41,2.22.06,2.5,1.36.16.76.38,1.5.58,2.25Z"/><path class="cls-13" d="M0,88.42c1,.27,1.46-.06,1.49-1.15a18.47,18.47,0,0,1,.61-4.49l1.66,6Z"/><path class="cls-14" d="M22.85,88.39l.06.37H18.12a.69.69,0,0,1,0-.32Z"/><path class="cls-15" d="M24.27,88.76l4.39-.37.06.37Z"/><path class="cls-16" d="M69.4,88.76c0-.13.07-.26.1-.39l1.28.06a.74.74,0,0,1,0,.33Z"/><path class="cls-17" d="M90.49,75.9c-1.24,0-2.32.06-3.38,0A1.67,1.67,0,0,1,86,75.23c-1.72-2.46-3.39-5-5.09-7.47,3.85-4.68,4.64-10.14,4.51-16h-7.6c.41,3.16.46,6.24-1.13,9.23a3.62,3.62,0,0,1-.52-.5c-3.94-6-7.9-12.06-11.79-18.13a14,14,0,0,1-1.63-3.54c-.82-2.78.36-4.52,3.27-4.94s5.75.45,8.44,1.59l1.58.62V27.79h2c6.67,0,13.33-.12,20,.06a23,23,0,0,1,7.31,1.39c7.55,2.82,11.18,10.09,9.55,18.56A15.48,15.48,0,0,1,99.55,60.07H90.49V75.9ZM90.4,49a52.42,52.42,0,0,0,6.82-.87,4,4,0,0,0,2.93-4.29,4,4,0,0,0-3.2-4.1,52,52,0,0,0-6.55-.49Z"/><path class="cls-18" d="M70.4,67c-4.88,3.16-9.85,2.32-12.66-2s-1.62-9.46,2.9-12.53Z"/><path class="cls-8" d="M22.85,88.39l-4.75,0c-.08-2.54-.2-5.07-.19-7.61,0-.36.69-.71,1.05-1.07l.5.3v7h3.39Z"/><path class="cls-8" d="M70.78,88.43l-1.28-.06V80.13c.82-.28,1.56-.48,1.53.84C71,83.46,70.87,86,70.78,88.43Z"/><path class="cls-8" d="M74.4,73.16l2,2.74H68.74Z"/><path class="cls-19" d="M115.52,31.64l.31-3.86.6-.15,1.56,3.8-.4.17-1.24-2.09-.26,2.16Z"/><path class="cls-20" d="M114.63,27.82c-.27,1.34-.53,2.59-.81,3.95-1.09-1.16.84-3.27-1.42-3.95Z"/><path class="cls-21" d="M119.11,31.66l-.24-2.56-.42.75-.4-.27.79-1.93.59.07.3,3.91Z"/><path class="cls-22" d="M46.75,84.68l1.93,2.09c-1,.83-1.94.83-2.5,0-.31-.48-.06-1.32-.06-2Z"/><path class="cls-23" d="M37.29,83.93V81.06a9.12,9.12,0,0,1,2.12.67,1.39,1.39,0,0,1,0,1.3A9,9,0,0,1,37.29,83.93Z"/><path class="cls-24" d="M73.88,84.36V81.05a8.85,8.85,0,0,1,2.14.76,1.39,1.39,0,0,1,.07,1.37A10.44,10.44,0,0,1,73.88,84.36Z"/><path class="cls-25" d="M80.38,84.36V81.05a8.52,8.52,0,0,1,2.15.77,1.4,1.4,0,0,1,.06,1.36A10,10,0,0,1,80.38,84.36Z"/><path class="cls-26" d="M56.58,84.32v-3.4a11,11,0,0,1,2.3,1,1.41,1.41,0,0,1,0,1.34A11.2,11.2,0,0,1,56.58,84.32Z"/><path class="cls-27" d="M90.4,49V39.26a52,52,0,0,1,6.55.49,4,4,0,0,1,3.2,4.1,4,4,0,0,1-2.93,4.29A52.42,52.42,0,0,1,90.4,49Z"/></svg>