<svg id="Layer_1" data-name="Layer 1" xmlns="http://www.w3.org/2000/svg" xmlns:xlink="http://www.w3.org/1999/xlink" viewBox="0 0 120 120"><defs><style>.cls-1{fill:url(#linear-gradient);}.cls-2{fill:#0861aa;}</style><linearGradient id="linear-gradient" x1="57.45" y1="-186.6" x2="74.62" y2="-186.6" gradientTransform="matrix(1, 0, 0, -1, -56.72, -125.63)" gradientUnits="userSpaceOnUse"><stop offset="0.3" stop-color="#e54c25"/><stop offset="0.7" stop-color="#ec9b22"/></linearGradient></defs><g id="_Group_" data-name=" Group "><path id="_Path_" data-name=" Path " class="cls-1" d="M12.59,59l-.05.13a5,5,0,0,1,2.6,4.66A5.58,5.58,0,0,1,9.38,69.2c-4.37,0-5.88-2.61-5.88-5,0-3.07,2.1-5.12,2.1-7.92a4.36,4.36,0,0,0-3.37-4.22l-.08.13A3.62,3.62,0,0,1,3.23,54.8c0,3-2.5,5.17-2.5,8.64,0,3.2,2.19,6.46,8.54,6.46,5.65,0,8.63-2.83,8.63-5.83C17.9,61.49,16.09,59.31,12.59,59Z"/><path id="_Compound_Path_" data-name=" Compound Path " class="cls-2" d="M37.42,69.38,29.91,59.5v8.91l1.53.37v.41H28v-.41l1.25-.37V58.7a2.69,2.69,0,0,0-1.07-.62L27.77,58V57.6h3l6.42,8.51V58.39L35.62,58V57.6h3.5V58l-1.25.38v8.83c0,.82.05,2,.06,2.16Zm15.72-6.29c0,4.09-2.81,6.46-5.88,6.46a6.16,6.16,0,0,1,0-12.31,5.77,5.77,0,0,1,5.91,5.63v.22Zm-2,.61c0-3-1.76-5.92-4.16-5.92-2.55,0-3.7,2.51-3.7,5.2s1.45,6,4.19,6C50.09,69,51.18,66.36,51.18,63.7Zm4.39-5.32L54.36,58V57.6H59V58l-1.44.37,3.18,8.85h0l3.18-8.85L62.45,58V57.6h3.41V58l-1.21.37-4,11h-1Zm27.24,4.89h-.73V58.21c2.41,0,3.84.56,3.84,2.57C85.91,62.26,84.66,63.27,82.81,63.27Zm20.63,5.51,1.61-.37v-10L103.44,58V57.6h5V58l-1.6.38v10l1.6.37v.41h-5ZM111.51,66h.32l1.06,2.5a4.82,4.82,0,0,0,2,.52,2.4,2.4,0,0,0,2.64-2.29c0-1.11-.71-1.77-1.85-2.38l-1.14-.6c-1.35-.72-2.7-1.73-2.7-3.36s1.2-3.15,3.78-3.15a8.58,8.58,0,0,1,2.66.45l.27,2.68h-.34l-1-2.15a3.36,3.36,0,0,0-1.67-.44,2,2,0,0,0-2.19,1.95c0,1,.67,1.67,1.82,2.28l1.34.71c1.83,1,2.7,1.86,2.7,3.52,0,2-1.88,3.32-4.22,3.32a9.94,9.94,0,0,1-3.25-.5ZM65.12,68.78l1.29-.37,4-10.82,1.33-.35,4.1,11.16,1.29.38v.41H72.24v-.41l1.65-.38-1.17-3.21H68.35L67.19,68.4l1.65.37v.41H65.12Zm3.54-4.44h3.78l-1.88-5.17h0Zm16.45-.82c.4-.1,2.65-.69,2.65-2.86,0-1.75-1.31-3.1-4.55-3.1-2,0-4,0-4.26,0V58l1.32.37v10L79,68.78v.41h4.67v-.41l-1.53-.38V63.88h1.32l3.37,5.32h3v-.41l-1.51-.41ZM95,58.2V68.41l-1.6.37v.41h5v-.41l-1.61-.37V58.21h2.7l.9,1.95h.34l-.26-2.55H91.29L91,60.16h.35l.88-1.93ZM9.34,65.57,11,50.1H7.62l1.6,15.47Z"/></g></svg>