<svg id="Layer_1" data-name="Layer 1" xmlns="http://www.w3.org/2000/svg" viewBox="0 0 120 120"><defs><style>.cls-1{fill:#5e87be;}.cls-2{fill:#556c89;}.cls-3{fill:#4c617d;}.cls-4{fill:#445770;}</style></defs><path class="cls-1" d="M60.91,104.94a4,4,0,0,1-1.07.33c-7.84,0-15.69,0-23.54,0a4.61,4.61,0,0,1-4.1-2.88c-.85-2.47-1.75-4.92-2.64-7.38Q20.65,70.26,11.73,45.46q-5-14-10.07-28c-.08-.21-.15-.42-.22-.63a1.55,1.55,0,0,1,1.49-2.12,23.06,23.06,0,0,1,2.34.19c.78.07,1.55.16,2.32.24l2.37.26,2.15.19,2.55.24,2.06.21,2.68.26c1.06.09,2.12.17,3.18.27l4.18.44a9.3,9.3,0,0,1,1.5.14A4.51,4.51,0,0,1,31.57,20c1.69,4.73,3.33,9.47,5,14.2l10.51,30c.08.21.17.41.26.61.12.37.25.74.37,1.1s.3,1,.47,1.43l3.1,8.85q2.19,6.26,4.37,12.51,2.38,6.8,4.74,13.6a4.09,4.09,0,0,0,.25.46l.38,1.4v.64h0Z"/><path class="cls-2" d="M61,104.85c0-.21,0-.43,0-.64.4,0,.42-.33.51-.57a4.86,4.86,0,0,0-.2-3.3c-.7-2.09-1.45-4.17-2.17-6.26-.82-2.33-1.62-4.67-2.43-7L53.25,77c-1-2.87-2-5.75-3-8.61a19.06,19.06,0,0,0-1-2.42,2.37,2.37,0,0,0-1.82-1.47L49.7,58c.92-2.66,1.85-5.31,2.78-8s1.84-5.28,2.75-7.92L58,34.22q1.75-5,3.49-10c.48-1.38,1-2.76,1.45-4.13a4.52,4.52,0,0,1,3.29-2.92,12.74,12.74,0,0,1,2.06-.25l3.46-.34,2.2-.19c1.07-.11,2.13-.23,3.2-.33.73-.08,1.46-.14,2.2-.21l3.37-.33c.81-.07,1.62-.12,2.43-.2,1-.1,2.1-.23,3.16-.34.73-.07,1.46-.15,2.2-.19a9.14,9.14,0,0,1,1.48,0,1.21,1.21,0,0,1,1.11,1.27,5.74,5.74,0,0,1-.29,1.55c-1.07,3-2.17,6.08-3.26,9.11L85.88,36.87,83,44.8Q81.2,49.9,79.36,55l-2.85,7.94L72.79,73.26,70,81c-1.23,3.44-2.48,6.88-3.71,10.32l-3.6,10c-.3.83-.56,1.68-.91,2.49A4.8,4.8,0,0,1,61,104.85Z"/><path class="cls-3" d="M47.45,64.53A2.37,2.37,0,0,1,49.27,66a19.06,19.06,0,0,1,1,2.42c1,2.86,2,5.74,3,8.61l3.47,10c.81,2.34,1.61,4.68,2.43,7,.72,2.09,1.47,4.17,2.17,6.26a4.86,4.86,0,0,1,.2,3.3c-.09.24-.11.59-.51.57l-.38-1.4a1.62,1.62,0,0,0,.09-.47,12.36,12.36,0,0,0-.37-2.12c-.91-2.71-1.87-5.4-2.81-8.1l-2.43-7Q53.37,80,51.61,74.94c-.82-2.39-1.63-4.79-2.49-7.17a7.76,7.76,0,0,0-.86-1.54c-.1-.15-.37-.18-.56-.27-.12-.36-.25-.73-.37-1.1Z"/><path class="cls-4" d="M47.7,66c.19.09.46.12.56.27a7.76,7.76,0,0,1,.86,1.54c.86,2.38,1.67,4.78,2.49,7.17q1.76,5.09,3.5,10.17l2.43,7c.94,2.7,1.9,5.39,2.81,8.1a12.36,12.36,0,0,1,.37,2.12,1.62,1.62,0,0,1-.09.47,4.09,4.09,0,0,1-.25-.46Q58,95.54,55.64,88.75q-2.18-6.25-4.37-12.51l-3.1-8.85C48,66.92,47.86,66.44,47.7,66Z"/><path class="cls-1" d="M80.19,82.51v21H75.3v-21Z"/><path class="cls-1" d="M90.62,86.51H84.85v-4h16.53v4H95.51v17H90.62Z"/><path class="cls-1" d="M104.87,98.64a12.57,12.57,0,0,0,5.39,1.31c2.24,0,3.42-.9,3.42-2.27s-1-2.06-3.61-3c-3.57-1.21-5.9-3.15-5.9-6.21,0-3.58,3.06-6.33,8.14-6.33a13.41,13.41,0,0,1,5.48,1.06l-1.08,3.84a10.33,10.33,0,0,0-4.5-1c-2.11,0-3.13.94-3.13,2,0,1.34,1.22,1.93,4,3,3.8,1.38,5.59,3.31,5.59,6.27,0,3.53-2.78,6.52-8.68,6.52a14.28,14.28,0,0,1-6.1-1.28Z"/></svg>